<?xml version="1.0" encoding="UTF-8" standalone="no"?>
<!-- Created with Inkscape (http://www.inkscape.org/) -->

<svg
   xmlns:dc="http://purl.org/dc/elements/1.1/"
   xmlns:cc="http://creativecommons.org/ns#"
   xmlns:rdf="http://www.w3.org/1999/02/22-rdf-syntax-ns#"
   xmlns:svg="http://www.w3.org/2000/svg"
   xmlns="http://www.w3.org/2000/svg"
   xmlns:sodipodi="http://sodipodi.sourceforge.net/DTD/sodipodi-0.dtd"
   xmlns:inkscape="http://www.inkscape.org/namespaces/inkscape"
   width="256"
   height="256"
   viewBox="0 0 256 256"
   id="svg2"
   version="1.1"
   inkscape:version="0.91 r13725"
   sodipodi:docname="xan_w4_eldar.svg"
   inkscape:export-filename="D:\dev\XansSciFiMashup\raw\flags\map\xan_w4_eldar.png"
   inkscape:export-xdpi="90"
   inkscape:export-ydpi="90">
  <defs
     id="defs4" />
  <sodipodi:namedview
     id="base"
     pagecolor="#00b2c4"
     bordercolor="#666666"
     borderopacity="1.0"
     inkscape:pageopacity="0"
     inkscape:pageshadow="2"
     inkscape:zoom="3.1332069"
     inkscape:cx="135.64377"
     inkscape:cy="130.20442"
     inkscape:document-units="px"
     inkscape:current-layer="layer1"
     showgrid="false"
     inkscape:window-width="1920"
     inkscape:window-height="1017"
     inkscape:window-x="1272"
     inkscape:window-y="-8"
     inkscape:window-maximized="1"
     units="px"
     showguides="false" />
  <metadata
     id="metadata7">
    <rdf:RDF>
      <cc:Work
         rdf:about="">
        <dc:format>image/svg+xml</dc:format>
        <dc:type
           rdf:resource="http://purl.org/dc/dcmitype/StillImage" />
        <dc:title></dc:title>
      </cc:Work>
    </rdf:RDF>
  </metadata>
  <g
     inkscape:label="Ebene 1"
     inkscape:groupmode="layer"
     id="layer1"
     transform="translate(0,-796.3622)">
    <path
       style="fill:#000000"
       d=""
       id="path4147"
       inkscape:connector-curvature="0" />
    <path
       style="fill:#000000"
       d=""
       id="path4145"
       inkscape:connector-curvature="0" />
    <path
       style="fill:#ffffff;fill-opacity:1"
       d="m 111.69463,1041.2423 c -0.98013,-1.0832 -0.96064,-1.2585 0.4135,-3.7199 2.80675,-5.0274 3.40251,-9.1012 4.36478,-29.8464 0.49942,-10.76672 1.04602,-24.00471 1.21465,-29.41804 l 0.30664,-9.84224 -2.54767,-1.87357 c -1.40122,-1.03052 -2.82877,-1.86963 -3.17232,-1.8646 -0.34356,0 -6.28694,5.69215 -13.207537,12.63816 -12.180765,12.22561 -14.947893,15.72254 -14.988297,18.94108 -0.02928,2.33442 -2.6056,0.97284 -7.857313,-4.15248 -2.925269,-2.85471 -6.104105,-6.17574 -7.064051,-7.37977 l -1.745385,-2.18932 4.75015,-2.35278 c 4.671091,-2.31366 7.885546,-4.86944 18.393561,-14.62405 2.811662,-2.61019 7.19667,-6.58764 9.744432,-8.83859 4.10025,-3.62279 4.58809,-4.27004 4.24754,-5.63556 -0.21153,-0.84828 -0.53666,-2.30612 -0.72231,-3.23919 l -0.33755,-1.69657 -14.605015,0.35051 c -17.251436,0.41387 -25.875068,1.43871 -29.111221,3.45989 -0.905383,0.5653 -1.483798,0.59305 -2.253984,0.10707 -0.910845,-0.57415 -1.055613,-1.90776 -1.197715,-11.03479 -0.190547,-12.23894 -0.0044,-12.71312 4.181153,-10.7032 6.159063,2.95698 15.927178,4.22984 32.830626,4.2777 l 10.155766,0.0284 0.7798,-2.78522 c 1.32808,-4.74335 5.02308,-11.11752 8.05697,-13.89872 0.93421,-0.85639 2.83308,-2.29332 4.2197,-3.19317 5.22434,-3.3903 5.17303,-3.3969 -24.024946,-3.08706 -15.546346,0.16498 -26.976241,0.0564 -27.5842,-0.26211 -0.570964,-0.29911 -1.03811,-0.90418 -1.03811,-1.34461 0,-0.44042 1.723642,-3.56762 3.830324,-6.94933 2.106681,-3.3817 5.109808,-8.22361 6.673605,-10.75981 1.563797,-2.5362 3.562268,-5.73951 4.441057,-7.11851 0.878789,-1.37897 2.480434,-3.93744 3.559253,-5.68547 2.315519,-3.75196 2.195553,-3.56089 9.269634,-14.76213 3.040734,-4.8147 5.843633,-9.26605 6.228704,-9.89188 2.095384,-3.40555 9.440709,-15.17063 12.267689,-19.64934 3.97929,-6.30426 5.53878,-8.83683 7.10774,-11.54267 0.66213,-1.14193 2.78943,-4.47873 4.72733,-7.4151 1.93792,-2.93639 3.53806,-5.62745 3.55592,-5.98014 0.0175,-0.35271 0.70766,-1.00266 1.53296,-1.44433 1.27719,-0.68355 1.62892,-0.67467 2.36305,0.0594 1.07751,1.07751 6.22096,9.37955 6.22096,10.04125 0,0.26814 0.20017,0.57653 0.44493,0.68529 0.24469,0.10882 1.49404,1.93287 2.77633,4.05358 1.28228,2.12073 3.44201,5.59101 4.7994,7.71172 3.22507,5.03865 11.68497,18.65831 12.44504,20.03536 0.32627,0.59111 2.35623,3.86612 4.511,7.27783 6.6015,10.45218 11.53761,18.3397 16.06974,25.6781 2.38372,3.85967 4.73444,7.62898 5.22383,8.37624 0.48942,0.74725 1.91303,3.06167 3.16361,5.14316 1.25059,2.08148 3.30304,5.38619 4.56098,7.34377 2.50676,3.90093 2.85058,5.32029 1.42163,5.86863 -0.51607,0.19798 -12.92897,0.36006 -27.5842,0.36006 -22.24762,0 -26.64587,0.13504 -26.64587,0.81784 0,0.44982 0.82342,1.15893 1.82982,1.57579 2.42701,1.00529 8.69343,7.54425 10.62866,11.09096 0.84894,1.55584 1.96272,4.16341 2.4751,5.79464 l 0.93156,2.96615 6.74935,-0.0656 c 13.42351,-0.13111 31.69656,-0.90488 33.14712,-1.40376 4.78415,-1.64543 5.85432,-1.24839 6.5659,2.4356 0.81118,4.19946 0.67673,16.28849 -0.18902,16.98622 -0.51054,0.41157 -2.43839,0.17721 -6.18926,-0.75345 -4.11573,-1.02069 -8.75717,-1.52525 -18.98268,-2.06368 -7.44421,-0.39202 -15.27005,-0.6208 -17.39076,-0.50871 -3.5992,0.19011 -3.86907,0.30265 -4.0544,1.68696 -0.10925,0.81572 -0.44287,1.73666 -0.74151,2.04674 -1.59435,1.65461 -0.24664,3.19778 12.20102,13.97003 3.20458,2.7732 7.58766,6.65603 9.74014,8.62837 5.00728,4.58799 7.26258,6.1906 11.47706,8.1555 1.87601,0.87473 3.4093,1.92733 3.40727,2.33945 -0.004,1.00299 -13.76801,15.28266 -14.72979,15.28266 -0.41538,0 -1.42683,-1.53487 -2.24765,-3.41084 -0.82081,-1.87597 -2.18932,-4.47873 -3.04112,-5.78371 -2.00243,-3.06798 -23.91386,-25.21143 -24.94718,-25.21143 -0.43275,0 -1.66176,0.66735 -2.73114,1.48307 -1.0694,0.81551 -2.25283,1.48286 -2.62986,1.48286 -0.80729,0 -0.80803,0.18793 -0.0802,20.16915 0.82674,22.69364 1.65053,36.59504 2.3875,40.28954 1.19511,5.9911 1.9188,8.6194 3.01925,10.9652 1.77635,3.7862 1.42377,3.873 -15.85644,3.8948 -13.92913,0.022 -14.95275,-0.055 -15.91521,-1.1177 z m 21.79453,-79.29775 c 9.71584,-3.31054 15.65914,-17.0438 12.54697,-28.99211 -3.95009,-15.1654 -18.33248,-21.13947 -28.62163,-11.88865 -10.36524,9.31933 -10.35967,28.06549 0.0109,37.38973 4.68912,4.21607 10.33486,5.44283 16.06351,3.49103 z m -10.86523,-4.44267 c -14.1431,-6.4019 -14.1431,-29.68765 0,-36.08977 8.17235,-3.6993 17.38961,1.64303 20.41568,11.83293 3.61097,12.15939 -4.26675,25.46524 -15.07682,25.46524 -1.46817,0 -3.87069,-0.54367 -5.33886,-1.2084 z m 43.30423,-63.4876 c 0,-0.36051 -0.80085,-1.84208 -1.77963,-3.29238 -0.97881,-1.45029 -1.77963,-2.85779 -1.77963,-3.12774 0,-0.26996 -0.38295,-0.80865 -0.85099,-1.19708 -0.46802,-0.38844 -1.40236,-1.76412 -2.07629,-3.05706 -0.6739,-1.29295 -3.22734,-5.39552 -5.6743,-9.11687 -2.44696,-3.72133 -4.44901,-6.90801 -4.44901,-7.08151 0,-0.1735 -1.02201,-1.85875 -2.27112,-3.74501 -4.50864,-6.80841 -6.62701,-10.24267 -6.62701,-10.7436 0,-0.28073 -0.53389,-0.99356 -1.18642,-1.5841 -0.65252,-0.59052 -1.18642,-1.28742 -1.18642,-1.54861 0,-0.26122 -0.60062,-1.36901 -1.33473,-2.46175 -0.73408,-1.09276 -2.80289,-4.30643 -4.59736,-7.14149 -1.79444,-2.83507 -3.56782,-5.15618 -3.94083,-5.15802 -0.60944,-0.002 -9.10974,12.56569 -9.10974,13.46984 0,0.20563 -0.44346,0.86378 -0.98547,1.46269 -0.54199,0.59889 -1.27608,1.60746 -1.63132,2.24123 -0.89428,1.59552 -7.06941,11.43752 -9.87943,15.74596 -1.27678,1.95758 -2.57472,4.13393 -2.88432,4.83633 -0.30962,0.7024 -0.86279,1.46245 -1.22931,1.68896 -0.36652,0.22652 -0.92223,0.98654 -1.23493,1.68895 -0.31268,0.7024 -1.297251,2.41566 -2.187928,3.80722 -5.140837,8.03193 -9.034531,14.33821 -9.034531,14.63242 0,0.18531 17.084399,0.33711 37.965349,0.33711 27.31931,0 37.96537,-0.18377 37.96537,-0.65549 z"
       id="path4148"
       inkscape:connector-curvature="0" />
  </g>
</svg>
