<?xml version="1.0" encoding="UTF-8" standalone="no"?>
<!-- Created with Inkscape (http://www.inkscape.org/) -->

<svg
   xmlns:dc="http://purl.org/dc/elements/1.1/"
   xmlns:cc="http://creativecommons.org/ns#"
   xmlns:rdf="http://www.w3.org/1999/02/22-rdf-syntax-ns#"
   xmlns:svg="http://www.w3.org/2000/svg"
   xmlns="http://www.w3.org/2000/svg"
   xmlns:sodipodi="http://sodipodi.sourceforge.net/DTD/sodipodi-0.dtd"
   xmlns:inkscape="http://www.inkscape.org/namespaces/inkscape"
   id="svg2860"
   version="1.1"
   inkscape:version="0.91 r13725"
   width="256"
   height="256"
   sodipodi:docname="xan_st_klingon.svg"
   inkscape:export-filename="D:\dev\XansSciFiMashup\raw\flags\map\xan_st_klingon.png"
   inkscape:export-xdpi="90"
   inkscape:export-ydpi="90">
  <metadata
     id="metadata2866">
    <rdf:RDF>
      <cc:Work
         rdf:about="">
        <dc:format>image/svg+xml</dc:format>
        <dc:type
           rdf:resource="http://purl.org/dc/dcmitype/StillImage" />
        <dc:title></dc:title>
      </cc:Work>
    </rdf:RDF>
  </metadata>
  <defs
     id="defs2864">
    <inkscape:perspective
       sodipodi:type="inkscape:persp3d"
       inkscape:vp_x="0 : 0.5 : 1"
       inkscape:vp_y="0 : 1000 : 0"
       inkscape:vp_z="1 : 0.5 : 1"
       inkscape:persp3d-origin="0.5 : 0.33333333 : 1"
       id="perspective2868" />
    <inkscape:perspective
       id="perspective3654"
       inkscape:persp3d-origin="0.5 : 0.33333333 : 1"
       inkscape:vp_z="1 : 0.5 : 1"
       inkscape:vp_y="0 : 1000 : 0"
       inkscape:vp_x="0 : 0.5 : 1"
       sodipodi:type="inkscape:persp3d" />
    <inkscape:perspective
       id="perspective3676"
       inkscape:persp3d-origin="0.5 : 0.33333333 : 1"
       inkscape:vp_z="1 : 0.5 : 1"
       inkscape:vp_y="0 : 1000 : 0"
       inkscape:vp_x="0 : 0.5 : 1"
       sodipodi:type="inkscape:persp3d" />
    <inkscape:perspective
       id="perspective3714"
       inkscape:persp3d-origin="0.5 : 0.33333333 : 1"
       inkscape:vp_z="1 : 0.5 : 1"
       inkscape:vp_y="0 : 1000 : 0"
       inkscape:vp_x="0 : 0.5 : 1"
       sodipodi:type="inkscape:persp3d" />
    <inkscape:perspective
       id="perspective3743"
       inkscape:persp3d-origin="0.5 : 0.33333333 : 1"
       inkscape:vp_z="1 : 0.5 : 1"
       inkscape:vp_y="0 : 1000 : 0"
       inkscape:vp_x="0 : 0.5 : 1"
       sodipodi:type="inkscape:persp3d" />
    <inkscape:perspective
       id="perspective3773"
       inkscape:persp3d-origin="0.5 : 0.33333333 : 1"
       inkscape:vp_z="1 : 0.5 : 1"
       inkscape:vp_y="0 : 1000 : 0"
       inkscape:vp_x="0 : 0.5 : 1"
       sodipodi:type="inkscape:persp3d" />
    <inkscape:perspective
       id="perspective3795"
       inkscape:persp3d-origin="0.5 : 0.33333333 : 1"
       inkscape:vp_z="1 : 0.5 : 1"
       inkscape:vp_y="0 : 1000 : 0"
       inkscape:vp_x="0 : 0.5 : 1"
       sodipodi:type="inkscape:persp3d" />
    <inkscape:perspective
       id="perspective3830"
       inkscape:persp3d-origin="0.5 : 0.33333333 : 1"
       inkscape:vp_z="1 : 0.5 : 1"
       inkscape:vp_y="0 : 1000 : 0"
       inkscape:vp_x="0 : 0.5 : 1"
       sodipodi:type="inkscape:persp3d" />
    <inkscape:perspective
       id="perspective3860"
       inkscape:persp3d-origin="0.5 : 0.33333333 : 1"
       inkscape:vp_z="1 : 0.5 : 1"
       inkscape:vp_y="0 : 1000 : 0"
       inkscape:vp_x="0 : 0.5 : 1"
       sodipodi:type="inkscape:persp3d" />
    <inkscape:perspective
       id="perspective3887"
       inkscape:persp3d-origin="0.5 : 0.33333333 : 1"
       inkscape:vp_z="1 : 0.5 : 1"
       inkscape:vp_y="0 : 1000 : 0"
       inkscape:vp_x="0 : 0.5 : 1"
       sodipodi:type="inkscape:persp3d" />
    <inkscape:perspective
       id="perspective3913"
       inkscape:persp3d-origin="0.5 : 0.33333333 : 1"
       inkscape:vp_z="1 : 0.5 : 1"
       inkscape:vp_y="0 : 1000 : 0"
       inkscape:vp_x="0 : 0.5 : 1"
       sodipodi:type="inkscape:persp3d" />
    <inkscape:perspective
       id="perspective3964"
       inkscape:persp3d-origin="0.5 : 0.33333333 : 1"
       inkscape:vp_z="1 : 0.5 : 1"
       inkscape:vp_y="0 : 1000 : 0"
       inkscape:vp_x="0 : 0.5 : 1"
       sodipodi:type="inkscape:persp3d" />
  </defs>
  <sodipodi:namedview
     pagecolor="#c00000"
     bordercolor="#666666"
     borderopacity="1"
     objecttolerance="10"
     gridtolerance="10"
     guidetolerance="10"
     inkscape:pageopacity="0"
     inkscape:pageshadow="2"
     inkscape:window-width="1920"
     inkscape:window-height="1017"
     id="namedview2862"
     showgrid="false"
     showguides="false"
     inkscape:zoom="1.9476024"
     inkscape:cx="79.511402"
     inkscape:cy="126.03782"
     inkscape:window-x="1272"
     inkscape:window-y="-8"
     inkscape:window-maximized="1"
     inkscape:current-layer="svg2860" />
  <g
     id="g4153"
     transform="matrix(2.1851853,0,0,2.1851853,-10.592599,-11.851855)">
    <circle
       id="path3933"
       style="fill:none;stroke:#ffffff;stroke-width:1.51734483;stroke-miterlimit:4;stroke-dasharray:none;stroke-opacity:1"
       cx="63.758747"
       cy="87.316925"
       r="29.924398" />
    <path
       sodipodi:nodetypes="ccccccccccccccccccccccccccccccccccccc"
       id="path2872-1-4-4"
       d="m 63.60034,101.75152 -14.164119,-21.11503 0.972367,-1.88246 1.126019,-2.707764 0.65575,-1.836093 1.049193,-3.147578 0.655746,-2.360687 0.786897,-3.016432 0.578919,-2.622987 0.601423,-3.016435 0.655746,-3.147579 0.786897,-3.803329 0.532552,-2.754134 1.303535,-7.213211 0.655746,-5.114825 0.655748,-5.245969 0.786895,-5.901713 0.786894,-5.770569 0.655748,-5.377118 L 63.44669,10 l 0.276846,3.40329 0.401403,3.756958 0.524597,4.327925 0.655745,4.983673 0.655743,5.245965 0.686207,5.076411 0.887587,5.153237 0.994871,5.20756 0.841215,4.890934 1.049195,5.114818 0.9485,4.505445 1.412187,5.593049 1.180342,4.459075 1.180344,3.278728 1.180342,2.885288 1.049193,2.229535 -13.770667,21.639629 z"
       style="fill:#ffffff;fill-opacity:1;stroke:none"
       inkscape:connector-curvature="0" />
    <path
       sodipodi:nodetypes="cccccccccccccccccccccccccccccccccc"
       id="path3763-8"
       d="m 78.782197,81.870216 -14.637005,21.949814 1.699236,0.81767 1.869854,0.92038 2.33489,0.88842 2.697227,0.73436 2.569417,0.38173 2.504353,0.18602 3.659253,-0.0417 2.697225,-0.25962 2.325192,-0.37203 3.441282,-0.65105 2.976247,-0.83707 2.883238,-1.02309 3.813318,-1.39511 3.078956,-1.37571 2.74573,-1.27016 1.58113,-0.744059 2.06842,-1.125797 1.67699,-1.035632 -2.59452,-0.298427 -2.28638,-0.372031 -2.92205,-0.660755 -3.441285,-0.930078 -3.720309,-1.209099 -3.069253,-1.302105 -2.697221,-1.302111 -1.860154,-1.116093 -2.325194,-1.581132 -2.139176,-1.674137 -1.674142,-1.395114 -1.674139,-1.860154 -1.023083,-1.302111 -0.558047,-0.744059 z"
       style="fill:#ffffff;fill-opacity:1;stroke:none"
       inkscape:connector-curvature="0" />
    <path
       sodipodi:nodetypes="ccccccccccccccccccccccccccccccccccc"
       id="path3763-8-5-1"
       d="m 62.189231,103.6039 -13.761532,-21.737228 -1.204818,1.511532 -1.756215,1.119556 -2.655428,1.449366 -2.496197,1.219466 -1.987064,1.146285 -1.154796,0.682315 -1.1235,0.732912 -0.948107,0.735251 -0.818488,0.733163 -1.644509,1.615948 -1.909557,2.017217 -1.493509,2.091615 -1.347028,2.121442 -1.188521,2.67728 -1.089821,3.42137 -0.292792,2.69086 -0.0845,3.88187 0.05915,4.8522 4.087236,-2.93714 2.189895,-1.7267 2.838047,-2.10566 2.587872,-1.46992 2.206781,-1.2774 2.567216,-1.2283 1.873759,-0.76376 2.361717,-0.90875 1.559947,-0.47682 2.110338,-0.35234 3.14225,-0.34281 3.854396,0.11534 2.84347,0.18711 1.672886,0.26583 1.001426,0.0589 z"
       style="fill:#ffffff;fill-opacity:1;stroke:none"
       inkscape:connector-curvature="0" />
  </g>
</svg>
