<?xml version="1.0" encoding="UTF-8" standalone="no"?>
<!-- Created with Inkscape (http://www.inkscape.org/) -->

<svg
   xmlns:dc="http://purl.org/dc/elements/1.1/"
   xmlns:cc="http://creativecommons.org/ns#"
   xmlns:rdf="http://www.w3.org/1999/02/22-rdf-syntax-ns#"
   xmlns:svg="http://www.w3.org/2000/svg"
   xmlns="http://www.w3.org/2000/svg"
   xmlns:sodipodi="http://sodipodi.sourceforge.net/DTD/sodipodi-0.dtd"
   xmlns:inkscape="http://www.inkscape.org/namespaces/inkscape"
   width="256"
   height="256"
   viewBox="0 0 256 256"
   id="svg2"
   version="1.1"
   inkscape:version="0.91 r13725"
   sodipodi:docname="xan_w4_tyranid.svg"
   inkscape:export-filename="D:\dev\XansSciFiMashup\raw\flags\map\xan_w4_tyranid.png"
   inkscape:export-xdpi="90"
   inkscape:export-ydpi="90">
  <defs
     id="defs4" />
  <sodipodi:namedview
     id="base"
     pagecolor="#9003a9"
     bordercolor="#666666"
     borderopacity="1.0"
     inkscape:pageopacity="0"
     inkscape:pageshadow="2"
     inkscape:zoom="1.979899"
     inkscape:cx="114.29201"
     inkscape:cy="148.57772"
     inkscape:document-units="px"
     inkscape:current-layer="layer1"
     showgrid="false"
     inkscape:window-width="1920"
     inkscape:window-height="1017"
     inkscape:window-x="1272"
     inkscape:window-y="-8"
     inkscape:window-maximized="1"
     units="px"
     showguides="false" />
  <metadata
     id="metadata7">
    <rdf:RDF>
      <cc:Work
         rdf:about="">
        <dc:format>image/svg+xml</dc:format>
        <dc:type
           rdf:resource="http://purl.org/dc/dcmitype/StillImage" />
        <dc:title></dc:title>
      </cc:Work>
    </rdf:RDF>
  </metadata>
  <g
     inkscape:label="Ebene 1"
     inkscape:groupmode="layer"
     id="layer1"
     transform="translate(0,-796.3622)">
    <path
       style="fill:#ffffff;fill-opacity:1"
       d="m 117.21056,1034.7475 c -4.03468,-2.0565 -4.38361,-2.5239 -4.1411,-5.548 0.34026,-4.2434 -1.17436,-5.999 -5.17541,-5.999 -3.74498,0 -4.84792,1.8489 -2.82545,4.7364 1.27999,1.8275 1.22119,2.129 -0.60583,3.1069 -2.68663,1.4376 -11.124442,-1.0074 -15.15632,-4.392 -2.668537,-2.2403 -2.780506,-2.5602 -1.223861,-3.4968 2.629902,-1.5823 2.121888,-4.7431 -0.949991,-5.9111 -2.176759,-0.8276 -2.893175,-0.6984 -3.920958,0.7073 -0.691658,0.9458 -1.005517,2.5139 -0.697449,3.4845 1.791706,5.6453 -13.442785,-3.0514 -27.511409,-15.7047 -6.979486,-6.27743 -13.560021,-14.33647 -20.512651,-25.12105 -3.572441,-5.54144 -9.330841,-20.46762 -9.281608,-24.05876 l 0.03256,-2.37662 1.938026,2.32679 c 1.065916,1.27965 2.200752,3.3735 2.521888,4.65293 0.8616,3.43294 13.90585,15.63375 24.188561,22.62462 4.939761,3.35821 12.726435,7.68292 17.303672,9.61026 15.750633,6.63233 38.63699,11.28353 45.77095,9.30243 2.02025,-0.5612 5.05581,-1.0227 6.74571,-1.0258 1.68988,0 6.97697,-1.131 11.74909,-2.50703 10.51871,-3.03286 21.46065,-9.81045 30.73588,-19.03831 7.8429,-7.80289 11.45745,-12.98704 15.70118,-22.51907 2.94625,-6.61786 3.30873,-8.44267 3.66938,-18.47314 0.37067,-10.3087 0.2065,-11.60904 -2.22569,-17.62365 -5.53129,-13.67888 -17.06492,-25.49708 -29.78958,-30.5246 -6.09754,-2.40913 -21.65324,-3.91982 -21.65324,-2.10283 0,0.57029 2.69166,3.15159 5.98147,5.7362 l 5.98144,4.69932 -4.75758,1.91316 c -7.71937,3.1042 -20.72955,10.10309 -24.63202,13.25097 -1.99308,1.60767 -6.48762,5.17495 -9.98787,7.92729 l -6.364085,5.00424 -13.707281,-0.36702 c -10.981777,-0.29404 -14.437332,-0.73525 -17.378887,-2.21896 -2.01938,-1.01856 -3.671583,-2.10718 -3.671583,-2.41914 0,-0.31198 2.749497,-0.70348 6.109997,-0.87001 3.3605,-0.16651 6.30319,-0.49599 6.539322,-0.73213 0.23611,-0.23613 -0.530718,-1.72783 -1.704101,-3.31491 -1.173361,-1.58706 -2.133404,-3.01358 -2.133404,-3.17002 0,-0.15646 2.841822,-0.2844 6.315143,-0.2844 7.571039,0 9.259822,-1.16047 6.909363,-4.74773 -2.13607,-3.26007 -1.104659,-5.09078 1.744003,-3.0955 2.141118,1.49968 10.493276,2.0932 10.481433,0.74482 -0.0022,-0.40388 -0.881835,-2.05609 -1.95175,-3.6716 -1.069892,-1.61549 -1.949192,-3.15758 -1.953999,-3.42682 -0.0044,-0.26926 3.216233,-0.3474 7.157839,-0.17372 8.04927,0.35476 9.83953,-0.6886 9.69841,-5.65225 -0.26898,-9.46035 -13.564321,-19.63046 -25.662819,-19.63046 -4.326333,0 -7.425178,2.01839 -6.560082,4.27279 0.575668,1.50016 1.969996,2.30962 7.040191,4.08712 1.778682,0.62357 1.688936,0.80404 -0.979076,1.96886 -1.615492,0.7053 -6.351855,1.59058 -10.525246,1.96731 -4.17337,0.37673 -7.587953,1.10411 -7.587953,1.61639 0,0.51229 1.762359,1.62371 3.916369,2.46983 2.153989,0.84611 3.916369,1.89627 3.916369,2.33366 0,1.76913 -7.637491,5.81701 -12.946047,6.8614 -6.039197,1.18813 -7.181681,2.39624 -3.208978,3.39334 1.346254,0.33787 2.447744,1.02743 2.447744,1.53232 0,1.64856 -9.960286,5.64056 -12.704277,5.09174 -1.615907,-0.32316 -3.029049,0.0232 -3.778418,0.92613 -0.983009,1.18447 -0.653351,1.8999 1.843364,4.00076 1.672263,1.40712 3.667541,2.55838 4.433976,2.55838 0.766435,0 1.393519,0.42063 1.393519,0.93472 0,1.4584 -4.97822,1.9183 -23.987741,2.21605 l -17.62365,0.27606 0.25298,-4.8061 c 0.832056,-15.80675 17.051304,-47.43135 32.26143,-62.90387 7.132056,-7.2551 26.25335,-21.21292 35.042919,-25.58 23.494216,-11.67307 34.051076,-14.6156 55.850826,-15.56739 11.31533,-0.49405 18.60754,1.08257 35.44945,7.66433 9.99036,3.9042 12.52529,6.24296 8.0383,7.41635 -2.86299,0.74869 -4.93209,5.23118 -4.0086,8.68422 1.04059,3.89095 6.26709,6.91703 9.4455,5.46884 1.28231,-0.58426 3.04434,-2.15025 3.91562,-3.47999 1.45589,-2.22197 1.45685,-2.66386 0.0109,-5.45833 -1.67143,-3.23223 -1.31134,-4.94131 1.04111,-4.94131 4.28534,0 23.25688,12.27635 26.41125,17.09053 2.12716,3.24645 1.19948,5.42857 -2.30783,5.42857 -3.10852,0 -7.05502,3.50052 -7.05502,6.25773 0,2.53365 5.34199,7.44955 8.0952,7.44955 3.18372,0 5.61208,-2.89302 5.61208,-6.68595 0,-4.33713 1.89799,-3.96187 6.78675,1.34179 5.33659,5.78952 10.8369,17.22584 10.8369,22.53223 0,4.98183 -0.38639,5.38467 -3.89461,4.06046 -3.56306,-1.3449 -5.60049,0.16673 -6.46972,4.80011 -0.43562,2.32198 -0.12915,4.09 1.01078,5.82964 1.39164,2.12389 2.24903,2.45235 5.73957,2.19863 3.66129,-0.26609 4.13692,-0.58841 4.41332,-2.99075 0.17045,-1.48088 0.64433,-2.6925 1.0532,-2.6925 4.04387,0 9.42974,17.32696 8.32021,26.76722 -0.8191,6.96921 -2.22153,8.30596 -5.28878,5.04102 -1.25843,-1.33952 -3.06744,-2.43549 -4.02003,-2.43549 -4.47351,0 -6.54171,9.85155 -2.78243,13.25366 1.84406,1.66885 2.20206,1.69051 4.65066,0.28152 4.1558,-2.39137 5.10057,-1.38023 5.10057,5.45887 0,9.31341 -1.75917,17.08756 -4.70088,20.7742 -2.5855,3.24042 -2.59059,3.24173 -4.63661,1.31964 -2.8182,-2.64758 -5.97194,-2.4094 -8.82248,0.66648 -2.60147,2.8071 -2.99622,5.23769 -1.35012,8.31335 0.82458,1.54078 1.87614,1.90396 4.88417,1.68675 2.10836,-0.15296 4.24485,0.14641 4.74779,0.66452 1.33972,1.37929 -1.109,7.65102 -5.44605,13.94809 -5.13516,7.4561 -8.8834,10.98129 -11.67616,10.98129 -2.15904,0 -2.37242,-0.3964 -2.37242,-4.40604 0,-4.37411 -0.0245,-4.40601 -3.39275,-4.40601 -3.928,0 -10.31453,4.9051 -10.31453,7.92195 0,1.0911 1.62074,2.86773 3.96807,4.34943 4.10191,2.5895 4.46564,4.5269 1.54187,8.2129 -1.57749,1.9887 -13.14057,9.3524 -17.62338,11.2229 -7.24381,3.0228 -8.58023,2.36 -9.64125,-4.7821 -0.42402,-2.8541 -5.51877,-3.1211 -8.89407,-0.4661 -3.27388,2.5753 -3.31124,3.9004 -0.19251,6.8303 3.74673,3.5199 3.16719,5.6664 -2.16682,8.0258 -3.22932,1.4284 -6.82967,2.0733 -11.99387,2.148 l -7.37933,0.1071 0,-3.8103 c 0,-2.9004 -0.46763,-3.9946 -1.9582,-4.582 -3.18339,-1.2543 -5.0306,-1.0204 -7.45645,0.9438 -2.06155,1.6693 -2.15975,2.0934 -0.99098,4.2773 0.71357,1.3332 1.13796,3.2531 0.94306,4.2662 -0.30826,1.6026 -1.4346,1.8795 -8.66361,2.1297 -7.08499,0.2449 -8.95848,-0.044 -12.7152,-1.9584 z M 47.298533,871.30509 c 1.025839,-1.1519 6.050779,-5.62222 11.166535,-9.93407 5.115756,-4.31184 9.844886,-8.61053 10.509206,-9.55261 1.043365,-1.47964 0.862584,-1.79957 -1.327526,-2.34926 -3.28133,-0.82356 -4.843503,0.25226 -15.839025,10.90768 -5.964485,5.77996 -9.008132,9.45476 -9.008132,10.87605 0,2.72999 2.092585,2.75429 4.498942,0.0522 z"
       id="path4151"
       inkscape:connector-curvature="0" />
  </g>
</svg>
