<?xml version="1.0" encoding="UTF-8" standalone="no"?>
<!-- Created with Inkscape (http://www.inkscape.org/) -->

<svg
   xmlns:dc="http://purl.org/dc/elements/1.1/"
   xmlns:cc="http://creativecommons.org/ns#"
   xmlns:rdf="http://www.w3.org/1999/02/22-rdf-syntax-ns#"
   xmlns:svg="http://www.w3.org/2000/svg"
   xmlns="http://www.w3.org/2000/svg"
   xmlns:sodipodi="http://sodipodi.sourceforge.net/DTD/sodipodi-0.dtd"
   xmlns:inkscape="http://www.inkscape.org/namespaces/inkscape"
   version="1.1"
   width="256"
   height="256"
   id="svg2"
   inkscape:version="0.91 r13725"
   sodipodi:docname="xan_st_federation.svg"
   inkscape:export-filename="D:\dev\XansSciFiMashup\raw\flags\map\xan_st_federation.png"
   inkscape:export-xdpi="90"
   inkscape:export-ydpi="90">
  <sodipodi:namedview
     pagecolor="#0033fa"
     bordercolor="#666666"
     borderopacity="1"
     objecttolerance="10"
     gridtolerance="10"
     guidetolerance="10"
     inkscape:pageopacity="0"
     inkscape:pageshadow="2"
     inkscape:window-width="1920"
     inkscape:window-height="1017"
     id="namedview93"
     showgrid="false"
     inkscape:zoom="2.4383071"
     inkscape:cx="149.22967"
     inkscape:cy="140.74923"
     inkscape:window-x="1272"
     inkscape:window-y="-8"
     inkscape:window-maximized="1"
     inkscape:current-layer="svg2" />
  <defs
     id="defs4" />
  <metadata
     id="metadata7">
    <rdf:RDF>
      <cc:Work
         rdf:about="">
        <dc:format>image/svg+xml</dc:format>
        <dc:type
           rdf:resource="http://purl.org/dc/dcmitype/StillImage" />
        <dc:title></dc:title>
      </cc:Work>
    </rdf:RDF>
  </metadata>
  <g
     id="g4099"
     transform="matrix(0.32937031,0,0,0.32937031,9.9999986,38.35885)">
    <path
       id="path2997"
       d="m 358.25,20.71875 c -125.3175,0 -226.90625,101.62125 -226.90625,226.9375 0,125.3225 101.58875,226.90625 226.90625,226.90625 125.3175,0 226.90625,-101.58375 226.90625,-226.90625 C 585.15625,122.34 483.5675,20.71875 358.25,20.71875 Z m 0,4.46875 c 122.86125,0 222.46875,99.6075 222.46875,222.46875 0,122.8625 -99.6075,222.4375 -222.46875,222.4375 -122.86125,0 -222.4375,-99.575 -222.4375,-222.4375 C 135.8125,124.795 235.38875,25.1875 358.25,25.1875 Z"
       style="fill:#ffffff;fill-opacity:1;fill-rule:nonzero;stroke:none"
       inkscape:connector-curvature="0" />
    <path
       d="M 151.80125,56.035 C 173.57875,38.17875 198.40875,0 198.40875,0 c 0,0 -7.955,0.44 -18.56,6.275 C 166.645,13.535 150.215,26.50875 150.215,26.50875 L 151.82125,10.445 c 0,0 -13.08625,10.36625 -21.435,24.08125 -8.51625,13.995 -12.305,31.3475 -12.305,31.3475 0,0 15.68375,4.95125 33.72,-9.83875 z M 110.5075,108.06625 C 122.86625,96.885 131.73875,81.1325 131.73875,81.1325 c 0,0 -7.54875,3.755 -14.57625,4.89375 -5.11125,0.82 -10.32625,-0.875 -10.32625,-0.875 0,0 -2.71,-5.65375 -2.16375,-15.2975 0.65,-11.48 4.575,-27.275 4.575,-27.275 0,0 -14.6375,15.78625 -20.96625,34.78 -1.7775,5.3325 -3.11,10.87375 -4.11625,16.245 -3.8775,18.06125 -3.0325,33.315 -3.0325,33.315 0,0 16.445,-7.1525 29.375,-18.8525 z m -23.13,58.8525 C 97.4075,155.87 103.6225,138.97 103.6225,138.97 c 0,0 -8.495,4.74125 -17.22625,6.7525 -6.645,1.53375 -14.10125,0.47875 -14.10125,0.47875 0,0 -2.33375,-6.875 -3.26125,-16.71375 -1.66125,-17.53375 -0.7525,-45.14125 -0.7525,-45.14125 0,0 -15.1125,27.465 -15.7375,52.28 -0.58125,22.9 11.71875,45.7175 11.71875,45.7175 0,0 13.4725,-4.795 23.115,-15.425 z m -28.74,69.24875 c 0,0 14.6975,-11.08375 22.6275,-24.01875 7.30375,-11.92375 7.9,-25.78625 7.9,-25.78625 0,0 -7.09,3.8725 -14.62375,6.80125 -6.895,2.68125 -14.2975,4.44375 -14.2975,4.44375 0,0 -8.1975,-8.955 -13.2375,-20.7175 C 39.355,159.03375 33.74,135.7575 33.74,135.7575 c 0,0 -8.125,31.17125 -1.845,56.49375 6.17125,24.8775 26.7425,43.91625 26.7425,43.91625 z m 4.01875,61.045 c 0,0 10.13125,-10.67875 15.59125,-24.14125 5.77625,-14.22875 6.89875,-31.28375 6.89875,-31.28375 L 61.85,262.67125 c 0,0 -12.51375,-8.29125 -23.26125,-22.515 -14.72125,-19.4775 -28.95,-46.5675 -28.95,-46.5675 0,0 -1.7925,42.3975 11.5675,68.50625 13.14875,25.69875 41.45,35.1175 41.45,35.1175 z m 15.26375,56.23 c 0,0 8.945,-10.36125 11.7475,-23.69625 3.535,-16.7875 1.10375,-37.35375 1.10375,-37.35375 0,0 -4.0775,8.52125 -9.2725,16.31375 -4.375,6.5625 -10.01,12.6025 -10.01,12.6025 0,0 -14.60375,-5.87875 -28.86625,-19.33125 C 22.55375,283.0475 0,252.22625 0,252.22625 c 0,0 2.08,45.9675 21.19125,70.455 C 40.635,347.5925 77.92,353.4425 77.92,353.4425 Z m 31.3275,53.81875 c 0,0 5.44,-14.4925 5.25,-30.5175 -0.21,-17.6375 -6.055,-36.95875 -6.055,-36.95875 l -18.47625,35.3475 c 0,0 -17.34875,0.55625 -34.6875,-8.56 C 34.0525,355.41 12.05125,334.165 12.05125,334.165 c 0,0 14.39875,40.17125 39.345,58.93125 23.61375,17.76375 57.85125,14.165 57.85125,14.165 z m 37.755,46.59125 c 0,0 2.55375,-16.3375 0.13625,-31.22 C 144.36,405.5425 136.5575,389.59 136.5575,389.59 c 0,0 -1.48,11.67 -4.98,22.1675 -2.86125,8.59 -7.87125,16.3875 -7.87125,16.3875 0,0 -9.9075,1.465 -22.525,0.34625 -18.1,-1.60125 -40.9375,-5.96625 -40.9375,-5.96625 0,0 12.33375,17.06 34.54625,25.0825 21.1375,7.6325 52.2125,6.245 52.2125,6.245 z m 17.67,-28.115 -3.2125,40.96625 c 0,0 -9.30625,3.6625 -21.71375,4.17 -16.3575,0.67375 -36.92375,-1.7625 -36.92375,-1.7625 0,0 17.9875,15.3525 39.43375,20.3125 C 164.18,494.5025 189.575,489.195 189.575,489.195 c 0,0 2.71,-14.4875 -3.0175,-28.335 -6.655,-16.10375 -21.885,-35.1225 -21.885,-35.1225 z m 150.625,84.395 c -13.72,-7.57875 -34.15,-12.1 -34.15,-12.1 0,0 -20.58125,-3.36 -40.1025,-9.0525 -19.02875,-5.5525 -37.01125,-13.4425 -37.01125,-13.4425 0,0 4.0375,10.05375 1.865,17.00125 -1.81125,5.79625 -9.8975,8.70625 -9.8975,8.70625 l 17.67125,5.62 c 0,0 44.61375,1.29875 70.7025,5.5425 23.135,3.765 28.1,10.5225 28.1,10.5225 0,0 -2.82625,2.96875 -12.7625,4.57 -14.195,2.29 -35.435,1.85625 -35.435,1.85625 l 15.26375,14.4575 c 0,0 16.72375,2.04625 31.17125,-2.14375 13.21375,-3.8275 24.25375,-13.92125 24.25375,-13.92125 0,0 -6.49,-10.34125 -19.66875,-17.61625 z M 564.71625,56.035 c 18.0375,14.79 33.72125,9.835 33.72125,9.835 0,0 -3.78375,-17.35375 -12.305,-31.34875 -8.345,-13.715 -21.43,-24.07625 -21.43,-24.07625 l 1.60625,16.06375 c 0,0 -16.43625,-12.97375 -29.63875,-20.23375 C 526.065,0.44 518.11,0 518.11,0 c 0,0 24.83375,38.17875 46.60625,56.035 z m 41.295,52.03125 c 12.93375,11.7 29.37875,18.8525 29.37875,18.8525 0,0 0.845,-15.22875 -3.02625,-33.28125 -1.00625,-5.38 -2.33875,-10.9375 -4.12125,-16.27875 -6.33375,-18.99375 -20.9675,-34.78 -20.9675,-34.78 0,0 3.92625,15.795 4.575,27.28 0.5475,9.63875 -2.1675,15.2925 -2.1675,15.2925 0,0 -5.215,1.695 -10.3225,0.875 -7.02625,-1.13875 -14.575,-4.89375 -14.575,-4.89375 0,0 8.8675,15.7525 21.22625,26.93375 z M 612.9,138.97 c 0,0 6.21625,16.895 16.24,27.94875 9.64875,10.625 23.11625,15.425 23.11625,15.425 0,0 12.3,-22.8175 11.72375,-45.7175 -0.625,-24.81875 -15.7375,-52.28 -15.7375,-52.28 0,0 0.9075,27.6075 -0.7525,45.14125 -0.9325,9.83875 -3.26625,16.71375 -3.26625,16.71375 0,0 -7.45625,1.06 -14.10125,-0.47875 C 621.39125,143.71125 612.9,138.97 612.9,138.97 Z m 29.0825,54.19375 c -7.53875,-2.92875 -14.62375,-6.80125 -14.62375,-6.80125 0,0 0.59,13.8625 7.9,25.78625 7.93,12.935 22.6225,24.01875 22.6225,24.01875 0,0 20.57625,-19.03875 26.7425,-43.91625 6.28,-25.3225 -1.84,-56.49375 -1.84,-56.49375 0,0 -5.62125,23.27625 -13.2725,41.1325 -5.04375,11.7625 -13.23625,20.7175 -13.23625,20.7175 0,0 -7.3975,-1.7625 -14.2925,-4.44375 z m 12.685,69.5075 -23.295,-20.88375 c 0,0 1.1225,17.055 6.89875,31.28875 5.45875,13.4575 15.59125,24.13625 15.59125,24.13625 0,0 28.305,-9.41875 41.45,-35.1125 13.36,-26.11375 11.5675,-68.50625 11.5675,-68.50625 0,0 -14.22875,27.09 -28.95,46.5675 -10.7475,14.21875 -23.2625,22.51 -23.2625,22.51 z m 19.22875,39.30625 c -14.2625,13.4525 -28.8675,19.33625 -28.8675,19.33625 0,0 -5.63875,-6.045 -10.01375,-12.6075 -5.19125,-7.7875 -9.2675,-16.31375 -9.2675,-16.31375 0,0 -2.4375,20.56625 1.1025,37.35375 2.80875,13.34 11.74875,23.69625 11.74875,23.69625 0,0 37.285,-5.85 56.73375,-30.76125 19.11125,-24.4825 21.18625,-70.45 21.18625,-70.45 0,0 -22.55375,30.81625 -42.6225,49.74625 z m -47.34375,73.155 -18.47625,-35.3475 c 0,0 -5.84,19.32125 -6.05,36.95875 -0.195,16.02 5.24875,30.5175 5.24875,30.5175 0,0 34.23375,3.59875 57.8525,-14.165 24.94625,-18.76 39.345,-58.93125 39.345,-58.93125 0,0 -22.00625,21.245 -43.2275,32.4075 -17.33875,9.11625 -34.6925,8.56 -34.6925,8.56 z m -33.735,53.0125 c 0,0 -5.01,-7.7975 -7.87125,-16.3875 -3.50125,-10.4975 -4.98,-22.1675 -4.98,-22.1675 0,0 -7.80375,15.9525 -10.58125,33.0425 -2.4225,14.8825 0.13625,31.22 0.13625,31.22 0,0 31.075,1.3875 52.2125,-6.245 22.21125,-8.0225 34.545,-25.0825 34.545,-25.0825 0,0 -22.83625,4.36 -40.94125,5.96625 -12.6175,1.11875 -22.52,-0.34625 -22.52,-0.34625 z m -16.04,42.72875 c -12.4125,-0.5075 -21.71375,-4.17 -21.71375,-4.17 L 551.85,425.7375 c 0,0 -15.22875,19.01875 -21.88875,35.1225 -5.7225,13.8475 -3.0125,28.335 -3.0125,28.335 0,0 25.39,5.3125 47.31375,0.22875 21.445,-4.96 39.43875,-20.3125 39.43875,-20.3125 0,0 -20.56625,2.43625 -36.92375,1.7625 z m -66.1525,21.665 c -2.1725,-6.9475 1.865,-17.00125 1.865,-17.00125 0,0 -17.9875,7.89 -37.01625,13.4425 -19.52125,5.6925 -40.0975,9.0525 -40.0975,9.0525 0,0 -20.435,4.52125 -34.155,12.1 -13.17875,7.275 -19.66875,17.62125 -19.66875,17.62125 0,0 11.045,10.09375 24.25375,13.92125 14.4475,4.19 31.17625,2.14375 31.17625,2.14375 L 452.24625,529.36 c 0,0 -21.245,0.435 -35.44,-1.855 -9.93625,-1.60125 -12.75875,-4.57 -12.75875,-4.57 0,0 4.96125,-6.7625 28.10125,-10.5225 26.08375,-4.24375 70.6975,-5.5425 70.6975,-5.5425 l 17.67625,-5.625 c 0,0 -8.08625,-2.91 -9.8975,-8.70625 z"
       id="path2999"
       style="fill:#ffffff;fill-opacity:1;fill-rule:nonzero;stroke:none"
       inkscape:connector-curvature="0" />
    <path
       d="m 358.26125,2.64625 c -135.3075,0 -245,109.6875 -245,245 0,135.3075 109.6925,244.995 245,244.995 135.3125,0 245,-109.6875 245,-245 -0.005,-135.3075 -109.6875,-244.995 -245,-244.995 z m 0,477.14375 c -128.2125,0 -232.1475,-103.94 -232.1475,-232.14875 0,-128.2125 103.935,-232.1425 232.1475,-232.1425 128.20875,0 232.14875,103.935 232.14875,232.1425 C 590.41,375.855 486.47,479.79 358.26125,479.79 Z"
       id="path3001"
       style="fill:#ffffff;fill-opacity:1;fill-rule:nonzero;stroke:none"
       inkscape:connector-curvature="0" />
    <path
       d="m 349.34625,254.0975 0.004,0 -0.0138,0 c -0.97625,-0.015 -45.235,-0.71875 -52.54375,-8.0275 -7.31,-7.31 -8.01375,-51.5675 -8.0275,-52.54 l 0,-0.0188 0,0.01 0,-0.01 0,0.0188 c -0.015,0.9725 -0.7175,45.23 -8.0275,52.54 -7.275,7.27 -51.10375,8.0075 -52.525,8.0275 l -0.0337,0 0.02,0 -0.02,0 0.0337,0 c 1.42125,0.0238 45.25375,0.76125 52.525,8.03125 7.31,7.31 8.0125,51.5675 8.0275,52.54 l 0,0.0188 0,-0.01 0,0.01 0,-0.0188 c 0.0138,-0.9725 0.7225,-45.23 8.0325,-52.54 7.30375,-7.30875 51.56625,-8.0175 52.53875,-8.03125 l 0.0138,0 -0.004,0 z"
       id="path3005"
       style="fill:#ffffff;fill-opacity:1;fill-rule:nonzero;stroke:none"
       inkscape:connector-curvature="0" />
    <path
       d="m 450.9325,182.8475 0.01,0 -0.015,0 c -0.75125,-0.01 -34.8925,-0.5575 -40.5275,-6.1925 -5.63875,-5.63875 -6.18625,-39.78 -6.19625,-40.53125 l 0,-0.01 0,0.005 0,-0.005 0,0.01 c -0.01,0.75125 -0.55125,34.8925 -6.19125,40.53125 -5.61,5.60625 -39.41875,6.1775 -40.5125,6.1925 l -0.0288,0 0.0138,0 c -0.01,0 -0.0138,0 -0.0138,0 l 0.0288,0 c 1.09375,0.0188 34.9075,0.585 40.5125,6.19125 5.64,5.63875 6.18125,39.78 6.19125,40.53125 l 0,0.015 0,-0.01 0,0.01 0,-0.015 c 0.015,-0.75125 0.5575,-34.8925 6.19625,-40.53125 5.64,-5.635 39.77625,-6.1825 40.5275,-6.19125 l 0.015,0 -0.01,0 z"
       id="path3007"
       style="fill:#ffffff;fill-opacity:1;fill-rule:nonzero;stroke:none"
       inkscape:connector-curvature="0" />
    <path
       d="m 472.32875,304.8875 0.005,0 -0.015,0 c -0.6975,-0.009 -32.5675,-0.5175 -37.82625,-5.78125 -5.26875,-5.26375 -5.77125,-37.12875 -5.78125,-37.82625 l 0,-0.015 0,0.005 0,-0.005 0,0.015 c -0.015,0.6975 -0.5225,32.5625 -5.78625,37.83125 -5.235,5.23 -36.7925,5.7625 -37.8125,5.77625 l -0.03,0 0.015,0 c -0.01,0 -0.015,0 -0.015,0 l 0.03,0 c 1.02,0.02 32.5775,0.5525 37.8125,5.78125 5.26875,5.26375 5.77125,37.13375 5.78625,37.8325 l 0,0.015 0,-0.005 0,0.005 0,-0.015 c 0.01,-0.69875 0.5175,-32.56875 5.78125,-37.8325 5.25875,-5.26375 37.12875,-5.77125 37.82625,-5.78125 l 0.015,0 -0.005,0 z"
       id="path3009"
       style="fill:#ffffff;fill-opacity:1;fill-rule:nonzero;stroke:none"
       inkscape:connector-curvature="0" />
    <path
       d="m 445.615,246.31875 c 0,5.595 -4.53625,10.13125 -10.13125,10.13125 -5.59625,0 -10.1375,-4.53625 -10.1375,-10.13125 0,-5.60125 4.54125,-10.13625 10.1375,-10.13625 5.595,0 10.13125,4.535 10.13125,10.13625 z"
       id="path3011"
       style="fill:#ffffff;fill-opacity:1;fill-rule:nonzero;stroke:none"
       inkscape:connector-curvature="0" />
    <path
       d="m 385.2925,285.225 c 0,5.595 -4.53625,10.13125 -10.13125,10.13125 -5.59625,0 -10.1325,-4.53625 -10.1325,-10.13125 0,-5.59625 4.53625,-10.1325 10.1325,-10.1325 5.595,0 10.13125,4.53625 10.13125,10.1325 z"
       id="path3013"
       style="fill:#ffffff;fill-opacity:1;fill-rule:nonzero;stroke:none"
       inkscape:connector-curvature="0" />
    <path
       d="m 318.59375,358.10625 c 0,5.595 -4.54125,10.13125 -10.13625,10.13125 -5.59625,0 -10.1325,-4.53625 -10.1325,-10.13125 0,-5.60125 4.53625,-10.1375 10.1325,-10.1375 5.595,0 10.13625,4.53625 10.13625,10.1375 z"
       id="path3015"
       style="fill:#ffffff;fill-opacity:1;fill-rule:nonzero;stroke:none"
       inkscape:connector-curvature="0" />
    <path
       d="m 367.695,222.09 c 0,5.2 -4.21875,9.41375 -9.41875,9.41375 -5.2,0 -9.41375,-4.21375 -9.41375,-9.41375 0,-5.2 4.21375,-9.41375 9.41375,-9.41375 5.2,0 9.41875,4.21375 9.41875,9.41375 z"
       id="path3017"
       style="fill:#ffffff;fill-opacity:1;fill-rule:nonzero;stroke:none"
       inkscape:connector-curvature="0" />
    <path
       d="m 368.8375,337.94 c 0,5.5225 -4.4775,10 -10,10 -5.5225,0 -10,-4.4775 -10,-10 0,-5.5225 4.4775,-10 10,-10 5.5225,0 10,4.4775 10,10 z"
       id="path3019"
       style="fill:#ffffff;fill-opacity:1;fill-rule:nonzero;stroke:none"
       inkscape:connector-curvature="0" />
    <path
       d="m 235.83,344.9275 c 0,5.595 -4.53625,10.13625 -10.13125,10.13625 -5.59625,0 -10.1375,-4.54125 -10.1375,-10.13625 0,-5.59625 4.54125,-10.1325 10.1375,-10.1325 5.595,0 10.13125,4.53625 10.13125,10.1325 z"
       id="path3021"
       style="fill:#ffffff;fill-opacity:1;fill-rule:nonzero;stroke:none"
       inkscape:connector-curvature="0" />
    <path
       d="m 558.36375,167.05625 c 0,5.595 -4.53625,10.13125 -10.13625,10.13125 -5.59625,0 -10.13125,-4.53625 -10.13125,-10.13125 0,-5.60125 4.535,-10.1375 10.13125,-10.1375 5.6,0 10.13625,4.53625 10.13625,10.1375 z"
       id="path3023"
       style="fill:#ffffff;fill-opacity:1;fill-rule:nonzero;stroke:none"
       inkscape:connector-curvature="0" />
    <path
       d="m 501.08375,146.74375 c 0,5.64375 -4.575,10.22375 -10.22375,10.22375 -5.645,0 -10.225,-4.58 -10.225,-10.22375 0,-5.65 4.58,-10.23 10.225,-10.23 5.64875,0 10.22375,4.58 10.22375,10.23 z"
       id="path3025"
       style="fill:#ffffff;fill-opacity:1;fill-rule:nonzero;stroke:none"
       inkscape:connector-curvature="0" />
    <path
       d="m 364.4775,250.225 c 0,4.10625 -3.325,7.43625 -7.43125,7.43625 -4.10625,0 -7.43625,-3.33 -7.43625,-7.43625 0,-4.10125 3.33,-7.43125 7.43625,-7.43125 4.10625,0 7.43125,3.33 7.43125,7.43125 z"
       id="path3027"
       style="fill:#ffffff;fill-opacity:1;fill-rule:nonzero;stroke:none"
       inkscape:connector-curvature="0" />
    <path
       d="m 262.915,340.5375 c 0,4.10625 -3.33,7.43625 -7.43625,7.43625 -4.10625,0 -7.43125,-3.33 -7.43125,-7.43625 0,-4.10625 3.325,-7.43625 7.43125,-7.43625 4.10625,0 7.43625,3.33 7.43625,7.43625 z"
       id="path3029"
       style="fill:#ffffff;fill-opacity:1;fill-rule:nonzero;stroke:none"
       inkscape:connector-curvature="0" />
    <path
       d="m 176.9975,304.58 c 0,4.10625 -3.33,7.4325 -7.4325,7.4325 -4.10625,0 -7.43625,-3.32625 -7.43625,-7.4325 0,-4.10625 3.33,-7.43625 7.43625,-7.43625 4.1025,0 7.4325,3.33 7.4325,7.43625 z"
       id="path3031"
       style="fill:#ffffff;fill-opacity:1;fill-rule:nonzero;stroke:none"
       inkscape:connector-curvature="0" />
    <path
       d="m 397.00625,58.765 c 0,4.10625 -3.33,7.43625 -7.43625,7.43625 -4.10625,0 -7.43625,-3.33 -7.43625,-7.43625 0,-4.10625 3.33,-7.43625 7.43625,-7.43625 4.10625,0 7.43625,3.33 7.43625,7.43625 z"
       id="path3033"
       style="fill:#ffffff;fill-opacity:1;fill-rule:nonzero;stroke:none"
       inkscape:connector-curvature="0" />
    <path
       d="m 437.63125,49.7075 c 0,4.10625 -3.33,7.43625 -7.43625,7.43625 -4.10625,0 -7.43125,-3.33 -7.43125,-7.43625 0,-4.10625 3.325,-7.43625 7.43125,-7.43625 4.10625,0 7.43625,3.33 7.43625,7.43625 z"
       id="path3035"
       style="fill:#ffffff;fill-opacity:1;fill-rule:nonzero;stroke:none"
       inkscape:connector-curvature="0" />
    <path
       d="m 190.87375,222.28 c 0,4.53625 -3.67625,8.21375 -8.2125,8.21375 -4.53125,0 -8.20875,-3.6775 -8.20875,-8.21375 0,-4.53125 3.6775,-8.2075 8.20875,-8.2075 4.53625,0 8.2125,3.67625 8.2125,8.2075 z"
       id="path3037"
       style="fill:#ffffff;fill-opacity:1;fill-rule:nonzero;stroke:none"
       inkscape:connector-curvature="0" />
    <path
       d="m 174.385,280.61 c 0,4.53125 -3.6775,8.20875 -8.20875,8.20875 -4.53625,0 -8.2125,-3.6775 -8.2125,-8.20875 0,-4.535 3.67625,-8.2125 8.2125,-8.2125 4.53125,0 8.20875,3.6775 8.20875,8.2125 z"
       id="path3039"
       style="fill:#ffffff;fill-opacity:1;fill-rule:nonzero;stroke:none"
       inkscape:connector-curvature="0" />
    <path
       d="m 322.94,132.05625 c 0,4.53625 -3.6775,8.2125 -8.21375,8.2125 -4.53625,0 -8.2125,-3.67625 -8.2125,-8.2125 0,-4.53125 3.67625,-8.20875 8.2125,-8.20875 4.53625,0 8.21375,3.6775 8.21375,8.20875 z"
       id="path3041"
       style="fill:#ffffff;fill-opacity:1;fill-rule:nonzero;stroke:none"
       inkscape:connector-curvature="0" />
    <path
       d="m 284.78,134.4775 c 0,3.07125 -2.49,5.56125 -5.56125,5.56125 -3.07625,0 -5.56625,-2.49 -5.56625,-5.56125 0,-3.07125 2.49,-5.56625 5.56625,-5.56625 3.07125,0 5.56125,2.495 5.56125,5.56625 z"
       id="path3043"
       style="fill:#ffffff;fill-opacity:1;fill-rule:nonzero;stroke:none"
       inkscape:connector-curvature="0" />
    <path
       d="m 350.615,102.33875 c 0,3.07125 -2.49,5.56625 -5.56125,5.56625 -3.07625,0 -5.56625,-2.495 -5.56625,-5.56625 0,-3.07125 2.49,-5.56125 5.56625,-5.56125 3.07125,0 5.56125,2.49 5.56125,5.56125 z"
       id="path3045"
       style="fill:#ffffff;fill-opacity:1;fill-rule:nonzero;stroke:none"
       inkscape:connector-curvature="0" />
    <path
       d="m 364.8875,195.1175 c 0,3.07125 -2.49,5.56625 -5.56125,5.56625 -3.07125,0 -5.56625,-2.495 -5.56625,-5.56625 0,-3.07125 2.495,-5.56125 5.56625,-5.56125 3.07125,0 5.56125,2.49 5.56125,5.56125 z"
       id="path3047"
       style="fill:#ffffff;fill-opacity:1;fill-rule:nonzero;stroke:none"
       inkscape:connector-curvature="0" />
    <path
       d="m 310.04375,225.9325 c 0,3.07625 -2.495,5.56625 -5.56625,5.56625 -3.07125,0 -5.56125,-2.49 -5.56125,-5.56625 0,-3.07125 2.49,-5.56125 5.56125,-5.56125 3.07125,0 5.56625,2.49 5.56625,5.56125 z"
       id="path3049"
       style="fill:#ffffff;fill-opacity:1;fill-rule:nonzero;stroke:none"
       inkscape:connector-curvature="0" />
    <path
       d="m 333.78375,272.5975 c 0,3.07625 -2.49,5.56625 -5.56125,5.56625 -3.07125,0 -5.56625,-2.49 -5.56625,-5.56625 0,-3.07125 2.495,-5.56125 5.56625,-5.56125 3.07125,0 5.56125,2.49 5.56125,5.56125 z"
       id="path3051"
       style="fill:#ffffff;fill-opacity:1;fill-rule:nonzero;stroke:none"
       inkscape:connector-curvature="0" />
    <path
       d="m 343.25625,319.2625 c 0,3.07125 -2.49,5.56625 -5.56625,5.56625 -3.07125,0 -5.56125,-2.495 -5.56125,-5.56625 0,-3.07125 2.49,-5.56125 5.56125,-5.56125 3.07625,0 5.56625,2.49 5.56625,5.56125 z"
       id="path3053"
       style="fill:#ffffff;fill-opacity:1;fill-rule:nonzero;stroke:none"
       inkscape:connector-curvature="0" />
    <path
       d="m 344.0775,289.0675 c 0,3.07625 -2.49,5.56625 -5.5625,5.56625 -3.07125,0 -5.56625,-2.49 -5.56625,-5.56625 0,-3.07125 2.495,-5.56125 5.56625,-5.56125 3.0725,0 5.5625,2.49 5.5625,5.56125 z"
       id="path3055"
       style="fill:#ffffff;fill-opacity:1;fill-rule:nonzero;stroke:none"
       inkscape:connector-curvature="0" />
    <path
       d="m 364.39,295.655 c 0,3.07625 -2.49,5.56625 -5.5625,5.56625 -3.07125,0 -5.56625,-2.49 -5.56625,-5.56625 0,-3.07125 2.495,-5.5625 5.56625,-5.5625 3.0725,0 5.5625,2.49125 5.5625,5.5625 z"
       id="path3057"
       style="fill:#ffffff;fill-opacity:1;fill-rule:nonzero;stroke:none"
       inkscape:connector-curvature="0" />
    <path
       d="m 444.13625,273.69625 c 0,3.07125 -2.49625,5.56125 -5.5675,5.56125 -3.07125,0 -5.56125,-2.49 -5.56125,-5.56125 0,-3.07125 2.49,-5.56625 5.56125,-5.56625 3.07125,0 5.5675,2.495 5.5675,5.56625 z"
       id="path3059"
       style="fill:#ffffff;fill-opacity:1;fill-rule:nonzero;stroke:none"
       inkscape:connector-curvature="0" />
    <path
       d="m 411.675,286.8075 c 0,3.07125 -2.495,5.56125 -5.56625,5.56125 -3.07125,0 -5.56625,-2.49 -5.56625,-5.56125 0,-3.07625 2.495,-5.5675 5.56625,-5.5675 3.07125,0 5.56625,2.49125 5.56625,5.5675 z"
       id="path3061"
       style="fill:#ffffff;fill-opacity:1;fill-rule:nonzero;stroke:none"
       inkscape:connector-curvature="0" />
    <path
       d="m 480.77625,214.405 c 0,3.07625 -2.49,5.56625 -5.56125,5.56625 -3.07625,0 -5.56625,-2.49 -5.56625,-5.56625 0,-3.07125 2.49,-5.5625 5.56625,-5.5625 3.07125,0 5.56125,2.49125 5.56125,5.5625 z"
       id="path3063"
       style="fill:#ffffff;fill-opacity:1;fill-rule:nonzero;stroke:none"
       inkscape:connector-curvature="0" />
    <path
       d="m 366.5875,269.58 c 0,3.07125 -2.49125,5.56125 -5.5625,5.56125 -3.07625,0 -5.56625,-2.49 -5.56625,-5.56125 0,-3.07625 2.49,-5.56625 5.56625,-5.56625 3.07125,0 5.5625,2.49 5.5625,5.56625 z"
       id="path3065"
       style="fill:#ffffff;fill-opacity:1;fill-rule:nonzero;stroke:none"
       inkscape:connector-curvature="0" />
    <path
       d="m 393.48625,314.87375 c 0,3.07125 -2.49,5.56125 -5.56125,5.56125 -3.07125,0 -5.56125,-2.49 -5.56125,-5.56125 0,-3.07125 2.49,-5.5625 5.56125,-5.5625 3.07125,0 5.56125,2.49125 5.56125,5.5625 z"
       id="path3067"
       style="fill:#ffffff;fill-opacity:1;fill-rule:nonzero;stroke:none"
       inkscape:connector-curvature="0" />
    <path
       d="m 495.605,217.7 c 0,3.07125 -2.495,5.5625 -5.56625,5.5625 -3.07125,0 -5.56625,-2.49125 -5.56625,-5.5625 0,-3.07625 2.495,-5.56625 5.56625,-5.56625 3.07125,0 5.56625,2.49 5.56625,5.56625 z"
       id="path3069"
       style="fill:#ffffff;fill-opacity:1;fill-rule:nonzero;stroke:none"
       inkscape:connector-curvature="0" />
    <path
       d="m 539.52125,188.4675 c 0,3.07125 -2.49,5.56125 -5.56625,5.56125 -3.07125,0 -5.56125,-2.49 -5.56125,-5.56125 0,-3.07625 2.49,-5.56625 5.56125,-5.56625 3.07625,0 5.56625,2.49 5.56625,5.56625 z"
       id="path3071"
       style="fill:#ffffff;fill-opacity:1;fill-rule:nonzero;stroke:none"
       inkscape:connector-curvature="0" />
    <path
       d="m 539.52125,263.8525 c 0,3.50625 -2.84625,6.3525 -6.3525,6.3525 -3.50625,0 -6.3475,-2.84625 -6.3475,-6.3525 0,-3.505 2.84125,-6.3525 6.3475,-6.3525 3.50625,0 6.3525,2.8475 6.3525,6.3525 z"
       id="path3073"
       style="fill:#ffffff;fill-opacity:1;fill-rule:nonzero;stroke:none"
       inkscape:connector-curvature="0" />
    <path
       d="m 471.9925,171.035 c 0,3.07625 -2.49,5.56625 -5.56125,5.56625 -3.07625,0 -5.5675,-2.49 -5.5675,-5.56625 0,-3.07125 2.49125,-5.56125 5.5675,-5.56125 3.07125,0 5.56125,2.49 5.56125,5.56125 z"
       id="path3075"
       style="fill:#ffffff;fill-opacity:1;fill-rule:nonzero;stroke:none"
       inkscape:connector-curvature="0" />
    <path
       d="m 507.12875,160.87875 c 0,3.07125 -2.49,5.56625 -5.56125,5.56625 -3.07625,0 -5.56625,-2.495 -5.56625,-5.56625 0,-3.07125 2.49,-5.56125 5.56625,-5.56125 3.07125,0 5.56125,2.49 5.56125,5.56125 z"
       id="path3077"
       style="fill:#ffffff;fill-opacity:1;fill-rule:nonzero;stroke:none"
       inkscape:connector-curvature="0" />
    <path
       d="m 511.66,178.17375 c 0,3.07125 -2.49,5.56125 -5.56625,5.56125 -3.07125,0 -5.56125,-2.49 -5.56125,-5.56125 0,-3.07625 2.49,-5.56625 5.56125,-5.56625 3.07625,0 5.56625,2.49 5.56625,5.56625 z"
       id="path3079"
       style="fill:#ffffff;fill-opacity:1;fill-rule:nonzero;stroke:none"
       inkscape:connector-curvature="0" />
    <path
       d="m 481.3275,120.5275 c 0,3.07125 -2.49,5.56625 -5.56625,5.56625 -3.07125,0 -5.56125,-2.495 -5.56125,-5.56625 0,-3.07625 2.49,-5.56625 5.56125,-5.56625 3.07625,0 5.56625,2.49 5.56625,5.56625 z"
       id="path3081"
       style="fill:#ffffff;fill-opacity:1;fill-rule:nonzero;stroke:none"
       inkscape:connector-curvature="0" />
    <path
       d="m 518.6575,133.70625 c 0,3.07125 -2.49,5.56125 -5.56125,5.56125 -3.07125,0 -5.5675,-2.49 -5.5675,-5.56125 0,-3.07625 2.49625,-5.56625 5.5675,-5.56625 3.07125,0 5.56125,2.49 5.56125,5.56625 z"
       id="path3083"
       style="fill:#ffffff;fill-opacity:1;fill-rule:nonzero;stroke:none"
       inkscape:connector-curvature="0" />
    <path
       d="m 496.42625,91.43125 c 0,3.07125 -2.49125,5.56625 -5.56625,5.56625 -3.0725,0 -5.5625,-2.495 -5.5625,-5.56625 0,-3.07125 2.49,-5.56125 5.5625,-5.56125 3.075,0 5.56625,2.49 5.56625,5.56125 z"
       id="path3085"
       style="fill:#ffffff;fill-opacity:1;fill-rule:nonzero;stroke:none"
       inkscape:connector-curvature="0" />
    <path
       d="m 307.84625,298.40375 c 0,3.07125 -2.49,5.56125 -5.56625,5.56125 -3.07125,0 -5.56125,-2.49 -5.56125,-5.56125 0,-3.07625 2.49,-5.56625 5.56125,-5.56625 3.07625,0 5.56625,2.49 5.56625,5.56625 z"
       id="path3087"
       style="fill:#ffffff;fill-opacity:1;fill-rule:nonzero;stroke:none"
       inkscape:connector-curvature="0" />
    <path
       d="m 303.17875,339.02875 c 0,3.07125 -2.49,5.56125 -5.56125,5.56125 -3.07625,0 -5.56625,-2.49 -5.56625,-5.56125 0,-3.07625 2.49,-5.56625 5.56625,-5.56625 3.07125,0 5.56125,2.49 5.56125,5.56625 z"
       id="path3089"
       style="fill:#ffffff;fill-opacity:1;fill-rule:nonzero;stroke:none"
       inkscape:connector-curvature="0" />
    <path
       d="m 277.1,346.9875 c 0,3.07125 -2.49,5.56125 -5.5625,5.56125 -3.07125,0 -5.56625,-2.49 -5.56625,-5.56125 0,-3.07125 2.495,-5.56625 5.56625,-5.56625 3.0725,0 5.5625,2.495 5.5625,5.56625 z"
       id="path3091"
       style="fill:#ffffff;fill-opacity:1;fill-rule:nonzero;stroke:none"
       inkscape:connector-curvature="0" />
    <path
       d="m 265.025,314.0475 c 0,3.0725 -2.49125,5.5675 -5.5675,5.5675 -3.07125,0 -5.56125,-2.495 -5.56125,-5.5675 0,-3.07125 2.49,-5.56125 5.56125,-5.56125 3.07625,0 5.5675,2.49 5.5675,5.56125 z"
       id="path3093"
       style="fill:#ffffff;fill-opacity:1;fill-rule:nonzero;stroke:none"
       inkscape:connector-curvature="0" />
    <path
       d="m 285.06375,314.0475 c 0,3.07625 -2.49,5.5675 -5.56625,5.5675 -3.07125,0 -5.5625,-2.49125 -5.5625,-5.5675 0,-3.07125 2.49125,-5.56125 5.5625,-5.56125 3.07625,0 5.56625,2.49 5.56625,5.56125 z"
       id="path3095"
       style="fill:#ffffff;fill-opacity:1;fill-rule:nonzero;stroke:none"
       inkscape:connector-curvature="0" />
    <path
       d="m 236.475,294.55625 c 0,3.07625 -2.49,5.56625 -5.5625,5.56625 -3.07125,0 -5.56625,-2.49 -5.56625,-5.56625 0,-3.07125 2.495,-5.56125 5.56625,-5.56125 3.0725,0 5.5625,2.49 5.5625,5.56125 z"
       id="path3097"
       style="fill:#ffffff;fill-opacity:1;fill-rule:nonzero;stroke:none"
       inkscape:connector-curvature="0" />
    <path
       d="m 254.73125,264.22875 c 0,3.07125 -2.49,5.56125 -5.56625,5.56125 -3.07125,0 -5.56125,-2.49 -5.56125,-5.56125 0,-3.07625 2.49,-5.56625 5.56125,-5.56625 3.07625,0 5.56625,2.49 5.56625,5.56625 z"
       id="path3099"
       style="fill:#ffffff;fill-opacity:1;fill-rule:nonzero;stroke:none"
       inkscape:connector-curvature="0" />
    <path
       d="m 218.91125,246.52375 c 0,3.07125 -2.495,5.56125 -5.56625,5.56125 -3.07125,0 -5.56125,-2.49 -5.56125,-5.56125 0,-3.07625 2.49,-5.56625 5.56125,-5.56625 3.07125,0 5.56625,2.49 5.56625,5.56625 z"
       id="path3101"
       style="fill:#ffffff;fill-opacity:1;fill-rule:nonzero;stroke:none"
       inkscape:connector-curvature="0" />
    <path
       d="m 171.1475,186.82125 c 0,3.07125 -2.49,5.56125 -5.56625,5.56125 -3.07125,0 -5.56125,-2.49 -5.56125,-5.56125 0,-3.07625 2.49,-5.56625 5.56125,-5.56625 3.07625,0 5.56625,2.49 5.56625,5.56625 z"
       id="path3103"
       style="fill:#ffffff;fill-opacity:1;fill-rule:nonzero;stroke:none"
       inkscape:connector-curvature="0" />
    <path
       d="m 183.2225,352.33875 c 0,3.07625 -2.49,5.56625 -5.56125,5.56625 -3.07625,0 -5.56625,-2.49 -5.56625,-5.56625 0,-3.07125 2.49,-5.56125 5.56625,-5.56125 3.07125,0 5.56125,2.49 5.56125,5.56125 z"
       id="path3105"
       style="fill:#ffffff;fill-opacity:1;fill-rule:nonzero;stroke:none"
       inkscape:connector-curvature="0" />
    <path
       d="m 221.10375,383.6325 c 0,3.07125 -2.49,5.5675 -5.56125,5.5675 -3.07625,0 -5.5675,-2.49625 -5.5675,-5.5675 0,-3.07125 2.49125,-5.56125 5.5675,-5.56125 3.07125,0 5.56125,2.49 5.56125,5.56125 z"
       id="path3107"
       style="fill:#ffffff;fill-opacity:1;fill-rule:nonzero;stroke:none"
       inkscape:connector-curvature="0" />
    <path
       d="m 253.49625,357.28 c 0,3.07125 -2.49,5.5675 -5.56125,5.5675 -3.07625,0 -5.56625,-2.49125 -5.56625,-5.5675 0,-3.07125 2.49,-5.56625 5.56625,-5.56625 3.07125,0 5.56125,2.495 5.56125,5.56625 z"
       id="path3109"
       style="fill:#ffffff;fill-opacity:1;fill-rule:nonzero;stroke:none"
       inkscape:connector-curvature="0" />
    <path
       d="m 395.13125,451.43125 c 0,3.07625 -2.49,5.56625 -5.56125,5.56625 -3.07125,0 -5.56125,-2.49 -5.56125,-5.56625 0,-3.07125 2.49,-5.56125 5.56125,-5.56125 3.07125,0 5.56125,2.49 5.56125,5.56125 z"
       id="path3111"
       style="fill:#ffffff;fill-opacity:1;fill-rule:nonzero;stroke:none"
       inkscape:connector-curvature="0" />
    <path
       d="m 238.6725,386.7875 c 0,3.07625 -2.49125,5.56625 -5.5625,5.56625 -3.07625,0 -5.56625,-2.49 -5.56625,-5.56625 0,-3.07125 2.49,-5.56125 5.56625,-5.56125 3.07125,0 5.5625,2.49 5.5625,5.56125 z"
       id="path3113"
       style="fill:#ffffff;fill-opacity:1;fill-rule:nonzero;stroke:none"
       inkscape:connector-curvature="0" />
    <path
       d="m 244.7125,417.3975 c 0,3.07125 -2.49125,5.56125 -5.5625,5.56125 -3.07625,0 -5.56625,-2.49 -5.56625,-5.56125 0,-3.07125 2.49,-5.56625 5.56625,-5.56625 3.07125,0 5.5625,2.495 5.5625,5.56625 z"
       id="path3115"
       style="fill:#ffffff;fill-opacity:1;fill-rule:nonzero;stroke:none"
       inkscape:connector-curvature="0" />
    <path
       d="m 276.00625,393.37375 c 0,3.07625 -2.495,5.5675 -5.56625,5.5675 -3.07125,0 -5.5625,-2.49125 -5.5625,-5.5675 0,-3.07125 2.49125,-5.56125 5.5625,-5.56125 3.07125,0 5.56625,2.49 5.56625,5.56125 z"
       id="path3117"
       style="fill:#ffffff;fill-opacity:1;fill-rule:nonzero;stroke:none"
       inkscape:connector-curvature="0" />
    <path
       d="m 385.80125,404.0825 c 0,3.07625 -2.49125,5.56625 -5.5625,5.56625 -3.07625,0 -5.56625,-2.49 -5.56625,-5.56625 0,-3.07125 2.49,-5.56125 5.56625,-5.56125 3.07125,0 5.5625,2.49 5.5625,5.56125 z"
       id="path3119"
       style="fill:#ffffff;fill-opacity:1;fill-rule:nonzero;stroke:none"
       inkscape:connector-curvature="0" />
    <path
       d="m 394.31625,367.85125 c 0,3.07125 -2.495,5.5625 -5.56625,5.5625 -3.07125,0 -5.56625,-2.49125 -5.56625,-5.5625 0,-3.075 2.495,-5.56625 5.56625,-5.56625 3.07125,0 5.56625,2.49125 5.56625,5.56625 z"
       id="path3121"
       style="fill:#ffffff;fill-opacity:1;fill-rule:nonzero;stroke:none"
       inkscape:connector-curvature="0" />
    <path
       d="m 517.4225,372.78875 c 0,3.07625 -2.49125,5.56625 -5.5625,5.56625 -3.07125,0 -5.56125,-2.49 -5.56125,-5.56625 0,-3.07125 2.49,-5.5625 5.56125,-5.5625 3.07125,0 5.5625,2.49125 5.5625,5.5625 z"
       id="path3123"
       style="fill:#ffffff;fill-opacity:1;fill-rule:nonzero;stroke:none"
       inkscape:connector-curvature="0" />
    <path
       d="m 489.42875,286.05 c 0,3.07125 -2.495,5.56125 -5.56625,5.56125 -3.07125,0 -5.56125,-2.49 -5.56125,-5.56125 0,-3.07125 2.49,-5.56625 5.56125,-5.56625 3.07125,0 5.56625,2.495 5.56625,5.56625 z"
       id="path3125"
       style="fill:#ffffff;fill-opacity:1;fill-rule:nonzero;stroke:none"
       inkscape:connector-curvature="0" />
    <path
       d="m 467.305,256.81125 c 0,3.355 -2.725,6.08 -6.08375,6.08 -3.36,0 -6.08,-2.725 -6.08,-6.08 0,-3.35875 2.72,-6.08375 6.08,-6.08375 3.35875,0 6.08375,2.725 6.08375,6.08375 z"
       id="path3127"
       style="fill:#ffffff;fill-opacity:1;fill-rule:nonzero;stroke:none"
       inkscape:connector-curvature="0" />
    <path
       d="m 455.66375,236.265 c 0,3.28125 -2.66125,5.9425 -5.9425,5.9425 -3.28125,0 -5.9425,-2.66125 -5.9425,-5.9425 0,-3.28125 2.66125,-5.9425 5.9425,-5.9425 3.28125,0 5.9425,2.66125 5.9425,5.9425 z"
       id="path3129"
       style="fill:#ffffff;fill-opacity:1;fill-rule:nonzero;stroke:none"
       inkscape:connector-curvature="0" />
    <path
       d="m 399.86375,242.3 c 0,3.46625 -2.8125,6.27875 -6.28,6.27875 -3.47125,0 -6.28375,-2.8125 -6.28375,-6.27875 0,-3.47125 2.8125,-6.28375 6.28375,-6.28375 3.4675,0 6.28,2.8125 6.28,6.28375 z"
       id="path3131"
       style="fill:#ffffff;fill-opacity:1;fill-rule:nonzero;stroke:none"
       inkscape:connector-curvature="0" />
    <path
       d="m 448.4525,169.82875 c 0,3.4725 -2.8125,6.285 -6.285,6.285 -3.46625,0 -6.27875,-2.8125 -6.27875,-6.285 0,-3.46625 2.8125,-6.27875 6.27875,-6.27875 3.4725,0 6.285,2.8125 6.285,6.27875 z"
       id="path3133"
       style="fill:#ffffff;fill-opacity:1;fill-rule:nonzero;stroke:none"
       inkscape:connector-curvature="0" />
    <path
       d="m 435.58625,200.405 c 0,3.585 -2.905,6.485 -6.49,6.485 -3.57875,0 -6.48375,-2.9 -6.48375,-6.485 0,-3.57875 2.905,-6.48375 6.48375,-6.48375 3.585,0 6.49,2.905 6.49,6.48375 z"
       id="path3135"
       style="fill:#ffffff;fill-opacity:1;fill-rule:nonzero;stroke:none"
       inkscape:connector-curvature="0" />
    <path
       d="m 373.725,394.75125 c 0,3.07125 -2.49,5.56125 -5.56125,5.56125 -3.07625,0 -5.56625,-2.49 -5.56625,-5.56125 0,-3.07625 2.49,-5.56625 5.56625,-5.56625 3.07125,0 5.56125,2.49 5.56125,5.56625 z"
       id="path3137"
       style="fill:#ffffff;fill-opacity:1;fill-rule:nonzero;stroke:none"
       inkscape:connector-curvature="0" />
    <path
       d="m 406.665,359.615 c 0,3.07125 -2.49,5.56125 -5.56625,5.56125 -3.07125,0 -5.56125,-2.49 -5.56125,-5.56125 0,-3.07125 2.49,-5.5675 5.56125,-5.5675 3.07625,0 5.56625,2.49625 5.56625,5.5675 z"
       id="path3139"
       style="fill:#ffffff;fill-opacity:1;fill-rule:nonzero;stroke:none"
       inkscape:connector-curvature="0" />
    <path
       d="m 493.955,183.93625 c 0,3.07625 -2.49,5.56625 -5.56625,5.56625 -3.07125,0 -5.56125,-2.49 -5.56125,-5.56625 0,-3.07125 2.49,-5.5625 5.56125,-5.5625 3.07625,0 5.56625,2.49125 5.56625,5.5625 z"
       id="path3141"
       style="fill:#ffffff;fill-opacity:1;fill-rule:nonzero;stroke:none"
       inkscape:connector-curvature="0" />
    <path
       d="m 454.975,195.81625 c 0,3.335 -2.7,6.04 -6.035,6.04 -3.335,0 -6.04,-2.705 -6.04,-6.04 0,-3.335 2.705,-6.04 6.04,-6.04 3.335,0 6.035,2.705 6.035,6.04 z"
       id="path3143"
       style="fill:#ffffff;fill-opacity:1;fill-rule:nonzero;stroke:none"
       inkscape:connector-curvature="0" />
    <path
       d="m 249.8775,128.35 c 0,4.10625 -3.33,7.43625 -7.43625,7.43625 -4.10625,0 -7.43625,-3.33 -7.43625,-7.43625 0,-4.10625 3.33,-7.43625 7.43625,-7.43625 4.10625,0 7.43625,3.33 7.43625,7.43625 z"
       id="path3145"
       style="fill:#ffffff;fill-opacity:1;fill-rule:nonzero;stroke:none"
       inkscape:connector-curvature="0" />
    <path
       d="m 389.32125,353.985 c 0,4.10625 -3.33,7.43625 -7.43625,7.43625 -4.10625,0 -7.43625,-3.33 -7.43625,-7.43625 0,-4.10625 3.33,-7.4325 7.43625,-7.4325 4.10625,0 7.43625,3.32625 7.43625,7.4325 z"
       id="path3147"
       style="fill:#ffffff;fill-opacity:1;fill-rule:nonzero;stroke:none"
       inkscape:connector-curvature="0" />
    <path
       d="m 410.59625,390.63 c 0,4.10625 -3.33125,7.43625 -7.4375,7.43625 -4.10625,0 -7.43625,-3.33 -7.43625,-7.43625 0,-4.10625 3.33,-7.43125 7.43625,-7.43125 4.10625,0 7.4375,3.325 7.4375,7.43125 z"
       id="path3149"
       style="fill:#ffffff;fill-opacity:1;fill-rule:nonzero;stroke:none"
       inkscape:connector-curvature="0" />
    <path
       d="m 291.18625,398.8675 c 0,4.10625 -3.325,7.43125 -7.43125,7.43125 -4.10625,0 -7.43625,-3.325 -7.43625,-7.43125 0,-4.10625 3.33,-7.43625 7.43625,-7.43625 4.10625,0 7.43125,3.33 7.43125,7.43625 z"
       id="path3151"
       style="fill:#ffffff;fill-opacity:1;fill-rule:nonzero;stroke:none"
       inkscape:connector-curvature="0" />
    <path
       d="m 288.29125,377.44625 c 0,4.41 -3.57,7.97875 -7.97875,7.97875 -4.40375,0 -7.97375,-3.56875 -7.97375,-7.97875 0,-4.40375 3.57,-7.97375 7.97375,-7.97375 4.40875,0 7.97875,3.57 7.97875,7.97375 z"
       id="path3153"
       style="fill:#ffffff;fill-opacity:1;fill-rule:nonzero;stroke:none"
       inkscape:connector-curvature="0" />
    <path
       d="m 288.2025,59.0925 c 0,4.53125 -3.67125,8.2075 -8.2075,8.2075 -4.53125,0 -8.2075,-3.67625 -8.2075,-8.2075 0,-4.53625 3.67625,-8.20875 8.2075,-8.20875 4.53625,0 8.2075,3.6725 8.2075,8.20875 z"
       id="path3155"
       style="fill:#ffffff;fill-opacity:1;fill-rule:nonzero;stroke:none"
       inkscape:connector-curvature="0" />
    <path
       d="m 464.8925,211.66 c 0,4.53125 -3.67125,8.20875 -8.2075,8.20875 -4.53125,0 -8.20375,-3.6775 -8.20375,-8.20875 0,-4.53125 3.6725,-8.2075 8.20375,-8.2075 4.53625,0 8.2075,3.67625 8.2075,8.2075 z"
       id="path3157"
       style="fill:#ffffff;fill-opacity:1;fill-rule:nonzero;stroke:none"
       inkscape:connector-curvature="0" />
    <path
       d="m 531.18125,204.11125 c 0,4.53625 -3.67125,8.20875 -8.2075,8.20875 -4.53125,0 -8.20875,-3.6725 -8.20875,-8.20875 0,-4.53125 3.6775,-8.2075 8.20875,-8.2075 4.53625,0 8.2075,3.67625 8.2075,8.2075 z"
       id="path3159"
       style="fill:#ffffff;fill-opacity:1;fill-rule:nonzero;stroke:none"
       inkscape:connector-curvature="0" />
    <path
       d="m 554.24375,316.92875 c 0,4.53625 -3.6775,8.20875 -8.20875,8.20875 -4.53125,0 -8.2075,-3.6725 -8.2075,-8.20875 0,-4.53125 3.67625,-8.2075 8.2075,-8.2075 4.53125,0 8.20875,3.67625 8.20875,8.2075 z"
       id="path3161"
       style="fill:#ffffff;fill-opacity:1;fill-rule:nonzero;stroke:none"
       inkscape:connector-curvature="0" />
    <path
       d="m 559.185,219.34625 c 0,4.53625 -3.6775,8.2075 -8.20875,8.2075 -4.53625,0 -8.2075,-3.67125 -8.2075,-8.2075 0,-4.53125 3.67125,-8.20875 8.2075,-8.20875 4.53125,0 8.20875,3.6775 8.20875,8.20875 z"
       id="path3163"
       style="fill:#ffffff;fill-opacity:1;fill-rule:nonzero;stroke:none"
       inkscape:connector-curvature="0" />
    <path
       d="m 414.9175,254.55125 c 0,4.10625 -3.33,7.43625 -7.4375,7.43625 -4.10625,0 -7.43125,-3.33 -7.43125,-7.43625 0,-4.10625 3.325,-7.43625 7.43125,-7.43625 4.1075,0 7.4375,3.33 7.4375,7.43625 z"
       id="path3165"
       style="fill:#ffffff;fill-opacity:1;fill-rule:nonzero;stroke:none"
       inkscape:connector-curvature="0" />
  </g>
</svg>
