<?xml version="1.0" encoding="UTF-8" standalone="no"?>
<!-- Creator: CorelDRAW X5 -->

<svg
   xmlns:dc="http://purl.org/dc/elements/1.1/"
   xmlns:cc="http://creativecommons.org/ns#"
   xmlns:rdf="http://www.w3.org/1999/02/22-rdf-syntax-ns#"
   xmlns:svg="http://www.w3.org/2000/svg"
   xmlns="http://www.w3.org/2000/svg"
   xmlns:sodipodi="http://sodipodi.sourceforge.net/DTD/sodipodi-0.dtd"
   xmlns:inkscape="http://www.inkscape.org/namespaces/inkscape"
   xml:space="preserve"
   width="25.6"
   height="25.6"
   style="fill-rule:evenodd"
   viewBox="0 0 677.33333 677.33338"
   id="svg2"
   version="1.1"
   inkscape:version="0.92.1 r15371"
   sodipodi:docname="xan_st_cardassian.svg"
   inkscape:export-filename="D:\dev\XansSciFiMashup\raw\flags\small\xan_st_cardassian.png"
   inkscape:export-xdpi="90"
   inkscape:export-ydpi="90"><metadata
     id="metadata21"><rdf:RDF><cc:Work
         rdf:about=""><dc:format>image/svg+xml</dc:format><dc:type
           rdf:resource="http://purl.org/dc/dcmitype/StillImage" /><dc:title /></cc:Work></rdf:RDF></metadata><sodipodi:namedview
     pagecolor="#008997"
     bordercolor="#666666"
     borderopacity="1"
     objecttolerance="10"
     gridtolerance="10"
     guidetolerance="10"
     inkscape:pageopacity="0"
     inkscape:pageshadow="2"
     inkscape:window-width="1697"
     inkscape:window-height="1057"
     id="namedview19"
     showgrid="false"
     inkscape:zoom="23.284234"
     inkscape:cx="7.2159069"
     inkscape:cy="10.407366"
     inkscape:window-x="-8"
     inkscape:window-y="837"
     inkscape:window-maximized="1"
     inkscape:current-layer="svg2" /><defs
     id="defs4"><style
       type="text/css"
       id="style6">
   
    .fil1 {fill:#DFEAE9}
    .fil0 {fill:url(#id0)}
   
  </style></defs><path
     style="fill:#000000;fill-opacity:1"
     inkscape:connector-curvature="0"
     id="path17"
     d="m 338.66666,397.5797 h -5.47098 c 0,0 -7.20567,-10.80851 -21.48359,-32.55896 -8.94037,-46.43657 -21.88389,-97.00972 -38.83057,-151.71947 0,0 2.40189,-19.08168 7.07224,-57.37852 0,0 5.47097,-3.60284 16.27948,-10.94194 0,0 12.54321,2.93566 37.62964,8.94036 0,0 0.26687,1.20097 0.93407,3.60285 0,0 -8.54005,4.27004 -25.75362,12.94353 0,0 -4.80379,14.81167 -14.27791,44.56842 0,0 3.73627,4.93723 11.07538,14.81166 0,0 9.20726,49.10534 27.75519,147.316 0,0 1.7347,0 5.07067,0 3.33596,0 5.07066,0 5.07066,0 18.54794,-98.21066 27.75518,-147.316 27.75518,-147.316 7.33911,-9.87443 11.07539,-14.81166 11.07539,-14.81166 -9.47412,-29.75675 -14.27792,-44.56842 -14.27792,-44.56842 -17.21354,-8.67349 -25.7536,-12.94353 -25.7536,-12.94353 0.6672,-2.40188 0.93407,-3.60285 0.93407,-3.60285 25.08642,-6.0047 37.62963,-8.94036 37.62963,-8.94036 10.8085,7.20567 16.27948,10.94194 16.27948,10.94194 4.80378,38.29684 7.07225,57.37852 7.07225,57.37852 -16.94669,54.57631 -30.02365,105.14946 -38.83059,151.71947 -14.27791,21.75045 -21.48358,32.55896 -21.48358,32.55896 z m 0,-174.27055 h -13.34385 c 0,0 -2.53533,-4.53691 -7.60598,-13.61072 0,0 1.46783,-10.00787 4.5369,-30.15707 0,0 3.73628,-4.00315 11.34226,-11.87602 -0.13343,-3.20253 -0.13343,-4.93722 -0.13343,-4.93722 -13.07697,8.80694 -19.61545,13.07696 -19.61545,13.07696 -7.07224,25.75362 -10.54164,38.56371 -10.54164,38.56371 6.67192,8.27317 10.00789,12.27633 10.00789,12.27633 14.2779,74.0583 21.48359,111.02074 21.48359,111.02074 h 3.86971 3.86971 c 0,0 7.20568,-36.96244 21.48359,-111.02074 0,0 3.33595,-4.1366 10.00788,-12.27633 0,0 -3.4694,-12.81009 -10.54164,-38.56371 0,0 -6.53848,-4.40347 -19.61544,-13.07696 0,0 0,1.60125 -0.13344,4.93722 7.60598,7.87287 11.34225,11.87602 11.34225,11.87602 3.0691,20.1492 4.53691,30.15707 4.53691,30.15707 -5.07066,9.07381 -7.60599,13.61072 -7.60599,13.61072 z m -111.82139,-0.80063 c -10.14131,0 -18.28106,8.13974 -18.28106,18.28106 0,10.14133 8.13975,18.28106 18.28106,18.28106 10.14132,0 18.28107,-8.13973 18.28107,-18.28106 0,-10.14132 -8.13975,-18.28106 -18.28107,-18.28106 z m 111.82139,316.91621 c 0,0 -3.86971,8.54007 -11.4757,25.62022 0,0 -2.00158,28.0221 -6.13817,84.0662 0,0 -1.46782,0 -4.40347,0 0,0 -8.00631,-35.895 -24.01892,-107.68482 28.68927,-2.0016 44.03469,-20.81636 46.16969,-56.31105 2.00157,35.49469 17.48043,54.17599 46.16968,56.31105 -16.01259,71.78982 -24.0189,107.68482 -24.0189,107.68482 -2.93565,0 -4.40347,0 -4.40347,0 -4.13659,-56.0441 -6.13816,-84.0662 -6.13816,-84.0662 -7.73944,-17.08015 -11.47571,-25.62022 -11.47571,-25.62022 z m 0,-68.05357 c -0.93408,0 -1.46783,0.26686 -1.60127,0.80058 -6.67192,32.82592 -16.6798,50.70663 -29.89021,53.37542 0,0 1.20096,-16.94668 3.60284,-50.70663 0,0 7.73944,-15.212 22.95142,-45.23561 h 4.93722 4.93721 c 15.21199,30.02361 22.95142,45.23561 22.95142,45.23561 2.40189,33.75995 3.60283,50.70663 3.60283,50.70663 -13.2104,-2.66879 -23.08484,-20.5495 -29.8902,-53.37542 -0.13344,-0.53372 -0.66719,-0.80058 -1.60126,-0.80058 z m 0,-48.57163 h -8.67349 c 0,0 -6.27161,10.54167 -18.94827,31.62496 0,0 -2.93564,-25.48675 -8.6735,-76.59366 0,0 9.47414,9.20724 28.42238,27.48831 0,0 2.66878,0 7.87288,0 5.33753,0 7.87286,0 7.87286,0 18.94825,-18.28107 28.42238,-27.48831 28.42238,-27.48831 -5.73785,51.10691 -8.6735,76.59366 -8.6735,76.59366 -12.67664,-21.08329 -18.94825,-31.62496 -18.94825,-31.62496 z M 514.27159,218.90569 c 0.93408,3.4694 1.86814,6.9388 2.80223,10.54164 -44.16814,23.48515 -86.33466,62.04885 -126.36619,115.69109 l 25.62017,-81.6643 44.03468,-6.40505 0.80063,-0.13344 0.6672,-0.53375 z M 338.66666,100.54583 c 0,0 -15.34542,-11.742595 -46.03626,-35.094285 0,0 3.20252,12.9435 9.47413,38.830565 0,0 7.73942,2.53531 23.08485,7.60597 0,0 1.73469,11.20886 5.07066,33.7599 0,0 -12.27634,-2.93561 -36.69557,-8.80693 0,0 -7.20567,5.20409 -21.75046,15.47886 0,0 -3.73627,19.88233 -11.34225,59.78041 0,0 0.13343,16.81324 0.26687,50.30629 0,0 8.67349,27.62174 25.88705,82.73181 -40.03152,-53.5088 -82.19806,-92.0725 -126.36617,-115.69109 17.08012,-69.38797 49.37221,-110.35359 97.00972,-122.89679 15.21197,-3.06909 22.41764,-9.340665 21.75045,-18.948255 3.33597,-39.76462 23.21828,-59.38006 59.64698,-59.38006 36.42868,0 56.31101,19.74888 59.64696,59.38006 -0.66719,9.60759 6.67192,15.879165 21.75045,18.948255 43.36749,11.47573 74.05834,46.4366 92.07251,105.01604 l -53.77568,38.43027 -41.76621,6.13815 0.26687,-44.03468 c -7.60599,-39.76463 -11.34227,-59.78041 -11.34227,-59.78041 -14.54478,-10.27477 -21.75045,-15.47886 -21.75045,-15.47886 -24.41923,5.87132 -36.69556,8.80693 -36.69556,8.80693 3.33596,-22.55104 5.07066,-33.7599 5.07066,-33.7599 15.34541,-5.07066 23.08484,-7.60597 23.08484,-7.60597 6.2716,-25.887065 9.47412,-38.830565 9.47412,-38.830565 -30.69083,23.35169 -46.03624,35.094285 -46.03624,35.094285 z"
     class="fil1" /></svg>