<?xml version="1.0" encoding="UTF-8" standalone="no"?>
<!-- Created with Inkscape (http://www.inkscape.org/) -->

<svg
   xmlns:dc="http://purl.org/dc/elements/1.1/"
   xmlns:cc="http://creativecommons.org/ns#"
   xmlns:rdf="http://www.w3.org/1999/02/22-rdf-syntax-ns#"
   xmlns:svg="http://www.w3.org/2000/svg"
   xmlns="http://www.w3.org/2000/svg"
   xmlns:sodipodi="http://sodipodi.sourceforge.net/DTD/sodipodi-0.dtd"
   xmlns:inkscape="http://www.inkscape.org/namespaces/inkscape"
   width="25.6"
   height="25.6"
   viewBox="0 0 24 24"
   id="svg2"
   version="1.1"
   inkscape:version="0.92.1 r15371"
   sodipodi:docname="xan_sc_zerg.svg"
   inkscape:export-filename="D:\dev\XansSciFiMashup\raw\flags\small\xan_w4_tau.png"
   inkscape:export-xdpi="90"
   inkscape:export-ydpi="90">
  <defs
     id="defs4" />
  <sodipodi:namedview
     id="base"
     pagecolor="#ff4b00"
     bordercolor="#666666"
     borderopacity="1.0"
     inkscape:pageopacity="0"
     inkscape:pageshadow="2"
     inkscape:zoom="1.2422551"
     inkscape:cx="-204.38712"
     inkscape:cy="-79.531079"
     inkscape:document-units="px"
     inkscape:current-layer="layer1"
     showgrid="false"
     inkscape:window-width="1697"
     inkscape:window-height="1057"
     inkscape:window-x="-8"
     inkscape:window-y="837"
     inkscape:window-maximized="1"
     units="px"
     showguides="false" />
  <metadata
     id="metadata7">
    <rdf:RDF>
      <cc:Work
         rdf:about="">
        <dc:format>image/svg+xml</dc:format>
        <dc:type
           rdf:resource="http://purl.org/dc/dcmitype/StillImage" />
        <dc:title></dc:title>
      </cc:Work>
    </rdf:RDF>
  </metadata>
  <g
     inkscape:label="Ebene 1"
     inkscape:groupmode="layer"
     id="layer1"
     transform="translate(0,-1028.3622)">
    <path
       style="fill:#000000"
       d=""
       id="path4147"
       inkscape:connector-curvature="0" />
    <path
       style="fill:#000000"
       d=""
       id="path4145"
       inkscape:connector-curvature="0" />
    <path
       inkscape:connector-curvature="0"
       id="path23"
       d="m 7.47455,1051.2625 c -0.59947,-0.082 -0.90246,-0.1795 -1.53664,-0.4965 -0.87744,-0.4386 -1.78135,-1.4123 -2.06968,-2.2296 l -0.10674,-0.3025 0.62161,0.5358 c 1.53652,1.3245 3.02126,1.5798 4.0089,0.6894 0.55727,-0.5024 0.71895,-1.1718 0.4344,-1.7985 -0.39582,-0.8719 -1.64767,-1.0026 -2.22199,-0.2321 -0.22422,0.3008 -0.20377,0.8241 0.0517,1.3232 0.11174,0.2182 0.17662,0.3968 0.14419,0.3968 -0.15323,0 -0.8798,-0.5702 -1.08784,-0.8537 -0.4176,-0.5691 -0.60274,-1.1131 -0.70211,-2.063 l -0.0481,-0.46 0.4027,0.033 c 0.35321,0.029 0.43238,0.01 0.64434,-0.1699 0.42633,-0.3588 0.45751,-0.8715 0.0762,-1.2528 -0.30267,-0.3027 -0.70859,-0.3087 -1.02255,-0.015 -0.37526,0.3508 -0.66291,1.2934 -0.76706,2.5134 l -0.0484,0.567 -0.20076,-0.3402 c -0.29366,-0.4976 -0.44498,-1.0783 -0.49242,-1.8898 -0.0416,-0.7116 0.076,-1.6323 0.27409,-2.1455 0.0823,-0.2131 0.0874,-0.2148 0.23685,-0.08 0.49418,0.4472 1.79655,-0.393 1.50012,-0.9678 -0.48988,-0.9499 -1.56214,-1.0019 -2.17873,-0.1058 -0.30262,0.4399 -0.76307,1.5924 -0.76307,1.9101 0,0.057 -0.0311,0.1035 -0.0691,0.1035 -0.0947,0 -0.13574,-0.8983 -0.0725,-1.588 0.0641,-0.6991 0.29522,-1.4042 0.63354,-1.9331 0.26729,-0.4178 0.7738,-1.0144 0.86123,-1.0144 0.0278,0 0.11088,0.1022 0.18468,0.2271 0.18515,0.3135 0.53207,0.4794 0.89928,0.4301 0.34525,-0.046 0.56664,-0.2207 0.7099,-0.5591 0.28585,-0.6754 -0.70208,-1.358 -1.67346,-1.1563 -0.70662,0.1467 -1.49884,0.8047 -1.95669,1.6251 l -0.12655,0.2268 0.0477,-0.2646 c 0.0849,-0.4716 0.41627,-1.3885 0.64867,-1.7953 0.30091,-0.5266 0.88577,-1.1575 1.34785,-1.454 0.2059,-0.1322 0.66795,-0.3555 1.02678,-0.4964 0.5314,-0.2086 0.64169,-0.232 0.59456,-0.1261 -0.10818,0.243 -0.1238,0.778 -0.0294,1.006 0.10561,0.255 0.4162,0.4469 0.7233,0.4469 0.26283,0 0.74476,-0.4942 0.81256,-0.8332 0.027,-0.1351 0.0141,-0.3755 -0.0286,-0.5343 -0.27921,-1.0369 -1.71298,-1.463 -3.43225,-1.02 -0.4128,0.1064 -0.76263,0.1814 -0.77739,0.1666 -0.05,-0.05 0.55517,-0.7638 0.81559,-0.962 0.92691,-0.7055 2.44514,-1.0768 3.70799,-0.9069 0.33011,0.044 0.66408,0.115 0.74214,0.1568 0.13198,0.071 0.12385,0.094 -0.11599,0.3338 -0.21162,0.2117 -0.25792,0.315 -0.25792,0.5754 0,0.6653 0.83348,1.1036 1.4886,0.7829 0.38649,-0.1892 0.49147,-0.4153 0.45273,-0.9752 -0.0439,-0.6349 -0.34524,-1.2146 -0.91625,-1.763 -0.65326,-0.6272 -1.39239,-0.9667 -2.38575,-1.0957 -0.36352,-0.047 -0.3641,-0.048 -0.15118,-0.1372 0.93251,-0.3918 2.51926,-0.486 3.59745,-0.2135 0.78393,0.1982 1.58488,0.597 2.06403,1.0278 0.21225,0.1908 0.38592,0.3755 0.38592,0.4105 0,0.035 -0.073,0.087 -0.16219,0.1149 -0.2649,0.084 -0.80635,0.6317 -0.8974,0.9076 -0.10268,0.3111 0.006,0.5821 0.3281,0.8208 0.16505,0.1221 0.32485,0.1579 0.70504,0.1579 0.46769,0 0.50374,-0.013 0.7405,-0.2715 0.77926,-0.8503 0.80446,-2.6265 0.0528,-3.719 -0.22048,-0.3205 -0.62038,-0.7152 -0.99429,-0.9815 l -0.1883,-0.1341 0.26457,0.045 c 1.9248,0.3266 3.54006,1.6789 4.161,3.4837 0.0813,0.2363 0.14777,0.4582 0.14777,0.4933 0,0.035 -0.12361,0.064 -0.2747,0.064 -0.67712,0 -1.23715,0.3779 -1.23715,0.8347 0,0.3093 0.39137,0.7302 0.77487,0.8335 0.43071,0.116 0.77314,0.03 1.11623,-0.2798 0.59827,-0.5405 0.81925,-1.7743 0.57213,-3.1944 -0.068,-0.3905 -0.11028,-0.7233 -0.0941,-0.7395 0.0162,-0.016 0.29,0.2474 0.60839,0.5859 0.64641,0.6871 1.09075,1.4928 1.28917,2.3376 0.11617,0.4946 0.15623,1.8354 0.0703,2.3548 l -0.0456,0.276 -0.38819,-0.1808 c -0.62984,-0.2933 -0.9712,-0.2208 -1.0964,0.2326 -0.0925,0.335 -0.0378,0.5536 0.20393,0.814 0.24194,0.2608 0.6107,0.3692 0.94324,0.2774 0.65113,-0.1798 1.06,-1.0911 1.32016,-2.9425 l 0.0584,-0.4157 0.21806,0.8693 c 0.30112,1.2005 0.34839,2.2848 0.13082,3.0011 -0.15485,0.5098 -0.69727,1.4588 -0.83382,1.4588 -0.038,0 -0.0888,-0.051 -0.11271,-0.1135 -0.024,-0.062 -0.16709,-0.1724 -0.31808,-0.2444 l -0.27453,-0.1309 -0.17799,0.2069 c -0.26728,0.3108 -0.31014,0.6748 -0.11635,0.9884 0.33616,0.5439 0.87085,0.5255 1.46331,-0.05 0.41673,-0.4051 0.74218,-0.8812 1.24805,-1.8256 l 0.40604,-0.7581 -0.0429,0.7182 c -0.15159,2.5401 -1.96104,5.4983 -5.1639,8.4421 l -0.69811,0.6416 -0.77762,-0.1146 c -1.57103,-0.2317 -2.98771,-0.907 -4.09975,-1.9544 -1.36208,-1.2829 -2.0612,-2.8107 -1.98488,-4.3378 0.0413,-0.826 0.25649,-1.3649 0.73702,-1.8454 0.76523,-0.7652 2.0972,-1.0018 3.01219,-0.535 0.38565,0.1967 0.86878,0.7509 0.98091,1.1251 0.25977,0.8671 -0.0269,1.5547 -0.92405,2.2162 -0.34279,0.2528 -0.4605,0.2769 -0.35083,0.072 0.0428,-0.08 0.11404,-0.3143 0.15833,-0.5208 0.14731,-0.6869 -0.21967,-1.1521 -0.91638,-1.1618 -0.61605,-0.01 -0.94706,0.4647 -0.88303,1.2624 0.0397,0.4949 0.30231,1.0987 0.59731,1.3735 0.49833,0.4642 1.27895,0.5889 2.09516,0.3349 1.12168,-0.3491 1.76602,-1.4044 1.87556,-3.0719 0.0885,-1.3481 -0.44007,-2.3983 -1.57989,-3.139 -0.61858,-0.4019 -1.26389,-0.5601 -2.0432,-0.5007 -1.2832,0.098 -2.33227,0.5313 -3.14786,1.3006 -1.05334,0.9937 -1.41467,2.2015 -1.22414,4.0918 0.11215,1.1125 0.31444,1.8869 0.69775,2.6709 0.26935,0.551 0.43382,0.7611 1.15371,1.4741 1.09212,1.0816 1.99618,1.6239 4.42927,2.6569 0.1814,0.077 0.1585,0.1002 -0.57146,0.5788 -2.13982,1.4029 -4.15084,2.0188 -5.84081,1.7886 z"
       style="fill:#000000;stroke-width:0.07559251"
       sodipodi:nodetypes="ccccsssccscscccsccccsccccssccscccsccccccccscccccsccscccscssscccscssccsssssccsccccccccccccsccccccscsscsscsssccccccccscsccscccc" />
  </g>
</svg>
