<?xml version="1.0" encoding="UTF-8" standalone="no"?>
<!-- Created with Inkscape (http://www.inkscape.org/) -->

<svg
   xmlns:dc="http://purl.org/dc/elements/1.1/"
   xmlns:cc="http://creativecommons.org/ns#"
   xmlns:rdf="http://www.w3.org/1999/02/22-rdf-syntax-ns#"
   xmlns:svg="http://www.w3.org/2000/svg"
   xmlns="http://www.w3.org/2000/svg"
   xmlns:sodipodi="http://sodipodi.sourceforge.net/DTD/sodipodi-0.dtd"
   xmlns:inkscape="http://www.inkscape.org/namespaces/inkscape"
   id="svg2860"
   version="1.1"
   inkscape:version="0.91 r13725"
   width="24"
   height="24"
   sodipodi:docname="xan_st_romulan.svg"
   inkscape:export-filename="D:\dev\XansSciFiMashup\raw\flags\small\xan_st_klingon.png"
   inkscape:export-xdpi="90"
   inkscape:export-ydpi="90">
  <metadata
     id="metadata2866">
    <rdf:RDF>
      <cc:Work
         rdf:about="">
        <dc:format>image/svg+xml</dc:format>
        <dc:type
           rdf:resource="http://purl.org/dc/dcmitype/StillImage" />
        <dc:title></dc:title>
      </cc:Work>
    </rdf:RDF>
  </metadata>
  <defs
     id="defs2864">
    <inkscape:perspective
       sodipodi:type="inkscape:persp3d"
       inkscape:vp_x="0 : 0.5 : 1"
       inkscape:vp_y="0 : 1000 : 0"
       inkscape:vp_z="1 : 0.5 : 1"
       inkscape:persp3d-origin="0.5 : 0.33333333 : 1"
       id="perspective2868" />
    <inkscape:perspective
       id="perspective3654"
       inkscape:persp3d-origin="0.5 : 0.33333333 : 1"
       inkscape:vp_z="1 : 0.5 : 1"
       inkscape:vp_y="0 : 1000 : 0"
       inkscape:vp_x="0 : 0.5 : 1"
       sodipodi:type="inkscape:persp3d" />
    <inkscape:perspective
       id="perspective3676"
       inkscape:persp3d-origin="0.5 : 0.33333333 : 1"
       inkscape:vp_z="1 : 0.5 : 1"
       inkscape:vp_y="0 : 1000 : 0"
       inkscape:vp_x="0 : 0.5 : 1"
       sodipodi:type="inkscape:persp3d" />
    <inkscape:perspective
       id="perspective3714"
       inkscape:persp3d-origin="0.5 : 0.33333333 : 1"
       inkscape:vp_z="1 : 0.5 : 1"
       inkscape:vp_y="0 : 1000 : 0"
       inkscape:vp_x="0 : 0.5 : 1"
       sodipodi:type="inkscape:persp3d" />
    <inkscape:perspective
       id="perspective3743"
       inkscape:persp3d-origin="0.5 : 0.33333333 : 1"
       inkscape:vp_z="1 : 0.5 : 1"
       inkscape:vp_y="0 : 1000 : 0"
       inkscape:vp_x="0 : 0.5 : 1"
       sodipodi:type="inkscape:persp3d" />
    <inkscape:perspective
       id="perspective3773"
       inkscape:persp3d-origin="0.5 : 0.33333333 : 1"
       inkscape:vp_z="1 : 0.5 : 1"
       inkscape:vp_y="0 : 1000 : 0"
       inkscape:vp_x="0 : 0.5 : 1"
       sodipodi:type="inkscape:persp3d" />
    <inkscape:perspective
       id="perspective3795"
       inkscape:persp3d-origin="0.5 : 0.33333333 : 1"
       inkscape:vp_z="1 : 0.5 : 1"
       inkscape:vp_y="0 : 1000 : 0"
       inkscape:vp_x="0 : 0.5 : 1"
       sodipodi:type="inkscape:persp3d" />
    <inkscape:perspective
       id="perspective3830"
       inkscape:persp3d-origin="0.5 : 0.33333333 : 1"
       inkscape:vp_z="1 : 0.5 : 1"
       inkscape:vp_y="0 : 1000 : 0"
       inkscape:vp_x="0 : 0.5 : 1"
       sodipodi:type="inkscape:persp3d" />
    <inkscape:perspective
       id="perspective3860"
       inkscape:persp3d-origin="0.5 : 0.33333333 : 1"
       inkscape:vp_z="1 : 0.5 : 1"
       inkscape:vp_y="0 : 1000 : 0"
       inkscape:vp_x="0 : 0.5 : 1"
       sodipodi:type="inkscape:persp3d" />
    <inkscape:perspective
       id="perspective3887"
       inkscape:persp3d-origin="0.5 : 0.33333333 : 1"
       inkscape:vp_z="1 : 0.5 : 1"
       inkscape:vp_y="0 : 1000 : 0"
       inkscape:vp_x="0 : 0.5 : 1"
       sodipodi:type="inkscape:persp3d" />
    <inkscape:perspective
       id="perspective3913"
       inkscape:persp3d-origin="0.5 : 0.33333333 : 1"
       inkscape:vp_z="1 : 0.5 : 1"
       inkscape:vp_y="0 : 1000 : 0"
       inkscape:vp_x="0 : 0.5 : 1"
       sodipodi:type="inkscape:persp3d" />
    <inkscape:perspective
       id="perspective3964"
       inkscape:persp3d-origin="0.5 : 0.33333333 : 1"
       inkscape:vp_z="1 : 0.5 : 1"
       inkscape:vp_y="0 : 1000 : 0"
       inkscape:vp_x="0 : 0.5 : 1"
       sodipodi:type="inkscape:persp3d" />
  </defs>
  <sodipodi:namedview
     pagecolor="#086600"
     bordercolor="#666666"
     borderopacity="1"
     objecttolerance="10"
     gridtolerance="10"
     guidetolerance="10"
     inkscape:pageopacity="0"
     inkscape:pageshadow="2"
     inkscape:window-width="1721"
     inkscape:window-height="1057"
     id="namedview2862"
     showgrid="false"
     showguides="false"
     inkscape:zoom="22.034605"
     inkscape:cx="9.7004293"
     inkscape:cy="13.49097"
     inkscape:window-x="1272"
     inkscape:window-y="-8"
     inkscape:window-maximized="1"
     inkscape:current-layer="svg2860" />
  <path
     inkscape:connector-curvature="0"
     d="m 9.7335102,9.8845293 0.02675,0.5851587 -0.4112821,-0.438033 0.2507819,0.09362 z M 8.9443824,10.573345 8.7033806,10.682247 8.9973227,10.26734 9.3205556,10.808855 Z m 2.7096776,6.360591 c -0.08748,-0.283675 -0.177022,-0.566701 -0.269917,-0.848648 l -0.0035,-0.0106 0.0012,-0.01179 c 0.0736,-0.489428 0.131121,-0.981193 0.170909,-1.474524 0.0339,-0.420385 0.07195,-0.925567 0.08368,-1.360192 -0.08785,-0.572567 -0.226962,-1.162911 -0.381891,-1.709081 l 0.03772,-0.0778 c 0.0033,-0.0062 0.0062,-0.01256 0.0095,-0.01886 l 0.01415,-0.03064 c 0.235338,-0.512154 0.01803,-1.119604 -0.503296,-1.376694 -0.04053,-0.01999 -0.119879,-0.0546 -0.162657,-0.069542 l 0.05422,-0.1272974 c 0.01276,0.00444 0.02512,0.00932 0.03772,0.014144 C 10.46928,9.4198974 10.150941,9.0372687 9.7941172,8.6949855 9.280138,8.2019515 8.6868761,7.7917719 8.0437824,7.4856634 l -0.09783,-0.047148 0.069542,-0.081328 C 8.200438,7.1395744 8.3940718,6.9291412 8.5942248,6.7254169 8.7796996,6.5366323 9.2059578,6.1407932 9.2059578,6.1407932 c 0,0 -1.0220002,0.1193274 -1.5216716,0.2380927 C 7.3199693,6.4654789 6.9274848,6.5433102 6.5669005,6.6464451 5.7400357,6.8829477 4.9545806,7.1637036 4.1624004,7.4950922 3.0198685,7.973043 1.6835485,8.8781979 1.3618644,9.1299174 1.6914852,8.8451303 2.7864513,7.9471323 4.0822501,7.3807608 5.2137895,6.8861851 6.4171794,6.5208013 7.6277096,6.25041 8.2848233,6.1036332 9.2903729,5.9810607 9.6302816,5.9863865 L 9.5159499,6.0971818 C 9.2366435,6.3327472 8.9681646,6.580285 8.7120919,6.8409271 8.5423772,7.0136712 8.3814791,7.1944683 8.2229414,7.3772252 c -0.0046,0.00521 -0.00272,0.014639 0.00353,0.01768 0.6156269,0.3071985 1.1854833,0.7047791 1.6819718,1.1810342 0.4379968,0.4201482 0.8194958,0.8985582 1.1315298,1.4191263 0.491205,0.3574733 0.647632,1.0036343 0.375998,1.5322803 0.169962,0.622791 0.352042,1.386517 0.450255,1.98607 0.09635,0.588184 0.128468,0.59194 0.128476,1.451778 9e-6,-0.859838 0.03213,-0.863594 0.128479,-1.451778 0.09821,-0.599553 0.280291,-1.363279 0.450254,-1.98607 -0.271634,-0.528646 -0.115208,-1.174807 0.375999,-1.5322803 0.312033,-0.5205681 0.69353,-0.9989781 1.131529,-1.4191263 0.496488,-0.4762551 1.066344,-0.8738357 1.681972,-1.1810342 0.0062,-0.00304 0.0081,-0.01247 0.0035,-0.01768 C 15.607935,7.1944683 15.447036,7.0136712 15.277321,6.8409271 15.021249,6.580285 14.75277,6.3327472 14.473464,6.0971818 L 14.359132,5.9863865 c 0.339909,-0.00532 1.345458,0.1172467 2.002572,0.2640235 1.21053,0.2703913 2.413922,0.6357751 3.545459,1.1303508 1.295799,0.5663715 2.390765,1.4643695 2.720386,1.7491566 C 22.305865,8.8781979 20.969546,7.973043 19.827013,7.4950922 19.034833,7.1637036 18.249379,6.8829477 17.422513,6.6464451 17.061929,6.5433102 16.669445,6.4654789 16.305128,6.3788859 15.805456,6.2601206 14.783457,6.1407932 14.783457,6.1407932 c 0,0 0.426258,0.3958391 0.611733,0.5846237 0.200152,0.2037243 0.393786,0.4141575 0.578729,0.6317707 l 0.06954,0.081328 -0.09783,0.047147 c -0.643094,0.3061085 -1.236355,0.7162881 -1.750336,1.2093221 -0.356823,0.3422832 -0.675162,0.7249119 -0.947657,1.1374233 0.0126,-0.00483 0.02496,-0.00971 0.03772,-0.014144 l 0.05422,0.1272974 c -0.04278,0.014942 -0.122126,0.049554 -0.162658,0.069542 -0.521322,0.257091 -0.738634,0.864541 -0.503294,1.376696 l 0.01414,0.03064 c 0.0031,0.0063 0.0061,0.01258 0.0095,0.01886 l 0.03772,0.0778 c -0.15493,0.54617 -0.294038,1.136514 -0.381891,1.70908 0.01173,0.434625 0.04978,0.939808 0.08368,1.360192 0.03979,0.493331 0.0973,0.985096 0.170907,1.474525 l 0.0012,0.01179 -0.0035,0.0106 c -0.0929,0.281948 -0.182436,0.564973 -0.269917,0.848648 -0.101948,0.330589 -0.24609,0.862398 -0.340637,1.195178 -0.09455,-0.332781 -0.23869,-0.864589 -0.340638,-1.195178 z m 0.590517,-0.02829 c 0.0867,-0.281158 0.176725,-0.560931 0.268738,-0.840396 -0.07308,-0.487706 -0.130086,-0.977078 -0.169729,-1.468632 -0.02378,-0.294925 -0.0413,-0.590592 -0.05304,-0.886364 -0.156435,1.400318 -0.295848,3.830698 -0.295848,3.830698 0,0 -0.139413,-2.43038 -0.295848,-3.830698 -0.01174,0.295772 -0.02926,0.591439 -0.05304,0.886364 -0.03965,0.491554 -0.09665,0.980926 -0.169729,1.468632 0.09201,0.279465 0.182034,0.559238 0.268739,0.840396 0.08306,0.26935 0.171885,0.606111 0.249879,0.876936 0.078,-0.270825 0.166816,-0.607586 0.24988,-0.876936 z M 8.8723824,6.2350871 c 0.018167,4.087e-4 0.036081,0.00127 0.054219,0.00235 C 8.313405,6.6475095 7.7580046,7.1432351 7.281169,7.7060765 6.9331655,8.1168493 6.6267949,8.5630593 6.3688734,9.035624 6.2443358,9.0542596 6.1213079,9.0810006 5.9999478,9.1145954 5.8315407,9.1612137 5.6666331,9.2218902 5.5084396,9.2961114 5.6402098,9.1884706 5.7844389,9.0958396 5.9374779,9.0214798 6.0407205,8.9713156 6.1482626,8.9299496 6.258078,8.8965402 6.5835079,8.2726116 7.0047513,7.6987742 7.5027604,7.2016031 7.86663,6.8383457 8.2709398,6.5158657 8.7061891,6.2421598 c 0.036954,-0.00372 0.07366,-0.00635 0.110796,-0.00707 0.018167,-3.345e-4 0.037231,-4.089e-4 0.055397,0 z M 8.2854016,6.3305595 C 7.8518371,6.5913591 7.44124,6.8896625 7.0583992,7.2204604 6.5772624,7.6361939 6.1408684,8.103673 5.7594974,8.6124781 5.5904011,8.6460537 5.4224643,8.6877339 5.2573812,8.7374176 5.0313176,8.805455 4.8101155,8.8889389 4.5949647,8.9861184 4.7345589,8.8818366 4.8830576,8.7885549 5.0381474,8.7091297 5.2271435,8.6123407 5.426274,8.5355558 5.6310215,8.4792873 5.9885045,8.0019138 6.3981649,7.5628376 6.8497735,7.1733135 7.1945301,6.8759526 7.5628894,6.6072799 7.9518363,6.3706347 c 0.033016,-0.00885 0.066528,-0.016434 0.1001874,-0.022395 0.076993,-0.013635 0.1552082,-0.019493 0.2333779,-0.01768 z m -0.947656,0.20509 C 7.1406295,6.6275749 6.9494209,6.7316682 6.7649086,6.8468201 6.337556,7.1135264 5.9503997,7.4391475 5.5744451,7.7744386 5.4038443,7.9265877 5.2352527,8.0809905 5.0687931,8.237659 4.8604324,8.2927908 4.6528936,8.3534429 4.4476303,8.4191753 4.1796537,8.5049911 3.9148421,8.5996974 3.653202,8.7032363 3.8456682,8.56124 4.0525617,8.438239 4.2696498,8.3378464 4.503011,8.2299284 4.7480923,8.1476629 4.9992508,8.0926819 5.1653955,7.9200254 5.3393275,7.7549361 5.5190477,7.5964586 5.7843741,7.3624929 6.0632137,7.144389 6.3535507,6.9422933 6.5024493,6.8386488 6.6541023,6.7393158 6.8085199,6.6440879 6.8832176,6.6218075 6.9586337,6.6016131 7.0348261,6.5851543 7.1349268,6.5635307 7.2359703,6.5470367 7.3377456,6.5356495 Z M 5.4388973,7.0825557 C 5.2054376,7.2069278 4.9770346,7.3409461 4.7540863,7.4833056 4.5474528,7.6152482 4.3458829,7.7538928 4.149425,7.9005573 3.7925224,8.0293862 3.439586,8.1691676 3.0909736,8.3189879 2.7362478,8.4714349 2.3856262,8.6345111 2.0407725,8.8081385 2.4191932,8.5295178 2.8148032,8.2739492 3.2241643,8.0431771 3.926505,7.6472419 4.6698929,7.3247943 5.4388973,7.0825557 Z m 2.4598982,0.4090009 c 0.014407,0.010232 0.02898,0.020737 0.043611,0.030645 0.017207,0.011653 0.034356,0.022983 0.051862,0.034181 C 7.83383,7.8216619 7.6842752,8.0931893 7.5463711,8.3708497 7.3735399,8.7188348 7.2189337,9.0758652 7.0831516,9.4399092 6.9323621,9.4744006 6.7833249,9.5163746 6.6364333,9.5648487 6.5064585,9.6077405 6.3781516,9.6562985 6.2521841,9.709826 6.3644194,9.6141852 6.4899578,9.5331571 6.6234675,9.4705548 6.737887,9.4169037 6.8581726,9.3765993 6.9817851,9.3503299 7.0965857,9.0159983 7.2335308,8.688615 7.3907858,8.3720281 7.541672,8.0682639 7.7112191,7.7741418 7.8987955,7.4915566 Z m 0.4962229,0.2805249 c 0.013574,0.00244 0.026396,0.00415 0.040075,0.0059 0.026609,0.00341 0.053335,0.00629 0.08015,0.00707 C 8.3707655,8.1069518 8.2387906,8.4337466 8.1192083,8.7657054 7.9995071,9.0979943 7.8926697,9.435395 7.7986081,9.7758314 7.691143,9.7902395 7.5843374,9.8076476 7.478008,9.8288716 7.3425718,9.8559062 7.207698,9.8887729 7.0749006,9.9267019 7.1670064,9.8570954 7.2664463,9.7970354 7.3707483,9.7475427 7.4729858,9.6990308 7.5803308,9.6604369 7.6901699,9.6332113 7.7695168,9.3324466 7.863681,9.0361224 7.971874,8.7444894 8.0948234,8.4130785 8.2362462,8.0878995 8.3950184,7.7720808 Z m 0.5080097,0.2640238 0.04479,0.031824 0.045968,0.031824 C 8.9105579,8.4167649 8.8291954,8.7338395 8.7509789,9.0521245 8.6707549,9.3785794 8.5937103,9.706252 8.5187795,10.033962 c -0.089521,0.0048 -0.1790186,0.01424 -0.2675597,0.02829 -0.133236,0.02115 -0.2641776,0.05267 -0.3924988,0.0943 0.074663,-0.06318 0.1577409,-0.115594 0.2475214,-0.154405 0.089959,-0.038895 0.1866839,-0.064374 0.2840612,-0.075441 0.070835,-0.3075094 0.1464552,-0.6135234 0.2286632,-0.918189 0.087905,-0.3257764 0.183286,-0.6503805 0.2840613,-0.9724084 z m -4.6416285,0.5916955 0.1496919,0.023574 c -0.1040735,0.6798806 0.0033,1.3911075 0.3040988,2.0096435 0.1971073,0.405308 0.4799338,0.767386 0.8180017,1.065524 l 0,-0.1603 0,-0.328851 0.1508703,0 0,0.328851 0,0.328851 0,0.156764 -0.1225824,-0.09783 C 5.1487422,11.624369 4.8106588,11.202059 4.5796419,10.727024 4.2651527,10.080345 4.1525909,9.3386163 4.2613996,8.6278008 Z m 0.7649613,0.2805249 0.1496919,0.014144 c -0.057627,0.6254131 0.081416,1.2688823 0.3913202,1.8151633 0.195574,0.344745 0.4605843,0.647882 0.7708547,0.894615 l 0,-0.173266 0,-0.32885 0.1508706,0 0,0.32885 0,0.330029 0,0.146157 -0.1202249,-0.08487 C 5.9875998,11.576862 5.6680525,11.219984 5.4365402,10.81189 5.1111031,10.238229 4.965846,9.5650853 5.0263609,8.9083257 Z M 5.779535,9.277252 5.8926881,9.29611 c 0.015361,0.4767672 0.1427533,0.852423 0.3547813,1.218753 0.09991,0.172616 0.2974283,0.421358 0.4738283,0.598767 0.2044272,0.205596 0.3848284,0.328882 0.421966,0.332387 l 0,-0.160301 0,-0.298204 0.1237611,0.0023 -0.00235,0.704849 C 6.9199849,11.494516 6.4303554,11.055992 6.1673184,10.615052 5.929556,10.216481 5.7891435,9.8688954 5.7795336,9.2772534 Z m 0.8745781,0.3866055 c 0.1895146,0.3664515 0.424946,0.7086535 0.7001339,1.0160195 0.172436,0.1926 0.3639168,0.367417 0.564586,0.530405 0.00261,-0.172662 0.012459,-0.344945 0.034183,-0.51626 0.022768,-0.179556 0.055544,-0.358245 0.099008,-0.533942 l 0.1473343,0.03654 c -0.042058,0.170007 -0.07462,0.342519 -0.096651,0.51626 -0.027579,0.217493 -0.039649,0.437331 -0.035361,0.656524 l 0.00353,0.155584 -0.1237611,-0.0943 C 7.6923944,11.236946 7.4557453,11.018502 7.242271,10.780065 6.9585538,10.463171 6.7151307,10.110031 6.5197419,9.7322208 l 0.1343692,-0.068363 z m 3.9909999,0.080151 -0.299384,0.6694885 0.033,-0.452612 -0.212162,-0.2168765 z M 9.7893934,9.7557943 9.829468,10.631551 9.2554524,10.02689 Z m 0.3382806,0.029467 0.01768,0.113153 c -0.04913,1.35e-4 -0.09905,0.00394 -0.147334,0.012964 -0.04784,0.00894 -0.094791,0.022722 -0.1402629,0.040075 l -0.00825,-0.1155109 c 0.037904,-0.012186 0.076507,-0.022647 0.1155105,-0.030645 0.05355,-0.010982 0.1080684,-0.017149 0.1626574,-0.020037 z m -0.8427545,0.3571397 0.076615,0.09076 c -0.031256,0.02642 -0.060949,0.0557 -0.088401,0.08605 -0.033843,0.03741 -0.064698,0.07776 -0.091937,0.120225 l -0.063649,-0.110795 c 0.019514,-0.03176 0.041645,-0.06255 0.066006,-0.09076 0.030337,-0.03513 0.064629,-0.06709 0.1013659,-0.09547 z m -0.2852398,1.064345 c 0.091736,0.285487 0.2797242,0.53922 0.5256902,0.710742 0.2048434,0.142845 0.4486021,0.22849 0.6977761,0.245164 l 0,0.113153 c -0.245508,0.003 -0.4905913,-0.07029 -0.6942407,-0.207447 -0.288198,-0.194093 -0.4869569,-0.51673 -0.5292256,-0.861612 z m 1.3436913,0.475007 0.531584,0.518617 -0.01768,0.0059 -0.65888,1.512242 -0.5964111,0.160301 0.2404505,-0.186231 0.2581306,-0.10726 0.59641,-1.324833 -0.278168,0.0943 0.11669,-0.239271 -0.187411,-0.416073 0.02122,0.247522 z m 0.896974,0.09901 0.05539,0.208626 -0.377176,1.758586 -0.648273,0.262844 0.189767,-0.190945 0.346532,-0.165015 z m -1.5723556,0.4809 0.1485135,0.04833 -0.8262528,1.047843 -0.7979639,0.179159 0.3359229,-0.198017 0.3807121,-0.119047 z m 0.6635956,0.09665 -0.7555325,1.199894 -0.6671313,0.174444 0.2439867,-0.16973 0.3206002,-0.110795 0.6895259,-1.093813 z m 1.115028,0.471471 0.08251,0.377177 -0.01297,0.610555 -0.523333,0.325314 0.186231,-0.243986 0.210984,-0.163836 z m 2.809272,-2.9452542 -0.02675,0.5851592 0.411282,-0.438033 -0.250782,0.09362 z m 0.861127,-3.649446 c -0.01817,4.088e-4 -0.03609,0.00127 -0.05422,0.00235 0.613197,0.4100644 1.168597,0.90579 1.645432,1.4686315 0.348004,0.4107727 0.654375,0.8569828 0.912296,1.3295476 0.124538,0.018635 0.247566,0.045377 0.368926,0.078971 0.168406,0.046618 0.333315,0.1072948 0.491508,0.1815161 C 18.349185,9.1884704 18.204956,9.0958394 18.051916,9.0214796 17.948674,8.9713154 17.841132,8.9299494 17.731316,8.89654 17.405887,8.2726114 16.984642,7.698774 16.486634,7.2016029 16.122764,6.8383455 15.718455,6.5158655 15.283205,6.2421596 c -0.03695,-0.00372 -0.07366,-0.00635 -0.110796,-0.00707 -0.01817,-3.345e-4 -0.03723,-4.089e-4 -0.0554,0 z m 0.586981,0.095472 c 0.433565,0.2607996 0.844161,0.559103 1.227002,0.889901 0.481138,0.4157334 0.917531,0.8832125 1.298902,1.3920175 0.169096,0.033576 0.337033,0.075255 0.502116,0.1249395 0.226063,0.068037 0.447266,0.1515214 0.662417,0.2487009 C 19.254836,8.8818364 19.106337,8.7885547 18.951248,8.7091295 18.76225,8.6123405 18.56312,8.5355556 18.358373,8.4792871 18.00089,8.0019137 17.59123,7.5628374 17.13962,7.1733133 16.794864,6.8759525 16.426505,6.6072798 16.037558,6.3706345 c -0.03302,-0.00885 -0.06653,-0.016434 -0.100182,-0.022395 -0.07699,-0.013635 -0.155209,-0.019493 -0.233379,-0.01768 z m 0.947656,0.20509 c 0.197116,0.091926 0.388325,0.1960187 0.572837,0.3111705 0.427353,0.2667064 0.814509,0.5923275 1.190463,0.9276186 0.170602,0.1521492 0.339193,0.3065518 0.505651,0.4632204 0.208362,0.055131 0.415902,0.1157839 0.621165,0.1815163 0.267976,0.085816 0.532787,0.1805221 0.794427,0.284061 C 20.143727,8.5612398 19.936832,8.4382389 19.719743,8.3378462 19.486384,8.2299282 19.241303,8.1476627 18.990145,8.0926817 18.823999,7.9200252 18.650067,7.7549359 18.470347,7.5964584 18.205021,7.3624927 17.926181,7.1443888 17.635844,6.9422931 17.486946,6.8386486 17.335293,6.7393156 17.180875,6.6440877 c -0.0747,-0.02228 -0.150113,-0.042475 -0.226306,-0.058934 -0.100101,-0.021624 -0.201145,-0.038118 -0.30292,-0.049505 z m 1.898848,0.5469062 c 0.23346,0.1243721 0.461863,0.2583904 0.684812,0.4007498 0.206632,0.1319426 0.408203,0.2705872 0.604661,0.4172519 0.356902,0.1288288 0.709837,0.2686102 1.05845,0.4184305 0.354727,0.152447 0.705347,0.3155233 1.050202,0.4891505 C 21.570201,8.5295176 21.174592,8.2739491 20.765229,8.0431769 20.062889,7.6472417 19.319502,7.3247941 18.550497,7.0825555 Z m -2.459898,0.4090008 c -0.01441,0.010233 -0.02898,0.020737 -0.04361,0.030645 -0.0172,0.011653 -0.03436,0.022983 -0.05186,0.034181 0.160439,0.2652784 0.309993,0.5368058 0.447897,0.8144662 0.172831,0.3479851 0.327438,0.7050155 0.46322,1.0690595 0.150789,0.034491 0.299826,0.076466 0.446718,0.1249396 0.129974,0.042892 0.258282,0.09145 0.384249,0.1449772 C 17.624974,9.614185 17.499437,9.5331569 17.365927,9.4705546 17.251507,9.4169035 17.131222,9.3765991 17.007609,9.3503297 16.892808,9.0159981 16.755864,8.6886148 16.598608,8.372028 16.447722,8.0682637 16.278175,7.7741417 16.090599,7.4915564 Z m -0.496223,0.2805285 c -0.01357,0.00244 -0.0264,0.00414 -0.04007,0.0059 -0.02661,0.00341 -0.05333,0.00629 -0.08015,0.00707 0.144478,0.3219059 0.276454,0.6487007 0.396036,0.9806596 0.1197,0.3322889 0.226538,0.6696896 0.320599,1.0101259 0.107465,0.014409 0.214272,0.031816 0.320601,0.05304 0.135436,0.027034 0.270309,0.059901 0.403108,0.09783 C 16.822394,9.8570984 16.722952,9.7970386 16.618649,9.7475459 16.516412,9.6990342 16.409067,9.6604402 16.299228,9.6332145 16.219878,9.3324466 16.125714,9.0361224 16.017521,8.7444894 15.894571,8.4130785 15.753149,8.0878995 15.594376,7.7720808 Z m -0.50801,0.2640238 -0.04479,0.031824 -0.04597,0.031824 c 0.08323,0.3170112 0.164592,0.6340858 0.242808,0.9523708 0.08022,0.3264549 0.157269,0.6541275 0.232199,0.9818381 0.08952,0.0048 0.179019,0.01423 0.267559,0.02829 0.133236,0.02115 0.264178,0.05267 0.3925,0.0943 -0.07466,-0.06318 -0.157742,-0.115594 -0.247522,-0.154406 -0.08996,-0.03889 -0.186683,-0.064368 -0.284061,-0.075436 -0.07083,-0.3075165 -0.146453,-0.6135305 -0.228662,-0.9181961 -0.0879,-0.3257764 -0.183285,-0.6503805 -0.28406,-0.9724084 z m 4.641627,0.5916955 -0.149691,0.023574 c 0.104074,0.6798806 -0.0033,1.3911074 -0.304099,2.0096434 -0.197106,0.405308 -0.479933,0.767385 -0.818001,1.065524 l 0,-0.1603 0,-0.328851 -0.15087,0 0,0.328851 0,0.32885 0,0.156765 0.122582,-0.09783 c 0.412738,-0.329658 0.75082,-0.751967 0.981838,-1.227002 0.314489,-0.64668 0.427051,-1.3884078 0.318241,-2.0992233 z m -0.764959,0.2805249 -0.149693,0.014144 c 0.05763,0.6254131 -0.08142,1.2688825 -0.39132,1.8151635 -0.195574,0.344745 -0.460585,0.647882 -0.770854,0.894615 l 0,-0.173266 0,-0.328851 -0.150871,0 0,0.328851 0,0.330029 0,0.146156 0.120225,-0.08486 c 0.381273,-0.273442 0.70082,-0.630319 0.932333,-1.038415 0.325437,-0.57366 0.470694,-1.2468032 0.41018,-1.9035628 z m -0.753175,0.3689263 -0.113153,0.018858 c -0.01536,0.4767671 -0.142754,0.8524232 -0.354781,1.2187532 -0.09991,0.172616 -0.297429,0.421358 -0.473828,0.598767 -0.204428,0.205596 -0.384829,0.328881 -0.421967,0.332387 l 0,-0.160301 0,-0.298205 -0.123761,0.0023 0.0023,0.704849 c 0.344682,-0.200204 0.834312,-0.638727 1.097348,-1.079667 0.237763,-0.398571 0.378175,-0.7461569 0.387785,-1.3377988 z m -0.874577,0.3866055 c -0.189515,0.3664517 -0.424947,0.7086537 -0.700134,1.0160197 -0.172436,0.1926 -0.363917,0.367417 -0.564587,0.530405 -0.0026,-0.172662 -0.01245,-0.344945 -0.03419,-0.516261 -0.02277,-0.179555 -0.05554,-0.358244 -0.099,-0.533941 l -0.147336,0.03654 c 0.04206,0.170008 0.07462,0.342519 0.09665,0.516261 0.02758,0.217493 0.03965,0.43733 0.03536,0.656524 l -0.0035,0.155584 0.123761,-0.0943 c 0.254725,-0.193748 0.491375,-0.412192 0.704849,-0.650629 0.283717,-0.316894 0.52714,-0.670034 0.722529,-1.0478445 l -0.13437,-0.068363 z m -3.991,0.080151 0.299384,0.6694887 -0.033,-0.4526122 0.212162,-0.2168765 z m 0.85572,0.011787 -0.04007,0.8757567 0.574015,-0.604661 z m -0.338281,0.029467 -0.01768,0.113153 c 0.04913,1.351e-4 0.09905,0.00394 0.147335,0.012964 0.04784,0.00894 0.09479,0.022722 0.140263,0.040075 l 0.0082,-0.1155109 c -0.03791,-0.012186 -0.07651,-0.022647 -0.11551,-0.030645 -0.05355,-0.010982 -0.108067,-0.017149 -0.162657,-0.020037 z m 0.842755,0.3571387 -0.07661,0.09076 c 0.03126,0.02642 0.06095,0.0557 0.0884,0.08605 0.03384,0.03741 0.0647,0.07776 0.09194,0.120225 l 0.06364,-0.110795 c -0.01952,-0.03176 -0.04164,-0.06255 -0.06601,-0.09076 -0.03034,-0.03513 -0.06463,-0.06709 -0.101365,-0.09547 z m 0.287596,0.12494 -0.323233,0.541514 0.376173,-0.23551 0.241002,0.108903 z m -0.0023,0.939406 c -0.09173,0.285487 -0.279724,0.53922 -0.52569,0.710741 -0.204843,0.142846 -0.448602,0.228491 -0.697776,0.245165 l 0,0.113153 c 0.245508,0.003 0.490591,-0.07029 0.69424,-0.207447 0.288199,-0.194094 0.486957,-0.51673 0.529226,-0.861612 z m -1.343692,0.475006 -0.531582,0.518618 0.01768,0.0059 0.65888,1.512242 0.596411,0.1603 -0.24045,-0.186231 -0.258131,-0.107259 -0.59641,-1.324833 0.278167,0.0943 -0.116688,-0.239271 0.187409,-0.416073 -0.02122,0.247522 z m -0.896973,0.09901 -0.05539,0.208625 0.377177,1.758586 0.648271,0.262845 -0.189767,-0.190946 -0.34653,-0.165014 z m 1.572356,0.4809 -0.148514,0.04833 0.826253,1.047843 0.797964,0.179159 -0.335923,-0.198017 -0.380713,-0.119047 z m -0.663595,0.09665 0.755532,1.199893 0.66713,0.174445 -0.243986,-0.16973 -0.3206,-0.110796 -0.689526,-1.093812 z m -1.115029,0.471471 -0.08251,0.377177 0.01297,0.610554 0.523332,0.325315 -0.186231,-0.243986 -0.210983,-0.163836 z m -1.520492,-4.7253152 -0.0165,0 c 0.206609,0.1616692 0.392437,0.3654848 0.55162,0.5740157 0.173387,0.227138 0.315102,0.4789676 0.419609,0.7449239 l 0.01768,0.044789 0.01768,-0.044789 c 0.104507,-0.2659563 0.246222,-0.5177859 0.419609,-0.7449239 0.159183,-0.2085309 0.34501,-0.4123465 0.55162,-0.5740157 l -0.0165,0 c -0.316853,0.083819 -0.644656,0.109617 -0.972409,0.109617 -0.327751,0 -0.655555,-0.025798 -0.972407,-0.109617 z m -0.246344,-0.035361 0.111975,0.2027323 c 0.302753,0.5475983 0.555373,1.1221336 0.755532,1.7149753 0.125975,0.3731246 0.231582,0.7536586 0.314706,1.1386016 l 0.03654,0.170909 0.03654,-0.170909 c 0.08312,-0.384943 0.18873,-0.765477 0.314706,-1.1386016 0.200159,-0.5928417 0.452778,-1.167377 0.755532,-1.7149753 l 0.111959,-0.2027359 -0.169729,0.1567646 c -0.0031,0.00282 -0.0052,0.0066 -0.0083,0.00943 C 12.797118,8.4554007 12.582204,8.70033 12.3978,8.9672574 12.24026,9.1953086 12.106728,9.4398015 11.994697,9.6933238 11.882667,9.4398015 11.749135,9.1953086 11.591589,8.967259 11.407186,8.7003317 11.192273,8.4554023 10.953925,8.2353005 c -0.003,-0.00283 -0.0051,-0.00661 -0.0082,-0.00943 z m 0.298206,0.3960359 c 0.165016,0.1706201 0.321236,0.3504416 0.456147,0.545727 0.169934,0.2459829 0.313253,0.5093563 0.429039,0.7849989 l 0.03536,0.082507 0.03536,-0.082507 C 12.145891,9.5202234 12.28921,9.25685 12.459144,9.0108671 12.594055,8.8155817 12.750276,8.6357602 12.915292,8.4651401 12.664033,8.9473234 12.448022,9.4469023 12.274092,9.9620594 12.163647,10.289182 12.072554,10.622838 11.994745,10.95922 11.916938,10.622838 11.825844,10.289182 11.715399,9.9620594 11.54142,9.4469056 11.32541,8.9473267 11.07415,8.4651434 Z M 9.956789,7.6376815 10.279571,7.8723104 10.47586,8.0855197 10.332762,7.8364985 c 0.547762,0.1013012 1.104882,0.173291 1.661934,0.173291 0.557052,0 1.114172,-0.07199 1.661934,-0.173291 l -0.142888,0.2490212 0.202302,-0.20642 0.31151,-0.2436197 -0.04986,0.019938 c -0.651984,0.2042304 -1.310744,0.2674424 -1.983,0.2674424 -0.672256,0 -1.331065,-0.063212 -1.983049,-0.2674424 z M 11.646986,5.5226101 C 10.76529,5.5205567 9.883625,5.5806402 9.0102868,5.7017685 8.144855,5.8218008 7.2871486,6.0017452 6.4466651,6.2404238 6.5641802,6.1151239 6.6911452,5.9988767 6.8261989,5.8927143 6.9661733,5.7826839 7.1151235,5.683694 7.27056,5.5968665 6.5959226,5.7655777 5.9290287,5.9671491 5.2738814,6.2003493 4.6069565,6.4377412 3.9516849,6.7081717 3.3113848,7.0101 l 0.9877312,0 C 3.7571192,7.2532107 3.2378474,7.5464534 2.7503349,7.8858565 2.1054132,8.334847 1.5157227,8.86412 1,9.4570331 1.5211687,9.1504617 2.0596117,8.8733622 2.6124294,8.6284234 3.1359241,8.3964767 3.6722433,8.1929058 4.2177871,8.0190474 4.0525574,8.1529558 3.8942176,8.2952211 3.7427809,8.4445496 3.5793576,8.6056971 3.4240128,8.7751692 3.2783821,8.9525591 l 0.6624163,-0.256951 c -0.1482195,0.7443128 -0.037517,1.5376839 0.309992,2.2123759 0.1747369,0.339254 0.4074648,0.649 0.6848111,0.911117 l 0.043611,-0.370104 c 0.1186381,0.138951 0.24612,0.271296 0.3807121,0.394856 0.1335396,0.122593 0.2746642,0.236158 0.4219667,0.341816 l 0.018858,-0.780283 c 0.1149086,0.121485 0.2385447,0.23593 0.3689255,0.340637 0.1236598,0.09931 0.25351,0.189774 0.3889639,0.272274 l 0.033002,-0.767317 c 0.117013,0.117666 0.2405484,0.228691 0.3701042,0.332386 0.1339206,0.107189 0.2740911,0.206206 0.4196088,0.297026 l 0.014144,-0.797963 c 0.121769,0.126171 0.2501476,0.244398 0.3854278,0.355959 0.1287292,0.106162 0.2636802,0.205366 0.4031067,0.297027 -0.01625,-0.344043 0.00344,-0.689059 0.058934,-1.028985 0.030193,-0.18494 0.070419,-0.367766 0.1214032,-0.548084 l 0.1956606,-0.03889 -0.1544068,0.541013 0.3835612,-0.09934 -0.085356,0.120551 0.2310201,0.04714 c -0.053807,0.178635 -0.068961,0.36944 -0.041253,0.553978 0.053198,0.354306 0.265407,0.682267 0.5669433,0.875757 l -1.5381731,1.547602 1.0089473,-0.18623 -0.299384,0.452611 0.9429413,-0.266381 -0.1909457,0.409002 0.8286094,-0.29467 -0.114331,0.375998 0.88165,-0.33828 -0.12376,0.443182 0.637664,-0.328851 -0.183875,2.105117 0.690705,2.399786 0.689526,-2.399786 -0.183874,-2.105117 0.638843,0.328851 -0.123761,-0.443182 0.880472,0.33828 -0.114332,-0.375998 0.82861,0.29467 -0.189767,-0.409002 0.942941,0.266381 -0.300562,-0.452611 1.010126,0.18623 -1.538174,-1.547602 c 0.301537,-0.19349 0.512567,-0.521451 0.565765,-0.875757 0.02777,-0.184914 0.014,-0.376207 -0.04007,-0.555156 l 0.219233,-0.04597 -0.08801,-0.12429 0.397996,0.103073 -0.155585,-0.541013 0.19566,0.03889 c 0.05099,0.180318 0.09121,0.363144 0.121404,0.548084 0.05549,0.339926 0.07636,0.684942 0.06011,1.028985 0.139427,-0.09166 0.273199,-0.190865 0.401928,-0.297027 0.13528,-0.111561 0.264837,-0.229788 0.386606,-0.355959 l 0.01297,0.797963 c 0.145519,-0.09082 0.28569,-0.189837 0.41961,-0.297026 0.129556,-0.103695 0.253091,-0.21472 0.370105,-0.332386 l 0.03418,0.767317 c 0.135454,-0.0825 0.265304,-0.172965 0.388964,-0.272274 0.130381,-0.104707 0.254017,-0.219152 0.368925,-0.340637 l 0.01886,0.780283 c 0.147302,-0.105658 0.288428,-0.219223 0.421966,-0.341816 0.134593,-0.12356 0.260896,-0.255905 0.379533,-0.394856 l 0.04361,0.370104 c 0.277347,-0.262117 0.510075,-0.571863 0.684811,-0.911117 0.34751,-0.674692 0.459389,-1.4680631 0.311172,-2.212376 l 0.661237,0.2569511 C 20.575988,8.7751692 20.421821,8.6056971 20.258398,8.4445496 20.106961,8.2952211 19.947442,8.1529558 19.782213,8.0190474 20.327757,8.1929058 20.864077,8.3964767 21.38757,8.6284234 21.940388,8.8733622 22.47883,9.1504617 23,9.4570331 22.484277,8.86412 21.895766,8.334847 21.250843,7.8858565 20.763331,7.5464534 20.24406,7.2532107 19.702063,7.0101 l 0.986553,0 C 20.048316,6.7081717 19.393044,6.4377412 18.726118,6.2003493 18.070972,5.9671491 17.404077,5.7655777 16.72944,5.5968665 c 0.155437,0.086827 0.304387,0.1858174 0.444362,0.2958478 0.135053,0.1061624 0.262018,0.2224096 0.379533,0.3477095 -0.840484,-0.2386786 -1.697012,-0.418623 -2.562443,-0.5386553 -0.873338,-0.1211283 -1.755004,-0.1812121 -2.6367,-0.1791584 0.256508,0.033052 0.510952,0.076378 0.763782,0.130833 0.264394,0.056944 0.653764,0.1263506 0.932124,0.2062684 l -0.527837,0 c 0.239611,0.1435433 0.467566,0.3067282 0.680096,0.4879721 0.313628,0.2674592 0.594113,0.5730905 0.833325,0.9087599 -0.16056,0.125554 -0.329448,0.2420838 -0.504474,0.3465312 -0.193423,0.1154242 -0.39477,0.2165514 -0.602304,0.3040979 0.06059,-0.08175 0.119876,-0.1643565 0.176802,-0.2487007 0.03942,-0.058406 0.0779,-0.1172164 0.115509,-0.1768013 -0.72247,0.2082201 -1.474643,0.3140492 -2.22652,0.3135281 -0.748171,-5.388e-4 -1.495823,-0.1063339 -2.2147329,-0.3135281 0.037615,0.059585 0.076091,0.1183949 0.1155101,0.1768013 0.056925,0.084344 0.1150308,0.1669514 0.1756228,0.2487007 C 9.8635603,7.8195261 9.6622139,7.7183989 9.4687917,7.6029747 9.2937648,7.4985273 9.1260564,7.3819975 8.9654961,7.2564435 9.2047086,6.9207741 9.4851929,6.6151428 9.7988206,6.3476836 10.011351,6.1664397 10.238127,6.0032548 10.477738,5.8597115 l -0.526659,0 c 0.278361,-0.079918 0.666552,-0.1493236 0.930946,-0.2062684 0.25283,-0.054454 0.508453,-0.097781 0.76496,-0.130833 z"
     id="path4817"
     style="display:inline;opacity:0.9;fill:#000000;fill-opacity:1;fill-rule:evenodd;stroke:none" />
</svg>
