<?xml version="1.0" encoding="UTF-8" standalone="no"?>
<!-- Created with Inkscape (http://www.inkscape.org/) -->

<svg
   xmlns:dc="http://purl.org/dc/elements/1.1/"
   xmlns:cc="http://creativecommons.org/ns#"
   xmlns:rdf="http://www.w3.org/1999/02/22-rdf-syntax-ns#"
   xmlns:svg="http://www.w3.org/2000/svg"
   xmlns="http://www.w3.org/2000/svg"
   xmlns:sodipodi="http://sodipodi.sourceforge.net/DTD/sodipodi-0.dtd"
   xmlns:inkscape="http://www.inkscape.org/namespaces/inkscape"
   id="svg2860"
   version="1.1"
   inkscape:version="0.92.1 r15371"
   width="25.6"
   height="25.6"
   sodipodi:docname="xan_st_romulan.svg"
   inkscape:export-filename="D:\dev\XansSciFiMashup\raw\flags\small\xan_st_klingon.png"
   inkscape:export-xdpi="90"
   inkscape:export-ydpi="90">
  <metadata
     id="metadata2866">
    <rdf:RDF>
      <cc:Work
         rdf:about="">
        <dc:format>image/svg+xml</dc:format>
        <dc:type
           rdf:resource="http://purl.org/dc/dcmitype/StillImage" />
        <dc:title />
      </cc:Work>
    </rdf:RDF>
  </metadata>
  <defs
     id="defs2864">
    <inkscape:perspective
       sodipodi:type="inkscape:persp3d"
       inkscape:vp_x="0 : 0.53333333 : 1"
       inkscape:vp_y="0 : 1066.6667 : 0"
       inkscape:vp_z="1.0666667 : 0.53333333 : 1"
       inkscape:persp3d-origin="0.53333333 : 0.35555555 : 1"
       id="perspective2868" />
    <inkscape:perspective
       id="perspective3654"
       inkscape:persp3d-origin="0.53333333 : 0.35555555 : 1"
       inkscape:vp_z="1.0666667 : 0.53333333 : 1"
       inkscape:vp_y="0 : 1066.6667 : 0"
       inkscape:vp_x="0 : 0.53333333 : 1"
       sodipodi:type="inkscape:persp3d" />
    <inkscape:perspective
       id="perspective3676"
       inkscape:persp3d-origin="0.53333333 : 0.35555555 : 1"
       inkscape:vp_z="1.0666667 : 0.53333333 : 1"
       inkscape:vp_y="0 : 1066.6667 : 0"
       inkscape:vp_x="0 : 0.53333333 : 1"
       sodipodi:type="inkscape:persp3d" />
    <inkscape:perspective
       id="perspective3714"
       inkscape:persp3d-origin="0.53333333 : 0.35555555 : 1"
       inkscape:vp_z="1.0666667 : 0.53333333 : 1"
       inkscape:vp_y="0 : 1066.6667 : 0"
       inkscape:vp_x="0 : 0.53333333 : 1"
       sodipodi:type="inkscape:persp3d" />
    <inkscape:perspective
       id="perspective3743"
       inkscape:persp3d-origin="0.53333333 : 0.35555555 : 1"
       inkscape:vp_z="1.0666667 : 0.53333333 : 1"
       inkscape:vp_y="0 : 1066.6667 : 0"
       inkscape:vp_x="0 : 0.53333333 : 1"
       sodipodi:type="inkscape:persp3d" />
    <inkscape:perspective
       id="perspective3773"
       inkscape:persp3d-origin="0.53333333 : 0.35555555 : 1"
       inkscape:vp_z="1.0666667 : 0.53333333 : 1"
       inkscape:vp_y="0 : 1066.6667 : 0"
       inkscape:vp_x="0 : 0.53333333 : 1"
       sodipodi:type="inkscape:persp3d" />
    <inkscape:perspective
       id="perspective3795"
       inkscape:persp3d-origin="0.53333333 : 0.35555555 : 1"
       inkscape:vp_z="1.0666667 : 0.53333333 : 1"
       inkscape:vp_y="0 : 1066.6667 : 0"
       inkscape:vp_x="0 : 0.53333333 : 1"
       sodipodi:type="inkscape:persp3d" />
    <inkscape:perspective
       id="perspective3830"
       inkscape:persp3d-origin="0.53333333 : 0.35555555 : 1"
       inkscape:vp_z="1.0666667 : 0.53333333 : 1"
       inkscape:vp_y="0 : 1066.6667 : 0"
       inkscape:vp_x="0 : 0.53333333 : 1"
       sodipodi:type="inkscape:persp3d" />
    <inkscape:perspective
       id="perspective3860"
       inkscape:persp3d-origin="0.53333333 : 0.35555555 : 1"
       inkscape:vp_z="1.0666667 : 0.53333333 : 1"
       inkscape:vp_y="0 : 1066.6667 : 0"
       inkscape:vp_x="0 : 0.53333333 : 1"
       sodipodi:type="inkscape:persp3d" />
    <inkscape:perspective
       id="perspective3887"
       inkscape:persp3d-origin="0.53333333 : 0.35555555 : 1"
       inkscape:vp_z="1.0666667 : 0.53333333 : 1"
       inkscape:vp_y="0 : 1066.6667 : 0"
       inkscape:vp_x="0 : 0.53333333 : 1"
       sodipodi:type="inkscape:persp3d" />
    <inkscape:perspective
       id="perspective3913"
       inkscape:persp3d-origin="0.53333333 : 0.35555555 : 1"
       inkscape:vp_z="1.0666667 : 0.53333333 : 1"
       inkscape:vp_y="0 : 1066.6667 : 0"
       inkscape:vp_x="0 : 0.53333333 : 1"
       sodipodi:type="inkscape:persp3d" />
    <inkscape:perspective
       id="perspective3964"
       inkscape:persp3d-origin="0.53333333 : 0.35555555 : 1"
       inkscape:vp_z="1.0666667 : 0.53333333 : 1"
       inkscape:vp_y="0 : 1066.6667 : 0"
       inkscape:vp_x="0 : 0.53333333 : 1"
       sodipodi:type="inkscape:persp3d" />
  </defs>
  <sodipodi:namedview
     pagecolor="#086600"
     bordercolor="#666666"
     borderopacity="1"
     objecttolerance="10"
     gridtolerance="10"
     guidetolerance="10"
     inkscape:pageopacity="0"
     inkscape:pageshadow="2"
     inkscape:window-width="1697"
     inkscape:window-height="1057"
     id="namedview2862"
     showgrid="false"
     showguides="false"
     inkscape:zoom="22.034605"
     inkscape:cx="-0.21579112"
     inkscape:cy="13.49097"
     inkscape:window-x="-8"
     inkscape:window-y="837"
     inkscape:window-maximized="1"
     inkscape:current-layer="svg2860" />
  <path
     inkscape:connector-curvature="0"
     d="m 10.382411,10.543498 0.02853,0.624169 -0.4387007,-0.467235 0.2675007,0.09986 z M 9.5406746,11.278235 9.283606,11.394397 9.5971442,10.951829 9.941926,11.529445 Z m 2.8903224,6.78463 c -0.09331,-0.302587 -0.188823,-0.604481 -0.287911,-0.905224 l -0.0037,-0.01131 0.0013,-0.01258 c 0.07851,-0.522057 0.139862,-1.046606 0.182302,-1.572826 0.03616,-0.44841 0.07675,-0.987271 0.08926,-1.450871 -0.09371,-0.610738 -0.242093,-1.240439 -0.40735,-1.82302 l 0.04023,-0.08299 c 0.0035,-0.0066 0.0066,-0.0134 0.01013,-0.02012 l 0.01509,-0.03268 c 0.251027,-0.546297 0.01923,-1.194244 -0.536849,-1.468473 -0.04323,-0.02132 -0.127871,-0.05824 -0.173501,-0.07418 l 0.05784,-0.135784 c 0.01361,0.0047 0.02679,0.0099 0.04023,0.01509 C 11.167232,10.047891 10.82767,9.6397533 10.447058,9.2746512 9.8988139,8.7487483 9.2660012,8.3112234 8.5800346,7.9847076 l -0.104352,-0.050291 0.074178,-0.08675 C 8.7471339,7.615546 8.9536766,7.3910839 9.1671731,7.173778 9.3650129,6.9724078 9.8196883,6.5501794 9.8196883,6.5501794 c 0,0 -1.0901335,0.1272826 -1.6231164,0.2539656 C 7.8079673,6.8965108 7.3893171,6.9795309 7.0046939,7.0895414 6.1227047,7.3418109 5.284886,7.6412838 4.4398938,7.994765 3.2211931,8.5045792 1.7957851,9.4700778 1.4526554,9.7385786 1.8042509,9.4348057 2.9722147,8.4769411 4.3544001,7.8728115 5.5613755,7.3452641 6.8449914,6.9555214 8.1362236,6.667104 8.8371449,6.5105421 9.9097311,6.3797981 10.2723,6.3854789 L 10.150347,6.5036606 C 9.8524197,6.7549303 9.5660422,7.0189707 9.292898,7.2969889 9.111869,7.4812493 8.9402444,7.6740995 8.7711375,7.8690402 c -0.00491,0.00556 -0.0029,0.015615 0.00377,0.018859 0.6566687,0.3276784 1.2645155,0.7517644 1.7941035,1.2597698 0.467197,0.4481581 0.874129,0.958462 1.206965,1.513734 0.523952,0.381305 0.690808,1.070544 0.401065,1.634433 0.181293,0.66431 0.375511,1.478951 0.480272,2.118474 0.102773,0.627397 0.137032,0.631403 0.137041,1.548564 9e-6,-0.917161 0.03427,-0.921167 0.137044,-1.548564 0.104757,-0.639523 0.298977,-1.454164 0.480271,-2.118474 -0.289743,-0.563889 -0.122889,-1.253128 0.401066,-1.634433 0.332835,-0.555272 0.739765,-1.0655759 1.206964,-1.513734 0.529587,-0.5080054 1.137433,-0.9320914 1.794103,-1.2597698 0.0066,-0.00324 0.0086,-0.013301 0.0037,-0.018859 C 16.648464,7.6740995 16.476838,7.4812493 16.295809,7.2969889 16.022666,7.0189707 15.736288,6.7549303 15.438362,6.5036606 L 15.316407,6.3854789 c 0.36257,-0.00567 1.435156,0.1250632 2.136077,0.2816251 1.291232,0.2884174 2.57485,0.6781601 3.781823,1.2057075 1.382186,0.6041296 2.55015,1.5619942 2.901745,1.8657671 C 23.792923,9.4700778 22.367516,8.5045792 21.148814,7.994765 20.303822,7.6412838 19.466004,7.3418109 18.584014,7.0895414 18.199391,6.9795309 17.780741,6.8965108 17.392137,6.804145 16.859153,6.677462 15.769021,6.5501794 15.769021,6.5501794 c 0,0 0.454675,0.4222284 0.652515,0.6235986 0.213495,0.2173059 0.420038,0.441768 0.617311,0.6738888 l 0.07418,0.08675 -0.104352,0.05029 c -0.685967,0.3265157 -1.318779,0.7640406 -1.867025,1.2899435 -0.380611,0.3651021 -0.720173,0.7732397 -1.010834,1.2132517 0.01344,-0.0052 0.02662,-0.01036 0.04023,-0.01509 l 0.05783,0.135784 c -0.04563,0.01594 -0.130268,0.05286 -0.173502,0.07418 -0.556077,0.27423 -0.787876,0.922177 -0.536847,1.468476 l 0.01508,0.03268 c 0.0033,0.0067 0.0065,0.01342 0.01013,0.02012 l 0.04023,0.08299 c -0.165259,0.582582 -0.313641,1.212282 -0.40735,1.823019 0.01251,0.4636 0.0531,1.002462 0.08926,1.450871 0.04244,0.52622 0.103787,1.05077 0.182301,1.572827 l 0.0013,0.01258 -0.0037,0.01131 c -0.09909,0.300744 -0.194599,0.602638 -0.287912,0.905224 -0.108744,0.352629 -0.262496,0.919892 -0.363346,1.274857 -0.100853,-0.354967 -0.254603,-0.922228 -0.363347,-1.274857 z m 0.629885,-0.03018 c 0.09248,-0.299902 0.188507,-0.598326 0.286654,-0.896422 -0.07795,-0.52022 -0.138758,-1.042217 -0.181044,-1.566541 -0.02537,-0.314587 -0.04405,-0.629965 -0.05658,-0.945455 -0.166864,1.493672 -0.315571,4.086078 -0.315571,4.086078 0,0 -0.148708,-2.592406 -0.315572,-4.086078 -0.01252,0.31549 -0.03121,0.630868 -0.05658,0.945455 -0.04229,0.524324 -0.103093,1.046321 -0.181044,1.566541 0.09814,0.298096 0.19417,0.59652 0.286655,0.896422 0.0886,0.287307 0.183344,0.646518 0.266538,0.935398 0.0832,-0.28888 0.177937,-0.648091 0.266538,-0.935398 z M 9.4638746,6.6507596 c 0.019378,4.359e-4 0.038486,0.00135 0.057834,0.00251 C 8.867632,7.0906768 8.2752049,7.6194508 7.7665803,8.2198149 7.3953765,8.6579726 7.0685812,9.1339299 6.793465,9.6379989 6.6606249,9.6578769 6.5293951,9.6864006 6.3999443,9.7222351 6.2203101,9.7719613 6.0444086,9.8366829 5.8756689,9.9158522 6.0162238,9.8010353 6.1700682,9.7022289 6.3333098,9.6229118 6.4434352,9.5694033 6.5581468,9.5252796 6.6752832,9.4896429 7.0224084,8.824119 7.4717347,8.2120258 8.0029444,7.68171 8.391072,7.2942354 8.8223358,6.9502567 9.2866017,6.6583038 c 0.039418,-0.00397 0.078571,-0.00677 0.1181824,-0.00754 0.019378,-3.568e-4 0.039713,-4.362e-4 0.05909,0 z M 8.8377617,6.7525968 C 8.3752929,7.030783 7.9373227,7.3489733 7.5289591,7.7018244 7.0157466,8.1452735 6.5502596,8.6439179 6.1434639,9.1866433 5.9630945,9.2224573 5.7839619,9.2669162 5.6078733,9.3199121 5.3667388,9.3924853 5.1307899,9.4815348 4.9012957,9.585193 5.0501962,9.473959 5.2085948,9.3744586 5.3740239,9.2897383 5.5756197,9.1864967 5.7880256,9.1045929 6.0064229,9.0445731 6.3877381,8.5353747 6.8247092,8.0670268 7.3064251,7.6515344 7.6741654,7.3343494 8.067082,7.0477652 8.4819587,6.7953437 c 0.035217,-0.00944 0.070963,-0.01753 0.1068666,-0.023888 0.082126,-0.014544 0.1655554,-0.020793 0.2489364,-0.018859 z M 7.8269286,6.9713595 C 7.6166715,7.0694132 7.4127156,7.1804461 7.2159025,7.3032748 6.7600597,7.5877615 6.347093,7.9350907 5.9460748,8.2927345 5.7641006,8.4550269 5.5842695,8.6197232 5.4067126,8.7868363 5.1844612,8.8456435 4.9630865,8.9103391 4.744139,8.9804537 4.4582973,9.0719905 4.1758316,9.1730106 3.8967488,9.2834521 4.1020461,9.1319893 4.3227325,9.0007883 4.5542931,8.8937028 4.8032117,8.7785903 5.0646318,8.6908404 5.3325342,8.632194 5.5097552,8.4480271 5.6952827,8.2719318 5.8869842,8.1028892 6.169999,7.8533258 6.4674279,7.6206816 6.7771207,7.4051129 6.9359459,7.2945587 7.0977091,7.1886035 7.2624212,7.0870271 7.3420988,7.0632613 7.4225426,7.0417206 7.5038145,7.0241646 7.6105886,7.0010994 7.7183683,6.9835058 7.8269286,6.9713595 Z M 5.8014905,7.5547261 C 5.5524668,7.6873897 5.3088369,7.8303425 5.0710254,7.9821926 4.8506163,8.1229314 4.6356084,8.270819 4.4260533,8.4272611 4.0453572,8.5646786 3.6688917,8.7137788 3.2970385,8.8735871 2.9186643,9.0361972 2.5446679,9.2101452 2.176824,9.3953477 2.5804727,9.0981523 3.0024567,8.8255458 3.4391086,8.5793889 4.188272,8.157058 4.9812191,7.8131139 5.8014905,7.5547261 Z m 2.6238914,0.4362676 c 0.015367,0.010914 0.030912,0.022119 0.046518,0.032688 0.018354,0.01243 0.036646,0.024515 0.055319,0.03646 C 8.3560853,8.343106 8.1965602,8.6327353 8.0494625,8.9289063 7.8651092,9.3000905 7.7001959,9.6809229 7.5553617,10.069236 7.3945196,10.106027 7.2355466,10.1508 7.0788622,10.202505 6.9402224,10.248257 6.8033617,10.300052 6.6689964,10.357148 6.788714,10.255131 6.9226217,10.168701 7.065032,10.101925 7.1870795,10.044697 7.3153841,10.001706 7.4472374,9.9736852 7.5696914,9.6170649 7.7157662,9.267856 7.8835049,8.9301633 8.0444501,8.6061482 8.2253004,8.2924179 8.4253819,7.9909937 Z m 0.5293044,0.2992266 c 0.014479,0.0026 0.028156,0.00443 0.042747,0.00629 0.028383,0.00364 0.056891,0.00671 0.085493,0.00754 -0.1541098,0.343365 -0.294883,0.6919461 -0.4224374,1.0460355 -0.1276813,0.3544415 -0.2416412,0.7143352 -0.3419736,1.0774672 -0.1146294,0.01537 -0.2285554,0.03394 -0.3419734,0.05658 -0.1444653,0.02884 -0.2883307,0.06389 -0.4299813,0.104352 0.098246,-0.07425 0.2043155,-0.138311 0.3155709,-0.191103 0.1090534,-0.05175 0.2235547,-0.09291 0.3407164,-0.121954 0.084637,-0.3208153 0.1850785,-0.6368944 0.3004844,-0.9479696 0.131146,-0.353505 0.281997,-0.7003626 0.451354,-1.0372351 z m 0.541877,0.2816254 0.047776,0.033946 0.049032,0.033946 C 9.5045951,8.9778826 9.4178084,9.3160955 9.3343775,9.6555995 9.2488052,10.003818 9.1666243,10.353335 9.0866981,10.702893 c -0.095489,0.0051 -0.1909531,0.01519 -0.285397,0.03018 -0.1421184,0.02256 -0.2817894,0.05618 -0.4186654,0.100586 0.079641,-0.06739 0.168257,-0.1233 0.2640229,-0.164698 0.095956,-0.04149 0.1991295,-0.06867 0.3029986,-0.08047 C 9.0252145,10.260476 9.1058761,9.9340614 9.1935646,9.6090848 9.2873299,9.26159 9.3890697,8.9153456 9.4965633,8.5718492 Z m -4.9510704,0.6311418 0.1596714,0.025146 c -0.1110118,0.725206 0.00352,1.4838475 0.324372,2.1436195 0.2102478,0.432328 0.5119294,0.818545 0.8725352,1.136558 V 12.337325 11.98655 h 0.1609283 v 0.350775 0.350774 0.167215 L 5.9322452,12.750962 C 5.4919917,12.399327 5.1313694,11.948863 4.8849514,11.442159 4.5494962,10.752368 4.4294303,9.9611907 4.5454929,9.2029875 Z M 5.3614516,9.5022141 5.521123,9.517301 c -0.061469,0.667107 0.086844,1.353474 0.4174082,1.936174 0.2086123,0.367728 0.4912899,0.691074 0.822245,0.954256 v -0.184817 -0.350773 h 0.1609287 v 0.350773 0.352031 0.155901 L 6.793465,12.640318 C 6.3867731,12.348653 6.0459227,11.967983 5.7989762,11.532683 5.4518433,10.920778 5.2969024,10.202758 5.3614516,9.5022141 Z m 0.8033857,0.3935214 0.1206967,0.020115 c 0.016385,0.5085515 0.1522702,0.9092515 0.3784334,1.3000035 0.1065706,0.184124 0.3172568,0.449448 0.5054168,0.638685 0.2180557,0.219302 0.4104836,0.350807 0.4500971,0.354546 v -0.170988 -0.318084 l 0.1320118,0.0025 -0.00251,0.751839 C 7.3813172,12.260817 6.8590458,11.793058 6.578473,11.322722 6.3248597,10.89758 6.1750864,10.526822 6.1648358,9.895737 Z m 0.9328833,0.4123795 c 0.2021489,0.390881 0.4532758,0.755897 0.7468095,1.083754 0.1839318,0.20544 0.388178,0.391911 0.6022251,0.565765 0.00278,-0.184173 0.01329,-0.367941 0.036462,-0.550677 0.024286,-0.191527 0.059247,-0.382128 0.1056085,-0.569538 l 0.1571566,0.03898 c -0.044862,0.18134 -0.079595,0.365353 -0.1030944,0.550677 -0.029418,0.231993 -0.042292,0.466486 -0.037718,0.700292 l 0.00377,0.165957 -0.1320118,-0.100587 C 8.2052207,11.986076 7.952795,11.753069 7.7250891,11.498736 7.4224574,11.160716 7.1628061,10.784033 6.9543914,10.381036 l 0.1433271,-0.07292 z m 4.2570664,0.08549 -0.319343,0.714121 0.0352,-0.482786 -0.226306,-0.231335 z m -0.912767,0.01257 0.04275,0.93414 -0.6122834,-0.644972 z m 0.360832,0.03143 0.01886,0.120697 c -0.05241,1.44e-4 -0.105653,0.0042 -0.157156,0.01383 -0.05103,0.0095 -0.101111,0.02424 -0.149614,0.04275 l -0.0088,-0.123212 c 0.04043,-0.013 0.08161,-0.02416 0.123211,-0.03269 0.05712,-0.01171 0.115273,-0.01829 0.173501,-0.02137 z m -0.8989379,0.380949 0.081723,0.09681 c -0.03334,0.02818 -0.065012,0.05941 -0.094294,0.09179 -0.036099,0.0399 -0.069011,0.08294 -0.098066,0.12824 L 9.725384,11.017217 c 0.020815,-0.03388 0.044421,-0.06672 0.070406,-0.09681 0.03236,-0.03747 0.068938,-0.07156 0.1081236,-0.101834 z m -0.3042558,1.135301 c 0.097852,0.30452 0.2983725,0.575168 0.5607367,0.758125 0.218499,0.152368 0.478508,0.243723 0.744294,0.261508 v 0.120697 c -0.261875,0.0032 -0.523297,-0.07498 -0.740523,-0.221277 C 9.8567545,12.665883 9.644745,12.321737 9.5996583,11.953862 Z m 1.4332707,0.506675 0.567023,0.553191 -0.01886,0.0063 -0.702805,1.613058 -0.636172,0.170988 0.256481,-0.198646 0.275339,-0.114411 0.636171,-1.413155 -0.296713,0.100587 0.124469,-0.255223 -0.199905,-0.443811 0.02264,0.264023 z m 0.956772,0.10561 0.05908,0.222535 -0.402321,1.875825 -0.691491,0.280367 0.202418,-0.203675 0.369634,-0.176016 z m -1.677179,0.51296 0.158414,0.05155 -0.8813359,1.117699 -0.8511615,0.191103 0.3583178,-0.211218 0.4060929,-0.126983 z m 0.707835,0.103094 -0.805901,1.279886 -0.7116067,0.186074 0.2602525,-0.181045 0.3419732,-0.118182 0.735495,-1.166733 z m 1.189364,0.502902 0.08801,0.402322 -0.01383,0.651259 -0.558222,0.347001 0.198646,-0.260251 0.22505,-0.174759 z m 2.996556,-3.141605 -0.02853,0.62417 0.438701,-0.467235 -0.267501,0.09986 z m 0.918536,-3.8927419 c -0.01938,4.36e-4 -0.0385,0.00135 -0.05784,0.00251 0.654077,0.437402 1.246504,0.966176 1.755128,1.5665403 0.371204,0.4381575 0.698,0.914115 0.973115,1.4181841 0.132841,0.019877 0.264071,0.048402 0.393521,0.084236 0.179633,0.049726 0.355536,0.1144478 0.524276,0.1936172 C 19.572464,9.8010351 19.41862,9.7022287 19.255377,9.6229116 19.145252,9.5694031 19.030541,9.5252794 18.913404,9.4896427 18.566279,8.8241188 18.116951,8.2120256 17.585743,7.6817098 17.197615,7.2942352 16.766352,6.9502565 16.302085,6.6583036 c -0.03941,-0.00397 -0.07857,-0.00677 -0.118182,-0.00754 -0.01938,-3.568e-4 -0.03971,-4.361e-4 -0.05909,0 z m 0.626113,0.1018368 c 0.462469,0.2781862 0.900438,0.5963765 1.308802,0.9492277 0.513214,0.4434489 0.9787,0.9420933 1.385495,1.4848187 0.18037,0.035814 0.359502,0.080272 0.535591,0.1332688 0.241134,0.072573 0.477084,0.1616228 0.706578,0.2652809 C 20.538492,9.4739588 20.380093,9.3744583 20.214665,9.2897381 20.013067,9.1864965 19.800661,9.1045926 19.582265,9.0445729 19.200949,8.5353746 18.763979,8.0670266 18.282261,7.6515342 17.914522,7.3343493 17.521605,7.0477651 17.106729,6.7953435 c -0.03522,-0.00944 -0.07097,-0.01753 -0.106861,-0.023888 -0.08212,-0.014544 -0.165557,-0.020793 -0.248938,-0.018859 z m 1.010833,0.2187626 c 0.210257,0.098054 0.414213,0.2090866 0.611026,0.3319152 0.455843,0.2844868 0.86881,0.631816 1.269827,0.9894599 0.181976,0.1622924 0.361806,0.3269885 0.539361,0.4941017 0.222253,0.058806 0.443629,0.1235028 0.662576,0.1936174 0.285841,0.091537 0.568306,0.1925569 0.847389,0.3029984 C 21.486642,9.1319891 21.265954,9.0007882 21.034393,8.8937026 20.785476,8.7785901 20.524057,8.6908402 20.256155,8.6321938 20.078932,8.4480269 19.893405,8.2719316 19.701703,8.102889 19.418689,7.8533255 19.12126,7.6206814 18.811567,7.4051126 18.652742,7.2945585 18.490979,7.1886033 18.326267,7.0870269 18.246587,7.0632615 18.166146,7.0417202 18.084874,7.0241639 17.978099,7.0010983 17.870319,6.9835047 17.761759,6.9713586 Z m 2.025438,0.5833666 c 0.249024,0.1326636 0.492654,0.2756165 0.730466,0.4274665 0.220407,0.1407388 0.435416,0.2886263 0.644972,0.4450687 0.380695,0.1374174 0.757159,0.2865175 1.129013,0.4463258 0.378375,0.1626102 0.75237,0.3365582 1.120215,0.5217606 C 23.008214,9.0981521 22.586231,8.8255457 22.149578,8.5793887 21.400415,8.1570578 20.607469,7.8131137 19.787197,7.5547259 Z m -2.623891,0.4362676 c -0.01537,0.010915 -0.03091,0.022119 -0.04652,0.032688 -0.01835,0.01243 -0.03665,0.024515 -0.05532,0.03646 0.171135,0.2829636 0.330659,0.5725928 0.477757,0.8687639 0.184353,0.3711841 0.349267,0.7520166 0.494101,1.1403294 0.160842,0.03679 0.319814,0.08156 0.476499,0.133269 0.138639,0.04575 0.275501,0.09755 0.409866,0.154643 C 18.799972,10.255131 18.666066,10.168701 18.523655,10.101925 18.401607,10.044697 18.273303,10.001706 18.14145,9.973685 18.018995,9.6170646 17.872922,9.2678558 17.705182,8.9301632 17.544237,8.6061479 17.363387,8.2924178 17.163306,7.9909935 Z m -0.529305,0.2992304 c -0.01448,0.0026 -0.02816,0.00442 -0.04274,0.00629 -0.02838,0.00364 -0.05689,0.00671 -0.08549,0.00754 0.15411,0.3433663 0.294885,0.6919474 0.422439,1.0460369 0.12768,0.3544415 0.24164,0.714335 0.341972,1.077467 0.114629,0.01537 0.228557,0.03394 0.341974,0.05658 0.144466,0.02884 0.28833,0.0639 0.429982,0.104352 -0.09825,-0.07425 -0.204318,-0.138312 -0.315574,-0.191105 -0.109053,-0.05175 -0.223554,-0.09291 -0.340716,-0.121953 C 17.301203,9.9546097 17.200762,9.6385306 17.085356,9.3274554 16.954209,8.9739504 16.803359,8.6270928 16.634001,8.2902201 Z m -0.541877,0.2816253 -0.04778,0.033946 -0.04903,0.033946 c 0.08878,0.3381453 0.175565,0.6763582 0.258995,1.0158622 0.08557,0.3482184 0.167754,0.6977364 0.247679,1.0472944 0.09549,0.0051 0.190954,0.01518 0.285396,0.03018 0.142119,0.02256 0.28179,0.05618 0.418667,0.100586 -0.07964,-0.06739 -0.168258,-0.1233 -0.264023,-0.164699 -0.09596,-0.04148 -0.199129,-0.06866 -0.302999,-0.08047 C 16.563476,10.260473 16.482812,9.9340581 16.395122,9.6090815 16.301362,9.2615867 16.199618,8.9153423 16.092125,8.5718459 Z m 4.951069,0.6311419 -0.159671,0.025146 c 0.111012,0.725206 -0.0035,1.4838477 -0.324372,2.1436197 -0.210247,0.432328 -0.511929,0.818544 -0.872535,1.136558 V 12.337325 11.98655 h -0.160928 v 0.350775 0.350773 0.167216 l 0.130755,-0.104352 c 0.440253,-0.351635 0.800874,-0.802098 1.047293,-1.308802 0.335455,-0.689792 0.455522,-1.4809683 0.339458,-2.2391715 z m -0.815957,0.2992266 -0.159672,0.015087 c 0.06147,0.6671071 -0.08685,1.3534741 -0.417408,1.9361741 -0.208613,0.367728 -0.491291,0.691074 -0.822245,0.954256 v -0.18481 -0.350774 h -0.160929 v 0.350774 0.352031 0.1559 l 0.12824,-0.09052 c 0.406692,-0.291671 0.747542,-0.67234 0.994489,-1.107642 0.347133,-0.611904 0.502074,-1.329924 0.437525,-2.0304672 z m -0.803386,0.3935214 -0.120697,0.020115 c -0.01638,0.5085517 -0.152271,0.9092517 -0.378433,1.3000037 -0.106571,0.184124 -0.317258,0.449448 -0.505417,0.638685 -0.218056,0.219302 -0.410484,0.350806 -0.450098,0.354546 V 12.03809 11.720005 l -0.132011,0.0025 0.0025,0.751839 c 0.367661,-0.213551 0.889933,-0.681309 1.170504,-1.151645 0.253614,-0.425142 0.403387,-0.7959 0.413638,-1.4269854 z m -0.932883,0.4123787 c -0.202149,0.390882 -0.453276,0.755898 -0.746809,1.083755 -0.183932,0.20544 -0.388178,0.391911 -0.602226,0.565765 -0.0028,-0.184173 -0.01328,-0.367941 -0.03647,-0.550678 -0.02429,-0.191526 -0.05924,-0.382127 -0.1056,-0.569537 l -0.157158,0.03898 c 0.04486,0.181342 0.07959,0.365353 0.103093,0.550678 0.02942,0.231993 0.04229,0.466485 0.03772,0.700292 l -0.0037,0.165957 0.132012,-0.100587 c 0.271707,-0.206665 0.524133,-0.439672 0.751839,-0.694004 0.302631,-0.338021 0.562283,-0.714703 0.770698,-1.117701 l -0.143328,-0.07292 z m -4.257066,0.08549 0.319343,0.714121 -0.0352,-0.482786 0.226306,-0.231335 z m 0.912768,0.01257 -0.04274,0.93414 0.612283,-0.644972 z m -0.360833,0.03143 -0.01886,0.120697 c 0.0524,1.44e-4 0.105653,0.0042 0.157157,0.01383 0.05103,0.0095 0.10111,0.02424 0.149614,0.04275 l 0.0087,-0.123212 c -0.04044,-0.013 -0.08161,-0.02416 -0.123211,-0.03269 -0.05712,-0.01171 -0.115271,-0.01829 -0.173501,-0.02137 z m 0.898938,0.380948 -0.08172,0.09681 c 0.03334,0.02818 0.06501,0.05941 0.09429,0.09179 0.0361,0.0399 0.06901,0.08294 0.09807,0.12824 l 0.06788,-0.118181 c -0.02082,-0.03388 -0.04442,-0.06672 -0.07041,-0.09681 -0.03236,-0.03747 -0.06894,-0.07156 -0.108123,-0.101834 z m 0.306769,0.133269 -0.344781,0.577615 0.401251,-0.25121 0.257069,0.116163 z m -0.0025,1.002033 c -0.09784,0.30452 -0.298372,0.575168 -0.560736,0.758124 -0.218499,0.152369 -0.478509,0.243724 -0.744294,0.26151 v 0.120696 c 0.261875,0.0032 0.523297,-0.07498 0.740522,-0.221277 0.307413,-0.207033 0.519421,-0.551178 0.564508,-0.919053 z m -1.433271,0.506674 -0.567021,0.553192 0.01886,0.0063 0.702805,1.613059 0.636172,0.170986 -0.25648,-0.198646 -0.27534,-0.11441 -0.636171,-1.413155 0.296712,0.100587 -0.124468,-0.255223 0.199903,-0.443811 -0.02263,0.264024 z m -0.956772,0.10561 -0.05908,0.222534 0.402322,1.875825 0.691489,0.280368 -0.202418,-0.203676 -0.369632,-0.176015 z m 1.67718,0.51296 -0.158415,0.05155 0.881337,1.117699 0.851161,0.191103 -0.358317,-0.211218 -0.406094,-0.126983 z m -0.707834,0.103094 0.8059,1.279885 0.711606,0.186075 L 15.8256,14.4671 15.483627,14.348917 14.748132,13.182185 Z m -1.189365,0.502902 -0.08801,0.402322 0.01383,0.651258 0.558221,0.347002 -0.198646,-0.260251 -0.225049,-0.174759 z M 11.75717,8.6447667 h -0.0176 c 0.220383,0.1724472 0.4186,0.3898505 0.588395,0.6122834 0.184946,0.2422806 0.336109,0.5108988 0.447583,0.7945859 l 0.01886,0.04777 0.01886,-0.04777 c 0.111474,-0.2836871 0.262637,-0.5523053 0.447583,-0.7945859 0.169795,-0.2224329 0.368011,-0.4398362 0.588395,-0.6122834 h -0.0176 c -0.337977,0.089407 -0.687633,0.1169248 -1.037237,0.1169248 -0.349601,0 -0.699258,-0.027518 -1.037234,-0.1169248 z m -0.262767,-0.037718 0.11944,0.2162478 c 0.322937,0.5841049 0.592398,1.1969425 0.805901,1.8293065 0.134373,0.398 0.247021,0.803903 0.335686,1.214508 l 0.03898,0.182303 0.03898,-0.182303 c 0.08866,-0.410605 0.201312,-0.816508 0.335687,-1.214508 0.213503,-0.632364 0.482963,-1.2452016 0.805901,-1.8293065 l 0.119423,-0.2162516 -0.181045,0.1672156 c -0.0033,0.00301 -0.0055,0.00704 -0.0089,0.010059 C 13.650259,9.0190941 13.421018,9.280352 13.22432,9.5650746 13.056277,9.8083292 12.913843,10.069122 12.794343,10.339545 12.674845,10.069122 12.532411,9.8083292 12.364362,9.5650763 12.167665,9.2803538 11.938425,9.0190958 11.684187,8.7843205 c -0.0032,-0.00302 -0.0054,-0.00705 -0.0087,-0.010059 z M 11.81249,9.029487 c 0.176017,0.1819948 0.342651,0.3738044 0.486556,0.5821088 0.181263,0.2623818 0.334137,0.5433132 0.457642,0.8373322 l 0.03772,0.08801 0.03772,-0.08801 c 0.123494,-0.294023 0.276368,-0.5749543 0.457631,-0.837336 0.143905,-0.2083045 0.31054,-0.4001141 0.486557,-0.5821088 -0.268009,0.5143288 -0.498421,1.0472128 -0.683946,1.5967138 -0.117808,0.34893 -0.214974,0.70483 -0.29797,1.063638 -0.08299,-0.358808 -0.180161,-0.714708 -0.297969,-1.063638 -0.185578,-0.549498 -0.415989,-1.0823815 -0.683999,-1.5967103 z m -1.191915,-0.8826263 0.344301,0.2502708 0.209375,0.2274232 -0.152638,-0.2656226 c 0.584279,0.1080546 1.178541,0.1848438 1.772729,0.1848438 0.594189,0 1.188451,-0.076789 1.77273,-0.1848438 l -0.152414,0.2656226 0.215789,-0.2201813 0.332277,-0.259861 -0.05318,0.021267 c -0.695449,0.2178458 -1.398127,0.2852719 -2.1152,0.2852719 -0.717073,0 -1.419802,-0.067426 -2.115252,-0.2852719 z M 12.423452,5.8907841 C 11.482976,5.8885938 10.542533,5.9526829 9.6109726,6.0818864 8.6878453,6.2099209 7.7729585,6.4018615 6.8764428,6.6564521 7.0017922,6.5227988 7.1372215,6.3988018 7.2812788,6.2855619 7.4305849,6.1681962 7.5894651,6.0626069 7.755264,5.9699909 7.0356508,6.1499495 6.3242973,6.364959 5.6254735,6.6137059 4.9140869,6.8669239 4.2151306,7.1553831 3.5321438,7.47744 H 4.5857237 C 4.0075938,7.7367581 3.4537039,8.0495503 2.9336906,8.4115803 2.2457741,8.8905035 1.6167709,9.4550613 1.0666667,10.087502 1.6225799,9.7604925 2.1969191,9.4649197 2.7865914,9.2036516 3.3449857,8.9562418 3.9170595,8.7390995 4.4989729,8.5536506 4.3227279,8.6964862 4.1538321,8.8482358 3.9922996,9.0075196 3.8179814,9.1794102 3.6522803,9.3601805 3.4969409,9.5493964 L 4.2035183,9.2753153 c -0.1581008,0.7939337 -0.040018,1.6401957 0.3306581,2.3598677 0.1863861,0.361871 0.4346291,0.692267 0.7304652,0.971858 L 5.31116,12.212263 c 0.1265473,0.148215 0.262528,0.289383 0.4060929,0.42118 0.1424422,0.130766 0.2929752,0.251902 0.4500978,0.364604 l 0.020115,-0.832302 c 0.1225692,0.129584 0.2544477,0.251659 0.3935206,0.363346 0.1319037,0.105931 0.2704106,0.202426 0.4148948,0.290426 l 0.035202,-0.818472 c 0.1248139,0.125511 0.256585,0.243937 0.3947778,0.354545 0.1428487,0.114335 0.2923639,0.219953 0.4475827,0.316828 l 0.015087,-0.85116 c 0.1298869,0.134582 0.2668241,0.260691 0.411123,0.379689 0.1373111,0.11324 0.2812588,0.219057 0.4299804,0.316829 -0.017333,-0.366979 0.00367,-0.734996 0.062863,-1.097584 0.032206,-0.197269 0.075114,-0.392284 0.1294967,-0.584623 l 0.2087047,-0.04148 -0.1647006,0.577081 0.4091319,-0.105963 -0.091046,0.128588 0.2464215,0.05028 c -0.057394,0.190544 -0.073558,0.394069 -0.044003,0.59091 0.056744,0.377926 0.2831008,0.727751 0.6047388,0.93414 l -1.6407173,1.650776 1.0762105,-0.198646 -0.319343,0.482786 1.0058038,-0.28414 -0.203675,0.436269 0.88385,-0.314315 -0.121953,0.401064 0.940426,-0.360832 -0.13201,0.472728 0.680174,-0.350774 -0.196133,2.245458 0.736752,2.559771 0.735495,-2.559771 -0.196133,-2.245458 0.681433,0.350774 -0.132012,-0.472728 0.93917,0.360832 -0.121954,-0.401064 0.883851,0.314315 -0.202418,-0.436269 1.005803,0.28414 -0.320599,-0.482786 1.077468,0.198646 -1.640719,-1.650776 c 0.321639,-0.206389 0.546738,-0.556214 0.603482,-0.93414 0.02962,-0.197242 0.01493,-0.401288 -0.04274,-0.592167 l 0.233849,-0.04903 -0.09388,-0.132576 0.424529,0.109945 -0.165957,-0.577081 0.208704,0.04148 c 0.05439,0.192339 0.09729,0.387354 0.129498,0.584623 0.05919,0.362588 0.08145,0.730605 0.06412,1.097584 0.148722,-0.09777 0.291412,-0.203589 0.428723,-0.316829 0.144299,-0.118998 0.282493,-0.245107 0.41238,-0.379689 l 0.01383,0.85116 c 0.155221,-0.09687 0.304736,-0.202493 0.447584,-0.316828 0.138194,-0.110608 0.269964,-0.229034 0.394779,-0.354545 l 0.03646,0.818472 c 0.144484,-0.088 0.282991,-0.184496 0.414895,-0.290426 0.139073,-0.111687 0.270951,-0.233762 0.39352,-0.363346 l 0.02012,0.832302 c 0.157122,-0.112702 0.307657,-0.233838 0.450097,-0.364604 0.143566,-0.131797 0.278289,-0.272965 0.404835,-0.421179 l 0.04652,0.394777 c 0.295836,-0.279591 0.54408,-0.609987 0.730465,-0.971858 0.370677,-0.719671 0.490015,-1.565934 0.331917,-2.3598677 L 22.10306,9.5493834 C 21.947721,9.3601805 21.783276,9.1794102 21.608958,9.0075196 21.447425,8.8482358 21.277271,8.6964862 21.101027,8.5536506 c 0.581914,0.1854489 1.153988,0.4025912 1.712381,0.650001 0.589673,0.2612681 1.164011,0.5568409 1.719925,0.8838504 C 23.983229,9.4550613 23.355484,8.8905035 22.667566,8.4115803 22.147553,8.0495503 21.593664,7.7367581 21.015534,7.47744 h 1.052323 C 21.38487,7.1553831 20.685914,6.8669239 19.974526,6.6137059 19.275703,6.364959 18.564349,6.1499495 17.844736,5.9699909 c 0.165799,0.092615 0.324679,0.1982053 0.473986,0.315571 0.144057,0.1132399 0.279486,0.2372369 0.404835,0.3708902 C 17.827041,6.4018615 16.913411,6.2099209 15.990285,6.0818864 15.058724,5.9526829 14.118281,5.8885935 13.177805,5.8907841 c 0.273608,0.035255 0.545015,0.08147 0.814701,0.1395552 0.28202,0.06074 0.697348,0.134774 0.994265,0.2200196 h -0.563026 c 0.255585,0.1531129 0.498737,0.3271768 0.725436,0.5205036 0.334536,0.2852898 0.63372,0.6112965 0.88888,0.9693439 -0.171264,0.1339243 -0.351411,0.2582227 -0.538106,0.3696333 -0.206318,0.1231191 -0.421088,0.2309881 -0.642457,0.3243711 0.06463,-0.0872 0.127867,-0.1753136 0.188588,-0.2652808 0.04205,-0.0623 0.08309,-0.1250308 0.12321,-0.188588 -0.770635,0.2221014 -1.572953,0.3349858 -2.374955,0.3344299 -0.798049,-5.747e-4 -1.595544,-0.1134228 -2.362381,-0.3344299 0.04012,0.063557 0.08116,0.1262879 0.12321,0.188588 0.06072,0.089967 0.1227,0.1780815 0.187331,0.2652808 -0.22137,-0.093383 -0.43614,-0.201252 -0.642457,-0.3243711 C 9.9133491,7.9984291 9.7344602,7.8741307 9.5631958,7.7402064 9.8183558,7.382159 10.117539,7.0561523 10.452075,6.7708625 10.678774,6.5775357 10.920669,6.4034718 11.176254,6.2503589 h -0.56177 c 0.296919,-0.085246 0.710989,-0.1592785 0.993009,-0.2200196 0.269686,-0.058084 0.54235,-0.1042997 0.815959,-0.1395552 z"
     id="path4817"
     style="display:inline;opacity:0.9;fill:#000000;fill-opacity:1;fill-rule:evenodd;stroke:none;stroke-width:1.06666672" />
</svg>
