<?xml version="1.0" encoding="UTF-8" standalone="no"?>
<!-- Created with Inkscape (http://www.inkscape.org/) -->

<svg
   xmlns:dc="http://purl.org/dc/elements/1.1/"
   xmlns:cc="http://creativecommons.org/ns#"
   xmlns:rdf="http://www.w3.org/1999/02/22-rdf-syntax-ns#"
   xmlns:svg="http://www.w3.org/2000/svg"
   xmlns="http://www.w3.org/2000/svg"
   xmlns:sodipodi="http://sodipodi.sourceforge.net/DTD/sodipodi-0.dtd"
   xmlns:inkscape="http://www.inkscape.org/namespaces/inkscape"
   width="25.6"
   height="25.6"
   viewBox="0 0 24 24"
   id="svg2"
   version="1.1"
   inkscape:version="0.92.1 r15371"
   sodipodi:docname="xan_sc_terran.svg"
   inkscape:export-filename="D:\dev\XansSciFiMashup\raw\flags\small\xan_w4_chaos.png"
   inkscape:export-xdpi="90"
   inkscape:export-ydpi="90">
  <defs
     id="defs4" />
  <sodipodi:namedview
     id="base"
     pagecolor="#9a5d00"
     bordercolor="#666666"
     borderopacity="1.0"
     inkscape:pageopacity="0"
     inkscape:pageshadow="2"
     inkscape:zoom="1.474009"
     inkscape:cx="27.635745"
     inkscape:cy="-18.517569"
     inkscape:document-units="px"
     inkscape:current-layer="layer1"
     showgrid="false"
     inkscape:window-width="1697"
     inkscape:window-height="1057"
     inkscape:window-x="-8"
     inkscape:window-y="837"
     inkscape:window-maximized="1"
     units="px"
     showguides="false" />
  <metadata
     id="metadata7">
    <rdf:RDF>
      <cc:Work
         rdf:about="">
        <dc:format>image/svg+xml</dc:format>
        <dc:type
           rdf:resource="http://purl.org/dc/dcmitype/StillImage" />
        <dc:title></dc:title>
      </cc:Work>
    </rdf:RDF>
  </metadata>
  <g
     inkscape:label="Ebene 1"
     inkscape:groupmode="layer"
     id="layer1"
     transform="translate(0,-1028.3622)">
    <path
       style="fill:#000000"
       d=""
       id="path4147"
       inkscape:connector-curvature="0" />
    <path
       style="fill:#000000"
       d=""
       id="path4145"
       inkscape:connector-curvature="0" />
    <path
       style="fill:#ffffff;fill-opacity:1;stroke-width:0.07697171"
       d="m 0.99984397,1051.0636 c 0,-0.019 0.47979433,-0.9634 1.06621273,-2.0975 0.5864153,-1.1341 1.492039,-2.8933 2.012498,-3.9093 0.5204591,-1.016 0.9728921,-1.8772 1.0054112,-1.9138 0.065917,-0.074 1.3038977,0.7809 1.3038977,0.9006 0,0.042 -0.5888336,1.2158 -1.308519,2.609 -0.7196856,1.3933 -1.3085191,2.5654 -1.3085191,2.6047 0,0.041 0.5990823,0.072 1.4235554,0.072 h 1.4235523 l -0.4406145,0.8851 -0.4406176,0.8852 H 3.3682725 c -1.302637,0 -2.36842853,-0.016 -2.36842853,-0.036 z m 16.81896103,-0.8099 c -0.233191,-0.465 -0.423987,-0.8633 -0.423987,-0.8852 0,-0.022 0.623471,-0.04 1.385491,-0.04 0.87731,0 1.38549,-0.028 1.38549,-0.077 0,-0.043 -0.255434,-0.5708 -0.567627,-1.1739 -1.583598,-3.0588 -2.054917,-4.0114 -2.024295,-4.0912 0.03709,-0.097 1.167451,-0.8936 1.262357,-0.89 0.04932,0 4.079767,7.6711 4.163603,7.9226 0.01818,0.054 -0.739941,0.08 -2.36515,0.08 h -2.391895 z m -10.8151678,0.5044 c 0,-0.02 0.2030356,-0.4796 0.4511907,-1.0215 0.5636752,-1.2307 1.4499469,-3.247 1.8529998,-4.2154 0.254758,-0.6121 0.2815989,-0.7225 0.1598495,-0.6573 -0.080475,0.043 -0.1679555,0.1133 -0.1944049,0.1561 -0.026455,0.043 -0.077462,0.06 -0.1133601,0.038 -0.035899,-0.022 -0.1218791,0.1301 -0.191066,0.3384 -0.1279609,0.3852 -0.2239604,0.4691 -0.5368353,0.4691 -0.1673679,0 -0.1716196,-0.014 -0.092381,-0.3111 0.1357914,-0.5088 -0.1452675,-0.7418 -0.6449896,-0.5348 -0.3197539,0.1324 -0.4826067,0.3482 -0.5387505,0.714 l -0.049789,0.3244 -0.1649984,-0.3464 c -0.2522761,-0.5296 -0.2229542,-0.8105 0.1202639,-1.1521 0.2774193,-0.2761 0.4050711,-0.3259 1.2960127,-0.5056 0.3678854,-0.074 0.7652535,-0.5745 0.4562877,-0.5745 -0.074553,0 0.021455,-0.186 0.2762432,-0.5352 0.570827,-0.7824 0.6003499,-1.2787 0.08766,-1.4736 -0.2710285,-0.103 -0.6631236,0.097 -0.9467977,0.4827 -0.2304362,0.3134 -0.2898106,0.4285 -0.5698786,1.105 l -0.1124574,0.2716 -0.7303433,-0.5218 c -0.4016893,-0.287 -0.7320919,-0.5487 -0.7342314,-0.5815 -0.00212,-0.033 0.1840291,-0.2876 0.4136988,-0.5661 0.5909578,-0.7164 0.7344827,-1.4166 0.3726915,-1.818 -0.1585284,-0.1759 -0.5369717,-0.1718 -1.0181145,0.011 -0.7353192,0.2794 -1.3047128,0.8845 -1.6717981,1.7767 l -0.174944,0.4252 -0.00182,-1.5879 -0.00182,-1.5879 0.4476207,-0.032 c 0.7444014,-0.054 1.1691245,-0.5006 1.1684973,-1.2293 -6.073e-4,-0.6388 -0.4557483,-1.0669 -1.1325721,-1.0652 -0.2985411,9e-4 -1.0309815,0.2984 -1.2727272,0.5172 -0.074484,0.067 -0.1484917,0.1083 -0.1644679,0.091 -0.01597,-0.017 0.196593,-0.5251 0.4723669,-1.1284 l 0.50141,-1.0969 3.165019,0.01 c 2.7176859,0 3.1259201,0.02 2.8883841,0.1073 -0.9737344,0.3585 -1.7631152,1.1625 -1.7631152,1.7957 0,0.3017 0.074563,0.3522 0.2636917,0.1787 0.2181421,-0.2003 0.74254,-0.4707 0.9126843,-0.4707 0.1204303,0 0.1074084,0.047 -0.095074,0.3409 l -0.2346153,0.341 0.2251238,-0.064 c 0.2871253,-0.082 0.3246396,-0.04 0.1913118,0.2154 -0.1607533,0.3081 -0.1318431,0.5231 0.094263,0.701 0.4021589,0.3163 1.1826819,0.098 1.1826819,-0.331 0,-0.3585 -0.367003,-0.4791 -0.571154,-0.1876 -0.145355,0.2075 -0.178205,0.1783 -0.240998,-0.2144 -0.041919,-0.2622 -0.01894,-0.3458 0.150353,-0.547 0.412065,-0.4897 1.941386,-0.8822 2.427935,-0.6232 0.270676,0.1442 0.4454,0.4893 0.537188,1.0612 0.09687,0.6035 0.279285,0.8772 0.606412,0.91 0.508713,0.051 0.691206,-0.2665 0.436557,-0.759 -0.123112,-0.2381 -0.110706,-0.2535 0.183811,-0.229 0.194944,0.016 0.190359,-0.01 -0.08424,-0.4022 -0.142846,-0.2063 -0.142901,-0.2117 -0.0021,-0.2117 0.07946,0 0.345793,0.1213 0.591855,0.2694 0.24606,0.1482 0.477824,0.2694 0.515028,0.2694 0.03721,0 0.06752,-0.1126 0.06736,-0.2501 -6.84e-4,-0.6184 -0.893544,-1.5128 -1.789583,-1.7927 -0.283588,-0.089 0.09702,-0.1028 2.875354,-0.1072 l 3.202203,-0.01 0.48119,1.0584 c 0.615246,1.3532 0.605071,1.3232 0.38131,1.1248 -0.293153,-0.26 -0.818433,-0.4945 -1.211825,-0.5411 -0.719734,-0.085 -1.243465,0.3506 -1.244063,1.0352 -6.84e-4,0.7275 0.407293,1.1736 1.127993,1.2334 l 0.411154,0.034 -0.0036,1.5106 -0.0036,1.5107 -0.141958,-0.3631 c -0.3042,-0.7782 -0.923157,-1.4185 -1.631103,-1.6875 -0.544166,-0.2068 -0.866759,-0.1887 -1.062107,0.06 -0.323497,0.4113 -0.162493,1.0726 0.431611,1.7729 0.498971,0.5881 0.532269,0.5025 -0.472595,1.2175 l -0.612688,0.4359 -0.09007,-0.2601 c -0.487018,-1.4067 -1.370938,-2.0567 -1.834636,-1.3489 -0.169234,0.2583 -0.04761,0.6214 0.415863,1.2414 0.258155,0.3453 0.343051,0.5101 0.262843,0.5101 -0.192635,0 -0.08998,0.2489 0.176796,0.4287 0.134434,0.091 0.402744,0.1864 0.596242,0.2129 1.039579,0.1424 1.494331,0.7822 1.113621,1.5664 l -0.179899,0.3704 -0.05767,-0.3352 c -0.0658,-0.3826 -0.155635,-0.5143 -0.457571,-0.6704 -0.508522,-0.2629 -0.884792,-0.021 -0.74645,0.4801 0.09061,0.3281 0.0636,0.3624 -0.23438,0.2969 -0.194812,-0.043 -0.252392,-0.1125 -0.359719,-0.4356 -0.07028,-0.2117 -0.146322,-0.3662 -0.16898,-0.3435 -0.02267,0.023 -0.139094,-0.029 -0.258749,-0.1138 -0.216378,-0.154 -0.215464,-0.1498 0.169704,0.7872 0.212988,0.5182 0.785615,1.8271 1.272503,2.9088 0.486888,1.0818 0.902348,2.0061 0.923245,2.0542 0.02091,0.048 -0.249918,-0.028 -0.601812,-0.1692 -1.081844,-0.4335 -1.886195,-0.4948 -2.780757,-0.212 -0.20383,0.064 -0.384014,0.1037 -0.400403,0.087 -0.01639,-0.016 -0.259831,-0.5308 -0.540983,-1.1431 -0.281147,-0.6124 -0.519808,-1.1224 -0.530354,-1.1333 -0.01055,-0.011 -0.256255,0.4999 -0.546017,1.1353 -0.289759,0.6354 -0.550647,1.1552 -0.579751,1.1552 -0.02909,0 -0.204478,-0.057 -0.38972,-0.1257 -0.7427244,-0.2774 -2.1545281,-0.11 -3.0876162,0.366 -0.1592647,0.081 -0.2895741,0.1314 -0.2895741,0.1115 z m 2.7709816,-16.796 c 0,-0.081 2.1904812,-4.3362 2.2328312,-4.3372 0.06742,0 2.165187,4.2476 2.119534,4.2932 -0.02382,0.024 -0.422347,0.059 -0.885596,0.078 l -0.842274,0.035 -0.17301,-0.3561 c -0.09515,-0.1958 -0.193841,-0.3561 -0.219306,-0.3561 -0.02545,0 -0.122021,0.1559 -0.214578,0.3464 l -0.16828,0.3464 h -0.924661 c -0.508562,0 -0.9246602,-0.022 -0.9246602,-0.049 z"
       id="path21"
       inkscape:connector-curvature="0"
       sodipodi:nodetypes="scscsssscccsscsssccccscccscccccssccccccscccccccccccccccccccccccscsccsccscscccccccssscccccccccccccscccccccsccccccccccccccccscccsccccscscccsccss" />
  </g>
</svg>
