<?xml version="1.0" encoding="UTF-8" standalone="no"?>
<!-- Creator: CorelDRAW X5 -->

<svg
   xmlns:dc="http://purl.org/dc/elements/1.1/"
   xmlns:cc="http://creativecommons.org/ns#"
   xmlns:rdf="http://www.w3.org/1999/02/22-rdf-syntax-ns#"
   xmlns:svg="http://www.w3.org/2000/svg"
   xmlns="http://www.w3.org/2000/svg"
   xmlns:sodipodi="http://sodipodi.sourceforge.net/DTD/sodipodi-0.dtd"
   xmlns:inkscape="http://www.inkscape.org/namespaces/inkscape"
   xml:space="preserve"
   width="25.6"
   height="25.6"
   style="fill-rule:evenodd"
   viewBox="0 0 677.33333 677.33338"
   id="svg2"
   version="1.1"
   inkscape:version="0.92.1 r15371"
   sodipodi:docname="xan_st_borg.svg"
   inkscape:export-filename="D:\dev\XansSciFiMashup\raw\flags\small\xan_st_borg.png"
   inkscape:export-xdpi="90"
   inkscape:export-ydpi="90"><metadata
     id="metadata21"><rdf:RDF><cc:Work
         rdf:about=""><dc:format>image/svg+xml</dc:format><dc:type
           rdf:resource="http://purl.org/dc/dcmitype/StillImage" /><dc:title /></cc:Work></rdf:RDF></metadata><sodipodi:namedview
     pagecolor="#008703"
     bordercolor="#666666"
     borderopacity="1"
     objecttolerance="10"
     gridtolerance="10"
     guidetolerance="10"
     inkscape:pageopacity="0"
     inkscape:pageshadow="2"
     inkscape:window-width="1697"
     inkscape:window-height="1057"
     id="namedview19"
     showgrid="false"
     inkscape:zoom="17.761186"
     inkscape:cx="-0.2839064"
     inkscape:cy="12.774359"
     inkscape:window-x="-8"
     inkscape:window-y="837"
     inkscape:window-maximized="1"
     inkscape:current-layer="svg2" /><defs
     id="defs4"><style
       type="text/css"
       id="style6">
   
    .fil1 {fill:#CFD3CD;fill-rule:nonzero}
    .fil0 {fill:url(#id0)}
   
  </style></defs><path
     style="fill:#000000;fill-opacity:1;fill-rule:nonzero"
     inkscape:connector-curvature="0"
     id="path17"
     d="m 262.46678,527.19811 c 0,-58.23589 17.50014,-108.82466 43.38279,-135.14847 -17.05901,-1.02942 -41.91218,-8.08832 -57.79475,-37.20628 -45.14749,-82.05969 10.73542,-219.70824 10.73542,-219.70824 l -4.85299,-4.85296 c 0,0 -69.70663,86.4715 -61.17709,276.17939 5.29417,119.56009 61.76533,188.2373 90.88331,216.03171 -12.94131,-26.17674 -21.17669,-59.41243 -21.17669,-95.29515 z m 124.85426,63.08892 c 0,32.50032 -13.97074,58.82413 -31.17682,58.82413 -17.20604,0 -31.17683,-26.32381 -31.17683,-58.82413 0,-32.50036 13.97079,-58.82417 31.17683,-58.82417 17.20608,0 31.17682,26.32381 31.17682,58.82417 z m -76.91258,39.55926 c 0,0 -53.97118,-201.76686 36.02977,-201.76686 103.23639,0 57.64767,202.94333 57.64767,202.94333 0,0 1.91178,-122.50131 -53.97114,-122.50131 -43.23576,0 -39.55927,121.32484 -39.55927,121.32484 z m 23.38257,-255.29683 c 4.11771,-1.17649 8.23538,-1.76474 12.50012,-1.76474 3.52946,0 7.20601,0.44119 10.58839,1.17649 6.6177,-26.61794 17.05897,-88.82448 -3.97064,-164.56057 C 324.67329,108.37017 285.11407,84.546362 285.11407,84.546362 l -8.38246,8.382464 c 0,0 64.85363,84.118534 64.85363,159.707564 0,57.94179 -5.29418,103.67757 -7.79421,121.766 z m 42.35341,8.23536 c 11.91187,8.38245 22.50022,21.47083 31.17677,38.08865 11.32367,-27.5003 29.70622,-94.26569 0.29415,-195.88443 C 368.05609,88.369926 310.40846,54.546048 310.40846,54.546048 L 300.2613,64.693214 c 0,0 78.67728,78.677316 87.05974,173.531266 6.02944,67.64777 -4.5589,120.00127 -11.02953,144.41329 z M 335.55578,28.222224 324.82037,40.281218 c 0,0 120.00126,100.883392 120.00126,279.708832 0,63.67715 -13.67662,115.88359 -22.20611,142.35444 5.00002,19.70608 7.7942,41.61808 7.7942,64.85362 0,46.02989 -8.52953,87.50094 -23.6767,115.73656 34.70623,-46.177 68.97128,-133.53087 77.79491,-270.00288 C 497.76338,169.98846 335.70281,28.369299 335.70281,28.369299 Z"
     class="fil1" /></svg>