<?xml version="1.0" encoding="UTF-8" standalone="no"?>
<!-- Created with Inkscape (http://www.inkscape.org/) -->

<svg
   xmlns:dc="http://purl.org/dc/elements/1.1/"
   xmlns:cc="http://creativecommons.org/ns#"
   xmlns:rdf="http://www.w3.org/1999/02/22-rdf-syntax-ns#"
   xmlns:svg="http://www.w3.org/2000/svg"
   xmlns="http://www.w3.org/2000/svg"
   xmlns:sodipodi="http://sodipodi.sourceforge.net/DTD/sodipodi-0.dtd"
   xmlns:inkscape="http://www.inkscape.org/namespaces/inkscape"
   width="25.6"
   height="25.6"
   viewBox="0 0 24 24"
   id="svg2"
   version="1.1"
   inkscape:version="0.92.1 r15371"
   sodipodi:docname="xan_sc_protoss.svg"
   inkscape:export-filename="D:\dev\XansSciFiMashup\raw\flags\small\xan_w4_eldar.png"
   inkscape:export-xdpi="90"
   inkscape:export-ydpi="90">
  <defs
     id="defs4" />
  <sodipodi:namedview
     id="base"
     pagecolor="#005b64"
     bordercolor="#666666"
     borderopacity="1.0"
     inkscape:pageopacity="0"
     inkscape:pageshadow="2"
     inkscape:zoom="5.5948686"
     inkscape:cx="5.6768928"
     inkscape:cy="-5.7959143"
     inkscape:document-units="px"
     inkscape:current-layer="layer1"
     showgrid="false"
     inkscape:window-width="1697"
     inkscape:window-height="1057"
     inkscape:window-x="-8"
     inkscape:window-y="837"
     inkscape:window-maximized="1"
     units="px"
     showguides="false" />
  <metadata
     id="metadata7">
    <rdf:RDF>
      <cc:Work
         rdf:about="">
        <dc:format>image/svg+xml</dc:format>
        <dc:type
           rdf:resource="http://purl.org/dc/dcmitype/StillImage" />
        <dc:title></dc:title>
      </cc:Work>
    </rdf:RDF>
  </metadata>
  <g
     inkscape:label="Ebene 1"
     inkscape:groupmode="layer"
     id="layer1"
     transform="translate(0,-1028.3622)">
    <path
       style="fill:#000000"
       d=""
       id="path4147"
       inkscape:connector-curvature="0" />
    <path
       style="fill:#000000"
       d=""
       id="path4145"
       inkscape:connector-curvature="0" />
    <path
       style="fill:#ffffff;fill-opacity:1;fill-rule:evenodd;stroke-width:0.04756355"
       d="m 7.5192205,1051.0596 c -0.902075,-1.2138 -1.320352,-3.2736 -1.032199,-5.0831 0.160405,-1.0073 0.622685,-2.1583 1.093143,-2.7219 l 0.12772,-0.153 0.182557,0.1603 c 0.387232,0.34 1.087369,0.5451 1.485702,0.4353 0.272035,-0.075 0.543161,-0.328 0.6797165,-0.6344 0.09625,-0.2159 0.111227,-0.3257 0.111848,-0.82 7.17e-4,-0.6405 -0.09515,-1.0469 -0.3705075,-1.5694 -0.361708,-0.6864 -1.137723,-1.2354 -1.827884,-1.2932 l -0.343828,-0.029 0.0042,-5.118 c 0.0038,-4.6082 0.01113,-5.0873 0.07381,-4.8089 0.28609,1.2705 0.549853,2.0636 0.957014,2.8776 0.449215,0.898 0.81316,1.4084 1.6919645,2.3729 0.607924,0.6672 0.768383,0.8803 0.818757,1.0873 0.03588,0.1474 -0.027,0.1731 -0.127236,0.052 -0.106638,-0.1289 -0.526348,-0.3006 -0.736022,-0.3011 -0.3405875,0 -0.6703255,0.3058 -0.7844175,0.7295 -0.06657,0.2473 -0.05998,0.8725 0.01223,1.1618 0.265279,1.0629 0.9338905,1.8184 1.6086935,1.818 0.302871,-2e-4 0.499362,-0.099 0.677266,-0.3406 0.205232,-0.2787 0.239548,-0.4294 0.217395,-0.9545 -0.01926,-0.4566 -0.08445,-0.7269 -0.298481,-1.2375 -0.05345,-0.1275 0.116382,-0.1065 0.483241,0.06 0.494681,0.2243 0.987234,0.7525 1.292541,1.3861 0.260989,0.5416 0.38743,1.0213 0.38743,1.4698 v 0.2929 l -0.137993,-0.1477 c -0.114147,-0.1222 -0.173733,-0.1475 -0.344835,-0.1462 -0.347733,0 -0.516007,0.2092 -0.516007,0.6336 0,0.5544 0.325234,0.8051 1.046398,0.8066 0.618847,0 0.849471,-0.094 1.289676,-0.5333 0.59045,-0.5893 0.86748,-1.0903 1.025591,-1.8548 0.10112,-0.4889 0.06489,-1.4598 -0.07368,-1.9747 -0.09976,-0.3706 -0.466794,-1.1821 -0.676971,-1.4968 l -0.107478,-0.1609 0.115685,0.062 c 0.189554,0.1012 0.96246,0.9032 1.178708,1.2231 1.013815,1.5 1.165787,3.219 0.483588,5.4701 -0.105078,0.3468 -0.19105,0.641 -0.19105,0.654 0,0.013 -0.683344,0.024 -1.518543,0.024 h -1.518542 l -0.146182,0.2555 c -0.0804,0.1405 -0.146181,0.2689 -0.146181,0.2854 0,0.016 0.693776,0.03 1.541724,0.03 h 1.541723 l -0.100209,0.2372 -0.100209,0.2372 -1.572314,0.013 -1.572315,0.012 -0.155604,0.2329 c -0.08558,0.128 -0.14895,0.2394 -0.140819,0.2476 0.0081,0.01 0.693492,0.018 1.523025,0.021 0.894627,0 1.519613,0.025 1.536193,0.052 0.03919,0.063 -0.295508,0.6123 -0.72658,1.1915 -0.961042,1.2913 -2.547662,2.6277 -4.11712,3.4679 -0.228901,0.1225 -0.416181,0.2138 -0.416181,0.2027 0,-0.011 0.08754,-0.1308 0.194532,-0.2661 0.446333,-0.5647 0.716897,-1.306 0.720066,-1.9729 0.0018,-0.3798 -0.01467,-0.4723 -0.123818,-0.6954 -0.176021,-0.3598 -0.418764,-0.5212 -0.822629,-0.5469 -0.278516,-0.018 -0.340227,0 -0.661683,0.1557 -0.8387355,0.4145 -1.6629475,1.5201 -2.0884505,2.8013 -0.253433,0.7631 -0.320729,1.1633 -0.35223,2.0942 l -0.02876,0.85 z m 0.86698,-8.5019 c -0.364393,-0.119 -0.596461,-0.338 -0.706583,-0.6669 -0.103618,-0.3095 -0.03238,-0.6314 0.197767,-0.8935 0.472385,-0.538 1.337705,-0.4382 1.658897,0.1914 0.222922,0.437 0.06013,0.9977 -0.361369,1.2447 -0.222251,0.1302 -0.591963,0.1885 -0.788712,0.1243 z"
       id="path3702"
       inkscape:connector-curvature="0" />
  </g>
</svg>
