<?xml version="1.0" encoding="UTF-8" standalone="no"?>
<!-- Created with Inkscape (http://www.inkscape.org/) -->

<svg
   xmlns:dc="http://purl.org/dc/elements/1.1/"
   xmlns:cc="http://creativecommons.org/ns#"
   xmlns:rdf="http://www.w3.org/1999/02/22-rdf-syntax-ns#"
   xmlns:svg="http://www.w3.org/2000/svg"
   xmlns="http://www.w3.org/2000/svg"
   xmlns:sodipodi="http://sodipodi.sourceforge.net/DTD/sodipodi-0.dtd"
   xmlns:inkscape="http://www.inkscape.org/namespaces/inkscape"
   width="25.6"
   height="25.6"
   viewBox="0 0 24 24"
   id="svg2"
   version="1.1"
   inkscape:version="0.92.1 r15371"
   sodipodi:docname="xan_w4_empire.svg"
   inkscape:export-filename="D:\dev\XansSciFiMashup\raw\flags\small\xan_w4_empire.png"
   inkscape:export-xdpi="90"
   inkscape:export-ydpi="90">
  <defs
     id="defs4" />
  <sodipodi:namedview
     id="base"
     pagecolor="#0022c4"
     bordercolor="#666666"
     borderopacity="1.0"
     inkscape:pageopacity="0"
     inkscape:pageshadow="2"
     inkscape:zoom="23.719356"
     inkscape:cx="-1.8440989"
     inkscape:cy="13.164734"
     inkscape:document-units="px"
     inkscape:current-layer="layer1"
     showgrid="false"
     inkscape:window-width="1697"
     inkscape:window-height="1057"
     inkscape:window-x="-8"
     inkscape:window-y="837"
     inkscape:window-maximized="1"
     units="px"
     showguides="false" />
  <metadata
     id="metadata7">
    <rdf:RDF>
      <cc:Work
         rdf:about="">
        <dc:format>image/svg+xml</dc:format>
        <dc:type
           rdf:resource="http://purl.org/dc/dcmitype/StillImage" />
        <dc:title />
      </cc:Work>
    </rdf:RDF>
  </metadata>
  <g
     inkscape:label="Ebene 1"
     inkscape:groupmode="layer"
     id="layer1"
     transform="translate(0,-1028.3622)">
    <path
       style="fill:#000000"
       d=""
       id="path4147"
       inkscape:connector-curvature="0" />
    <path
       style="fill:#000000"
       d=""
       id="path4145"
       inkscape:connector-curvature="0" />
    <path
       style="fill:#ffffff;fill-opacity:1"
       d="m 9.9005481,1044.4273 c -0.0026,0 -0.0648,0 -0.137942,0 -0.121341,0 -0.137901,0 -0.189041,-0.022 -0.112322,-0.038 -0.214959,-0.1 -0.253197,-0.154 -0.05502,-0.078 -0.048,-0.136 0.03436,-0.2792 0.0216,-0.038 0.122981,-0.2238 0.225281,-0.4142 0.102301,-0.19 0.188702,-0.349 0.192002,-0.3526 0.0034,0 0.006,0 0.006,-0.02 0,0 -0.05798,0 -0.129222,0 h -0.129221 l -0.0156,0.02 c -0.02502,0.032 -0.110121,0.178 -0.155582,0.2674 -0.04944,0.096 -0.04442,0.088 -0.048,0.084 -0.0032,0 -0.115802,-0.7088 -0.115802,-0.725 -6e-6,0 0.0279,0 0.206077,0 0.113341,0 0.250598,0 0.305003,0.02 0.122981,0 0.190922,0 0.221334,0 0.019,0 0.02826,-0.02 0.04842,-0.048 0.03298,-0.056 0.1766009,-0.3468 0.2974129,-0.6052 0.08662,-0.186 0.146341,-0.3092 0.151741,-0.3152 0.0024,0 0.374762,0.29 0.403073,0.3166 l 0.02072,0.02 -0.154782,0.278 c -0.08512,0.152 -0.175142,0.3108 -0.200012,0.3506 -0.06878,0.11 -0.08734,0.164 -0.0764,0.2228 0.0026,0.02 0.04128,0.078 0.09232,0.154 0.164462,0.2472 0.187302,0.3214 0.118361,0.3846 -0.0263,0.024 -0.562603,0.4082 -0.569942,0.4082 -0.0102,0 -0.007,-0.02 0.02454,-0.09 0.04598,-0.116 0.115341,-0.3294 0.119261,-0.3674 0.004,-0.038 0.0048,-0.038 -0.07146,-0.096 -0.04854,-0.038 -0.06508,-0.044 -0.06518,-0.024 0,0 -0.0198,0.038 -0.04392,0.076 -0.02412,0.038 -0.09248,0.15 -0.1518809,0.2464 -0.0594,0.098 -0.120042,0.194 -0.134742,0.2166 -0.05626,0.082 -0.0675,0.14 -0.039,0.196 0.0094,0.02 0.05434,0.068 0.122941,0.136 0.0717,0.07 0.108161,0.112 0.108161,0.12 0,0.02 -0.0068,0.02 -0.016,0 z m 3.8010639,-0.08 c -6.6e-5,0 -0.0028,-0.038 -0.0064,-0.08 -0.006,-0.072 -0.0016,-0.12 0.0124,-0.128 0.003,0 0.02216,0 0.04252,0 0.04574,0.02 0.07252,0.02 0.106602,0 0.0448,-0.02 0.158461,-0.096 0.177701,-0.12 0.016,-0.02 0.018,-0.026 0.0154,-0.056 -0.0054,-0.064 -0.08122,-0.2008 -0.260889,-0.4674 -0.04158,-0.062 -0.07836,-0.116 -0.08174,-0.12 -0.0046,0 -0.019,0 -0.0536,0.02 -0.06098,0.036 -0.100241,0.074 -0.106081,0.106 -0.0122,0.066 0.04788,0.178 0.120162,0.2236 0.02804,0.02 0.03432,0.02 0.07034,0.02 0.02176,0 0.04286,0 0.04688,0 0.0052,0 0.0056,0.038 0.0014,0.124 -0.0032,0.066 -0.007,0.12 -0.0082,0.12 -0.0074,0 -0.158722,-0.052 -0.225561,-0.088 -0.04302,-0.024 -0.183562,-0.098 -0.312327,-0.168 -0.330097,-0.176 -0.342534,-0.184 -0.330265,-0.2 0.0038,0 0.0198,-0.042 0.0358,-0.084 l 0.0291,-0.074 h 0.03212 c 0.0176,0 0.05308,0 0.07874,0 0.02564,0 0.06204,0 0.08086,-0.02 0.04264,-0.02 0.04752,-0.02 0.124342,-0.18 0.0563,-0.118 0.0581,-0.124 0.05776,-0.168 -6.12e-4,-0.074 -0.0174,-0.102 -0.24136,-0.3892 -0.110082,-0.142 -0.218617,-0.2794 -0.241207,-0.3066 -0.0226,-0.028 -0.04762,-0.062 -0.05562,-0.076 l -0.0146,-0.028 0.0589,-0.056 c 0.0324,-0.03 0.101281,-0.094 0.153082,-0.14 0.0518,-0.046 0.100581,-0.094 0.108401,-0.104 0.0132,-0.02 0.03152,-0.026 0.03152,-0.02 0,0 0.02964,0.056 0.143642,0.2302 0.0709,0.108 0.103321,0.164 0.112481,0.194 0.048,0.154 0.157521,0.3284 0.24353,0.3854 0.07616,0.052 0.213591,0.086 0.36566,0.094 0.07488,0 0.08878,0 0.129762,0 0.03718,-0.02 0.05488,-0.022 0.09316,-0.058 0.03184,-0.028 0.05486,-0.044 0.0706,-0.048 0.02418,0 0.158442,0 0.164042,0 0.0018,0 -0.02068,0.2002 -0.04984,0.4408 -0.0639,0.5278 -0.0638,0.527 -0.07204,0.5352 -0.0044,0 -0.02972,0 -0.07564,-0.026 l -0.06908,-0.032 0.0291,-0.048 c 0.02452,-0.042 0.02908,-0.054 0.02908,-0.084 0,-0.072 -0.04888,-0.17 -0.122222,-0.244 -0.05298,-0.054 -0.09336,-0.072 -0.138421,-0.062 -0.03422,0 -0.06908,0.044 -0.06908,0.068 0,0.022 0.104281,0.209 0.272485,0.489 0.09004,0.15 0.08052,0.14 0.146262,0.152 0.05336,0 0.05526,0.02 0.0781,0.114 0.02666,0.12 0.03868,0.2126 0.02894,0.222 -0.0046,0 -0.06006,0.02 -0.123521,0.024 -0.201955,0.03 -0.475495,0.076 -0.555586,0.092 -0.04262,0 -0.07754,0.02 -0.0776,0.02 z m -2.147221,-0.246 c -0.0826,-0.11 -0.167101,-0.2212 -0.187802,-0.2472 -0.06348,-0.08 -0.06516,-0.108 -0.016,-0.2586 0.03832,-0.118 0.164642,-0.556 0.208002,-0.7214 0.0198,-0.076 0.0325,-0.136 0.03018,-0.144 -0.004,-0.02 -0.0357,-0.054 -0.0397,-0.05 -0.0096,0.02 -0.115241,0.306 -0.208556,0.5826 -0.06236,0.184 -0.117621,0.3446 -0.122781,0.3548 -0.0052,0 -0.017,0.022 -0.02618,0.026 -0.014,0 -0.0178,0 -0.02308,0 -0.0036,-0.02 -0.03692,-0.048 -0.07436,-0.092 -0.104641,-0.122 -0.112101,-0.146 -0.07578,-0.2446 0.0112,-0.03 0.06474,-0.18 0.118941,-0.335 0.05422,-0.154 0.110341,-0.3124 0.124701,-0.3514 0.03258,-0.088 0.03372,-0.116 0.0058,-0.14 -0.04296,-0.036 -0.06504,-0.02 -0.114701,0.112 -0.05384,0.136 -0.310977,0.722 -0.317285,0.722 -0.0112,0 -0.164222,-0.158 -0.177222,-0.184 -0.0076,-0.02 -0.0104,-0.03 -0.0082,-0.048 0.0018,-0.02 0.03162,-0.084 0.06614,-0.156 0.06676,-0.138 0.296353,-0.6338 0.336947,-0.7266 0.0134,-0.03 0.0219,-0.058 0.019,-0.06 -0.107321,-0.096 -0.44128,-0.3834 -0.496717,-0.4294 -0.08126,-0.068 -0.109761,-0.096 -0.115581,-0.12 -0.0062,-0.024 0.009,-0.076 0.05296,-0.18 0.02312,-0.054 0.114642,-0.286 0.203417,-0.5144 0.08876,-0.2284 0.292421,-0.7508 0.452558,-1.1606 0.160142,-0.4099 0.364452,-0.9329 0.454033,-1.1623 0.08958,-0.2294 0.164622,-0.4172 0.166782,-0.4172 0.01,0 0.0418,0.074 0.0775,0.178 0.0215,0.064 0.125221,0.3496 0.230482,0.636 0.105261,0.2866 0.351568,0.9573 0.547338,1.4905 0.195762,0.5332 0.375456,1.0184 0.399306,1.0782 0.02384,0.06 0.0469,0.124 0.05124,0.144 l 0.0078,0.034 -0.02246,0.02 c -0.0975,0.082 -0.378752,0.357 -0.423076,0.4156 -0.02216,0.028 -0.0256,0.038 -0.02212,0.056 0.0024,0.02 0.08578,0.184 0.185622,0.384 0.09982,0.2 0.180662,0.366 0.179642,0.3704 -0.001,0 -0.05658,0.058 -0.123482,0.122 -0.177742,0.166 -0.226474,0.2104 -0.233674,0.208 -0.0086,0 -0.07968,-0.2 -0.198662,-0.5504 -0.0544,-0.16 -0.100821,-0.2916 -0.103161,-0.2916 -0.0022,-2e-4 -0.0138,0 -0.02564,0.02 -0.02058,0.02 -0.02124,0.022 -0.0174,0.058 0.0022,0.02 0.0128,0.066 0.0236,0.1 0.0108,0.034 0.05252,0.182 0.09278,0.3264 0.04026,0.144 0.08172,0.2904 0.09208,0.3232 0.0178,0.056 0.02328,0.086 0.0211,0.12 -0.0012,0.02 -0.06674,0.088 -0.159002,0.17 -0.0382,0.034 -0.0754,0.072 -0.08266,0.082 -0.0072,0.02 -0.0172,0.02 -0.0223,0.02 -0.0062,0 -0.03624,-0.112 -0.0962,-0.3578 -0.0479,-0.196 -0.098,-0.3948 -0.111341,-0.4418 -0.0134,-0.048 -0.0261,-0.102 -0.02836,-0.12 l -0.0042,-0.036 -0.02546,0.026 c -0.02416,0.026 -0.02544,0.028 -0.02534,0.068 6.8e-5,0.024 0.006,0.07 0.0134,0.104 0.0074,0.034 0.03396,0.182 0.05928,0.3264 0.02532,0.146 0.0537,0.298 0.06308,0.3396 0.0094,0.042 0.0174,0.096 0.018,0.122 0.001,0.054 -0.0098,0.076 -0.07196,0.152 -0.03016,0.038 -0.261607,0.334 -0.333506,0.4284 l -0.0176,0.022 -0.150182,-0.2 z m -3.9163019,-2.3504 c -0.04584,0 -0.534208,-0.08 -0.644529,-0.096 -0.03168,0 -0.06172,0 -0.06676,-0.02 -0.0126,0 0.0054,-0.038 0.158462,-0.2994 0.103481,-0.176 0.981496,-1.6899 1.036128,-1.7859 0.009,-0.02 0.0184,-0.038 0.02126,-0.05 0.005,-0.022 0.0044,-0.024 -0.0144,-0.024 -0.0126,0 -0.0259,0 -0.03742,0.02 -0.02024,0.02 -0.665168,0.8493 -0.996842,1.2811 -0.468899,0.61 -0.561984,0.7286 -0.573788,0.7306 -0.0174,0 -0.02044,0 -0.342749,-0.2036 -0.161382,-0.102 -0.318372,-0.2024 -0.348846,-0.2216 -0.03048,-0.02 -0.0594,-0.036 -0.0643,-0.036 -0.01,0 -0.0122,-0.02 -0.003,-0.02 0.0032,0 0.03194,-0.03 0.06386,-0.066 0.03192,-0.034 0.178582,-0.188 0.325921,-0.3396 0.147322,-0.152 0.421877,-0.4372 0.610105,-0.6332 0.188222,-0.196 0.482587,-0.5007 0.654135,-0.6773 0.171541,-0.176 0.311899,-0.3234 0.311889,-0.3264 0,0 -0.0116,-0.02 -0.02568,-0.036 l -0.02568,-0.03 -0.0452,0.044 c -0.02486,0.024 -0.07994,0.068 -0.122421,0.1 -0.06636,0.05 -1.367749,1.0887 -1.805497,1.4425 -0.161982,0.13 -0.324292,0.2548 -0.348166,0.2656 -0.0136,0 -0.0204,0 -0.06924,-0.046 -0.02974,-0.028 -0.09266,-0.084 -0.139821,-0.122 -0.07872,-0.064 -0.56726,-0.4794 -0.601893,-0.513 -0.0082,0 -0.0132,-0.02 -0.0112,-0.02 0.0084,-0.02 0.06836,-0.048 0.166542,-0.1 0.114981,-0.058 0.493817,-0.2622 1.742372,-0.9349 0.462439,-0.249 0.881386,-0.4728 0.930996,-0.4974 0.05656,-0.028 0.101101,-0.056 0.119441,-0.072 0.02576,-0.024 0.02972,-0.032 0.03332,-0.064 0.0022,-0.02 0.0016,-0.038 -0.0016,-0.042 -0.0032,0 -0.05274,0.02 -0.110321,0.038 -0.0576,0.024 -0.272375,0.108 -0.477297,0.188 -0.566164,0.2204 -1.26238,0.4922 -2.017916,0.7878 -0.7464055,0.2922 -0.8412024,0.3281 -0.8693767,0.3281 -0.02468,0 -0.055961,-0.022 -0.1471016,-0.1101 -0.0412,-0.038 -0.2262424,-0.206 -0.4112203,-0.371 -0.184982,-0.166 -0.3372796,-0.3042 -0.3384516,-0.3088 -0.0012,0 0.0034,0 0.011,0 0.0072,0 0.04564,0 0.085361,-0.022 0.03972,-0.02 0.091161,-0.026 0.1143012,-0.03 0.02312,0 0.051401,-0.02 0.062821,-0.02 0.0114,0 0.03126,-0.02 0.044061,-0.02 0.0162,0 0.02222,0 0.0198,-0.02 -0.0022,0 10e-4,0 0.009,0 0.007,0 0.0436,-0.02 0.081501,-0.024 0.03788,-0.02 0.089661,-0.028 0.1150612,-0.032 0.063501,-0.02 0.1299014,-0.03 0.1417815,-0.038 0.0344,-0.02 0.1222813,-0.042 0.3051692,-0.078 0.061741,-0.02 0.1475216,-0.036 0.2110243,-0.056 0.058841,-0.02 0.1247813,-0.038 0.1465615,-0.042 0.079201,-0.02 0.106261,-0.02 0.145082,-0.034 0.02176,0 0.06898,-0.02 0.104941,-0.028 0.06778,-0.02 0.208228,-0.052 0.293847,-0.082 0.02712,0 0.06864,-0.02 0.09232,-0.024 0.04032,0 0.468491,-0.124 1.414691,-0.3884 0.221246,-0.062 0.427082,-0.12 0.457414,-0.128 0.03032,0 0.06228,-0.02 0.07102,-0.02 0.0086,0 0.04772,0 0.08662,-0.022 0.03892,-0.02 0.136501,-0.04 0.216854,-0.062 0.08034,-0.022 0.155242,-0.044 0.166422,-0.05 0.0196,0 0.03074,-0.032 0.02604,-0.05 -0.0024,0 0.0427,-0.02 -2.488354,0.4504 -0.8233205,0.152 -1.6631293,0.308 -1.8662394,0.3456 -0.2031102,0.038 -0.3826461,0.072 -0.3989682,0.076 -0.053761,0.02 -0.068201,0 -0.1115212,-0.024 -0.02216,-0.02 -0.067701,-0.062 -0.1012211,-0.1 -0.0335,-0.038 -0.192242,-0.2048 -0.3527397,-0.3696 -0.1605017,-0.164 -0.291805,-0.3018 -0.291805,-0.3044 0,0 0.03942,-0.02 0.2242103,-0.026 0.099741,0 0.1947021,-0.02 0.2110242,-0.02 0.04344,0 0.4942432,-0.044 0.6165845,-0.054 0.0182,0 0.087881,0 0.1549816,-0.02 0.067101,0 0.1368415,-0.02 0.1549617,-0.02 0.0182,0 0.087881,0 0.1549616,-0.02 0.067101,0 0.1383214,-0.02 0.1582617,-0.02 0.02,0 0.092641,0 0.1615616,-0.02 0.068921,-0.02 0.1386415,-0.02 0.1549617,-0.02 0.03214,0 0.2768889,-0.022 0.5143674,-0.042 0.1713813,-0.02 0.3841083,-0.032 0.4319403,-0.036 0.0182,0 0.0864,0 0.151682,-0.02 0.06528,0 0.135021,-0.02 0.154961,-0.02 0.02,0 0.08672,0 0.148382,-0.02 0.06166,0 0.169962,-0.02 0.240699,-0.02 0.07072,0 0.156781,-0.02 0.191242,-0.02 0.03444,0 0.120521,-0.02 0.191242,-0.02 0.07072,0 0.196842,-0.02 0.280266,-0.022 0.245151,-0.02 0.450371,-0.038 0.626475,-0.054 0.09068,0 0.194542,-0.02 0.230808,-0.02 0.03628,0 0.0805,0 0.09832,-0.02 0.0178,0 0.05192,0 0.07584,0 0.0568,0 0.139002,0 0.188542,-0.02 0.02176,0 0.0671,-0.02 0.100781,-0.02 h 0.06122 l 0.0096,-0.024 c 0.0054,-0.02 0.0098,-0.03 0.0098,-0.042 0,-0.02 0.0116,-0.036 0.0279,-0.04 0.02984,0 -0.02374,-0.02 -0.181042,0 -0.655079,0.028 -3.8214145,0.176 -4.248693,0.198 -0.286529,0.02 -0.6307627,0.03 -0.7649601,0.036 -0.1342014,0 -0.3345055,0.02 -0.4451286,0.02 -0.1106212,0 -0.2325285,0.02 -0.2709029,0.02 -0.066621,0 -0.070881,0 -0.094501,-0.02 -0.0136,0 -0.053341,-0.056 -0.088301,-0.098 -0.03498,-0.044 -0.1351214,-0.166 -0.2225544,-0.2712 -0.087441,-0.106 -0.1830419,-0.2268 -0.2124382,-0.2704 -0.0294,-0.044 -0.078921,-0.106 -0.1100011,-0.138 -0.04274,-0.044 -0.054841,-0.062 -0.049541,-0.068 0.0112,-0.02 0.061041,-0.02 0.2457046,-0.02 0.095041,0 0.2336205,0 0.3079733,0 0.1540616,0 1.0857774,-0.02 1.7706206,-0.02 0.2538866,0 0.4868391,0 0.5176674,0 0.03084,0 0.2608127,0 0.5110734,0 1.0572695,0 1.2942595,-0.02 1.3254915,-0.02 0.0182,0 0.264439,0 0.547344,0 0.746408,0 1.190907,0 1.266141,-0.02 0.03628,0 0.201909,0 0.368092,0 0.166182,0 0.304475,0 0.307321,0 0.0028,0 0.197762,0 0.433136,0 0.235381,0 0.474703,0 0.53183,0 h 0.103861 v 0.176 0.176 h -0.0182 c -0.04462,0 -0.07068,0.02 -0.168422,0.072 -0.135061,0.072 -0.207172,0.118 -0.257529,0.17 -0.04334,0.044 -0.324553,0.3702 -0.372488,0.4326 -0.0156,0.02 -0.04196,0.066 -0.05838,0.1 -0.0164,0.036 -0.04592,0.096 -0.06554,0.136 -0.05028,0.104 -0.05646,0.14 -0.05762,0.3424 -8.16e-4,0.136 0.0012,0.174 0.0108,0.219 0.02462,0.114 0.06346,0.2064 0.125661,0.2988 0.06062,0.09 0.225992,0.2424 0.313819,0.2892 0.08542,0.046 0.225525,0.08 0.373158,0.094 0.08854,0 0.136042,0 0.303347,-0.02 0.03988,0 0.09958,-0.02 0.132662,-0.02 0.03308,0 0.07968,-0.02 0.103581,-0.022 0.0239,0 0.114061,-0.038 0.200362,-0.064 0.08628,-0.026 0.2182217,-0.072 0.2931687,-0.102 0.07496,-0.03 0.23371,-0.092 0.352804,-0.134 0.119101,-0.044 0.223112,-0.084 0.231146,-0.09 0.0138,0 0.0178,0 0.06924,0.038 0.08238,0.074 0.370238,0.3774 0.452453,0.4776 0.02524,0.03 0.03412,0.048 0.03412,0.062 0,0.026 -0.819317,2.1323 -0.836165,2.1491 -0.0068,0 -0.118561,-0.06 -0.37722,-0.2264 -0.0816,-0.052 -0.1706417,-0.108 -0.1978417,-0.124 -0.05994,-0.036 -0.117141,-0.076 -0.125501,-0.094 -0.012,-0.022 0.0162,-0.076 0.102641,-0.2008 0.114361,-0.164 0.6999647,-1.0451 0.7201927,-1.0849 0.04542,-0.09 0.04322,-0.142 -0.0068,-0.168 -0.031,-0.02 -0.05864,-0.02 -0.0967,0.02 -0.04806,0.032 -0.0532,0.046 -0.05244,0.136 4.08e-4,0.044 -0.0016,0.086 -0.0044,0.092 -0.011,0.028 -0.268343,0.4175 -0.286681,0.4343 -0.026,0.024 -0.03128,0.022 -0.03638,0 -0.0144,-0.084 -0.09024,-0.3413 -0.1052407,-0.3579 -0.015,-0.02 -0.0412,-0.02 -0.06254,0 l -0.0164,0.02 0.0018,0.1401 c 10e-4,0.076 0.005,0.192 0.009,0.2526 0.008,0.13 0.0034,0.2 -0.0156,0.2374 -0.0074,0.02 -0.03462,0.048 -0.06056,0.076 -0.05994,0.064 -0.131582,0.142 -0.303149,0.3364 -0.07538,0.084 -0.143142,0.162 -0.150542,0.17 -0.0074,0 -0.0146,0.02 -0.016,0.02 -0.0014,0 0.0124,-0.2304 0.03056,-0.509 0.0182,-0.2784 0.0331,-0.5206 0.0331,-0.5382 v -0.032 h -0.02142 c -0.05158,0 -0.07284,0.048 -0.09808,0.182 -0.0146,0.076 -0.0461,0.2214 -0.143261,0.6538 -0.0326,0.144 -0.06726,0.3038 -0.07704,0.3526 -0.02808,0.14 -0.0383,0.168 -0.07786,0.2074 -0.0188,0.02 -0.07558,0.062 -0.126361,0.096 -0.0811,0.054 -0.282049,0.198 -0.587862,0.4194 l -0.09326,0.068 0.327991,-0.9836 c 0.180402,-0.541 0.329962,-0.9942 0.332368,-1.007 0.0044,-0.024 0.0042,-0.024 -0.02544,-0.032 -0.04732,-0.02 -0.08662,0 -0.103081,0 -0.0178,0.02 -0.08808,0.164 -0.150821,0.3156 -0.02642,0.062 -0.194902,0.4506 -0.374376,0.8606 -0.179482,0.4098 -0.336641,0.771 -0.349251,0.8028 l -0.02292,0.058 h -0.05368 c -0.02952,0 -0.07444,0 -0.09984,0 z m 8.1348989,-0.162 c -0.016,0 -0.03598,-0.02 -0.04444,-0.02 -0.0174,-0.02 -0.08026,-0.144 -0.0979,-0.198 -0.0064,-0.02 -0.134021,-0.3278 -0.283709,-0.6852 -0.149681,-0.3572 -0.289075,-0.691 -0.309757,-0.7418 -0.09052,-0.2222 -0.122321,-0.2891 -0.144562,-0.3037 -0.0144,0 -0.018,0 -0.04066,0 -0.04388,0.02 -0.04378,0.02 -0.019,0.086 0.02814,0.076 0.419888,1.2526 0.487979,1.4652 0.04762,0.148 0.0663,0.2342 0.05126,0.2342 -0.0036,0 -0.145661,-0.052 -0.315801,-0.116 -0.170142,-0.064 -0.362156,-0.134 -0.426706,-0.158 -0.06456,-0.024 -0.124582,-0.046 -0.133402,-0.052 -0.03158,-0.02 -0.04608,-0.07 -0.06564,-0.2214 -0.0204,-0.158 -0.202269,-1.2101 -0.211825,-1.2249 -0.007,-0.02 -0.016,-0.02 -0.0323,-0.02 -0.04356,0 -0.04756,0.02 -0.04012,0.1941 0.0024,0.058 0.0074,0.2362 0.0112,0.3958 0.0038,0.16 0.009,0.3346 0.0116,0.389 0.0026,0.054 0.0038,0.102 0.0024,0.104 -0.0014,0 -0.07372,-0.062 -0.160762,-0.144 -0.08704,-0.084 -0.191902,-0.18 -0.233016,-0.2172 -0.04112,-0.038 -0.08082,-0.076 -0.08826,-0.086 -0.02454,-0.034 -0.02998,-0.074 -0.02198,-0.158 0.004,-0.042 0.0124,-0.182 0.0186,-0.3122 0.013,-0.2683 0.0138,-0.2617 -0.03838,-0.2749 -0.0156,0 -0.03008,0 -0.03206,0 -0.002,0 -0.0092,0.022 -0.016,0.042 -0.0068,0.02 -0.0486,0.106 -0.09288,0.1901 l -0.08052,0.152 -0.03934,-0.056 c -0.059,-0.082 -0.113102,-0.164 -0.166222,-0.2527 -0.0384,-0.064 -0.04706,-0.082 -0.04452,-0.098 0.0018,-0.02 0.02036,-0.048 0.04136,-0.086 0.04344,-0.076 0.0461,-0.092 0.0218,-0.14 -0.0184,-0.036 -0.03128,-0.04 -0.06976,-0.028 -0.03262,0.02 -0.106321,0.086 -0.129261,0.132 -0.03328,0.068 -0.03362,0.066 0.04512,0.2268 0.0388,0.08 0.103101,0.2225 0.142922,0.3167 0.06706,0.158 0.07688,0.178 0.133161,0.2572 0.03342,0.048 0.142702,0.2014 0.242839,0.3428 0.100141,0.142 0.186662,0.2624 0.192282,0.2686 0.0056,0 0.0086,0.02 0.0068,0.02 -0.0018,0 -0.137501,0.088 -0.301549,0.186 -0.164042,0.096 -0.306301,0.182 -0.31613,0.19 -0.0098,0 -0.02176,0.02 -0.02652,0.02 -0.0054,0 -0.094,-0.2294 -0.238758,-0.6182 -0.126562,-0.3402 -0.311054,-0.8348 -0.409991,-1.0995 l -0.179882,-0.481 0.0903,-0.096 c 0.04966,-0.052 0.197322,-0.2038 0.328124,-0.3362 l 0.237824,-0.241 0.03272,0.02 c 0.04734,0.028 0.241844,0.114 0.349045,0.152 0.164122,0.06 0.451491,0.132 0.576896,0.146 0.08664,0 0.486546,0.02 0.584703,0 0.137021,0 0.275892,-0.058 0.407674,-0.144 0.09292,-0.06 0.173542,-0.16 0.234482,-0.288 0.03492,-0.074 0.04672,-0.12 0.06228,-0.2412 0.0058,-0.046 0.0162,-0.116 0.0229,-0.158 0.03126,-0.192 0.02542,-0.223 -0.0826,-0.4452 -0.0823,-0.17 -0.169861,-0.2954 -0.277461,-0.3994 -0.107081,-0.104 -0.199522,-0.162 -0.350493,-0.2174 -0.126722,-0.048 -0.150042,-0.06 -0.156082,-0.084 -0.0024,0 -0.006,-0.104 -0.008,-0.2086 l -0.0036,-0.19 h 0.147522 c 0.08114,0 0.221058,0 0.310923,0 0.0992,0 0.171722,0 0.184602,0 0.03036,0 0.118961,0 0.225726,0 0.06372,0 0.175062,0 0.3594,0 0.146881,0 0.370938,0 0.497883,0 0.126941,0 0.438535,0.02 0.692421,0.02 0.253887,0 0.568444,0 0.699016,0.02 0.511421,0.02 0.770652,0.02 1.246357,0.026 0.605432,0 1.043955,0.02 1.447493,0.03 0.168662,0 0.514369,0.02 0.768256,0.02 0.253889,0 0.666375,0.02 0.916636,0.02 0.25026,0.02 0.601686,0.02 0.780942,0.02 0.312881,0 0.343418,0 0.343418,0.028 0,0 -0.0128,0.02 -0.02828,0.022 -0.0156,0 -0.06822,0.054 -0.117061,0.098 -0.04882,0.044 -0.189662,0.168 -0.312985,0.2758 -0.123322,0.106 -0.260491,0.2276 -0.304833,0.2682 -0.04434,0.04 -0.09254,0.082 -0.107122,0.092 -0.04472,0.028 -0.102121,0.032 -0.295997,0.02 -0.093,0 -0.384252,-0.02 -0.647208,-0.02 -0.262955,0 -0.540418,-0.02 -0.616585,-0.02 -0.07616,0 -0.313569,-0.02 -0.527558,-0.02 -0.213992,0 -0.614606,-0.02 -0.890257,-0.026 -0.275651,0 -0.554596,-0.02 -0.61988,-0.02 -0.0653,0 -0.305656,0 -0.534156,-0.02 -0.454325,-0.02 -0.708743,-0.02 -1.10128,-0.032 -0.141441,0 -0.37811,-0.02 -0.525911,-0.02 h -0.268725 v 0.024 c 0,0.022 0.0018,0.024 0.02144,0.026 0.0118,0 0.159422,0.02 0.328076,0.03 0.218296,0.02 0.39879,0.03 0.626476,0.038 0.175902,0 0.331702,0.02 0.34621,0.02 0.0144,0 0.05484,0 0.08962,0 0.0348,0 0.07884,0 0.09788,0.02 0.02486,0 0.05724,0 0.114801,0 0.05692,0 0.100741,0 0.151102,0 0.138461,0.02 0.260934,0.03 0.426952,0.036 0.133442,0 0.187782,0 0.263171,0.02 0.05226,0 0.113461,0.02 0.136001,0.02 0.02254,0 0.05318,0 0.06806,0 0.03268,0.02 0.06814,0.02 0.218592,0.024 0.06346,0 0.156942,0.02 0.207727,0.02 0.05078,0 0.153161,0.02 0.22751,0.02 0.07434,0 0.210858,0.02 0.303347,0.03 0.281359,0.038 0.430819,0.052 0.959498,0.09 0.623461,0.044 1.172415,0.092 1.182523,0.102 0.0048,0 0.0134,0 -0.328536,0.3136 -0.157781,0.146 -0.334341,0.3122 -0.392374,0.369 -0.145841,0.142 -0.195682,0.178 -0.250428,0.178 -0.0128,0 -0.359392,-0.058 -0.770119,-0.128 -0.739467,-0.126 -1.325376,-0.2276 -3.059688,-0.525 -0.492301,-0.086 -0.896981,-0.152 -0.899289,-0.15 -0.0024,0 -0.0022,0.02 2.04e-4,0.028 0.0076,0.042 0.04102,0.056 0.224646,0.094 0.06166,0.02 0.313897,0.068 0.560532,0.122 0.246635,0.054 0.892069,0.196 1.434301,0.3128 1.67549,0.364 2.012199,0.4376 2.08386,0.4552 0.03808,0 0.09298,0.02 0.122001,0.02 0.07164,0 0.07766,0 0.04966,0.034 -0.0122,0 -0.0819,0.076 -0.154702,0.144 -0.0728,0.07 -0.219914,0.207 -0.326911,0.3062 -0.107001,0.098 -0.220319,0.2048 -0.251829,0.2352 -0.079,0.076 -0.07184,0.076 -0.302107,-0.02 -0.0526,-0.02 -0.230642,-0.086 -0.39567,-0.146 -0.165022,-0.06 -0.518162,-0.188 -0.784744,-0.2844 -0.266583,-0.096 -0.704292,-0.2554 -0.972689,-0.3528 -0.268394,-0.096 -0.611144,-0.2216 -0.761662,-0.276 -0.150521,-0.054 -0.310765,-0.114 -0.356101,-0.132 -0.09826,-0.038 -0.166082,-0.06 -0.191202,-0.06 -0.02972,0 -0.04798,0.02 -0.04798,0.05 0,0.05 0.03124,0.078 0.136042,0.118 0.03316,0.02 0.187901,0.078 0.343855,0.148 0.155962,0.068 0.877067,0.3842 1.602461,0.7014 0.813895,0.356 1.31968,0.5807 1.320942,0.5867 0.0032,0.02 -0.07218,0.086 -0.157022,0.15 -0.04172,0.03 -0.22273,0.174 -0.402264,0.3178 -0.320347,0.2562 -0.377866,0.2984 -0.387616,0.284 -0.0026,0 -0.173902,-0.112 -0.380642,-0.2404 -0.661119,-0.4102 -0.850155,-0.5274 -1.187009,-0.7365 -0.718133,-0.4454 -0.931369,-0.5786 -0.969346,-0.6054 -0.04702,-0.034 -0.08442,-0.054 -0.113801,-0.058 h -0.02144 v 0.028 c 0,0.026 0.0028,0.032 0.04452,0.072 0.04508,0.044 0.224371,0.198 0.542398,0.4678 1.268719,1.0773 1.461471,1.2397 1.587259,1.3369 0.0869,0.068 0.107541,0.088 0.107521,0.106 -4e-6,0 -0.0198,0.02 -0.05112,0.032 -0.0281,0.02 -0.08968,0.046 -0.136821,0.076 -0.07448,0.046 -0.629057,0.3594 -0.697368,0.395 -0.0136,0 -0.02474,0.02 -0.02474,0.02 0,0.02 -0.0184,0 -0.03444,-0.026 -0.01,-0.02 -0.03964,-0.058 -0.06614,-0.086 -0.05942,-0.068 -0.295823,-0.3474 -0.789872,-0.9324 -0.208266,-0.2466 -0.430795,-0.5078 -0.494509,-0.5804 -0.185342,-0.2111 -0.314544,-0.3703 -0.324402,-0.3999 -0.0018,0 -0.05836,0 -0.0701,0.02 -0.0012,0 0.0096,0.02 0.02394,0.036 0.0144,0.02 0.05068,0.078 0.08066,0.13 0.02996,0.054 0.240704,0.4059 0.468315,0.7849 0.227612,0.379 0.486453,0.8112 0.575206,0.9604 l 0.161361,0.2714 h -0.106261 c -0.190722,0 -0.877079,0 -0.906897,0 z m -4.489308,-2.8301 c -0.0186,-0.02 -0.05668,-0.064 -0.08478,-0.1 -0.04078,-0.054 -0.31843,-0.3918 -0.500542,-0.6114 l -0.03254,-0.038 0.03156,-0.064 c 0.106141,-0.2142 0.211291,-0.3456 0.33287,-0.4158 l 0.06032,-0.036 0.02788,0.02 c 0.0154,0 0.05014,0.036 0.07734,0.058 0.06378,0.056 0.427398,0.3478 0.44833,0.3616 l 0.016,0.02 -0.0144,0.054 c -0.008,0.03 -0.03502,0.104 -0.0602,0.164 -0.0252,0.062 -0.08194,0.204 -0.126142,0.3182 -0.08352,0.216 -0.126861,0.3166 -0.136421,0.3166 -0.0032,0 -0.02076,-0.02 -0.03928,-0.036 z m 0.958385,-0.036 c -0.0052,0 -0.02196,-0.048 -0.03734,-0.084 -0.04556,-0.108 -0.188782,-0.4274 -0.240644,-0.5374 -0.02648,-0.056 -0.04976,-0.112 -0.05174,-0.122 -0.0036,-0.02 -0.0028,-0.02 0.271361,-0.2116 0.151222,-0.106 0.301231,-0.2084 0.333335,-0.2296 0.03212,-0.02 0.07286,-0.052 0.09056,-0.068 l 0.03218,-0.028 0.03144,0.02 c 0.04192,0.02 0.131221,0.11 0.169362,0.168 0.067,0.104 0.109361,0.2194 0.109361,0.2982 0,0.058 -0.0215,0.094 -0.124861,0.2002 -0.04962,0.052 -0.189082,0.2018 -0.309924,0.3342 -0.120841,0.132 -0.229608,0.2504 -0.24171,0.2622 l -0.02202,0.022 -0.0094,-0.02 z M 9.5625781,1038.27 c -0.0066,0 -0.08776,-0.098 -0.180242,-0.198 -0.09248,-0.1 -0.175321,-0.192 -0.184101,-0.2056 -0.02064,-0.028 -0.02058,-0.058 1.98e-4,-0.078 0.0088,0 0.0561,-0.034 0.104961,-0.056 0.04886,-0.02 0.159581,-0.072 0.246052,-0.112 l 0.157222,-0.074 0.103261,0.054 c 0.0568,0.028 0.133141,0.07 0.169662,0.092 0.03652,0.02 0.07138,0.038 0.07748,0.038 0.0064,0 0.011,0 0.011,0.02 0,0.02 -0.04122,0.032 -0.1846017,0.1 -0.192322,0.09 -0.267907,0.134 -0.288133,0.164 -0.0106,0.02 -0.012,0.034 -0.012,0.148 0,0.072 -0.002,0.13 -0.0044,0.13 -0.0024,0 -0.0098,0 -0.0164,-0.02 z m 4.4835849,-0.072 c -0.02678,-0.068 -0.05264,-0.16 -0.0623,-0.2194 -0.0042,-0.024 -0.0122,-0.05 -0.0178,-0.058 -0.0078,0 -0.06672,-0.02 -0.241213,-0.038 -0.249254,-0.03 -0.255711,-0.03 -0.252403,-0.04 0.0012,0 0.0832,-0.076 0.182182,-0.16 l 0.179982,-0.154 h 0.04404 c 0.07286,0 0.419604,0.104 0.450752,0.122 0.0242,0.02 0.03514,0.044 0.035,0.092 -8.8e-5,0.034 -0.0046,0.048 -0.03368,0.108 -0.04018,0.082 -0.245354,0.3952 -0.259158,0.3952 -0.0022,0 -0.0136,-0.024 -0.02534,-0.054 z m -0.946763,-0.156 c -0.0016,0 -0.014,-0.078 -0.02762,-0.166 -0.02124,-0.14 -0.0276,-0.168 -0.04636,-0.2078 -0.06314,-0.134 -0.228139,-0.3094 -0.350268,-0.3714 -0.0152,0 -0.0786,-0.026 -0.141061,-0.04 -0.06246,-0.02 -0.120582,-0.03 -0.129122,-0.038 -0.018,-0.02 -0.019,-0.028 -0.0068,-0.098 0.0076,-0.044 0.0086,-0.046 0.02762,-0.048 0.0108,0 0.289714,0.02 0.619767,0.048 0.330055,0.028 0.643127,0.054 0.695719,0.058 h 0.09562 l 0.0046,0.12 c 0.0036,0.092 0.0028,0.124 -0.0034,0.13 -0.0044,0 -0.02506,0 -0.04582,0.02 -0.175322,0.022 -0.345898,0.176 -0.446827,0.4062 -0.0188,0.042 -0.04312,0.088 -0.054,0.102 -0.02212,0.026 -0.06536,0.05 -0.133362,0.074 -0.0502,0.02 -0.05438,0.02 -0.05876,0.02 z m -2.543253,-0.132 c 0,0 -0.2032,-0.122 -0.451559,-0.2622 -0.2483589,-0.142 -0.4516329,-0.2598 -0.4517229,-0.2638 -8.8e-5,0 0.0359,-0.08 0.07994,-0.17 l 0.0801,-0.164 h 0.109481 c 0.06022,0 0.1421219,0 0.1820219,0.02 0.0399,0 0.247623,0.02 0.461613,0.03 0.213992,0.02 0.446943,0.028 0.517667,0.032 0.07072,0 0.136762,0 0.146722,0 h 0.0182 v 0.05 c 0,0.048 -10e-4,0.052 -0.02176,0.072 -0.017,0.02 -0.03954,0.028 -0.104801,0.048 -0.100501,0.032 -0.120821,0.042 -0.188382,0.092 -0.132862,0.1 -0.252117,0.2618 -0.33192,0.4504 -0.0158,0.038 -0.03106,0.064 -0.03638,0.064 -0.005,0 -0.0092,0 -0.0092,0 z m -0.358126,-0.4552 c 0.04946,-0.036 0.067,-0.072 0.0584,-0.116 -0.0076,-0.042 -0.06648,-0.086 -0.122582,-0.094 -0.0201,0 -0.03032,0 -0.05422,0.02 -0.0771,0.052 -0.06906,0.152 0.0158,0.194 0.04512,0.022 0.06972,0.022 0.102641,0 z"
       id="path4158"
       inkscape:connector-curvature="0" />
  </g>
</svg>
