<?xml version="1.0" encoding="UTF-8" standalone="no"?>
<!-- Created with Inkscape (http://www.inkscape.org/) -->

<svg
   xmlns:dc="http://purl.org/dc/elements/1.1/"
   xmlns:cc="http://creativecommons.org/ns#"
   xmlns:rdf="http://www.w3.org/1999/02/22-rdf-syntax-ns#"
   xmlns:svg="http://www.w3.org/2000/svg"
   xmlns="http://www.w3.org/2000/svg"
   xmlns:sodipodi="http://sodipodi.sourceforge.net/DTD/sodipodi-0.dtd"
   xmlns:inkscape="http://www.inkscape.org/namespaces/inkscape"
   version="1.1"
   width="24"
   height="24"
   id="svg2"
   inkscape:version="0.91 r13725"
   sodipodi:docname="xan_st_ferengi.svg"
   inkscape:export-filename="D:\dev\XansSciFiMashup\raw\flags\small\xan_st_federation.png"
   inkscape:export-xdpi="90"
   inkscape:export-ydpi="90">
  <sodipodi:namedview
     pagecolor="#0e8e00"
     bordercolor="#666666"
     borderopacity="1"
     objecttolerance="10"
     gridtolerance="10"
     guidetolerance="10"
     inkscape:pageopacity="0"
     inkscape:pageshadow="2"
     inkscape:window-width="1735"
     inkscape:window-height="1057"
     id="namedview93"
     showgrid="false"
     inkscape:zoom="19.506456"
     inkscape:cx="17.473621"
     inkscape:cy="8.7401447"
     inkscape:window-x="2097"
     inkscape:window-y="-8"
     inkscape:window-maximized="1"
     inkscape:current-layer="svg2" />
  <defs
     id="defs4" />
  <metadata
     id="metadata7">
    <rdf:RDF>
      <cc:Work
         rdf:about="">
        <dc:format>image/svg+xml</dc:format>
        <dc:type
           rdf:resource="http://purl.org/dc/dcmitype/StillImage" />
        <dc:title></dc:title>
      </cc:Work>
    </rdf:RDF>
  </metadata>
  <path
     style="fill:#000000"
     d="m 9.4411291,20.928095 c -1.44009,-0.0917 -2.79296,-0.50225 -4.00432,-1.21517 -1.71249,-1.00786 -3.08962,-2.61862 -3.7906,-4.43368 -0.30684,-0.79452 -0.52088,-1.68602 -0.5795,-2.41367 -0.0137,-0.17012 -0.0343,-0.38389 -0.0458,-0.47503 l -0.0209,-0.16571 4.92759,0 c 2.71017,0 4.9279499,0.0149 4.9283899,0.0331 0.005,0.20947 0.15734,1.05281 0.24924,1.3809 0.67588,2.41273 2.32611,3.97687 4.74919,4.50145 0.22765,0.0493 0.55009,0.10353 0.71654,0.12055 l 0.30264,0.0309 2.61562,-2.61534 2.61562,-2.61534 0.4473,0.0127 0.4473,0.0127 -2.28293,3.94287 -2.28293,3.94288 -4.24213,-0.006 c -2.33318,-0.003 -4.4708199,-0.0205 -4.7503099,-0.0383 z m 5.9713899,-3.86957 c -1.67706,-0.55413 -2.95795,-1.85175 -3.4235,-3.46823 -0.0588,-0.20416 -0.12081,-0.43583 -0.13781,-0.51482 l -0.0309,-0.14361 0.35647,0 0.35646,0 0.16038,0.32037 c 0.42621,0.85141 1.07083,1.47323 1.90827,1.84079 0.52024,0.22833 0.39068,0.35467 1.38935,-1.35471 l 0.88421,-1.51348 1.87811,0 1.87812,0 -1.85824,1.88908 c -1.02204,1.03899 -2.1231,2.15077 -2.44682,2.47062 l -0.58857,0.58155 -0.32553,-0.10756 z m -1.11061,-3.70479 c -0.30771,-0.0645 -0.49133,-0.16199 -0.70173,-0.37239 -0.6567,-0.6567 -0.478,-1.79324 0.34823,-2.21475 0.37445,-0.19103 0.90725,-0.19123 1.28007,-4.7e-4 0.63219,0.32346 0.91969,1.17027 0.61526,1.81223 -0.28295,0.59668 -0.90425,0.90913 -1.54183,0.77538 z m -13.2797299,-1.6923 c 0.0104,-0.0668 0.0299,-0.28115 0.0433,-0.47624 0.0662,-0.96315 0.4383,-2.27257 0.91318,-3.2133 0.57808,-1.14518 1.55684,-2.31333 2.59064,-3.09195 1.21645,-0.91618 2.43142,-1.43048 4.07643,-1.72558 0.48747,-0.0875 0.69723,-0.0919 5.1498699,-0.10887 l 4.64169,-0.0177 2.27387,3.92134 c 1.25063,2.15674 2.2805,3.93774 2.2886,3.95779 0.008,0.02 -0.19214,0.0365 -0.44499,0.0365 l -0.45971,0 -2.60299,-2.61257 -2.60298,-2.61256 -0.30318,0.0282 c -0.69504,0.0646 -1.70608,0.35568 -2.34692,0.67569 -1.5676,0.78281 -2.691,2.22917 -3.15995,4.06841 -0.048,0.1883 -0.10861,0.49151 -0.13465,0.67379 -0.026,0.18228 -0.0577,0.39604 -0.0703,0.47503 l -0.0229,0.14362 -4.9239599,0 -4.92396,0 0.0189,-0.12152 z m 15.0030999,-1.36191 c -0.47393,-0.81574 -0.87292,-1.5019 -0.88666,-1.52482 -0.0308,-0.0514 -0.40942,0.0751 -0.77092,0.25763 -0.72564,0.3663 -1.38041,1.06377 -1.70068,1.8116 l -0.0994,0.23199 -0.37101,0 -0.371,0 0.0271,-0.12152 c 0.0641,-0.28682 0.20553,-0.7756 0.2687,-0.92836 0.62468,-1.51054 1.71364,-2.53027 3.26809,-3.06032 l 0.35853,-0.12226 1.89534,1.90633 c 1.04243,1.04849 2.14349,2.15987 2.44679,2.46975 l 0.55146,0.56341 -1.87736,-1.4e-4 -1.87737,-1.3e-4 -0.86168,-1.48315 z"
     id="path4147"
     inkscape:connector-curvature="0" />
</svg>
