<?xml version="1.0" encoding="UTF-8" standalone="no"?>
<!-- Created with Inkscape (http://www.inkscape.org/) -->

<svg
   xmlns:dc="http://purl.org/dc/elements/1.1/"
   xmlns:cc="http://creativecommons.org/ns#"
   xmlns:rdf="http://www.w3.org/1999/02/22-rdf-syntax-ns#"
   xmlns:svg="http://www.w3.org/2000/svg"
   xmlns="http://www.w3.org/2000/svg"
   xmlns:sodipodi="http://sodipodi.sourceforge.net/DTD/sodipodi-0.dtd"
   xmlns:inkscape="http://www.inkscape.org/namespaces/inkscape"
   id="svg2860"
   version="1.1"
   inkscape:version="0.92.2 (5c3e80d, 2017-08-06)"
   width="25.6"
   height="25.6"
   sodipodi:docname="xan_st_dominion.svg"
   inkscape:export-filename="D:\dev\XansSciFiMashup\raw\flags\small\xan_st_klingon.png"
   inkscape:export-xdpi="90"
   inkscape:export-ydpi="90">
  <metadata
     id="metadata2866">
    <rdf:RDF>
      <cc:Work
         rdf:about="">
        <dc:format>image/svg+xml</dc:format>
        <dc:type
           rdf:resource="http://purl.org/dc/dcmitype/StillImage" />
        <dc:title></dc:title>
      </cc:Work>
    </rdf:RDF>
  </metadata>
  <defs
     id="defs2864">
    <inkscape:perspective
       sodipodi:type="inkscape:persp3d"
       inkscape:vp_x="0 : 0.53333333 : 1"
       inkscape:vp_y="0 : 1066.6667 : 0"
       inkscape:vp_z="1.0666667 : 0.53333333 : 1"
       inkscape:persp3d-origin="0.53333333 : 0.35555555 : 1"
       id="perspective2868" />
    <inkscape:perspective
       id="perspective3654"
       inkscape:persp3d-origin="0.53333333 : 0.35555555 : 1"
       inkscape:vp_z="1.0666667 : 0.53333333 : 1"
       inkscape:vp_y="0 : 1066.6667 : 0"
       inkscape:vp_x="0 : 0.53333333 : 1"
       sodipodi:type="inkscape:persp3d" />
    <inkscape:perspective
       id="perspective3676"
       inkscape:persp3d-origin="0.53333333 : 0.35555555 : 1"
       inkscape:vp_z="1.0666667 : 0.53333333 : 1"
       inkscape:vp_y="0 : 1066.6667 : 0"
       inkscape:vp_x="0 : 0.53333333 : 1"
       sodipodi:type="inkscape:persp3d" />
    <inkscape:perspective
       id="perspective3714"
       inkscape:persp3d-origin="0.53333333 : 0.35555555 : 1"
       inkscape:vp_z="1.0666667 : 0.53333333 : 1"
       inkscape:vp_y="0 : 1066.6667 : 0"
       inkscape:vp_x="0 : 0.53333333 : 1"
       sodipodi:type="inkscape:persp3d" />
    <inkscape:perspective
       id="perspective3743"
       inkscape:persp3d-origin="0.53333333 : 0.35555555 : 1"
       inkscape:vp_z="1.0666667 : 0.53333333 : 1"
       inkscape:vp_y="0 : 1066.6667 : 0"
       inkscape:vp_x="0 : 0.53333333 : 1"
       sodipodi:type="inkscape:persp3d" />
    <inkscape:perspective
       id="perspective3773"
       inkscape:persp3d-origin="0.53333333 : 0.35555555 : 1"
       inkscape:vp_z="1.0666667 : 0.53333333 : 1"
       inkscape:vp_y="0 : 1066.6667 : 0"
       inkscape:vp_x="0 : 0.53333333 : 1"
       sodipodi:type="inkscape:persp3d" />
    <inkscape:perspective
       id="perspective3795"
       inkscape:persp3d-origin="0.53333333 : 0.35555555 : 1"
       inkscape:vp_z="1.0666667 : 0.53333333 : 1"
       inkscape:vp_y="0 : 1066.6667 : 0"
       inkscape:vp_x="0 : 0.53333333 : 1"
       sodipodi:type="inkscape:persp3d" />
    <inkscape:perspective
       id="perspective3830"
       inkscape:persp3d-origin="0.53333333 : 0.35555555 : 1"
       inkscape:vp_z="1.0666667 : 0.53333333 : 1"
       inkscape:vp_y="0 : 1066.6667 : 0"
       inkscape:vp_x="0 : 0.53333333 : 1"
       sodipodi:type="inkscape:persp3d" />
    <inkscape:perspective
       id="perspective3860"
       inkscape:persp3d-origin="0.53333333 : 0.35555555 : 1"
       inkscape:vp_z="1.0666667 : 0.53333333 : 1"
       inkscape:vp_y="0 : 1066.6667 : 0"
       inkscape:vp_x="0 : 0.53333333 : 1"
       sodipodi:type="inkscape:persp3d" />
    <inkscape:perspective
       id="perspective3887"
       inkscape:persp3d-origin="0.53333333 : 0.35555555 : 1"
       inkscape:vp_z="1.0666667 : 0.53333333 : 1"
       inkscape:vp_y="0 : 1066.6667 : 0"
       inkscape:vp_x="0 : 0.53333333 : 1"
       sodipodi:type="inkscape:persp3d" />
    <inkscape:perspective
       id="perspective3913"
       inkscape:persp3d-origin="0.53333333 : 0.35555555 : 1"
       inkscape:vp_z="1.0666667 : 0.53333333 : 1"
       inkscape:vp_y="0 : 1066.6667 : 0"
       inkscape:vp_x="0 : 0.53333333 : 1"
       sodipodi:type="inkscape:persp3d" />
    <inkscape:perspective
       id="perspective3964"
       inkscape:persp3d-origin="0.53333333 : 0.35555555 : 1"
       inkscape:vp_z="1.0666667 : 0.53333333 : 1"
       inkscape:vp_y="0 : 1066.6667 : 0"
       inkscape:vp_x="0 : 0.53333333 : 1"
       sodipodi:type="inkscape:persp3d" />
  </defs>
  <sodipodi:namedview
     pagecolor="#ffffff"
     bordercolor="#666666"
     borderopacity="1"
     objecttolerance="10"
     gridtolerance="10"
     guidetolerance="10"
     inkscape:pageopacity="0"
     inkscape:pageshadow="2"
     inkscape:window-width="1708"
     inkscape:window-height="1057"
     id="namedview2862"
     showgrid="false"
     showguides="false"
     inkscape:zoom="15.580819"
     inkscape:cx="30.936058"
     inkscape:cy="12.188089"
     inkscape:window-x="-8"
     inkscape:window-y="843"
     inkscape:window-maximized="1"
     inkscape:current-layer="svg2860" />
  <path
     style="fill:#000000;stroke-width:0.01168644"
     d="m 7.0356602,18.55113 -5.73566,-5.74084 5.75852,-5.7518399 5.7585198,-5.75184 1.08738,1.08733 1.08738,1.08733 h 1.22997 1.22998 v 1.23 1.23001 l 3.42412,3.42411 L 24.3,12.7895 18.54735,18.54216 c -3.16395,3.16396 -5.7579,5.75201 -5.76433,5.75123 -0.006,-8.2e-4 -2.59274,-2.58479 -5.7473598,-5.74226 z M 20.69689,9.3910501 l -3.39123,-3.39999 -0.006,-1.17915 -0.006,-1.17916 -1.18033,8.1e-4 -1.18033,8.2e-4 -1.06058,-1.06698 -1.06058,-1.06698 -5.6442898,5.65039 -5.64429,5.6503899 5.63971,5.63747 5.6397198,5.63746 5.64255,-5.64254 5.64255,-5.64254 z M 7.2415302,18.35518 l -5.55316,-5.55398 5.56175,-5.5685799 5.5617498,-5.56859 1.03151,1.03775 1.03151,1.03776 1.15403,-5.8e-4 1.15404,-5.8e-4 v 1.14673 1.14674 l 3.28096,3.28843 C 22.26846,11.12892 23.784,12.65104 23.8318,12.70278 l 0.0869,0.094 -4.01938,4.0194 c -2.21066,2.21067 -4.02202,4.01939 -4.02524,4.01939 -0.003,0 -0.005,-3.81795 -0.003,-8.48435 l 0.003,-8.4843499 h -0.48391 -0.4839 l -0.005,2.6499 c -0.003,1.45744 -0.008,2.74456 -0.0126,2.86026 -0.004,0.11569 -0.0103,0.32605 -0.0137,0.46745 -0.009,0.3660699 -0.0174,0.6682699 -0.0235,0.8238999 -0.003,0.0739 -0.008,0.21327 -0.0118,0.30969 -0.0106,0.28727 -0.0287,0.71715 -0.035,0.82973 -0.003,0.0578 -0.0112,0.2051 -0.0177,0.32722 -0.0163,0.30621 -0.0223,0.40924 -0.0288,0.49084 -0.003,0.0386 -0.008,0.12007 -0.012,0.18113 -0.004,0.0611 -0.009,0.14521 -0.0118,0.18699 -0.003,0.0418 -0.008,0.11803 -0.0115,0.16945 -0.003,0.0514 -0.009,0.11716 -0.0116,0.14608 -0.003,0.0289 -0.008,0.092 -0.0119,0.14024 -0.0396,0.54008 -0.1443,1.55843 -0.20487,1.99253 -0.006,0.045 -0.0165,0.11862 -0.0228,0.16361 -0.0358,0.25733 -0.11179,0.72648 -0.158,0.97582 -0.0101,0.0546 -0.0257,0.13878 -0.0345,0.18699 -0.009,0.0482 -0.0407,0.20071 -0.0707,0.3389 -0.35411,1.63105 -0.84488,2.58533 -1.4988,2.91439 -0.24283,0.1222 -0.44132,0.15914 -0.85496,0.15914 -0.32044,0 -0.41638,-0.0143 -0.56084,-0.0838 -0.15414,-0.0741 -0.30745,-0.23643 -0.41753,-0.4421 -0.14017,-0.2619 -0.25272,-0.68486 -0.29075,-1.09269 -0.004,-0.045 -0.0108,-0.0949 -0.0147,-0.11102 -0.004,-0.0161 -0.01,-0.63399 -0.0136,-1.37315 l -0.007,-1.34394 -0.37107,-0.003 -0.3710698,-0.003 0.003,2.56826 0.003,2.56826 H 12.82636 c 1.6567,0 3.01218,0.003 3.01218,0.006 0,0.008 -3.03085,3.03846 -3.03849,3.03846 -0.003,0 -2.50476,-2.49929 -5.5589998,-5.55398 z M 10.55997,15.4102 c 0.0209,-0.4236 0.26138,-0.7955 0.64039,-0.99027 0.15544,-0.0799 0.28914,-0.11713 0.45491,-0.12675 l 0.1344,-0.008 0.003,-0.27755 0.003,-0.27756 h -0.0805 c -0.18743,0 -0.40994,-0.0645 -0.58858,-0.17071 -0.13174,-0.0783 -0.32198,-0.2684 -0.39941,-0.3991 -0.10627,-0.1794 -0.17071,-0.4016 -0.17071,-0.58867 v -0.0803 h -0.3839 -0.3838898 l -0.008,0.11516 c -0.0195,0.2978 -0.14056,0.56878 -0.34568,0.7739 -0.20758,0.20758 -0.48283,0.33165 -0.76927,0.34674 l -0.11978,0.006 v 0.28464 0.28464 h 0.0803 c 0.18721,0 0.40981,0.0646 0.58836,0.17072 0.13174,0.0783 0.32199,0.26839 0.39941,0.39909 0.10628,0.1794 0.17072,0.4016 0.17072,0.58868 v 0.0803 h 0.3840198 0.38402 z m -2.3198298,-1.41406 -0.003,-0.26002 -1.11898,-0.003 -1.11897,-0.003 v 0.263 0.263 h 1.12212 1.12212 z"
     id="path3710"
     inkscape:connector-curvature="0"
     sodipodi:nodetypes="scccccccccccscsccccccccccccccccccccccccccccsssccccscccccccccscccccccsccccccccccsssccccccccsccscccccccccsccsccccccccccccc" />
</svg>
