<?xml version="1.0" encoding="UTF-8" standalone="no"?>
<!-- Created with Inkscape (http://www.inkscape.org/) -->

<svg
   xmlns:dc="http://purl.org/dc/elements/1.1/"
   xmlns:cc="http://creativecommons.org/ns#"
   xmlns:rdf="http://www.w3.org/1999/02/22-rdf-syntax-ns#"
   xmlns:svg="http://www.w3.org/2000/svg"
   xmlns="http://www.w3.org/2000/svg"
   xmlns:sodipodi="http://sodipodi.sourceforge.net/DTD/sodipodi-0.dtd"
   xmlns:inkscape="http://www.inkscape.org/namespaces/inkscape"
   width="25.6"
   height="25.6"
   viewBox="0 0 24 24"
   id="svg2"
   version="1.1"
   inkscape:version="0.92.1 r15371"
   sodipodi:docname="xan_w4_darkEldar.svg"
   inkscape:export-filename="D:\dev\XansSciFiMashup\raw\flags\small\xan_w4_darkEldar.png"
   inkscape:export-xdpi="90"
   inkscape:export-ydpi="90">
  <defs
     id="defs4" />
  <sodipodi:namedview
     id="base"
     pagecolor="#3f0181"
     bordercolor="#666666"
     borderopacity="1.0"
     inkscape:pageopacity="0"
     inkscape:pageshadow="2"
     inkscape:zoom="30.374931"
     inkscape:cx="5.30988"
     inkscape:cy="12.007148"
     inkscape:document-units="px"
     inkscape:current-layer="layer1"
     showgrid="false"
     inkscape:window-width="1697"
     inkscape:window-height="1057"
     inkscape:window-x="-8"
     inkscape:window-y="837"
     inkscape:window-maximized="1"
     units="px"
     showguides="false" />
  <metadata
     id="metadata7">
    <rdf:RDF>
      <cc:Work
         rdf:about="">
        <dc:format>image/svg+xml</dc:format>
        <dc:type
           rdf:resource="http://purl.org/dc/dcmitype/StillImage" />
        <dc:title />
      </cc:Work>
    </rdf:RDF>
  </metadata>
  <g
     inkscape:label="Ebene 1"
     inkscape:groupmode="layer"
     id="layer1"
     transform="translate(0,-1028.3622)">
    <path
       style="fill:#000000"
       d=""
       id="path4147"
       inkscape:connector-curvature="0" />
    <path
       style="fill:#000000"
       d=""
       id="path4145"
       inkscape:connector-curvature="0" />
    <path
       style="opacity:0.98999999;fill:#ffffff;fill-opacity:1;stroke:none;stroke-width:35.43307114;stroke-miterlimit:4;stroke-dasharray:none;stroke-dashoffset:0;stroke-opacity:1"
       d="m 14.289721,1029.3575 c -0.03629,-0.01 0.01436,0.073 0.184276,0.3489 0.07188,0.1169 0.160936,0.3218 0.197913,0.4553 0.03698,0.1336 0.154033,0.4751 0.26005,0.759 0.106017,0.2838 0.26989,0.8029 0.364163,1.1535 0.09427,0.3507 0.21404,0.7868 0.266218,0.9694 0.05218,0.1826 0.09487,0.4189 0.09487,0.5251 0,0.1062 0.08196,0.349 0.182139,0.5394 0.203055,0.3861 0.226006,0.5161 0.09107,0.5161 -0.05009,0 -0.09405,0.01 -0.09771,0.015 -0.0037,0.01 -0.02931,0.3703 -0.05704,0.8045 -0.02773,0.4341 -0.06896,0.8644 -0.09155,0.9562 -0.03104,0.1262 -0.01878,0.1669 0.05004,0.1669 0.05009,0 0.105852,-0.057 0.123918,-0.1256 0.02636,-0.1009 0.07265,-0.1218 0.234672,-0.1063 0.192209,0.018 0.201267,0.03 0.188546,0.2471 -0.0074,0.1253 0.01314,0.2277 0.04554,0.2277 0.03239,0 0.05893,0.084 0.05893,0.1877 0,0.1327 0.03351,0.1967 0.114075,0.2177 0.136848,0.036 0.250208,0.2637 0.250208,0.5028 0,0.1605 -0.03043,0.1839 -0.39215,0.3007 -0.215686,0.07 -0.461576,0.1268 -0.546426,0.1268 -0.08485,0 -0.154272,0.027 -0.154272,0.061 0,0.1226 -0.22543,0.056 -0.289935,-0.085 -0.03659,-0.08 -0.150244,-0.1954 -0.252578,-0.2559 -0.194783,-0.115 -0.230585,-0.2512 -0.120359,-0.4572 0.09693,-0.1811 0.02564,-0.2052 -0.245584,-0.083 -0.314106,0.1417 -1.201579,0.1057 -1.522115,-0.062 -0.115775,-0.06 -0.294494,-0.1047 -0.397249,-0.098 -0.372533,0.023 -0.601704,-0.4653 -0.806949,-1.7209 -0.121,-0.7403 -0.464058,-1.8168 -0.560061,-1.7574 -0.03034,0.019 -0.05514,0.2627 -0.05514,0.542 0,0.5032 -0.01587,0.6183 -0.220444,1.6003 -0.08609,0.4132 -0.09148,0.5288 -0.02929,0.6283 0.04846,0.078 0.06173,0.2083 0.03629,0.3589 -0.03265,0.1932 -0.06522,0.2368 -0.176806,0.2368 -0.132305,0 -0.2776,0.203 -0.2776,0.388 0,0.043 -0.05464,0.1283 -0.121427,0.1888 -0.07532,0.068 -0.121428,0.1869 -0.121428,0.3129 0,0.1602 -0.02469,0.2031 -0.117277,0.2031 -0.06453,0 -0.134738,-0.055 -0.155935,-0.1214 -0.04829,-0.1522 -0.104338,-0.1532 -0.2392993,0 -0.05848,0.065 -0.224484,0.1731 -0.368907,0.241 -0.144423,0.068 -0.280021,0.1516 -0.301316,0.186 -0.0213,0.034 -0.160017,0.063 -0.308313,0.063 -0.148296,0 -0.269655,0.027 -0.269655,0.061 0,0.033 -0.06672,0.061 -0.148227,0.061 -0.176529,0 -0.263374,0.1071 -0.128779,0.1587 0.05221,0.02 0.09487,0.074 0.09487,0.121 0,0.1506 -0.49768,0.1061 -0.753113,-0.067 -0.123016,-0.083 -0.249841,-0.1518 -0.28175,-0.1518 -0.03191,0 -0.05799,-0.038 -0.05799,-0.084 0,-0.046 -0.04236,-0.1188 -0.09415,-0.1618 -0.121911,-0.1011 -0.09156,-0.4193 0.04838,-0.5069 0.07819,-0.049 0.137764,-0.047 0.226847,0.01 0.127695,0.08 0.36535,0.103 0.36535,0.036 0,-0.022 -0.0701,-0.1318 -0.155816,-0.2442 -0.08772,-0.115 -0.147434,-0.2634 -0.136606,-0.3396 0.01571,-0.1106 0.05534,-0.1338 0.21653,-0.1264 0.187896,0.01 0.243772,-0.033 0.158307,-0.1188 -0.04849,-0.048 -0.324529,-0.7211 -0.324914,-0.7917 -1.19e-4,-0.028 -0.03985,-0.1376 -0.08823,-0.2429 -0.130455,-0.2838 -0.25782,-0.8468 -0.338432,-1.4967 -0.03935,-0.3172 -0.112092,-0.6533 -0.161746,-0.7468 -0.09527,-0.1795 -0.06546,-0.6866 0.05372,-0.9131 0.03236,-0.062 0.08282,-0.3647 0.112061,-0.6737 0.05573,-0.589 0.246682,-1.3185 0.515118,-1.9674 0.260942,-0.6307 0.208112,-0.5799 -0.431518,0.4153 -0.160966,0.2505 -0.392545,0.6809 -0.514645,0.9564 -0.1221,0.2755 -0.294239,0.5881 -0.382545,0.6947 -0.0883,0.1066 -0.160559,0.2586 -0.160559,0.3379 0,0.1647 -0.102822,0.381 -0.223646,0.4702 -0.103877,0.077 -0.199187,0.5848 -0.227558,1.214 -0.01204,0.2672 -0.05441,0.6086 -0.09415,0.7589 -0.212587,0.8039 -0.240499,1.0556 -0.256611,2.3072 -0.01618,1.2565 -0.0117,1.3144 0.119412,1.5459 0.07491,0.1323 0.136132,0.3427 0.136132,0.4675 0,0.1249 0.04401,0.3856 0.09771,0.5792 0.0537,0.1936 0.162387,0.6252 0.241552,0.9591 0.205087,0.8651 0.241054,0.9889 0.405548,1.3964 0.08088,0.2004 0.211996,0.5346 0.291475,0.7426 0.178008,0.4658 0.304613,0.5529 0.230997,0.1589 -0.02795,-0.1496 -0.06331,-0.2923 -0.07862,-0.3171 -0.04136,-0.067 0.07923,-1.2559 0.144907,-1.4287 0.08271,-0.2175 0.91023,-0.9964 1.139452,-1.0724 0.107947,-0.036 0.258213,-0.056 0.333926,-0.046 0.191989,0.027 0.405168,0.4793 0.408395,0.8659 0.0028,0.3387 -0.103022,0.9798 -0.189137,1.1459 -0.04007,0.077 -0.01992,0.2092 0.06735,0.4424 0.168468,0.4503 0.164724,0.6313 -0.01304,0.6313 -0.08114,0 -0.161925,-0.053 -0.19732,-0.1296 -0.03296,-0.071 -0.08732,-0.1191 -0.120716,-0.1062 -0.06386,0.025 -0.06276,0.135 0.0046,0.468 0.0376,0.1858 0.01502,0.2266 -0.2859,0.5161 -0.17968,0.1729 -0.58599,0.5102 -0.903,0.7497 -0.660822,0.4992 -0.982654,0.8092 -0.840033,0.8092 0.05116,0 0.145091,-0.058 0.208704,-0.1293 0.15004,-0.1677 0.486239,-0.3781 0.747776,-0.4679 0.113902,-0.039 0.29149,-0.1345 0.39464,-0.2119 0.10315,-0.078 0.453064,-0.2685 0.777659,-0.4244 0.446066,-0.2143 0.613137,-0.3278 0.684098,-0.465 0.09344,-0.1807 0.367285,-0.3658 0.541325,-0.3658 0.05023,0 0.1597303,0.068 0.2432123,0.1518 0.200524,0.2005 0.582236,0.1978 0.582236,0 0,-0.1782 0.431553,-0.274 0.667022,-0.148 0.06192,0.033 0.146375,0.1629 0.187716,0.2884 0.04134,0.1255 0.129022,0.3011 0.194828,0.3903 0.158712,0.2149 0.102575,0.4925 -0.09392,0.4642 -0.07312,-0.011 -0.164658,-0.083 -0.203367,-0.1609 -0.0982,-0.1977 -0.184393,-0.2733 -0.258983,-0.2272 -0.04439,0.027 -0.04422,0.089 5.91e-4,0.2042 0.03535,0.091 0.07517,0.5513 0.08834,1.0237 l 0.02395,0.859 -0.500415,0.036 c -1.2124503,0.087 -1.5069673,0.1286 -1.5642123,0.2192 -0.03164,0.05 -0.05795,0.2739 -0.05846,0.4973 -4.89e-4,0.2234 -0.02471,0.421 -0.05372,0.4389 -0.02901,0.018 -0.07089,0.2176 -0.09321,0.4437 -0.02567,0.2602 -0.09001,0.491 -0.175026,0.6286 -0.0739,0.1197 -0.188996,0.3072 -0.255781,0.4168 -0.06679,0.1096 -0.184215,0.295 -0.260999,0.412 -0.07678,0.117 -0.131426,0.2208 -0.121427,0.2308 0.01,0.01 0.193369,-0.1836 0.407446,-0.4299 0.214078,-0.2463 0.576085,-0.63 0.804458,-0.8524 0.228376,-0.2224 0.415155,-0.4433 0.415155,-0.4909 0,-0.174 0.1891773,-0.4454 0.3805293,-0.5458 0.107961,-0.057 0.342163,-0.1235 0.520455,-0.1484 0.192219,-0.027 0.418853,-0.1109 0.556741,-0.2064 0.252783,-0.1752 0.465284,-0.1815 0.568481,-0.017 0.05154,0.082 0.03691,0.1308 -0.06913,0.2296 -0.113373,0.1056 -0.122813,0.1436 -0.0606,0.2433 0.06076,0.097 0.0557,0.1318 -0.02858,0.1955 -0.110084,0.083 -0.224677,0.4992 -0.227085,0.8242 -0.0023,0.3075 -0.139937,0.5151 -0.873472,1.3174 -0.372612,0.4075 -0.7576063,0.8881 -0.8554493,1.0678 -0.177432,0.326 -0.176096,0.3252 0.4704143,-0.3252 0.356514,-0.3587 0.723665,-0.7 0.81596,-0.7585 v 0 c 0.207967,-0.1317 0.651337,-0.5305 0.859956,-0.7734 0.595648,-0.6934 2.604557,-2.5196 2.771729,-2.5196 0.02201,0 0.121231,-0.068 0.220444,-0.1518 0.115214,-0.097 0.147078,-0.1518 0.08822,-0.1518 -0.05068,0 -0.109089,0.027 -0.129727,0.061 -0.02064,0.033 -0.100807,0.061 -0.178229,0.061 -0.07742,0 -0.174841,0.041 -0.216412,0.091 -0.04157,0.05 -0.167897,0.091 -0.280682,0.091 -0.112786,0 -0.205028,0.027 -0.205028,0.061 0,0.034 -0.178147,0.061 -0.413139,0.061 -0.34706,0 -0.446675,-0.024 -0.622317,-0.154 -0.237332,-0.175 -0.32226,-0.3989 -0.228981,-0.6036 0.06362,-0.1396 0.2828,-0.2745 0.446222,-0.2745 0.04771,0 0.176213,-0.055 0.285545,-0.1212 0.13662,-0.083 0.306152,-0.1213 0.542157,-0.1214 h 0.343413 l 0.09249,-0.2581 c 0.4908,-1.3691 0.574525,-1.6241 0.533619,-1.6241 -0.0259,0 -0.154247,0.1519 -0.285308,0.3373 -0.759257,1.0743 -0.829164,1.1105 -1.636902,0.8477 -0.280401,-0.091 -0.541164,-0.2036 -0.579509,-0.2498 -0.06979,-0.084 -0.05918,-0.2077 0.05704,-0.6619 0.05815,-0.2273 0.371889,-0.5768 0.517728,-0.5768 0.03209,0 0.313522,-0.1233 0.625519,-0.2741 0.591159,-0.2856 0.692563,-0.2965 1.046959,-0.1115 0.08934,0.047 0.350105,0.082 0.611169,0.082 0.250447,0 0.550978,0.025 0.667853,0.055 0.344947,0.088 0.672955,0.1236 0.639154,0.069 -0.05021,-0.081 -0.511274,-0.3061 -0.627533,-0.3061 -0.17368,0 -0.363548,-0.17 -0.406025,-0.3634 -0.05395,-0.2456 -0.450958,-0.7133 -0.778725,-0.9173 -0.210929,-0.1313 -0.277386,-0.2134 -0.309025,-0.3821 -0.02217,-0.1181 -0.113448,-0.373 -0.202775,-0.5662 -0.118345,-0.256 -0.162972,-0.4518 -0.164591,-0.7213 -0.0027,-0.4549 0.07907,-0.5711 0.402229,-0.5711 0.130813,0 0.350704,-0.058 0.488558,-0.128 0.16238,-0.083 0.416027,-0.1392 0.720264,-0.1601 0.402914,-0.028 0.509316,-0.013 0.749319,0.1033 0.746802,0.3615 1.225479,1.5444 1.045417,2.583 -0.06731,0.3882 0.02704,0.2988 0.160203,-0.1518 0.104151,-0.3524 0.306225,-1.3008 0.407447,-1.9125 0.03316,-0.2004 0.104519,-0.5828 0.158544,-0.85 0.154118,-0.7621 0.173945,-0.9862 0.07945,-0.8955 -0.116604,0.1119 -0.284578,0.092 -0.356219,-0.042 -0.07921,-0.148 -0.08206,-0.8563 -0.0043,-1.0609 0.03438,-0.09 0.125155,-0.1707 0.21985,-0.1945 0.155061,-0.039 0.159927,-0.053 0.124511,-0.3539 -0.03782,-0.3218 -0.338682,-1.2604 -0.730938,-2.2803 -0.224941,-0.5849 -0.419997,-0.9087 -0.837187,-1.3898 -0.209449,-0.2416 -0.26603,-0.3712 -0.374956,-0.8594 -0.01895,-0.085 -0.146106,-0.2762 -0.282579,-0.425 -0.136473,-0.1488 -0.368191,-0.4515 -0.515002,-0.6726 -0.290271,-0.4371 -1.005963,-1.2043 -1.23657,-1.3255 -0.04944,-0.026 -0.08382,-0.046 -0.10032,-0.048 z m -2.600379,8.6669 c 0.03829,0 0.308926,0.4844 0.601328,1.0771 0.292402,0.5927 0.660337,1.2694 0.817621,1.5036 0.52834,0.787 0.665905,1.1973 0.426776,1.2732 -0.102166,0.033 -0.109208,0.059 -0.05028,0.188 0.106582,0.2339 -0.0245,0.3293 -0.263725,0.192 -0.22326,-0.1282 -0.467307,-0.1331 -0.626349,-0.013 -0.06482,0.049 -0.216369,0.089 -0.336773,0.089 -0.399499,0 -1.761412,0.3309 -1.761412,0.428 0,0.059 -0.04712,0.061 -0.288391,0.015 -0.186139,-0.036 -0.180229,-0.2761 0.01613,-0.6602 0.20242,-0.3961 0.454405,-1.1966 0.454405,-1.4435 0,-0.1128 0.07425,-0.3144 0.173129,-0.4703 0.158469,-0.2499 0.362272,-0.8094 0.655639,-1.7995 0.06175,-0.2084 0.143613,-0.3792 0.181904,-0.3795 z"
       id="rect4164"
       inkscape:connector-curvature="0"
       sodipodi:nodetypes="csssssssscsssssssscssssscccscscsscssssssscccssscsssscccsssccccssssssssscsssssssssscscsssssccsssscscsssssccccsccsccccsscssccsscsscscsssssccsssssssssssssccccssccsssscccsssscsscssssssccccsssssssccsscccssssssssc" />
  </g>
</svg>
