<?xml version="1.0" encoding="UTF-8" standalone="no"?>
<!-- Created with Inkscape (http://www.inkscape.org/) -->

<svg
   xmlns:dc="http://purl.org/dc/elements/1.1/"
   xmlns:cc="http://creativecommons.org/ns#"
   xmlns:rdf="http://www.w3.org/1999/02/22-rdf-syntax-ns#"
   xmlns:svg="http://www.w3.org/2000/svg"
   xmlns="http://www.w3.org/2000/svg"
   xmlns:sodipodi="http://sodipodi.sourceforge.net/DTD/sodipodi-0.dtd"
   xmlns:inkscape="http://www.inkscape.org/namespaces/inkscape"
   width="25.6"
   height="25.6"
   viewBox="0 0 24 24"
   id="svg2"
   version="1.1"
   inkscape:version="0.92.1 r15371"
   sodipodi:docname="xan_w4_tyranid.svg"
   inkscape:export-filename="D:\dev\XansSciFiMashup\raw\flags\small\xan_w4_tyranid.png"
   inkscape:export-xdpi="90"
   inkscape:export-ydpi="90">
  <defs
     id="defs4" />
  <sodipodi:namedview
     id="base"
     pagecolor="#9003a9"
     bordercolor="#666666"
     borderopacity="1.0"
     inkscape:pageopacity="0"
     inkscape:pageshadow="2"
     inkscape:zoom="26.712923"
     inkscape:cx="4.3210764"
     inkscape:cy="11.616754"
     inkscape:document-units="px"
     inkscape:current-layer="layer1"
     showgrid="false"
     inkscape:window-width="1697"
     inkscape:window-height="1057"
     inkscape:window-x="-8"
     inkscape:window-y="837"
     inkscape:window-maximized="1"
     units="px"
     showguides="false" />
  <metadata
     id="metadata7">
    <rdf:RDF>
      <cc:Work
         rdf:about="">
        <dc:format>image/svg+xml</dc:format>
        <dc:type
           rdf:resource="http://purl.org/dc/dcmitype/StillImage" />
        <dc:title />
      </cc:Work>
    </rdf:RDF>
  </metadata>
  <g
     inkscape:label="Ebene 1"
     inkscape:groupmode="layer"
     id="layer1"
     transform="translate(0,-1028.3622)">
    <path
       style="fill:#000000"
       d="m 10.994249,1050.6517 c -0.376113,-0.1917 -0.408641,-0.2353 -0.386034,-0.5172 0.03172,-0.3955 -0.109475,-0.5592 -0.482453,-0.5592 -0.3491092,0 -0.4519252,0.1724 -0.2633902,0.4415 0.119322,0.1704 0.11384,0.1985 -0.05647,0.2897 -0.250449,0.134 -1.037025,-0.094 -1.412878,-0.4095 -0.248762,-0.2088 -0.2592,-0.2386 -0.114089,-0.3259 0.24516,-0.1475 0.197803,-0.4422 -0.08856,-0.5511 -0.202919,-0.077 -0.269703,-0.065 -0.365513,0.066 -0.06448,0.088 -0.09373,0.2343 -0.06502,0.3248 0.167024,0.5262 -1.253141,-0.2845 -2.564623,-1.464 -0.65063,-0.5852 -1.264069,-1.3365 -1.912196,-2.3418 -0.333024,-0.5166 -0.869824,-1.908 -0.865235,-2.2428 l 0.003,-0.2215 0.180663,0.2169 c 0.09937,0.1193 0.205155,0.3145 0.235091,0.4337 0.08032,0.3201 1.296308,1.4574 2.254866,2.1091 0.460486,0.3131 1.186363,0.7162 1.613054,0.8959 1.46828,0.6182 3.6017542,1.0518 4.2667842,0.8672 0.188329,-0.052 0.471305,-0.095 0.628838,-0.096 0.15753,-2e-4 0.650395,-0.1054 1.095253,-0.2337 0.980558,-0.2827 2.00057,-0.9145 2.865209,-1.7747 0.731118,-0.7274 1.068068,-1.2107 1.46367,-2.0993 0.274651,-0.6169 0.308441,-0.787 0.342061,-1.722 0.03455,-0.961 0.01925,-1.0822 -0.20748,-1.6429 -0.515629,-1.2752 -1.590797,-2.3769 -2.776995,-2.8455 -0.568414,-0.2246 -2.018521,-0.3654 -2.018521,-0.1961 0,0.053 0.250917,0.2938 0.557594,0.5348 l 0.557592,0.438 -0.443503,0.1784 c -0.719603,0.2894 -1.932416,0.9418 -2.296206,1.2352 -0.185795,0.1499 -0.604778,0.4825 -0.9310722,0.739 l -0.593263,0.4665 -1.277797,-0.034 c -1.023725,-0.027 -1.345853,-0.069 -1.620066,-0.2068 -0.188247,-0.095 -0.342266,-0.1965 -0.342266,-0.2256 0,-0.029 0.256309,-0.066 0.569576,-0.081 0.313267,-0.015 0.587585,-0.046 0.609598,-0.068 0.02201,-0.022 -0.04947,-0.1611 -0.158857,-0.309 -0.109381,-0.148 -0.198877,-0.2809 -0.198877,-0.2955 0,-0.015 0.264916,-0.026 0.5887,-0.026 0.705775,0 0.863204,-0.1082 0.644093,-0.4426 -0.199125,-0.3039 -0.102977,-0.4746 0.162577,-0.2886 0.199595,0.1398 0.978186,0.1951 0.977082,0.069 -2.03e-4,-0.038 -0.0822,-0.1916 -0.181942,-0.3422 -0.09974,-0.1506 -0.181705,-0.2944 -0.182153,-0.3195 -4.07e-4,-0.025 0.299818,-0.032 0.667256,-0.016 0.7503562,0.033 0.9172452,-0.064 0.9040902,-0.5269 -0.02507,-0.8819 -1.2644712,-1.8299 -2.3922972,-1.8299 -0.403303,0 -0.692178,0.1881 -0.611533,0.3983 0.05366,0.1398 0.183643,0.2153 0.656289,0.381 0.165809,0.058 0.157443,0.075 -0.09127,0.1835 -0.150597,0.066 -0.592122,0.1483 -0.981167,0.1834 -0.389043,0.035 -0.707352,0.1029 -0.707352,0.1507 0,0.048 0.164288,0.1514 0.365085,0.2302 0.200796,0.079 0.365086,0.1768 0.365086,0.2176 0,0.1649 -0.71197,0.5422 -1.206835,0.6396 -0.562976,0.1108 -0.669479,0.2234 -0.299142,0.3163 0.125498,0.031 0.228179,0.096 0.228179,0.1429 0,0.1536 -0.928501,0.5258 -1.184297,0.4746 -0.150635,-0.03 -0.282369,0 -0.352225,0.086 -0.09164,0.1104 -0.06091,0.1771 0.171839,0.3729 0.155889,0.1312 0.341889,0.2385 0.413337,0.2385 0.07145,0 0.129904,0.039 0.129904,0.087 0,0.136 -0.464071,0.1789 -2.236145,0.2066 l -1.642883,0.026 0.02358,-0.448 c 0.07756,-1.4735 1.589528,-4.4215 3.007421,-5.8639 0.664853,-0.6763 2.447346,-1.9775 3.266713,-2.3846 2.190139,-1.0881 3.1742532,-1.3624 5.2064342,-1.4512 1.054818,-0.046 1.7346,0.1009 3.30461,0.7145 0.931304,0.364 1.167611,0.582 0.749333,0.6914 -0.26689,0.07 -0.459772,0.4876 -0.373684,0.8095 0.097,0.3627 0.58422,0.6448 0.880512,0.5098 0.119538,-0.055 0.283795,-0.2004 0.365016,-0.3244 0.135719,-0.2071 0.135808,-0.2483 0.001,-0.5088 -0.155812,-0.3013 -0.122243,-0.4607 0.09705,-0.4607 0.399481,0 2.168014,1.1445 2.462066,1.5932 0.198294,0.3027 0.111815,0.5061 -0.215137,0.5061 -0.289778,0 -0.657672,0.3263 -0.657672,0.5833 0,0.2362 0.497982,0.6945 0.754638,0.6945 0.296787,0 0.52316,-0.2697 0.52316,-0.6233 0,-0.4043 0.176931,-0.3693 0.632663,0.1251 0.497479,0.5397 1.010219,1.6058 1.010219,2.1005 0,0.4644 -0.03602,0.5019 -0.363056,0.3785 -0.332151,-0.1254 -0.52208,0.015 -0.60311,0.4474 -0.04061,0.2165 -0.01204,0.3813 0.09423,0.5435 0.12973,0.198 0.209655,0.2286 0.535045,0.2049 0.341306,-0.025 0.385645,-0.055 0.411411,-0.2788 0.01589,-0.138 0.06006,-0.251 0.09818,-0.251 0.376971,0 0.879044,1.6153 0.775613,2.4953 -0.07636,0.6497 -0.207092,0.7743 -0.493022,0.4699 -0.117312,-0.1248 -0.285948,-0.227 -0.374749,-0.227 -0.417022,0 -0.60982,0.9184 -0.259379,1.2355 0.171904,0.1556 0.205277,0.1576 0.433536,0.026 0.387405,-0.2229 0.475477,-0.1286 0.475477,0.5089 0,0.8682 -0.163991,1.5929 -0.438218,1.9366 -0.241021,0.3021 -0.241495,0.3022 -0.432226,0.123 -0.262713,-0.2468 -0.556706,-0.2246 -0.822434,0.062 -0.24251,0.2617 -0.27931,0.4883 -0.125859,0.775 0.07687,0.1436 0.174895,0.1775 0.455304,0.1573 0.196542,-0.014 0.395706,0.014 0.442591,0.062 0.124889,0.1286 -0.103382,0.7132 -0.507683,1.3002 -0.478701,0.6951 -0.828113,1.0237 -1.088456,1.0237 -0.201266,0 -0.221158,-0.037 -0.221158,-0.4107 0,-0.4078 -0.0023,-0.4107 -0.316273,-0.4107 -0.366169,0 -0.961524,0.4572 -0.961524,0.7385 0,0.1017 0.151086,0.2673 0.369905,0.4054 0.382382,0.2414 0.416288,0.422 0.143734,0.7656 -0.147054,0.1854 -1.224969,0.8718 -1.642858,1.0462 -0.67527,0.2818 -0.799852,0.22 -0.898761,-0.4458 -0.03953,-0.266 -0.514461,-0.2909 -0.829107,-0.043 -0.305192,0.24 -0.308676,0.3636 -0.01795,0.6367 0.349272,0.3281 0.295247,0.5282 -0.201991,0.7482 -0.301039,0.1331 -0.636664,0.1932 -1.118073,0.2002 l -0.687904,0.01 v -0.3552 c 0,-0.2704 -0.04359,-0.3724 -0.182543,-0.4271 -0.296757,-0.117 -0.468954,-0.095 -0.695093,0.088 -0.192179,0.1556 -0.201333,0.1952 -0.09238,0.3988 0.06652,0.1243 0.106081,0.3032 0.08791,0.3977 -0.02874,0.1494 -0.133734,0.1752 -0.807625,0.1985 -0.660465,0.023 -0.835113,0 -1.185316,-0.1826 z m -6.5172222,-15.2361 c 0.09563,-0.1074 0.564055,-0.5241 1.040948,-0.9261 0.476892,-0.4019 0.917743,-0.8027 0.979672,-0.8905 0.09726,-0.1379 0.08041,-0.1678 -0.123753,-0.219 -0.305887,-0.077 -0.451513,0.024 -1.476519,1.0168 -0.556012,0.5388 -0.839741,0.8814 -0.839741,1.0139 0,0.2545 0.195071,0.2567 0.419393,0 z"
       id="path4151"
       inkscape:connector-curvature="0" />
  </g>
</svg>
