<?xml version="1.0" encoding="UTF-8" standalone="no"?>
<!-- Created with Inkscape (http://www.inkscape.org/) -->

<svg
   xmlns:dc="http://purl.org/dc/elements/1.1/"
   xmlns:cc="http://creativecommons.org/ns#"
   xmlns:rdf="http://www.w3.org/1999/02/22-rdf-syntax-ns#"
   xmlns:svg="http://www.w3.org/2000/svg"
   xmlns="http://www.w3.org/2000/svg"
   xmlns:sodipodi="http://sodipodi.sourceforge.net/DTD/sodipodi-0.dtd"
   xmlns:inkscape="http://www.inkscape.org/namespaces/inkscape"
   id="svg2860"
   version="1.1"
   inkscape:version="0.92.2 (5c3e80d, 2017-08-06)"
   width="25.6"
   height="25.6"
   sodipodi:docname="xan_sg_goauld.svg"
   inkscape:export-filename="D:\dev\XansSciFiMashup\raw\flags\small\xan_st_klingon.png"
   inkscape:export-xdpi="90"
   inkscape:export-ydpi="90">
  <metadata
     id="metadata2866">
    <rdf:RDF>
      <cc:Work
         rdf:about="">
        <dc:format>image/svg+xml</dc:format>
        <dc:type
           rdf:resource="http://purl.org/dc/dcmitype/StillImage" />
        <dc:title></dc:title>
      </cc:Work>
    </rdf:RDF>
  </metadata>
  <defs
     id="defs2864">
    <inkscape:perspective
       sodipodi:type="inkscape:persp3d"
       inkscape:vp_x="0 : 0.53333333 : 1"
       inkscape:vp_y="0 : 1066.6667 : 0"
       inkscape:vp_z="1.0666667 : 0.53333333 : 1"
       inkscape:persp3d-origin="0.53333333 : 0.35555555 : 1"
       id="perspective2868" />
    <inkscape:perspective
       id="perspective3654"
       inkscape:persp3d-origin="0.53333333 : 0.35555555 : 1"
       inkscape:vp_z="1.0666667 : 0.53333333 : 1"
       inkscape:vp_y="0 : 1066.6667 : 0"
       inkscape:vp_x="0 : 0.53333333 : 1"
       sodipodi:type="inkscape:persp3d" />
    <inkscape:perspective
       id="perspective3676"
       inkscape:persp3d-origin="0.53333333 : 0.35555555 : 1"
       inkscape:vp_z="1.0666667 : 0.53333333 : 1"
       inkscape:vp_y="0 : 1066.6667 : 0"
       inkscape:vp_x="0 : 0.53333333 : 1"
       sodipodi:type="inkscape:persp3d" />
    <inkscape:perspective
       id="perspective3714"
       inkscape:persp3d-origin="0.53333333 : 0.35555555 : 1"
       inkscape:vp_z="1.0666667 : 0.53333333 : 1"
       inkscape:vp_y="0 : 1066.6667 : 0"
       inkscape:vp_x="0 : 0.53333333 : 1"
       sodipodi:type="inkscape:persp3d" />
    <inkscape:perspective
       id="perspective3743"
       inkscape:persp3d-origin="0.53333333 : 0.35555555 : 1"
       inkscape:vp_z="1.0666667 : 0.53333333 : 1"
       inkscape:vp_y="0 : 1066.6667 : 0"
       inkscape:vp_x="0 : 0.53333333 : 1"
       sodipodi:type="inkscape:persp3d" />
    <inkscape:perspective
       id="perspective3773"
       inkscape:persp3d-origin="0.53333333 : 0.35555555 : 1"
       inkscape:vp_z="1.0666667 : 0.53333333 : 1"
       inkscape:vp_y="0 : 1066.6667 : 0"
       inkscape:vp_x="0 : 0.53333333 : 1"
       sodipodi:type="inkscape:persp3d" />
    <inkscape:perspective
       id="perspective3795"
       inkscape:persp3d-origin="0.53333333 : 0.35555555 : 1"
       inkscape:vp_z="1.0666667 : 0.53333333 : 1"
       inkscape:vp_y="0 : 1066.6667 : 0"
       inkscape:vp_x="0 : 0.53333333 : 1"
       sodipodi:type="inkscape:persp3d" />
    <inkscape:perspective
       id="perspective3830"
       inkscape:persp3d-origin="0.53333333 : 0.35555555 : 1"
       inkscape:vp_z="1.0666667 : 0.53333333 : 1"
       inkscape:vp_y="0 : 1066.6667 : 0"
       inkscape:vp_x="0 : 0.53333333 : 1"
       sodipodi:type="inkscape:persp3d" />
    <inkscape:perspective
       id="perspective3860"
       inkscape:persp3d-origin="0.53333333 : 0.35555555 : 1"
       inkscape:vp_z="1.0666667 : 0.53333333 : 1"
       inkscape:vp_y="0 : 1066.6667 : 0"
       inkscape:vp_x="0 : 0.53333333 : 1"
       sodipodi:type="inkscape:persp3d" />
    <inkscape:perspective
       id="perspective3887"
       inkscape:persp3d-origin="0.53333333 : 0.35555555 : 1"
       inkscape:vp_z="1.0666667 : 0.53333333 : 1"
       inkscape:vp_y="0 : 1066.6667 : 0"
       inkscape:vp_x="0 : 0.53333333 : 1"
       sodipodi:type="inkscape:persp3d" />
    <inkscape:perspective
       id="perspective3913"
       inkscape:persp3d-origin="0.53333333 : 0.35555555 : 1"
       inkscape:vp_z="1.0666667 : 0.53333333 : 1"
       inkscape:vp_y="0 : 1066.6667 : 0"
       inkscape:vp_x="0 : 0.53333333 : 1"
       sodipodi:type="inkscape:persp3d" />
    <inkscape:perspective
       id="perspective3964"
       inkscape:persp3d-origin="0.53333333 : 0.35555555 : 1"
       inkscape:vp_z="1.0666667 : 0.53333333 : 1"
       inkscape:vp_y="0 : 1066.6667 : 0"
       inkscape:vp_x="0 : 0.53333333 : 1"
       sodipodi:type="inkscape:persp3d" />
  </defs>
  <sodipodi:namedview
     pagecolor="#ff0df1"
     bordercolor="#666666"
     borderopacity="1"
     objecttolerance="10"
     gridtolerance="10"
     guidetolerance="10"
     inkscape:pageopacity="0"
     inkscape:pageshadow="2"
     inkscape:window-width="1708"
     inkscape:window-height="1057"
     id="namedview2862"
     showgrid="false"
     showguides="false"
     inkscape:zoom="5.5086513"
     inkscape:cx="-16.693199"
     inkscape:cy="1.3924589"
     inkscape:window-x="-8"
     inkscape:window-y="843"
     inkscape:window-maximized="1"
     inkscape:current-layer="svg2860"
     inkscape:pagecheckerboard="false" />
  <path
     d="m 16.899755,22.492609 c -0.29406,-1.21827 -0.96327,-2.40877 -0.62393,-3.74801 0.31851,-1.29417 0.57247,-2.6128 1.10339,-3.82422 0.27178,-0.88769 0.78194,-1.82026 1.02962,-2.59822 0.28884,-0.44504 0.22004,-0.7211 -0.0693,-0.64226 -0.36472,0.48285 -1.46383,1.29776 -2.13415,1.88885 -1.01395,0.82786 -1.8937,1.85165 -2.85338,2.74594 -0.56412,0.61945 -1.30856,1.04798 -1.96498,1.56319 -1.4864696,1.13852 -3.1392496,2.103 -4.9460596,2.27934 -1.06905,0.28818 -2.2862,0.0397 -3.25513,-0.548 -1.21602,-0.73074 -1.87361,-2.3842 -1.88582,-3.91089 0.0894,-1.04164 0.95253,-1.79227 1.75137,-2.13537 0.91402,-0.18732 2.12406,-0.14242 2.61363,0.93187 0.64771,0.75902 0.32459,2.2845 -0.65489,2.39157 -1.12153,0.40703 -1.24544,-1.35662 -1.45504,-1.99817 -0.93234,0.21942 -1.4166,2.15715 -0.74318,2.80524 1.05842,1.35782 2.79642,1.18337 4.20302,0.85313 1.22275,-0.38152 2.46202,-0.86729 3.5159496,-1.68458 1.30991,-1.15047 2.75437,-2.10344 3.95913,-3.40697 0.40596,-0.36417 1.61369,-0.92464 0.39193,-0.93807 -0.97166,0.0676 -1.93405,0.40346 -2.90481,0.16483 -1.07823,-0.0239 -2.1129896,-0.339 -3.1530896,-0.61362 -1.38503,-0.55846 -2.75412,-1.17435 -4.19447,-1.52783 -0.91025,-0.38997 -1.93949,-0.31788 -2.8273,-0.6378501 -0.28525,-0.61746 -0.67321,-2.1105 0.44659,-1.71709 1.24966,0.22839 2.4012,-0.50752 3.61017,-0.70824 1.79777,-0.54589 3.57424,-1.24603 5.4457396,-1.37914 1.25876,-0.16832 2.52235,0.10209 3.77808,0.21092 1.99936,0.44544 3.89676,1.33818 5.84016,2.02248 0.59203,0.29164 1.24715,0.0315 1.86993,0.0543 0.31038,0.07 0.82308,-0.25159 0.97766,0.12007 0.33967,0.59426 0.57264,1.5692001 -0.36512,1.27988 -1.27508,0.0954 -2.65739,0.4742501 -3.58136,1.5456101 -0.55475,0.7481 -0.41375,2.14965 -0.41631,2.80414 0.64233,0.65555 1.47724,0.81162 2.22185,1.20277 -0.38929,0.73158 -1.37123,1.16461 -1.84332,1.97909 -0.96018,1.32757 -2.43626,2.41772 -2.64012,4.25514 -0.0622,0.17884 0.0753,1.09945 -0.24643,0.92021 z m -2.58603,-11.14834 c 1.62209,-0.32747 3.27255,-0.67425 4.77874,-1.4530401 0.48476,-0.0123 1.56601,-0.57658 0.49066,-0.67364 -1.43417,-0.33619 -2.73542,-1.1579 -4.1677,-1.5146 -1.03718,-0.53679 -0.5758,1.52806 -1.49687,1.82104 -1.0132,0.7688801 -2.59629,-0.0437 -2.60845,-1.49156 0.0724,-0.57352 -0.47408,-0.23233 -0.76616,-0.26714 -1.5136796,0.24096 -2.9588296,0.85779 -4.4476596,1.24243 -0.22648,0.1421 -1.28172,0.21112 -0.57608,0.44591 0.94998,0.51729 1.91526,1.0317501 2.9363,1.2862101 1.6551396,0.60766 3.4117596,0.49105 5.1129996,0.75241 0.25133,-0.0262 0.49443,-0.10911 0.74422,-0.14802 z M 1.9383254,7.0628889 c -0.36043,-0.99035 0.0341,-2.52791 1.19916,-2.04156 0.96919,0.27035 1.81271,-0.36651 2.76538,-0.38422 1.07407,-0.39798 2.16308,-0.84796 3.3062,-1.04125 0.9576096,-0.28887 2.0429396,-0.27425 2.8926296,-0.51153 1.29005,0.23132 2.63007,0.0559 3.89695,0.4366 0.78235,0.16133 1.50848,0.48613 2.32872,0.75931 0.79975,0.36747 1.65148,0.61294 2.48185,0.88057 0.95804,0.47312 1.9986,0.18785 2.97414,0.039 1.10269,0.57316 0.23939,1.99101 -0.71962,1.89799 -1.29295,0.10137 -2.55443,-0.43258 -3.79416,-0.79257 -1.10991,-0.44435 -2.20354,-0.96604 -3.3866,-1.09952 -1.68071,-0.41246 -3.42707,-0.63257 -5.12273,-0.2012 -1.9682496,0.20019 -3.8159896,1.04632 -5.6311396,1.88314 -1.0235,0.25468 -2.19339,0.56703 -3.19078,0.17526 z"
     style="fill:#000000;fill-opacity:1;stroke-width:0.01911314"
     id="path1875"
     inkscape:connector-curvature="0" />
</svg>
