<?xml version="1.0" encoding="UTF-8" standalone="no"?>
<!-- Created with Inkscape (http://www.inkscape.org/) -->

<svg
   xmlns:dc="http://purl.org/dc/elements/1.1/"
   xmlns:cc="http://creativecommons.org/ns#"
   xmlns:rdf="http://www.w3.org/1999/02/22-rdf-syntax-ns#"
   xmlns:svg="http://www.w3.org/2000/svg"
   xmlns="http://www.w3.org/2000/svg"
   xmlns:sodipodi="http://sodipodi.sourceforge.net/DTD/sodipodi-0.dtd"
   xmlns:inkscape="http://www.inkscape.org/namespaces/inkscape"
   version="1.1"
   width="25.6"
   height="25.6"
   id="svg2"
   inkscape:version="0.92.1 r15371"
   sodipodi:docname="xan_st_ferengi.svg"
   inkscape:export-filename="D:\dev\XansSciFiMashup\raw\flags\small\xan_st_federation.png"
   inkscape:export-xdpi="90"
   inkscape:export-ydpi="90">
  <sodipodi:namedview
     pagecolor="#0e8e00"
     bordercolor="#666666"
     borderopacity="1"
     objecttolerance="10"
     gridtolerance="10"
     guidetolerance="10"
     inkscape:pageopacity="0"
     inkscape:pageshadow="2"
     inkscape:window-width="1697"
     inkscape:window-height="1057"
     id="namedview93"
     showgrid="false"
     inkscape:zoom="19.506456"
     inkscape:cx="6.2722013"
     inkscape:cy="8.7401447"
     inkscape:window-x="-8"
     inkscape:window-y="837"
     inkscape:window-maximized="1"
     inkscape:current-layer="svg2" />
  <defs
     id="defs4" />
  <metadata
     id="metadata7">
    <rdf:RDF>
      <cc:Work
         rdf:about="">
        <dc:format>image/svg+xml</dc:format>
        <dc:type
           rdf:resource="http://purl.org/dc/dcmitype/StillImage" />
        <dc:title />
      </cc:Work>
    </rdf:RDF>
  </metadata>
  <path
     style="fill:#000000;stroke-width:1.06666672"
     d="M 10.070538,22.323301 C 8.5344417,22.225488 7.0913804,21.787568 5.799263,21.02712 3.972607,19.952069 2.5036684,18.233925 1.7559564,16.297861 1.4286604,15.450373 1.200351,14.49944 1.137823,13.72328 1.1232097,13.541819 1.1012364,13.313797 1.0889697,13.216581 l -0.022293,-0.176757 h 5.256096 c 2.890848,0 5.2564793,0.01589 5.2569493,0.03531 0.0053,0.223434 0.167829,1.122997 0.265856,1.47296 0.720938,2.573578 2.481184,4.241994 5.065802,4.801546 0.242827,0.05259 0.586763,0.110432 0.76431,0.128587 l 0.322816,0.03296 2.789994,-2.789696 2.789995,-2.789696 0.47712,0.01355 0.47712,0.01355 -2.435125,4.205728 -2.435126,4.205739 -4.524938,-0.0064 c -2.488726,-0.0032 -4.768875,-0.02187 -5.066998,-0.04085 z M 16.44002,18.19576 c -1.788864,-0.591072 -3.155146,-1.9752 -3.651733,-3.699445 -0.06272,-0.217771 -0.128864,-0.464886 -0.146997,-0.549142 l -0.03296,-0.153184 h 0.380234 0.380224 l 0.171072,0.341728 c 0.454624,0.908171 1.142219,1.571446 2.035488,1.96351 0.554923,0.243552 0.416726,0.378314 1.481974,-1.445024 l 0.943157,-1.614379 h 2.003317 2.003328 l -1.982122,2.015019 c -1.090176,1.108256 -2.26464,2.294154 -2.609942,2.635328 l -0.627808,0.62032 z m -1.18465,-3.951776 c -0.328224,-0.0688 -0.524086,-0.172789 -0.748512,-0.397216 -0.70048,-0.70048 -0.509867,-1.912789 0.371445,-2.3624 0.399413,-0.203765 0.967733,-0.203979 1.365408,-5.01e-4 0.674336,0.345024 0.981003,1.248288 0.656277,1.933045 -0.301813,0.636459 -0.964533,0.969739 -1.644618,0.827072 z M 1.0903244,12.438864 c 0.011093,-0.07125 0.031893,-0.299893 0.046187,-0.507989 C 1.2071244,10.903515 1.604031,9.5068 2.1105697,8.5033547 2.7271884,7.2818293 3.771199,6.0358027 4.873919,5.2052747 6.1714657,4.228016 7.4674337,3.6794293 9.222111,3.364656 9.742079,3.2713227 9.965823,3.2666293 14.715306,3.248528 l 4.951136,-0.01888 2.425461,4.1827627 c 1.334005,2.3005226 2.432533,4.2002563 2.441173,4.2216423 0.0085,0.02133 -0.204949,0.03893 -0.474656,0.03893 H 23.568063 L 20.79154,8.8862453 18.015028,6.0995147 l -0.323392,0.03008 c -0.741376,0.068907 -1.819818,0.379392 -2.503381,0.720736 -1.672107,0.8349973 -2.8704,2.3777813 -3.370613,4.3396373 -0.0512,0.200853 -0.115851,0.524277 -0.143627,0.718709 -0.02773,0.194432 -0.06155,0.422443 -0.07499,0.506699 l -0.02443,0.153195 H 6.3223777 1.0701537 l 0.02016,-0.129622 z M 17.093631,10.98616 C 16.588106,10.116037 16.162516,9.3841333 16.14786,9.3596853 16.115007,9.3048587 15.711146,9.439792 15.325546,9.6344907 14.55153,10.025211 13.853108,10.769179 13.511487,11.566864 L 13.40546,11.81432 h -0.395744 -0.395733 l 0.02891,-0.129621 c 0.06837,-0.305942 0.219232,-0.827307 0.286613,-0.990251 0.666325,-1.6112427 1.827883,-2.6989547 3.485963,-3.2643413 l 0.382432,-0.1304107 2.021696,2.0334187 c 1.111925,1.1183893 2.286389,2.3038613 2.609909,2.6344003 l 0.588224,0.60097 -2.002517,-1.49e-4 -2.002528,-1.39e-4 -0.919126,-1.582026 z"
     id="path4147"
     inkscape:connector-curvature="0" />
</svg>
