<?xml version="1.0" encoding="UTF-8" standalone="no"?>
<!-- Created with Inkscape (http://www.inkscape.org/) -->

<svg
   xmlns:dc="http://purl.org/dc/elements/1.1/"
   xmlns:cc="http://creativecommons.org/ns#"
   xmlns:rdf="http://www.w3.org/1999/02/22-rdf-syntax-ns#"
   xmlns:svg="http://www.w3.org/2000/svg"
   xmlns="http://www.w3.org/2000/svg"
   xmlns:sodipodi="http://sodipodi.sourceforge.net/DTD/sodipodi-0.dtd"
   xmlns:inkscape="http://www.inkscape.org/namespaces/inkscape"
   id="svg2860"
   version="1.1"
   inkscape:version="0.92.1 r15371"
   width="25.6"
   height="25.6"
   sodipodi:docname="xan_st_klingon.svg"
   inkscape:export-filename="D:\dev\XansSciFiMashup\raw\flags\small\xan_st_klingon.png"
   inkscape:export-xdpi="90"
   inkscape:export-ydpi="90">
  <metadata
     id="metadata2866">
    <rdf:RDF>
      <cc:Work
         rdf:about="">
        <dc:format>image/svg+xml</dc:format>
        <dc:type
           rdf:resource="http://purl.org/dc/dcmitype/StillImage" />
        <dc:title />
      </cc:Work>
    </rdf:RDF>
  </metadata>
  <defs
     id="defs2864">
    <inkscape:perspective
       sodipodi:type="inkscape:persp3d"
       inkscape:vp_x="0 : 0.53333333 : 1"
       inkscape:vp_y="0 : 1066.6667 : 0"
       inkscape:vp_z="1.0666667 : 0.53333333 : 1"
       inkscape:persp3d-origin="0.53333333 : 0.35555555 : 1"
       id="perspective2868" />
    <inkscape:perspective
       id="perspective3654"
       inkscape:persp3d-origin="0.53333333 : 0.35555555 : 1"
       inkscape:vp_z="1.0666667 : 0.53333333 : 1"
       inkscape:vp_y="0 : 1066.6667 : 0"
       inkscape:vp_x="0 : 0.53333333 : 1"
       sodipodi:type="inkscape:persp3d" />
    <inkscape:perspective
       id="perspective3676"
       inkscape:persp3d-origin="0.53333333 : 0.35555555 : 1"
       inkscape:vp_z="1.0666667 : 0.53333333 : 1"
       inkscape:vp_y="0 : 1066.6667 : 0"
       inkscape:vp_x="0 : 0.53333333 : 1"
       sodipodi:type="inkscape:persp3d" />
    <inkscape:perspective
       id="perspective3714"
       inkscape:persp3d-origin="0.53333333 : 0.35555555 : 1"
       inkscape:vp_z="1.0666667 : 0.53333333 : 1"
       inkscape:vp_y="0 : 1066.6667 : 0"
       inkscape:vp_x="0 : 0.53333333 : 1"
       sodipodi:type="inkscape:persp3d" />
    <inkscape:perspective
       id="perspective3743"
       inkscape:persp3d-origin="0.53333333 : 0.35555555 : 1"
       inkscape:vp_z="1.0666667 : 0.53333333 : 1"
       inkscape:vp_y="0 : 1066.6667 : 0"
       inkscape:vp_x="0 : 0.53333333 : 1"
       sodipodi:type="inkscape:persp3d" />
    <inkscape:perspective
       id="perspective3773"
       inkscape:persp3d-origin="0.53333333 : 0.35555555 : 1"
       inkscape:vp_z="1.0666667 : 0.53333333 : 1"
       inkscape:vp_y="0 : 1066.6667 : 0"
       inkscape:vp_x="0 : 0.53333333 : 1"
       sodipodi:type="inkscape:persp3d" />
    <inkscape:perspective
       id="perspective3795"
       inkscape:persp3d-origin="0.53333333 : 0.35555555 : 1"
       inkscape:vp_z="1.0666667 : 0.53333333 : 1"
       inkscape:vp_y="0 : 1066.6667 : 0"
       inkscape:vp_x="0 : 0.53333333 : 1"
       sodipodi:type="inkscape:persp3d" />
    <inkscape:perspective
       id="perspective3830"
       inkscape:persp3d-origin="0.53333333 : 0.35555555 : 1"
       inkscape:vp_z="1.0666667 : 0.53333333 : 1"
       inkscape:vp_y="0 : 1066.6667 : 0"
       inkscape:vp_x="0 : 0.53333333 : 1"
       sodipodi:type="inkscape:persp3d" />
    <inkscape:perspective
       id="perspective3860"
       inkscape:persp3d-origin="0.53333333 : 0.35555555 : 1"
       inkscape:vp_z="1.0666667 : 0.53333333 : 1"
       inkscape:vp_y="0 : 1066.6667 : 0"
       inkscape:vp_x="0 : 0.53333333 : 1"
       sodipodi:type="inkscape:persp3d" />
    <inkscape:perspective
       id="perspective3887"
       inkscape:persp3d-origin="0.53333333 : 0.35555555 : 1"
       inkscape:vp_z="1.0666667 : 0.53333333 : 1"
       inkscape:vp_y="0 : 1066.6667 : 0"
       inkscape:vp_x="0 : 0.53333333 : 1"
       sodipodi:type="inkscape:persp3d" />
    <inkscape:perspective
       id="perspective3913"
       inkscape:persp3d-origin="0.53333333 : 0.35555555 : 1"
       inkscape:vp_z="1.0666667 : 0.53333333 : 1"
       inkscape:vp_y="0 : 1066.6667 : 0"
       inkscape:vp_x="0 : 0.53333333 : 1"
       sodipodi:type="inkscape:persp3d" />
    <inkscape:perspective
       id="perspective3964"
       inkscape:persp3d-origin="0.53333333 : 0.35555555 : 1"
       inkscape:vp_z="1.0666667 : 0.53333333 : 1"
       inkscape:vp_y="0 : 1066.6667 : 0"
       inkscape:vp_x="0 : 0.53333333 : 1"
       sodipodi:type="inkscape:persp3d" />
  </defs>
  <sodipodi:namedview
     pagecolor="#c00000"
     bordercolor="#666666"
     borderopacity="1"
     objecttolerance="10"
     gridtolerance="10"
     guidetolerance="10"
     inkscape:pageopacity="0"
     inkscape:pageshadow="2"
     inkscape:window-width="1697"
     inkscape:window-height="1057"
     id="namedview2862"
     showgrid="false"
     showguides="false"
     inkscape:zoom="22.034605"
     inkscape:cx="1.5571036"
     inkscape:cy="12.653369"
     inkscape:window-x="-8"
     inkscape:window-y="837"
     inkscape:window-maximized="1"
     inkscape:current-layer="svg2860" />
  <g
     id="g3779"
     transform="matrix(0.04854903,0,0,0.04854903,3.7952747,0.70904225)">
    <circle
       id="path3933"
       style="fill:none;stroke:#000000;stroke-width:6.79096317;stroke-miterlimit:4;stroke-dasharray:none;stroke-opacity:1"
       cx="180.86752"
       cy="349.87726"
       r="133.92834" />
    <path
       sodipodi:nodetypes="ccccccccccccccccccccccccccccccccccccc"
       id="path2872-1-4-4"
       d="m 180.15856,414.48009 -63.39232,-94.50152 4.35188,-8.42506 5.03957,-12.11875 2.93484,-8.21753 4.69573,-14.08717 2.93482,-10.56539 3.52181,-13.50021 2.59098,-11.73933 2.6917,-13.50022 2.93483,-14.08717 3.5218,-17.02202 2.38347,-12.32628 5.83405,-32.28314 2.93482,-22.89169 2.93484,-23.47863 3.52179,-26.413452 3.5218,-25.826509 2.93483,-24.065597 3.42109,-25.5894759 1.23904,15.2316169 1.7965,16.814481 2.34786,19.369872 2.93483,22.304715 2.93482,23.478609 3.07115,22.71977 3.97245,23.06361 4.4526,23.30673 3.76491,21.88965 4.69573,22.89166 4.24507,20.16437 6.32032,25.03201 5.28268,19.95685 5.2827,14.67413 5.28269,12.91327 4.69572,9.97841 z"
       style="fill:#000000;fill-opacity:1;stroke:none;stroke-width:1.06666672"
       inkscape:connector-curvature="0" />
    <path
       sodipodi:nodetypes="cccccccccccccccccccccccccccccccccc"
       id="path3763-8"
       d="m 248.10582,325.50018 -65.50874,98.23764 7.60502,3.65952 8.36864,4.1192 10.44993,3.9762 12.0716,3.28665 11.49957,1.70848 11.20837,0.83251 16.3772,-0.18642 12.07158,-1.16194 10.40653,-1.66505 15.40165,-2.91383 13.32037,-3.74635 12.90409,-4.57886 17.06672,-6.24394 13.78003,-6.15706 12.28868,-5.68467 7.07644,-3.33007 9.25733,-5.03857 7.50547,-4.63503 -11.61193,-1.33562 -10.23284,-1.66505 -13.07779,-2.95725 -15.40165,-4.16261 -16.65046,-5.41139 -13.73662,-5.82765 -12.07156,-5.82767 -8.32523,-4.99514 -10.40653,-7.07644 -9.57401,-7.4927 -7.49271,-6.24391 -7.49271,-8.32523 -4.57887,-5.82767 z"
       style="fill:#000000;fill-opacity:1;stroke:none;stroke-width:1.06666672"
       inkscape:connector-curvature="0" />
    <path
       sodipodi:nodetypes="ccccccccccccccccccccccccccccccccccc"
       id="path3763-8-5-1"
       d="m 173.84306,422.77053 -61.59052,-97.28621 -5.39223,6.76495 -7.86004,5.01063 -11.884516,6.48672 -11.171873,5.4578 -8.89322,5.13026 -5.168353,3.05374 -5.028288,3.28019 -4.243306,3.29065 -3.66319,3.28132 -7.360094,7.23226 -8.546331,9.02817 -6.684287,9.36114 -6.028698,9.49464 -5.319296,11.98234 -4.877555,15.31252 -1.310408,12.04311 -0.3781775,17.37351 0.2647084,21.71628 18.2926571,-13.14531 9.800997,-7.72793 12.70184,-9.42402 11.58217,-6.57872 9.876572,-5.71709 11.489722,-5.4973 8.386115,-3.41824 10.570001,-4.06719 6.98163,-2.13402 9.44494,-1.57694 14.06331,-1.53426 17.25057,0.51621 12.72612,0.83745 7.48709,1.1897 z"
       style="fill:#000000;fill-opacity:1;stroke:none;stroke-width:1.06666672"
       inkscape:connector-curvature="0" />
  </g>
</svg>
