<?xml version="1.0" encoding="UTF-8" standalone="no"?>
<!-- Creator: CorelDRAW X5 -->

<svg
   xmlns:dc="http://purl.org/dc/elements/1.1/"
   xmlns:cc="http://creativecommons.org/ns#"
   xmlns:rdf="http://www.w3.org/1999/02/22-rdf-syntax-ns#"
   xmlns:svg="http://www.w3.org/2000/svg"
   xmlns="http://www.w3.org/2000/svg"
   xmlns:sodipodi="http://sodipodi.sourceforge.net/DTD/sodipodi-0.dtd"
   xmlns:inkscape="http://www.inkscape.org/namespaces/inkscape"
   xml:space="preserve"
   width="128"
   height="128"
   style="fill-rule:evenodd"
   viewBox="0 0 3612.4444 3612.4447"
   id="svg2"
   version="1.1"
   inkscape:version="0.91 r13725"
   sodipodi:docname="xan_st_cardassian.svg"
   inkscape:export-filename="D:\dev\XansSciFiMashup\raw\flags\xan_st_cardassian.png"
   inkscape:export-xdpi="90"
   inkscape:export-ydpi="90"><metadata
     id="metadata21"><rdf:RDF><cc:Work
         rdf:about=""><dc:format>image/svg+xml</dc:format><dc:type
           rdf:resource="http://purl.org/dc/dcmitype/StillImage" /><dc:title></dc:title></cc:Work></rdf:RDF></metadata><sodipodi:namedview
     pagecolor="#008997"
     bordercolor="#666666"
     borderopacity="1"
     objecttolerance="10"
     gridtolerance="10"
     guidetolerance="10"
     inkscape:pageopacity="0"
     inkscape:pageshadow="2"
     inkscape:window-width="1920"
     inkscape:window-height="1017"
     id="namedview19"
     showgrid="false"
     inkscape:zoom="5.8210585"
     inkscape:cx="60.105255"
     inkscape:cy="66.218484"
     inkscape:window-x="1272"
     inkscape:window-y="-8"
     inkscape:window-maximized="1"
     inkscape:current-layer="svg2" /><defs
     id="defs4"><style
       type="text/css"
       id="style6">
   
    .fil1 {fill:#DFEAE9}
    .fil0 {fill:url(#id0)}
   
  </style></defs><path
     style="fill:#000000;fill-opacity:1"
     inkscape:connector-curvature="0"
     id="path17"
     d="m 1806.2222,2095.4318 -26.8576,0 c 0,0 -35.3733,-53.0599 -105.4649,-159.8351 -43.8891,-227.9615 -107.43,-476.2294 -190.6228,-744.8048 0,0 11.7911,-93.6733 34.7183,-281.67629 0,0 26.8575,-17.6865 79.9175,-53.7148 0,0 61.5757,14.4112 184.7273,43.8888 0,0 1.3101,5.8958 4.5854,17.6869 0,0 -41.9239,20.9619 -126.4268,63.5409 0,0 -23.5823,72.71189 -70.0916,218.79029 0,0 18.3417,24.2377 54.37,72.712 0,0 45.1993,241.0624 136.2528,723.1876 0,0 8.5158,0 24.8924,0 16.3765,0 24.8923,0 24.8923,0 91.0535,-482.1252 136.2527,-723.1876 136.2527,-723.1876 36.0284,-48.4743 54.3701,-72.712 54.3701,-72.712 -46.5093,-146.0784 -70.0916,-218.79029 -70.0916,-218.79029 -84.5028,-42.579 -126.4268,-63.5409 -126.4268,-63.5409 3.2754,-11.7911 4.5855,-17.6869 4.5855,-17.6869 123.1515,-29.4776 184.7272,-43.8888 184.7272,-43.8888 53.0599,35.3735 79.9175,53.7148 79.9175,53.7148 23.5822,188.00299 34.7183,281.67629 34.7183,281.67629 -83.1928,267.9205 -147.3888,516.1885 -190.6229,744.8048 -70.0916,106.7752 -105.4648,159.8351 -105.4648,159.8351 l -26.8575,0 z m 0,-855.5102 -65.5062,0 c 0,0 -12.4462,-22.2721 -37.3384,-66.8162 0,0 7.2057,-49.1297 22.272,-148.0439 0,0 18.3417,-19.6516 55.6802,-58.30039 -0.655,-15.7214 -0.655,-24.2372 -0.655,-24.2372 -64.1961,43.2339 -96.2941,64.19619 -96.2941,64.19619 -34.7182,126.4268 -51.7498,189.3127 -51.7498,189.3127 32.753,40.6134 49.1296,60.2655 49.1296,60.2655 70.0915,363.559 105.4649,545.0108 105.4649,545.0108 l 18.9968,0 18.9967,0 c 0,0 35.3734,-181.4518 105.4649,-545.0108 0,0 16.3765,-20.3069 49.1296,-60.2655 0,0 -17.0316,-62.8859 -51.7499,-189.3127 0,0 -32.0979,-21.61719 -96.2939,-64.19619 0,0 0,7.8605 -0.6551,24.2372 37.3384,38.64879 55.6801,58.30039 55.6801,58.30039 15.0665,98.9142 22.2721,148.0439 22.2721,148.0439 -24.8923,44.5441 -37.3385,66.8162 -37.3385,66.8162 l -65.506,0 z m -548.9414,-3.9302 c -49.7846,0 -89.7434,39.9585 -89.7434,89.7436 0,49.7845 39.9588,89.7431 89.7434,89.7431 49.7847,0 89.7434,-39.9586 89.7434,-89.7431 0,-49.7851 -39.9587,-89.7436 -89.7434,-89.7436 z m 548.9414,1555.7705 c 0,0 -18.9968,41.9241 -56.3353,125.7719 0,0 -9.8259,137.563 -30.1328,412.6886 0,0 -7.2057,0 -21.6171,0 0,0 -39.3037,-176.2118 -117.911,-528.6345 140.8382,-9.826 216.1703,-102.1896 226.6512,-276.4358 9.8259,174.2462 85.813,265.9544 226.6511,276.4358 -78.6072,352.4227 -117.9109,528.6345 -117.9109,528.6345 -14.4114,0 -21.6171,0 -21.6171,0 -20.3069,-275.1256 -30.1327,-412.6886 -30.1327,-412.6886 -37.9937,-83.8478 -56.3353,-125.7719 -56.3353,-125.7719 z m 0,-334.0814 c -4.5855,0 -7.2057,1.3103 -7.8608,3.9303 -32.7531,161.1453 -81.8827,248.9233 -146.7338,262.0247 0,0 5.8957,-83.1924 17.6867,-248.9234 0,0 37.9936,-74.677 112.6706,-222.0656 l 24.2373,0 24.2372,0 c 74.677,147.3886 112.6706,222.0656 112.6706,222.0656 11.7911,165.731 17.6866,248.9234 17.6866,248.9234 -64.851,-13.1014 -113.3256,-100.8794 -146.7337,-262.0247 -0.6551,-2.62 -3.2753,-3.9303 -7.8607,-3.9303 z m 0,-238.4424 -42.579,0 c 0,0 -30.7879,51.7502 -93.0188,155.25 0,0 -14.4113,-125.117 -42.579,-376.0054 0,0 46.5095,45.199 139.5281,134.9426 0,0 13.1013,0 38.6487,0 26.2024,0 38.6485,0 38.6485,0 93.0187,-89.7436 139.5281,-134.9426 139.5281,-134.9426 -28.1676,250.8884 -42.579,376.0054 -42.579,376.0054 -62.2308,-103.4998 -93.0187,-155.25 -93.0187,-155.25 l -42.5789,0 z m 862.0606,-1000.9332 c 4.5854,17.0316 9.1708,34.0632 13.7564,51.7497 -216.8255,115.291 -423.8247,304.6037 -620.3432,567.9381 l 125.7718,-400.8975 216.1702,-31.4432 3.9304,-0.6549 3.2753,-2.6199 257.4391,-184.0723 z M 1806.2222,637.26538 c 0,0 -75.3321,-57.64549 -225.9962,-172.28112 0,0 15.7214,63.54082 46.5093,190.62296 0,0 37.9936,12.44602 113.3257,37.33854 0,0 8.5157,55.02505 24.8923,165.73045 0,0 -60.2657,-14.4116 -180.1419,-43.2344 0,0 -35.3733,25.5474 -106.775,75.9873 0,0 -18.3417,97.6041 -55.6801,293.46749 0,0 0.655,82.5375 1.3101,246.9582 0,0 42.5789,135.5974 127.0819,406.1379 -196.5184,-262.6795 -403.5178,-451.9923 -620.34308,-567.9381 83.84788,-340.63199 242.37268,-541.73589 476.22958,-603.3116 74.6769,-15.06649 110.0502,-45.85386 106.7749,-93.01844 16.3766,-195.20854 113.9807,-291.50232 292.8125,-291.50232 178.8317,0 276.4358,96.94915 292.8123,291.50232 -3.2753,47.16458 32.7531,77.95195 106.775,93.01844 212.8949,56.33526 363.5591,227.96151 451.9923,515.5336 l -263.9897,188.6573 -205.0341,30.133 1.31,-216.1703 c -37.3384,-195.20809 -55.6802,-293.46749 -55.6802,-293.46749 -71.4016,-50.4399 -106.7749,-75.9873 -106.7749,-75.9873 -119.8763,28.8228 -180.1419,43.2344 -180.1419,43.2344 16.3766,-110.7054 24.8924,-165.73045 24.8924,-165.73045 75.332,-24.89252 113.3255,-37.33854 113.3255,-37.33854 30.7879,-127.08214 46.5094,-190.62296 46.5094,-190.62296 -150.6641,114.63563 -225.9961,172.28112 -225.9961,172.28112 z"
     class="fil1" /></svg>