<?xml version="1.0" encoding="UTF-8" standalone="no"?>
<!-- Created with Inkscape (http://www.inkscape.org/) -->

<svg
   xmlns:dc="http://purl.org/dc/elements/1.1/"
   xmlns:cc="http://creativecommons.org/ns#"
   xmlns:rdf="http://www.w3.org/1999/02/22-rdf-syntax-ns#"
   xmlns:svg="http://www.w3.org/2000/svg"
   xmlns="http://www.w3.org/2000/svg"
   xmlns:sodipodi="http://sodipodi.sourceforge.net/DTD/sodipodi-0.dtd"
   xmlns:inkscape="http://www.inkscape.org/namespaces/inkscape"
   id="svg2860"
   version="1.1"
   inkscape:version="0.91 r13725"
   width="128"
   height="128"
   sodipodi:docname="xan_st_klingon.svg"
   inkscape:export-filename="D:\dev\XansSciFiMashup\raw\flags\xan_st_klingon.png"
   inkscape:export-xdpi="90"
   inkscape:export-ydpi="90">
  <metadata
     id="metadata2866">
    <rdf:RDF>
      <cc:Work
         rdf:about="">
        <dc:format>image/svg+xml</dc:format>
        <dc:type
           rdf:resource="http://purl.org/dc/dcmitype/StillImage" />
        <dc:title></dc:title>
      </cc:Work>
    </rdf:RDF>
  </metadata>
  <defs
     id="defs2864">
    <inkscape:perspective
       sodipodi:type="inkscape:persp3d"
       inkscape:vp_x="0 : 0.5 : 1"
       inkscape:vp_y="0 : 1000 : 0"
       inkscape:vp_z="1 : 0.5 : 1"
       inkscape:persp3d-origin="0.5 : 0.33333333 : 1"
       id="perspective2868" />
    <inkscape:perspective
       id="perspective3654"
       inkscape:persp3d-origin="0.5 : 0.33333333 : 1"
       inkscape:vp_z="1 : 0.5 : 1"
       inkscape:vp_y="0 : 1000 : 0"
       inkscape:vp_x="0 : 0.5 : 1"
       sodipodi:type="inkscape:persp3d" />
    <inkscape:perspective
       id="perspective3676"
       inkscape:persp3d-origin="0.5 : 0.33333333 : 1"
       inkscape:vp_z="1 : 0.5 : 1"
       inkscape:vp_y="0 : 1000 : 0"
       inkscape:vp_x="0 : 0.5 : 1"
       sodipodi:type="inkscape:persp3d" />
    <inkscape:perspective
       id="perspective3714"
       inkscape:persp3d-origin="0.5 : 0.33333333 : 1"
       inkscape:vp_z="1 : 0.5 : 1"
       inkscape:vp_y="0 : 1000 : 0"
       inkscape:vp_x="0 : 0.5 : 1"
       sodipodi:type="inkscape:persp3d" />
    <inkscape:perspective
       id="perspective3743"
       inkscape:persp3d-origin="0.5 : 0.33333333 : 1"
       inkscape:vp_z="1 : 0.5 : 1"
       inkscape:vp_y="0 : 1000 : 0"
       inkscape:vp_x="0 : 0.5 : 1"
       sodipodi:type="inkscape:persp3d" />
    <inkscape:perspective
       id="perspective3773"
       inkscape:persp3d-origin="0.5 : 0.33333333 : 1"
       inkscape:vp_z="1 : 0.5 : 1"
       inkscape:vp_y="0 : 1000 : 0"
       inkscape:vp_x="0 : 0.5 : 1"
       sodipodi:type="inkscape:persp3d" />
    <inkscape:perspective
       id="perspective3795"
       inkscape:persp3d-origin="0.5 : 0.33333333 : 1"
       inkscape:vp_z="1 : 0.5 : 1"
       inkscape:vp_y="0 : 1000 : 0"
       inkscape:vp_x="0 : 0.5 : 1"
       sodipodi:type="inkscape:persp3d" />
    <inkscape:perspective
       id="perspective3830"
       inkscape:persp3d-origin="0.5 : 0.33333333 : 1"
       inkscape:vp_z="1 : 0.5 : 1"
       inkscape:vp_y="0 : 1000 : 0"
       inkscape:vp_x="0 : 0.5 : 1"
       sodipodi:type="inkscape:persp3d" />
    <inkscape:perspective
       id="perspective3860"
       inkscape:persp3d-origin="0.5 : 0.33333333 : 1"
       inkscape:vp_z="1 : 0.5 : 1"
       inkscape:vp_y="0 : 1000 : 0"
       inkscape:vp_x="0 : 0.5 : 1"
       sodipodi:type="inkscape:persp3d" />
    <inkscape:perspective
       id="perspective3887"
       inkscape:persp3d-origin="0.5 : 0.33333333 : 1"
       inkscape:vp_z="1 : 0.5 : 1"
       inkscape:vp_y="0 : 1000 : 0"
       inkscape:vp_x="0 : 0.5 : 1"
       sodipodi:type="inkscape:persp3d" />
    <inkscape:perspective
       id="perspective3913"
       inkscape:persp3d-origin="0.5 : 0.33333333 : 1"
       inkscape:vp_z="1 : 0.5 : 1"
       inkscape:vp_y="0 : 1000 : 0"
       inkscape:vp_x="0 : 0.5 : 1"
       sodipodi:type="inkscape:persp3d" />
    <inkscape:perspective
       id="perspective3964"
       inkscape:persp3d-origin="0.5 : 0.33333333 : 1"
       inkscape:vp_z="1 : 0.5 : 1"
       inkscape:vp_y="0 : 1000 : 0"
       inkscape:vp_x="0 : 0.5 : 1"
       sodipodi:type="inkscape:persp3d" />
  </defs>
  <sodipodi:namedview
     pagecolor="#c00000"
     bordercolor="#666666"
     borderopacity="1"
     objecttolerance="10"
     gridtolerance="10"
     guidetolerance="10"
     inkscape:pageopacity="0"
     inkscape:pageshadow="2"
     inkscape:window-width="1920"
     inkscape:window-height="1017"
     id="namedview2862"
     showgrid="false"
     showguides="false"
     inkscape:zoom="3.8952047"
     inkscape:cx="63.662089"
     inkscape:cy="67.809746"
     inkscape:window-x="1272"
     inkscape:window-y="-8"
     inkscape:window-maximized="1"
     inkscape:current-layer="svg2860" />
  <g
     id="g3779"
     transform="matrix(0.23833161,0,0,0.23833161,23.346453,9.1417948)">
    <circle
       transform="matrix(1.061088,0,0,1.061088,-5.426736,-57.561337)"
       id="path3933"
       style="fill:none;stroke:#000000;stroke-width:6;stroke-miterlimit:4;stroke-dasharray:none;stroke-opacity:1"
       cx="164.91566"
       cy="363.3735"
       r="118.32932" />
    <path
       sodipodi:nodetypes="ccccccccccccccccccccccccccccccccccccc"
       id="path2872-1-4-4"
       d="m 168.89865,388.57508 -59.4303,-88.59517 4.07989,-7.89849 4.72459,-11.36133 2.75142,-7.70394 4.40224,-13.20672 2.7514,-9.90505 3.30169,-12.65645 2.42905,-11.00562 2.52347,-12.65646 2.7514,-13.20672 3.30169,-15.95814 2.2345,-11.55589 5.46942,-30.26544 2.7514,-21.46096 2.75141,-22.011219 3.30168,-24.762611 3.30168,-24.212352 2.75141,-22.561497 3.20727,-23.990134 1.1616,14.279641 1.68422,15.763576 2.20112,18.159255 2.7514,20.91067 2.75139,22.011199 2.87921,21.299782 3.72417,21.62213 4.17431,21.85006 3.5296,20.52155 4.40225,21.46093 3.97975,18.9041 5.9253,23.46751 4.95252,18.70954 4.95253,13.757 4.95252,12.10619 4.40224,9.35476 -57.77944,90.7963 z"
       style="fill:#000000;fill-opacity:1;stroke:none"
       inkscape:connector-curvature="0" />
    <path
       sodipodi:nodetypes="cccccccccccccccccccccccccccccccccc"
       id="path3763-8"
       d="m 232.59921,305.15642 -61.41445,92.09779 7.12971,3.4308 7.8456,3.86175 9.79681,3.72768 11.31712,3.08124 10.78085,1.6017 10.50785,0.78048 15.35362,-0.17477 11.31711,-1.08932 9.75612,-1.56099 14.43905,-2.73171 12.48784,-3.5122 12.09759,-4.29269 16.00005,-5.85369 12.91878,-5.77224 11.52063,-5.32938 6.63417,-3.12194 8.67874,-4.72366 7.03638,-4.34534 -10.88618,-1.25215 -9.59329,-1.56098 -12.26043,-2.77242 -14.43905,-3.90245 -15.6098,-5.07318 -12.87808,-5.46342 -11.31709,-5.46344 -7.8049,-4.68294 -9.75613,-6.63417 -8.97563,-7.0244 -7.02442,-5.85367 -7.02441,-7.8049 -4.29269,-5.46344 -2.34147,-3.12195 z"
       style="fill:#000000;fill-opacity:1;stroke:none"
       inkscape:connector-curvature="0" />
    <path
       sodipodi:nodetypes="ccccccccccccccccccccccccccccccccccc"
       id="path3763-8-5-1"
       d="m 162.97787,396.34737 -57.74111,-91.20582 -5.05522,6.34214 -7.368787,4.69747 -11.141734,6.0813 -10.473631,5.11668 -8.337393,4.80962 -4.845331,2.86288 -4.71402,3.07518 -3.9781,3.08499 -3.43424,3.07623 -6.900088,6.78025 -8.012186,8.46391 -6.266519,8.77607 -5.651904,8.90122 -4.98684,11.23344 -4.5727079,14.35549 -1.2285075,11.29042 -0.3545414,16.28766 0.2481641,20.35902 17.1493657,-12.32373 9.188435,-7.24494 11.907975,-8.83502 10.858284,-6.16755 9.259287,-5.35977 10.771614,-5.15372 7.861983,-3.2046 9.909373,-3.81299 6.545279,-2.00064 8.85463,-1.47838 13.18436,-1.43837 16.17241,0.48395 11.93073,0.78511 7.01915,1.11534 4.20182,0.24716 z"
       style="fill:#000000;fill-opacity:1;stroke:none"
       inkscape:connector-curvature="0" />
  </g>
</svg>
