<?xml version="1.0" encoding="UTF-8" standalone="no"?>
<!-- Created with Inkscape (http://www.inkscape.org/) -->

<svg
   xmlns:dc="http://purl.org/dc/elements/1.1/"
   xmlns:cc="http://creativecommons.org/ns#"
   xmlns:rdf="http://www.w3.org/1999/02/22-rdf-syntax-ns#"
   xmlns:svg="http://www.w3.org/2000/svg"
   xmlns="http://www.w3.org/2000/svg"
   xmlns:sodipodi="http://sodipodi.sourceforge.net/DTD/sodipodi-0.dtd"
   xmlns:inkscape="http://www.inkscape.org/namespaces/inkscape"
   width="128"
   height="128"
   viewBox="0 0 128 128"
   id="svg2"
   version="1.1"
   inkscape:version="0.91 r13725"
   sodipodi:docname="xan_w4_eldar.svg"
   inkscape:export-filename="D:\dev\XansSciFiMashup\raw\flags\xan_w4_eldar.png"
   inkscape:export-xdpi="90"
   inkscape:export-ydpi="90">
  <defs
     id="defs4" />
  <sodipodi:namedview
     id="base"
     pagecolor="#00b2c4"
     bordercolor="#666666"
     borderopacity="1.0"
     inkscape:pageopacity="0"
     inkscape:pageshadow="2"
     inkscape:zoom="5.8830568"
     inkscape:cx="22.293486"
     inkscape:cy="65.716752"
     inkscape:document-units="px"
     inkscape:current-layer="layer1"
     showgrid="false"
     inkscape:window-width="1920"
     inkscape:window-height="1017"
     inkscape:window-x="1272"
     inkscape:window-y="-8"
     inkscape:window-maximized="1"
     units="px"
     showguides="false" />
  <metadata
     id="metadata7">
    <rdf:RDF>
      <cc:Work
         rdf:about="">
        <dc:format>image/svg+xml</dc:format>
        <dc:type
           rdf:resource="http://purl.org/dc/dcmitype/StillImage" />
        <dc:title />
      </cc:Work>
    </rdf:RDF>
  </metadata>
  <g
     inkscape:label="Ebene 1"
     inkscape:groupmode="layer"
     id="layer1"
     transform="translate(0,-924.3622)">
    <path
       style="fill:#000000"
       d=""
       id="path4147"
       inkscape:connector-curvature="0" />
    <path
       style="fill:#000000"
       d=""
       id="path4145"
       inkscape:connector-curvature="0" />
    <path
       style="fill:#ffffff;fill-opacity:1"
       d="m 56.538179,1041.85 c -0.44854,-0.4957 -0.43962,-0.5759 0.18923,-1.7023 1.28445,-2.3007 1.55709,-4.165 1.99745,-13.6586 0.22855,-4.9272 0.47869,-10.9853 0.55586,-13.4626 l 0.14033,-4.5041 -1.16589,-0.8574 c -0.64124,-0.4716 -1.29453,-0.8556 -1.45175,-0.8533 -0.15722,0 -2.87709,2.6049 -6.04416,5.7836 -5.57428,5.5948 -6.8406,7.1951 -6.85909,8.668 -0.0134,1.0683 -1.1924,0.4452 -3.59574,-1.9003 -1.33869,-1.3064 -2.79342,-2.8262 -3.23272,-3.3772 l -0.79874,-1.0019 2.17381,-1.0767 c 2.13763,-1.0588 3.60866,-2.2284 8.41744,-6.6924 1.2867,-1.1945 3.29341,-3.0147 4.45934,-4.0448 1.8764,-1.6579 2.09965,-1.9541 1.9438,-2.579 -0.0968,-0.3882 -0.24559,-1.05535 -0.33055,-1.48235 l -0.15447,-0.7764 -6.68369,0.1604 c -7.89477,0.1894 -11.8412,0.6584 -13.32216,1.58335 -0.41433,0.2587 -0.67903,0.2714 -1.03149,0.049 -0.41683,-0.26275 -0.48308,-0.87305 -0.54811,-5.04985 -0.0872,-5.6009 -0.002,-5.8179 1.91342,-4.8981 2.81857,1.3532 7.28875,1.9357 15.02427,1.9576 l 4.64758,0.013 0.35686,-1.2746 c 0.60777,-2.1707 2.29871,-5.08771 3.68711,-6.36047 0.42752,-0.39191 1.2965,-1.04949 1.93106,-1.46129 2.39081,-1.5515 2.36733,-1.55452 -10.99453,-1.41273 -7.11447,0.0755 -12.34513,0.0258 -12.62335,-0.11995 -0.26129,-0.13688 -0.47507,-0.41378 -0.47507,-0.61533 0,-0.20155 0.78879,-1.63265 1.75287,-3.18022 0.96408,-1.54757 2.3384,-3.76337 3.05404,-4.92401 0.71564,-1.16064 1.6302,-2.62657 2.03236,-3.25764 0.40216,-0.63106 1.13512,-1.80189 1.62882,-2.60184 1.05965,-1.71701 1.00475,-1.62957 4.24206,-6.75559 1.39153,-2.20335 2.67422,-4.24042 2.85044,-4.52682 0.95891,-1.55848 4.32035,-6.94253 5.61406,-8.99212 1.82104,-2.88502 2.53471,-4.044 3.25271,-5.28227 0.30301,-0.52258 1.27653,-2.0496 2.16337,-3.39337 0.88685,-1.34378 1.61912,-2.57529 1.62729,-2.73669 0.008,-0.16141 0.32385,-0.45885 0.70153,-0.66097 0.58448,-0.31281 0.74544,-0.30875 1.0814,0.0272 0.4931,0.4931 2.8469,4.29236 2.8469,4.59517 0,0.12271 0.0916,0.26384 0.20361,0.31361 0.11198,0.0498 0.68372,0.88454 1.27053,1.85504 0.58681,0.97051 1.57517,2.55861 2.19635,3.52911 1.47589,2.30584 5.34739,8.5386 5.69522,9.16878 0.14931,0.27051 1.07828,1.76925 2.06437,3.33055 3.02104,4.78323 5.27995,8.39279 7.35399,11.75106 1.09086,1.7663 2.16662,3.49125 2.39058,3.83322 0.22397,0.34196 0.87546,1.40111 1.44776,2.35366 0.57231,0.95255 1.51157,2.46488 2.08724,3.36073 1.14717,1.78518 1.30451,2.43472 0.65058,2.68566 -0.23617,0.0906 -5.91668,0.16477 -12.62335,0.16477 -10.18117,0 -12.19394,0.0618 -12.19394,0.37427 0,0.20585 0.37682,0.53036 0.83738,0.72113 1.11067,0.46005 3.97837,3.45247 4.86399,5.07555 0.3885,0.712 0.8982,1.9053 1.13268,2.6518 l 0.42631,1.3574 3.0887,-0.03 c 6.143,-0.06 14.50529,-0.4141 15.16911,-0.6424 2.18937,-0.753 2.67911,-0.5713 3.00475,1.1146 0.37122,1.9218 0.30969,7.4541 -0.0865,7.7734 -0.23364,0.18835 -1.11588,0.0811 -2.83239,-0.3448 -1.88348,-0.4671 -4.00754,-0.698 -8.68704,-0.9444 -3.40669,-0.1794 -6.98803,-0.2841 -7.95853,-0.2328 -1.6471,0.087 -1.7706,0.1385 -1.85541,0.772 -0.05,0.3733 -0.20267,0.79475 -0.33934,0.93665 -0.72962,0.7572 -0.11287,1.4634 5.58355,6.3931 1.46651,1.2691 3.47234,3.046 4.45738,3.9486 2.29148,2.0996 3.32357,2.833 5.25224,3.7322 0.85852,0.4003 1.5602,0.882 1.55927,1.0706 -0.002,0.459 -6.30065,6.9938 -6.74079,6.9938 -0.19009,0 -0.65296,-0.7024 -1.02859,-1.5609 -0.37563,-0.8585 -1.0019,-2.0496 -1.39171,-2.6468 -0.91637,-1.404 -10.94369,-11.5375 -11.41657,-11.5375 -0.19804,0 -0.76047,0.3054 -1.24985,0.6787 -0.48939,0.3732 -1.03096,0.6786 -1.2035,0.6786 -0.36944,0 -0.36978,0.086 -0.0367,9.23 0.37834,10.3853 0.75533,16.747 1.09259,18.4377 0.54692,2.7417 0.8781,3.9445 1.3817,5.018 0.81291,1.7327 0.65156,1.7724 -7.25638,1.7824 -6.37438,0.01 -6.84282,-0.025 -7.28327,-0.5115 z m 9.97382,-36.289 c 4.44626,-1.515 7.16609,-7.79975 5.74187,-13.26765 -1.80768,-6.94014 -8.38949,-9.67405 -13.09811,-5.4406 -4.74344,4.2648 -4.74089,12.8436 0.005,17.11065 2.14588,1.9294 4.72954,2.4908 7.35114,1.5976 z m -4.97225,-2.0331 c -6.4723,-2.9297 -6.4723,-13.58595 0,-16.51575 3.73991,-1.69291 7.958,0.7519 9.34282,5.4151 1.65249,5.5645 -1.95259,11.65365 -6.8996,11.65365 -0.67188,0 -1.77134,-0.2488 -2.44322,-0.553 z m 19.8173,-29.05381 c 0,-0.16498 -0.36649,-0.84299 -0.81441,-1.50669 -0.44793,-0.6637 -0.81441,-1.30781 -0.81441,-1.43135 0,-0.12354 -0.17525,-0.37006 -0.38944,-0.54782 -0.21418,-0.17776 -0.64176,-0.80731 -0.95017,-1.399 -0.3084,-0.59169 -1.47693,-2.46915 -2.59673,-4.17215 -1.1198,-1.70299 -2.036,-3.16131 -2.036,-3.24071 0,-0.0794 -0.4677,-0.85062 -1.03933,-1.71383 -2.06329,-3.11573 -3.03272,-4.68735 -3.03272,-4.91659 0,-0.12847 -0.24432,-0.45468 -0.54294,-0.72493 -0.29861,-0.27024 -0.54294,-0.58916 -0.54294,-0.70869 0,-0.11954 -0.27486,-0.6265 -0.61081,-1.12657 -0.33594,-0.50008 -1.28269,-1.97075 -2.10389,-3.26816 -0.82119,-1.29741 -1.63274,-2.35962 -1.80344,-2.36046 -0.2789,-10e-4 -4.16889,5.75043 -4.16889,6.1642 0,0.0941 -0.20294,0.39529 -0.45098,0.66937 -0.24803,0.27407 -0.58397,0.73562 -0.74654,1.02565 -0.40925,0.73016 -3.23517,5.23415 -4.52112,7.20582 -0.58429,0.89585 -1.17827,1.89181 -1.31995,2.21325 -0.14169,0.32144 -0.39484,0.66926 -0.56257,0.77292 -0.16773,0.10366 -0.42204,0.45147 -0.56514,0.77291 -0.14309,0.32144 -0.59366,1.10548 -1.00126,1.7423 -2.3526,3.67565 -4.13447,6.56159 -4.13447,6.69623 0,0.0848 7.81833,0.15427 17.37407,0.15427 12.50213,0 17.37408,-0.0841 17.37408,-0.29997 z"
       id="path4148"
       inkscape:connector-curvature="0" />
  </g>
</svg>
