<?xml version="1.0" encoding="UTF-8" standalone="no"?>
<!-- Created with Inkscape (http://www.inkscape.org/) -->

<svg
   xmlns:dc="http://purl.org/dc/elements/1.1/"
   xmlns:cc="http://creativecommons.org/ns#"
   xmlns:rdf="http://www.w3.org/1999/02/22-rdf-syntax-ns#"
   xmlns:svg="http://www.w3.org/2000/svg"
   xmlns="http://www.w3.org/2000/svg"
   xmlns:sodipodi="http://sodipodi.sourceforge.net/DTD/sodipodi-0.dtd"
   xmlns:inkscape="http://www.inkscape.org/namespaces/inkscape"
   version="1.1"
   width="136.53334"
   height="136.53334"
   id="svg2"
   inkscape:version="0.92.1 r15371"
   sodipodi:docname="xan_st_federation.svg"
   inkscape:export-filename="D:\dev\XansSciFiMashup\raw\flags\xan_st_federation.png"
   inkscape:export-xdpi="90"
   inkscape:export-ydpi="90">
  <sodipodi:namedview
     pagecolor="#0033fa"
     bordercolor="#666666"
     borderopacity="1"
     objecttolerance="10"
     gridtolerance="10"
     guidetolerance="10"
     inkscape:pageopacity="0"
     inkscape:pageshadow="2"
     inkscape:window-width="1697"
     inkscape:window-height="1057"
     id="namedview93"
     showgrid="false"
     inkscape:zoom="4.8766141"
     inkscape:cx="27.34254"
     inkscape:cy="63.956699"
     inkscape:window-x="-8"
     inkscape:window-y="837"
     inkscape:window-maximized="1"
     inkscape:current-layer="svg2" />
  <defs
     id="defs4" />
  <metadata
     id="metadata7">
    <rdf:RDF>
      <cc:Work
         rdf:about="">
        <dc:format>image/svg+xml</dc:format>
        <dc:type
           rdf:resource="http://purl.org/dc/dcmitype/StillImage" />
        <dc:title />
      </cc:Work>
    </rdf:RDF>
  </metadata>
  <g
     id="g4099"
     transform="matrix(0.15072878,0,0,0.15072878,10.666668,24.509632)">
    <path
       id="path2997"
       d="M 382.13333,22.1 C 248.46133,22.1 140.1,130.496 140.1,264.16667 140.1,397.844 248.46133,506.2 382.13333,506.2 515.80533,506.2 624.16667,397.844 624.16667,264.16667 624.16667,130.496 515.80533,22.1 382.13333,22.1 Z m 0,4.766667 c 131.052,0 237.3,106.248003 237.3,237.300003 0,131.05333 -106.248,237.26666 -237.3,237.26666 -131.052,0 -237.26666,-106.21333 -237.26666,-237.26666 0,-131.052 106.21466,-237.300003 237.26666,-237.300003 z"
       style="fill:#ffffff;fill-opacity:1;fill-rule:nonzero;stroke:none;stroke-width:1.06666672"
       inkscape:connector-curvature="0" />
    <path
       d="M 161.92133,59.770667 C 185.15067,40.724 211.636,0 211.636,0 c 0,0 -8.48533,0.46933333 -19.79733,6.6933333 C 177.75467,14.437333 160.22933,28.276 160.22933,28.276 l 1.71334,-17.134667 c 0,0 -13.95867,11.057334 -22.864,25.686667 -9.084,14.928 -13.12534,33.437333 -13.12534,33.437333 0,0 16.72934,5.281334 35.968,-10.494666 z m -44.04666,55.500003 c 13.18266,-11.92667 22.64666,-28.729337 22.64666,-28.729337 0,0 -8.052,4.005334 -15.548,5.22 C 119.52133,92.636 113.95867,90.828 113.95867,90.828 c 0,0 -2.89067,-6.030667 -2.308,-16.317333 0.69333,-12.245334 4.88,-29.093334 4.88,-29.093334 0,0 -15.61334,16.838667 -22.364003,37.098667 -1.896,5.688 -3.317334,11.598667 -4.390667,17.328 -4.136,19.26533 -3.234667,35.536 -3.234667,35.536 0,0 17.541337,-7.62933 31.333337,-20.10933 z m -24.672003,62.776 c 10.698663,-11.78534 17.328003,-29.812 17.328003,-29.812 0,0 -9.06134,5.05733 -18.37467,7.20266 -7.088,1.636 -15.041333,0.51067 -15.041333,0.51067 0,0 -2.489334,-7.33333 -3.478667,-17.828 -1.772,-18.70267 -0.802667,-48.150667 -0.802667,-48.150667 0,0 -16.12,29.295997 -16.786666,55.765337 -0.62,24.42666 12.5,48.76533 12.5,48.76533 0,0 14.370666,-5.11467 24.656,-16.45333 z m -30.656,73.86533 c 0,0 15.677333,-11.82267 24.136,-25.62 7.790666,-12.71867 8.426666,-27.50533 8.426666,-27.50533 0,0 -7.562666,4.13066 -15.598666,7.25466 -7.354667,2.86 -15.250667,4.74 -15.250667,4.74 0,0 -8.744,-9.552 -14.12,-22.09866 C 41.978667,169.636 35.989333,144.808 35.989333,144.808 c 0,0 -8.666666,33.24933 -1.968,60.26 6.582667,26.536 28.525334,46.844 28.525334,46.844 z m 4.286666,65.11467 c 0,0 10.806667,-11.39067 16.630667,-25.75067 6.161333,-15.17733 7.358667,-33.36933 7.358667,-33.36933 l -24.849334,22.276 c 0,0 -13.348,-8.844 -24.812,-24.016 -15.702666,-20.776 -30.88,-49.672 -30.88,-49.672 0,0 -1.9119997,45.224 12.338667,73.07333 14.025333,27.412 44.213333,37.45867 44.213333,37.45867 z m 16.281334,59.97866 c 0,0 9.541333,-11.052 12.530666,-25.276 3.770667,-17.90666 1.177334,-39.844 1.177334,-39.844 0,0 -4.349334,9.08934 -9.890667,17.40134 -4.666667,7 -10.677333,13.44266 -10.677333,13.44266 0,0 -15.577334,-6.27066 -30.790667,-20.62 C 24.057333,301.91733 0,269.04133 0,269.04133 c 0,0 2.2186667,49.032 22.604,75.152 20.74,26.572 60.510667,32.812 60.510667,32.812 z M 116.53067,434.412 c 0,0 5.80266,-15.45867 5.6,-32.552 -0.224,-18.81333 -6.45867,-39.42267 -6.45867,-39.42267 l -19.708,37.704 c 0,0 -18.505333,0.59334 -37,-9.13066 -22.641333,-11.90667 -46.109333,-34.568 -46.109333,-34.568 0,0 15.358666,42.84933 41.968,62.86 25.188,18.948 61.708003,15.10933 61.708003,15.10933 z m 40.272,49.69733 c 0,0 2.724,-17.42666 0.14533,-33.30133 -2.964,-18.22933 -11.28667,-35.24533 -11.28667,-35.24533 0,0 -1.57866,12.448 -5.312,23.64533 -3.052,9.16267 -8.396,17.48 -8.396,17.48 0,0 -10.568,1.56267 -24.02666,0.36933 -19.30667,-1.708 -43.66667,-6.364 -43.66667,-6.364 0,0 13.156,18.19734 36.84933,26.75467 22.54667,8.14133 55.69334,6.66133 55.69334,6.66133 z m 18.848,-29.98933 -3.42667,43.69733 c 0,0 -9.92667,3.90667 -23.16133,4.448 -17.448,0.71867 -39.38534,-1.88 -39.38534,-1.88 0,0 19.18667,16.376 42.06267,21.66667 23.38533,5.41733 50.47333,-0.244 50.47333,-0.244 0,0 2.89067,-15.45333 -3.21866,-30.224 -7.09867,-17.17733 -23.344,-37.464 -23.344,-37.464 z m 160.66666,90.02133 c -14.63466,-8.084 -36.42666,-12.90666 -36.42666,-12.90666 0,0 -21.95334,-3.584 -42.776,-9.656 C 236.81733,515.656 217.636,507.24 217.636,507.24 c 0,0 4.30667,10.724 1.98933,18.13467 -1.932,6.18266 -10.55733,9.28666 -10.55733,9.28666 l 18.84933,5.99467 c 0,0 47.588,1.38533 75.416,5.912 24.67734,4.016 29.97334,11.224 29.97334,11.224 0,0 -3.01467,3.16667 -13.61334,4.87467 -15.14133,2.44266 -37.79733,1.98 -37.79733,1.98 l 16.28133,15.42133 c 0,0 17.83867,2.18267 33.24934,-2.28667 14.09466,-4.08266 25.87066,-14.84933 25.87066,-14.84933 0,0 -6.92266,-11.03067 -20.98,-18.79067 z M 602.364,59.770667 c 19.24,15.776 35.96933,10.490666 35.96933,10.490666 0,0 -4.036,-18.510666 -13.12533,-33.438666 C 616.30667,22.193333 602.34933,11.141333 602.34933,11.141333 L 604.06267,28.276 c 0,0 -17.532,-13.838667 -31.61467,-21.5826667 C 561.136,0.46933333 552.65067,0 552.65067,0 c 0,0 26.48933,40.724 49.71333,59.770667 z m 44.048,55.500003 c 13.796,12.48 31.33733,20.10933 31.33733,20.10933 0,0 0.90134,-16.244 -3.228,-35.5 -1.07333,-5.738667 -2.49466,-11.666667 -4.396,-17.364 C 663.36933,62.256 647.76,45.417333 647.76,45.417333 c 0,0 4.188,16.848 4.88,29.098667 0.584,10.281333 -2.312,16.312 -2.312,16.312 0,0 -5.56267,1.808 -11.01067,0.933333 -7.49466,-1.214666 -15.54666,-5.22 -15.54666,-5.22 0,0 9.45866,16.802667 22.64133,28.729337 z m 7.348,32.964 c 0,0 6.63067,18.02133 17.32267,29.812 C 681.37467,189.38 695.74,194.5 695.74,194.5 c 0,0 13.12,-24.33867 12.50533,-48.76533 -0.66666,-26.47334 -16.78666,-55.765337 -16.78666,-55.765337 0,0 0.968,29.447997 -0.80267,48.150667 -0.99467,10.49467 -3.484,17.828 -3.484,17.828 0,0 -7.95333,1.13067 -15.04133,-0.51067 C 662.81733,153.292 653.76,148.23467 653.76,148.23467 Z m 31.02133,57.80666 c -8.04133,-3.124 -15.59866,-7.25466 -15.59866,-7.25466 0,0 0.62933,14.78666 8.42666,27.50533 8.45867,13.79733 24.13067,25.62 24.13067,25.62 0,0 21.948,-20.308 28.52533,-46.844 6.69867,-27.01067 -1.96266,-60.26 -1.96266,-60.26 0,0 -5.996,24.828 -14.15734,43.87467 -5.38,12.54666 -14.11866,22.09866 -14.11866,22.09866 0,0 -7.89067,-1.88 -15.24534,-4.74 z m 13.53067,74.14134 -24.848,-22.276 c 0,0 1.19733,18.192 7.35867,33.37466 5.82266,14.35467 16.63066,25.74534 16.63066,25.74534 0,0 30.192,-10.04667 44.21334,-37.45334 C 755.91733,251.71867 754.00533,206.5 754.00533,206.5 c 0,0 -15.17733,28.896 -30.88,49.672 -11.464,15.16667 -24.81333,24.01067 -24.81333,24.01067 z m 20.51067,41.92666 c -15.21334,14.34934 -30.792,20.62534 -30.792,20.62534 0,0 -6.01467,-6.448 -10.68134,-13.448 C 671.812,320.98 667.464,311.88533 667.464,311.88533 c 0,0 -2.6,21.93734 1.176,39.844 2.996,14.22934 12.532,25.276 12.532,25.276 0,0 39.77067,-6.24 60.516,-32.812 20.38533,-26.11466 22.59867,-75.14666 22.59867,-75.14666 0,0 -24.05734,32.87066 -45.464,53.06266 z m -50.5,78.032 -19.708,-37.704 c 0,0 -6.22934,20.60934 -6.45334,39.42267 -0.208,17.088 5.59867,32.552 5.59867,32.552 0,0 36.516,3.83867 61.70933,-15.10933 26.60934,-20.01067 41.968,-62.86 41.968,-62.86 0,0 -23.47333,22.66133 -46.10933,34.568 -18.49467,9.724 -37.00533,9.13066 -37.00533,9.13066 z m -35.984,56.54667 c 0,0 -5.344,-8.31733 -8.396,-17.48 -3.73467,-11.19733 -5.312,-23.64533 -5.312,-23.64533 0,0 -8.324,17.016 -11.28667,35.24533 -2.584,15.87467 0.14533,33.30133 0.14533,33.30133 0,0 33.14667,1.48 55.69334,-6.66133 23.692,-8.55733 36.848,-26.75467 36.848,-26.75467 0,0 -24.35867,4.65067 -43.67067,6.364 -13.45867,1.19334 -24.02133,-0.36933 -24.02133,-0.36933 z m -17.10934,45.57733 c -13.24,-0.54133 -23.16133,-4.448 -23.16133,-4.448 L 588.64,454.12 c 0,0 -16.244,20.28667 -23.348,37.464 -6.104,14.77067 -3.21333,30.224 -3.21333,30.224 0,0 27.08266,5.66667 50.468,0.244 22.87466,-5.29067 42.068,-21.66667 42.068,-21.66667 0,0 -21.93734,2.59867 -39.38534,1.88 z m -70.56266,23.10934 C 542.34933,517.964 546.656,507.24 546.656,507.24 c 0,0 -19.18667,8.416 -39.484,14.33867 -20.82267,6.072 -42.77067,9.656 -42.77067,9.656 0,0 -21.79733,4.82266 -36.432,12.90666 -14.05733,7.76 -20.98,18.796 -20.98,18.796 0,0 11.78134,10.76667 25.87067,14.84934 15.41067,4.46933 33.25467,2.28666 33.25467,2.28666 L 482.396,564.65067 c 0,0 -22.66133,0.464 -37.80267,-1.97867 -10.59866,-1.708 -13.60933,-4.87467 -13.60933,-4.87467 0,0 5.292,-7.21333 29.97467,-11.224 27.82266,-4.52666 75.41066,-5.912 75.41066,-5.912 l 18.85467,-6 c 0,0 -8.62533,-3.104 -10.55733,-9.28666 z"
       id="path2999"
       style="fill:#ffffff;fill-opacity:1;fill-rule:nonzero;stroke:none;stroke-width:1.06666672"
       inkscape:connector-curvature="0" />
    <path
       d="M 382.14533,2.8226667 C 237.81733,2.8226667 120.812,119.82267 120.812,264.156 c 0,144.328 117.00533,261.328 261.33333,261.328 144.33334,0 261.33334,-117 261.33334,-261.33333 -0.005,-144.328 -117,-261.3280033 -261.33334,-261.3280033 z m 0,508.9533333 c -136.76,0 -247.624,-110.86933 -247.624,-247.62533 0,-136.76 110.864,-247.61867 247.624,-247.61867 136.756,0 247.62534,110.864 247.62534,247.61867 0,136.76133 -110.86934,247.62533 -247.62534,247.62533 z"
       id="path3001"
       style="fill:#ffffff;fill-opacity:1;fill-rule:nonzero;stroke:none;stroke-width:1.06666672"
       inkscape:connector-curvature="0" />
    <path
       d="m 372.636,271.03733 h 0.004 -0.0147 c -1.04134,-0.016 -48.25067,-0.76666 -56.04667,-8.56266 -7.79733,-7.79734 -8.548,-55.00534 -8.56267,-56.04267 v -0.02 0.0107 -0.0107 0.02 c -0.016,1.03733 -0.76533,48.24533 -8.56266,56.04267 -7.76,7.75466 -54.51067,8.54133 -56.02667,8.56266 h -0.036 0.0213 -0.0213 0.036 c 1.516,0.0254 48.27067,0.812 56.02667,8.56667 7.79733,7.79733 8.54666,55.00533 8.56266,56.04267 v 0.0201 -0.0107 0.0107 -0.0201 c 0.0147,-1.03734 0.77067,-48.24534 8.568,-56.04267 7.79067,-7.796 55.004,-8.552 56.04134,-8.56667 h 0.0147 z"
       id="path3005"
       style="fill:#ffffff;fill-opacity:1;fill-rule:nonzero;stroke:none;stroke-width:1.06666672"
       inkscape:connector-curvature="0" />
    <path
       d="m 480.99467,195.03733 h 0.0107 -0.016 C 480.188,195.02667 443.77067,194.44267 437.76,188.432 431.74533,182.41733 431.16133,146 431.15067,145.19867 v -0.0107 0.005 -0.005 0.0107 c -0.0107,0.80133 -0.588,37.21866 -6.604,43.23333 -5.984,5.98 -42.04667,6.58933 -43.21334,6.60533 h -0.0307 0.0147 c -0.0107,0 -0.0147,0 -0.0147,0 h 0.0307 c 1.16667,0.0201 37.23467,0.624 43.21334,6.604 6.016,6.01467 6.59333,42.432 6.604,43.23334 v 0.016 -0.0107 0.0107 -0.016 c 0.016,-0.80134 0.59466,-37.21867 6.60933,-43.23334 6.016,-6.01066 42.428,-6.59466 43.22933,-6.604 h 0.016 z"
       id="path3007"
       style="fill:#ffffff;fill-opacity:1;fill-rule:nonzero;stroke:none;stroke-width:1.06666672"
       inkscape:connector-curvature="0" />
    <path
       d="m 503.81733,325.21333 h 0.005 -0.016 c -0.744,-0.01 -34.73867,-0.552 -40.348,-6.16666 -5.62,-5.61467 -6.156,-39.604 -6.16667,-40.348 v -0.016 0.005 -0.005 0.016 c -0.016,0.744 -0.55733,34.73333 -6.172,40.35333 -5.584,5.57867 -39.24533,6.14667 -40.33333,6.16133 h -0.032 0.016 c -0.0107,0 -0.016,0 -0.016,0 h 0.032 c 1.088,0.0213 34.74933,0.58934 40.33333,6.16667 5.62,5.61467 6.156,39.60933 6.172,40.35467 v 0.016 -0.005 0.005 -0.016 c 0.0107,-0.74534 0.552,-34.74 6.16667,-40.35467 5.60933,-5.61467 39.604,-6.156 40.348,-6.16667 h 0.016 z"
       id="path3009"
       style="fill:#ffffff;fill-opacity:1;fill-rule:nonzero;stroke:none;stroke-width:1.06666672"
       inkscape:connector-curvature="0" />
    <path
       d="m 475.32267,262.74 c 0,5.968 -4.83867,10.80667 -10.80667,10.80667 -5.96933,0 -10.81333,-4.83867 -10.81333,-10.80667 0,-5.97467 4.844,-10.812 10.81333,-10.812 5.968,0 10.80667,4.83733 10.80667,10.812 z"
       id="path3011"
       style="fill:#ffffff;fill-opacity:1;fill-rule:nonzero;stroke:none;stroke-width:1.06666672"
       inkscape:connector-curvature="0" />
    <path
       d="m 410.97867,304.24 c 0,5.968 -4.83867,10.80667 -10.80667,10.80667 -5.96933,0 -10.808,-4.83867 -10.808,-10.80667 0,-5.96933 4.83867,-10.808 10.808,-10.808 5.968,0 10.80667,4.83867 10.80667,10.808 z"
       id="path3013"
       style="fill:#ffffff;fill-opacity:1;fill-rule:nonzero;stroke:none;stroke-width:1.06666672"
       inkscape:connector-curvature="0" />
    <path
       d="m 339.83333,381.98 c 0,5.968 -4.844,10.80667 -10.812,10.80667 -5.96933,0 -10.808,-4.83867 -10.808,-10.80667 0,-5.97467 4.83867,-10.81333 10.808,-10.81333 5.968,0 10.812,4.83866 10.812,10.81333 z"
       id="path3015"
       style="fill:#ffffff;fill-opacity:1;fill-rule:nonzero;stroke:none;stroke-width:1.06666672"
       inkscape:connector-curvature="0" />
    <path
       d="m 392.208,236.896 c 0,5.54667 -4.5,10.04133 -10.04667,10.04133 -5.54666,0 -10.04133,-4.49466 -10.04133,-10.04133 0,-5.54667 4.49467,-10.04133 10.04133,-10.04133 5.54667,0 10.04667,4.49466 10.04667,10.04133 z"
       id="path3017"
       style="fill:#ffffff;fill-opacity:1;fill-rule:nonzero;stroke:none;stroke-width:1.06666672"
       inkscape:connector-curvature="0" />
    <path
       d="m 393.42667,360.46933 c 0,5.89067 -4.776,10.66667 -10.66667,10.66667 -5.89067,0 -10.66667,-4.776 -10.66667,-10.66667 0,-5.89066 4.776,-10.66666 10.66667,-10.66666 5.89067,0 10.66667,4.776 10.66667,10.66666 z"
       id="path3019"
       style="fill:#ffffff;fill-opacity:1;fill-rule:nonzero;stroke:none;stroke-width:1.06666672"
       inkscape:connector-curvature="0" />
    <path
       d="m 251.552,367.92267 c 0,5.968 -4.83867,10.812 -10.80667,10.812 -5.96933,0 -10.81333,-4.844 -10.81333,-10.812 0,-5.96934 4.844,-10.808 10.81333,-10.808 5.968,0 10.80667,4.83866 10.80667,10.808 z"
       id="path3021"
       style="fill:#ffffff;fill-opacity:1;fill-rule:nonzero;stroke:none;stroke-width:1.06666672"
       inkscape:connector-curvature="0" />
    <path
       d="m 595.588,178.19333 c 0,5.968 -4.83867,10.80667 -10.812,10.80667 -5.96933,0 -10.80667,-4.83867 -10.80667,-10.80667 0,-5.97466 4.83734,-10.81333 10.80667,-10.81333 5.97333,0 10.812,4.83867 10.812,10.81333 z"
       id="path3023"
       style="fill:#ffffff;fill-opacity:1;fill-rule:nonzero;stroke:none;stroke-width:1.06666672"
       inkscape:connector-curvature="0" />
    <path
       d="m 534.48933,156.52667 c 0,6.02 -4.88,10.90533 -10.90533,10.90533 -6.02133,0 -10.90667,-4.88533 -10.90667,-10.90533 0,-6.02667 4.88534,-10.912 10.90667,-10.912 6.02533,0 10.90533,4.88533 10.90533,10.912 z"
       id="path3025"
       style="fill:#ffffff;fill-opacity:1;fill-rule:nonzero;stroke:none;stroke-width:1.06666672"
       inkscape:connector-curvature="0" />
    <path
       d="m 388.776,266.90667 c 0,4.38 -3.54667,7.932 -7.92667,7.932 -4.38,0 -7.932,-3.552 -7.932,-7.932 0,-4.37467 3.552,-7.92667 7.932,-7.92667 4.38,0 7.92667,3.552 7.92667,7.92667 z"
       id="path3027"
       style="fill:#ffffff;fill-opacity:1;fill-rule:nonzero;stroke:none;stroke-width:1.06666672"
       inkscape:connector-curvature="0" />
    <path
       d="m 280.44267,363.24 c 0,4.38 -3.552,7.932 -7.932,7.932 -4.38,0 -7.92667,-3.552 -7.92667,-7.932 0,-4.38 3.54667,-7.932 7.92667,-7.932 4.38,0 7.932,3.552 7.932,7.932 z"
       id="path3029"
       style="fill:#ffffff;fill-opacity:1;fill-rule:nonzero;stroke:none;stroke-width:1.06666672"
       inkscape:connector-curvature="0" />
    <path
       d="m 188.79733,324.88533 c 0,4.38 -3.552,7.928 -7.928,7.928 -4.38,0 -7.932,-3.548 -7.932,-7.928 0,-4.38 3.552,-7.932 7.932,-7.932 4.376,0 7.928,3.552 7.928,7.932 z"
       id="path3031"
       style="fill:#ffffff;fill-opacity:1;fill-rule:nonzero;stroke:none;stroke-width:1.06666672"
       inkscape:connector-curvature="0" />
    <path
       d="m 423.47333,62.682667 c 0,4.38 -3.552,7.932 -7.932,7.932 -4.38,0 -7.932,-3.552 -7.932,-7.932 0,-4.38 3.552,-7.932 7.932,-7.932 4.38,0 7.932,3.552 7.932,7.932 z"
       id="path3033"
       style="fill:#ffffff;fill-opacity:1;fill-rule:nonzero;stroke:none;stroke-width:1.06666672"
       inkscape:connector-curvature="0" />
    <path
       d="m 466.80667,53.021333 c 0,4.38 -3.552,7.932 -7.932,7.932 -4.38,0 -7.92667,-3.552 -7.92667,-7.932 0,-4.38 3.54667,-7.932 7.92667,-7.932 4.38,0 7.932,3.552 7.932,7.932 z"
       id="path3035"
       style="fill:#ffffff;fill-opacity:1;fill-rule:nonzero;stroke:none;stroke-width:1.06666672"
       inkscape:connector-curvature="0" />
    <path
       d="m 203.59867,237.09867 c 0,4.83866 -3.92134,8.76133 -8.76,8.76133 -4.83334,0 -8.756,-3.92267 -8.756,-8.76133 0,-4.83334 3.92266,-8.75467 8.756,-8.75467 4.83866,0 8.76,3.92133 8.76,8.75467 z"
       id="path3037"
       style="fill:#ffffff;fill-opacity:1;fill-rule:nonzero;stroke:none;stroke-width:1.06666672"
       inkscape:connector-curvature="0" />
    <path
       d="m 186.01067,299.31733 c 0,4.83334 -3.92267,8.756 -8.756,8.756 -4.83867,0 -8.76,-3.92266 -8.76,-8.756 0,-4.83733 3.92133,-8.76 8.76,-8.76 4.83333,0 8.756,3.92267 8.756,8.76 z"
       id="path3039"
       style="fill:#ffffff;fill-opacity:1;fill-rule:nonzero;stroke:none;stroke-width:1.06666672"
       inkscape:connector-curvature="0" />
    <path
       d="m 344.46933,140.86 c 0,4.83867 -3.92266,8.76 -8.76133,8.76 -4.83867,0 -8.76,-3.92133 -8.76,-8.76 0,-4.83333 3.92133,-8.756 8.76,-8.756 4.83867,0 8.76133,3.92267 8.76133,8.756 z"
       id="path3041"
       style="fill:#ffffff;fill-opacity:1;fill-rule:nonzero;stroke:none;stroke-width:1.06666672"
       inkscape:connector-curvature="0" />
    <path
       d="m 303.76533,143.44267 c 0,3.276 -2.656,5.932 -5.932,5.932 -3.28133,0 -5.93733,-2.656 -5.93733,-5.932 0,-3.276 2.656,-5.93734 5.93733,-5.93734 3.276,0 5.932,2.66134 5.932,5.93734 z"
       id="path3043"
       style="fill:#ffffff;fill-opacity:1;fill-rule:nonzero;stroke:none;stroke-width:1.06666672"
       inkscape:connector-curvature="0" />
    <path
       d="m 373.98933,109.16133 c 0,3.276 -2.656,5.93734 -5.932,5.93734 -3.28133,0 -5.93733,-2.66134 -5.93733,-5.93734 0,-3.276 2.656,-5.932 5.93733,-5.932 3.276,0 5.932,2.656 5.932,5.932 z"
       id="path3045"
       style="fill:#ffffff;fill-opacity:1;fill-rule:nonzero;stroke:none;stroke-width:1.06666672"
       inkscape:connector-curvature="0" />
    <path
       d="m 389.21333,208.12533 c 0,3.276 -2.656,5.93734 -5.932,5.93734 -3.276,0 -5.93733,-2.66134 -5.93733,-5.93734 0,-3.276 2.66133,-5.932 5.93733,-5.932 3.276,0 5.932,2.656 5.932,5.932 z"
       id="path3047"
       style="fill:#ffffff;fill-opacity:1;fill-rule:nonzero;stroke:none;stroke-width:1.06666672"
       inkscape:connector-curvature="0" />
    <path
       d="m 330.71333,240.99467 c 0,3.28133 -2.66133,5.93733 -5.93733,5.93733 -3.276,0 -5.932,-2.656 -5.932,-5.93733 0,-3.276 2.656,-5.932 5.932,-5.932 3.276,0 5.93733,2.656 5.93733,5.932 z"
       id="path3049"
       style="fill:#ffffff;fill-opacity:1;fill-rule:nonzero;stroke:none;stroke-width:1.06666672"
       inkscape:connector-curvature="0" />
    <path
       d="m 356.036,290.77067 c 0,3.28133 -2.656,5.93733 -5.932,5.93733 -3.276,0 -5.93733,-2.656 -5.93733,-5.93733 0,-3.276 2.66133,-5.932 5.93733,-5.932 3.276,0 5.932,2.656 5.932,5.932 z"
       id="path3051"
       style="fill:#ffffff;fill-opacity:1;fill-rule:nonzero;stroke:none;stroke-width:1.06666672"
       inkscape:connector-curvature="0" />
    <path
       d="m 366.14,340.54667 c 0,3.276 -2.656,5.93733 -5.93733,5.93733 -3.276,0 -5.932,-2.66133 -5.932,-5.93733 0,-3.276 2.656,-5.932 5.932,-5.932 3.28133,0 5.93733,2.656 5.93733,5.932 z"
       id="path3053"
       style="fill:#ffffff;fill-opacity:1;fill-rule:nonzero;stroke:none;stroke-width:1.06666672"
       inkscape:connector-curvature="0" />
    <path
       d="m 367.016,308.33867 c 0,3.28133 -2.656,5.93733 -5.93333,5.93733 -3.276,0 -5.93734,-2.656 -5.93734,-5.93733 0,-3.276 2.66134,-5.932 5.93734,-5.932 3.27733,0 5.93333,2.656 5.93333,5.932 z"
       id="path3055"
       style="fill:#ffffff;fill-opacity:1;fill-rule:nonzero;stroke:none;stroke-width:1.06666672"
       inkscape:connector-curvature="0" />
    <path
       d="m 388.68267,315.36533 c 0,3.28134 -2.656,5.93734 -5.93334,5.93734 -3.276,0 -5.93733,-2.656 -5.93733,-5.93734 0,-3.276 2.66133,-5.93333 5.93733,-5.93333 3.27734,0 5.93334,2.65733 5.93334,5.93333 z"
       id="path3057"
       style="fill:#ffffff;fill-opacity:1;fill-rule:nonzero;stroke:none;stroke-width:1.06666672"
       inkscape:connector-curvature="0" />
    <path
       d="m 473.74533,291.94267 c 0,3.276 -2.66266,5.932 -5.93866,5.932 -3.276,0 -5.932,-2.656 -5.932,-5.932 0,-3.276 2.656,-5.93734 5.932,-5.93734 3.276,0 5.93866,2.66134 5.93866,5.93734 z"
       id="path3059"
       style="fill:#ffffff;fill-opacity:1;fill-rule:nonzero;stroke:none;stroke-width:1.06666672"
       inkscape:connector-curvature="0" />
    <path
       d="m 439.12,305.928 c 0,3.276 -2.66133,5.932 -5.93733,5.932 -3.276,0 -5.93734,-2.656 -5.93734,-5.932 0,-3.28133 2.66134,-5.93867 5.93734,-5.93867 3.276,0 5.93733,2.65734 5.93733,5.93867 z"
       id="path3061"
       style="fill:#ffffff;fill-opacity:1;fill-rule:nonzero;stroke:none;stroke-width:1.06666672"
       inkscape:connector-curvature="0" />
    <path
       d="m 512.828,228.69867 c 0,3.28133 -2.656,5.93733 -5.932,5.93733 -3.28133,0 -5.93733,-2.656 -5.93733,-5.93733 0,-3.276 2.656,-5.93334 5.93733,-5.93334 3.276,0 5.932,2.65734 5.932,5.93334 z"
       id="path3063"
       style="fill:#ffffff;fill-opacity:1;fill-rule:nonzero;stroke:none;stroke-width:1.06666672"
       inkscape:connector-curvature="0" />
    <path
       d="m 391.02667,287.552 c 0,3.276 -2.65734,5.932 -5.93334,5.932 -3.28133,0 -5.93733,-2.656 -5.93733,-5.932 0,-3.28133 2.656,-5.93733 5.93733,-5.93733 3.276,0 5.93334,2.656 5.93334,5.93733 z"
       id="path3065"
       style="fill:#ffffff;fill-opacity:1;fill-rule:nonzero;stroke:none;stroke-width:1.06666672"
       inkscape:connector-curvature="0" />
    <path
       d="m 419.71867,335.86533 c 0,3.276 -2.656,5.932 -5.932,5.932 -3.276,0 -5.932,-2.656 -5.932,-5.932 0,-3.276 2.656,-5.93333 5.932,-5.93333 3.276,0 5.932,2.65733 5.932,5.93333 z"
       id="path3067"
       style="fill:#ffffff;fill-opacity:1;fill-rule:nonzero;stroke:none;stroke-width:1.06666672"
       inkscape:connector-curvature="0" />
    <path
       d="m 528.64533,232.21333 c 0,3.276 -2.66133,5.93334 -5.93733,5.93334 -3.276,0 -5.93733,-2.65734 -5.93733,-5.93334 0,-3.28133 2.66133,-5.93733 5.93733,-5.93733 3.276,0 5.93733,2.656 5.93733,5.93733 z"
       id="path3069"
       style="fill:#ffffff;fill-opacity:1;fill-rule:nonzero;stroke:none;stroke-width:1.06666672"
       inkscape:connector-curvature="0" />
    <path
       d="m 575.48933,201.032 c 0,3.276 -2.656,5.932 -5.93733,5.932 -3.276,0 -5.932,-2.656 -5.932,-5.932 0,-3.28133 2.656,-5.93733 5.932,-5.93733 3.28133,0 5.93733,2.656 5.93733,5.93733 z"
       id="path3071"
       style="fill:#ffffff;fill-opacity:1;fill-rule:nonzero;stroke:none;stroke-width:1.06666672"
       inkscape:connector-curvature="0" />
    <path
       d="m 575.48933,281.44267 c 0,3.74 -3.036,6.776 -6.776,6.776 -3.74,0 -6.77066,-3.036 -6.77066,-6.776 0,-3.73867 3.03066,-6.776 6.77066,-6.776 3.74,0 6.776,3.03733 6.776,6.776 z"
       id="path3073"
       style="fill:#ffffff;fill-opacity:1;fill-rule:nonzero;stroke:none;stroke-width:1.06666672"
       inkscape:connector-curvature="0" />
    <path
       d="m 503.45867,182.43733 c 0,3.28134 -2.656,5.93734 -5.932,5.93734 -3.28134,0 -5.93867,-2.656 -5.93867,-5.93734 0,-3.276 2.65733,-5.932 5.93867,-5.932 3.276,0 5.932,2.656 5.932,5.932 z"
       id="path3075"
       style="fill:#ffffff;fill-opacity:1;fill-rule:nonzero;stroke:none;stroke-width:1.06666672"
       inkscape:connector-curvature="0" />
    <path
       d="m 540.93733,171.604 c 0,3.276 -2.656,5.93733 -5.932,5.93733 -3.28133,0 -5.93733,-2.66133 -5.93733,-5.93733 0,-3.276 2.656,-5.932 5.93733,-5.932 3.276,0 5.932,2.656 5.932,5.932 z"
       id="path3077"
       style="fill:#ffffff;fill-opacity:1;fill-rule:nonzero;stroke:none;stroke-width:1.06666672"
       inkscape:connector-curvature="0" />
    <path
       d="m 545.77067,190.052 c 0,3.276 -2.656,5.932 -5.93734,5.932 -3.276,0 -5.932,-2.656 -5.932,-5.932 0,-3.28133 2.656,-5.93733 5.932,-5.93733 3.28134,0 5.93734,2.656 5.93734,5.93733 z"
       id="path3079"
       style="fill:#ffffff;fill-opacity:1;fill-rule:nonzero;stroke:none;stroke-width:1.06666672"
       inkscape:connector-curvature="0" />
    <path
       d="m 513.416,128.56267 c 0,3.276 -2.656,5.93733 -5.93733,5.93733 -3.276,0 -5.932,-2.66133 -5.932,-5.93733 0,-3.28134 2.656,-5.93734 5.932,-5.93734 3.28133,0 5.93733,2.656 5.93733,5.93734 z"
       id="path3081"
       style="fill:#ffffff;fill-opacity:1;fill-rule:nonzero;stroke:none;stroke-width:1.06666672"
       inkscape:connector-curvature="0" />
    <path
       d="m 553.23467,142.62 c 0,3.276 -2.656,5.932 -5.932,5.932 -3.276,0 -5.93867,-2.656 -5.93867,-5.932 0,-3.28133 2.66267,-5.93733 5.93867,-5.93733 3.276,0 5.932,2.656 5.932,5.93733 z"
       id="path3083"
       style="fill:#ffffff;fill-opacity:1;fill-rule:nonzero;stroke:none;stroke-width:1.06666672"
       inkscape:connector-curvature="0" />
    <path
       d="m 529.52133,97.526667 c 0,3.276003 -2.65733,5.937333 -5.93733,5.937333 -3.27733,0 -5.93333,-2.66133 -5.93333,-5.937333 0,-3.276 2.656,-5.932 5.93333,-5.932 3.28,0 5.93733,2.656 5.93733,5.932 z"
       id="path3085"
       style="fill:#ffffff;fill-opacity:1;fill-rule:nonzero;stroke:none;stroke-width:1.06666672"
       inkscape:connector-curvature="0" />
    <path
       d="m 328.36933,318.29733 c 0,3.276 -2.656,5.932 -5.93733,5.932 -3.276,0 -5.932,-2.656 -5.932,-5.932 0,-3.28133 2.656,-5.93733 5.932,-5.93733 3.28133,0 5.93733,2.656 5.93733,5.93733 z"
       id="path3087"
       style="fill:#ffffff;fill-opacity:1;fill-rule:nonzero;stroke:none;stroke-width:1.06666672"
       inkscape:connector-curvature="0" />
    <path
       d="m 323.39067,361.63067 c 0,3.276 -2.656,5.932 -5.932,5.932 -3.28134,0 -5.93734,-2.656 -5.93734,-5.932 0,-3.28134 2.656,-5.93734 5.93734,-5.93734 3.276,0 5.932,2.656 5.932,5.93734 z"
       id="path3089"
       style="fill:#ffffff;fill-opacity:1;fill-rule:nonzero;stroke:none;stroke-width:1.06666672"
       inkscape:connector-curvature="0" />
    <path
       d="m 295.57333,370.12 c 0,3.276 -2.656,5.932 -5.93333,5.932 -3.276,0 -5.93733,-2.656 -5.93733,-5.932 0,-3.276 2.66133,-5.93733 5.93733,-5.93733 3.27733,0 5.93333,2.66133 5.93333,5.93733 z"
       id="path3091"
       style="fill:#ffffff;fill-opacity:1;fill-rule:nonzero;stroke:none;stroke-width:1.06666672"
       inkscape:connector-curvature="0" />
    <path
       d="m 282.69333,334.984 c 0,3.27733 -2.65733,5.93867 -5.93866,5.93867 -3.276,0 -5.932,-2.66134 -5.932,-5.93867 0,-3.276 2.656,-5.932 5.932,-5.932 3.28133,0 5.93866,2.656 5.93866,5.932 z"
       id="path3093"
       style="fill:#ffffff;fill-opacity:1;fill-rule:nonzero;stroke:none;stroke-width:1.06666672"
       inkscape:connector-curvature="0" />
    <path
       d="m 304.068,334.984 c 0,3.28133 -2.656,5.93867 -5.93733,5.93867 -3.276,0 -5.93334,-2.65734 -5.93334,-5.93867 0,-3.276 2.65734,-5.932 5.93334,-5.932 3.28133,0 5.93733,2.656 5.93733,5.932 z"
       id="path3095"
       style="fill:#ffffff;fill-opacity:1;fill-rule:nonzero;stroke:none;stroke-width:1.06666672"
       inkscape:connector-curvature="0" />
    <path
       d="m 252.24,314.19333 c 0,3.28134 -2.656,5.93734 -5.93333,5.93734 -3.276,0 -5.93734,-2.656 -5.93734,-5.93734 0,-3.276 2.66134,-5.932 5.93734,-5.932 3.27733,0 5.93333,2.656 5.93333,5.932 z"
       id="path3097"
       style="fill:#ffffff;fill-opacity:1;fill-rule:nonzero;stroke:none;stroke-width:1.06666672"
       inkscape:connector-curvature="0" />
    <path
       d="m 271.71333,281.844 c 0,3.276 -2.656,5.932 -5.93733,5.932 -3.276,0 -5.932,-2.656 -5.932,-5.932 0,-3.28133 2.656,-5.93733 5.932,-5.93733 3.28133,0 5.93733,2.656 5.93733,5.93733 z"
       id="path3099"
       style="fill:#ffffff;fill-opacity:1;fill-rule:nonzero;stroke:none;stroke-width:1.06666672"
       inkscape:connector-curvature="0" />
    <path
       d="m 233.50533,262.95867 c 0,3.276 -2.66133,5.932 -5.93733,5.932 -3.276,0 -5.932,-2.656 -5.932,-5.932 0,-3.28134 2.656,-5.93734 5.932,-5.93734 3.276,0 5.93733,2.656 5.93733,5.93734 z"
       id="path3101"
       style="fill:#ffffff;fill-opacity:1;fill-rule:nonzero;stroke:none;stroke-width:1.06666672"
       inkscape:connector-curvature="0" />
    <path
       d="m 182.55733,199.276 c 0,3.276 -2.656,5.932 -5.93733,5.932 -3.276,0 -5.932,-2.656 -5.932,-5.932 0,-3.28133 2.656,-5.93733 5.932,-5.93733 3.28133,0 5.93733,2.656 5.93733,5.93733 z"
       id="path3103"
       style="fill:#ffffff;fill-opacity:1;fill-rule:nonzero;stroke:none;stroke-width:1.06666672"
       inkscape:connector-curvature="0" />
    <path
       d="m 195.43733,375.828 c 0,3.28133 -2.656,5.93733 -5.932,5.93733 -3.28133,0 -5.93733,-2.656 -5.93733,-5.93733 0,-3.276 2.656,-5.932 5.93733,-5.932 3.276,0 5.932,2.656 5.932,5.932 z"
       id="path3105"
       style="fill:#ffffff;fill-opacity:1;fill-rule:nonzero;stroke:none;stroke-width:1.06666672"
       inkscape:connector-curvature="0" />
    <path
       d="m 235.844,409.208 c 0,3.276 -2.656,5.93867 -5.932,5.93867 -3.28133,0 -5.93867,-2.66267 -5.93867,-5.93867 0,-3.276 2.65734,-5.932 5.93867,-5.932 3.276,0 5.932,2.656 5.932,5.932 z"
       id="path3107"
       style="fill:#ffffff;fill-opacity:1;fill-rule:nonzero;stroke:none;stroke-width:1.06666672"
       inkscape:connector-curvature="0" />
    <path
       d="m 270.396,381.09867 c 0,3.276 -2.656,5.93866 -5.932,5.93866 -3.28133,0 -5.93733,-2.65733 -5.93733,-5.93866 0,-3.276 2.656,-5.93734 5.93733,-5.93734 3.276,0 5.932,2.66134 5.932,5.93734 z"
       id="path3109"
       style="fill:#ffffff;fill-opacity:1;fill-rule:nonzero;stroke:none;stroke-width:1.06666672"
       inkscape:connector-curvature="0" />
    <path
       d="m 421.47333,481.52667 c 0,3.28133 -2.656,5.93733 -5.932,5.93733 -3.276,0 -5.932,-2.656 -5.932,-5.93733 0,-3.276 2.656,-5.932 5.932,-5.932 3.276,0 5.932,2.656 5.932,5.932 z"
       id="path3111"
       style="fill:#ffffff;fill-opacity:1;fill-rule:nonzero;stroke:none;stroke-width:1.06666672"
       inkscape:connector-curvature="0" />
    <path
       d="m 254.584,412.57333 c 0,3.28134 -2.65733,5.93734 -5.93333,5.93734 -3.28134,0 -5.93734,-2.656 -5.93734,-5.93734 0,-3.276 2.656,-5.932 5.93734,-5.932 3.276,0 5.93333,2.656 5.93333,5.932 z"
       id="path3113"
       style="fill:#ffffff;fill-opacity:1;fill-rule:nonzero;stroke:none;stroke-width:1.06666672"
       inkscape:connector-curvature="0" />
    <path
       d="m 261.02667,445.224 c 0,3.276 -2.65734,5.932 -5.93334,5.932 -3.28133,0 -5.93733,-2.656 -5.93733,-5.932 0,-3.276 2.656,-5.93733 5.93733,-5.93733 3.276,0 5.93334,2.66133 5.93334,5.93733 z"
       id="path3115"
       style="fill:#ffffff;fill-opacity:1;fill-rule:nonzero;stroke:none;stroke-width:1.06666672"
       inkscape:connector-curvature="0" />
    <path
       d="m 294.40667,419.59867 c 0,3.28133 -2.66134,5.93866 -5.93734,5.93866 -3.276,0 -5.93333,-2.65733 -5.93333,-5.93866 0,-3.276 2.65733,-5.932 5.93333,-5.932 3.276,0 5.93734,2.656 5.93734,5.932 z"
       id="path3117"
       style="fill:#ffffff;fill-opacity:1;fill-rule:nonzero;stroke:none;stroke-width:1.06666672"
       inkscape:connector-curvature="0" />
    <path
       d="m 411.52133,431.02133 c 0,3.28134 -2.65733,5.93734 -5.93333,5.93734 -3.28133,0 -5.93733,-2.656 -5.93733,-5.93734 0,-3.276 2.656,-5.932 5.93733,-5.932 3.276,0 5.93333,2.656 5.93333,5.932 z"
       id="path3119"
       style="fill:#ffffff;fill-opacity:1;fill-rule:nonzero;stroke:none;stroke-width:1.06666672"
       inkscape:connector-curvature="0" />
    <path
       d="m 420.604,392.37467 c 0,3.276 -2.66133,5.93333 -5.93733,5.93333 -3.276,0 -5.93734,-2.65733 -5.93734,-5.93333 0,-3.28 2.66134,-5.93734 5.93734,-5.93734 3.276,0 5.93733,2.65734 5.93733,5.93734 z"
       id="path3121"
       style="fill:#ffffff;fill-opacity:1;fill-rule:nonzero;stroke:none;stroke-width:1.06666672"
       inkscape:connector-curvature="0" />
    <path
       d="m 551.91733,397.64133 c 0,3.28134 -2.65733,5.93734 -5.93333,5.93734 -3.276,0 -5.932,-2.656 -5.932,-5.93734 0,-3.276 2.656,-5.93333 5.932,-5.93333 3.276,0 5.93333,2.65733 5.93333,5.93333 z"
       id="path3123"
       style="fill:#ffffff;fill-opacity:1;fill-rule:nonzero;stroke:none;stroke-width:1.06666672"
       inkscape:connector-curvature="0" />
    <path
       d="m 522.05733,305.12 c 0,3.276 -2.66133,5.932 -5.93733,5.932 -3.276,0 -5.932,-2.656 -5.932,-5.932 0,-3.276 2.656,-5.93733 5.932,-5.93733 3.276,0 5.93733,2.66133 5.93733,5.93733 z"
       id="path3125"
       style="fill:#ffffff;fill-opacity:1;fill-rule:nonzero;stroke:none;stroke-width:1.06666672"
       inkscape:connector-curvature="0" />
    <path
       d="m 498.45867,273.932 c 0,3.57867 -2.90667,6.48533 -6.48934,6.48533 -3.584,0 -6.48533,-2.90666 -6.48533,-6.48533 0,-3.58267 2.90133,-6.48933 6.48533,-6.48933 3.58267,0 6.48934,2.90666 6.48934,6.48933 z"
       id="path3127"
       style="fill:#ffffff;fill-opacity:1;fill-rule:nonzero;stroke:none;stroke-width:1.06666672"
       inkscape:connector-curvature="0" />
    <path
       d="m 486.04133,252.016 c 0,3.5 -2.83866,6.33867 -6.33866,6.33867 -3.5,0 -6.33867,-2.83867 -6.33867,-6.33867 0,-3.5 2.83867,-6.33867 6.33867,-6.33867 3.5,0 6.33866,2.83867 6.33866,6.33867 z"
       id="path3129"
       style="fill:#ffffff;fill-opacity:1;fill-rule:nonzero;stroke:none;stroke-width:1.06666672"
       inkscape:connector-curvature="0" />
    <path
       d="m 426.52133,258.45333 c 0,3.69734 -3,6.69734 -6.69866,6.69734 -3.70267,0 -6.70267,-3 -6.70267,-6.69734 0,-3.70266 3,-6.70266 6.70267,-6.70266 3.69866,0 6.69866,3 6.69866,6.70266 z"
       id="path3131"
       style="fill:#ffffff;fill-opacity:1;fill-rule:nonzero;stroke:none;stroke-width:1.06666672"
       inkscape:connector-curvature="0" />
    <path
       d="m 478.34933,181.15067 c 0,3.704 -3,6.704 -6.704,6.704 -3.69733,0 -6.69733,-3 -6.69733,-6.704 0,-3.69734 3,-6.69734 6.69733,-6.69734 3.704,0 6.704,3 6.704,6.69734 z"
       id="path3133"
       style="fill:#ffffff;fill-opacity:1;fill-rule:nonzero;stroke:none;stroke-width:1.06666672"
       inkscape:connector-curvature="0" />
    <path
       d="m 464.62533,213.76533 c 0,3.824 -3.09866,6.91734 -6.92266,6.91734 -3.81734,0 -6.916,-3.09334 -6.916,-6.91734 0,-3.81733 3.09866,-6.916 6.916,-6.916 3.824,0 6.92266,3.09867 6.92266,6.916 z"
       id="path3135"
       style="fill:#ffffff;fill-opacity:1;fill-rule:nonzero;stroke:none;stroke-width:1.06666672"
       inkscape:connector-curvature="0" />
    <path
       d="m 398.64,421.068 c 0,3.276 -2.656,5.932 -5.932,5.932 -3.28133,0 -5.93733,-2.656 -5.93733,-5.932 0,-3.28133 2.656,-5.93733 5.93733,-5.93733 3.276,0 5.932,2.656 5.932,5.93733 z"
       id="path3137"
       style="fill:#ffffff;fill-opacity:1;fill-rule:nonzero;stroke:none;stroke-width:1.06666672"
       inkscape:connector-curvature="0" />
    <path
       d="m 433.776,383.58933 c 0,3.276 -2.656,5.932 -5.93733,5.932 -3.276,0 -5.932,-2.656 -5.932,-5.932 0,-3.276 2.656,-5.93866 5.932,-5.93866 3.28133,0 5.93733,2.66266 5.93733,5.93866 z"
       id="path3139"
       style="fill:#ffffff;fill-opacity:1;fill-rule:nonzero;stroke:none;stroke-width:1.06666672"
       inkscape:connector-curvature="0" />
    <path
       d="m 526.88533,196.19867 c 0,3.28133 -2.656,5.93733 -5.93733,5.93733 -3.276,0 -5.932,-2.656 -5.932,-5.93733 0,-3.276 2.656,-5.93334 5.932,-5.93334 3.28133,0 5.93733,2.65734 5.93733,5.93334 z"
       id="path3141"
       style="fill:#ffffff;fill-opacity:1;fill-rule:nonzero;stroke:none;stroke-width:1.06666672"
       inkscape:connector-curvature="0" />
    <path
       d="m 485.30667,208.87067 c 0,3.55733 -2.88,6.44266 -6.43734,6.44266 -3.55733,0 -6.44266,-2.88533 -6.44266,-6.44266 0,-3.55734 2.88533,-6.44267 6.44266,-6.44267 3.55734,0 6.43734,2.88533 6.43734,6.44267 z"
       id="path3143"
       style="fill:#ffffff;fill-opacity:1;fill-rule:nonzero;stroke:none;stroke-width:1.06666672"
       inkscape:connector-curvature="0" />
    <path
       d="m 266.536,136.90667 c 0,4.38 -3.552,7.932 -7.932,7.932 -4.38,0 -7.932,-3.552 -7.932,-7.932 0,-4.38 3.552,-7.932 7.932,-7.932 4.38,0 7.932,3.552 7.932,7.932 z"
       id="path3145"
       style="fill:#ffffff;fill-opacity:1;fill-rule:nonzero;stroke:none;stroke-width:1.06666672"
       inkscape:connector-curvature="0" />
    <path
       d="m 415.276,377.584 c 0,4.38 -3.552,7.932 -7.932,7.932 -4.38,0 -7.932,-3.552 -7.932,-7.932 0,-4.38 3.552,-7.928 7.932,-7.928 4.38,0 7.932,3.548 7.932,7.928 z"
       id="path3147"
       style="fill:#ffffff;fill-opacity:1;fill-rule:nonzero;stroke:none;stroke-width:1.06666672"
       inkscape:connector-curvature="0" />
    <path
       d="m 437.96933,416.672 c 0,4.38 -3.55333,7.932 -7.93333,7.932 -4.38,0 -7.932,-3.552 -7.932,-7.932 0,-4.38 3.552,-7.92667 7.932,-7.92667 4.38,0 7.93333,3.54667 7.93333,7.92667 z"
       id="path3149"
       style="fill:#ffffff;fill-opacity:1;fill-rule:nonzero;stroke:none;stroke-width:1.06666672"
       inkscape:connector-curvature="0" />
    <path
       d="m 310.59867,425.45867 c 0,4.38 -3.54667,7.92666 -7.92667,7.92666 -4.38,0 -7.932,-3.54666 -7.932,-7.92666 0,-4.38 3.552,-7.932 7.932,-7.932 4.38,0 7.92667,3.552 7.92667,7.932 z"
       id="path3151"
       style="fill:#ffffff;fill-opacity:1;fill-rule:nonzero;stroke:none;stroke-width:1.06666672"
       inkscape:connector-curvature="0" />
    <path
       d="m 307.51067,402.60933 c 0,4.704 -3.808,8.51067 -8.51067,8.51067 -4.69733,0 -8.50533,-3.80667 -8.50533,-8.51067 0,-4.69733 3.808,-8.50533 8.50533,-8.50533 4.70267,0 8.51067,3.808 8.51067,8.50533 z"
       id="path3153"
       style="fill:#ffffff;fill-opacity:1;fill-rule:nonzero;stroke:none;stroke-width:1.06666672"
       inkscape:connector-curvature="0" />
    <path
       d="m 307.416,63.032 c 0,4.833333 -3.916,8.754667 -8.75467,8.754667 -4.83333,0 -8.75466,-3.921334 -8.75466,-8.754667 0,-4.838667 3.92133,-8.756 8.75466,-8.756 4.83867,0 8.75467,3.917333 8.75467,8.756 z"
       id="path3155"
       style="fill:#ffffff;fill-opacity:1;fill-rule:nonzero;stroke:none;stroke-width:1.06666672"
       inkscape:connector-curvature="0" />
    <path
       d="m 495.88533,225.77067 c 0,4.83333 -3.916,8.756 -8.75466,8.756 -4.83334,0 -8.75067,-3.92267 -8.75067,-8.756 0,-4.83334 3.91733,-8.75467 8.75067,-8.75467 4.83866,0 8.75466,3.92133 8.75466,8.75467 z"
       id="path3157"
       style="fill:#ffffff;fill-opacity:1;fill-rule:nonzero;stroke:none;stroke-width:1.06666672"
       inkscape:connector-curvature="0" />
    <path
       d="m 566.59333,217.71867 c 0,4.83866 -3.916,8.756 -8.75466,8.756 -4.83334,0 -8.756,-3.91734 -8.756,-8.756 0,-4.83334 3.92266,-8.75467 8.756,-8.75467 4.83866,0 8.75466,3.92133 8.75466,8.75467 z"
       id="path3159"
       style="fill:#ffffff;fill-opacity:1;fill-rule:nonzero;stroke:none;stroke-width:1.06666672"
       inkscape:connector-curvature="0" />
    <path
       d="m 591.19333,338.05733 c 0,4.83867 -3.92266,8.756 -8.756,8.756 -4.83333,0 -8.75466,-3.91733 -8.75466,-8.756 0,-4.83333 3.92133,-8.75466 8.75466,-8.75466 4.83334,0 8.756,3.92133 8.756,8.75466 z"
       id="path3161"
       style="fill:#ffffff;fill-opacity:1;fill-rule:nonzero;stroke:none;stroke-width:1.06666672"
       inkscape:connector-curvature="0" />
    <path
       d="m 596.464,233.96933 c 0,4.83867 -3.92267,8.75467 -8.756,8.75467 -4.83867,0 -8.75467,-3.916 -8.75467,-8.75467 0,-4.83333 3.916,-8.756 8.75467,-8.756 4.83333,0 8.756,3.92267 8.756,8.756 z"
       id="path3163"
       style="fill:#ffffff;fill-opacity:1;fill-rule:nonzero;stroke:none;stroke-width:1.06666672"
       inkscape:connector-curvature="0" />
    <path
       d="m 442.57867,271.52133 c 0,4.38 -3.552,7.932 -7.93334,7.932 -4.38,0 -7.92666,-3.552 -7.92666,-7.932 0,-4.38 3.54666,-7.932 7.92666,-7.932 4.38134,0 7.93334,3.552 7.93334,7.932 z"
       id="path3165"
       style="fill:#ffffff;fill-opacity:1;fill-rule:nonzero;stroke:none;stroke-width:1.06666672"
       inkscape:connector-curvature="0" />
  </g>
</svg>
