<?xml version="1.0" encoding="UTF-8" standalone="no"?>
<!-- Created with Inkscape (http://www.inkscape.org/) -->

<svg
   xmlns:dc="http://purl.org/dc/elements/1.1/"
   xmlns:cc="http://creativecommons.org/ns#"
   xmlns:rdf="http://www.w3.org/1999/02/22-rdf-syntax-ns#"
   xmlns:svg="http://www.w3.org/2000/svg"
   xmlns="http://www.w3.org/2000/svg"
   xmlns:sodipodi="http://sodipodi.sourceforge.net/DTD/sodipodi-0.dtd"
   xmlns:inkscape="http://www.inkscape.org/namespaces/inkscape"
   id="svg2860"
   version="1.1"
   inkscape:version="0.92.2 (5c3e80d, 2017-08-06)"
   width="136.53334"
   height="136.53334"
   sodipodi:docname="xan_sg_goauld.svg"
   inkscape:export-filename="D:\dev\XansSciFiMashup\raw\flags\xan_st_klingon.png"
   inkscape:export-xdpi="90"
   inkscape:export-ydpi="90">
  <metadata
     id="metadata2866">
    <rdf:RDF>
      <cc:Work
         rdf:about="">
        <dc:format>image/svg+xml</dc:format>
        <dc:type
           rdf:resource="http://purl.org/dc/dcmitype/StillImage" />
        <dc:title></dc:title>
      </cc:Work>
    </rdf:RDF>
  </metadata>
  <defs
     id="defs2864">
    <inkscape:perspective
       sodipodi:type="inkscape:persp3d"
       inkscape:vp_x="0 : 0.53333333 : 1"
       inkscape:vp_y="0 : 1066.6667 : 0"
       inkscape:vp_z="1.0666667 : 0.53333333 : 1"
       inkscape:persp3d-origin="0.53333333 : 0.35555555 : 1"
       id="perspective2868" />
    <inkscape:perspective
       id="perspective3654"
       inkscape:persp3d-origin="0.53333333 : 0.35555555 : 1"
       inkscape:vp_z="1.0666667 : 0.53333333 : 1"
       inkscape:vp_y="0 : 1066.6667 : 0"
       inkscape:vp_x="0 : 0.53333333 : 1"
       sodipodi:type="inkscape:persp3d" />
    <inkscape:perspective
       id="perspective3676"
       inkscape:persp3d-origin="0.53333333 : 0.35555555 : 1"
       inkscape:vp_z="1.0666667 : 0.53333333 : 1"
       inkscape:vp_y="0 : 1066.6667 : 0"
       inkscape:vp_x="0 : 0.53333333 : 1"
       sodipodi:type="inkscape:persp3d" />
    <inkscape:perspective
       id="perspective3714"
       inkscape:persp3d-origin="0.53333333 : 0.35555555 : 1"
       inkscape:vp_z="1.0666667 : 0.53333333 : 1"
       inkscape:vp_y="0 : 1066.6667 : 0"
       inkscape:vp_x="0 : 0.53333333 : 1"
       sodipodi:type="inkscape:persp3d" />
    <inkscape:perspective
       id="perspective3743"
       inkscape:persp3d-origin="0.53333333 : 0.35555555 : 1"
       inkscape:vp_z="1.0666667 : 0.53333333 : 1"
       inkscape:vp_y="0 : 1066.6667 : 0"
       inkscape:vp_x="0 : 0.53333333 : 1"
       sodipodi:type="inkscape:persp3d" />
    <inkscape:perspective
       id="perspective3773"
       inkscape:persp3d-origin="0.53333333 : 0.35555555 : 1"
       inkscape:vp_z="1.0666667 : 0.53333333 : 1"
       inkscape:vp_y="0 : 1066.6667 : 0"
       inkscape:vp_x="0 : 0.53333333 : 1"
       sodipodi:type="inkscape:persp3d" />
    <inkscape:perspective
       id="perspective3795"
       inkscape:persp3d-origin="0.53333333 : 0.35555555 : 1"
       inkscape:vp_z="1.0666667 : 0.53333333 : 1"
       inkscape:vp_y="0 : 1066.6667 : 0"
       inkscape:vp_x="0 : 0.53333333 : 1"
       sodipodi:type="inkscape:persp3d" />
    <inkscape:perspective
       id="perspective3830"
       inkscape:persp3d-origin="0.53333333 : 0.35555555 : 1"
       inkscape:vp_z="1.0666667 : 0.53333333 : 1"
       inkscape:vp_y="0 : 1066.6667 : 0"
       inkscape:vp_x="0 : 0.53333333 : 1"
       sodipodi:type="inkscape:persp3d" />
    <inkscape:perspective
       id="perspective3860"
       inkscape:persp3d-origin="0.53333333 : 0.35555555 : 1"
       inkscape:vp_z="1.0666667 : 0.53333333 : 1"
       inkscape:vp_y="0 : 1066.6667 : 0"
       inkscape:vp_x="0 : 0.53333333 : 1"
       sodipodi:type="inkscape:persp3d" />
    <inkscape:perspective
       id="perspective3887"
       inkscape:persp3d-origin="0.53333333 : 0.35555555 : 1"
       inkscape:vp_z="1.0666667 : 0.53333333 : 1"
       inkscape:vp_y="0 : 1066.6667 : 0"
       inkscape:vp_x="0 : 0.53333333 : 1"
       sodipodi:type="inkscape:persp3d" />
    <inkscape:perspective
       id="perspective3913"
       inkscape:persp3d-origin="0.53333333 : 0.35555555 : 1"
       inkscape:vp_z="1.0666667 : 0.53333333 : 1"
       inkscape:vp_y="0 : 1066.6667 : 0"
       inkscape:vp_x="0 : 0.53333333 : 1"
       sodipodi:type="inkscape:persp3d" />
    <inkscape:perspective
       id="perspective3964"
       inkscape:persp3d-origin="0.53333333 : 0.35555555 : 1"
       inkscape:vp_z="1.0666667 : 0.53333333 : 1"
       inkscape:vp_y="0 : 1066.6667 : 0"
       inkscape:vp_x="0 : 0.53333333 : 1"
       sodipodi:type="inkscape:persp3d" />
    <pattern
       y="0"
       x="0"
       height="6"
       width="6"
       patternUnits="userSpaceOnUse"
       id="EMFhbasepattern" />
  </defs>
  <sodipodi:namedview
     pagecolor="#ff0df1"
     bordercolor="#666666"
     borderopacity="1"
     objecttolerance="10"
     gridtolerance="10"
     guidetolerance="10"
     inkscape:pageopacity="0"
     inkscape:pageshadow="2"
     inkscape:window-width="1708"
     inkscape:window-height="1057"
     id="namedview2862"
     showgrid="false"
     showguides="false"
     inkscape:zoom="2.7543257"
     inkscape:cx="34.87683"
     inkscape:cy="35.430748"
     inkscape:window-x="-8"
     inkscape:window-y="843"
     inkscape:window-maximized="1"
     inkscape:current-layer="svg2860" />
  <path
     id="path834"
     d="m 89.298707,117.99445 c -1.506189,-6.25226 -4.942186,-12.35546 -3.200654,-19.227446 1.639552,-6.6445 2.941778,-13.40666 5.663904,-19.6197 1.396362,-4.55779 4.008661,-9.34308 5.279507,-13.32821 1.482655,-2.29067 1.129643,-3.70272 -0.353012,-3.29479 -1.874891,2.47109 -7.507414,6.65234 -10.951259,9.68825 -5.201061,4.24401 -9.711788,9.49998 -14.638283,14.08915 -2.894708,3.17712 -6.715097,5.37365 -10.080491,8.01733 -7.625088,5.844326 -16.105249,10.786506 -25.377732,11.696496 -5.483475,1.47482 -11.727886,0.20397 -16.701452,-2.81626 -6.236568,-3.749776 -9.6098037,-12.229936 -9.6725647,-20.058996 0.454996,-5.35011 4.8872717,-9.20187 8.9822267,-10.9591 4.691157,-0.95706 10.904188,-0.72956 13.414504,4.77745 3.318328,3.89884 1.663085,11.72789 -3.365394,12.27702 -5.750192,2.0867 -6.385618,-6.96613 -7.460343,-10.25308 -4.785294,1.1218 -7.272077,11.06893 -3.812547,14.38726 5.428561,6.966116 14.348028,6.07182 21.565191,4.37736 6.267949,-1.95334 12.630029,-4.44797 18.035058,-8.63706 6.722939,-5.90709 14.128375,-10.79436 20.31003,-17.48592 2.0867,-1.86705 8.284046,-4.73823 2.016097,-4.80883 -4.989251,0.34517 -9.923594,2.07101 -14.905002,0.84723 -5.530545,-0.12551 -10.841432,-1.74153 -16.175857,-3.15358 -7.107332,-2.86333 -14.128376,-6.02476 -21.518121,-7.8369 -4.675466,-2.00041 -9.954974,-1.63171 -14.512767,-3.27125 -1.459122,-3.16928 -3.4516867,-10.825745 2.298506,-8.809648 6.409156,1.168867 12.316245,-2.604452 18.521433,-3.632112 9.21757,-2.800571 18.333157,-6.393465 27.935119,-7.075956 6.456221,-0.86292 12.943818,0.525599 19.384354,1.082573 10.260915,2.282821 19.988394,6.864147 29.959062,10.378589 3.04376,1.490504 6.4013,0.156897 9.59412,0.274566 1.59248,0.360858 4.22831,-1.286535 5.02063,0.619738 1.74153,3.04376 2.93393,8.0487 -1.8749,6.56604 -6.54251,0.48638 -13.63415,2.43187 -18.37238,7.92319 -2.84763,3.84392 -2.12592,11.02971 -2.13376,14.38726 3.29479,3.36539 7.57801,4.16555 11.3984,6.17381 -2.0004,3.74978 -7.03673,5.97769 -9.46075,10.15109 -4.926503,6.81708 -12.496673,12.410376 -13.547871,21.831906 -0.313788,0.91783 0.39224,5.64037 -1.263002,4.72253 z M 76.033252,60.798454 c 8.323269,-1.67877 16.787745,-3.45952 24.514808,-7.4525 2.48679,-0.0628 8.03302,-2.95746 2.51817,-3.45953 -7.358373,-1.72584 -14.034247,-5.938466 -21.376921,-7.76629 -5.326578,-2.753501 -2.957469,7.8369 -7.680001,9.34309 -5.201061,3.93805 -13.320368,-0.2275 -13.383124,-7.656472 0.368702,-2.941779 -2.431869,-1.1924 -3.930215,-1.37283 -7.766295,1.23947 -15.18742,4.400902 -22.820351,6.377772 -1.16102,0.72957 -6.57389,1.08258 -2.957464,2.29067 4.871582,2.65152 9.829458,5.28735 15.061899,6.59742 8.495851,3.11437 17.509459,2.51816 26.23281,3.85962 1.294384,-0.13337 2.541696,-0.56483 3.820389,-0.76095 z M 12.537927,38.833186 c -1.843515,-5.083392 0.18043,-12.967351 6.158123,-10.472725 4.973561,1.388519 9.296016,-1.882738 14.183288,-1.969032 5.51485,-2.047477 11.100308,-4.35383 16.96817,-5.342268 4.91081,-1.482655 10.480573,-1.412052 14.834404,-2.627984 6.62096,1.184552 13.492954,0.290251 19.996241,2.243592 4.016509,0.823698 7.734914,2.486783 11.947543,3.890993 4.102794,1.882738 8.472314,3.145741 12.732004,4.51857 4.91866,2.424022 10.25309,0.964904 15.25803,0.203962 5.65606,2.933936 1.23162,10.21385 -3.68703,9.735322 -6.63665,0.517756 -13.10856,-2.22006 -19.47064,-4.071417 C 95.762771,32.667221 90.153784,29.992166 84.081955,29.301827 75.460588,27.191594 66.501894,26.06195 57.802075,28.274167 47.705894,29.301827 38.221606,33.639973 28.9099,37.931043 23.661768,39.241116 17.660542,40.84144 12.537927,38.833186 Z"
     style="fill:#000000;fill-opacity:1;fill-rule:nonzero;stroke:none;stroke-width:0.09805997"
     inkscape:connector-curvature="0" />
</svg>
