<?xml version="1.0" encoding="UTF-8" standalone="no"?>
<svg
   xmlns:dc="http://purl.org/dc/elements/1.1/"
   xmlns:cc="http://creativecommons.org/ns#"
   xmlns:rdf="http://www.w3.org/1999/02/22-rdf-syntax-ns#"
   xmlns:svg="http://www.w3.org/2000/svg"
   xmlns="http://www.w3.org/2000/svg"
   xmlns:xlink="http://www.w3.org/1999/xlink"
   xmlns:sodipodi="http://sodipodi.sourceforge.net/DTD/sodipodi-0.dtd"
   xmlns:inkscape="http://www.inkscape.org/namespaces/inkscape"
   version="1.0"
   width="136.53334"
   height="136.53334"
   id="svg8378"
   inkscape:version="0.92.1 r15371"
   sodipodi:docname="xan_sw_newRepublic.svg"
   inkscape:export-filename="D:\dev\XansSciFiMashup\raw\flags\xan_sw_newRepublic.png"
   inkscape:export-xdpi="90"
   inkscape:export-ydpi="90">
  <metadata
     id="metadata21">
    <rdf:RDF>
      <cc:Work
         rdf:about="">
        <dc:format>image/svg+xml</dc:format>
        <dc:type
           rdf:resource="http://purl.org/dc/dcmitype/StillImage" />
        <dc:title />
      </cc:Work>
    </rdf:RDF>
  </metadata>
  <sodipodi:namedview
     pagecolor="#ff0000"
     bordercolor="#666666"
     borderopacity="1"
     objecttolerance="10"
     gridtolerance="10"
     guidetolerance="10"
     inkscape:pageopacity="0"
     inkscape:pageshadow="2"
     inkscape:window-width="1697"
     inkscape:window-height="1057"
     id="namedview19"
     showgrid="false"
     fit-margin-top="20"
     fit-margin-left="20"
     fit-margin-right="20"
     fit-margin-bottom="20"
     inkscape:zoom="4.1760383"
     inkscape:cx="34.716456"
     inkscape:cy="40.908769"
     inkscape:window-x="-8"
     inkscape:window-y="837"
     inkscape:window-maximized="1"
     inkscape:current-layer="svg8378" />
  <defs
     id="defs8380">
    <linearGradient
       id="linearGradient10756">
      <stop
         style="stop-color:#bc573d;stop-opacity:1"
         offset="0"
         id="stop10758" />
      <stop
         style="stop-color:#edb845;stop-opacity:1"
         offset="0.5"
         id="stop10772" />
      <stop
         style="stop-color:#bc573d;stop-opacity:1"
         offset="1"
         id="stop10760" />
    </linearGradient>
    <linearGradient
       id="linearGradient3232">
      <stop
         style="stop-color:#bc573d;stop-opacity:1"
         offset="0"
         id="stop3234" />
      <stop
         style="stop-color:#edb845;stop-opacity:1"
         offset="0.5"
         id="stop3236" />
      <stop
         style="stop-color:#bc573d;stop-opacity:1"
         offset="1"
         id="stop3238" />
    </linearGradient>
  </defs>
  <g
     transform="translate(1802.799,-2126.2601)"
     style="display:none"
     id="layer1">
    <image
       xlink:href="D:\Active Documents\My Pictures\SWLogos\nr2.png"
       x="108.22857"
       y="232.50822"
       width="589.94281"
       height="581.82098"
       id="image8558" />
  </g>
  <g
     id="g4145"
     transform="matrix(0.23478261,0,0,0.23478261,5.6579658,124.86492)">
    <path
       inkscape:connector-curvature="0"
       id="path2383"
       style="fill:none;stroke:#ffffff;stroke-width:19.21704292;stroke-miterlimit:4;stroke-dasharray:none;stroke-dashoffset:1.79999995;stroke-opacity:1"
       d="m 266.66669,-476.79145 c 130.12965,10e-5 235.72481,105.59508 235.72481,235.72483 0,130.12975 -105.59506,235.7248067 -235.72481,235.7248067 -130.12966,0 -235.724814,-105.5950567 -235.724814,-235.7248067 0,-130.12975 105.595254,-235.72483 235.724814,-235.72483 z" />
    <path
       inkscape:connector-curvature="0"
       id="path2371"
       style="fill:#ffffff;fill-opacity:1;stroke:none;stroke-width:1.06666672"
       d="m 266.66669,-402.37344 -29.14351,31.74175 c 10.22414,14.37223 14.0636,31.64558 14.0636,40.32658 -8.68437,-15.01494 -18.22544,-19.31927 -27.61883,-25.52897 l -18.80772,20.44588 c 25.5482,8.69032 41.17368,38.28986 41.17368,68.96218 0,14.82471 -5.19774,50.10643 -41.17368,48.57262 v -0.1129 c -26.53623,-3.07896 -51.46776,-33.30698 -53.7124,-66.30745 -2.23802,-32.90237 12.00671,-64.91517 35.46928,-91.49773 h -0.11299 c -42.90379,25.02598 -72.63448,69.60471 -76.58684,121.54502 -0.0966,1.27293 -0.21677,2.55952 -0.28269,3.84061 0,0.0269 0,0.0865 0,0.11291 -0.0654,1.29773 -0.13586,2.59143 -0.1693,3.89712 -0.0346,1.32983 0,2.67223 0,4.01031 0,84.93722 70.27106,153.851462 156.9014,153.851462 86.63072,0 156.95828,-68.914242 156.95828,-153.851462 0,-3.98158 -0.14846,-7.95528 -0.45189,-11.86095 -3.95237,-51.94031 -33.73936,-96.51904 -76.64343,-121.54502 h -0.0566 c 23.46267,26.58256 37.65119,58.59536 35.41318,91.49773 -2.24475,33.00047 -27.11986,63.22849 -53.65629,66.30745 v 0.1129 c -35.97585,1.53381 -41.23018,-33.74762 -41.23018,-48.57262 0,-30.67232 15.68217,-60.27186 41.23018,-68.96218 l -18.80764,-20.44588 c -9.39329,6.2097 -18.93455,10.51403 -27.61873,25.52897 0,-8.681 3.83908,-25.95435 14.06351,-40.32658 l -29.20043,-31.74175 z" />
    <path
       inkscape:connector-curvature="0"
       id="path2386"
       style="fill:#ffffff;fill-opacity:1;stroke:none;stroke-width:1.06666672"
       d="m 263.3037,-458.78969 -4.95435,5.22463 -6.87613,-2.0418 -1.6815,6.96618 -6.96618,1.68149 2.04181,6.87605 -5.19456,4.95445 5.19456,4.92436 -2.04181,6.87605 6.96618,1.6815 1.6815,6.96617 6.87613,-2.01173 4.95435,5.19455 4.95445,-5.19455 6.87605,2.01173 1.68149,-6.96617 6.96619,-1.6815 -2.04182,-6.87605 5.19466,-4.92436 -5.19466,-4.95445 2.04182,-6.87605 -6.96619,-1.68149 -1.68149,-6.96618 -6.87605,2.0418 z m 71.43341,13.69215 -4.20373,5.7951 -7.08629,-1.11095 -0.78069,7.14634 -6.66591,2.58229 2.91253,6.54581 -4.53397,5.58496 5.79509,4.20372 -1.11093,7.08628 7.14634,0.75062 2.58229,6.69598 6.5458,-2.91263 5.58496,4.504 4.20373,-5.79509 7.08628,1.11094 0.75061,-7.11626 6.69599,-2.5823 -2.91263,-6.5458 4.504,-5.58496 -5.79509,-4.2338 1.11093,-7.0562 -7.11627,-0.7807 -2.58228,-6.66592 -6.5458,2.88256 z m -142.35631,2.58229 -5.58495,4.504 -6.54581,-2.91263 -2.58229,6.69598 -7.11626,0.75062 1.11093,7.08628 -5.79509,4.23381 4.50401,5.58494 -2.91264,6.54582 6.69599,2.58229 0.75062,7.11626 7.08627,-1.11094 4.20374,5.7951 5.58495,-4.504 6.54581,2.91263 2.58228,-6.69598 7.14635,-0.75063 -1.11094,-7.08628 5.79509,-4.2338 -4.504,-5.55488 2.88257,-6.57588 -6.66592,-2.5823 -0.78069,-7.11625 -7.08629,1.11093 z m 203.0101,39.00454 -3.42303,6.3056 -7.17641,-0.18016 0.18016,7.17641 -6.27552,3.42304 3.7233,6.12543 -3.7233,6.09536 6.27552,3.42304 -0.18016,7.1764 7.17641,-0.18015 3.42303,6.30559 6.12544,-3.75338 6.12543,3.75338 3.42314,-6.30559 7.17621,0.18015 -0.18016,-7.1764 6.27571,-3.42304 -3.7233,-6.09536 3.7233,-6.12543 -6.27571,-3.42304 0.18016,-7.17641 -7.17621,0.18016 -3.42314,-6.3056 -6.12543,3.75339 z m -274.4434,4.77429 -3.42304,6.27551 -7.17642,-0.18016 0.18016,7.17642 -6.30559,3.42303 3.75338,6.12544 -3.75338,6.12543 6.30559,3.42304 -0.18016,7.17631 7.17642,-0.18015 3.42304,6.2756 6.12543,-3.72329 6.09536,3.72329 3.42303,-6.2756 7.17641,0.18015 -0.18016,-7.17631 6.30559,-3.42304 -3.75336,-6.12543 3.75336,-6.12544 -6.30559,-3.42303 0.18016,-7.17642 -7.17641,0.18016 -3.42303,-6.27551 -6.09536,3.7233 z m 326.80994,56.87044 -5.58495,4.50399 -6.5458,-2.91263 -2.5823,6.69599 -7.11644,0.75061 1.11112,7.08629 -5.79528,4.20374 4.50399,5.58494 -2.91243,6.54581 6.69579,2.58229 0.75081,7.14634 7.08628,-1.11095 4.23362,5.7951 5.55507,-4.50399 6.57568,2.88256 2.58229,-6.66592 7.11646,-0.7807 -1.11114,-7.08628 5.79529,-4.20372 -4.50399,-5.58496 2.91244,-6.5458 -6.6958,-2.5823 -0.75081,-7.11625 -7.08629,1.11093 z m -364.763606,6.21546 -4.233804,5.79519 -7.05621,-1.11104 -0.780693,7.11636 -6.665912,2.5823 2.882558,6.5458 -4.503995,5.58496 5.795091,4.20372 -1.110937,7.08629 7.146338,0.78069 2.58229,6.66591 6.545806,-2.91263 5.584953,4.53407 4.20373,-5.79519 7.086281,1.11104 0.75062,-7.14634 6.69599,-2.58229 -2.91264,-6.54581 4.504,-5.58495 -5.79509,-4.20373 1.11094,-7.08629 -7.116267,-0.75071 -2.58229,-6.69589 -6.545807,2.91254 z m 377.735116,67.59 -4.92436,5.19456 -6.87625,-2.04182 -1.68149,6.96619 -6.96618,1.68148 2.01193,6.87615 -5.19475,4.95435 5.19475,4.95444 -2.01193,6.87606 6.96618,1.68148 1.68149,6.96617 6.87625,-2.0418 4.92436,5.19465 4.95425,-5.19465 6.87625,2.0418 1.68148,-6.96617 6.96618,-1.68148 -2.04181,-6.87606 5.22464,-4.95444 -5.22464,-4.95435 2.04181,-6.87615 -6.96618,-1.68148 -1.68148,-6.96619 -6.87625,2.04182 z m -388.12433,6.72597 -4.954443,5.19455 -6.876051,-2.04181 -1.68149,6.96617 -6.966179,1.68151 2.041811,6.87614 -5.224635,4.95434 5.224635,4.95444 -2.041811,6.87606 6.966179,1.68149 1.68149,6.96618 6.876051,-2.04182 4.954443,5.19466 4.924367,-5.19466 6.87605,2.04182 1.681492,-6.96618 6.966178,-1.68149 -2.011736,-6.87606 5.194559,-4.95444 -5.194559,-4.95434 2.011736,-6.87614 -6.966178,-1.68151 -1.681492,-6.96617 -6.87605,2.04181 z m 371.54963,67.98029 -4.20373,5.79509 -7.08629,-1.11093 -0.7508,7.14632 -6.6958,2.5823 2.91244,6.54581 -4.50399,5.58494 5.79529,4.20373 -1.11114,7.0863 7.11646,0.75061 2.58229,6.69599 6.5458,-2.91263 5.58495,4.50399 4.23361,-5.79509 7.05641,1.11093 0.78069,-7.11626 6.66591,-2.58229 -2.88256,-6.5458 4.504,-5.58496 -5.79528,-4.20373 1.11113,-7.08628 -7.14634,-0.78069 -2.58229,-6.66591 -6.54581,2.91253 z m -352.422715,6.21545 -5.554879,4.504 -6.575879,-2.88256 -2.582292,6.66592 -7.116263,0.7807 1.110937,7.08627 -5.795092,4.20373 4.503995,5.58496 -2.912631,6.54581 6.695987,2.58228 0.750617,7.11636 7.086286,-1.11103 4.233803,5.79519 5.584953,-4.50399 6.545806,2.91252 2.582287,-6.69588 7.11627,-0.75072 -1.11094,-7.08627 5.79509,-4.20373 -4.504,-5.58496 2.91264,-6.54581 -6.69599,-2.58228 -0.75062,-7.14635 -7.086281,1.11104 z m 308.433555,58.10159 -3.42304,6.27551 -7.17631,-0.18015 0.18016,7.17641 -6.30559,3.42304 3.75328,6.12543 -3.75328,6.12544 6.30559,3.423028 -0.18016,7.176309 7.17631,-0.180149 3.42304,6.275605 6.09545,-3.723296 6.12554,3.723296 3.42303,-6.275605 7.17622,0.180149 -0.18016,-7.176309 6.30559,-3.423028 -3.75318,-6.12544 3.75318,-6.12543 -6.30559,-3.42304 0.18016,-7.17641 -7.17622,0.18015 -3.42303,-6.27551 -6.12554,3.7233 z m -274.47339,4.74421 -3.42303,6.30559 -7.17641,-0.18015 0.18015,7.17631 -6.27551,3.42304 3.7233,6.09544 -3.7233,6.125441 6.27551,3.42304 -0.18015,7.17631 7.17641,-0.18016 3.42303,6.305589 6.12543,-3.75328 6.12544,3.75328 3.42304,-6.305589 7.17631,0.18016 -0.18016,-7.17631 6.27562,-3.42304 -3.72331,-6.125441 3.72331,-6.09544 -6.27562,-3.42304 0.18016,-7.17631 -7.17631,0.18015 -3.42304,-6.30559 -6.12544,3.75328 z m 221.44636,37.803485 -5.58495,4.503989 -6.5458,-2.912533 -2.5823,6.695893 -7.14633,0.750709 1.11103,7.086283 -5.79519,4.233707 4.50399,5.554976 -2.88255,6.575786 6.66591,2.582294 0.78069,7.116352 7.08629,-1.11103 4.20373,5.79519 5.58495,-4.504 6.5458,2.912544 2.58229,-6.695894 7.11636,-0.750709 -1.11104,-7.086293 5.79519,-4.233707 -4.50399,-5.584949 2.91254,-6.545803 -6.6959,-2.582304 -0.75071,-7.116352 -7.08628,1.11104 z m -154.72718,2.582282 -4.20373,5.79519 -7.08629,-1.11103 -0.75072,7.116363 -6.69588,2.582283 2.91253,6.545802 -4.50398,5.58496 5.79517,4.233696 -1.11103,7.05632 7.11637,0.780683 2.58228,6.66592 6.5458,-2.88256 5.58496,4.504 4.20374,-5.795189 7.08628,1.111029 0.78068,-7.146336 6.66592,-2.582293 -2.91263,-6.545803 4.53407,-5.58496 -5.79519,-4.203723 1.11104,-7.086282 -7.14634,-0.75072 -2.58229,-6.695883 -6.54581,2.912523 z m 77.61879,13.271776 -4.95434,5.194656 -6.87615,-2.011829 -1.68149,6.966165 -6.96618,1.681494 2.04181,6.876149 -5.19456,4.924373 5.19456,4.954336 -2.04181,6.87615 6.96618,1.681493 1.68149,6.966176 6.87615,-2.041803 4.95434,5.22463 4.95445,-5.22463 6.87605,2.041803 1.68148,-6.966176 6.96618,-1.681493 -2.0418,-6.87615 5.19464,-4.954336 -5.19464,-4.924373 2.0418,-6.876149 -6.96618,-1.681494 -1.68148,-6.966165 -6.87605,2.011829 z" />
  </g>
</svg>
