<?xml version="1.0" encoding="UTF-8" standalone="no"?>
<!-- Created with Inkscape (http://www.inkscape.org/) -->

<svg
   xmlns:dc="http://purl.org/dc/elements/1.1/"
   xmlns:cc="http://creativecommons.org/ns#"
   xmlns:rdf="http://www.w3.org/1999/02/22-rdf-syntax-ns#"
   xmlns:svg="http://www.w3.org/2000/svg"
   xmlns="http://www.w3.org/2000/svg"
   xmlns:sodipodi="http://sodipodi.sourceforge.net/DTD/sodipodi-0.dtd"
   xmlns:inkscape="http://www.inkscape.org/namespaces/inkscape"
   width="136.53334"
   height="136.53334"
   viewBox="0 0 128 128"
   id="svg2"
   version="1.1"
   inkscape:version="0.92.1 r15371"
   sodipodi:docname="xan_w4_chaos.svg"
   inkscape:export-filename="D:\dev\XansSciFiMashup\raw\flags\xan_w4_chaos.png"
   inkscape:export-xdpi="90"
   inkscape:export-ydpi="90">
  <defs
     id="defs4" />
  <sodipodi:namedview
     id="base"
     pagecolor="#583500"
     bordercolor="#666666"
     borderopacity="1.0"
     inkscape:pageopacity="0"
     inkscape:pageshadow="2"
     inkscape:zoom="5.2972439"
     inkscape:cx="24.364284"
     inkscape:cy="64.592271"
     inkscape:document-units="px"
     inkscape:current-layer="layer1"
     showgrid="false"
     inkscape:window-width="1697"
     inkscape:window-height="1057"
     inkscape:window-x="-8"
     inkscape:window-y="837"
     inkscape:window-maximized="1"
     units="px"
     showguides="false" />
  <metadata
     id="metadata7">
    <rdf:RDF>
      <cc:Work
         rdf:about="">
        <dc:format>image/svg+xml</dc:format>
        <dc:type
           rdf:resource="http://purl.org/dc/dcmitype/StillImage" />
        <dc:title />
      </cc:Work>
    </rdf:RDF>
  </metadata>
  <g
     inkscape:label="Ebene 1"
     inkscape:groupmode="layer"
     id="layer1"
     transform="translate(0,-924.3622)">
    <path
       style="fill:#000000"
       d=""
       id="path4147"
       inkscape:connector-curvature="0" />
    <path
       style="fill:#000000"
       d=""
       id="path4145"
       inkscape:connector-curvature="0" />
    <path
       style="opacity:0.98999999;fill:#ffffff;fill-opacity:1;stroke:none;stroke-width:35.43307114;stroke-miterlimit:4;stroke-dasharray:none;stroke-dashoffset:0;stroke-opacity:1"
       d="m 10,988.36225 15.893966,9.1761 v -3.6153 h 26.418349 c -4.123016,4.123 -8.246018,8.24605 -12.369031,12.36905 l -1.991984,-1.992 -3.700429,13.8116 13.810961,-3.7011 -1.99133,-1.9919 c 4.122799,-4.1229 8.245577,-8.2456 12.368378,-12.3685 v 26.4185 h -3.615302 l 9.176749,15.8939 9.176094,-15.8939 h -3.6153 v -26.4185 c 4.1228,4.1229 8.245572,8.2456 12.368376,12.3685 l -1.991329,1.9919 13.810961,3.7011 -3.701086,-13.8116 -1.991328,1.992 c -4.123022,-4.1231 -8.246014,-8.24605 -12.369033,-12.36905 h 26.418348 v 3.6153 L 118,988.36225 l -15.89397,-9.1761 v 3.6153 H 75.687682 c 4.123019,-4.123 8.246021,-8.246 12.369033,-12.3691 l 1.991328,1.992 3.701086,-13.8116 -13.810961,3.7011 1.991329,1.992 c -4.122804,4.1228 -8.245576,8.2456 -12.368376,12.3684 v -26.4184 h 3.6153 l -9.176094,-15.894 -9.176749,15.894 h 3.615302 v 26.4184 c -4.122798,-4.1228 -8.245578,-8.2456 -12.368378,-12.3684 l 1.99133,-1.992 -13.810961,-3.7011 3.700429,13.8116 1.991984,-1.992 c 4.123013,4.1231 8.246015,8.2461 12.369031,12.3691 H 25.893966 v -3.6153 z"
       id="rect4160"
       inkscape:connector-curvature="0" />
  </g>
</svg>
