<?xml version="1.0" encoding="UTF-8" standalone="no"?>
<!-- Created with Inkscape (http://www.inkscape.org/) -->

<svg
   xmlns:dc="http://purl.org/dc/elements/1.1/"
   xmlns:cc="http://creativecommons.org/ns#"
   xmlns:rdf="http://www.w3.org/1999/02/22-rdf-syntax-ns#"
   xmlns:svg="http://www.w3.org/2000/svg"
   xmlns="http://www.w3.org/2000/svg"
   xmlns:sodipodi="http://sodipodi.sourceforge.net/DTD/sodipodi-0.dtd"
   xmlns:inkscape="http://www.inkscape.org/namespaces/inkscape"
   version="1.1"
   width="136.53334"
   height="136.53334"
   id="svg2"
   inkscape:version="0.92.2 (5c3e80d, 2017-08-06)"
   sodipodi:docname="xan_st_dominion.svg"
   inkscape:export-filename="D:\dev\XansSciFiMashup\raw\flags\xan_st_federation.png"
   inkscape:export-xdpi="90"
   inkscape:export-ydpi="90">
  <sodipodi:namedview
     pagecolor="#0e0000"
     bordercolor="#666666"
     borderopacity="1"
     objecttolerance="10"
     gridtolerance="10"
     guidetolerance="10"
     inkscape:pageopacity="0"
     inkscape:pageshadow="2"
     inkscape:window-width="1708"
     inkscape:window-height="1057"
     id="namedview93"
     showgrid="false"
     inkscape:zoom="0.86207173"
     inkscape:cx="113.71053"
     inkscape:cy="-7.7061912"
     inkscape:window-x="-8"
     inkscape:window-y="843"
     inkscape:window-maximized="1"
     inkscape:current-layer="svg2"
     showguides="false" />
  <defs
     id="defs4" />
  <metadata
     id="metadata7">
    <rdf:RDF>
      <cc:Work
         rdf:about="">
        <dc:format>image/svg+xml</dc:format>
        <dc:type
           rdf:resource="http://purl.org/dc/dcmitype/StillImage" />
        <dc:title></dc:title>
      </cc:Work>
    </rdf:RDF>
  </metadata>
  <path
     style="fill:#ffffff;fill-opacity:1;stroke-width:0.06452945"
     d="M 36.43751,100.02293 4.7666702,68.32348 36.56372,36.56332 68.36077,4.8031497 74.36498,10.80711 80.3692,16.81107 h 6.7916 6.79159 v 6.79176 6.79177 l 18.90714,18.90705 18.90714,18.90706 -31.76461,31.76465 c -17.47053,17.47056 -31.79365,31.76113 -31.82915,31.75683 -0.0355,-0.005 -14.31644,-14.27256 -31.7354,-31.70726 z m 75.43373,-50.57957 -18.72547,-18.77387 -0.0322,-6.511 -0.0322,-6.51099 -6.51748,0.005 -6.51747,0.004 L 74.19018,11.76492 68.33392,5.8733297 37.16763,37.07332 6.0013402,68.27332 37.14239,99.40192 68.28344,130.53054 99.44013,99.37389 130.59683,68.21725 Z M 37.57425,98.94092 6.9111502,68.27331 37.62168,37.52502 68.33221,6.7767397 l 5.69572,5.7302103 5.69572,5.73022 6.37228,-0.003 6.37228,-0.003 v 6.33198 6.33197 l 18.11665,18.15785 c 9.96415,9.98684 18.33259,18.39162 18.59651,18.67727 l 0.47986,0.51936 -22.19399,22.19406 c -12.20669,12.20673 -22.20853,22.19405 -22.22629,22.19405 -0.0178,0 -0.025,-21.08177 -0.0161,-46.84837 l 0.0162,-46.84839 h -2.67201 -2.672 l -0.0277,14.63206 c -0.0152,8.04763 -0.0464,15.15474 -0.0694,15.79358 -0.0229,0.63884 -0.0569,1.80037 -0.0756,2.58118 -0.0482,2.02131 -0.0959,3.69001 -0.12991,4.54933 -0.0161,0.40814 -0.0454,1.17766 -0.065,1.71002 -0.0584,1.58624 -0.15861,3.95995 -0.19346,4.5816 -0.0179,0.31942 -0.0619,1.13249 -0.0977,1.80682 -0.0899,1.6908 -0.12329,2.2597 -0.15923,2.71024 -0.017,0.21295 -0.0467,0.66304 -0.0661,1.00021 -0.0194,0.33716 -0.0486,0.80177 -0.065,1.03247 -0.0164,0.23069 -0.045,0.65175 -0.0636,0.93567 -0.0186,0.28394 -0.0473,0.64692 -0.0639,0.80663 -0.0165,0.15971 -0.046,0.50817 -0.0655,0.77435 -0.21867,2.98219 -0.79684,8.60524 -1.13129,11.00226 -0.0347,0.24844 -0.0913,0.65497 -0.12591,0.90341 -0.19783,1.42087 -0.61728,4.01141 -0.87246,5.38822 -0.0559,0.30167 -0.14165,0.76628 -0.19051,1.03247 -0.0489,0.26618 -0.22442,1.10828 -0.39008,1.87135 -1.95533,9.00621 -4.66521,14.27552 -8.276,16.09251 -1.34081,0.67473 -2.43684,0.87873 -4.72088,0.87873 -1.76939,0 -2.29914,-0.0791 -3.09679,-0.46261 -0.85112,-0.40918 -1.69764,-1.30554 -2.30549,-2.44121 -0.77401,-1.44613 -1.39545,-3.78157 -1.60547,-6.0335 -0.0232,-0.24844 -0.0598,-0.52431 -0.0813,-0.61304 -0.0216,-0.0887 -0.0553,-3.50072 -0.0751,-7.58221 l -0.036,-7.42089 -2.04895,-0.0171 -2.04896,-0.0171 0.0163,14.18126 0.0162,14.18125 h 16.63246 c 9.14786,0 16.63247,0.0146 16.63247,0.0324 0,0.0422 -16.73557,16.77757 -16.77777,16.77757 -0.0177,0 -13.83059,-13.80043 -30.6953,-30.66762 z M 55.8978,82.67949 c 0.11532,-2.33899 1.44329,-4.3925 3.53608,-5.46799 0.85829,-0.44108 1.59657,-0.64679 2.51191,-0.6999 l 0.74209,-0.0431 0.0173,-1.53258 0.0173,-1.53257 h -0.44442 c -1.03491,0 -2.26358,-0.35637 -3.24996,-0.94264 -0.72743,-0.43236 -1.77791,-1.48201 -2.20544,-2.2037 -0.58683,-0.99059 -0.94264,-2.21753 -0.94264,-3.25053 v -0.44325 h -2.11977 -2.11977 l -0.0417,0.63586 c -0.10777,1.64437 -0.77611,3.14067 -1.90872,4.27328 -1.1462,1.14621 -2.66607,1.83128 -4.24771,1.91465 l -0.66143,0.0348 v 1.5717 1.57171 h 0.44326 c 1.03372,0 2.26283,0.35663 3.24878,0.94263 0.72743,0.43237 1.77792,1.48201 2.20544,2.2037 0.58684,0.99059 0.94265,2.21752 0.94265,3.25053 v 0.44325 h 2.12047 2.12047 z m -12.80951,-7.80805 -0.0174,-1.43578 -6.1787,-0.0165 -6.17869,-0.0165 v 1.45224 1.45223 h 6.19607 6.19605 z"
     id="path3710"
     inkscape:connector-curvature="0"
     sodipodi:nodetypes="scccccccccccscsccccccccccccccccccccccccccccsssccccscccccccccscccccccsccccccccccsssccccccccsccscccccccccsccsccccccccccccc" />
</svg>
