<?xml version="1.0" encoding="UTF-8" standalone="no"?>
<!-- Created with Inkscape (http://www.inkscape.org/) -->

<svg
   xmlns:dc="http://purl.org/dc/elements/1.1/"
   xmlns:cc="http://creativecommons.org/ns#"
   xmlns:rdf="http://www.w3.org/1999/02/22-rdf-syntax-ns#"
   xmlns:svg="http://www.w3.org/2000/svg"
   xmlns="http://www.w3.org/2000/svg"
   xmlns:sodipodi="http://sodipodi.sourceforge.net/DTD/sodipodi-0.dtd"
   xmlns:inkscape="http://www.inkscape.org/namespaces/inkscape"
   width="136.53334"
   height="136.53334"
   viewBox="0 0 128 128"
   id="svg2"
   version="1.1"
   inkscape:version="0.92.1 r15371"
   sodipodi:docname="xan_sc_protoss.svg"
   inkscape:export-filename="D:\dev\XansSciFiMashup\raw\flags\xan_w4_eldar.png"
   inkscape:export-xdpi="90"
   inkscape:export-ydpi="90">
  <defs
     id="defs4" />
  <sodipodi:namedview
     id="base"
     pagecolor="#005b64"
     bordercolor="#666666"
     borderopacity="1.0"
     inkscape:pageopacity="0"
     inkscape:pageshadow="2"
     inkscape:zoom="2.0799747"
     inkscape:cx="86.899256"
     inkscape:cy="53.242466"
     inkscape:document-units="px"
     inkscape:current-layer="layer1"
     showgrid="false"
     inkscape:window-width="1697"
     inkscape:window-height="1057"
     inkscape:window-x="-8"
     inkscape:window-y="837"
     inkscape:window-maximized="1"
     units="px"
     showguides="false" />
  <metadata
     id="metadata7">
    <rdf:RDF>
      <cc:Work
         rdf:about="">
        <dc:format>image/svg+xml</dc:format>
        <dc:type
           rdf:resource="http://purl.org/dc/dcmitype/StillImage" />
        <dc:title></dc:title>
      </cc:Work>
    </rdf:RDF>
  </metadata>
  <g
     inkscape:label="Ebene 1"
     inkscape:groupmode="layer"
     id="layer1"
     transform="translate(0,-924.3622)">
    <path
       style="fill:#000000"
       d=""
       id="path4147"
       inkscape:connector-curvature="0" />
    <path
       style="fill:#000000"
       d=""
       id="path4145"
       inkscape:connector-curvature="0" />
    <path
       style="fill:#ffffff;fill-opacity:1;fill-rule:evenodd;stroke-width:0.23348075"
       d="m 42.004637,1040.8748 c -4.42812,-5.9581 -6.48136,-16.0695 -5.06687,-24.9521 0.78739,-4.9444 3.05665,-10.5947 5.36603,-13.361 l 0.62696,-0.751 0.89614,0.7869 c 1.90085,1.6689 5.33769,2.6758 7.29304,2.1367 1.33537,-0.3682 2.66628,-1.6103 3.3366,-3.1142 0.47247,-1.06 0.54599,-1.5989 0.54903,-4.02548 0.003,-3.1437 -0.46707,-5.1388 -1.81874,-7.7036 -1.77556,-3.3692 -5.58488,-6.0643 -8.97275,-6.3483 l -1.68779,-0.1415 0.0206,-25.12372 c 0.0186,-22.62063 0.0546,-24.97249 0.36235,-23.60606 1.40436,6.23674 2.69913,10.12984 4.6978,14.12558 2.20512,4.4084 3.99166,6.914 8.30554,11.64852 2.98419,3.27517 3.77186,4.32115 4.01913,5.33722 0.17613,0.72367 -0.13252,0.84953 -0.62458,0.25468 -0.52347,-0.63281 -2.58375,-1.47572 -3.61299,-1.47819 -1.67189,-0.004 -3.29051,1.50154 -3.85056,3.58148 -0.32677,1.21349 -0.29446,4.28268 0.0601,5.70292 1.3022,5.21717 4.58429,8.92627 7.89677,8.92397 1.48675,-9e-4 2.45129,-0.4861 3.32458,-1.672 1.00745,-1.3681 1.1759,-2.1077 1.06715,-4.68544 -0.0945,-2.24137 -0.41457,-3.56815 -1.46518,-6.07455 -0.26238,-0.62594 0.57129,-0.52266 2.37214,0.29387 2.4283,1.10105 4.84615,3.69391 6.34484,6.80416 1.28115,2.65866 1.90183,5.01346 1.90183,7.21506 v 1.4379 l -0.67739,-0.7252 c -0.56032,-0.5997 -0.85282,-0.7238 -1.69273,-0.7176 -1.70696,0.013 -2.53298,1.0268 -2.53298,3.1105 0,2.7211 1.59651,3.9517 5.13658,3.9593 3.0378,0.011 4.16989,-0.4616 6.33078,-2.6181 2.89841,-2.8923 4.2583,-5.3517 5.03444,-9.1047 0.49637,-2.40026 0.31854,-7.16599 -0.36169,-9.6933 -0.48973,-1.81947 -2.29141,-5.80306 -3.32313,-7.34752 l -0.52759,-0.7898 0.56787,0.30312 c 0.93049,0.49667 4.72454,4.43383 5.78607,6.00431 4.97663,7.36271 5.72264,15.80099 2.37384,26.85149 -0.5158,1.7021 -0.93782,3.1467 -0.93782,3.2104 0,0.064 -3.35441,0.1157 -7.45426,0.1157 h -7.45424 l -0.71758,1.2542 c -0.39466,0.68978 -0.71757,1.32018 -0.71757,1.40088 0,0.081 3.40561,0.1466 7.56803,0.1466 h 7.56804 l -0.49191,1.1644 -0.4919,1.1643 -7.7182,0.062 -7.71822,0.062 -0.76382,1.143 c -0.42011,0.6286 -0.73117,1.1755 -0.69125,1.2154 0.0399,0.04 3.40422,0.088 7.47625,0.1046 4.39155,0.019 7.4595,0.1226 7.54089,0.2544 0.19235,0.3111 -1.4506,3.0053 -3.56666,5.8486 -4.71758,6.3389 -12.506,12.8992 -20.21018,17.0233 -1.12363,0.6015 -2.04297,1.0493 -2.04297,0.9951 0,-0.054 0.42972,-0.6421 0.95493,-1.3065 2.19096,-2.7718 3.51912,-6.4107 3.53467,-9.6843 0.009,-1.8644 -0.072,-2.3188 -0.60779,-3.4138 -0.86406,-1.7661 -2.05564,-2.5582 -4.03814,-2.6845 -1.36719,-0.087 -1.67011,-0.016 -3.24808,0.7642 -4.1172,2.0348 -8.1631,7.4618 -10.25181,13.7513 -1.24407,3.746 -1.57441,5.7102 -1.72905,10.2801 l -0.14119,4.1723 z m 4.25585,-41.73428 c -1.78873,-0.5839 -2.92792,-1.659 -3.46848,-3.2735 -0.50865,-1.5193 -0.15896,-3.0993 0.97079,-4.386 2.31886,-2.641 6.56655,-2.1509 8.14322,0.9396 1.09429,2.1449 0.2952,4.8973 -1.77388,6.1099 -1.09099,0.6393 -2.90585,0.9253 -3.87165,0.61 z"
       id="path3702"
       inkscape:connector-curvature="0" />
  </g>
</svg>
