<?xml version="1.0" encoding="UTF-8" standalone="no"?>
<!-- Created with Inkscape (http://www.inkscape.org/) -->

<svg
   xmlns:dc="http://purl.org/dc/elements/1.1/"
   xmlns:cc="http://creativecommons.org/ns#"
   xmlns:rdf="http://www.w3.org/1999/02/22-rdf-syntax-ns#"
   xmlns:svg="http://www.w3.org/2000/svg"
   xmlns="http://www.w3.org/2000/svg"
   xmlns:sodipodi="http://sodipodi.sourceforge.net/DTD/sodipodi-0.dtd"
   xmlns:inkscape="http://www.inkscape.org/namespaces/inkscape"
   version="1.1"
   width="128"
   height="128"
   id="svg2"
   inkscape:version="0.91 r13725"
   sodipodi:docname="xan_st_ferengi.svg"
   inkscape:export-filename="D:\dev\XansSciFiMashup\raw\flags\xan_st_federation.png"
   inkscape:export-xdpi="90"
   inkscape:export-ydpi="90">
  <sodipodi:namedview
     pagecolor="#0e8e00"
     bordercolor="#666666"
     borderopacity="1"
     objecttolerance="10"
     gridtolerance="10"
     guidetolerance="10"
     inkscape:pageopacity="0"
     inkscape:pageshadow="2"
     inkscape:window-width="1735"
     inkscape:window-height="1057"
     id="namedview93"
     showgrid="false"
     inkscape:zoom="4.8766141"
     inkscape:cx="67.545508"
     inkscape:cy="69.616755"
     inkscape:window-x="2097"
     inkscape:window-y="-8"
     inkscape:window-maximized="1"
     inkscape:current-layer="svg2" />
  <defs
     id="defs4" />
  <metadata
     id="metadata7">
    <rdf:RDF>
      <cc:Work
         rdf:about="">
        <dc:format>image/svg+xml</dc:format>
        <dc:type
           rdf:resource="http://purl.org/dc/dcmitype/StillImage" />
        <dc:title></dc:title>
      </cc:Work>
    </rdf:RDF>
  </metadata>
  <path
     style="fill:#ffffff;fill-opacity:1"
     d="m 51.438272,107.82869 c -7.06954,-0.45017 -13.71087,-2.46558 -19.65757,-5.9654 -8.40674,-4.947641 -15.16722,-12.85504 -18.60837,-21.76532 -1.50634,-3.90039 -2.55709,-8.27685 -2.84482,-11.84891 -0.0673,-0.835171 -0.16849,-1.88456 -0.22491,-2.33197 l -0.1026,-0.81348 24.18997,0 c 13.30449,0 24.19176,0.0732 24.19395,0.1627 0.0251,1.02831 0.77236,5.16835 1.22354,6.77898 3.31796,11.84433 11.41906,19.52284 23.31421,22.09803 1.11754,0.24194 2.70043,0.50823 3.51755,0.59177 l 1.48566,0.15188 12.840318,-12.83896 12.84032,-12.83896 2.19583,0.0623 2.19584,0.0623 -11.20709,19.35593 -11.207098,19.35595 -20.82503,-0.029 c -11.45377,-0.016 -21.94764,-0.1005 -23.3197,-0.18787 z m 29.31411,-18.996081 c -8.23283,-2.72025 -14.52084,-9.09041 -16.80628,-17.02586 -0.28865,-1.00225 -0.59309,-2.139529 -0.67652,-2.52728 l -0.1517,-0.70502 1.74992,0 1.74993,0 0.78731,1.57272 c 2.09231,4.17965 5.25682,7.23224 9.36789,9.0366 2.55391,1.12092 1.91787,1.74111 6.82042,-6.65039 l 4.34067,-7.42977 9.21984,0 9.219838,0 -9.122278,9.27365 c -5.01725,5.10051 -10.42249,10.55833 -12.01164,12.1285 l -2.88935,2.85486 -1.59805,-0.52801 z m -5.4521,-18.18715 c -1.5106,-0.31689 -2.41199,-0.79524 -3.44486,-1.82811 -3.22379,-3.22379 -2.34652,-8.803139 1.7095,-10.872369 1.83823,-0.93779 4.45377,-0.93877 6.28396,-0.002 3.1035,1.58793 4.51485,5.74497 3.0204,8.896399 -1.38906,2.92919 -4.43906,4.46302 -7.569,3.80643 z M 10.108872,62.33779 c 0.0511,-0.32811 0.14675,-1.38016 0.21256,-2.3379 0.32488,-4.72816 2.15166,-11.15625 4.48289,-15.77439 2.83786,-5.62177 7.64269,-11.35634 12.7177,-15.17862 5.97168,-4.49761 11.93607,-7.02239 20.01155,-8.47106 2.39306,-0.4293 3.4228,-0.45107 25.28118,-0.53445 l 22.7865,-0.0869 11.162638,19.2502 c 6.13945,10.58761 11.19518,19.33072 11.23494,19.42913 0.0398,0.0984 -0.94324,0.17894 -2.18448,0.17894 l -2.25679,0 -12.77828,-12.82532 -12.778288,-12.82531 -1.48835,0.13832 c -3.41199,0.31712 -8.3753,1.74609 -11.52122,3.31705 -7.69549,3.84286 -13.21037,10.9432 -15.51251,19.97218 -0.2357,0.92442 -0.53314,2.41289 -0.66098,3.30771 -0.12783,0.89483 -0.2831,1.94422 -0.34503,2.33197 l -0.11262,0.70502 -24.17215,0 -24.17216,0 0.0929,-0.59655 z m 73.65159,-6.68573 c -2.32655,-4.00452 -4.28525,-7.37297 -4.35267,-7.48545 -0.1512,-0.25226 -2.00992,0.36887 -3.78453,1.26469 -3.56224,1.79822 -6.77656,5.22217 -8.34882,8.89333 l -0.48775,1.13887 -1.82131,0 -1.8213,0 0.13323,-0.59655 c 0.31445,-1.40805 1.00892,-3.8075 1.31904,-4.55741 3.06661,-7.41538 8.4124,-12.42132 16.04333,-15.02341 l 1.7601,-0.60017 9.30438,9.35836 c 5.1174,5.1471 10.522598,10.60299 12.011538,12.12419 l 2.70716,2.76583 -9.216158,-6.5e-4 -9.21616,-6.5e-4 -4.23008,-7.28094 z"
     id="path4147"
     inkscape:connector-curvature="0" />
</svg>
