<?xml version="1.0" encoding="UTF-8" standalone="no"?>
<!-- Creator: CorelDRAW X5 -->

<svg
   xmlns:dc="http://purl.org/dc/elements/1.1/"
   xmlns:cc="http://creativecommons.org/ns#"
   xmlns:rdf="http://www.w3.org/1999/02/22-rdf-syntax-ns#"
   xmlns:svg="http://www.w3.org/2000/svg"
   xmlns="http://www.w3.org/2000/svg"
   xmlns:sodipodi="http://sodipodi.sourceforge.net/DTD/sodipodi-0.dtd"
   xmlns:inkscape="http://www.inkscape.org/namespaces/inkscape"
   xml:space="preserve"
   width="128"
   height="128"
   style="fill-rule:evenodd"
   viewBox="0 0 3612.4444 3612.4447"
   id="svg2"
   version="1.1"
   inkscape:version="0.91 r13725"
   sodipodi:docname="xan_w4_ork.svg"
   inkscape:export-filename="D:\dev\XansSciFiMashup\raw\flags\xan_w4_ork.png"
   inkscape:export-xdpi="90"
   inkscape:export-ydpi="90"><metadata
     id="metadata21"><rdf:RDF><cc:Work
         rdf:about=""><dc:format>image/svg+xml</dc:format><dc:type
           rdf:resource="http://purl.org/dc/dcmitype/StillImage" /><dc:title /></cc:Work></rdf:RDF></metadata><sodipodi:namedview
     pagecolor="#008203"
     bordercolor="#666666"
     borderopacity="1"
     objecttolerance="10"
     gridtolerance="10"
     guidetolerance="10"
     inkscape:pageopacity="0"
     inkscape:pageshadow="2"
     inkscape:window-width="1920"
     inkscape:window-height="1017"
     id="namedview19"
     showgrid="false"
     inkscape:zoom="2.2201483"
     inkscape:cx="-4.158872"
     inkscape:cy="112.1951"
     inkscape:window-x="1272"
     inkscape:window-y="-8"
     inkscape:window-maximized="1"
     inkscape:current-layer="svg2" /><defs
     id="defs4"><style
       type="text/css"
       id="style6">
   
    .fil1 {fill:#CFD3CD;fill-rule:nonzero}
    .fil0 {fill:url(#id0)}
   
  </style></defs><path
     style="fill:#000000"
     d="m 1688.703,2829.1683 -49.8125,-206.3613 -89.4881,104.0361 -89.4881,104.0361 0,-448.78 0,-448.7799 -208.8862,-166.6819 c -186.2289,-148.6026 -208.8861,-182.0845 -208.8861,-308.6818 0,-133.7023 14.5532,-151.1245 249.0588,-298.1591 136.9824,-85.8877 265.8604,-156.1595 286.3953,-156.1595 20.535,0 166.4089,69.5964 324.1641,154.6586 243.1001,131.0803 308.7801,150.9496 430.8215,130.3309 l 143.9935,-24.3276 64.3852,289.3986 c 74.7706,336.0804 47.0332,409.9337 -147.0582,391.5533 l -117.4329,-11.1209 -10.7797,408.2775 c -10.7612,407.5744 -45.8277,501.1751 -113.8281,303.8344 -35.7476,-103.7414 -36.3206,-103.2947 -85.2668,66.4638 l -49.2771,170.9069 -46.407,-151.9173 c -45.573,-149.1873 -47.092,-150.211 -84.5358,-56.969 -20.9709,52.2215 -62.8182,154.7658 -92.994,227.8758 l -54.8652,132.9276 -49.8126,-206.3613 z m 302.9215,-838.0695 c 0,-41.7772 -17.0907,-75.9586 -37.9794,-75.9586 -20.8885,0 -37.9792,7.1476 -37.9792,15.8834 0,8.7359 -10.3739,42.9173 -23.053,75.9586 -15.1277,39.4219 -2.0706,60.0753 37.9792,60.0753 35.7129,0 61.0324,-31.5119 61.0324,-75.9587 z m -101.603,-182.5429 c 56.1167,-62.0083 56.4756,-76.6162 3.7326,-151.9173 -47.9181,-68.4127 -95.3256,-83.3121 -265.0865,-83.3121 -180.0842,0 -206.7327,9.6061 -206.7327,74.5216 0,50.7142 51.566,98.2245 161.4121,148.717 205.2852,94.3626 231.2115,95.3763 306.6745,11.9908 z m 386.4478,-11.3006 c 108.0559,-75.306 109.0363,-78.2608 18.9897,-57.2373 -52.2217,12.1924 -135.495,22.4012 -185.0521,22.6864 -75.7676,0.4361 -82.5812,9.5829 -42.8239,57.4876 60.8329,73.2991 72.6619,72.0001 208.8863,-22.9367 z M 1042.142,1874.2958 C 590.90768,1788.4302 578.03898,1780.3303 424.43258,1485.4896 L 282.22215,1212.5233 538.74928,965.65777 c 141.09,-135.77608 294.2793,-278.78791 340.4209,-317.80409 l 83.8938,-70.93863 -92.8186,298.81439 c -112.197,361.19946 -114.0216,393.76276 -22.0633,393.76276 86.1899,0 118.0012,71.1153 118.0012,263.7961 0,124.7207 20.0149,157.516 151.91732,248.9244 83.5544,57.9033 151.9172,111.4997 151.9172,119.1031 0,16.1004 -3.3775,15.6999 -227.8758,-27.02 z m 1653.4188,-158.5469 c -28.6707,-89.04 -97.8748,-457.3144 -87.5603,-465.9585 5.6553,-4.7395 65.0477,-36.4629 131.9832,-70.4961 l 121.7008,-61.8787 -94.7103,-251.62183 c -104.4905,-277.60566 -95.4559,-341.55944 28.424,-201.20665 44.7507,50.70154 183.3932,197.3047 308.0945,325.78502 l 226.7296,233.60056 -127.2291,206.2691 c -94.3546,152.9707 -166.81,222.6394 -280.4103,269.625 -183.513,75.9018 -207.1633,77.5563 -227.0221,15.8821 z"
     id="path4145"
     inkscape:connector-curvature="0" /></svg>