<?xml version="1.0" encoding="UTF-8" standalone="no"?>
<!-- Created with Inkscape (http://www.inkscape.org/) -->

<svg
   xmlns:dc="http://purl.org/dc/elements/1.1/"
   xmlns:cc="http://creativecommons.org/ns#"
   xmlns:rdf="http://www.w3.org/1999/02/22-rdf-syntax-ns#"
   xmlns:svg="http://www.w3.org/2000/svg"
   xmlns="http://www.w3.org/2000/svg"
   xmlns:sodipodi="http://sodipodi.sourceforge.net/DTD/sodipodi-0.dtd"
   xmlns:inkscape="http://www.inkscape.org/namespaces/inkscape"
   width="136.53334"
   height="136.53334"
   viewBox="0 0 128 128"
   id="svg2"
   version="1.1"
   inkscape:version="0.92.1 r15371"
   sodipodi:docname="xan_sc_terran.svg"
   inkscape:export-filename="D:\dev\XansSciFiMashup\raw\flags\xan_w4_chaos.png"
   inkscape:export-xdpi="90"
   inkscape:export-ydpi="90">
  <defs
     id="defs4" />
  <sodipodi:namedview
     id="base"
     pagecolor="#995c00"
     bordercolor="#666666"
     borderopacity="1.0"
     inkscape:pageopacity="0"
     inkscape:pageshadow="2"
     inkscape:zoom="2.648622"
     inkscape:cx="99.347352"
     inkscape:cy="75.188481"
     inkscape:document-units="px"
     inkscape:current-layer="layer1"
     showgrid="false"
     inkscape:window-width="1697"
     inkscape:window-height="1057"
     inkscape:window-x="-8"
     inkscape:window-y="837"
     inkscape:window-maximized="1"
     units="px"
     showguides="false" />
  <metadata
     id="metadata7">
    <rdf:RDF>
      <cc:Work
         rdf:about="">
        <dc:format>image/svg+xml</dc:format>
        <dc:type
           rdf:resource="http://purl.org/dc/dcmitype/StillImage" />
        <dc:title></dc:title>
      </cc:Work>
    </rdf:RDF>
  </metadata>
  <g
     inkscape:label="Ebene 1"
     inkscape:groupmode="layer"
     id="layer1"
     transform="translate(0,-924.3622)">
    <path
       style="fill:#000000"
       d=""
       id="path4147"
       inkscape:connector-curvature="0" />
    <path
       style="fill:#000000"
       d=""
       id="path4145"
       inkscape:connector-curvature="0" />
    <path
       style="fill:#fdfdfd;fill-opacity:1;stroke-width:0.37785903"
       d="m 9.9995357,1040.8971 c 0,-0.096 2.3553403,-4.7292 5.2341103,-10.2966 2.87875,-5.5674 7.32451,-14.2034 9.87948,-19.1911 2.55496,-4.9878 4.77599,-9.2156 4.93563,-9.3952 0.32359,-0.364 6.40091,3.8335 6.40091,4.421 0,0.2049 -2.89062,5.9685 -6.4236,12.8081 -3.53298,6.8396 -6.4236,12.5935 -6.4236,12.7865 0,0.2031 2.94093,0.3507 6.98832,0.3507 h 6.98831 l -2.16301,4.3454 -2.16302,4.3454 h -11.62676 c -6.39473,0 -11.6267703,-0.078 -11.6267703,-0.1742 z m 82.5653503,-3.976 c -1.14475,-2.2826 -2.08138,-4.238 -2.08138,-4.3453 0,-0.1075 3.06066,-0.1953 6.80146,-0.1953 4.306774,0 6.801464,-0.1393 6.801464,-0.3799 0,-0.2089 -1.25394,-2.802 -2.78651,-5.7623 -7.773994,-15.0163 -10.087724,-19.6925 -9.937404,-20.0842 0.18206,-0.4744 5.73109,-4.3867 6.19699,-4.3691 0.24212,0.01 20.027844,37.6578 20.439394,38.8924 0.0893,0.2676 -3.63241,0.3939 -11.61066,0.3939 H 94.646266 Z m -53.09235,2.4761 c 0,-0.098 0.99672,-2.3543 2.21493,-5.0143 2.76712,-6.042 7.11788,-15.9397 9.09649,-20.6938 1.25063,-3.005 1.38238,-3.5467 0.78471,-3.2269 -0.39505,0.2114 -0.8245,0.5563 -0.95434,0.7664 -0.12987,0.2101 -0.38027,0.2929 -0.5565,0.184 -0.17623,-0.1089 -0.59831,0.6386 -0.93795,1.6612 -0.62817,1.8912 -1.09944,2.3031 -2.63536,2.3031 -0.82162,0 -0.84249,-0.07 -0.45351,-1.5276 0.66661,-2.4975 -0.71312,-3.6415 -3.16629,-2.6253 -1.56969,0.6501 -2.36914,1.7097 -2.64476,3.5052 l -0.24442,1.5923 -0.80999,-1.7003 c -1.23844,-2.5998 -1.09449,-3.9788 0.59039,-5.6556 1.36187,-1.3554 1.98852,-1.5998 6.3622,-2.4819 1.80598,-0.3642 3.75668,-2.8204 2.23995,-2.8204 -0.36599,0 0.10532,-0.9132 1.3561,-2.6275 2.80222,-3.84059 2.94715,-6.27689 0.43033,-7.23379 -1.3305,-0.5059 -3.25532,0.4754 -4.6479,2.3694 -1.13122,1.5386 -1.42269,2.1038 -2.79756,5.42449 l -0.55206,1.3335 -3.58531,-2.5615 c -1.97191,-1.40879 -3.59388,-2.69359 -3.60438,-2.85489 -0.0104,-0.1615 0.90341,-1.4119 2.03087,-2.7788 2.90105,-3.517 3.60562,-6.954 1.82957,-8.9248 -0.77823,-0.8636 -2.63603,-0.8435 -4.99799,0.054 -3.60973,1.3716 -6.40492,4.3422 -8.20697,8.7221 l -0.85881,2.0874 -0.009,-7.7951 -0.009,-7.7952 2.1974,-0.159 c 3.65431,-0.2643 5.7393,-2.4578 5.73623,-6.0347 -0.003,-3.1361 -2.2373,-5.2378 -5.55987,-5.2292 -1.46556,0 -5.06116,1.4649 -6.2479,2.5388 -0.36565,0.3309 -0.72896,0.5318 -0.80739,0.4465 -0.0784,-0.085 0.96509,-2.5781 2.31888,-5.5396 l 2.46146,-5.3845 15.53728,0.027 c 13.34129,0.023 15.34534,0.097 14.17926,0.5266 -4.78013,1.7598 -8.65525,5.7066 -8.65525,8.8152 0,1.4812 0.36603,1.7291 1.29448,0.877 1.07087,-0.9829 3.64518,-2.3104 4.48043,-2.3104 0.5912,0 0.52727,0.2292 -0.46673,1.674 l -1.15174,1.6739 1.10514,-0.3169 c 1.40952,-0.4043 1.59368,-0.1969 0.93916,1.0577 -0.78914,1.5125 -0.64722,2.5679 0.46275,3.441 1.97422,1.553 5.80586,0.4806 5.80586,-1.6248 0,-1.76 -1.80164,-2.3519 -2.80383,-0.9211 -0.71356,1.0188 -0.87482,0.8753 -1.18307,-1.0524 -0.20579,-1.2869 -0.093,-1.6973 0.73809,-2.6849 2.02285,-2.4041 9.53039,-4.3311 11.91889,-3.0593 1.32877,0.7075 2.18649,2.4018 2.63708,5.2092 0.47553,2.9628 1.37104,4.3065 2.97692,4.4668 2.49731,0.2493 3.39318,-1.3081 2.14309,-3.7255 -0.60437,-1.1687 -0.54347,-1.2446 0.90234,-1.1241 0.95699,0.08 0.93448,-0.028 -0.41354,-1.9745 -0.70124,-1.0127 -0.70151,-1.0391 -0.0104,-1.0391 0.39006,0 1.69752,0.5951 2.90545,1.3225 1.20793,0.7274 2.34567,1.3225 2.5283,1.3225 0.18266,0 0.33147,-0.5526 0.33068,-1.228 -0.003,-3.0357 -4.38647,-7.4262 -8.78518,-8.8003 -1.39214,-0.4349 0.47628,-0.5046 14.1153,-0.5265 l 15.719814,-0.025 2.3622,5.1956 c 3.02028,6.6429 2.97033,6.4956 1.87187,5.5216 -1.4391,-1.2761 -4.01774,-2.4275 -5.94893,-2.6562 -3.533214,-0.4185 -6.104254,1.7209 -6.107184,5.0818 -0.003,3.5714 1.99943,5.7608 5.53739,6.0543 l 2.018384,0.1673 -0.0177,7.4159 -0.0177,7.4159 -0.69688,-1.7825 c -1.493334,-3.8199 -4.531844,-6.9634 -8.007194,-8.284 -2.67134,-1.015 -4.25497,-0.926 -5.21395,0.2932 -1.58806,2.0189 -0.79768,5.2655 2.11881,8.7035 2.44948,2.8874 2.61294,2.4663 -2.31999,5.97669 l -3.00773,2.1404 -0.44214,-1.2772 c -2.39081,-6.90559 -6.73002,-10.09609 -9.00635,-6.62199 -0.83078,1.268 -0.2337,3.0502 2.0415,6.09389 1.2673,1.6953 1.68406,2.5042 1.29032,2.5042 -0.94566,0 -0.44173,1.222 0.86789,2.1045 0.65995,0.4447 1.9771,0.9151 2.927,1.0453 5.10336,0.6995 7.33576,3.8395 5.46683,7.6893 l -0.88314,1.8191 -0.28309,-1.6461 c -0.32304,-1.8784 -0.76402,-2.5245 -2.24624,-3.2909 -2.49637,-1.291 -4.3435,-0.103 -3.66437,2.3566 0.4448,1.6109 0.31219,1.7789 -1.1506,1.4576 -0.95633,-0.21 -1.239,-0.5523 -1.76588,-2.1386 -0.34501,-1.0388 -0.7183,-1.7976 -0.82953,-1.6864 -0.11128,0.1113 -0.68282,-0.14 -1.27022,-0.5582 -1.06221,-0.7564 -1.05772,-0.7355 0.8331,3.8643 1.04556,2.5437 3.85662,8.9697 6.24679,14.2801 2.39017,5.3104 4.42969,9.848 4.53227,10.0836 0.10265,0.2355 -1.22686,-0.1381 -2.95434,-0.8302 -5.31083,-2.1279 -9.25944,-2.429 -13.65091,-1.0408 -1.00061,0.3163 -1.88515,0.5092 -1.9656,0.4288 -0.0805,-0.081 -1.27552,-2.6058 -2.65572,-5.6119 -1.38016,-3.0061 -2.55177,-5.5097 -2.60354,-5.5635 -0.0518,-0.054 -1.25797,2.4542 -2.68043,5.5734 -1.42244,3.1192 -2.70317,5.6713 -2.84604,5.6713 -0.14281,0 -1.0038,-0.2779 -1.91315,-0.6175 -3.64609,-1.3615 -10.57672,-0.5399 -15.15731,1.7969 -0.78184,0.3989 -1.42154,0.6452 -1.42154,0.5473 z m 13.60293,-82.45229 c 0,-0.399 10.75321,-21.28698 10.96111,-21.29181 0.33095,-0.007 10.62904,20.85151 10.40492,21.07561 -0.11692,0.117 -2.07333,0.2894 -4.34744,0.3831 l -4.13477,0.1704 -0.84933,-1.7482 c -0.46711,-0.9615 -0.95157,-1.7481 -1.07658,-1.7481 -0.12496,0 -0.59901,0.7651 -1.05338,1.7003 l -0.8261,1.7004 h -4.53922 c -2.49656,0 -4.53921,-0.1088 -4.53921,-0.2417 z"
       id="path21"
       inkscape:connector-curvature="0"
       sodipodi:nodetypes="scscsssscccsscsssccccscccscccccssccccccscccccccccccccccccccccccscsccsccscscccccccssscccccccccccccscccccccsccccccccccccccccscccsccccscscccsccss" />
  </g>
</svg>
