<?xml version="1.0" encoding="UTF-8" standalone="no"?>
<!-- Created with Inkscape (http://www.inkscape.org/) -->

<svg
   xmlns:dc="http://purl.org/dc/elements/1.1/"
   xmlns:cc="http://creativecommons.org/ns#"
   xmlns:rdf="http://www.w3.org/1999/02/22-rdf-syntax-ns#"
   xmlns:svg="http://www.w3.org/2000/svg"
   xmlns="http://www.w3.org/2000/svg"
   xmlns:sodipodi="http://sodipodi.sourceforge.net/DTD/sodipodi-0.dtd"
   xmlns:inkscape="http://www.inkscape.org/namespaces/inkscape"
   width="128"
   height="128"
   viewBox="0 0 128 128"
   id="svg2"
   version="1.1"
   inkscape:version="0.91 r13725"
   sodipodi:docname="xan_w4_empire.svg"
   inkscape:export-filename="D:\dev\XansSciFiMashup\raw\flags\xan_w4_empire.png"
   inkscape:export-xdpi="90"
   inkscape:export-ydpi="90">
  <defs
     id="defs4" />
  <sodipodi:namedview
     id="base"
     pagecolor="#0022c4"
     bordercolor="#666666"
     borderopacity="1.0"
     inkscape:pageopacity="0"
     inkscape:pageshadow="2"
     inkscape:zoom="4.1930293"
     inkscape:cx="76.019025"
     inkscape:cy="60.81522"
     inkscape:document-units="px"
     inkscape:current-layer="layer1"
     showgrid="false"
     inkscape:window-width="1920"
     inkscape:window-height="1017"
     inkscape:window-x="1272"
     inkscape:window-y="-8"
     inkscape:window-maximized="1"
     units="px"
     showguides="false" />
  <metadata
     id="metadata7">
    <rdf:RDF>
      <cc:Work
         rdf:about="">
        <dc:format>image/svg+xml</dc:format>
        <dc:type
           rdf:resource="http://purl.org/dc/dcmitype/StillImage" />
        <dc:title></dc:title>
      </cc:Work>
    </rdf:RDF>
  </metadata>
  <g
     inkscape:label="Ebene 1"
     inkscape:groupmode="layer"
     id="layer1"
     transform="translate(0,-924.3622)">
    <path
       style="fill:#000000"
       d=""
       id="path4147"
       inkscape:connector-curvature="0" />
    <path
       style="fill:#000000"
       d=""
       id="path4145"
       inkscape:connector-curvature="0" />
    <path
       style="fill:#ffffff;fill-opacity:1"
       d="m 53.694577,1008.3502 c -0.0133,-0.013 -0.31805,-0.033 -0.67713,-0.043 -0.59566,-0.018 -0.67697,-0.027 -0.92803,-0.1089 -0.5514,-0.1794 -1.05525,-0.4864 -1.24296,-0.7572 -0.27013,-0.3898 -0.23567,-0.6698 0.16862,-1.3703 0.10607,-0.1838 0.60373,-1.099 1.10591,-2.0338 0.50218,-0.9347 0.92632,-1.7134 0.94252,-1.7303 0.0162,-0.017 0.0295,-0.043 0.0295,-0.059 0,-0.016 -0.28462,-0.024 -0.63439,-0.018 l -0.6344,0.011 -0.0769,0.096 c -0.12285,0.1542 -0.54063,0.8717 -0.76379,1.3118 -0.24266,0.4785 -0.21807,0.4349 -0.23566,0.4173 -0.0152,-0.015 -0.56842,-3.4788 -0.56847,-3.5589 -3e-5,-0.041 0.13698,-0.044 1.01164,-0.025 0.55643,0.013 1.2302,0.038 1.49728,0.057 0.60371,0.043 0.93721,0.043 1.08654,0 0.0933,-0.026 0.13873,-0.071 0.23771,-0.2345 0.16196,-0.268 0.86693,-1.70223 1.46002,-2.97033 0.42526,-0.9093 0.71838,-1.5184 0.74492,-1.548 0.0115,-0.013 1.83973,1.4239 1.97871,1.555 l 0.10165,0.096 -0.75983,1.3648 c -0.41791,0.7507 -0.85975,1.52513 -0.98187,1.72103 -0.33764,0.5415 -0.42878,0.8072 -0.37507,1.0935 0.0122,0.065 0.20261,0.385 0.45317,0.7614 0.80737,1.2131 0.9195,1.5774 0.58103,1.8874 -0.12912,0.1183 -2.76185,2.0038 -2.79788,2.0038 -0.0501,0 -0.0346,-0.058 0.12042,-0.4479 0.22577,-0.5684 0.56622,-1.6171 0.58543,-1.8032 0.0198,-0.1914 0.0239,-0.1859 -0.35083,-0.4711 -0.23831,-0.1815 -0.31953,-0.211 -0.32,-0.1166 0,0.021 -0.0971,0.1916 -0.21557,0.3785 -0.11847,0.187 -0.45401,0.7313 -0.74565,1.2095 -0.29164,0.4783 -0.5893,0.9566 -0.66145,1.0628 -0.27622,0.4068 -0.33139,0.6849 -0.19147,0.9653 0.046,0.092 0.26673,0.3366 0.60352,0.6682 0.35195,0.3465 0.53098,0.5457 0.53098,0.5908 0,0.069 -0.034,0.088 -0.0782,0.044 z m 18.65966,-0.3928 c -3.2e-4,-0.011 -0.0144,-0.1875 -0.0314,-0.3922 -0.0298,-0.3591 -0.008,-0.5867 0.0607,-0.6291 0.0149,-0.01 0.10878,0.012 0.20874,0.047 0.22457,0.079 0.35601,0.08 0.52327,0 0.21994,-0.1007 0.7779,-0.4784 0.87232,-0.5907 0.0787,-0.093 0.0879,-0.127 0.0755,-0.2761 -0.0264,-0.3187 -0.39872,-0.9854 -1.28072,-2.2937 -0.20407,-0.3026 -0.38462,-0.5673 -0.40122,-0.5881 -0.022,-0.028 -0.0931,0 -0.26313,0.096 -0.2993,0.1724 -0.49205,0.3636 -0.52071,0.5164 -0.06,0.3199 0.23499,0.8687 0.58985,1.0972 0.13763,0.089 0.16848,0.096 0.34537,0.079 0.10683,-0.01 0.21036,-0.01 0.23007,0.01 0.0258,0.017 0.0277,0.1869 0.007,0.6049 -0.0159,0.3196 -0.0342,0.5865 -0.0407,0.593 -0.0365,0.036 -0.77913,-0.2551 -1.10729,-0.4349 -0.2112,-0.1157 -0.90115,-0.4875 -1.53323,-0.8263 -1.62047,-0.8686 -1.68152,-0.9054 -1.6213,-0.978 0.0181,-0.022 0.0972,-0.2062 0.17575,-0.4099 l 0.14286,-0.3702 0.15766,-0.021 c 0.0867,-0.012 0.26063,-0.023 0.38649,-0.024 0.12585,0 0.30451,-0.025 0.39702,-0.053 0.20934,-0.062 0.23326,-0.097 0.61042,-0.8889 0.27631,-0.5801 0.2852,-0.606 0.28358,-0.8255 -0.003,-0.3636 -0.0854,-0.497 -1.18485,-1.91073 -0.54035,-0.6947 -1.0732,-1.3721 -1.1841,-1.5053 -0.11091,-0.1332 -0.23375,-0.3022 -0.27298,-0.3757 l -0.0713,-0.1335 0.28916,-0.2738 c 0.15904,-0.1506 0.49723,-0.4595 0.75152,-0.6866 0.2543,-0.227 0.49377,-0.4553 0.53215,-0.5072 0.0651,-0.088 0.15473,-0.1276 0.15473,-0.068 0,0.037 0.14555,0.2701 0.70512,1.1294 0.34802,0.5344 0.50722,0.8097 0.5522,0.955 0.23564,0.7608 0.77323,1.6115 1.19551,1.8918 0.37386,0.24813 1.04852,0.41923 1.79504,0.45503 0.36759,0.018 0.43583,0.012 0.63704,-0.051 0.18255,-0.058 0.2694,-0.1106 0.4573,-0.2791 0.15635,-0.14023 0.26934,-0.21503 0.34662,-0.22953 0.11872,-0.022 0.77784,0 0.80528,0.028 0.009,0.01 -0.10154,0.98243 -0.24463,2.16423 -0.31372,2.591 -0.31313,2.5866 -0.35359,2.6271 -0.0215,0.021 -0.14589,-0.022 -0.37139,-0.1286 l -0.33909,-0.1609 0.1428,-0.2386 c 0.12037,-0.2012 0.14279,-0.2653 0.14279,-0.4086 0,-0.3527 -0.23994,-0.8316 -0.60001,-1.1974 -0.26001,-0.2642 -0.45831,-0.3525 -0.67949,-0.3026 -0.16801,0.038 -0.33914,0.2101 -0.33914,0.3414 0,0.1072 0.5119,1.0259 1.33764,2.4004 0.442,0.7358 0.39527,0.6875 0.71803,0.7412 0.26194,0.044 0.27121,0.057 0.3834,0.5634 0.13088,0.5905 0.18988,1.0432 0.14206,1.0901 -0.0219,0.022 -0.29481,0.077 -0.60639,0.1232 -0.99141,0.1472 -2.33424,0.368 -2.72741,0.4484 -0.20921,0.043 -0.38062,0.069 -0.38091,0.058 z m -10.54084,-1.2081 c -0.40548,-0.5395 -0.82035,-1.0856 -0.92193,-1.2137 -0.31164,-0.393 -0.31986,-0.5261 -0.0784,-1.2689 0.18806,-0.5783 0.80824,-2.7292 1.02109,-3.5413 0.0973,-0.3711 0.15959,-0.6705 0.14821,-0.7122 -0.0197,-0.072 -0.17518,-0.26783 -0.19495,-0.24553 -0.0472,0.053 -0.5657,1.50193 -1.02381,2.86063 -0.30616,0.9081 -0.5774,1.6917 -0.60276,1.7415 -0.0254,0.05 -0.0832,0.1073 -0.12859,0.128 -0.0692,0.032 -0.0875,0.029 -0.11336,-0.018 -0.017,-0.03 -0.18123,-0.2314 -0.36497,-0.4467 -0.51365,-0.602 -0.55034,-0.7204 -0.37199,-1.2006 0.055,-0.1481 0.31776,-0.8884 0.58391,-1.6452 0.26615,-0.7567 0.54164,-1.53293 0.61219,-1.72503 0.15995,-0.4353 0.16554,-0.5687 0.0287,-0.6839 -0.21091,-0.1774 -0.31929,-0.072 -0.56302,0.5475 -0.2643,0.6718 -1.52661,3.54453 -1.55758,3.54473 -0.0548,0 -0.80618,-0.7802 -0.87,-0.9036 -0.038,-0.073 -0.0515,-0.1516 -0.0405,-0.2338 0.009,-0.068 0.15518,-0.4115 0.32462,-0.7636 0.32773,-0.681 1.45482,-3.11143 1.6541,-3.56683 0.0655,-0.1496 0.10746,-0.2822 0.0933,-0.2947 -0.52689,-0.465 -2.16627,-1.882 -2.43842,-2.1078 -0.39892,-0.3309 -0.53879,-0.4765 -0.56739,-0.5905 -0.0301,-0.1197 0.0441,-0.3704 0.25999,-0.8786 0.11345,-0.2671 0.56281,-1.4034 0.99858,-2.5251 0.43578,-1.1217 1.43552,-3.6856 2.22164,-5.6976 0.78612,-2.012 1.78912,-4.5795 2.22888,-5.7056 0.43977,-1.1261 0.80818,-2.0475 0.81871,-2.0476 0.0486,0 0.20518,0.3601 0.38045,0.8759 0.10554,0.3105 0.61469,1.7155 1.13145,3.1221 0.51676,1.4066 1.72587,4.6989 2.68691,7.3162 0.96104,2.6173 1.84314,4.9992 1.96022,5.293 0.11707,0.2937 0.23029,0.6096 0.25159,0.7019 l 0.0387,0.1678 -0.11027,0.091 c -0.47861,0.3958 -1.85932,1.7523 -2.07691,2.0405 -0.10885,0.1442 -0.12562,0.1868 -0.10858,0.276 0.0111,0.058 0.42111,0.9061 0.91118,1.8846 0.49007,0.97853 0.8869,1.79693 0.88185,1.81873 -0.005,0.022 -0.2778,0.2918 -0.60613,0.6002 -0.87256,0.8197 -1.11178,1.0325 -1.14712,1.0208 -0.0428,-0.014 -0.39118,-0.9796 -0.97523,-2.7018 -0.26708,-0.78753 -0.49498,-1.43203 -0.50645,-1.43223 -0.0115,-10e-5 -0.0681,0.044 -0.1259,0.098 -0.10101,0.094 -0.10429,0.1053 -0.0852,0.2833 0.0109,0.1018 0.063,0.3235 0.11588,0.4927 0.0528,0.1691 0.25781,0.89023 0.45547,1.60243 0.19768,0.7122 0.4011,1.426 0.45205,1.5863 0.0878,0.2762 0.11423,0.4265 0.10356,0.5902 -0.006,0.089 -0.32765,0.4338 -0.78052,0.8358 -0.18758,0.1664 -0.37018,0.3473 -0.40579,0.4019 -0.0356,0.055 -0.0849,0.095 -0.10953,0.091 -0.0308,-0.01 -0.17791,-0.553 -0.47231,-1.7568 -0.23513,-0.9614 -0.4811,-1.9375 -0.54659,-2.1689 -0.0655,-0.2315 -0.12814,-0.4976 -0.13921,-0.5914 l -0.0201,-0.17053 -0.12497,0.12753 c -0.11863,0.121 -0.12495,0.1379 -0.12447,0.3324 3.3e-4,0.1126 0.0298,0.3432 0.0655,0.5124 0.0357,0.1691 0.1667,0.8902 0.29102,1.6024 0.12432,0.7122 0.26368,1.4625 0.30969,1.6672 0.046,0.2048 0.0856,0.4748 0.0879,0.6001 0.005,0.2649 -0.0482,0.3774 -0.35322,0.7479 -0.14811,0.18 -1.28425,1.6388 -1.6372,2.1023 l -0.0866,0.1137 -0.73723,-0.9807 z m -19.22538,-11.53783 c -0.22506,-0.046 -2.62246,-0.3979 -3.16403,-0.465 -0.15557,-0.019 -0.30305,-0.043 -0.32773,-0.052 -0.0614,-0.024 0.0272,-0.191 0.77792,-1.4703 0.50801,-0.8657 4.81823,-8.2947 5.08642,-8.7668 0.0436,-0.077 0.0906,-0.1896 0.10437,-0.2509 0.0243,-0.1076 0.0218,-0.1114 -0.0711,-0.1114 -0.0622,0 -0.12713,0.032 -0.18363,0.089 -0.0994,0.1012 -3.26536,4.1695 -4.89356,6.2884 -2.30186,2.9954 -2.75882,3.5774 -2.81676,3.5872 -0.0856,0.014 -0.10041,0.01 -1.68258,-0.9998 -0.79228,-0.5035 -1.56291,-0.993 -1.71251,-1.0878 -0.14961,-0.095 -0.29165,-0.1724 -0.31564,-0.1724 -0.0485,0 -0.0599,-0.053 -0.0151,-0.07 0.0157,-0.01 0.15679,-0.1492 0.31353,-0.3183 0.15672,-0.1692 0.87672,-0.9194 1.59997,-1.6672 0.72325,-0.7478 2.07102,-2.1463 2.99504,-3.1078 0.92401,-0.9615 2.36905,-2.4576 3.21119,-3.3247 0.84215,-0.8671 1.53113,-1.5882 1.53108,-1.6024 0,-0.014 -0.0568,-0.091 -0.12612,-0.1716 l -0.12603,-0.1457 -0.22189,0.2128 c -0.12204,0.117 -0.39249,0.3387 -0.60101,0.4926 -0.32583,0.2404 -6.71437,5.3442 -8.8633,7.0809 -0.7952,0.6426 -1.59197,1.2507 -1.70917,1.3043 -0.0671,0.031 -0.10015,0.01 -0.33992,-0.2258 -0.14605,-0.143 -0.45494,-0.412 -0.68641,-0.5978 -0.38642,-0.3103 -2.78472,-2.3544 -2.95473,-2.5185 -0.0405,-0.039 -0.0652,-0.084 -0.055,-0.101 0.0413,-0.067 0.33558,-0.2434 0.81757,-0.4907 0.56443,-0.2895 2.42418,-1.2873 8.55341,-4.5891 2.27014,-1.2229 4.32678,-2.3216 4.57032,-2.4416 0.27762,-0.1368 0.49633,-0.2687 0.58631,-0.3537 0.12639,-0.1194 0.1459,-0.1567 0.16351,-0.3127 0.011,-0.097 0.008,-0.1895 -0.008,-0.2047 -0.0151,-0.015 -0.25884,0.067 -0.54157,0.1825 -0.28271,0.1154 -1.3371,0.5303 -2.34308,0.9218 -2.77933,1.0817 -6.1971,2.4161 -9.90607,3.8675 -3.66415,1.4339 -4.12952,1.6094 -4.26783,1.6094 -0.12118,0 -0.27478,-0.1143 -0.72217,-0.5371 -0.20223,-0.1912 -1.11064,-1.0107 -2.0187,-1.8211 -0.90806,-0.8104 -1.65573,-1.4927 -1.66148,-1.5162 -0.006,-0.025 0.0169,-0.043 0.054,-0.043 0.0355,0 0.22405,-0.05 0.4191,-0.1112 0.19503,-0.061 0.44751,-0.1283 0.56106,-0.1491 0.11355,-0.021 0.25234,-0.057 0.30841,-0.081 0.0561,-0.024 0.1534,-0.053 0.21628,-0.065 0.0798,-0.015 0.10906,-0.035 0.0969,-0.067 -0.0112,-0.029 0.005,-0.045 0.0444,-0.045 0.034,0 0.21404,-0.052 0.40003,-0.1157 0.186,-0.064 0.44016,-0.136 0.5648,-0.1609 0.31171,-0.062 0.63768,-0.1469 0.69601,-0.181 0.16888,-0.099 0.60023,-0.209 1.49809,-0.3823 0.30312,-0.059 0.72424,-0.1703 1.03593,-0.2749 0.28886,-0.097 0.61261,-0.1909 0.71944,-0.2089 0.38887,-0.065 0.52166,-0.096 0.7122,-0.1647 0.10683,-0.038 0.33867,-0.098 0.51519,-0.1333 0.3328,-0.066 1.0222,-0.2573 1.44251,-0.4009 0.13308,-0.046 0.33702,-0.098 0.45322,-0.116 0.19797,-0.031 2.29985,-0.6082 6.94481,-1.9063 1.08611,-0.3035 2.09657,-0.5883 2.24548,-0.6329 0.14891,-0.044 0.30577,-0.081 0.3486,-0.081 0.0428,0 0.2342,-0.05 0.42527,-0.1114 0.19108,-0.061 0.67012,-0.1986 1.06455,-0.3051 0.39443,-0.1065 0.76205,-0.2169 0.81695,-0.2453 0.0959,-0.05 0.15094,-0.1579 0.12788,-0.2517 -0.0122,-0.05 0.20963,-0.09 -12.21548,2.2112 -4.04174,0.7485 -8.16441,1.512 -9.16149,1.6966 -0.99708,0.1846 -1.87843,0.3509 -1.95856,0.3695 -0.26391,0.061 -0.33481,0.047 -0.54745,-0.1133 -0.10877,-0.082 -0.33237,-0.3036 -0.49689,-0.4928 -0.16452,-0.1893 -0.94375,-1.0059 -1.73162,-1.8147 -0.78788,-0.8087 -1.43249,-1.481 -1.43249,-1.494 0,-0.042 0.19349,-0.065 1.10067,-0.1294 0.48964,-0.035 0.95581,-0.071 1.03593,-0.079 0.21322,-0.023 2.42627,-0.2119 3.02685,-0.2586 0.089,-0.01 0.43137,-0.037 0.76076,-0.067 0.32939,-0.03 0.67174,-0.059 0.76076,-0.065 0.089,-0.01 0.43137,-0.035 0.76076,-0.063 0.32939,-0.029 0.67902,-0.059 0.77695,-0.066 0.0979,-0.01 0.45483,-0.037 0.79313,-0.066 0.33829,-0.029 0.68064,-0.057 0.76076,-0.062 0.15772,-0.011 1.35927,-0.1114 2.52507,-0.2104 0.84133,-0.071 1.88561,-0.1588 2.12042,-0.1775 0.089,-0.01 0.42408,-0.036 0.74457,-0.065 0.32049,-0.029 0.66284,-0.059 0.76076,-0.067 0.0979,-0.01 0.42571,-0.035 0.72839,-0.06 0.30269,-0.025 0.83441,-0.069 1.18161,-0.096 0.34719,-0.028 0.76966,-0.066 0.93881,-0.085 0.16914,-0.019 0.59161,-0.056 0.93881,-0.083 0.34719,-0.027 0.96632,-0.077 1.37584,-0.1115 1.20346,-0.1013 2.2109,-0.1864 3.07541,-0.2599 0.44513,-0.038 0.955,-0.08 1.13305,-0.094 0.17805,-0.014 0.39525,-0.042 0.48265,-0.063 0.0874,-0.021 0.25495,-0.035 0.37229,-0.032 0.27885,0.01 0.68235,-0.029 0.92556,-0.084 0.10683,-0.024 0.32945,-0.054 0.49472,-0.066 l 0.30048,-0.022 0.0475,-0.1138 c 0.0261,-0.062 0.0475,-0.1546 0.0475,-0.2046 0,-0.09 0.0566,-0.1727 0.137,-0.2014 0.14642,-0.052 -0.11652,-0.06 -0.88872,-0.026 -3.21582,0.1418 -18.75956,0.868 -20.8571,0.9743 -1.40659,0.071 -3.09645,0.1512 -3.75524,0.1774 -0.65878,0.026 -1.64211,0.073 -2.18516,0.1047 -0.54305,0.031 -1.1415,0.057 -1.32988,0.057 -0.32705,0 -0.34799,0 -0.46394,-0.093 -0.0668,-0.051 -0.26187,-0.2695 -0.43352,-0.4856 -0.17165,-0.2161 -0.6633,-0.8154 -1.09253,-1.3317 -0.42924,-0.5164 -0.89853,-1.1136 -1.04288,-1.3273 -0.14433,-0.2137 -0.38736,-0.5179 -0.54003,-0.6761 -0.20978,-0.2173 -0.2691997,-0.2977 -0.24322,-0.329 0.0546,-0.066 0.29964,-0.085 1.20618,-0.096 0.46653,-0.01 1.14686,-0.018 1.51186,-0.029 0.75628,-0.022 5.33015,-0.075 8.69209,-0.1008 1.24635,-0.01 2.38992,-0.031 2.54126,-0.048 0.15135,-0.017 1.28035,-0.038 2.50889,-0.047 5.1902,-0.039 6.35361,-0.053 6.50693,-0.082 0.089,-0.017 1.29814,-0.038 2.68694,-0.047 3.66417,-0.024 5.84624,-0.048 6.21557,-0.067 0.17805,-0.01 0.99118,-0.024 1.80699,-0.032 0.81579,-0.01 1.49468,-0.022 1.50866,-0.03 0.014,-0.01 0.97079,-0.023 2.12629,-0.032 1.1555,-0.01 2.33035,-0.026 2.61078,-0.038 l 0.50987,-0.022 0,0.8618 0,0.8617 -0.089,0.02 c -0.21911,0.048 -0.34699,0.1037 -0.82679,0.3569 -0.66303,0.3498 -1.01702,0.5827 -1.26422,0.8316 -0.21274,0.2141 -1.59325,1.8172 -1.82857,2.1233 -0.077,0.1002 -0.20601,0.3206 -0.28663,0.4897 -0.0806,0.1692 -0.22541,0.469 -0.32175,0.6662 -0.24678,0.5053 -0.27718,0.6859 -0.28286,1.6809 -0.004,0.6651 0.006,0.8565 0.0526,1.0745 0.12086,0.5597 0.31154,1.0131 0.61693,1.4667 0.29757,0.4421 1.10941,1.1905 1.54056,1.4203 0.4193,0.2235 1.10712,0.3956 1.83186,0.4585 0.43458,0.038 0.66786,0.024 1.48915,-0.084 0.19585,-0.026 0.48891,-0.061 0.65123,-0.079 0.16233,-0.017 0.39115,-0.068 0.5085,-0.112 0.11735,-0.044 0.55996,-0.1844 0.98359,-0.3116 0.42362,-0.1272 1.07126,-0.3524 1.43918,-0.5003 0.36793,-0.1479 1.1473,-0.446 1.73194,-0.6625 0.58465,-0.2165 1.09527,-0.4141 1.13471,-0.4393 0.0676,-0.043 0.0872,-0.032 0.33992,0.1936 0.4044,0.3611 1.81752,1.8524 2.22112,2.344 0.12398,0.151 0.16748,0.2308 0.16748,0.3072 0,0.1298 -4.02208,10.4678 -4.10478,10.5505 -0.0333,0.033 -0.58202,-0.2962 -1.8518,-1.1122 -0.40062,-0.2575 -0.83765,-0.5317 -0.97119,-0.6094 -0.29424,-0.1713 -0.57503,-0.3789 -0.61609,-0.4556 -0.059,-0.1102 0.0792,-0.3805 0.50384,-0.9855 0.56144,-0.8 3.43617,-5.13 3.53547,-5.3253 0.22292,-0.4384 0.21219,-0.7007 -0.0336,-0.8208 -0.15219,-0.074 -0.28781,-0.054 -0.47471,0.072 -0.23592,0.1584 -0.26115,0.2239 -0.25745,0.6681 0.002,0.2137 -0.008,0.4161 -0.0213,0.4497 -0.0544,0.1361 -1.31731,2.0493 -1.40733,2.1321 -0.12759,0.1172 -0.15361,0.1125 -0.17859,-0.032 -0.0704,-0.4086 -0.44298,-1.6754 -0.51664,-1.7568 -0.0733,-0.081 -0.20227,-0.081 -0.30706,0 l -0.0809,0.062 0.009,0.6896 c 0.005,0.3793 0.0245,0.9372 0.0435,1.2399 0.0399,0.6355 0.0172,0.9808 -0.0766,1.1654 -0.0362,0.071 -0.16999,0.2388 -0.29729,0.3723 -0.29422,0.3086 -0.6459,0.6988 -1.48818,1.651 -0.37011,0.4184 -0.70265,0.794 -0.73898,0.8346 -0.0363,0.041 -0.0716,0.068 -0.0785,0.061 -0.007,-0.01 0.0607,-1.1311 0.15005,-2.4984 0.0894,-1.3673 0.1625,-2.5563 0.1625,-2.6423 l 0,-0.1564 -0.10521,0.019 c -0.25324,0.045 -0.35754,0.2395 -0.48151,0.8984 -0.0714,0.3796 -0.22633,1.0864 -0.70324,3.2089 -0.16004,0.7122 -0.3302,1.4915 -0.37815,1.7319 -0.13783,0.691 -0.18804,0.8246 -0.3823,1.0175 -0.0919,0.091 -0.37107,0.3031 -0.62035,0.4707 -0.39806,0.2676 -1.3846,0.9717 -2.88585,2.0596 l -0.45789,0.3318 1.61013,-4.8293 c 0.88557,-2.656 1.6198,-4.8807 1.63161,-4.9436 0.0213,-0.1136 0.0202,-0.1148 -0.12487,-0.1536 -0.23223,-0.062 -0.42528,-0.051 -0.50601,0.03 -0.0871,0.087 -0.43239,0.8097 -0.74042,1.5494 -0.12975,0.3115 -0.95677,2.2126 -1.83784,4.2246 -0.88107,2.012 -1.65259,3.7856 -1.71449,3.9414 l -0.11254,0.2832 -0.26353,0 c -0.14494,0 -0.3655,-0.024 -0.49013,-0.049 z m 39.934741,-0.7922 c -0.0785,-0.015 -0.17669,-0.06 -0.21821,-0.099 -0.085,-0.08 -0.39406,-0.7037 -0.48065,-0.9701 -0.0312,-0.096 -0.657951,-1.6095 -1.392751,-3.3633 -0.7348,-1.7538 -1.41908,-3.3927 -1.52061,-3.642 -0.44431,-1.0908 -0.60047,-1.4187 -0.70967,-1.4902 -0.0706,-0.046 -0.0887,-0.046 -0.1996,10e-5 -0.21542,0.09 -0.21489,0.088 -0.0937,0.4159 0.13813,0.3742 2.06126,6.1485 2.39553,7.1927 0.23379,0.7302 0.32552,1.1492 0.25163,1.1492 -0.0174,0 -0.71507,-0.2566 -1.55029,-0.5702 -0.83522,-0.3136 -1.77785,-0.662 -2.09473,-0.7742 -0.31689,-0.1122 -0.61158,-0.2273 -0.65488,-0.2556 -0.15504,-0.1016 -0.22616,-0.3416 -0.32222,-1.0872 -0.10014,-0.7772 -0.99294,-5.9399 -1.03985,-6.013 -0.0337,-0.052 -0.0781,-0.073 -0.15858,-0.073 -0.21384,0 -0.23341,0.095 -0.19702,0.955 0.0121,0.2849 0.0369,1.1589 0.0553,1.9424 0.0184,0.7834 0.0442,1.6429 0.0574,1.9099 0.0132,0.2671 0.0185,0.4966 0.0117,0.51 -0.007,0.013 -0.36188,-0.3071 -0.78917,-0.7122 -0.42728,-0.4051 -0.94204,-0.8851 -1.1439,-1.0667 -0.20186,-0.1816 -0.39681,-0.372 -0.43322,-0.4232 -0.12053,-0.1692 -0.14719,-0.3615 -0.10796,-0.7784 0.0196,-0.208 0.0606,-0.8976 0.0911,-1.5324 0.0634,-1.3169 0.068,-1.2837 -0.18841,-1.3488 -0.0768,-0.02 -0.14762,-0.025 -0.15742,-0.013 -0.01,0.013 -0.0451,0.107 -0.0786,0.2098 -0.0334,0.1029 -0.23861,0.5227 -0.456,0.933 l -0.39524,0.7461 -0.19312,-0.2694 c -0.28959,-0.4039 -0.55519,-0.8077 -0.81601,-1.2406 -0.18852,-0.3128 -0.23106,-0.4074 -0.21853,-0.4856 0.009,-0.053 0.0999,-0.2427 0.20302,-0.4208 0.21329,-0.3683 0.22633,-0.4516 0.10708,-0.6838 -0.0906,-0.1764 -0.15359,-0.2021 -0.34251,-0.1397 -0.16018,0.053 -0.5219,0.4224 -0.63457,0.6482 -0.16335,0.3275 -0.16505,0.319 0.2215,1.1141 0.19043,0.3917 0.50614,1.091 0.70159,1.5539 0.32914,0.7796 0.37738,0.8727 0.65374,1.2625 0.1641,0.2315 0.70055,0.989 1.19211,1.6834 0.49156,0.6944 0.91632,1.2877 0.94392,1.3185 0.0276,0.031 0.0429,0.075 0.0341,0.098 -0.009,0.023 -0.67502,0.433 -1.48032,0.9108 -0.8053,0.4779 -1.50366,0.8964 -1.5519,0.9299 -0.0482,0.034 -0.10683,0.061 -0.13019,0.061 -0.0267,0 -0.46146,-1.1257 -1.17208,-3.0349 -0.62129,-1.6692 -1.52698,-4.0975 -2.01267,-5.3963 l -0.88306,-2.3612 0.44329,-0.4683 c 0.2438,-0.2575 0.96866,-1.0006 1.61077,-1.6513 l 1.1675,-1.1831 0.16058,0.099 c 0.23242,0.143 1.18723,0.5603 1.71349,0.7489 0.8057,0.2887 2.2164,0.6453 2.83202,0.7157 0.42534,0.049 2.38848,0.076 2.87034,0.041 0.67265,-0.05 1.35437,-0.2916 2.0013,-0.709 0.45621,-0.2944 0.85197,-0.7802 1.15109,-1.4131 0.1714,-0.3626 0.22936,-0.5872 0.30572,-1.1846 0.0285,-0.2225 0.0791,-0.5722 0.11246,-0.7769 0.15342,-0.9405 0.12481,-1.0947 -0.4055,-2.1852 -0.40409,-0.8309 -0.83387,-1.4497 -1.36208,-1.961 -0.52566,-0.5089 -0.97948,-0.7903 -1.72059,-1.0669 -0.62209,-0.2322 -0.73652,-0.2939 -0.76623,-0.4128 -0.0121,-0.048 -0.03,-0.5091 -0.0399,-1.0239 l -0.0179,-0.9359 0.72422,0.022 c 0.39833,0.012 1.08518,0.035 1.52634,0.051 0.48702,0.018 0.84301,0.017 0.90622,0 0.14902,-0.043 0.58398,-0.035 1.1081,0.019 0.31283,0.032 0.85936,0.047 1.764321,0.049 0.7211,0 1.82096,0.023 2.44414,0.049 0.62318,0.026 2.15279,0.062 3.39914,0.079 1.24635,0.017 2.79053,0.046 3.43151,0.064 2.5106,0.072 3.78318,0.099 6.11845,0.1304 2.972102,0.04 5.124832,0.085 7.105832,0.1479 0.82793,0.026 2.52507,0.062 3.77142,0.078 1.24635,0.017 3.27127,0.053 4.49982,0.08 1.22854,0.027 2.95371,0.064 3.83369,0.083 1.53596,0.032 1.68586,0.044 1.68586,0.1304 0,0.014 -0.0625,0.062 -0.13883,0.1067 -0.0764,0.045 -0.33493,0.2616 -0.57462,0.482 -0.23968,0.2203 -0.93109,0.8297 -1.53646,1.3541 -0.60537,0.5244 -1.27877,1.117 -1.49645,1.3169 -0.21767,0.1998 -0.45433,0.4003 -0.52589,0.4455 -0.21948,0.1385 -0.5013,0.158 -1.45307,0.1004 -0.45659,-0.028 -1.88632,-0.073 -3.17719,-0.1 -1.29086,-0.027 -2.65295,-0.064 -3.02685,-0.081 -0.37391,-0.017 -1.53933,-0.053 -2.58982,-0.08 -1.0505,-0.027 -3.01714,-0.085 -4.370322,-0.1285 -1.35319,-0.044 -2.72255,-0.088 -3.04304,-0.098 -0.32049,-0.01 -1.50048,-0.04 -2.6222,-0.066 -2.23031,-0.052 -3.47927,-0.089 -5.40625,-0.1624 -0.69439,-0.026 -1.85617,-0.057 -2.58173,-0.069 l -1.31919,-0.021 0,0.117 c 0,0.1069 0.009,0.1185 0.10522,0.1344 0.0579,0.01 0.78261,0.077 1.61054,0.1489 1.07163,0.094 1.95769,0.1495 3.07541,0.1935 0.86355,0.034 1.62835,0.075 1.69957,0.092 0.0712,0.017 0.26922,0.04 0.44,0.051 0.17077,0.012 0.38701,0.041 0.48053,0.066 0.12208,0.032 0.28102,0.04 0.56356,0.027 0.27935,-0.013 0.49457,0 0.74174,0.034 0.67969,0.1022 1.28094,0.1508 2.09594,0.1694 0.65505,0.015 0.9218,0.035 1.29192,0.097 0.25653,0.043 0.55697,0.078 0.66766,0.078 0.11069,0 0.26103,0.021 0.3341,0.047 0.16041,0.057 0.33446,0.075 1.07308,0.1154 0.31159,0.017 0.77047,0.052 1.01974,0.078 0.24927,0.026 0.751862,0.063 1.116862,0.084 0.36501,0.02 1.03512,0.086 1.48915,0.1461 1.38121,0.1831 2.11492,0.2512 4.71024,0.4369 3.06061,0.2189 5.75545,0.4516 5.80508,0.5012 0.0236,0.024 0.0657,-0.016 -1.61281,1.5393 -0.77452,0.7178 -1.6413,1.5331 -1.92618,1.8117 -0.71598,0.7002 -0.96059,0.8741 -1.22937,0.8741 -0.063,0 -1.76428,-0.2835 -3.78056,-0.6301 -3.6301,-0.6239 -6.506352,-1.1175 -15.020202,-2.5776 -2.41674,-0.4145 -4.40334,-0.7443 -4.41467,-0.733 -0.0113,0.011 -0.0108,0.073 0.001,0.137 0.0379,0.2021 0.20142,0.2695 1.1028,0.4548 0.30269,0.062 1.54095,0.3308 2.75169,0.597 1.21074,0.2661 4.37922,0.957 7.04107,1.5354 8.225092,1.7872 9.878012,2.1483 10.229802,2.235 0.18695,0.046 0.45645,0.093 0.59889,0.1035 0.35175,0.027 0.38128,0.046 0.24385,0.1618 -0.0603,0.051 -0.40203,0.3702 -0.75944,0.71 -0.3574,0.3399 -1.07957,1.016 -1.60482,1.5025 -0.52525,0.4865 -1.08156,1.006 -1.23625,1.1545 -0.3878,0.3722 -0.35273,0.3737 -1.48306,-0.064 -0.25818,-0.1 -1.13224,-0.4212 -1.942372,-0.714 -0.81013,-0.2928 -2.54369,-0.9208 -3.85236,-1.3956 -1.30867,-0.4749 -3.45741,-1.2545 -4.77498,-1.7325 -1.31757,-0.4781 -3.00015,-1.0874 -3.73905,-1.3542 -0.73891,-0.2667 -1.52557,-0.5576 -1.74813,-0.6464 -0.48243,-0.1923 -0.81533,-0.2981 -0.93863,-0.2981 -0.14594,0 -0.23561,0.096 -0.23561,0.2521 0,0.2486 0.15334,0.3815 0.66784,0.5788 0.16279,0.062 0.92239,0.3887 1.68801,0.725 0.76561,0.3363 4.30558,1.8857 7.86658,3.4432 3.99546,1.7475 6.478392,2.8502 6.484582,2.8798 0.0152,0.073 -0.35436,0.4267 -0.77079,0.7381 -0.204762,0.1531 -1.093392,0.8552 -1.974742,1.5603 -1.5726,1.258 -1.85496,1.4648 -1.90283,1.3937 -0.0128,-0.019 -0.85371,-0.5499 -1.86859,-1.1796 -3.24548,-2.0137 -4.17347,-2.5894 -5.8271,-3.6151 -3.52536,-2.1865 -4.57215,-2.8404 -4.75858,-2.9725 -0.23081,-0.1635 -0.41444,-0.2588 -0.55865,-0.2899 l -0.10521,-0.023 0,0.1429 c 0,0.1342 0.0133,0.1557 0.21852,0.3522 0.22129,0.2119 1.10144,0.9711 2.66266,2.2967 6.22822,5.2882 7.17446,6.0851 7.79195,6.5626 0.42661,0.3299 0.52788,0.4303 0.52781,0.5235 -2e-5,0.03 -0.0967,0.093 -0.25089,0.162 -0.13797,0.062 -0.44023,0.2274 -0.6717,0.3678 -0.36564,0.2217 -3.08808,1.7639 -3.42342,1.9392 -0.0668,0.035 -0.12139,0.077 -0.12139,0.093 0,0.08 -0.0908,0.011 -0.16905,-0.1278 -0.0485,-0.086 -0.19457,-0.2793 -0.32468,-0.4289 -0.2917,-0.3354 -1.45222,-1.7055 -3.87754,-4.5777 -1.02239,-1.2107 -2.11479,-2.4927 -2.42757,-2.8488 -0.90983,-1.0358 -1.544121,-1.8176 -1.592511,-1.9627 -0.009,-0.026 -0.28643,0.02 -0.34413,0.057 -0.006,0 0.0468,0.085 0.11746,0.1794 0.0707,0.095 0.24881,0.3837 0.395911,0.6419 0.14708,0.2581 1.18163,1.9917 2.29899,3.8523 1.11736,1.8606 2.38803,3.9824 2.82372,4.7151 l 0.79215,1.3321 -0.52167,0.019 c -0.93623,0.033 -4.30563,0.047 -4.45201,0.018 z m -22.038301,-13.8935 c -0.0909,-0.094 -0.27821,-0.3156 -0.41616,-0.4937 -0.2002,-0.2584 -1.56319,-1.9233 -2.45718,-3.0015 l -0.15973,-0.1926 0.15499,-0.3129 c 0.52101,-1.0519 1.03724,-1.6967 1.63408,-2.0412 l 0.29609,-0.1709 0.13689,0.081 c 0.0753,0.044 0.24614,0.1743 0.37968,0.2886 0.31315,0.268 2.09812,1.708 2.20088,1.7755 l 0.0784,0.052 -0.0707,0.2641 c -0.0389,0.1453 -0.17187,0.5082 -0.29552,0.8064 -0.12367,0.2982 -0.40229,1.0011 -0.61919,1.562 -0.41002,1.0603 -0.62277,1.5539 -0.66971,1.5539 -0.0151,0 -0.10189,-0.076 -0.19283,-0.17 z m 4.70477,-0.1772 c -0.0253,-0.049 -0.10781,-0.2355 -0.18329,-0.4136 -0.22365,-0.5275 -0.92674,-2.0978 -1.18134,-2.6384 -0.12999,-0.2759 -0.2443,-0.547 -0.25403,-0.6022 -0.0176,-0.1002 -0.0139,-0.1031 1.33213,-1.039 0.74239,-0.5162 1.47876,-1.0236 1.63637,-1.1277 0.15761,-0.1041 0.35768,-0.2531 0.4446,-0.3313 l 0.15804,-0.1421 0.15429,0.075 c 0.20572,0.1005 0.64418,0.5369 0.83143,0.8276 0.32891,0.5105 0.53684,1.0776 0.53684,1.4641 0,0.2879 -0.1055,0.4571 -0.61294,0.9829 -0.24359,0.2524 -0.92823,0.9906 -1.52143,1.6405 -0.5932,0.6499 -1.12716,1.2293 -1.18657,1.2876 l -0.10803,0.1061 -0.0461,-0.09 z m -13.15376,-2.2226 c -0.0326,-0.042 -0.43083,-0.4808 -0.88486,-0.9743 -0.45403,-0.4934 -0.86071,-0.9475 -0.90374,-1.0089 -0.10135,-0.1448 -0.10102,-0.2841 9.7e-4,-0.386 0.0435,-0.044 0.27541,-0.1648 0.51527,-0.2695 0.23986,-0.1047 0.7834,-0.3519 1.20789,-0.5493 l 0.77178,-0.359 0.50694,0.2624 c 0.27882,0.1443 0.65362,0.3479 0.8329,0.4524 0.17927,0.1045 0.35044,0.19 0.38038,0.19 0.0312,0 0.0544,0.025 0.0544,0.059 0,0.046 -0.20236,0.1543 -0.90625,0.4839 -0.94408,0.4422 -1.31517,0.6533 -1.41446,0.8048 -0.0517,0.079 -0.0587,0.1661 -0.0587,0.7303 0,0.3525 -0.01,0.6409 -0.0216,0.6409 -0.0119,0 -0.0483,-0.035 -0.0809,-0.077 z m 22.0102,-0.3519 c -0.13149,-0.3354 -0.25836,-0.782 -0.30584,-1.0763 -0.0201,-0.1247 -0.0595,-0.2498 -0.0876,-0.2782 -0.0386,-0.039 -0.32748,-0.085 -1.18413,-0.1889 -1.22361,-0.1484 -1.2553,-0.1536 -1.23906,-0.2023 0.006,-0.018 0.40843,-0.3709 0.89436,-0.7845 l 0.8835,-0.752 0.21619,0.029 c 0.3577,0.048 2.05987,0.5087 2.21278,0.5991 0.11882,0.07 0.1725,0.2098 0.17186,0.4469 -4.3e-4,0.1699 -0.0229,0.2422 -0.16534,0.5342 -0.19724,0.4041 -1.20446,1.9401 -1.27223,1.9401 -0.0109,0 -0.0669,-0.1202 -0.12446,-0.2671 z m -4.64773,-0.7607 c -0.008,-0.013 -0.0691,-0.3812 -0.13555,-0.8174 -0.10423,-0.6843 -0.13548,-0.8244 -0.22758,-1.0204 -0.3099,-0.6594 -1.11994,-1.5184 -1.71948,-1.8232 -0.0742,-0.038 -0.38585,-0.1269 -0.6925,-0.1981 -0.30665,-0.071 -0.5919,-0.1519 -0.63389,-0.1794 -0.0881,-0.058 -0.0935,-0.1363 -0.0333,-0.4856 0.0375,-0.2177 0.0428,-0.227 0.1356,-0.2359 0.0531,-0.01 1.42222,0.1015 3.04248,0.2369 1.62026,0.1354 3.15715,0.2634 3.41533,0.2844 l 0.4694,0.038 0.0229,0.5945 c 0.0173,0.4503 0.0133,0.6041 -0.0166,0.634 -0.0217,0.022 -0.12296,0.049 -0.22498,0.061 -0.86065,0.1012 -1.69803,0.8624 -2.1935,1.994 -0.0924,0.2111 -0.21172,0.4368 -0.26512,0.5016 -0.10864,0.1318 -0.32081,0.2494 -0.65464,0.363 -0.24638,0.084 -0.26694,0.087 -0.2885,0.052 z m -12.48498,-0.6512 c 0,-0.015 -0.99753,-0.5944 -2.21673,-1.2868 -1.21921,-0.6924 -2.2171,-1.275 -2.21754,-1.2948 -4.3e-4,-0.02 0.17616,-0.3972 0.39245,-0.8385 l 0.39324,-0.8025 0.53747,0.021 c 0.29561,0.012 0.69772,0.035 0.89358,0.053 0.19585,0.017 1.2156,0.083 2.26609,0.1459 1.0505,0.063 2.19407,0.1363 2.54126,0.1626 0.3472,0.026 0.67133,0.048 0.7203,0.048 l 0.089,0 0,0.246 c 0,0.2352 -0.005,0.2508 -0.10679,0.3528 -0.0839,0.084 -0.19417,0.1348 -0.51449,0.2372 -0.49337,0.1577 -0.59308,0.207 -0.92482,0.4569 -0.65222,0.4915 -1.23766,1.2861 -1.62941,2.2114 -0.0778,0.1839 -0.15242,0.3157 -0.17862,0.3157 -0.0247,0 -0.045,-0.013 -0.045,-0.028 z m -1.75807,-2.2346 c 0.24282,-0.1759 0.32891,-0.348 0.28668,-0.573 -0.0378,-0.2013 -0.32633,-0.4208 -0.60176,-0.4577 -0.0987,-0.013 -0.14883,0 -0.2662,0.083 -0.37857,0.2605 -0.33903,0.7488 0.0774,0.9563 0.22155,0.1104 0.34227,0.1083 0.50384,-0.01 z"
       id="path4158"
       inkscape:connector-curvature="0" />
  </g>
</svg>
