<?xml version="1.0" encoding="UTF-8" standalone="no"?>
<!-- Created with Inkscape (http://www.inkscape.org/) -->

<svg
   xmlns:dc="http://purl.org/dc/elements/1.1/"
   xmlns:cc="http://creativecommons.org/ns#"
   xmlns:rdf="http://www.w3.org/1999/02/22-rdf-syntax-ns#"
   xmlns:svg="http://www.w3.org/2000/svg"
   xmlns="http://www.w3.org/2000/svg"
   xmlns:sodipodi="http://sodipodi.sourceforge.net/DTD/sodipodi-0.dtd"
   xmlns:inkscape="http://www.inkscape.org/namespaces/inkscape"
   width="136.53334"
   height="136.53334"
   viewBox="0 0 128 128"
   id="svg2"
   version="1.1"
   inkscape:version="0.92.1 r15371"
   sodipodi:docname="xan_sc_zerg.svg"
   inkscape:export-filename="D:\dev\XansSciFiMashup\raw\flags\xan_w4_tau.png"
   inkscape:export-xdpi="90"
   inkscape:export-ydpi="90">
  <defs
     id="defs4" />
  <sodipodi:namedview
     id="base"
     pagecolor="#ff4b00"
     bordercolor="#666666"
     borderopacity="1.0"
     inkscape:pageopacity="0"
     inkscape:pageshadow="2"
     inkscape:zoom="1.8728585"
     inkscape:cx="-13.016141"
     inkscape:cy="39.674311"
     inkscape:document-units="px"
     inkscape:current-layer="layer1"
     showgrid="false"
     inkscape:window-width="1697"
     inkscape:window-height="1057"
     inkscape:window-x="-8"
     inkscape:window-y="837"
     inkscape:window-maximized="1"
     units="px"
     showguides="false" />
  <metadata
     id="metadata7">
    <rdf:RDF>
      <cc:Work
         rdf:about="">
        <dc:format>image/svg+xml</dc:format>
        <dc:type
           rdf:resource="http://purl.org/dc/dcmitype/StillImage" />
        <dc:title></dc:title>
      </cc:Work>
    </rdf:RDF>
  </metadata>
  <g
     inkscape:label="Ebene 1"
     inkscape:groupmode="layer"
     id="layer1"
     transform="translate(0,-924.3622)">
    <path
       style="fill:#000000"
       d=""
       id="path4147"
       inkscape:connector-curvature="0" />
    <path
       style="fill:#000000"
       d=""
       id="path4145"
       inkscape:connector-curvature="0" />
    <path
       inkscape:connector-curvature="0"
       id="path23"
       d="m 41.763495,1041.922 c -2.94563,-0.4011 -4.43441,-0.8822 -7.55056,-2.4398 -4.31149,-2.1552 -8.75298,-6.9398 -10.16978,-10.9554 l -0.52448,-1.4866 3.0544,2.6329 c 7.54997,6.508 14.84552,7.7626 19.69845,3.3874 2.73824,-2.4686 3.53269,-5.7578 2.13452,-8.8374 -1.94495,-4.2839 -8.09615,-4.9263 -10.91814,-1.1403 -1.10176,1.4781 -1.00129,4.0493 0.25403,6.5016 0.54904,1.0725 0.86785,1.95 0.70847,1.95 -0.75289,0 -4.32302,-2.8017 -5.34529,-4.1949 -2.05194,-2.7963 -2.96164,-5.4692 -3.44993,-10.1369 l -0.23643,-2.2602 1.9787,0.1641 c 1.73558,0.1439 2.12459,0.041 3.16608,-0.835 2.09485,-1.7627 2.24809,-4.2822 0.37442,-6.1558 -1.48725,-1.4873 -3.48178,-1.5169 -5.02451,-0.075 -1.8439,1.7238 -3.25734,6.3554 -3.76908,12.3503 l -0.23779,2.7858 -0.98644,-1.6715 c -1.44295,-2.4449 -2.18648,-5.2984 -2.41962,-9.2859 -0.20444,-3.4965 0.37355,-8.0207 1.34681,-10.5421 0.40417,-1.0471 0.42956,-1.0557 1.16381,-0.3911 2.42825,2.1975 8.82767,-1.93133 7.37108,-4.75573 -2.40711,-4.6675 -7.67584,-4.9231 -10.70558,-0.5195 -1.48696,2.1611 -3.74944,7.82443 -3.74944,9.38523 0,0.2798 -0.15289,0.5088 -0.33975,0.5088 -0.46558,0 -0.66697,-4.4139 -0.35603,-7.80313 0.31515,-3.435 1.45062,-6.8996 3.11301,-9.4983 1.31336,-2.0531 3.80218,-4.9849 4.23178,-4.9849 0.13643,0 0.54484,0.5023 0.90749,1.1163 0.90974,1.54 2.61438,2.3553 4.41877,2.1133 1.69644,-0.2276 2.78424,-1.0844 3.4882,-2.7475 1.40459,-3.3183 -3.44981,-6.6726 -8.22286,-5.6817 -3.47207,0.7208 -7.36482,3.954 -9.61451,7.9854 l -0.62184,1.1143 0.23421,-1.3 c 0.41746,-2.3172 2.04542,-6.8228 3.1874,-8.8214 1.47855,-2.5875 4.35235,-5.6879 6.62287,-7.1449 1.01173,-0.6492 3.28212,-1.7467 5.04529,-2.439 2.6111,-1.025 3.15303,-1.14 2.92144,-0.6197 -0.53155,1.1943 -0.60829,3.8232 -0.14434,4.9434 0.51892,1.2528 2.04509,2.1956 3.55404,2.1956 1.29147,0 3.65951,-2.4282 3.99269,-4.0941 0.13278,-0.6636 0.0695,-1.8449 -0.14068,-2.6252 -1.37197,-5.0951 -8.41706,-7.1887 -16.86497,-5.0118 -2.02838,0.5227 -3.7473,0.891 -3.81984,0.8185 -0.24566,-0.2457 2.72791,-3.7531 4.00753,-4.727 4.55455,-3.4665 12.01462,-5.291 18.21987,-4.4559 1.62207,0.2183 3.26305,0.5649 3.64661,0.7701 0.64851,0.3471 0.60856,0.4621 -0.56994,1.6406 -1.03982,1.0398 -1.26733,1.5474 -1.26733,2.8273 0,3.2686 4.09546,5.4224 7.31451,3.8467 1.89908,-0.9296 2.41494,-2.0408 2.2246,-4.7916 -0.21588,-3.1198 -1.6964,-5.9685 -4.50217,-8.6628 -3.20991,-3.0823 -6.84174,-4.7504 -11.72281,-5.3843 -1.78624,-0.232 -1.78908,-0.2346 -0.74287,-0.6741 4.58205,-1.9253 12.37884,-2.3879 17.67671,-1.0488 3.852,0.9736 7.7876,2.9333 10.14199,5.0501 1.04294,0.9377 1.89627,1.8453 1.89627,2.0169 0,0.1715 -0.35863,0.4258 -0.79694,0.5649 -1.30161,0.4131 -3.96212,3.1037 -4.40954,4.4593 -0.50454,1.5288 0.0276,2.8603 1.61221,4.0332 0.81101,0.6003 1.59619,0.7763 3.46434,0.7763 2.29804,0 2.47518,-0.065 3.63858,-1.3345 3.82899,-4.1782 3.95284,-12.9055 0.25933,-18.2738 -1.08338,-1.5747 -3.04837,-3.5143 -4.88563,-4.8226 l -0.92525,-0.6589 1.30003,0.2206 c 9.45785,1.6046 17.39469,8.2495 20.44581,17.1177 0.39936,1.1608 0.7261,2.2514 0.7261,2.4238 0,0.1723 -0.6074,0.3133 -1.34979,0.3133 -3.32717,0 -6.07895,1.8565 -6.07895,4.1013 0,1.5195 1.92302,3.5879 3.80745,4.0953 2.11637,0.5699 3.79894,0.1481 5.48477,-1.3749 2.93973,-2.6559 4.02553,-8.7183 2.81125,-15.6962 -0.3339,-1.9187 -0.54188,-3.5538 -0.46218,-3.6335 0.0797,-0.08 1.42496,1.2157 2.98946,2.8788 3.17624,3.3764 5.3596,7.3354 6.33455,11.4863 0.570855,2.4304 0.767655,9.0187 0.345635,11.5706 l -0.224255,1.3561 -1.90742,-0.8882 c -3.09483,-1.441 -4.77221,-1.0851 -5.3874,1.1429 -0.45455,1.6462 -0.18553,2.7201 1.00204,3.9999 1.18885,1.2813 3.00082,1.8142 4.63481,1.363 3.199425,-0.8834 5.208495,-5.3614 6.486855,-14.4585 l 0.28707,-2.0429 1.07146,4.2716 c 1.47963,5.8987 1.71191,11.227 0.64285,14.7466 -0.7609,2.5051 -3.42618,7.1681 -4.09712,7.1681 -0.18689,0 -0.4361,-0.2509 -0.55383,-0.5576 -0.11772,-0.3068 -0.82103,-0.8472 -1.56295,-1.201 l -1.348965,-0.6433 -0.87456,1.0167 c -1.31333,1.5269 -1.52393,3.3158 -0.5717,4.8565 1.65174,2.6726 4.279035,2.5821 7.190215,-0.2477 2.04768,-1.9905 3.64685,-4.3297 6.1325,-8.9703 l 1.99517,-3.7249 -0.21058,3.5286 c -0.74486,12.4817 -9.63588,27.01703 -25.373715,41.48193 l -3.43029,3.1528 -3.82096,-0.5634 c -7.71953,-1.1383 -14.68066,-4.4566 -20.14484,-9.603 -6.69283,-6.3036 -10.12809,-13.81113 -9.75308,-21.31463 0.20288,-4.0589 1.2603,-6.7067 3.62149,-9.0678 3.76008,-3.7601 10.30496,-4.9226 14.8009,-2.6289 1.895,0.9667 4.26894,3.6898 4.81988,5.5286 1.27644,4.2604 -0.13234,7.6391 -4.54045,10.8896 -1.68438,1.242 -2.26275,1.3607 -1.72386,0.3538 0.21027,-0.3929 0.56035,-1.5445 0.77797,-2.5592 0.72382,-3.3751 -1.07941,-5.6611 -4.50278,-5.7083 -3.02708,-0.042 -4.65354,2.2833 -4.33893,6.2026 0.19522,2.4321 1.48544,5.39903 2.93498,6.74923 2.44861,2.2807 6.28437,2.8938 10.29495,1.6456 5.51157,-1.7154 8.67765,-6.90113 9.21587,-15.09453 0.43509,-6.6239 -2.16237,-11.7846 -7.76307,-15.4239 -3.03948,-1.9751 -6.21032,-2.7521 -10.03964,-2.4603 -6.30519,0.4805 -11.45997,2.6104 -15.46752,6.3909 -5.17578,4.8826 -6.95125,10.8172 -6.01503,20.1054 0.55103,5.46663 1.54505,9.27173 3.42851,13.12433 1.32346,2.7071 2.13166,3.7397 5.66895,7.243 5.36634,5.3148 9.80858,7.9795 21.764,13.0553 0.89136,0.3784 0.77879,0.4924 -2.80798,2.844 -10.51439,6.8935 -20.39588,9.9194 -28.69987,8.7886 z"
       style="fill:#000000;stroke-width:0.37143716"
       sodipodi:nodetypes="ccccsssccscscccsccccsccccssccscccsccccccccscccccsccscccscssscccscssccsssssccsccccccccccccsccccccscsscsscsssccccccccscsccscccc" />
  </g>
</svg>
