<?xml version="1.0" encoding="UTF-8" standalone="no"?>
<!-- Created with Inkscape (http://www.inkscape.org/) -->

<svg
   xmlns:dc="http://purl.org/dc/elements/1.1/"
   xmlns:cc="http://creativecommons.org/ns#"
   xmlns:rdf="http://www.w3.org/1999/02/22-rdf-syntax-ns#"
   xmlns:svg="http://www.w3.org/2000/svg"
   xmlns="http://www.w3.org/2000/svg"
   xmlns:sodipodi="http://sodipodi.sourceforge.net/DTD/sodipodi-0.dtd"
   xmlns:inkscape="http://www.inkscape.org/namespaces/inkscape"
   version="1.1"
   width="136.53334"
   height="136.53334"
   id="svg2"
   inkscape:version="0.92.1 r15371"
   sodipodi:docname="xan_st_ferengi.svg"
   inkscape:export-filename="D:\dev\XansSciFiMashup\raw\flags\xan_st_federation.png"
   inkscape:export-xdpi="90"
   inkscape:export-ydpi="90">
  <sodipodi:namedview
     pagecolor="#0e8e00"
     bordercolor="#666666"
     borderopacity="1"
     objecttolerance="10"
     gridtolerance="10"
     guidetolerance="10"
     inkscape:pageopacity="0"
     inkscape:pageshadow="2"
     inkscape:window-width="1697"
     inkscape:window-height="1057"
     id="namedview93"
     showgrid="false"
     inkscape:zoom="4.8766141"
     inkscape:cx="22.73983"
     inkscape:cy="69.616755"
     inkscape:window-x="-8"
     inkscape:window-y="837"
     inkscape:window-maximized="1"
     inkscape:current-layer="svg2"
     showguides="false" />
  <defs
     id="defs4" />
  <metadata
     id="metadata7">
    <rdf:RDF>
      <cc:Work
         rdf:about="">
        <dc:format>image/svg+xml</dc:format>
        <dc:type
           rdf:resource="http://purl.org/dc/dcmitype/StillImage" />
        <dc:title />
      </cc:Work>
    </rdf:RDF>
  </metadata>
  <path
     style="fill:#ffffff;fill-opacity:1;stroke-width:1.06666672"
     d="M 54.86749,115.01727 C 47.326647,114.53709 40.242562,112.38732 33.899415,108.65418 24.932226,103.37669 17.721047,94.942133 14.050487,85.437835 12.443725,81.277419 11.322925,76.609195 11.016013,72.798997 10.944226,71.908148 10.83629,70.7888 10.776109,70.311563 l -0.10944,-0.867712 h 25.802634 c 14.191456,0 25.804544,0.07808 25.80688,0.173546 0.02677,1.096864 0.823851,5.512907 1.30511,7.230912 3.539157,12.633952 12.18033,20.824363 24.86849,23.571231 1.192043,0.25807 2.880459,0.54211 3.752054,0.63122 l 1.584704,0.16201 13.696339,-13.694893 13.69634,-13.69489 2.34222,0.06645 2.34223,0.06645 -11.95423,20.646326 -11.95424,20.646347 -22.213363,-0.0309 c -12.217355,-0.0171 -23.410816,-0.1072 -24.874347,-0.20039 z M 86.135874,94.754783 C 77.354189,91.853183 70.646978,85.058346 68.209175,76.593866 67.901282,75.524799 67.576546,74.311701 67.487554,73.8981 l -0.161813,-0.752021 h 1.866581 1.866592 l 0.839797,1.677568 c 2.231798,4.458293 5.607275,7.714389 9.992416,9.63904 2.724171,1.195648 2.045728,1.857184 7.275115,-7.093749 L 93.79629,69.44385 h 9.8345 9.83449 l -9.73043,9.891893 C 98.383117,84.776287 92.617527,90.597962 90.922434,92.27281 l -3.081973,3.045184 z M 80.320301,75.355156 C 78.708994,75.01714 77.747511,74.5069 76.645783,73.405172 73.207074,69.966463 74.142829,64.015157 78.46925,61.807979 c 1.960779,-1.00031 4.750688,-1.001355 6.702891,-0.0021 3.3104,1.693792 4.81584,6.127968 3.22176,9.489493 -1.481664,3.124469 -4.734998,4.760554 -8.0736,4.060192 z M 10.782797,66.493643 c 0.05451,-0.349984 0.156533,-1.472171 0.22673,-2.49376 0.346539,-5.043371 2.295104,-11.9 4.78175,-16.826016 3.02705,-5.996555 8.152202,-12.11343 13.565546,-16.190528 6.369792,-4.797451 12.731808,-7.49055 21.345654,-9.035798 2.552597,-0.45792 3.650986,-0.481141 26.966592,-0.57008 l 24.305601,-0.09269 11.90681,20.533547 c 6.54875,11.29345 11.94153,20.619434 11.98394,20.724405 0.0425,0.10496 -1.00612,0.190869 -2.33011,0.190869 h -2.40725 L 107.4979,49.053248 93.867725,35.372917 92.280151,35.520459 c -3.639456,0.338261 -8.933653,1.862496 -12.289301,3.538186 -8.208523,4.099051 -14.091061,11.672747 -16.546677,21.303659 -0.251414,0.986048 -0.568683,2.573749 -0.705046,3.528224 -0.136352,0.954485 -0.301973,2.073835 -0.368032,2.487435 l -0.120128,0.752021 H 36.467341 10.683703 l 0.09909,-0.63632 z m 78.561696,-7.131446 c -2.481654,-4.271488 -4.570934,-7.864501 -4.642848,-7.98448 -0.16128,-0.269077 -2.143915,0.393462 -4.036832,1.349003 -3.799723,1.918101 -7.228331,5.570315 -8.905408,9.486219 l -0.520267,1.214794 h -1.942731 -1.94272 l 0.142112,-0.63632 c 0.335414,-1.50192 1.076182,-4.061333 1.406976,-4.861237 3.271051,-7.909739 8.973227,-13.249408 17.112886,-16.024971 l 1.87744,-0.640181 9.924672,9.982251 c 5.458557,5.49024 11.224107,11.309856 12.812307,12.932469 l 2.88764,2.950219 -9.83057,-6.94e-4 -9.830572,-6.93e-4 -4.512085,-7.766336 z"
     id="path4147"
     inkscape:connector-curvature="0" />
</svg>
