<?xml version="1.0" encoding="UTF-8" standalone="no"?>
<!-- Created with Inkscape (http://www.inkscape.org/) -->

<svg
   xmlns:dc="http://purl.org/dc/elements/1.1/"
   xmlns:cc="http://creativecommons.org/ns#"
   xmlns:rdf="http://www.w3.org/1999/02/22-rdf-syntax-ns#"
   xmlns:svg="http://www.w3.org/2000/svg"
   xmlns="http://www.w3.org/2000/svg"
   xmlns:sodipodi="http://sodipodi.sourceforge.net/DTD/sodipodi-0.dtd"
   xmlns:inkscape="http://www.inkscape.org/namespaces/inkscape"
   width="128"
   height="128"
   viewBox="0 0 128 128"
   id="svg2"
   version="1.1"
   inkscape:version="0.91 r13725"
   sodipodi:docname="xan_w4_darkEldar.svg"
   inkscape:export-filename="D:\dev\XansSciFiMashup\raw\flags\xan_w4_darkEldar.png"
   inkscape:export-xdpi="90"
   inkscape:export-ydpi="90">
  <defs
     id="defs4" />
  <sodipodi:namedview
     id="base"
     pagecolor="#3f0181"
     bordercolor="#666666"
     borderopacity="1.0"
     inkscape:pageopacity="0"
     inkscape:pageshadow="2"
     inkscape:zoom="5.0386651"
     inkscape:cx="67.066998"
     inkscape:cy="60.572312"
     inkscape:document-units="px"
     inkscape:current-layer="layer1"
     showgrid="false"
     inkscape:window-width="1920"
     inkscape:window-height="1017"
     inkscape:window-x="1272"
     inkscape:window-y="-8"
     inkscape:window-maximized="1"
     units="px"
     showguides="false" />
  <metadata
     id="metadata7">
    <rdf:RDF>
      <cc:Work
         rdf:about="">
        <dc:format>image/svg+xml</dc:format>
        <dc:type
           rdf:resource="http://purl.org/dc/dcmitype/StillImage" />
        <dc:title></dc:title>
      </cc:Work>
    </rdf:RDF>
  </metadata>
  <g
     inkscape:label="Ebene 1"
     inkscape:groupmode="layer"
     id="layer1"
     transform="translate(0,-924.3622)">
    <path
       style="fill:#000000"
       d=""
       id="path4147"
       inkscape:connector-curvature="0" />
    <path
       style="fill:#000000"
       d=""
       id="path4145"
       inkscape:connector-curvature="0" />
    <path
       style="opacity:0.98999999;fill:#ffffff;fill-opacity:1;stroke:none;stroke-width:35.43307114;stroke-miterlimit:4;stroke-dasharray:none;stroke-dashoffset:0;stroke-opacity:1"
       d="m 75.240203,934.36407 c -0.178175,-0.026 0.07051,0.3563 0.904616,1.7126 0.352849,0.5737 0.790039,1.5796 0.971563,2.2353 0.181519,0.6557 0.75615,2.3323 1.276592,3.7256 0.52044,1.3934 1.3249,3.9417 1.78769,5.6629 0.46279,1.7212 1.05073,3.8625 1.30687,4.7588 0.25614,0.8964 0.4657,2.0563 0.4657,2.5777 0,0.5214 0.40236,1.7132 0.89413,2.648 0.9968,1.895 1.10947,2.5334 0.44708,2.5334 -0.24589,0 -0.46169,0.033 -0.47967,0.074 -0.018,0.041 -0.14388,1.8181 -0.28,3.9492 -0.13613,2.131 -0.33851,4.2434 -0.4494,4.6942 -0.15238,0.6194 -0.0922,0.8196 0.24565,0.8196 0.24588,0 0.51963,-0.2779 0.60832,-0.617 0.1294,-0.4949 0.35665,-0.5979 1.15201,-0.5216 0.94356,0.091 0.98803,0.1492 0.92558,1.2131 -0.0361,0.6148 0.0645,1.1177 0.22354,1.1177 0.15902,0 0.28931,0.4144 0.28931,0.9215 0,0.6515 0.16452,0.9654 0.56,1.0688 0.67179,0.1757 1.22828,1.2941 1.22828,2.4682 0,0.7879 -0.14939,0.9026 -1.92508,1.4762 -1.05881,0.3421 -2.26589,0.6223 -2.68242,0.6223 -0.41651,0 -0.75733,0.1342 -0.75733,0.298 0,0.6019 -1.10664,0.2759 -1.4233,-0.4191 -0.17964,-0.3942 -0.73755,-0.9594 -1.23991,-1.2562 -0.9562,-0.5649 -1.131953,-1.2336 -0.59085,-2.2446 0.47584,-0.8891 0.12587,-1.0073 -1.20558,-0.4069 -1.541956,0.6953 -5.89859,0.5187 -7.472111,-0.3033 -0.568343,-0.2969 -1.445681,-0.5142 -1.950111,-0.4826 -1.828777,0.1146 -2.953783,-2.2842 -3.961337,-8.4483 -0.593994,-3.6341 -2.278075,-8.9184 -2.749359,-8.6271 -0.148965,0.092 -0.270685,1.2897 -0.270685,2.6609 0,2.47 -0.07791,3.0354 -1.082165,7.8557 -0.422623,2.0286 -0.44907,2.5959 -0.143788,3.0847 0.237902,0.381 0.303016,1.0223 0.178134,1.7615 -0.1603,0.9488 -0.32016,1.1625 -0.867946,1.1625 -0.649487,0 -1.362745,0.9967 -1.362745,1.9047 0,0.2127 -0.268238,0.63 -0.596092,0.9268 -0.369774,0.3346 -0.596093,0.9177 -0.596093,1.5361 0,0.7867 -0.121204,0.9972 -0.575718,0.9972 -0.316802,0 -0.661433,-0.2682 -0.76549,-0.5961 -0.237054,-0.7469 -0.512196,-0.7518 -1.174723,-0.02 -0.287078,0.3172 -1.102002,0.8497 -1.81098,1.1829 -0.708977,0.3333 -1.374631,0.7442 -1.479171,0.9133 -0.104542,0.1692 -0.785527,0.3074 -1.513517,0.3074 -0.72799,0 -1.323743,0.1342 -1.323743,0.298 0,0.164 -0.327514,0.2981 -0.727653,0.2981 -0.866588,0 -1.292912,0.5259 -0.632183,0.7794 0.256278,0.098 0.465697,0.3655 0.465697,0.5938 0,0.7391 -2.443129,0.5209 -3.697054,-0.33 -0.603892,-0.4098 -1.226479,-0.7452 -1.383123,-0.7452 -0.156647,0 -0.284655,-0.1845 -0.284655,-0.4103 0,-0.2259 -0.207946,-0.583 -0.462207,-0.794 -0.598462,-0.4967 -0.449493,-2.0585 0.237507,-2.4887 0.383833,-0.2403 0.676285,-0.2288 1.113599,0.044 0.626857,0.3916 1.793517,0.5056 1.793517,0.1753 0,-0.1075 -0.344142,-0.6469 -0.764908,-1.1986 -0.430642,-0.5646 -0.723758,-1.2932 -0.670604,-1.6672 0.07713,-0.5427 0.271687,-0.6565 1.062955,-0.6206 0.922384,0.042 1.196683,-0.1637 0.777132,-0.5832 -0.238029,-0.238 -1.593123,-3.5398 -1.595013,-3.8863 -5.85e-4,-0.1391 -0.195644,-0.6756 -0.4331,-1.1922 -0.640409,-1.3931 -1.265648,-4.1572 -1.661375,-7.3475 -0.193167,-1.5573 -0.550259,-3.207 -0.794013,-3.6662 -0.467671,-0.881 -0.321351,-3.3705 0.263699,-4.4823 0.158844,-0.3019 0.406583,-1.7901 0.550107,-3.3071 0.273577,-2.8916 1.210971,-6.4729 2.528735,-9.658 1.280973,-3.0962 1.021628,-2.8468 -2.11834,2.0387 -0.790187,1.2294 -1.927016,3.3422 -2.526407,4.6947 -0.599393,1.3525 -1.444431,2.8874 -1.877925,3.4107 -0.43349,0.5233 -0.788192,1.2695 -0.788192,1.6584 0,0.8088 -0.504756,1.8704 -1.097883,2.3082 -0.509939,0.3763 -0.977816,2.8709 -1.11709,5.9597 -0.05913,1.3115 -0.267127,2.9879 -0.462207,3.7256 -1.043597,3.9462 -1.180618,5.1818 -1.25971,11.3258 -0.07941,6.1686 -0.05745,6.4525 0.586197,7.5891 0.367744,0.6494 0.668276,1.6822 0.668276,2.2952 0,0.6131 0.216054,1.8926 0.479667,2.8431 0.26361,0.9506 0.797164,3.069 1.185784,4.7083 1.006782,4.2467 1.183344,4.8546 1.990853,6.855 0.397022,0.9836 1.040691,2.62423 1.430858,3.64533 0.873845,2.2869 1.495355,2.7144 1.133971,0.78 -0.137188,-0.7343 -0.31077,-1.4349 -0.385947,-1.5566 -0.20302,-0.3284 0.388945,-6.16543 0.711353,-7.01343 0.406047,-1.068 4.468349,-4.8915 5.593608,-5.2647 0.529913,-0.1757 1.267578,-0.2763 1.639253,-0.2235 0.942482,0.1337 1.988985,2.3525 2.004827,4.2506 0.01386,1.6626 -0.505741,4.8099 -0.928483,5.625 -0.196717,0.3794 -0.09776,1.027 0.330643,2.17203 0.827019,2.2104 0.808639,3.0992 -0.06403,3.0992 -0.398309,0 -0.794896,-0.2602 -0.968651,-0.6363 -0.161815,-0.3502 -0.428673,-0.5849 -0.592599,-0.5216 -0.313485,0.1212 -0.308117,0.6627 0.02271,2.2977 0.184592,0.9122 0.07373,1.1121 -1.403496,2.5334 -0.882056,0.8486 -2.876644,2.5045 -4.432854,3.6801 -3.243998,2.4506 -4.823885,3.9724 -4.12375,3.9724 0.251151,0 0.712255,-0.2853 1.024534,-0.6345 0.736549,-0.8234 2.386963,-1.8561 3.670857,-2.297 0.559147,-0.1921 1.430932,-0.66 1.9373,-1.0403 0.506369,-0.3802 2.224107,-1.318 3.817555,-2.0834 2.189752,-1.0517 3.00991,-1.6089 3.358261,-2.2825 0.458716,-0.8871 1.803012,-1.7958 2.657383,-1.7958 0.246577,0 0.784118,0.3353 1.193931,0.7451 0.984379,0.9844 2.85822,0.9709 2.85822,-0.021 0,-0.875 2.118505,-1.3451 3.274431,-0.7265 0.303947,0.1627 0.718561,0.7997 0.921503,1.4157 0.202935,0.616 0.633375,1.4782 0.956421,1.9158 0.77912,1.0554 0.50354,2.4178 -0.461038,2.279 -0.358937,-0.052 -0.808312,-0.4073 -0.998338,-0.79 -0.482069,-0.9706 -0.90519,-1.3416 -1.271353,-1.1153 -0.217919,0.1347 -0.217099,0.4384 0.0029,1.0024 0.173555,0.445 0.368991,2.7063 0.433683,5.0255 l 0.117587,4.2168 -2.456555,0.177 c -5.951955,0.4287 -7.397753,0.6309 -7.678766,1.0758 -0.155309,0.2458 -0.284476,1.3445 -0.286986,2.4414 -0.0024,1.0968 -0.121314,2.0664 -0.263699,2.1545 -0.142389,0.088 -0.348008,1.0681 -0.457549,2.1782 -0.126017,1.2771 -0.441872,2.4104 -0.859211,3.0858 -0.362791,0.5873 -0.927785,1.5082 -1.255636,2.0462 -0.327851,0.538 -0.904317,1.4481 -1.281251,2.0223 -0.376935,0.5742 -0.645176,1.0842 -0.596091,1.1328 0.04908,0.049 0.949256,-0.9009 2.000167,-2.1102 1.050914,-1.2092 2.828018,-3.0924 3.949113,-4.1843 1.121104,-1.0919 2.03801,-2.1762 2.03801,-2.4099 0,-0.8544 0.928674,-2.1863 1.868027,-2.6795 0.529983,-0.2783 1.67969,-0.6061 2.554933,-0.7283 0.943608,-0.1317 2.056163,-0.5444 2.733059,-1.0134 1.240918,-0.86 2.284094,-0.891 2.79069,-0.083 0.253026,0.4036 0.181179,0.642 -0.339376,1.127 -0.556551,0.5185 -0.602894,0.7054 -0.297465,1.1944 0.298285,0.4777 0.273413,0.647 -0.140287,0.96 -0.540404,0.4088 -1.102945,2.4505 -1.114766,4.0458 -0.01118,1.5096 -0.686955,2.5288 -4.287906,6.4673 -1.829166,2.0006 -3.719111,4.3595 -4.199427,5.2421 -0.871017,1.6003 -0.864463,1.5962 2.309277,-1.5968 1.75014,-1.7608 3.552498,-3.4363 4.005576,-3.7233 l 0,0 c 1.020915,-0.6466 3.197435,-2.6043 4.221553,-3.7966 2.924057,-3.4041 12.785858,-12.3689 13.606507,-12.3689 0.108031,0 0.59513,-0.3353 1.082168,-0.7451 0.56559,-0.4759 0.72201,-0.7451 0.43309,-0.7451 -0.24879,0 -0.53552,0.1341 -0.636832,0.298 -0.101315,0.1639 -0.494868,0.2981 -0.874931,0.2981 -0.380068,0 -0.858303,0.2011 -1.062375,0.447 -0.204065,0.2459 -0.824214,0.4471 -1.377879,0.4471 -0.553671,0 -1.006489,0.1341 -1.006489,0.298 0,0.1695 -0.874527,0.2981 -2.028111,0.2981 -1.703731,0 -2.192745,-0.1206 -3.054976,-0.7562 -1.165072,-0.8589 -1.581987,-1.958 -1.124075,-2.963 0.312308,-0.6854 1.388272,-1.3476 2.190519,-1.3476 0.234213,0 0.865036,-0.2677 1.401751,-0.5949 0.670672,-0.4089 1.502908,-0.5954 2.661463,-0.5961 l 1.685826,0 0.454047,-1.2667 c 2.409352,-6.7212 2.820362,-7.9728 2.619552,-7.9728 -0.12715,0 -0.757202,0.7453 -1.400584,1.6556 -3.727217,5.2739 -4.070393,5.4515 -8.035606,4.1616 -1.376497,-0.4478 -2.656592,-0.9997 -2.844832,-1.2266 -0.342625,-0.4128 -0.290533,-1.0195 0.28,-3.2493 0.285481,-1.1158 1.825615,-2.8315 2.541541,-2.8315 0.157524,0 1.539093,-0.6052 3.070697,-1.3453 2.902018,-1.4023 3.399814,-1.4556 5.139553,-0.5477 0.438578,0.2288 1.718681,0.4007 3.000251,0.4028 1.22945,0.01 2.70477,0.1238 3.27851,0.2707 1.69336,0.4334 3.30356,0.6072 3.13763,0.3387 -0.24649,-0.3987 -2.50986,-1.503 -3.08058,-1.503 -0.8526,0 -1.78467,-0.8342 -1.99319,-1.78363 -0.26485,-1.2059 -2.21377,-3.5018 -3.822786,-4.5033 -1.035459,-0.6445 -1.361697,-1.0477 -1.517013,-1.8756 -0.10884,-0.5801 -0.556921,-1.831 -0.995429,-2.7797 -0.580961,-1.2567 -0.800039,-2.2176 -0.807984,-3.541 -0.01341,-2.2331 0.388178,-2.8035 1.974556,-2.8035 0.642163,0 1.721616,-0.2828 2.398346,-0.6281 0.79713,-0.4066 2.04229,-0.6835 3.5358,-0.7858 1.97792,-0.1356 2.50025,-0.063 3.67843,0.507 3.66608,1.7747 6.01592,7.5812 5.13199,12.6798 -0.33041,1.9057 0.13273,1.4669 0.78644,-0.7451 0.51128,-1.7301 1.50327,-6.3857 2.00017,-9.3885 0.16276,-0.9836 0.51309,-2.8612 0.7783,-4.1726 0.75657,-3.7411 0.8539,-4.8415 0.39002,-4.3962 -0.57241,0.5493 -1.397,0.4528 -1.74869,-0.2043 -0.38885,-0.7266 -0.40283,-4.2034 -0.021,-5.2077 0.16879,-0.444 0.61439,-0.838 1.07925,-0.9547 0.7612,-0.1911 0.78509,-0.2584 0.61123,-1.7377 -0.18567,-1.5797 -1.6626,-6.1873 -3.5882,-11.1941 -1.10424,-2.8712 -2.06178,-4.4607 -4.10978,-6.8225 -1.02819,-1.1857 -1.30595,-1.8221 -1.84067,-4.2186 -0.093,-0.417 -0.71724,-1.3559 -1.38719,-2.0863 -0.66995,-0.7305 -1.80746,-2.2165 -2.52816,-3.3019 -1.42495,-2.146 -4.938308,-5.9118 -6.070363,-6.5069 -0.242692,-0.1276 -0.411487,-0.2238 -0.492474,-0.2358 z m -12.765347,42.5461 c 0.187976,0 1.516527,2.3777 2.951938,5.2874 1.435412,2.9097 3.241617,6.2313 4.013728,7.3813 2.593639,3.8631 3.268949,5.8777 2.095059,6.2502 -0.501538,0.1592 -0.536106,0.2878 -0.24682,0.9227 0.523213,1.1483 -0.120251,1.6165 -1.294638,0.9425 -1.095989,-0.6291 -2.294025,-0.6534 -3.074766,-0.063 -0.318204,0.2407 -1.062164,0.4372 -1.653231,0.4372 -1.961154,0 -8.64683,1.6245 -8.64683,2.10093 0,0.2897 -0.231305,0.3014 -1.41572,0.073 -0.913765,-0.176 -0.88475,-1.35543 0.07917,-3.24133 0.993689,-1.9441 2.230691,-5.8741 2.230691,-7.0861 0,-0.5539 0.364499,-1.5433 0.849897,-2.3087 0.777927,-1.2267 1.778405,-3.9734 3.218553,-8.8337 0.303157,-1.0231 0.705,-1.8614 0.892971,-1.8628 z"
       id="rect4164"
       inkscape:connector-curvature="0"
       sodipodi:nodetypes="csssssssscsssssssscssssscccscscsscssssssscccssscsssscccsssccccssssssssscsssssssssscscsssssccsssscscsssssccccsccsccccsscssccsscsscscsssssccsssssssssssssccccssccsssscccsssscsscssssssccccsssssssccsscccssssssssc" />
  </g>
</svg>
