<?xml version="1.0" encoding="UTF-8" standalone="no"?>
<!-- Created with Inkscape (http://www.inkscape.org/) -->

<svg
   xmlns:dc="http://purl.org/dc/elements/1.1/"
   xmlns:cc="http://creativecommons.org/ns#"
   xmlns:rdf="http://www.w3.org/1999/02/22-rdf-syntax-ns#"
   xmlns:svg="http://www.w3.org/2000/svg"
   xmlns="http://www.w3.org/2000/svg"
   xmlns:xlink="http://www.w3.org/1999/xlink"
   xmlns:sodipodi="http://sodipodi.sourceforge.net/DTD/sodipodi-0.dtd"
   xmlns:inkscape="http://www.inkscape.org/namespaces/inkscape"
   id="svg2860"
   version="1.1"
   inkscape:version="0.91 r13725"
   width="128"
   height="128"
   sodipodi:docname="xan_st_romulan.svg"
   inkscape:export-filename="D:\dev\XansSciFiMashup\raw\flags\xan_st_klingon.png"
   inkscape:export-xdpi="90"
   inkscape:export-ydpi="90">
  <metadata
     id="metadata2866">
    <rdf:RDF>
      <cc:Work
         rdf:about="">
        <dc:format>image/svg+xml</dc:format>
        <dc:type
           rdf:resource="http://purl.org/dc/dcmitype/StillImage" />
        <dc:title></dc:title>
      </cc:Work>
    </rdf:RDF>
  </metadata>
  <defs
     id="defs2864">
    <inkscape:perspective
       sodipodi:type="inkscape:persp3d"
       inkscape:vp_x="0 : 0.5 : 1"
       inkscape:vp_y="0 : 1000 : 0"
       inkscape:vp_z="1 : 0.5 : 1"
       inkscape:persp3d-origin="0.5 : 0.33333333 : 1"
       id="perspective2868" />
    <inkscape:perspective
       id="perspective3654"
       inkscape:persp3d-origin="0.5 : 0.33333333 : 1"
       inkscape:vp_z="1 : 0.5 : 1"
       inkscape:vp_y="0 : 1000 : 0"
       inkscape:vp_x="0 : 0.5 : 1"
       sodipodi:type="inkscape:persp3d" />
    <inkscape:perspective
       id="perspective3676"
       inkscape:persp3d-origin="0.5 : 0.33333333 : 1"
       inkscape:vp_z="1 : 0.5 : 1"
       inkscape:vp_y="0 : 1000 : 0"
       inkscape:vp_x="0 : 0.5 : 1"
       sodipodi:type="inkscape:persp3d" />
    <inkscape:perspective
       id="perspective3714"
       inkscape:persp3d-origin="0.5 : 0.33333333 : 1"
       inkscape:vp_z="1 : 0.5 : 1"
       inkscape:vp_y="0 : 1000 : 0"
       inkscape:vp_x="0 : 0.5 : 1"
       sodipodi:type="inkscape:persp3d" />
    <inkscape:perspective
       id="perspective3743"
       inkscape:persp3d-origin="0.5 : 0.33333333 : 1"
       inkscape:vp_z="1 : 0.5 : 1"
       inkscape:vp_y="0 : 1000 : 0"
       inkscape:vp_x="0 : 0.5 : 1"
       sodipodi:type="inkscape:persp3d" />
    <inkscape:perspective
       id="perspective3773"
       inkscape:persp3d-origin="0.5 : 0.33333333 : 1"
       inkscape:vp_z="1 : 0.5 : 1"
       inkscape:vp_y="0 : 1000 : 0"
       inkscape:vp_x="0 : 0.5 : 1"
       sodipodi:type="inkscape:persp3d" />
    <inkscape:perspective
       id="perspective3795"
       inkscape:persp3d-origin="0.5 : 0.33333333 : 1"
       inkscape:vp_z="1 : 0.5 : 1"
       inkscape:vp_y="0 : 1000 : 0"
       inkscape:vp_x="0 : 0.5 : 1"
       sodipodi:type="inkscape:persp3d" />
    <inkscape:perspective
       id="perspective3830"
       inkscape:persp3d-origin="0.5 : 0.33333333 : 1"
       inkscape:vp_z="1 : 0.5 : 1"
       inkscape:vp_y="0 : 1000 : 0"
       inkscape:vp_x="0 : 0.5 : 1"
       sodipodi:type="inkscape:persp3d" />
    <inkscape:perspective
       id="perspective3860"
       inkscape:persp3d-origin="0.5 : 0.33333333 : 1"
       inkscape:vp_z="1 : 0.5 : 1"
       inkscape:vp_y="0 : 1000 : 0"
       inkscape:vp_x="0 : 0.5 : 1"
       sodipodi:type="inkscape:persp3d" />
    <inkscape:perspective
       id="perspective3887"
       inkscape:persp3d-origin="0.5 : 0.33333333 : 1"
       inkscape:vp_z="1 : 0.5 : 1"
       inkscape:vp_y="0 : 1000 : 0"
       inkscape:vp_x="0 : 0.5 : 1"
       sodipodi:type="inkscape:persp3d" />
    <inkscape:perspective
       id="perspective3913"
       inkscape:persp3d-origin="0.5 : 0.33333333 : 1"
       inkscape:vp_z="1 : 0.5 : 1"
       inkscape:vp_y="0 : 1000 : 0"
       inkscape:vp_x="0 : 0.5 : 1"
       sodipodi:type="inkscape:persp3d" />
    <inkscape:perspective
       id="perspective3964"
       inkscape:persp3d-origin="0.5 : 0.33333333 : 1"
       inkscape:vp_z="1 : 0.5 : 1"
       inkscape:vp_y="0 : 1000 : 0"
       inkscape:vp_x="0 : 0.5 : 1"
       sodipodi:type="inkscape:persp3d" />
    <linearGradient
       id="linearGradient3942">
      <stop
         offset="0"
         style="stop-color:#ffffff;stop-opacity:0.52403843"
         id="stop3954" />
      <stop
         offset="0.15800984"
         style="stop-color:#ffffff;stop-opacity:0.21153846"
         id="stop3972" />
      <stop
         offset="0.15800984"
         style="stop-color:#ffffff;stop-opacity:0.50588232"
         id="stop4045" />
      <stop
         offset="0.15800984"
         style="stop-color:#ffffff;stop-opacity:0.79807693"
         id="stop3970" />
      <stop
         offset="0.23954181"
         style="stop-color:#ffffff;stop-opacity:0"
         id="stop3966" />
      <stop
         offset="0.27443427"
         style="stop-color:#ffffff;stop-opacity:0"
         id="stop3964" />
      <stop
         offset="0.27443427"
         style="stop-color:#ffffff;stop-opacity:0.40000001"
         id="stop4041" />
      <stop
         offset="0.27443427"
         style="stop-color:#ffffff;stop-opacity:0.80000001"
         id="stop3950" />
      <stop
         offset="0.36800274"
         style="stop-color:#ffffff;stop-opacity:0"
         id="stop3956" />
      <stop
         offset="0.53593075"
         style="stop-color:#ffffff;stop-opacity:1"
         id="stop3958" />
      <stop
         offset="0.53593075"
         style="stop-color:#ffffff;stop-opacity:0.12156863"
         id="stop3960" />
      <stop
         offset="1"
         style="stop-color:#ffffff;stop-opacity:0.59615386"
         id="stop3946" />
    </linearGradient>
    <linearGradient
       gradientTransform="translate(-458.94387,-308.1707)"
       gradientUnits="userSpaceOnUse"
       xlink:href="#linearGradient3942"
       id="linearGradient3948"
       y2="337.90433"
       x2="574.97729"
       y1="61.426544"
       x1="111.31528" />
  </defs>
  <sodipodi:namedview
     pagecolor="#086600"
     bordercolor="#666666"
     borderopacity="1"
     objecttolerance="10"
     gridtolerance="10"
     guidetolerance="10"
     inkscape:pageopacity="0"
     inkscape:pageshadow="2"
     inkscape:window-width="1721"
     inkscape:window-height="1057"
     id="namedview2862"
     showgrid="false"
     showguides="true"
     inkscape:zoom="5.5086513"
     inkscape:cx="-16.97367"
     inkscape:cy="61.544648"
     inkscape:window-x="1272"
     inkscape:window-y="-8"
     inkscape:window-maximized="1"
     inkscape:current-layer="svg2860"
     inkscape:guide-bbox="true" />
  <path
     inkscape:connector-curvature="0"
     d="m 52.873587,53.614948 0.131317,2.872598 -2.019021,-2.150343 1.231112,0.459614 z m -3.873901,3.381458 -1.183099,0.534609 1.442988,-2.036813 1.58678,2.658344 z m 13.302055,31.224719 c -0.429449,-1.392581 -0.86902,-2.781985 -1.325047,-4.166086 l -0.01735,-0.05208 0.0058,-0.05786 c 0.361343,-2.402651 0.643681,-4.81677 0.839004,-7.238576 0.166439,-2.063706 0.353216,-4.543696 0.410821,-6.67731 -0.431276,-2.810779 -1.114174,-5.708833 -1.874739,-8.390036 l 0.185158,-0.381889 c 0.01612,-0.03079 0.03085,-0.06164 0.04629,-0.09258 l 0.06942,-0.150441 c 1.155304,-2.514214 0.0885,-5.49624 -2.47072,-6.758319 -0.198972,-0.09812 -0.588503,-0.268036 -0.798499,-0.341386 l 0.266205,-0.624914 c 0.06262,0.02179 0.123336,0.04575 0.185158,0.06944 -1.337692,-2.025056 -2.900448,-3.903415 -4.65213,-5.583714 -2.523171,-2.420349 -5.435547,-4.433958 -8.592553,-5.936672 L 44.098301,41.60725 44.43969,41.208002 c 0.907905,-1.068283 1.858472,-2.101318 2.841041,-3.101419 0.910512,-0.926761 3.003053,-2.869971 3.003053,-2.869971 0,0 -5.017092,0.585788 -7.470025,1.168818 -1.788465,0.425093 -3.715207,0.807174 -5.485348,1.313473 -4.059154,1.161013 -7.915025,2.539269 -11.80391,4.166086 -5.608794,2.346303 -12.168909,6.789791 -13.748085,8.025504 1.618138,-1.398045 6.993426,-5.806399 13.35462,-8.586768 5.55483,-2.427916 11.462381,-4.221619 17.404984,-5.548995 3.225831,-0.72054 8.162166,-1.32226 9.830808,-1.296115 l -0.561265,0.543904 c -1.37114,1.156412 -2.689128,2.371598 -3.946212,3.651113 -0.833145,0.848017 -1.623008,1.735566 -2.401284,2.632737 -0.0226,0.02558 -0.01334,0.07186 0.01735,0.0868 3.022168,1.508065 5.819645,3.459823 8.256953,5.797803 2.150166,2.062546 4.022979,4.411104 5.55478,6.966622 2.411373,1.754861 3.179284,4.926924 1.845809,7.522102 0.834363,3.057333 1.728208,6.806533 2.210341,9.749799 0.472985,2.887448 0.630666,2.905885 0.630705,7.126912 4.4e-5,-4.221027 0.157721,-4.239464 0.630711,-7.126912 0.482131,-2.943266 1.375978,-6.692466 2.21034,-9.749799 -1.333476,-2.595178 -0.565563,-5.767241 1.845809,-7.522102 1.531801,-2.555518 3.40461,-4.904076 5.554781,-6.966622 2.437309,-2.33798 5.234786,-4.289738 8.256954,-5.797803 0.03069,-0.01493 0.03993,-0.06122 0.01735,-0.0868 -0.778276,-0.897171 -1.56814,-1.78472 -2.401289,-2.632737 -1.25708,-1.279515 -2.57507,-2.494701 -3.946208,-3.651113 l -0.561266,-0.543904 c 1.668644,-0.02614 6.604976,0.575575 9.830809,1.296115 5.942603,1.327376 11.85016,3.121079 17.404984,5.548995 6.36119,2.780369 11.73648,7.188723 13.35462,8.586768 -1.57917,-1.235713 -8.13929,-5.679201 -13.74808,-8.025504 -3.888889,-1.626817 -7.744758,-3.005073 -11.803915,-4.166086 -1.77014,-0.506299 -3.696883,-0.88838 -5.485348,-1.313473 -2.452932,-0.58303 -7.470025,-1.168818 -7.470025,-1.168818 0,0 2.092541,1.94321 3.003054,2.869971 0.982569,1.000101 1.933135,2.033136 2.84104,3.101419 l 0.341386,0.399248 -0.480254,0.231452 c -3.157005,1.502714 -6.069382,3.516323 -8.592559,5.936672 -1.751678,1.680299 -3.314432,3.558658 -4.652129,5.583714 0.06183,-0.02369 0.12254,-0.04764 0.185163,-0.06944 l 0.266164,0.624915 c -0.209996,0.07335 -0.599526,0.243265 -0.798498,0.341386 -2.559224,1.262079 -3.626024,4.244105 -2.47072,6.758319 l 0.06942,0.150441 c 0.01543,0.03095 0.03018,0.0618 0.04629,0.09258 l 0.185158,0.381889 c -0.760564,2.681203 -1.443463,5.579257 -1.87474,8.390036 0.05761,2.133614 0.244383,4.613604 0.410822,6.67731 0.195324,2.421806 0.477657,4.835925 0.839003,7.238576 l 0.0058,0.05786 -0.01735,0.05208 c -0.456029,1.384101 -0.895599,2.773505 -1.325047,4.166086 -0.500474,1.622893 -1.208081,4.233586 -1.672222,5.867239 -0.4641,-1.633654 -1.171708,-4.244347 -1.672179,-5.86724 z m 2.898901,-0.138867 c 0.42564,-1.380232 0.86756,-2.753665 1.319261,-4.125586 -0.358739,-2.394189 -0.638602,-4.796564 -0.833218,-7.209642 -0.116771,-1.447819 -0.202744,-2.899274 -0.26038,-4.351247 -0.767952,6.874286 -1.452346,18.80525 -1.452346,18.80525 0,0 -0.684392,-11.930964 -1.452345,-18.80525 -0.05763,1.451973 -0.143611,2.903428 -0.260379,4.351247 -0.194616,2.413078 -0.474478,4.815453 -0.833218,7.209642 0.451702,1.371921 0.89362,2.745354 1.319261,4.125586 0.407767,1.322262 0.843801,2.975452 1.226681,4.304954 0.382883,-1.329502 0.818917,-2.982692 1.226683,-4.304954 z M 48.646232,35.699505 c 0.08918,0.002 0.177127,0.0062 0.266168,0.01158 -3.010239,2.013044 -5.73675,4.446606 -8.07758,7.209646 -1.708381,2.01652 -3.212382,4.207006 -4.478542,6.526869 -0.611366,0.09148 -1.215321,0.222757 -1.81109,0.387677 -0.826725,0.228855 -1.636271,0.52672 -2.412858,0.891079 0.646872,-0.528418 1.354906,-0.983152 2.106188,-1.348192 0.506827,-0.24626 1.034761,-0.44933 1.573855,-0.613339 1.597565,-3.062923 3.665488,-5.879942 6.11026,-8.3206 1.786269,-1.783264 3.771062,-3.366347 5.907741,-4.709995 0.181413,-0.01828 0.361605,-0.03119 0.543907,-0.03472 0.08919,-0.0016 0.18277,-0.002 0.271951,0 z m -2.881542,0.468683 c -2.128408,1.280288 -4.144066,2.744687 -6.023467,4.368604 -2.361944,2.040874 -4.504242,4.335771 -6.376428,6.833541 -0.830109,0.164826 -1.654526,0.369438 -2.464934,0.613339 -1.109766,0.334002 -2.195668,0.743832 -3.251863,1.220895 0.685281,-0.511929 1.414275,-0.969857 2.175625,-1.359763 0.927799,-0.475145 1.905349,-0.85209 2.910473,-1.128317 1.754916,-2.34347 3.765977,-4.498934 5.982965,-6.411143 1.692441,-1.459772 3.50075,-2.778711 5.410126,-3.940424 0.162081,-0.04347 0.326592,-0.08067 0.491829,-0.109937 0.377967,-0.06694 0.761932,-0.09569 1.145674,-0.08679 z m -4.65213,1.006805 c -0.967661,0.45127 -1.906321,0.962274 -2.812109,1.527565 -2.097913,1.309286 -3.998498,2.907789 -5.844094,4.553764 -0.837495,0.746913 -1.665126,1.50489 -2.482292,2.27399 -1.022861,0.270647 -2.041688,0.568393 -3.049344,0.89108 -1.315522,0.421277 -2.615506,0.886199 -3.899922,1.394482 0.944835,-0.697073 1.960494,-1.300896 3.026199,-1.793733 1.145591,-0.52978 2.348718,-0.933628 3.581678,-1.203535 0.81562,-0.847586 1.669468,-1.658024 2.55173,-2.436004 1.302511,-1.14856 2.671361,-2.219251 4.096651,-3.211358 0.730957,-0.5088 1.475436,-0.996435 2.233486,-1.463917 0.366698,-0.109377 0.736922,-0.208513 1.110957,-0.289311 0.491404,-0.106152 0.987435,-0.187122 1.48706,-0.243023 z m -9.32162,2.684813 c -1.146074,0.610553 -2.267326,1.268462 -3.361799,1.967317 -1.014383,0.647718 -2.003908,1.328337 -2.968338,2.048327 -1.752067,0.632432 -3.484664,1.318631 -5.196034,2.054113 -1.741381,0.748376 -3.462614,1.548932 -5.155532,2.401284 1.857701,-1.367773 3.799786,-2.622383 5.809377,-3.755265 3.447855,-1.94368 7.097214,-3.526605 10.872326,-4.715776 z m 12.075865,2.007822 c 0.07072,0.05023 0.142268,0.101796 0.214093,0.150442 0.08447,0.0572 0.168654,0.112827 0.254593,0.167799 -0.787608,1.302276 -1.521786,2.635228 -2.19877,3.998288 -0.848444,1.708291 -1.60742,3.460985 -2.273986,5.248111 -0.74024,0.169321 -1.471877,0.375375 -2.192981,0.613339 -0.638058,0.21056 -1.267928,0.448936 -1.886314,0.711707 0.550973,-0.46951 1.167253,-0.867284 1.822663,-1.174604 0.561696,-0.263378 1.152189,-0.461236 1.759014,-0.590195 0.563567,-1.641264 1.235843,-3.248419 2.007822,-4.802573 0.740714,-1.491206 1.573036,-2.935077 2.493866,-4.322314 z m 2.436003,1.377123 c 0.06664,0.01198 0.12958,0.02033 0.196734,0.02893 0.130627,0.01676 0.261825,0.03089 0.393462,0.03472 -0.709255,1.580264 -1.357132,3.18453 -1.944172,4.814146 -0.587625,1.631236 -1.112099,3.287567 -1.573856,4.9588 -0.527556,0.07073 -1.051874,0.156189 -1.573855,0.26038 -0.664869,0.132715 -1.326977,0.294061 -1.978891,0.480257 0.452156,-0.341704 0.940315,-0.636544 1.452343,-0.879508 0.501894,-0.23815 1.02886,-0.427611 1.56807,-0.561264 0.389521,-1.476481 0.851782,-2.931163 1.382911,-4.362817 0.60357,-1.626926 1.297827,-3.223259 2.077254,-4.773641 z m 2.493866,1.296115 0.219878,0.156228 0.225663,0.156228 c -0.408576,1.556237 -0.807992,3.112785 -1.191964,4.675275 -0.393827,1.602597 -0.772046,3.211172 -1.139888,4.819932 -0.439467,0.02355 -0.878818,0.06987 -1.313475,0.138868 -0.654068,0.103817 -1.296872,0.258555 -1.926812,0.462898 0.366528,-0.31018 0.774364,-0.567462 1.215105,-0.757994 0.441617,-0.190911 0.916448,-0.315988 1.394482,-0.37032 0.347737,-1.509591 0.718962,-3.011842 1.122529,-4.507473 0.431535,-1.599266 0.899767,-3.192777 1.394482,-4.773642 z m -22.786177,2.904688 0.734851,0.115726 c -0.510906,3.337596 0.01619,6.829074 1.492849,9.865523 0.967617,1.989694 2.356039,3.767165 4.015645,5.230753 l 0,-0.786927 0,-1.614359 0.740636,0 0,1.614359 0,1.614358 0,0.769569 -0.601768,-0.480257 c -2.026167,-1.618321 -3.68585,-3.691477 -4.819933,-6.023465 -1.543856,-3.174611 -2.096432,-6.815823 -1.56228,-10.30528 z m 3.755265,1.377122 0.734851,0.06944 c -0.282894,3.07021 0.399679,6.22906 1.921027,8.910797 0.96009,1.692384 2.26105,3.180516 3.784196,4.391749 l 0,-0.850577 0,-1.614359 0.740637,0 0,1.614359 0,1.620145 0,0.717493 -0.590195,-0.416609 c -1.871707,-1.34235 -3.440394,-3.094292 -4.576909,-5.097669 -1.5976,-2.81615 -2.31068,-6.120672 -2.013607,-9.344765 z m 3.6974,1.811093 0.555479,0.09258 c 0.07541,2.340493 0.700789,4.18462 1.741654,5.982965 0.490468,0.847392 1.460102,2.068486 2.326066,2.939403 1.003552,1.00929 1.889158,1.61451 2.071469,1.631718 l 0,-0.786929 0,-1.463914 0.607555,0.01158 -0.01158,3.460168 C 39.061734,61.518516 36.658098,59.365765 35.366826,57.201147 34.199629,55.244528 33.510331,53.5382 33.463155,50.633776 Z m 4.293384,1.897881 c 0.930344,1.798945 2.086099,3.478843 3.437021,4.987731 0.846504,0.945491 1.7865,1.803682 2.771604,2.603806 0.01281,-0.847615 0.06116,-1.693366 0.167802,-2.53437 0.111772,-0.881452 0.272671,-1.758652 0.486043,-2.621163 l 0.723278,0.179373 c -0.206466,0.834585 -0.366317,1.681454 -0.474469,2.534371 -0.135388,1.067692 -0.194643,2.146892 -0.173588,3.222931 l 0.01735,0.763781 -0.607555,-0.462899 c -1.250469,-0.951124 -2.412201,-2.02349 -3.460165,-3.193998 -1.392794,-1.55566 -2.587781,-3.289259 -3.546962,-5.143961 l 0.659631,-0.335602 z m 19.59218,0.393466 -1.469704,3.286578 0.162014,-2.221911 -1.041522,-1.064667 z m -4.200803,0.05786 0.196729,4.29917 -2.817895,-2.968338 z m 1.660647,0.144658 0.08679,0.555478 c -0.241175,6.64e-4 -0.486201,0.01934 -0.723277,0.06364 -0.234865,0.04389 -0.465332,0.111543 -0.68856,0.196733 l -0.0405,-0.567053 c 0.186075,-0.05982 0.375582,-0.111178 0.56705,-0.150439 0.262895,-0.05391 0.530516,-0.08419 0.798502,-0.09837 z m -4.137156,1.753228 0.376106,0.445538 c -0.153438,0.129672 -0.299203,0.27341 -0.433967,0.422396 -0.166141,0.183669 -0.317608,0.381732 -0.451327,0.590194 L 49.84977,55.795086 c 0.0958,-0.155899 0.204442,-0.307051 0.32403,-0.445541 0.148926,-0.172473 0.317269,-0.329394 0.497614,-0.468683 z m -1.400268,5.224964 c 0.450338,1.401487 1.373191,2.647085 2.580661,3.489099 1.005595,0.70124 2.202229,1.121681 3.425446,1.203536 l 0,0.555478 c -1.205223,0.0148 -2.408357,-0.345086 -3.40809,-1.018377 -1.414791,-0.952822 -2.390516,-2.536676 -2.598017,-4.229736 z m 6.596305,2.331852 2.609589,2.545942 -0.0868,0.02894 -3.234502,7.423734 -2.927836,0.786927 1.180393,-0.914224 1.267185,-0.526547 2.927833,-6.503724 -1.365551,0.462898 0.572838,-1.174605 -0.920013,-2.042539 0.104155,1.215108 z m 4.403322,0.486044 0.27195,1.024163 -1.851591,8.633057 -3.18243,1.29033 0.931585,-0.93737 1.701152,-0.810073 z m -7.718834,2.360783 0.729066,0.237235 -4.05615,5.14396 -3.917277,0.879507 1.649076,-0.972087 1.86895,-0.58441 z m 3.257648,0.47447 -3.708975,5.890383 -3.275008,0.856363 1.197753,-0.833218 1.573855,-0.543905 3.384945,-5.369623 z m 5.473777,2.314493 0.405036,1.851594 -0.06365,2.997268 -2.569087,1.596999 0.914225,-1.19775 1.035736,-0.804286 z m 13.790969,-14.458521 -0.131317,2.872598 2.019024,-2.150343 -1.231114,0.459614 z m 4.227355,-17.915443 c -0.08919,0.002 -0.177128,0.0062 -0.266166,0.01157 3.010239,2.013044 5.736752,4.446606 8.077579,7.209646 1.708379,2.01652 3.212384,4.207006 4.478543,6.526869 0.611368,0.09148 1.215317,0.222757 1.811086,0.387677 0.826725,0.228855 1.636274,0.52672 2.412865,0.891079 -0.646869,-0.528418 -1.354909,-0.983152 -2.106196,-1.348191 -0.506821,-0.246261 -1.034759,-0.449331 -1.573853,-0.61334 -1.597561,-3.062923 -3.665487,-5.879942 -6.110259,-8.3206 -1.786269,-1.783264 -3.77106,-3.366347 -5.907737,-4.709995 -0.18142,-0.01828 -0.361606,-0.03119 -0.543912,-0.03472 -0.08918,-0.0016 -0.18277,-0.002 -0.271954,0 z m 2.881545,0.468683 c 2.128409,1.280288 4.144063,2.744687 6.023464,4.368604 2.361947,2.040874 4.504239,4.335771 6.376432,6.833541 0.830109,0.164826 1.654526,0.369438 2.464918,0.613339 1.109768,0.334003 2.195673,0.743832 3.251873,1.220895 -0.685286,-0.511929 -1.414279,-0.969857 -2.175628,-1.359762 -0.927803,-0.475146 -1.905347,-0.852091 -2.910467,-1.128318 -1.754914,-2.343469 -3.765979,-4.498934 -5.982967,-6.411143 -1.69244,-1.459772 -3.50075,-2.778711 -5.410127,-3.940424 -0.16208,-0.04348 -0.32659,-0.08067 -0.491829,-0.109937 -0.377965,-0.06694 -0.761931,-0.09569 -1.145672,-0.08679 z m 4.65213,1.006805 c 0.967659,0.451271 1.906321,0.962274 2.81211,1.527565 2.097911,1.309286 3.998492,2.907789 5.844095,4.553764 0.837497,0.746913 1.665113,1.50489 2.482278,2.27399 1.022864,0.270647 2.041694,0.568393 3.049354,0.89108 1.31552,0.421277 2.6155,0.8862 3.89991,1.394482 -0.94482,-0.697073 -1.96049,-1.300896 -3.0262,-1.793733 -1.14558,-0.52978 -2.34871,-0.933628 -3.58167,-1.203535 -0.815623,-0.847586 -1.669464,-1.658024 -2.551722,-2.436004 -1.302513,-1.14856 -2.671361,-2.219251 -4.096654,-3.211358 -0.730955,-0.5088 -1.475435,-0.996434 -2.233485,-1.463917 -0.366697,-0.109377 -0.736922,-0.208513 -1.110957,-0.28931 -0.491404,-0.106153 -0.987439,-0.187123 -1.487059,-0.243024 z m 9.321618,2.684813 c 1.146069,0.610554 2.267322,1.268462 3.361792,1.967317 1.014377,0.647718 2.003917,1.328337 2.968337,2.048327 1.75207,0.632432 3.48466,1.318631 5.19603,2.054113 1.74139,0.748376 3.46261,1.548932 5.15553,2.401284 -1.8577,-1.367773 -3.79978,-2.622383 -5.80938,-3.755264 -3.44784,-1.943681 -7.097205,-3.526606 -10.872309,-4.715777 z m -12.075863,2.007822 c -0.07072,0.05023 -0.142268,0.101796 -0.214092,0.150442 -0.08447,0.0572 -0.168655,0.112827 -0.254598,0.167799 0.787607,1.302276 1.521786,2.635228 2.198769,3.998288 0.848445,1.708291 1.607421,3.460985 2.273988,5.248111 0.74024,0.169321 1.471876,0.375375 2.192981,0.61334 0.638058,0.210559 1.267925,0.448935 1.886315,0.711706 C 91.61351,52.287803 90.997227,51.890029 90.341816,51.582709 89.78012,51.319331 89.189627,51.121473 88.582803,50.992514 88.019236,49.35125 87.34696,47.744095 86.57498,46.189942 85.834267,44.698735 85.001944,43.254864 84.081114,41.867627 Z m -2.436004,1.377123 c -0.06663,0.01198 -0.129586,0.02033 -0.196732,0.02893 -0.130628,0.01676 -0.261827,0.03089 -0.393466,0.03472 0.709259,1.580264 1.357135,3.18453 1.944176,4.814146 0.587622,1.631237 1.112095,3.287567 1.573854,4.9588 0.527557,0.07073 1.051875,0.156189 1.573856,0.26038 0.664867,0.132715 1.326974,0.294061 1.978891,0.480258 -0.452156,-0.341704 -0.940316,-0.636544 -1.452347,-0.879508 -0.501889,-0.23815 -1.028857,-0.427611 -1.568067,-0.561264 -0.389521,-1.476481 -0.851781,-2.931163 -1.382911,-4.362817 -0.603571,-1.626926 -1.297827,-3.223259 -2.077254,-4.773641 z m -2.493869,1.296115 -0.219874,0.156228 -0.225664,0.156228 c 0.408573,1.556237 0.807993,3.112785 1.191964,4.675276 0.393827,1.602596 0.772046,3.211171 1.139889,4.819931 0.439466,0.02355 0.878818,0.06987 1.313472,0.138868 0.654067,0.103817 1.296872,0.258555 1.926816,0.462898 -0.366529,-0.310179 -0.774366,-0.567461 -1.21511,-0.757993 -0.441614,-0.190911 -0.916444,-0.315988 -1.39448,-0.37032 -0.347735,-1.509591 -0.718961,-3.011842 -1.122531,-4.507473 -0.431532,-1.599266 -0.899765,-3.192777 -1.394479,-4.773642 z m 22.786165,2.904688 -0.73485,0.115726 c 0.51091,3.337596 -0.0162,6.829075 -1.492849,9.865524 -0.967612,1.989693 -2.356034,3.767164 -4.015629,5.230752 l 0,-0.786927 0,-1.614359 -0.740642,0 0,1.614359 0,1.614358 0,0.769569 0.601771,-0.480257 c 2.026156,-1.618321 3.685837,-3.691477 4.819919,-6.023465 1.54386,-3.174611 2.09644,-6.815822 1.56228,-10.30528 z m -3.755258,1.377122 -0.734858,0.06944 c 0.282898,3.07021 -0.399675,6.22906 -1.921019,8.910798 -0.960086,1.692383 -2.261048,3.180515 -3.784192,4.391748 l 0,-0.850577 0,-1.614359 -0.740636,0 0,1.614359 0,1.620145 0,0.717493 0.590197,-0.416608 c 1.871701,-1.342351 3.440391,-3.094293 4.576904,-5.09767 1.597593,-2.81615 2.310677,-6.120672 2.013604,-9.344765 z m -3.697395,1.811093 -0.555475,0.09258 c -0.07544,2.340493 -0.700789,4.18462 -1.741659,5.982965 -0.490465,0.847393 -1.460101,2.068486 -2.326065,2.939403 -1.003555,1.009291 -1.889157,1.61451 -2.071472,1.631718 l 0,-0.786929 0,-1.463914 -0.607551,0.01158 0.01158,3.460168 c 1.692073,-0.982819 4.095709,-3.13557 5.386983,-5.300187 1.16719,-1.95662 1.856494,-3.662947 1.903663,-6.567372 z m -4.293379,1.897881 c -0.930346,1.798945 -2.086103,3.478843 -3.437022,4.987731 -0.846503,0.945491 -1.786501,1.803682 -2.771605,2.603806 -0.01281,-0.847615 -0.06116,-1.693366 -0.167801,-2.53437 -0.111772,-0.881452 -0.27267,-1.758652 -0.486043,-2.621163 l -0.723281,0.179373 c 0.206468,0.834585 0.366319,1.681454 0.474472,2.534371 0.135388,1.067692 0.194642,2.146892 0.173587,3.222931 l -0.01735,0.763781 0.607555,-0.462899 c 1.250469,-0.951124 2.412202,-2.02349 3.460167,-3.193998 1.392793,-1.55566 2.587779,-3.289259 3.546961,-5.143961 l -0.659634,-0.335602 z m -19.592182,0.393466 1.469703,3.286578 -0.162013,-2.221911 1.041521,-1.064667 z m 4.200803,0.05786 -0.19673,4.29917 2.817893,-2.968338 z m -1.660648,0.144658 -0.08679,0.555478 c 0.241176,6.64e-4 0.486203,0.01934 0.723278,0.06364 0.234862,0.04389 0.465333,0.111543 0.688561,0.196733 l 0.0405,-0.567053 c -0.186074,-0.05982 -0.375581,-0.111178 -0.567052,-0.150439 -0.262891,-0.05391 -0.530512,-0.08419 -0.7985,-0.09837 z m 4.137159,1.753228 -0.376106,0.445538 c 0.153437,0.129672 0.299202,0.27341 0.433967,0.422396 0.16614,0.183669 0.317607,0.381732 0.451325,0.590194 l 0.312456,-0.543904 c -0.0958,-0.155899 -0.204443,-0.307051 -0.324029,-0.445541 -0.148931,-0.172473 -0.317269,-0.329394 -0.497613,-0.468683 z m 1.411837,0.613339 -1.586782,2.658344 1.846668,-1.15614 1.183103,0.53461 z m -0.01157,4.611625 c -0.450339,1.401488 -1.373192,2.647085 -2.580662,3.489099 -1.005596,0.701241 -2.20223,1.121681 -3.425447,1.203536 l 0,0.555479 c 1.20522,0.0148 2.408357,-0.345087 3.408087,-1.018378 1.414794,-0.952822 2.390518,-2.536676 2.598018,-4.229736 z m -6.596307,2.331853 -2.609588,2.545941 0.08679,0.02893 3.234503,7.423734 2.927836,0.786927 -1.180393,-0.914223 -1.267185,-0.526548 -2.927832,-6.503724 1.36555,0.462898 -0.572837,-1.174605 0.92001,-2.042539 -0.104152,1.215108 z m -4.403322,0.486043 -0.271953,1.024163 1.851594,8.633057 3.182427,1.29033 -0.931581,-0.93737 -1.701153,-0.810073 z m 7.718835,2.360783 -0.729066,0.237235 4.056151,5.14396 3.917276,0.879507 -1.649075,-0.972087 -1.868954,-0.58441 z m -3.257648,0.474471 3.708974,5.890382 3.275005,0.856363 -1.197749,-0.833218 -1.573856,-0.543905 -3.384946,-5.369622 z m -5.473778,2.314492 -0.405036,1.851594 0.06365,2.997268 2.569087,1.597 -0.914225,-1.197751 -1.035736,-0.804286 z m -7.464235,-23.197002 -0.08101,0 c 1.014267,0.793649 1.926515,1.794198 2.707958,2.817895 0.851172,1.115041 1.546862,2.351296 2.059899,3.656899 l 0.08679,0.219875 0.0868,-0.219875 c 0.513036,-1.305603 1.208726,-2.541858 2.059897,-3.656899 0.781445,-1.023697 1.693689,-2.024246 2.707955,-2.817895 l -0.081,0 c -1.555458,0.411472 -3.164676,0.53812 -4.773642,0.53812 -1.608963,0 -3.218181,-0.126648 -4.773637,-0.53812 z m -1.209324,-0.173588 0.549693,0.995232 c 1.486247,2.688209 2.726379,5.508656 3.708974,8.418969 0.618425,1.831697 1.136859,3.699776 1.544921,5.5895 l 0.179373,0.839004 0.179376,-0.839004 c 0.40806,-1.889724 0.926496,-3.757803 1.544922,-5.5895 0.982595,-2.910313 2.222727,-5.73076 3.708973,-8.418969 l 0.549695,-0.995232 -0.833219,0.769572 c -0.0151,0.01383 -0.02544,0.03237 -0.0405,0.04628 -1.170067,1.0805 -2.225096,2.28288 -3.130352,3.593251 -0.773403,1.119516 -1.428919,2.319754 -1.978891,3.564318 -0.549968,-1.244564 -1.205486,-2.444802 -1.978888,-3.564318 -0.905255,-1.310371 -1.960285,-2.512751 -3.130354,-3.593251 -0.01506,-0.0139 -0.02541,-0.03245 -0.0405,-0.04628 z m 1.463918,1.944176 c 0.810079,0.837591 1.576979,1.72035 2.239271,2.679024 0.834223,1.207553 1.537785,2.500477 2.106189,3.853632 l 0.173583,0.405036 0.173588,-0.405036 c 0.568399,-1.353155 1.271966,-2.646079 2.106189,-3.853632 0.662291,-0.958674 1.429191,-1.841433 2.239271,-2.679024 -1.233457,2.367082 -2.293872,4.819561 -3.14771,7.348514 -0.542183,1.605877 -0.989363,3.24382 -1.371338,4.895149 -0.38197,-1.651329 -0.82915,-3.289272 -1.371336,-4.895149 -0.853835,-2.528953 -1.91425,-4.981432 -3.147707,-7.348514 z m -5.485226,-4.062084 1.584564,1.151814 0.963604,1.046663 -0.702485,-1.222466 c 2.689016,0.497295 5.423968,0.8507 8.158586,0.8507 2.734624,0 5.469574,-0.353405 8.158586,-0.8507 l -0.701449,1.222466 0.993115,-1.013334 1.529234,-1.195951 -0.244755,0.09787 c -3.200653,1.002586 -6.434564,1.312898 -9.734731,1.312898 -3.300162,0 -6.534317,-0.310312 -9.734969,-1.312898 z M 62.267021,32.20189 c -4.328325,-0.01008 -8.656501,0.284875 -12.943798,0.879505 -4.248483,0.58925 -8.459042,1.472613 -12.585052,2.644308 0.576892,-0.615109 1.200174,-1.185777 1.863165,-1.706937 0.687148,-0.54015 1.418358,-1.0261 2.18141,-1.452344 -3.311857,0.828218 -6.5857,1.817751 -9.801877,2.962552 -3.273996,1.165378 -6.490783,2.492946 -9.634075,3.975139 l 4.848862,0 c -2.660711,1.193453 -5.209864,2.633009 -7.603108,4.299169 -3.165978,2.204134 -6.060823,4.802384 -8.5925525,7.713049 2.5584645,-1.504987 5.2017295,-2.865294 7.9155625,-4.067721 2.569883,-1.138647 5.202723,-2.137996 7.880847,-2.991482 -0.811127,0.657368 -1.588432,1.355762 -2.331848,2.088829 -0.802261,0.791087 -1.564862,1.623042 -2.279777,2.493865 l 3.251862,-1.261397 c -0.727623,3.6539 -0.184172,7.548631 1.52178,10.860755 0.857799,1.665428 2.000282,3.186002 3.3618,4.472758 l 0.214092,-1.816877 c 0.582405,0.68212 1.208226,1.331818 1.868951,1.938387 0.655557,0.601822 1.348351,1.159318 2.071472,1.678007 l 0.09258,-3.830484 c 0.564097,0.596384 1.171038,1.158206 1.811089,1.672221 0.607058,0.487513 1.244504,0.931617 1.909459,1.336618 l 0.162014,-3.766837 c 0.574428,0.577636 1.180874,1.122668 1.816875,1.631718 0.657428,0.526197 1.345538,1.012285 2.059898,1.45813 l 0.06944,-3.917277 c 0.597775,0.619384 1.227997,1.19977 1.8921,1.747439 0.631944,0.521155 1.29443,1.008161 1.978887,1.458132 -0.07977,-1.68894 0.01689,-3.382652 0.289314,-5.05138 0.148216,-0.907885 0.345696,-1.805397 0.59598,-2.690598 l 0.960516,-0.190944 -0.757998,2.655878 1.882937,-0.487642 -0.419019,0.591794 1.134099,0.23145 c -0.264142,0.876933 -0.338535,1.813617 -0.202514,2.719528 0.261153,1.739322 1.302906,3.34931 2.783175,4.299172 l -7.551032,7.59732 4.953014,-0.914223 -1.469703,2.221912 4.628985,-1.307689 -0.93737,2.007823 4.06772,-1.446558 -0.561263,1.845808 4.328099,-1.660648 -0.60755,2.175622 3.13035,-1.614358 -0.902654,10.334208 3.390734,11.780769 3.384945,-11.780769 -0.902655,-10.334208 3.136141,1.614358 -0.607556,-2.175622 4.322315,1.660648 -0.561264,-1.845808 4.067722,1.446558 -0.931584,-2.007823 4.628985,1.307689 -1.475489,-2.221912 4.9588,0.914223 -7.551031,-7.59732 c 1.480268,-0.949862 2.516236,-2.55985 2.777389,-4.299172 0.136301,-0.907763 0.06874,-1.846834 -0.196729,-2.725314 l 1.076237,-0.225664 -0.432019,-0.610145 1.953799,0.505993 -0.763785,-2.655878 0.960514,0.190944 c 0.250289,0.885201 0.447765,1.782713 0.595985,2.690598 0.27243,1.668728 0.374875,3.36244 0.295099,5.05138 0.684456,-0.449971 1.341159,-0.936977 1.973101,-1.458132 0.664104,-0.547669 1.300112,-1.128055 1.897886,-1.747439 l 0.06364,3.917277 c 0.714363,-0.445845 1.402472,-0.931933 2.059902,-1.45813 0.636,-0.50905 1.242447,-1.054082 1.816874,-1.631718 l 0.167802,3.766837 c 0.664951,-0.405001 1.302402,-0.849105 1.909454,-1.336618 0.640054,-0.514015 1.246997,-1.075837 1.811094,-1.672221 l 0.09258,3.830484 c 0.723119,-0.518689 1.415916,-1.076185 2.071469,-1.678007 0.660721,-0.606569 1.280754,-1.256267 1.863158,-1.938387 l 0.214091,1.816877 c 1.361521,-1.286756 2.504001,-2.80733 3.361801,-4.472758 1.70596,-3.312124 2.25519,-7.206855 1.52757,-10.860755 l 3.24607,1.261397 c -0.71491,-0.870823 -1.47173,-1.702778 -2.27398,-2.493865 -0.74342,-0.733067 -1.52651,-1.431461 -2.33764,-2.088829 2.67813,0.853486 5.31096,1.852835 7.88084,2.991482 2.71383,1.202427 5.3571,2.562734 7.91557,4.067721 -2.53174,-2.910665 -5.42079,-5.508915 -8.58677,-7.713049 -2.39325,-1.66616 -4.94239,-3.105716 -7.6031,-4.299169 l 4.84307,0 c -3.14329,-1.482193 -6.36008,-2.809761 -9.634078,-3.975139 -3.21617,-1.144801 -6.490012,-2.134334 -9.801868,-2.962552 0.763052,0.426244 1.494262,0.912194 2.181409,1.452344 0.662991,0.52116 1.286274,1.091828 1.863167,1.706937 -4.126011,-1.171695 -8.330784,-2.055058 -12.579268,-2.644308 -4.287298,-0.59463 -8.615475,-0.889587 -12.943801,-0.879505 1.259221,0.162255 2.508311,0.374948 3.749476,0.642271 1.297931,0.279548 3.209384,0.620267 4.575884,1.012591 l -2.591206,0 c 1.17628,0.704667 2.295328,1.505757 3.338657,2.395499 1.539629,1.312982 2.916552,2.813354 4.090867,4.461186 -0.788203,0.616356 -1.617286,1.188411 -2.476508,1.701152 -0.949529,0.566629 -1.937956,1.063071 -2.956765,1.492845 0.297454,-0.401314 0.588483,-0.806841 0.867935,-1.220894 0.193514,-0.286723 0.382392,-0.575426 0.567049,-0.867934 -3.54667,1.022171 -7.23916,1.541696 -10.930191,1.539138 -3.672842,-0.0026 -7.343129,-0.522003 -10.872326,-1.539138 0.184658,0.292508 0.373534,0.581211 0.567049,0.867934 0.279452,0.414053 0.564695,0.81958 0.862149,1.220894 -1.018808,-0.429774 -2.007235,-0.926216 -2.956763,-1.492845 -0.859222,-0.512741 -1.682518,-1.084796 -2.470723,-1.701152 1.174316,-1.647832 2.551238,-3.148204 4.090866,-4.461186 1.043333,-0.889742 2.156592,-1.690832 3.332869,-2.395499 l -2.585419,0 c 1.3665,-0.392324 3.272168,-0.733043 4.570099,-1.012591 1.241167,-0.267323 2.496045,-0.480016 3.755261,-0.642271 z"
     id="path4817"
     style="display:inline;opacity:0.9;fill:#000000;fill-opacity:1;fill-rule:evenodd;stroke:none" />
</svg>
