<?xml version="1.0" encoding="UTF-8" standalone="no"?>
<!-- Created with Inkscape (http://www.inkscape.org/) -->

<svg
   xmlns:dc="http://purl.org/dc/elements/1.1/"
   xmlns:cc="http://creativecommons.org/ns#"
   xmlns:rdf="http://www.w3.org/1999/02/22-rdf-syntax-ns#"
   xmlns:svg="http://www.w3.org/2000/svg"
   xmlns="http://www.w3.org/2000/svg"
   xmlns:xlink="http://www.w3.org/1999/xlink"
   xmlns:sodipodi="http://sodipodi.sourceforge.net/DTD/sodipodi-0.dtd"
   xmlns:inkscape="http://www.inkscape.org/namespaces/inkscape"
   id="svg2860"
   version="1.1"
   inkscape:version="0.92.1 r15371"
   width="136.53334"
   height="136.53334"
   sodipodi:docname="xan_st_romulan.svg"
   inkscape:export-filename="D:\dev\XansSciFiMashup\raw\flags\xan_st_klingon.png"
   inkscape:export-xdpi="90"
   inkscape:export-ydpi="90">
  <metadata
     id="metadata2866">
    <rdf:RDF>
      <cc:Work
         rdf:about="">
        <dc:format>image/svg+xml</dc:format>
        <dc:type
           rdf:resource="http://purl.org/dc/dcmitype/StillImage" />
        <dc:title />
      </cc:Work>
    </rdf:RDF>
  </metadata>
  <defs
     id="defs2864">
    <inkscape:perspective
       sodipodi:type="inkscape:persp3d"
       inkscape:vp_x="0 : 0.53333333 : 1"
       inkscape:vp_y="0 : 1066.6667 : 0"
       inkscape:vp_z="1.0666667 : 0.53333333 : 1"
       inkscape:persp3d-origin="0.53333333 : 0.35555555 : 1"
       id="perspective2868" />
    <inkscape:perspective
       id="perspective3654"
       inkscape:persp3d-origin="0.53333333 : 0.35555555 : 1"
       inkscape:vp_z="1.0666667 : 0.53333333 : 1"
       inkscape:vp_y="0 : 1066.6667 : 0"
       inkscape:vp_x="0 : 0.53333333 : 1"
       sodipodi:type="inkscape:persp3d" />
    <inkscape:perspective
       id="perspective3676"
       inkscape:persp3d-origin="0.53333333 : 0.35555555 : 1"
       inkscape:vp_z="1.0666667 : 0.53333333 : 1"
       inkscape:vp_y="0 : 1066.6667 : 0"
       inkscape:vp_x="0 : 0.53333333 : 1"
       sodipodi:type="inkscape:persp3d" />
    <inkscape:perspective
       id="perspective3714"
       inkscape:persp3d-origin="0.53333333 : 0.35555555 : 1"
       inkscape:vp_z="1.0666667 : 0.53333333 : 1"
       inkscape:vp_y="0 : 1066.6667 : 0"
       inkscape:vp_x="0 : 0.53333333 : 1"
       sodipodi:type="inkscape:persp3d" />
    <inkscape:perspective
       id="perspective3743"
       inkscape:persp3d-origin="0.53333333 : 0.35555555 : 1"
       inkscape:vp_z="1.0666667 : 0.53333333 : 1"
       inkscape:vp_y="0 : 1066.6667 : 0"
       inkscape:vp_x="0 : 0.53333333 : 1"
       sodipodi:type="inkscape:persp3d" />
    <inkscape:perspective
       id="perspective3773"
       inkscape:persp3d-origin="0.53333333 : 0.35555555 : 1"
       inkscape:vp_z="1.0666667 : 0.53333333 : 1"
       inkscape:vp_y="0 : 1066.6667 : 0"
       inkscape:vp_x="0 : 0.53333333 : 1"
       sodipodi:type="inkscape:persp3d" />
    <inkscape:perspective
       id="perspective3795"
       inkscape:persp3d-origin="0.53333333 : 0.35555555 : 1"
       inkscape:vp_z="1.0666667 : 0.53333333 : 1"
       inkscape:vp_y="0 : 1066.6667 : 0"
       inkscape:vp_x="0 : 0.53333333 : 1"
       sodipodi:type="inkscape:persp3d" />
    <inkscape:perspective
       id="perspective3830"
       inkscape:persp3d-origin="0.53333333 : 0.35555555 : 1"
       inkscape:vp_z="1.0666667 : 0.53333333 : 1"
       inkscape:vp_y="0 : 1066.6667 : 0"
       inkscape:vp_x="0 : 0.53333333 : 1"
       sodipodi:type="inkscape:persp3d" />
    <inkscape:perspective
       id="perspective3860"
       inkscape:persp3d-origin="0.53333333 : 0.35555555 : 1"
       inkscape:vp_z="1.0666667 : 0.53333333 : 1"
       inkscape:vp_y="0 : 1066.6667 : 0"
       inkscape:vp_x="0 : 0.53333333 : 1"
       sodipodi:type="inkscape:persp3d" />
    <inkscape:perspective
       id="perspective3887"
       inkscape:persp3d-origin="0.53333333 : 0.35555555 : 1"
       inkscape:vp_z="1.0666667 : 0.53333333 : 1"
       inkscape:vp_y="0 : 1066.6667 : 0"
       inkscape:vp_x="0 : 0.53333333 : 1"
       sodipodi:type="inkscape:persp3d" />
    <inkscape:perspective
       id="perspective3913"
       inkscape:persp3d-origin="0.53333333 : 0.35555555 : 1"
       inkscape:vp_z="1.0666667 : 0.53333333 : 1"
       inkscape:vp_y="0 : 1066.6667 : 0"
       inkscape:vp_x="0 : 0.53333333 : 1"
       sodipodi:type="inkscape:persp3d" />
    <inkscape:perspective
       id="perspective3964"
       inkscape:persp3d-origin="0.53333333 : 0.35555555 : 1"
       inkscape:vp_z="1.0666667 : 0.53333333 : 1"
       inkscape:vp_y="0 : 1066.6667 : 0"
       inkscape:vp_x="0 : 0.53333333 : 1"
       sodipodi:type="inkscape:persp3d" />
    <linearGradient
       id="linearGradient3942">
      <stop
         offset="0"
         style="stop-color:#ffffff;stop-opacity:0.52403843"
         id="stop3954" />
      <stop
         offset="0.15800984"
         style="stop-color:#ffffff;stop-opacity:0.21153846"
         id="stop3972" />
      <stop
         offset="0.15800984"
         style="stop-color:#ffffff;stop-opacity:0.50588232"
         id="stop4045" />
      <stop
         offset="0.15800984"
         style="stop-color:#ffffff;stop-opacity:0.79807693"
         id="stop3970" />
      <stop
         offset="0.23954181"
         style="stop-color:#ffffff;stop-opacity:0"
         id="stop3966" />
      <stop
         offset="0.27443427"
         style="stop-color:#ffffff;stop-opacity:0"
         id="stop3964" />
      <stop
         offset="0.27443427"
         style="stop-color:#ffffff;stop-opacity:0.40000001"
         id="stop4041" />
      <stop
         offset="0.27443427"
         style="stop-color:#ffffff;stop-opacity:0.80000001"
         id="stop3950" />
      <stop
         offset="0.36800274"
         style="stop-color:#ffffff;stop-opacity:0"
         id="stop3956" />
      <stop
         offset="0.53593075"
         style="stop-color:#ffffff;stop-opacity:1"
         id="stop3958" />
      <stop
         offset="0.53593075"
         style="stop-color:#ffffff;stop-opacity:0.12156863"
         id="stop3960" />
      <stop
         offset="1"
         style="stop-color:#ffffff;stop-opacity:0.59615386"
         id="stop3946" />
    </linearGradient>
    <linearGradient
       gradientTransform="translate(-458.94387,-308.1707)"
       gradientUnits="userSpaceOnUse"
       xlink:href="#linearGradient3942"
       id="linearGradient3948"
       y2="337.90433"
       x2="574.97729"
       y1="61.426544"
       x1="111.31528" />
  </defs>
  <sodipodi:namedview
     pagecolor="#086600"
     bordercolor="#666666"
     borderopacity="1"
     objecttolerance="10"
     gridtolerance="10"
     guidetolerance="10"
     inkscape:pageopacity="0"
     inkscape:pageshadow="2"
     inkscape:window-width="1697"
     inkscape:window-height="1057"
     id="namedview2862"
     showgrid="false"
     showguides="true"
     inkscape:zoom="5.5086513"
     inkscape:cx="-56.638551"
     inkscape:cy="61.544648"
     inkscape:window-x="-8"
     inkscape:window-y="837"
     inkscape:window-maximized="1"
     inkscape:current-layer="svg2860"
     inkscape:guide-bbox="true" />
  <path
     inkscape:connector-curvature="0"
     d="m 56.398493,57.189278 0.140071,3.064104 -2.153622,-2.293699 1.313186,0.490255 z m -4.132161,3.606888 -1.261973,0.57025 1.539188,-2.172601 1.692565,2.835567 z M 66.45519,94.102533 c -0.458079,-1.485419 -0.926954,-2.96745 -1.413383,-4.443825 l -0.01851,-0.05555 0.0062,-0.06172 c 0.385432,-2.562828 0.686593,-5.137888 0.894938,-7.721148 0.177534,-2.201286 0.376763,-4.846609 0.438209,-7.122464 -0.460028,-2.998164 -1.188453,-6.089422 -1.999722,-8.949372 l 0.197502,-0.407348 c 0.0172,-0.03284 0.03291,-0.06575 0.04938,-0.09875 l 0.07405,-0.16047 c 1.232324,-2.681828 0.0944,-5.862656 -2.635435,-7.208874 -0.212237,-0.104661 -0.627736,-0.285905 -0.851732,-0.364145 l 0.283952,-0.666575 c 0.06679,0.02324 0.131558,0.0488 0.197502,0.07407 -1.426872,-2.16006 -3.093811,-4.163643 -4.962272,-5.955962 -2.691383,-2.581706 -5.797917,-4.729555 -9.16539,-6.33245 l -0.512275,-0.246882 0.364148,-0.425865 c 0.968432,-1.139502 1.98237,-2.241406 3.030444,-3.30818 0.971213,-0.988545 3.203256,-3.061303 3.203256,-3.061303 0,0 -5.351565,0.624841 -7.968026,1.24674 -1.907696,0.453432 -3.962888,0.860985 -5.851038,1.401038 -4.329765,1.238413 -8.442694,2.708553 -12.590838,4.443825 -5.982713,2.502723 -12.980169,7.242443 -14.664624,8.560537 1.726014,-1.491248 7.459655,-6.193492 14.244928,-9.159219 5.925152,-2.589777 12.22654,-4.50306 18.565317,-5.918928 3.440886,-0.768576 8.70631,-1.410411 10.486195,-1.382523 l -0.598683,0.580165 c -1.462549,1.233506 -2.868403,2.529704 -4.209293,3.89452 -0.888688,0.904552 -1.731208,1.851271 -2.561369,2.808253 -0.02411,0.02728 -0.01423,0.07665 0.01851,0.09259 3.223646,1.608602 6.207622,3.690477 8.807417,6.184323 2.29351,2.200049 4.291178,4.705177 5.925099,7.431063 2.572131,1.871852 3.391236,5.255386 1.968863,8.023576 0.889987,3.261155 1.843421,7.260302 2.357697,10.399785 0.504517,3.079945 0.67271,3.099611 0.672752,7.60204 4.7e-5,-4.502429 0.168235,-4.522095 0.672758,-7.60204 0.514273,-3.139483 1.46771,-7.13863 2.357696,-10.399785 -1.422374,-2.76819 -0.603267,-6.151724 1.968863,-8.023576 1.633921,-2.725886 3.631584,-5.231014 5.9251,-7.431063 2.599796,-2.493846 5.583771,-4.575721 8.807417,-6.184323 0.03274,-0.01593 0.04259,-0.0653 0.01851,-0.09259 -0.830161,-0.956982 -1.672683,-1.903701 -2.561375,-2.808253 -1.340885,-1.364816 -2.746741,-2.661014 -4.209288,-3.89452 L 80.619956,36.77719 c 1.779887,-0.02788 7.045308,0.613947 10.486196,1.382523 6.338777,1.415868 12.640168,3.329151 18.565318,5.918928 6.78526,2.965727 12.51891,7.667971 14.24492,9.159219 -1.68444,-1.318094 -8.68191,-6.057814 -14.66462,-8.560537 -4.14814,-1.735272 -8.26107,-3.205412 -12.590835,-4.443825 -1.888149,-0.540053 -3.943342,-0.947606 -5.851038,-1.401038 -2.616461,-0.621899 -7.968027,-1.24674 -7.968027,-1.24674 0,0 2.232044,2.072758 3.203258,3.061303 1.048074,1.066774 2.062011,2.168678 3.030443,3.30818 l 0.364145,0.425865 -0.512271,0.246882 c -3.367472,1.602895 -6.474008,3.750744 -9.165396,6.33245 -1.868457,1.792319 -3.535395,3.795902 -4.962271,5.955962 0.06595,-0.02527 0.130709,-0.05082 0.197507,-0.07407 l 0.283908,0.666576 c -0.223996,0.07824 -0.639494,0.259483 -0.851731,0.364145 -2.729839,1.346218 -3.867759,4.527046 -2.635435,7.208874 l 0.07405,0.16047 c 0.01646,0.03301 0.03219,0.06592 0.04938,0.09875 l 0.197502,0.407349 c -0.811268,2.859949 -1.539694,5.951207 -1.999723,8.949371 0.06145,2.275855 0.260676,4.921178 0.438211,7.122464 0.208345,2.58326 0.5095,5.15832 0.894936,7.721148 l 0.0062,0.06172 -0.01851,0.05555 c -0.486431,1.476375 -0.955305,2.958406 -1.413383,4.443825 -0.533839,1.731086 -1.28862,4.515825 -1.783704,6.258386 -0.49504,-1.742562 -1.249822,-4.527301 -1.783657,-6.258387 z m 3.092161,-0.148124 c 0.454016,-1.472248 0.925398,-2.937243 1.407212,-4.400626 -0.382655,-2.553801 -0.681175,-5.116334 -0.888766,-7.690284 -0.124555,-1.544341 -0.21626,-3.092559 -0.277738,-4.64133 -0.819149,7.332571 -1.549169,20.058933 -1.549169,20.058933 0,0 -0.730019,-12.726362 -1.549168,-20.058933 -0.06147,1.548771 -0.153185,3.096989 -0.277738,4.64133 -0.20759,2.57395 -0.50611,5.136483 -0.888766,7.690284 0.481816,1.463383 0.953195,2.928378 1.407212,4.400626 0.434951,1.410412 0.900054,3.173815 1.30846,4.59195 0.408408,-1.418135 0.873511,-3.181538 1.308461,-4.59195 z M 51.889314,38.079472 c 0.09513,0.0021 0.188936,0.0066 0.283913,0.01235 -3.210922,2.147247 -6.1192,4.743046 -8.616086,7.690289 -1.822273,2.150955 -3.42654,4.487473 -4.777111,6.961994 -0.652124,0.09758 -1.296343,0.237607 -1.931829,0.413522 -0.88184,0.244112 -1.745356,0.561834 -2.573716,0.950484 0.689997,-0.563646 1.445233,-1.048695 2.246601,-1.438071 0.540615,-0.262678 1.103745,-0.479286 1.678779,-0.654229 1.704069,-3.267118 3.909853,-6.271938 6.51761,-8.875306 1.905354,-1.902149 4.022466,-3.59077 6.301591,-5.023995 0.193507,-0.0195 0.385712,-0.03327 0.580167,-0.03704 0.09514,-0.0017 0.194955,-0.0021 0.290081,0 z m -3.073645,0.499929 c -2.270302,1.36564 -4.420337,2.927666 -6.425031,4.659844 -2.519407,2.176932 -4.804525,4.624822 -6.801523,7.28911 -0.88545,0.175815 -1.764828,0.394067 -2.629263,0.654228 -1.183751,0.356269 -2.342046,0.793421 -3.468654,1.302288 0.730966,-0.546057 1.50856,-1.034514 2.320667,-1.450413 0.989652,-0.506822 2.032372,-0.908896 3.104504,-1.203539 1.87191,-2.499701 4.017042,-4.798862 6.381829,-6.838552 1.805271,-1.55709 3.734134,-2.963958 5.770801,-4.203119 0.172887,-0.04637 0.348365,-0.08605 0.524618,-0.117266 0.403165,-0.0714 0.812728,-0.102069 1.222052,-0.09258 z m -4.962272,1.073925 c -1.032171,0.481355 -2.033409,1.026425 -2.999583,1.629403 -2.237773,1.396571 -4.265064,3.101641 -6.2337,4.857348 -0.893328,0.796707 -1.776134,1.605216 -2.647778,2.425589 -1.091052,0.28869 -2.177801,0.606286 -3.252634,0.950485 -1.403223,0.449363 -2.789873,0.945279 -4.159916,1.487448 1.007824,-0.743545 2.091193,-1.387622 3.227945,-1.913315 1.221964,-0.565099 2.505299,-0.99587 3.820457,-1.283771 0.869994,-0.904092 1.780766,-1.768559 2.721845,-2.598404 1.389345,-1.225131 2.849452,-2.367201 4.369761,-3.425449 0.779688,-0.54272 1.573799,-1.062864 2.382385,-1.561511 0.391145,-0.116669 0.78605,-0.222414 1.185021,-0.308599 0.524164,-0.113228 1.053264,-0.199596 1.586197,-0.259224 z m -9.943061,2.8638 c -1.222479,0.651257 -2.418481,1.353027 -3.585919,2.098472 -1.082008,0.690899 -2.137502,1.416893 -3.166227,2.184882 -1.868872,0.674594 -3.716975,1.40654 -5.542436,2.191054 -1.857473,0.798268 -3.693455,1.652194 -5.499235,2.561369 1.981548,-1.458957 4.053106,-2.797208 6.196669,-4.005616 3.677712,-2.073258 7.570362,-3.761712 11.597148,-5.030161 z m 12.880923,2.141677 c 0.07543,0.05358 0.151752,0.108583 0.228366,0.160472 0.0901,0.06101 0.179897,0.120348 0.271565,0.178985 -0.840115,1.389095 -1.623238,2.81091 -2.345354,4.264841 -0.905007,1.822177 -1.714582,3.691717 -2.425585,5.597985 -0.78959,0.180609 -1.570002,0.4004 -2.33918,0.654228 -0.680595,0.224597 -1.352457,0.478865 -2.012068,0.759154 0.587704,-0.50081 1.24507,-0.925103 1.944174,-1.252911 0.599142,-0.280936 1.229001,-0.491985 1.876281,-0.629541 0.601138,-1.750682 1.318233,-3.46498 2.141677,-5.122745 0.790095,-1.590619 1.677905,-3.130748 2.660124,-4.610468 z m 2.598403,1.468931 c 0.07108,0.01278 0.138219,0.02169 0.209849,0.03086 0.139336,0.01788 0.27928,0.03295 0.419693,0.03703 -0.756538,1.685615 -1.447607,3.396832 -2.073783,5.135089 -0.6268,1.739985 -1.186239,3.506738 -1.67878,5.289386 -0.562726,0.07545 -1.121999,0.166602 -1.678779,0.277739 -0.709193,0.141563 -1.415442,0.313665 -2.110817,0.512274 0.4823,-0.364484 1.003003,-0.67898 1.549166,-0.938142 0.535354,-0.254026 1.097451,-0.456118 1.672608,-0.598681 0.415489,-1.574913 0.908568,-3.126574 1.475105,-4.653672 0.643808,-1.735387 1.384349,-3.438143 2.215738,-5.091883 z m 2.660124,1.382523 0.234536,0.166643 0.240707,0.166643 c -0.435814,1.659987 -0.861858,3.320304 -1.271428,4.98696 -0.420082,1.709437 -0.823516,3.425251 -1.21588,5.141261 -0.468765,0.02512 -0.937406,0.07453 -1.40104,0.148126 -0.697673,0.110738 -1.383331,0.275792 -2.055267,0.493758 0.390964,-0.330859 0.825989,-0.605293 1.296112,-0.808527 0.471059,-0.203638 0.977545,-0.337054 1.487448,-0.395008 0.370919,-1.61023 0.766893,-3.212631 1.197364,-4.807971 0.460304,-1.705884 0.959752,-3.405629 1.487448,-5.091885 z m -24.305256,3.098334 0.783841,0.123441 c -0.544966,3.560102 0.01727,7.284346 1.592372,10.523225 1.032125,2.12234 2.513109,4.018309 4.283355,5.579469 v -0.839388 -1.721983 h 0.790012 v 1.721983 1.721981 0.820874 L 34.552224,68.025919 C 32.390979,66.29971 30.620651,64.088343 29.410962,61.60089 27.764182,58.214638 27.174768,54.330678 27.74453,50.608591 Z m 4.005616,1.46893 0.783841,0.07407 c -0.301753,3.274891 0.426324,6.644331 2.049096,9.504851 1.024096,1.805209 2.411786,3.39255 4.036475,4.684532 v -0.907282 -1.721983 h 0.790013 v 1.721983 1.728154 0.765326 L 38.78003,67.482788 c -1.996488,-1.43184 -3.669754,-3.300578 -4.882036,-5.437513 -1.704107,-3.003894 -2.464726,-6.528717 -2.147848,-9.96775 z m 3.943893,1.931833 0.592511,0.09875 c 0.08044,2.496525 0.747509,4.463594 1.857765,6.381829 0.523166,0.903885 1.557442,2.206385 2.481137,3.135363 1.070455,1.076576 2.015102,1.722144 2.209567,1.740499 v -0.839391 -1.561508 l 0.648058,0.01235 -0.01235,3.690846 c -1.804875,-1.048346 -4.368754,-3.344613 -5.746111,-5.653539 -1.24501,-2.08706 -1.980261,-3.907144 -2.030582,-7.005196 z m 4.57961,2.024406 c 0.992367,1.918875 2.225172,3.710766 3.666156,5.320246 0.902937,1.008524 1.9056,1.923928 2.956377,2.777393 0.01366,-0.904122 0.06524,-1.806257 0.178989,-2.703328 0.119224,-0.940215 0.290849,-1.875895 0.518446,-2.795907 l 0.771497,0.191331 c -0.220231,0.890224 -0.390739,1.793551 -0.506101,2.70333 -0.144414,1.138871 -0.207619,2.290018 -0.18516,3.437793 l 0.01851,0.814699 -0.648058,-0.493759 c -1.333834,-1.014532 -2.573015,-2.158389 -3.690843,-3.406931 -1.485647,-1.65937 -2.7603,-3.508543 -3.783426,-5.486892 l 0.703606,-0.357975 z m 20.898325,0.419697 -1.567684,3.505683 0.172815,-2.370038 -1.110957,-1.135645 z m -4.480856,0.06172 0.209844,4.585782 -3.005755,-3.166227 z m 1.771357,0.154302 0.09258,0.59251 c -0.257254,7.08e-4 -0.518615,0.02063 -0.771496,0.06788 -0.250522,0.04682 -0.496354,0.118979 -0.734464,0.209848 l -0.0432,-0.604856 c 0.19848,-0.06381 0.400621,-0.11859 0.604854,-0.160468 0.280421,-0.0575 0.565883,-0.0898 0.851735,-0.104928 z m -4.412967,1.87011 0.40118,0.475241 c -0.163667,0.138316 -0.31915,0.291637 -0.462898,0.450555 -0.177217,0.195914 -0.338782,0.407181 -0.481416,0.629541 l -0.333286,-0.580165 c 0.102187,-0.166292 0.218071,-0.327521 0.345632,-0.475243 0.158854,-0.183972 0.33842,-0.351354 0.530788,-0.499929 z m -1.493619,5.573295 c 0.480361,1.49492 1.464737,2.823557 2.752705,3.721706 1.072635,0.747989 2.349044,1.196459 3.653809,1.283771 v 0.59251 c -1.285571,0.01579 -2.568914,-0.368091 -3.635296,-1.086269 -1.50911,-1.016343 -2.549884,-2.705787 -2.771218,-4.511718 z m 7.036059,2.487309 2.783561,2.715671 -0.09259,0.03087 -3.450136,7.918649 -3.123025,0.839389 1.259086,-0.975172 1.351664,-0.56165 3.123022,-6.937306 -1.456588,0.493758 0.611027,-1.252912 -0.981347,-2.178708 0.111099,1.296115 z m 4.696877,0.518447 0.29008,1.09244 -1.975031,9.208594 -3.394592,1.376352 0.993691,-0.999861 1.814562,-0.864078 z m -8.233423,2.518168 0.77767,0.253051 -4.32656,5.486891 -4.178429,0.93814 1.759015,-1.036892 1.993546,-0.623371 z m 3.474824,0.506102 -3.95624,6.283075 -3.493342,0.913454 1.277603,-0.888766 1.678779,-0.580165 3.610608,-5.727598 z m 5.838696,2.468792 0.432038,1.975034 -0.06789,3.197086 -2.74036,1.703465 0.975174,-1.2776 1.104785,-0.857905 z m 14.710367,-15.422422 -0.140072,3.064104 2.153626,-2.293699 -1.313189,0.490255 z m 4.509178,-19.109806 c -0.09514,0.0021 -0.188936,0.0066 -0.28391,0.01234 3.210921,2.147247 6.119202,4.743047 8.616084,7.690289 1.822271,2.150955 3.426543,4.487473 4.777113,6.961994 0.652125,0.09758 1.296338,0.237607 1.931825,0.413522 0.881841,0.244112 1.745361,0.561835 2.573721,0.950484 -0.68999,-0.563646 -1.44523,-1.048695 -2.246608,-1.43807 -0.540609,-0.262678 -1.103743,-0.479286 -1.678776,-0.654229 -1.704065,-3.267118 -3.909853,-6.271939 -6.51761,-8.875307 -1.905353,-1.902148 -4.022464,-3.59077 -6.301586,-5.023995 -0.193515,-0.0195 -0.385713,-0.03327 -0.580173,-0.03703 -0.09512,-0.0017 -0.194954,-0.0021 -0.290084,0 z m 3.073648,0.499928 c 2.270303,1.365641 4.420334,2.927667 6.425028,4.659845 2.519411,2.176932 4.804522,4.624822 6.801527,7.28911 0.88545,0.175815 1.76483,0.394067 2.62925,0.654228 1.18375,0.35627 2.34205,0.793421 3.46866,1.302288 -0.73097,-0.546057 -1.50856,-1.034514 -2.32067,-1.450412 -0.98966,-0.506823 -2.03237,-0.908897 -3.1045,-1.20354 -1.871905,-2.4997 -4.017041,-4.798863 -6.381828,-6.838552 -1.805269,-1.55709 -3.734133,-2.963959 -5.770802,-4.203119 -0.172886,-0.04638 -0.348363,-0.08605 -0.524618,-0.117266 -0.403163,-0.0714 -0.812726,-0.10207 -1.22205,-0.09258 z m 4.962272,1.073926 c 1.03217,0.481356 2.033409,1.026425 2.999584,1.629402 2.237772,1.396572 4.265058,3.101642 6.233699,4.857349 0.89333,0.796707 1.77612,1.605216 2.64777,2.425589 1.09105,0.28869 2.1778,0.606286 3.25264,0.950485 1.40322,0.449363 2.78987,0.94528 4.1599,1.487448 -1.0078,-0.743545 -2.09119,-1.387623 -3.22794,-1.913315 -1.22195,-0.565099 -2.50529,-0.99587 -3.82045,-1.283771 -0.87,-0.904092 -1.78076,-1.768559 -2.72184,-2.598404 -1.38934,-1.225131 -2.849449,-2.367201 -4.369762,-3.425449 -0.779685,-0.54272 -1.573797,-1.062863 -2.382384,-1.561511 -0.391143,-0.116669 -0.78605,-0.222414 -1.185021,-0.308598 -0.524164,-0.113229 -1.053268,-0.199597 -1.586196,-0.259225 z m 9.943063,2.8638 c 1.22247,0.651258 2.41847,1.353026 3.58591,2.098472 1.082,0.690899 2.13751,1.416893 3.16622,2.184882 1.86888,0.674594 3.71697,1.40654 5.54244,2.191054 1.85748,0.798268 3.69345,1.652194 5.49923,2.561369 -1.98155,-1.458957 -4.0531,-2.797208 -6.19667,-4.005615 -3.6777,-2.073259 -7.57036,-3.761713 -11.59713,-5.030162 z m -12.880924,2.141677 c -0.07543,0.05358 -0.151753,0.108583 -0.228365,0.160472 -0.0901,0.06101 -0.179899,0.120348 -0.271571,0.178985 0.840114,1.389095 1.623238,2.81091 2.345353,4.264841 0.905008,1.822177 1.714583,3.691717 2.425588,5.597985 0.789589,0.180609 1.570001,0.4004 2.339179,0.654229 0.680596,0.224596 1.352454,0.478864 2.01207,0.759153 -0.587703,-0.50081 -1.245071,-0.925103 -1.944176,-1.252911 -0.599143,-0.280936 -1.229002,-0.491985 -1.876281,-0.629541 -0.601138,-1.750682 -1.318232,-3.46498 -2.141678,-5.122744 -0.790094,-1.59062 -1.677905,-3.130749 -2.660123,-4.610469 z m -2.598404,1.468931 c -0.07107,0.01278 -0.138225,0.02169 -0.209848,0.03086 -0.139336,0.01788 -0.279282,0.03295 -0.419697,0.03704 0.756543,1.685615 1.447611,3.396832 2.073788,5.135089 0.626797,1.739986 1.186234,3.506738 1.678777,5.289386 0.562728,0.07545 1.122,0.166602 1.67878,0.277739 0.709192,0.141563 1.415439,0.313665 2.110817,0.512275 -0.4823,-0.364484 -1.003004,-0.67898 -1.54917,-0.938142 -0.535348,-0.254035 -1.097447,-0.456127 -1.672605,-0.59869 C 90.363475,54.29838 89.870398,52.746719 89.303859,51.219621 88.66005,49.484234 87.91951,47.781478 87.088122,46.127738 Z m -2.660127,1.382523 -0.234533,0.166643 -0.240708,0.166643 c 0.435811,1.659987 0.861859,3.320304 1.271428,4.986961 0.420083,1.709436 0.823516,3.42525 1.215882,5.14126 0.468764,0.02512 0.937406,0.07453 1.401037,0.148126 0.697671,0.110738 1.38333,0.275792 2.05527,0.493758 -0.390964,-0.330858 -0.82599,-0.605292 -1.296117,-0.808526 -0.471055,-0.203638 -0.97754,-0.337054 -1.487445,-0.395008 -0.370918,-1.61023 -0.766892,-3.212631 -1.197367,-4.807971 -0.460301,-1.705884 -0.959749,-3.405629 -1.487444,-5.091885 z m 24.305245,3.098334 -0.78384,0.123441 c 0.54497,3.560102 -0.0173,7.284347 -1.59237,10.523226 -1.03212,2.122339 -2.51311,4.018308 -4.28334,5.579468 V 65.99534 64.273357 h -0.79002 v 1.721983 1.721981 0.820874 l 0.64189,-0.512274 c 2.16123,-1.726209 3.93156,-3.937576 5.14125,-6.425029 1.64678,-3.386252 2.2362,-7.270211 1.66643,-10.992299 z m -4.00561,1.46893 -0.78385,0.07407 c 0.30176,3.274891 -0.42632,6.644331 -2.04909,9.504852 -1.02409,1.805208 -2.411781,3.392549 -4.036468,4.684531 V 65.43369 63.711707 H 97.06821 v 1.721983 1.728154 0.765326 l 0.629544,-0.444382 c 1.996481,-1.431841 3.669746,-3.300579 4.882026,-5.437514 1.7041,-3.003894 2.46473,-6.528717 2.14785,-9.96775 z m -3.94389,1.931833 -0.59251,0.09875 c -0.0805,2.496525 -0.747504,4.463594 -1.857765,6.381829 -0.523163,0.903886 -1.557442,2.206385 -2.481136,3.135363 -1.070459,1.076577 -2.015101,1.722144 -2.209571,1.740499 v -0.839391 -1.561508 l -0.648054,0.01235 0.01235,3.690846 c 1.804878,-1.04834 4.368756,-3.344608 5.746115,-5.653533 1.245003,-2.087061 1.980261,-3.907143 2.030581,-7.005197 z m -4.579603,2.024406 c -0.99237,1.918875 -2.225177,3.710766 -3.666157,5.320246 -0.902937,1.008524 -1.905601,1.923928 -2.956379,2.777393 -0.01366,-0.904122 -0.06524,-1.806257 -0.178988,-2.703328 -0.119223,-0.940215 -0.290848,-1.875895 -0.518446,-2.795907 l -0.771499,0.191331 c 0.220232,0.890224 0.39074,1.793551 0.506103,2.703329 0.144414,1.138872 0.207618,2.290019 0.18516,3.437794 l -0.01851,0.814699 0.648059,-0.493759 c 1.333833,-1.014532 2.573015,-2.158389 3.690844,-3.406931 1.485646,-1.659371 2.760298,-3.508543 3.783426,-5.486892 l -0.70361,-0.357975 z m -20.898328,0.419697 1.567683,3.505683 -0.172814,-2.370038 1.110956,-1.135645 z m 4.480857,0.06172 -0.209846,4.585782 3.005753,-3.166228 z m -1.771358,0.154302 -0.09258,0.59251 c 0.257254,7.08e-4 0.518616,0.02063 0.771496,0.06788 0.25052,0.04682 0.496355,0.118979 0.734465,0.209848 l 0.0432,-0.604856 c -0.198479,-0.06381 -0.400619,-0.11859 -0.604855,-0.160469 -0.280417,-0.0575 -0.56588,-0.0898 -0.851733,-0.104928 z m 4.412969,1.87011 -0.401179,0.475241 c 0.163666,0.138316 0.319148,0.291637 0.462898,0.450555 0.177216,0.195914 0.338781,0.407181 0.481413,0.629541 l 0.333286,-0.580165 c -0.102186,-0.166292 -0.218072,-0.327521 -0.34563,-0.475243 -0.15886,-0.183972 -0.338421,-0.351354 -0.530788,-0.499929 z m 1.50596,0.654228 -1.692568,2.835567 1.96978,-1.233216 1.261976,0.570251 z m -0.01234,4.919067 c -0.480361,1.494921 -1.464738,2.823557 -2.752706,3.721706 -1.072635,0.74799 -2.349045,1.196459 -3.65381,1.283771 v 0.592511 c 1.285568,0.01579 2.568914,-0.368093 3.635293,-1.08627 1.509114,-1.016343 2.549886,-2.705787 2.771219,-4.511718 z m -7.03606,2.48731 -2.783561,2.71567 0.09258,0.03086 3.450137,7.91865 3.123025,0.839388 -1.259086,-0.975171 -1.351664,-0.561651 -3.123021,-6.937306 1.456587,0.493758 -0.611026,-1.252912 0.981344,-2.178708 -0.111096,1.296115 z m -4.696877,0.518446 -0.290083,1.09244 1.975033,9.208594 3.394589,1.376352 -0.993686,-0.999861 -1.814564,-0.864078 z m 8.233424,2.518168 -0.777671,0.253051 4.326562,5.486891 4.178427,0.93814 L 86.390689,75.278 84.397138,74.654629 Z m -3.474825,0.506103 3.956239,6.283074 3.493339,0.913454 -1.277599,-0.888766 -1.67878,-0.580166 -3.610609,-5.727596 z m -5.838696,2.468791 -0.432039,1.975034 0.06789,3.197086 2.740359,1.703466 L 72.5099,78.209689 71.405115,77.351784 Z M 63.14701,47.868229 H 63.0606 c 1.081885,0.846559 2.05495,1.913812 2.888489,3.005755 0.907917,1.189377 1.649986,2.508049 2.197226,3.900692 l 0.09258,0.234534 0.09259,-0.234534 c 0.547239,-1.392643 1.289308,-2.711315 2.197224,-3.900692 0.833541,-1.091943 1.806601,-2.159196 2.888485,-3.005755 h -0.0864 c -1.659155,0.438904 -3.375654,0.573995 -5.091885,0.573995 -1.716227,0 -3.432726,-0.135091 -5.091879,-0.573995 z m -1.289945,-0.18516 0.586339,1.061581 c 1.58533,2.867423 2.908137,5.875899 3.956239,8.980233 0.659653,1.95381 1.212649,3.946428 1.647915,5.962134 l 0.191332,0.894937 0.191334,-0.894937 c 0.435264,-2.015706 0.988262,-4.008324 1.647917,-5.962134 1.048101,-3.104334 2.370909,-6.11281 3.956238,-8.980233 l 0.586341,-1.061581 -0.888767,0.820877 c -0.01611,0.01475 -0.02714,0.03453 -0.0432,0.04937 -1.248071,1.152533 -2.373436,2.435072 -3.339042,3.832801 -0.824963,1.19415 -1.52418,2.474404 -2.110817,3.801939 -0.586633,-1.327535 -1.285852,-2.607789 -2.110814,-3.801939 -0.965605,-1.397729 -2.090971,-2.680268 -3.339044,-3.832801 -0.01606,-0.01483 -0.0271,-0.03461 -0.0432,-0.04937 z m 1.561512,2.073788 c 0.864084,0.89343 1.682111,1.83504 2.388556,2.857625 0.889838,1.288057 1.640304,2.667176 2.246601,4.110541 l 0.185156,0.432038 0.18516,-0.432038 c 0.606292,-1.443365 1.356764,-2.822484 2.246602,-4.110541 0.706443,-1.022585 1.52447,-1.964195 2.388555,-2.857625 -1.315687,2.524887 -2.446796,5.140865 -3.357557,7.838414 -0.578328,1.712936 -1.05532,3.460075 -1.46276,5.221493 -0.407435,-1.761418 -0.884427,-3.508557 -1.462759,-5.221493 -0.910757,-2.697549 -2.041866,-5.313527 -3.357554,-7.838414 z m -5.850908,-4.33289 1.690202,1.228602 1.027844,1.11644 -0.749317,-1.303964 c 2.868284,0.530448 5.785566,0.907414 8.702492,0.907414 2.916932,0 5.834212,-0.376966 8.702491,-0.907414 l -0.748212,1.303964 1.059323,-1.08089 1.631183,-1.275681 -0.261072,0.104395 c -3.41403,1.069425 -6.863535,1.400425 -10.383713,1.400425 -3.520173,0 -6.969939,-0.331 -10.383967,-1.400425 z m 8.850487,-11.075284 c -4.61688,-0.01075 -9.233601,0.303866 -13.806718,0.938138 -4.531715,0.628534 -9.022978,1.570788 -13.424056,2.820596 0.615352,-0.656117 1.280186,-1.264829 1.987376,-1.820733 0.732958,-0.57616 1.512916,-1.094507 2.326838,-1.549167 -3.532648,0.883432 -7.024747,1.938934 -10.455336,3.160055 -3.492262,1.24307 -6.923502,2.659143 -10.276346,4.240149 h 5.172119 c -2.838092,1.273016 -5.557188,2.808542 -8.109982,4.58578 -3.377043,2.351076 -6.464878,5.122543 -9.165389,8.227252 2.729029,-1.605319 5.548511,-3.056314 8.443267,-4.338902 2.741208,-1.214557 5.549571,-2.280529 8.406236,-3.190914 -0.865202,0.701192 -1.694327,1.446146 -2.487304,2.228084 -0.855745,0.843826 -1.669186,1.731245 -2.431762,2.660122 l 3.468652,-1.34549 c -0.776131,3.897494 -0.19645,8.051873 1.623232,11.584806 0.914986,1.776456 2.133635,3.398402 3.58592,4.770942 l 0.228365,-1.938003 c 0.621232,0.727595 1.288775,1.420606 1.993548,2.067613 0.699261,0.641944 1.438241,1.236606 2.20957,1.789874 l 0.09875,-4.085849 c 0.601704,0.636143 1.249107,1.235419 1.931828,1.783702 0.647529,0.520014 1.327471,0.993725 2.036757,1.425726 l 0.172815,-4.017959 c 0.612723,0.616145 1.259599,1.197512 1.938,1.740499 0.701256,0.561277 1.43524,1.07977 2.197224,1.555338 l 0.07407,-4.178428 c 0.637627,0.660676 1.309864,1.279754 2.01824,1.863935 0.674074,0.555898 1.380726,1.075371 2.110813,1.55534 -0.08509,-1.801536 0.01802,-3.608162 0.308602,-5.388138 0.158097,-0.968411 0.368742,-1.925757 0.635712,-2.869972 l 1.02455,-0.203673 -0.808531,2.832936 2.008466,-0.520151 -0.446953,0.631247 1.209705,0.24688 c -0.281751,0.935395 -0.361104,1.934525 -0.216015,2.90083 0.278563,1.855277 1.389767,3.572597 2.96872,4.585783 l -8.054434,8.103808 5.283215,-0.975171 -1.567683,2.370039 4.937584,-1.394868 -0.999861,2.141678 4.338901,-1.542995 -0.598681,1.968862 4.616639,-1.771358 -0.648053,2.320663 3.33904,-1.721982 -0.962831,11.023156 3.616783,12.566157 3.610608,-12.566157 -0.962832,-11.023156 3.345217,1.721982 -0.64806,-2.320663 4.61047,1.771358 -0.598682,-1.968862 4.338903,1.542995 -0.993689,-2.141678 4.937584,1.394868 -1.573855,-2.370039 5.289387,0.975171 -8.054433,-8.103808 c 1.578952,-1.013186 2.683985,-2.730506 2.962548,-4.585783 0.145388,-0.968281 0.07332,-1.969957 -0.209844,-2.907002 l 1.147986,-0.240708 -0.460821,-0.650821 2.084053,0.539725 -0.814704,-2.832936 1.024548,0.203673 c 0.266975,0.944215 0.477616,1.901561 0.635717,2.869972 0.290592,1.779976 0.399867,3.586602 0.314773,5.388138 0.730086,-0.479969 1.430569,-0.999442 2.104641,-1.55534 0.708377,-0.584181 1.386786,-1.203259 2.024411,-1.863935 l 0.06788,4.178428 c 0.761987,-0.475568 1.49597,-0.994061 2.197229,-1.555338 0.6784,-0.542987 1.325277,-1.124354 1.937999,-1.740499 l 0.178989,4.017959 c 0.709281,-0.432001 1.389228,-0.905712 2.03675,-1.425726 0.682725,-0.548283 1.330139,-1.147559 1.931839,-1.783702 l 0.0987,4.085849 c 0.77133,-0.553268 1.51031,-1.14793 2.20957,-1.789874 0.70477,-0.647007 1.36614,-1.340018 1.98737,-2.067613 l 0.22836,1.938003 c 1.45229,-1.37254 2.67093,-2.994486 3.58592,-4.770942 1.81969,-3.532933 2.40554,-7.687312 1.62941,-11.584806 l 3.46247,1.34549 c -0.76257,-0.928877 -1.56984,-1.816296 -2.42557,-2.660122 -0.79299,-0.781938 -1.62828,-1.526892 -2.49349,-2.228084 2.85667,0.910385 5.66503,1.976357 8.40623,3.190914 2.89475,1.282588 5.71424,2.733583 8.44328,4.338902 -2.70053,-3.104709 -5.78218,-5.876176 -9.15922,-8.227252 -2.5528,-1.777238 -5.27189,-3.312764 -8.10998,-4.58578 h 5.16594 c -3.35284,-1.581006 -6.78408,-2.997079 -10.27635,-4.240149 -3.43058,-1.221121 -6.92268,-2.276623 -10.455326,-3.160055 0.813922,0.45466 1.593879,0.973007 2.326836,1.549167 0.70719,0.555904 1.372025,1.164616 1.987378,1.820733 -4.401078,-1.249808 -8.88617,-2.192062 -13.417886,-2.820596 -4.573118,-0.634272 -9.18984,-0.948892 -13.806721,-0.938138 1.343169,0.173072 2.675532,0.399944 3.999441,0.685089 1.38446,0.298184 3.423343,0.661618 4.880943,1.080097 h -2.763953 c 1.254699,0.751645 2.44835,1.606141 3.561234,2.555199 1.642271,1.400514 3.110989,3.000911 4.363592,4.758598 -0.84075,0.657447 -1.725105,1.267639 -2.641609,1.814562 -1.012831,0.604405 -2.067153,1.133943 -3.153883,1.592368 0.317285,-0.428068 0.627716,-0.86063 0.925798,-1.302287 0.206415,-0.305838 0.407885,-0.613787 0.604852,-0.925796 -3.783115,1.090316 -7.721771,1.644476 -11.65887,1.641747 -3.917699,-0.0028 -7.832671,-0.556803 -11.597148,-1.641747 0.196968,0.312009 0.398436,0.619958 0.604852,0.925796 0.298082,0.441657 0.602341,0.874219 0.919626,1.302287 -1.086729,-0.458425 -2.141051,-0.987963 -3.153881,-1.592368 -0.916503,-0.546923 -1.794686,-1.157115 -2.635438,-1.814562 1.252604,-1.757687 2.721321,-3.358084 4.363591,-4.758598 1.112888,-0.949058 2.300365,-1.803554 3.55506,-2.555199 h -2.75778 c 1.4576,-0.418479 3.490312,-0.781913 4.874772,-1.080097 1.323911,-0.285145 2.662448,-0.512017 4.005612,-0.685089 z"
     id="path4817"
     style="display:inline;opacity:0.9;fill:#000000;fill-opacity:1;fill-rule:evenodd;stroke:none;stroke-width:1.06666672" />
</svg>
