<?xml version="1.0" encoding="UTF-8" standalone="no"?>
<!-- Creator: CorelDRAW X5 -->

<svg
   xmlns:dc="http://purl.org/dc/elements/1.1/"
   xmlns:cc="http://creativecommons.org/ns#"
   xmlns:rdf="http://www.w3.org/1999/02/22-rdf-syntax-ns#"
   xmlns:svg="http://www.w3.org/2000/svg"
   xmlns="http://www.w3.org/2000/svg"
   xmlns:sodipodi="http://sodipodi.sourceforge.net/DTD/sodipodi-0.dtd"
   xmlns:inkscape="http://www.inkscape.org/namespaces/inkscape"
   xml:space="preserve"
   width="24"
   height="24"
   style="fill-rule:evenodd"
   viewBox="0 0 677.33332 677.33338"
   id="svg2"
   version="1.1"
   inkscape:version="0.91 r13725"
   sodipodi:docname="xan_w4_ork.svg"
   inkscape:export-filename="D:\dev\XansSciFiMashup\raw\flags\small\xan_w4_ork.png"
   inkscape:export-xdpi="90"
   inkscape:export-ydpi="90"><metadata
     id="metadata21"><rdf:RDF><cc:Work
         rdf:about=""><dc:format>image/svg+xml</dc:format><dc:type
           rdf:resource="http://purl.org/dc/dcmitype/StillImage" /><dc:title></dc:title></cc:Work></rdf:RDF></metadata><sodipodi:namedview
     pagecolor="#008203"
     bordercolor="#666666"
     borderopacity="1"
     objecttolerance="10"
     gridtolerance="10"
     guidetolerance="10"
     inkscape:pageopacity="0"
     inkscape:pageshadow="2"
     inkscape:window-width="1920"
     inkscape:window-height="1017"
     id="namedview19"
     showgrid="false"
     inkscape:zoom="24.193924"
     inkscape:cx="12.38656"
     inkscape:cy="12.16135"
     inkscape:window-x="1272"
     inkscape:window-y="-8"
     inkscape:window-maximized="1"
     inkscape:current-layer="svg2" /><defs
     id="defs4"><style
       type="text/css"
       id="style6">
   
    .fil1 {fill:#CFD3CD;fill-rule:nonzero}
    .fil0 {fill:url(#id0)}
   
  </style></defs><path
     style="fill:#000000"
     d="m 314.72756,547.04457 -10.14699,-42.03656 -18.22906,21.19254 -18.22906,21.19254 0,-91.41815 0,-91.41814 -42.55089,-33.95372 c -37.93552,-30.2709 -42.55087,-37.09128 -42.55087,-62.87962 0,-27.23566 2.96454,-30.78462 50.7342,-60.73612 27.90382,-17.49564 54.15675,-31.81027 58.33978,-31.81027 4.18306,0 33.89811,14.17705 66.03343,31.50453 49.52039,26.70155 62.89965,30.749 87.75994,26.54889 l 29.33201,-4.95562 13.1155,58.95157 c 15.23105,68.46082 9.58084,83.50501 -29.9563,79.76086 l -23.92152,-2.26537 -2.19586,83.16764 c -2.1921,83.02442 -9.33527,102.09123 -23.18721,61.89219 -7.28192,-21.1325 -7.39864,-21.04151 -17.36916,13.53893 l -10.03793,34.81437 -9.45328,-30.94612 c -9.28338,-30.39001 -9.59281,-30.59854 -17.22025,-11.6048 -4.27185,10.63771 -12.7963,31.52637 -18.94322,46.41915 l -11.17625,27.07784 -10.14701,-42.03656 z m 61.70623,-170.71786 c 0,-8.51017 -3.48144,-15.47306 -7.73654,-15.47306 -4.25507,0 -7.73651,1.456 -7.73651,3.23551 0,1.77954 -2.1132,8.74242 -4.69598,15.47305 -3.08157,8.03039 -0.42179,12.23757 7.73651,12.23757 7.27485,0 12.43252,-6.4191 12.43252,-15.47307 z m -20.69691,-37.18467 c 11.43118,-12.63132 11.50429,-15.60701 0.76035,-30.94612 -9.7611,-13.93592 -19.41818,-16.97098 -53.9991,-16.97098 -36.68382,0 -42.11222,1.95679 -42.11222,15.18032 0,10.33067 10.50419,20.0087 32.88024,30.29421 41.81736,19.22201 47.09864,19.4285 62.47073,2.44257 z m 78.72085,-2.30198 c 22.01139,-15.34011 22.2111,-15.94201 3.86828,-11.65945 -10.63776,2.48364 -27.60084,4.56321 -37.6958,4.62131 -15.43414,0.0888 -16.8221,1.95207 -8.72339,11.71043 12.39189,14.9313 14.8015,14.66669 42.55091,-4.67229 z M 183.02069,352.5335 C 91.102589,335.04236 88.481179,333.39238 57.190989,273.33223 l -28.96879,-55.60424 52.25553,-50.28742 C 109.21828,139.78248 140.42351,110.65044 149.82273,102.7027 L 166.9122,88.252241 148.00471,149.12184 c -22.85494,73.57766 -23.22662,80.21092 -4.49438,80.21092 17.55721,0 24.03729,14.48645 24.03729,53.73625 0,25.40607 4.07711,32.08659 30.94612,50.70682 17.02034,11.79512 30.94609,22.7129 30.94609,24.26174 0,3.27971 -0.68801,3.19813 -46.41914,-5.50407 z m 336.80753,-32.29659 c -5.84032,-18.13778 -19.93745,-93.15664 -17.83635,-94.91748 1.152,-0.96545 13.25045,-7.42762 26.88546,-14.36031 L 553.66824,198.3542 534.3754,147.0979 c -21.2851,-56.549309 -19.44472,-69.576909 5.79007,-40.98655 9.11589,10.32811 37.35788,40.1917 62.75999,66.36364 l 46.18566,47.58528 -25.91704,42.01778 c -19.22038,31.1607 -33.97981,45.35247 -57.12061,54.92361 -37.38228,15.46148 -42.19993,15.79851 -46.24525,3.23525 z"
     id="path4145"
     inkscape:connector-curvature="0" /></svg>