<?xml version="1.0" encoding="UTF-8" standalone="no"?>
<!-- Created with Inkscape (http://www.inkscape.org/) -->

<svg
   xmlns:dc="http://purl.org/dc/elements/1.1/"
   xmlns:cc="http://creativecommons.org/ns#"
   xmlns:rdf="http://www.w3.org/1999/02/22-rdf-syntax-ns#"
   xmlns:svg="http://www.w3.org/2000/svg"
   xmlns="http://www.w3.org/2000/svg"
   xmlns:sodipodi="http://sodipodi.sourceforge.net/DTD/sodipodi-0.dtd"
   xmlns:inkscape="http://www.inkscape.org/namespaces/inkscape"
   width="24"
   height="24"
   viewBox="0 0 24 24"
   id="svg2"
   version="1.1"
   inkscape:version="0.91 r13725"
   sodipodi:docname="xan_w4_tau.svg"
   inkscape:export-filename="D:\dev\XansSciFiMashup\raw\flags\small\xan_w4_tau.png"
   inkscape:export-xdpi="90"
   inkscape:export-ydpi="90">
  <defs
     id="defs4" />
  <sodipodi:namedview
     id="base"
     pagecolor="#ff9a00"
     bordercolor="#666666"
     borderopacity="1.0"
     inkscape:pageopacity="0"
     inkscape:pageshadow="2"
     inkscape:zoom="28.109023"
     inkscape:cx="13.450971"
     inkscape:cy="11.984511"
     inkscape:document-units="px"
     inkscape:current-layer="layer1"
     showgrid="false"
     inkscape:window-width="1920"
     inkscape:window-height="1017"
     inkscape:window-x="1272"
     inkscape:window-y="-8"
     inkscape:window-maximized="1"
     units="px"
     showguides="false" />
  <metadata
     id="metadata7">
    <rdf:RDF>
      <cc:Work
         rdf:about="">
        <dc:format>image/svg+xml</dc:format>
        <dc:type
           rdf:resource="http://purl.org/dc/dcmitype/StillImage" />
        <dc:title></dc:title>
      </cc:Work>
    </rdf:RDF>
  </metadata>
  <g
     inkscape:label="Ebene 1"
     inkscape:groupmode="layer"
     id="layer1"
     transform="translate(0,-1028.3622)">
    <path
       style="fill:#000000"
       d=""
       id="path4147"
       inkscape:connector-curvature="0" />
    <path
       style="fill:#000000"
       d=""
       id="path4145"
       inkscape:connector-curvature="0" />
    <path
       style="fill:#000000"
       d="m 9.2610641,1051.0647 c -3.73953,-0.9778 -6.789849,-3.9816 -7.937406,-7.8163 -0.45971132,-1.5362 -0.42498372,-4.3085 0.07407,-5.9127 0.582724,-1.8733 1.426621,-3.2583 2.847872,-4.674 1.419315,-1.4138 2.81502,-2.2623 4.682046,-2.8462 1.6038939,-0.5016 4.3755539,-0.5376 5.9181979,-0.077 4.84138,1.4461 8.15044,5.7457 8.154152,10.595 0.0014,1.939 -0.326617,3.2657 -1.276913,5.1629 -1.332803,2.6609 -4.072368,4.833 -7.037296,5.5795 -1.255587,0.3162 -4.195473,0.31 -5.4247209,-0.011 z m 6.2085319,-0.6139 c 3.228926,-1.191 5.671521,-3.7047 6.675148,-6.8693 0.536307,-1.6911 0.529779,-4.8585 -0.01327,-6.4333 -1.015566,-2.9449 -2.920782,-5.0591 -5.782874,-6.4171 -3.212005,-1.5239 -6.8561629,-1.2743 -10.0029829,0.6852 -2.452767,1.5273 -4.218517,4.0565 -4.77214,6.8354 -0.215888,1.0837 -0.208858,3.255 0.01429,4.4137 0.361773,1.8786 1.930017,4.5335 3.37817,5.7191 1.489068,1.219 3.465306,2.1841 5.1286709,2.5044 0.229226,0.044 1.279498,0.057 2.333937,0.028 1.542263,-0.042 2.136937,-0.133 3.041046,-0.4665 z m -6.1638509,-0.9554 c -3.02877,-0.8933 -5.576684,-3.4836 -6.472465,-6.5801 -0.414739,-1.4337 -0.372704,-3.8245 0.09371,-5.3298 0.671291,-2.1666 2.49544,-4.3992 4.463677,-5.4631 l 0.862939,-0.4665 -0.429008,0.8261 c -0.885495,1.7052 -0.444572,4.1704 0.975106,5.4518 0.691171,0.6238 1.8310479,1.224 2.3368479,1.2303 0.271696,0 0.291742,0.3699 0.291742,5.3334 l 0,5.3298 -0.541807,-0.013 c -0.297993,-0.01 -1.0093259,-0.1506 -1.5807389,-0.3192 z m 3.2895149,-4.9781 0,-5.31 0.716933,-0.1803 c 2.729248,-0.6866 4.211186,-4.2254 2.782532,-6.6446 -0.182588,-0.3092 -0.331979,-0.6 -0.331979,-0.6463 0,-0.2805 1.919428,1.025 2.845529,1.9353 4.564616,4.4871 3.553835,11.8182 -2.077167,15.0654 -0.817884,0.4717 -2.777583,1.0905 -3.45328,1.0905 l -0.482568,0 0,-5.31 z m -2.141061,-6.6308 c -1.3423419,-0.6608 -2.0647049,-1.8145 -2.0788849,-3.3204 -0.0082,-0.8705 0.07017,-1.1678 0.48407,-1.8367 0.726785,-1.1744 1.7685649,-1.7645 3.1152709,-1.7645 1.544125,0 2.697305,0.7281 3.358656,2.1205 0.365707,0.7699 0.369329,2.2266 0.0074,2.9886 -0.316982,0.6673 -1.389907,1.6979 -2.014857,1.9353 -0.657242,0.2497 -2.253759,0.1814 -2.871687,-0.1228 z"
       id="path4148"
       inkscape:connector-curvature="0" />
  </g>
</svg>
