<?xml version="1.0" encoding="UTF-8" standalone="no"?>
<!-- Created with Inkscape (http://www.inkscape.org/) -->

<svg
   xmlns:dc="http://purl.org/dc/elements/1.1/"
   xmlns:cc="http://creativecommons.org/ns#"
   xmlns:rdf="http://www.w3.org/1999/02/22-rdf-syntax-ns#"
   xmlns:svg="http://www.w3.org/2000/svg"
   xmlns="http://www.w3.org/2000/svg"
   xmlns:sodipodi="http://sodipodi.sourceforge.net/DTD/sodipodi-0.dtd"
   xmlns:inkscape="http://www.inkscape.org/namespaces/inkscape"
   width="24"
   height="24"
   viewBox="0 0 24 24"
   id="svg2"
   version="1.1"
   inkscape:version="0.91 r13725"
   sodipodi:docname="xan_w4_eldar.svg"
   inkscape:export-filename="D:\dev\XansSciFiMashup\raw\flags\small\xan_w4_eldar.png"
   inkscape:export-xdpi="90"
   inkscape:export-ydpi="90">
  <defs
     id="defs4" />
  <sodipodi:namedview
     id="base"
     pagecolor="#00b2c4"
     bordercolor="#666666"
     borderopacity="1.0"
     inkscape:pageopacity="0"
     inkscape:pageshadow="2"
     inkscape:zoom="31.649356"
     inkscape:cx="12.748475"
     inkscape:cy="12.578495"
     inkscape:document-units="px"
     inkscape:current-layer="layer1"
     showgrid="false"
     inkscape:window-width="1920"
     inkscape:window-height="1017"
     inkscape:window-x="1272"
     inkscape:window-y="-8"
     inkscape:window-maximized="1"
     units="px"
     showguides="false" />
  <metadata
     id="metadata7">
    <rdf:RDF>
      <cc:Work
         rdf:about="">
        <dc:format>image/svg+xml</dc:format>
        <dc:type
           rdf:resource="http://purl.org/dc/dcmitype/StillImage" />
        <dc:title></dc:title>
      </cc:Work>
    </rdf:RDF>
  </metadata>
  <g
     inkscape:label="Ebene 1"
     inkscape:groupmode="layer"
     id="layer1"
     transform="translate(0,-1028.3622)">
    <path
       style="fill:#000000"
       d=""
       id="path4147"
       inkscape:connector-curvature="0" />
    <path
       style="fill:#000000"
       d=""
       id="path4145"
       inkscape:connector-curvature="0" />
    <path
       style="fill:#ffffff;fill-opacity:1"
       d="m 10.48,1051.2588 c -0.09137,-0.101 -0.08955,-0.1173 0.03855,-0.3467 0.261646,-0.4687 0.317184,-0.8485 0.406886,-2.7823 0.04656,-1.0037 0.09751,-2.2378 0.11323,-2.7424 l 0.02859,-0.9175 -0.237495,-0.1746 c -0.130622,-0.096 -0.263699,-0.1743 -0.295725,-0.1739 -0.03203,0 -0.586071,0.5307 -1.231211,1.1782 -1.135495,1.1396 -1.393448,1.4656 -1.397214,1.7657 -0.0027,0.2176 -0.242895,0.091 -0.732461,-0.3871 -0.272695,-0.2662 -0.569027,-0.5757 -0.658514,-0.688 l -0.162705,-0.2041 0.442811,-0.2193 c 0.43544,-0.2157 0.735093,-0.4539 1.714653,-1.3633 0.262105,-0.2433 0.670876,-0.6141 0.908379,-0.8239 0.382228,-0.3377 0.427704,-0.398 0.395957,-0.5253 -0.01972,-0.079 -0.05003,-0.215 -0.06733,-0.302 l -0.03147,-0.1582 -1.361485,0.033 c -1.608185,0.039 -2.412083,0.1341 -2.713758,0.3226 -0.0844,0.053 -0.13832,0.055 -0.210117,0.01 -0.08491,-0.053 -0.0984,-0.1778 -0.111652,-1.0286 -0.01776,-1.1409 -4.07e-4,-1.1852 0.389769,-0.9978 0.57415,0.2757 1.484737,0.3943 3.060482,0.3988 l 0.946724,0 0.07269,-0.2596 c 0.123804,-0.4422 0.468253,-1.0364 0.751074,-1.2957 0.08709,-0.08 0.2641,-0.2137 0.393362,-0.2976 0.487014,-0.3161 0.482231,-0.3167 -2.239614,-0.2878 -1.449236,0.015 -2.514734,0.01 -2.571409,-0.024 -0.05323,-0.028 -0.09677,-0.084 -0.09677,-0.1254 0,-0.041 0.160678,-0.3326 0.357064,-0.6478 0.196385,-0.3152 0.476338,-0.7666 0.622115,-1.003 0.145778,-0.2365 0.332076,-0.5351 0.413997,-0.6636 0.08192,-0.1286 0.231227,-0.3671 0.331795,-0.53 0.215853,-0.3498 0.20467,-0.332 0.864118,-1.3762 0.283459,-0.4488 0.544746,-0.8637 0.580642,-0.9221 0.195333,-0.3174 0.880067,-1.4142 1.143599,-1.8317 0.37095,-0.5877 0.516326,-0.8238 0.662585,-1.076 0.06172,-0.1065 0.260032,-0.4175 0.440684,-0.6912 0.180653,-0.2738 0.329819,-0.5246 0.331483,-0.5575 0.0016,-0.033 0.06597,-0.093 0.142903,-0.1347 0.11906,-0.064 0.151848,-0.063 0.220284,0.01 0.100446,0.1004 0.579921,0.8743 0.579921,0.936 0,0.025 0.01866,0.054 0.04148,0.064 0.02281,0.01 0.139276,0.1802 0.25881,0.3779 0.119535,0.1977 0.320866,0.5212 0.447402,0.7189 0.300643,0.4697 1.089277,1.7393 1.160131,1.8677 0.03041,0.055 0.219648,0.3604 0.420518,0.6784 0.615393,0.9744 1.075539,1.7097 1.498026,2.3937 0.222211,0.3598 0.441346,0.7112 0.486967,0.7809 0.04562,0.07 0.178334,0.2854 0.294913,0.4794 0.116581,0.1941 0.30791,0.5021 0.425176,0.6846 0.233681,0.3637 0.265732,0.496 0.132525,0.5471 -0.04811,0.018 -1.205243,0.034 -2.571409,0.034 -2.07393,0 -2.483937,0.012 -2.483937,0.076 0,0.042 0.07676,0.108 0.170577,0.1469 0.226246,0.094 0.810404,0.7033 0.990807,1.0339 0.07914,0.145 0.182966,0.3881 0.23073,0.5402 l 0.08684,0.2765 0.629176,-0.01 c 1.251345,-0.012 2.954765,-0.084 3.089987,-0.1309 0.44598,-0.1534 0.545741,-0.1164 0.612075,0.2271 0.07562,0.3914 0.06308,1.5184 -0.01762,1.5834 -0.04759,0.038 -0.227308,0.016 -0.576966,-0.07 -0.383669,-0.095 -0.816346,-0.1422 -1.769572,-0.1924 -0.693951,-0.037 -1.423479,-0.058 -1.621173,-0.047 -0.335518,0.018 -0.360675,0.028 -0.377951,0.1572 -0.01018,0.076 -0.04128,0.1619 -0.06912,0.1908 -0.148625,0.1543 -0.02299,0.2981 1.137384,1.3023 0.298731,0.2586 0.707324,0.6205 0.907979,0.8044 0.466781,0.4277 0.67702,0.5771 1.069895,0.7602 0.174883,0.082 0.317817,0.1797 0.317627,0.2181 -4.07e-4,0.094 -1.283458,1.4247 -1.373116,1.4247 -0.03872,0 -0.133009,-0.1431 -0.209526,-0.318 -0.07652,-0.1749 -0.20409,-0.4175 -0.283495,-0.5391 -0.186667,-0.286 -2.229258,-2.3503 -2.325584,-2.3503 -0.04034,0 -0.15491,0.062 -0.254598,0.1383 -0.09969,0.076 -0.210009,0.1382 -0.245156,0.1382 -0.07526,0 -0.07532,0.018 -0.0075,1.8802 0.07707,2.1155 0.153863,3.4114 0.222563,3.7558 0.111409,0.5585 0.178872,0.8035 0.281456,1.0222 0.165592,0.3529 0.132725,0.361 -1.478143,0.3631 -1.298477,0 -1.3939,-0.01 -1.483621,-0.1042 z m 2.031692,-7.3921 c 0.905715,-0.3086 1.459751,-1.5889 1.169634,-2.7027 -0.368229,-1.4137 -1.708961,-1.9706 -2.668119,-1.1083 -0.96625,0.8688 -0.965731,2.6163 0.001,3.4855 0.437121,0.3931 0.963419,0.5074 1.497446,0.3255 z m -1.01286,-0.4142 c -1.318424,-0.5968 -1.318424,-2.7675 0,-3.3643 0.761829,-0.3448 1.621065,0.1532 1.903157,1.1031 0.336616,1.1335 -0.397748,2.3739 -1.405467,2.3739 -0.136863,0 -0.360826,-0.051 -0.49769,-0.1127 z m 4.036835,-5.9183 c 0,-0.034 -0.07465,-0.1717 -0.165898,-0.3069 -0.09124,-0.1352 -0.165897,-0.2664 -0.165897,-0.2916 0,-0.025 -0.0357,-0.075 -0.07933,-0.1116 -0.04363,-0.036 -0.130728,-0.1644 -0.193552,-0.285 -0.06282,-0.1205 -0.300854,-0.5029 -0.52896,-0.8499 -0.228107,-0.3469 -0.414739,-0.6439 -0.414739,-0.6601 0,-0.016 -0.09527,-0.1733 -0.211714,-0.3491 -0.420297,-0.6347 -0.617773,-0.9548 -0.617773,-1.0015 0,-0.026 -0.04977,-0.093 -0.110598,-0.1477 -0.06083,-0.055 -0.110598,-0.12 -0.110598,-0.1444 0,-0.024 -0.05599,-0.1276 -0.124424,-0.2294 -0.06843,-0.1019 -0.261287,-0.4015 -0.428568,-0.6658 -0.167278,-0.2643 -0.332593,-0.4806 -0.367365,-0.4808 -0.05681,-2e-4 -0.849213,1.1714 -0.849213,1.2557 0,0.019 -0.04134,0.081 -0.09187,0.1363 -0.05053,0.056 -0.118956,0.1499 -0.152072,0.2089 -0.08337,0.1488 -0.659013,1.0662 -0.920964,1.4679 -0.119021,0.1825 -0.240017,0.3853 -0.268877,0.4508 -0.02886,0.066 -0.08043,0.1364 -0.114597,0.1575 -0.03417,0.021 -0.08597,0.092 -0.115121,0.1574 -0.02915,0.065 -0.12093,0.2252 -0.203959,0.3549 -0.47923,0.7488 -0.842202,1.3366 -0.842202,1.3641 0,0.017 1.592614,0.031 3.539142,0.031 2.546716,0 3.539145,-0.017 3.539145,-0.061 z"
       id="path4148"
       inkscape:connector-curvature="0" />
  </g>
</svg>
