<?xml version="1.0" encoding="UTF-8" standalone="no"?>
<!-- Created with Inkscape (http://www.inkscape.org/) -->

<svg
   xmlns:dc="http://purl.org/dc/elements/1.1/"
   xmlns:cc="http://creativecommons.org/ns#"
   xmlns:rdf="http://www.w3.org/1999/02/22-rdf-syntax-ns#"
   xmlns:svg="http://www.w3.org/2000/svg"
   xmlns="http://www.w3.org/2000/svg"
   xmlns:sodipodi="http://sodipodi.sourceforge.net/DTD/sodipodi-0.dtd"
   xmlns:inkscape="http://www.inkscape.org/namespaces/inkscape"
   width="24"
   height="24"
   viewBox="0 0 24.000001 24"
   id="svg2"
   version="1.1"
   inkscape:version="0.91 r13725"
   sodipodi:docname="xan_sw_empire.svg"
   inkscape:export-filename="D:\dev\XansSciFiMashup\raw\flags\small\xan_sw_empire.png"
   inkscape:export-xdpi="90"
   inkscape:export-ydpi="90">
  <defs
     id="defs4" />
  <sodipodi:namedview
     id="base"
     pagecolor="#00038b"
     bordercolor="#666666"
     borderopacity="1.0"
     inkscape:pageopacity="0"
     inkscape:pageshadow="2"
     inkscape:zoom="32.407407"
     inkscape:cx="11.7"
     inkscape:cy="12.342857"
     inkscape:document-units="px"
     inkscape:current-layer="layer1"
     showgrid="false"
     fit-margin-top="20"
     fit-margin-left="20"
     fit-margin-right="20"
     fit-margin-bottom="20"
     inkscape:window-width="1920"
     inkscape:window-height="1017"
     inkscape:window-x="1272"
     inkscape:window-y="-8"
     inkscape:window-maximized="1" />
  <metadata
     id="metadata7">
    <rdf:RDF>
      <cc:Work
         rdf:about="">
        <dc:format>image/svg+xml</dc:format>
        <dc:type
           rdf:resource="http://purl.org/dc/dcmitype/StillImage" />
        <dc:title></dc:title>
      </cc:Work>
    </rdf:RDF>
  </metadata>
  <g
     inkscape:label="Ebene 1"
     inkscape:groupmode="layer"
     id="layer1"
     transform="translate(218.57143,-952.64796)">
    <path
       inkscape:connector-curvature="0"
       d="m -206.57143,953.64795 c -6.072,0 -11,4.92801 -11,11.00001 0,6.072 4.928,11 11,11 6.072,0 11,-4.928 11,-11 0,-6.072 -4.928,-11.00001 -11,-11.00001 z m -0.51914,0.912 c 0.006,-3.3e-4 0.0125,2.9e-4 0.0187,0 l 0.0468,0.74596 c -0.63446,0.0302 -1.25197,0.12277 -1.84736,0.27359 l 0.18473,0.72726 c -1.5628,0.39585 -2.9548,1.21885 -4.04549,2.33843 l -0.5355,-0.52381 c -0.43554,0.44682 -0.82492,0.93763 -1.16454,1.46386 l -0.6267,-0.4139 c 1.71163,-2.6465 4.62716,-4.4418 7.96938,-4.61139 z m 1.01956,0 c 3.35,0.16387 6.27329,1.95999 7.9881,4.61139 l -0.6267,0.4139 c -0.33886,-0.5249 -0.72789,-1.01563 -1.16221,-1.46152 l -0.5355,0.52147 c -1.09086,-1.12018 -2.48448,-1.94244 -4.04783,-2.33843 l 0.18474,-0.72726 c -0.5954,-0.15082 -1.21291,-0.24334 -1.84737,-0.27359 l 0.0468,-0.74596 z m -0.50042,3.29719 c 0.31802,-7.3e-4 0.63605,0.0187 0.89796,0.0561 l -0.40923,3.40477 c 0.86018,0.12543 1.61435,0.57562 2.13499,1.223 l 2.73129,-2.04847 c 0.33177,0.4133 0.70788,1.06167 0.90498,1.55272 l -3.13818,1.34226 c 0.15773,0.38971 0.24553,0.81437 0.24553,1.26042 0,0.42972 -0.0799,0.84035 -0.22682,1.21832 l 3.11245,1.33057 c -0.19204,0.49397 -0.56423,1.14118 -0.89094,1.5574 l -2.71259,-2.02976 c -0.51994,0.66217 -1.28275,1.12456 -2.1537,1.2534 l 0.40222,3.34864 c -0.52381,0.0807 -1.27211,0.0795 -1.79592,0.005 l 0.40221,-3.35332 c -0.87157,-0.12893 -1.63373,-0.59281 -2.1537,-1.25574 l -2.70557,2.02976 c -0.33176,-0.4133 -0.70788,-1.06167 -0.90498,-1.55272 l 3.11948,-1.33525 c -0.14644,-0.37741 -0.22683,-0.78703 -0.22683,-1.21598 0,-0.44682 0.0873,-0.8725 0.24553,-1.26276 l -3.13116,-1.33758 c 0.19204,-0.49397 0.56423,-1.14119 0.89094,-1.5574 l 2.73831,2.05081 c 0.52064,-0.64738 1.27481,-1.09757 2.13499,-1.223 l -0.40922,-3.40009 c 0.2619,-0.0403 0.57993,-0.0601 0.89796,-0.0608 z m -8.98895,2.17942 0.67347,0.33206 c -0.28405,0.55067 -0.51629,1.13207 -0.6875,1.7398 l 0.72024,0.20344 c -0.20939,0.74306 -0.32271,1.52636 -0.32271,2.3361 0,0.81052 0.11293,1.59473 0.32271,2.33843 l -0.72024,0.20345 c 0.17109,0.60674 0.4038,1.18763 0.6875,1.73745 l -0.67347,0.33206 c -0.71127,-1.38275 -1.1131,-2.95036 -1.1131,-4.61139 0,-1.66103 0.40183,-3.22865 1.1131,-4.6114 z m 17.97789,0 c 0.71127,1.38275 1.1131,2.95037 1.1131,4.6114 0,1.66103 -0.40183,3.22864 -1.1131,4.61139 l -0.67347,-0.33206 c 0.28382,-0.54998 0.51635,-1.13051 0.6875,-1.73745 l -0.72023,-0.20345 c 0.20977,-0.7437 0.3227,-1.52791 0.3227,-2.33843 0,-0.80974 -0.11332,-1.59304 -0.3227,-2.3361 l 0.72023,-0.20344 c -0.17116,-0.60756 -0.40357,-1.18926 -0.6875,-1.7398 l 0.67347,-0.33206 z m -16.85076,9.67411 c 0.33975,0.52622 0.72898,1.01702 1.16454,1.46386 l 0.5355,-0.52381 c 1.09069,1.11958 2.48269,1.94259 4.04549,2.33844 l -0.18473,0.72725 c 0.59539,0.15082 1.2129,0.24335 1.84736,0.2736 l -0.0468,0.74596 c -3.34999,-0.16388 -6.27329,-1.95999 -7.98809,-4.6114 l 0.6267,-0.4139 z m 15.72598,0 0.62436,0.4139 c -1.71481,2.65141 -4.6381,4.44752 -7.9881,4.6114 l -0.0468,-0.74596 c 0.63446,-0.0303 1.25197,-0.12278 1.84737,-0.2736 l -0.18474,-0.72725 c 1.56335,-0.39599 2.95697,-1.21826 4.04783,-2.33844 l 0.5355,0.52147 c 0.43487,-0.44644 0.82527,-0.9359 1.16455,-1.46152 z"
       style="display:inline;fill:#ffffff;fill-opacity:1;stroke:none"
       id="p1" />
  </g>
</svg>
