<?xml version="1.0" encoding="UTF-8" standalone="no"?>
<!-- Creator: CorelDRAW X5 -->

<svg
   xmlns:dc="http://purl.org/dc/elements/1.1/"
   xmlns:cc="http://creativecommons.org/ns#"
   xmlns:rdf="http://www.w3.org/1999/02/22-rdf-syntax-ns#"
   xmlns:svg="http://www.w3.org/2000/svg"
   xmlns="http://www.w3.org/2000/svg"
   xmlns:sodipodi="http://sodipodi.sourceforge.net/DTD/sodipodi-0.dtd"
   xmlns:inkscape="http://www.inkscape.org/namespaces/inkscape"
   xml:space="preserve"
   width="256"
   height="256"
   style="fill-rule:evenodd"
   viewBox="0 0 7224.8888 7224.8894"
   id="svg2"
   version="1.1"
   inkscape:version="0.91 r13725"
   sodipodi:docname="xan_w4_ork.svg"
   inkscape:export-filename="D:\dev\XansSciFiMashup\raw\flags\map\xan_w4_ork.png"
   inkscape:export-xdpi="90"
   inkscape:export-ydpi="90"><metadata
     id="metadata21"><rdf:RDF><cc:Work
         rdf:about=""><dc:format>image/svg+xml</dc:format><dc:type
           rdf:resource="http://purl.org/dc/dcmitype/StillImage" /><dc:title></dc:title></cc:Work></rdf:RDF></metadata><sodipodi:namedview
     pagecolor="#008203"
     bordercolor="#666666"
     borderopacity="1"
     objecttolerance="10"
     gridtolerance="10"
     guidetolerance="10"
     inkscape:pageopacity="0"
     inkscape:pageshadow="2"
     inkscape:window-width="1920"
     inkscape:window-height="1017"
     id="namedview19"
     showgrid="false"
     inkscape:zoom="2.2201483"
     inkscape:cx="125.33698"
     inkscape:cy="149.57999"
     inkscape:window-x="1272"
     inkscape:window-y="-8"
     inkscape:window-maximized="1"
     inkscape:current-layer="svg2" /><defs
     id="defs4"><style
       type="text/css"
       id="style6">
   
    .fil1 {fill:#CFD3CD;fill-rule:nonzero}
    .fil0 {fill:url(#id0)}
   
  </style></defs><path
     style="fill:#ffffff;fill-opacity:1"
     d="m 3355.6433,6196.6186 -108.8496,-451.3556 -195.548,227.5489 -195.548,227.5488 0,-981.5763 0,-981.576 -456.455,-364.5684 c -406.9448,-325.0251 -456.4549,-398.2571 -456.4549,-675.152 0,-292.4351 31.8014,-330.5411 544.2396,-652.1367 299.3318,-187.8545 580.9542,-341.5537 625.8268,-341.5537 44.8728,0 363.6342,152.222 708.3584,338.2709 531.2188,286.7002 674.7418,330.1585 941.4248,285.0611 l 314.6525,-53.2096 140.6937,632.9757 c 163.3876,735.0785 102.7761,896.6112 -321.3494,856.4094 l -256.6127,-24.3238 -23.5556,892.9888 c -23.5153,891.451 -100.1421,1096.1754 -248.7354,664.5498 -78.1152,-226.9043 -79.3673,-225.9273 -186.3239,145.3703 l -107.6796,373.8093 -101.4079,-332.2751 c -99.5854,-326.304 -102.9047,-328.543 -184.7263,-124.6031 -45.8253,114.2194 -137.2695,338.5053 -203.2091,498.4123 l -119.8906,290.7406 -108.8498,-451.3556 z m 661.9395,-1833.0343 c 0,-91.3755 -37.3462,-166.1374 -82.992,-166.1374 -45.6453,0 -82.9915,15.6333 -82.9915,34.7403 0,19.1073 -22.6689,93.8692 -50.3751,166.1375 -33.0569,86.2239 -4.5247,131.3973 82.9915,131.3973 78.0394,0 133.3671,-68.9232 133.3671,-166.1377 z m -222.0213,-399.2597 c 122.6253,-135.6252 123.4096,-167.5758 8.1565,-332.2751 -104.7101,-149.633 -208.3042,-182.2211 -579.2632,-182.2211 -393.5174,0 -451.7493,21.0106 -451.7493,162.9944 0,110.9226 112.6814,214.8377 352.7155,325.2754 448.5861,206.3908 505.2399,208.608 670.1405,26.2264 z m 844.46,-24.7168 c 236.1221,-164.7101 238.2645,-171.1728 41.496,-125.19 -114.114,26.6673 -296.0816,48.9961 -404.3732,49.6199 -165.5661,0.9539 -180.4551,20.9598 -93.578,125.7375 132.9312,160.3205 158.7796,157.4794 456.4552,-50.1674 z M 1942.7878,4108.1116 C 956.7572,3920.3054 928.63671,3902.5893 592.97827,3257.7106 l -310.75612,-597.0347 560.5593,-539.9468 c 308.30775,-296.9709 643.05475,-609.7678 743.88265,-695.1044 l 183.3235,-155.1577 -202.8258,653.57 c -245.1712,790.0191 -249.1583,861.2419 -48.2124,861.2419 188.3409,0 257.8545,155.5441 257.8545,576.9775 0,272.7904 43.7363,344.5207 331.9674,544.4501 182.582,126.6467 331.9673,243.8733 331.9673,260.5035 0,35.215 -7.3805,34.339 -497.9508,-59.0984 z M 5555.814,3761.3362 c -62.6507,-194.7493 -213.8744,-1000.2428 -191.3355,-1019.1493 12.358,-10.3663 142.1414,-79.752 288.4078,-154.1898 l 265.9387,-135.3417 -206.9595,-550.3499 c -228.331,-607.1818 -208.5888,-747.0622 62.1118,-440.0811 97.7886,110.8948 400.7481,431.5469 673.2434,712.5603 l 495.4463,510.9334 -278.0192,451.154 c -206.1822,334.5791 -364.5106,486.9592 -612.7485,589.7266 -401.0097,166.0132 -452.69,169.6319 -496.0853,34.7375 z"
     id="path4145"
     inkscape:connector-curvature="0" /></svg>