<?xml version="1.0" encoding="UTF-8" standalone="no"?>
<!-- Creator: CorelDRAW X5 -->

<svg
   xmlns:dc="http://purl.org/dc/elements/1.1/"
   xmlns:cc="http://creativecommons.org/ns#"
   xmlns:rdf="http://www.w3.org/1999/02/22-rdf-syntax-ns#"
   xmlns:svg="http://www.w3.org/2000/svg"
   xmlns="http://www.w3.org/2000/svg"
   xmlns:sodipodi="http://sodipodi.sourceforge.net/DTD/sodipodi-0.dtd"
   xmlns:inkscape="http://www.inkscape.org/namespaces/inkscape"
   xml:space="preserve"
   width="256"
   height="256"
   style="fill-rule:evenodd"
   viewBox="0 0 7224.8888 7224.8894"
   id="svg2"
   version="1.1"
   inkscape:version="0.91 r13725"
   sodipodi:docname="xan_st_borg.svg"
   inkscape:export-filename="D:\dev\XansSciFiMashup\raw\flags\map\xan_st_borg.png"
   inkscape:export-xdpi="90"
   inkscape:export-ydpi="90"><metadata
     id="metadata21"><rdf:RDF><cc:Work
         rdf:about=""><dc:format>image/svg+xml</dc:format><dc:type
           rdf:resource="http://purl.org/dc/dcmitype/StillImage" /><dc:title></dc:title></cc:Work></rdf:RDF></metadata><sodipodi:namedview
     pagecolor="#008703"
     bordercolor="#666666"
     borderopacity="1"
     objecttolerance="10"
     gridtolerance="10"
     guidetolerance="10"
     inkscape:pageopacity="0"
     inkscape:pageshadow="2"
     inkscape:window-width="1920"
     inkscape:window-height="1017"
     id="namedview19"
     showgrid="false"
     inkscape:zoom="2.2201483"
     inkscape:cx="112.47384"
     inkscape:cy="133.20735"
     inkscape:window-x="1272"
     inkscape:window-y="-8"
     inkscape:window-maximized="1"
     inkscape:current-layer="svg2" /><defs
     id="defs4"><style
       type="text/css"
       id="style6">
   
    .fil1 {fill:#CFD3CD;fill-rule:nonzero}
    .fil0 {fill:url(#id0)}
   
  </style></defs><path
     style="fill:#ffffff;fill-opacity:1;fill-rule:nonzero"
     inkscape:connector-curvature="0"
     id="path17"
     d="m 2795.0277,5634.873 c 0,-624.7123 187.7286,-1167.3921 465.3786,-1449.7748 -182.9963,-11.0427 -449.6031,-86.7654 -619.9798,-399.1222 -484.3094,-880.2769 115.1616,-2356.87 115.1616,-2356.87 l -52.0594,-52.0594 c 0,0 -747.7618,927.6033 -656.2631,2962.6521 56.7921,1282.5538 662.5735,2019.2728 974.93,2317.4308 -138.8248,-280.8046 -227.1679,-637.3331 -227.1679,-1022.2565 z m 1339.3454,676.7717 c 0,348.6398 -149.8676,631.0223 -334.4424,631.0223 -184.5736,0 -334.4421,-282.3825 -334.4421,-631.0223 0,-348.6406 149.8685,-631.0231 334.4421,-631.0231 184.5748,0 334.4424,282.3825 334.4424,631.0231 z m -825.0621,424.3634 c 0,0 -578.9635,-2164.4084 386.5011,-2164.4084 1107.4451,0 618.4024,2177.0281 618.4024,2177.0281 0,0 20.5082,-1314.1048 -578.9633,-1314.1048 -463.8016,0 -424.3629,1301.4851 -424.3629,1301.4851 z m 250.8313,-2738.6392 c 44.1715,-12.6208 88.3431,-18.9305 134.0921,-18.9305 37.8614,0 77.3007,4.7329 113.5844,12.6206 70.9899,-285.5384 182.9964,-952.8448 -42.5938,-1765.2867 C 3462.3336,1141.9905 3037.9711,886.42617 3037.9711,886.42617 l -89.9208,89.9214 c 0,0 695.7024,902.36213 695.7024,1713.22713 0,621.5573 -56.7921,1112.1769 -83.6104,1306.2171 z m 454.3365,88.3433 c 127.7817,89.9204 241.3659,230.3231 334.4417,408.5868 121.472,-295.0033 318.6666,-1011.2128 3.1554,-2101.3056 C 3927.7127,927.44297 3309.311,564.60477 3309.311,564.60477 l -108.8513,108.8518 c 0,0 843.9926,843.99293 933.9134,1861.51753 64.6795,725.6753 -48.9044,1287.2859 -118.3166,1549.1602 z M 3579.0732,282.22227 3463.9113,411.58237 c 0,0 1287.2865,1082.20383 1287.2865,3000.51263 0,683.083 -146.7129,1243.1151 -238.2112,1527.0758 53.6367,211.3915 83.6104,446.4475 83.6104,695.7022 0,493.7754 -91.4985,938.6461 -253.9862,1241.537 C 4714.9141,6381.0567 5082.4845,5443.9888 5177.138,3980.0163 5319.1182,1802.9869 3580.6505,283.80027 3580.6505,283.80027 Z"
     class="fil1" /></svg>