<?xml version="1.0" encoding="UTF-8" standalone="no"?>
<!-- Created with Inkscape (http://www.inkscape.org/) -->

<svg
   xmlns:dc="http://purl.org/dc/elements/1.1/"
   xmlns:cc="http://creativecommons.org/ns#"
   xmlns:rdf="http://www.w3.org/1999/02/22-rdf-syntax-ns#"
   xmlns:svg="http://www.w3.org/2000/svg"
   xmlns="http://www.w3.org/2000/svg"
   xmlns:sodipodi="http://sodipodi.sourceforge.net/DTD/sodipodi-0.dtd"
   xmlns:inkscape="http://www.inkscape.org/namespaces/inkscape"
   width="256"
   height="256"
   viewBox="0 0 256 256"
   id="svg2"
   version="1.1"
   inkscape:version="0.91 r13725"
   sodipodi:docname="xan_w4_empire.svg"
   inkscape:export-filename="D:\dev\XansSciFiMashup\raw\flags\map\xan_w4_empire.png"
   inkscape:export-xdpi="90"
   inkscape:export-ydpi="90">
  <defs
     id="defs4" />
  <sodipodi:namedview
     id="base"
     pagecolor="#0022c4"
     bordercolor="#666666"
     borderopacity="1.0"
     inkscape:pageopacity="0"
     inkscape:pageshadow="2"
     inkscape:zoom="2.9649195"
     inkscape:cx="128.81574"
     inkscape:cy="129.38782"
     inkscape:document-units="px"
     inkscape:current-layer="layer1"
     showgrid="false"
     inkscape:window-width="1920"
     inkscape:window-height="1017"
     inkscape:window-x="1272"
     inkscape:window-y="-8"
     inkscape:window-maximized="1"
     units="px"
     showguides="false" />
  <metadata
     id="metadata7">
    <rdf:RDF>
      <cc:Work
         rdf:about="">
        <dc:format>image/svg+xml</dc:format>
        <dc:type
           rdf:resource="http://purl.org/dc/dcmitype/StillImage" />
        <dc:title></dc:title>
      </cc:Work>
    </rdf:RDF>
  </metadata>
  <g
     inkscape:label="Ebene 1"
     inkscape:groupmode="layer"
     id="layer1"
     transform="translate(0,-796.3622)">
    <path
       style="fill:#000000"
       d=""
       id="path4147"
       inkscape:connector-curvature="0" />
    <path
       style="fill:#000000"
       d=""
       id="path4145"
       inkscape:connector-curvature="0" />
    <path
       style="fill:#ffffff;fill-opacity:1"
       d="m 105.48084,968.03953 c -0.0291,-0.029 -0.69499,-0.072 -1.47965,-0.094 -1.30162,-0.039 -1.47929,-0.059 -2.0279,-0.238 -1.20491,-0.392 -2.305908,-1.0628 -2.716087,-1.6546 -0.590281,-0.8518 -0.51498,-1.4636 0.368464,-2.9943 0.231782,-0.4017 1.319253,-2.4015 2.416603,-4.44424 1.09735,-2.04248 2.02417,-3.74408 2.05957,-3.78101 0.0354,-0.0371 0.0645,-0.094 0.0645,-0.12892 0,-0.035 -0.62195,-0.0525 -1.38626,-0.0393 l -1.38627,0.024 -0.16804,0.20978 c -0.26845,0.33695 -1.18137,1.90482 -1.669015,2.86651 -0.530255,1.04561 -0.476521,0.95033 -0.514958,0.91187 -0.03321,-0.0328 -1.242097,-7.60178 -1.242207,-7.77681 -6.5e-5,-0.0896 0.299326,-0.0961 2.21061,-0.0546 1.2159,0.0284 2.6882,0.083 3.27182,0.12455 1.31921,0.094 2.04796,0.094 2.37428,0 0.20387,-0.0568 0.30315,-0.15515 0.51943,-0.51242 0.35392,-0.58563 1.8944,-3.71967 3.1904,-6.49069 0.92927,-1.98698 1.56979,-3.31797 1.62778,-3.38265 0.0251,-0.0284 4.02013,3.11147 4.32383,3.39794 l 0.22212,0.20978 -1.66036,2.98233 c -0.9132,1.64041 -1.8787,3.33267 -2.14556,3.76075 -0.7378,1.18327 -0.93695,1.76387 -0.81959,2.38949 0.0267,0.14203 0.44274,0.84129 0.99026,1.66379 1.76424,2.65084 2.00926,3.44689 1.26965,4.1243 -0.28215,0.2585 -6.03513,4.37865 -6.11386,4.37865 -0.10947,0 -0.0756,-0.1268 0.26314,-0.9788 0.49335,-1.242 1.23729,-3.53358 1.27927,-3.94025 0.0433,-0.41824 0.0522,-0.40622 -0.76663,-1.02943 -0.52075,-0.39661 -0.69823,-0.46107 -0.69925,-0.25479 0,0.0459 -0.21218,0.41868 -0.47106,0.82709 -0.25888,0.40862 -0.99209,1.59801 -1.62938,2.64298 -0.63728,1.0451 -1.28772,2.0903 -1.44538,2.3224 -0.60359,0.8889 -0.72415,1.4966 -0.4184,2.1093 0.10052,0.201 0.58286,0.7355 1.3188,1.4601 0.76907,0.7572 1.16029,1.1925 1.16029,1.291 0,0.1508 -0.0743,0.1923 -0.17089,0.096 z m 40.77462,-0.8584 c -7e-4,-0.024 -0.0315,-0.4097 -0.0686,-0.857 -0.0651,-0.7847 -0.0175,-1.282 0.13264,-1.3747 0.0326,-0.022 0.23771,0.026 0.45614,0.1027 0.49072,0.1726 0.77794,0.1748 1.14343,0 0.48061,-0.22 1.69985,-1.0454 1.90617,-1.2908 0.17198,-0.2032 0.19208,-0.2775 0.16498,-0.6033 -0.0577,-0.6964 -0.87127,-2.1533 -2.79859,-5.01214 -0.44593,-0.66123 -0.84046,-1.23965 -0.87674,-1.2851 -0.0481,-0.0612 -0.20344,0 -0.57498,0.20978 -0.65403,0.37672 -1.07522,0.79453 -1.13785,1.12842 -0.13111,0.69904 0.5135,1.89824 1.28893,2.39754 0.30075,0.1945 0.36816,0.2098 0.75469,0.1727 0.23345,-0.022 0.45968,-0.022 0.50275,0.022 0.0564,0.037 0.0605,0.4084 0.0153,1.3218 -0.0347,0.6984 -0.0747,1.2816 -0.0889,1.2958 -0.0798,0.079 -1.70254,-0.5574 -2.41963,-0.9503 -0.4615,-0.2528 -1.96917,-1.0653 -3.35037,-1.8056 -3.54101,-1.89805 -3.67442,-1.97846 -3.54282,-2.13711 0.0396,-0.0481 0.21239,-0.45058 0.38404,-0.8957 l 0.31217,-0.80895 0.34452,-0.0459 c 0.18945,-0.0262 0.56952,-0.0503 0.84455,-0.0525 0.275,0 0.6654,-0.0546 0.86755,-0.11581 0.45745,-0.13548 0.50972,-0.21196 1.33388,-1.9424 0.60378,-1.26762 0.62321,-1.32422 0.61967,-1.80386 -0.007,-0.79453 -0.18661,-1.08604 -2.5891,-4.17528 -1.18076,-1.51804 -2.34513,-2.99828 -2.58747,-3.28935 -0.24236,-0.29106 -0.51078,-0.66036 -0.59651,-0.82097 l -0.1558,-0.29172 0.63186,-0.5983 c 0.34753,-0.32909 1.08654,-1.00409 1.64221,-1.50034 0.55569,-0.49603 1.07897,-0.99491 1.16284,-1.10832 0.14225,-0.19229 0.33811,-0.27883 0.33811,-0.14859 0,0.0809 0.31805,0.59021 1.54081,2.46794 0.76048,1.16775 1.10836,1.76933 1.20665,2.08684 0.51492,1.66248 1.68965,3.52141 2.6124,4.13391 0.81695,0.54221 2.2912,0.91609 3.92248,0.99432 0.80325,0.0393 0.95236,0.0262 1.39204,-0.11144 0.3989,-0.12674 0.58869,-0.24168 0.99928,-0.60989 0.34165,-0.30642 0.58856,-0.46987 0.75743,-0.50156 0.25942,-0.0481 1.69971,0 1.75967,0.0612 0.0197,0.0219 -0.22188,2.14678 -0.53455,4.72922 -0.68554,5.66186 -0.68425,5.65226 -0.77266,5.74076 -0.047,0.046 -0.3188,-0.048 -0.81155,-0.2811 l -0.74097,-0.3516 0.31204,-0.52138 c 0.26303,-0.43966 0.31202,-0.57973 0.31202,-0.89286 0,-0.77072 -0.52431,-1.8172 -1.31113,-2.61653 -0.56816,-0.57733 -1.00148,-0.77028 -1.4848,-0.66124 -0.36713,0.083 -0.74108,0.45911 -0.74108,0.74602 0,0.23425 1.11859,2.24177 2.92298,5.24539 0.96584,1.6078 0.86373,1.5023 1.56902,1.6196 0.57238,0.096 0.59264,0.1246 0.83779,1.2311 0.286,1.2904 0.41492,2.2796 0.31043,2.3821 -0.0479,0.048 -0.64421,0.1683 -1.32507,0.2692 -2.1664,0.3217 -5.10072,0.8042 -5.95987,0.9798 -0.45716,0.094 -0.83172,0.1508 -0.83235,0.1268 z m -23.03358,-2.6399 c -0.88604,-1.1789 -1.79261,-2.3722 -2.01458,-2.6521 -0.68099,-0.8588 -0.69895,-1.1497 -0.17132,-2.7728 0.41095,-1.26369 1.76615,-5.96378 2.23126,-7.73836 0.21262,-0.81092 0.34874,-1.46516 0.32387,-1.55628 -0.0431,-0.15734 -0.3828,-0.58526 -0.426,-0.53653 -0.10314,0.11581 -1.23615,3.28198 -2.2372,6.25098 -0.66902,1.98435 -1.26172,3.69666 -1.31714,3.80548 -0.0555,0.10926 -0.18181,0.23447 -0.28099,0.2797 -0.15122,0.0699 -0.1912,0.0634 -0.24771,-0.0393 -0.0371,-0.0656 -0.39602,-0.50565 -0.79753,-0.97612 -1.12241,-1.31548 -1.20259,-1.5742 -0.81286,-2.62352 0.12019,-0.32363 0.69436,-1.94131 1.27595,-3.59505 0.58158,-1.65352 1.18357,-3.34972 1.33774,-3.76949 0.34952,-0.95121 0.36173,-1.24271 0.0627,-1.49444 -0.46087,-0.38765 -0.6977,-0.15734 -1.23029,1.19638 -0.57755,1.468 -3.33591,7.74542 -3.40359,7.74585 -0.11975,0 -1.76164,-1.70487 -1.9011,-1.97452 -0.083,-0.15952 -0.11254,-0.33127 -0.0885,-0.51089 0.0197,-0.1486 0.3391,-0.8992 0.70935,-1.6686 0.71615,-1.48811 3.17904,-6.79902 3.6145,-7.79415 0.14313,-0.3269 0.23482,-0.61666 0.20388,-0.64397 -1.15135,-1.01611 -4.73368,-4.1125 -5.32838,-4.60591 -0.87171,-0.72308 -1.17735,-1.04124 -1.23984,-1.29035 -0.0658,-0.26156 0.0964,-0.80939 0.56812,-1.91989 0.24791,-0.58366 1.22984,-3.06668 2.18207,-5.51779 0.95226,-2.45111 3.13686,-8.05368 4.85467,-12.45025 1.71781,-4.39657 3.90954,-10.00701 4.87049,-12.46773 0.96098,-2.46073 1.76602,-4.47415 1.78903,-4.47436 0.1062,0 0.44835,0.78688 0.83135,1.91399 0.23062,0.6785 1.3432,3.74867 2.47241,6.82233 1.12922,3.07367 3.77133,10.26792 5.87137,15.98718 2.10004,5.71926 4.02758,10.92412 4.28343,11.56613 0.25581,0.64178 0.50322,1.33208 0.54976,1.53377 l 0.0846,0.36668 -0.24096,0.19885 c -1.04585,0.86489 -4.06294,3.82908 -4.53841,4.45884 -0.23786,0.31511 -0.2745,0.4082 -0.23727,0.60311 0.0243,0.12674 0.9202,1.97999 1.99109,4.11818 1.07089,2.13826 1.93803,3.92661 1.927,3.97425 -0.0109,0.0481 -0.60704,0.63763 -1.3245,1.31154 -1.9067,1.79119 -2.42944,2.25619 -2.50666,2.23062 -0.0935,-0.0306 -0.8548,-2.14059 -2.13105,-5.9039 -0.58362,-1.72089 -1.08162,-3.12924 -1.10668,-3.12967 -0.0251,-2.2e-4 -0.14881,0.0961 -0.27511,0.21414 -0.22073,0.20541 -0.2279,0.2301 -0.18618,0.61906 0.0238,0.22245 0.13767,0.70691 0.25322,1.07664 0.11537,0.36951 0.56336,1.94531 0.99528,3.50159 0.43196,1.55628 0.87647,3.11606 0.98781,3.46634 0.19186,0.60355 0.24961,0.93198 0.22629,1.28969 -0.0131,0.19448 -0.71597,0.94793 -1.70557,1.82637 -0.40989,0.36361 -0.80891,0.75891 -0.88672,0.87822 -0.0778,0.12016 -0.18552,0.20756 -0.23934,0.19886 -0.0673,-0.022 -0.38877,-1.20841 -1.03208,-3.83892 -0.5138,-2.10083 -1.05129,-4.23378 -1.1944,-4.73943 -0.14313,-0.50587 -0.28001,-1.08734 -0.3042,-1.29231 l -0.0439,-0.37264 -0.27308,0.27868 c -0.25923,0.2644 -0.27304,0.30133 -0.27199,0.72635 7.2e-4,0.24605 0.0651,0.74995 0.14313,1.11968 0.078,0.36952 0.36427,1.94525 0.63593,3.50153 0.27166,1.55628 0.57619,3.19582 0.67673,3.64312 0.10052,0.44752 0.18705,1.03754 0.19207,1.31134 0.0109,0.5788 -0.10532,0.8246 -0.77184,1.6342 -0.32365,0.3934 -2.80631,3.5811 -3.57757,4.5939 l -0.18924,0.2485 -1.61097,-2.143 z M 81.211069,939.32907 c -0.491795,-0.10052 -5.730533,-0.86948 -6.913958,-1.01611 -0.339948,-0.0415 -0.662217,-0.094 -0.716147,-0.11363 -0.13417,-0.0524 0.05944,-0.41737 1.699891,-3.21286 1.11009,-1.89171 10.528674,-18.12537 11.114716,-19.15699 0.09527,-0.16826 0.197977,-0.41431 0.228067,-0.54826 0.0531,-0.23513 0.04764,-0.24343 -0.155366,-0.24343 -0.135918,0 -0.277802,0.0699 -0.401264,0.19448 -0.217206,0.22114 -7.135382,9.11109 -10.693283,13.74125 -5.029967,6.54548 -6.028504,7.81725 -6.155113,7.83866 -0.187051,0.0306 -0.219413,0.0218 -3.676731,-2.18473 -1.73127,-1.10024 -3.415232,-2.16988 -3.742134,-2.37704 -0.326924,-0.20759 -0.637306,-0.37672 -0.689728,-0.37672 -0.105981,0 -0.130892,-0.11582 -0.033,-0.15296 0.03431,-0.0219 0.342613,-0.32603 0.685117,-0.69555 0.342461,-0.36973 1.915787,-2.00904 3.496214,-3.64312 1.580428,-1.63407 4.525541,-4.69004 6.544686,-6.79108 2.019123,-2.10105 5.176788,-5.37029 7.017011,-7.26505 1.840245,-1.89477 3.345786,-3.4705 3.345677,-3.50153 0,-0.0306 -0.124118,-0.19885 -0.275594,-0.37497 l -0.275398,-0.31838 -0.484868,0.465 c -0.266679,0.25567 -0.857659,0.74012 -1.313312,1.07642 -0.711995,0.52531 -14.672071,11.67801 -19.367858,15.473 -1.737651,1.40419 -3.478733,2.733 -3.734835,2.85012 -0.146626,0.0677 -0.218846,0.0219 -0.742785,-0.49341 -0.319145,-0.31248 -0.994123,-0.90029 -1.499926,-1.3063 -0.844395,-0.67806 -6.085099,-5.14477 -6.456601,-5.50336 -0.0885,-0.0852 -0.142473,-0.18355 -0.120185,-0.2207 0.09025,-0.14641 0.733301,-0.53187 1.786534,-1.07227 1.233378,-0.6326 5.297256,-2.81297 18.690695,-10.02798 4.960652,-2.67225 9.45477,-5.0731 9.986947,-5.33532 0.606648,-0.29894 1.084568,-0.58716 1.28119,-0.7729 0.276184,-0.26091 0.318817,-0.34242 0.357298,-0.6833 0.02404,-0.21197 0.01748,-0.41409 -0.01748,-0.44731 -0.033,-0.0328 -0.56561,0.14641 -1.183425,0.3988 -0.61777,0.25216 -2.921797,1.15879 -5.120039,2.01429 -6.073321,2.3637 -13.541746,5.2796 -21.646493,8.45116 -8.006808,3.13332 -9.023722,3.51682 -9.325954,3.51682 -0.264799,0 -0.600442,-0.24976 -1.578068,-1.17365 -0.441907,-0.41781 -2.426942,-2.20856 -4.411212,-3.97943 -1.984269,-1.77086 -3.618059,-3.26181 -3.630624,-3.31316 -0.01311,-0.0546 0.03693,-0.094 0.118,-0.094 0.07757,0 0.489588,-0.10926 0.915806,-0.24299 0.426175,-0.1333 0.977888,-0.28036 1.226015,-0.32581 0.248126,-0.0459 0.551407,-0.12456 0.673929,-0.177 0.122589,-0.0524 0.335206,-0.11582 0.47261,-0.14204 0.174377,-0.0328 0.238315,-0.0765 0.211743,-0.1464 -0.02447,-0.0634 0.01093,-0.0983 0.09702,-0.0983 0.0743,0 0.467715,-0.11363 0.874135,-0.25282 0.406443,-0.13985 0.961827,-0.29719 1.234187,-0.3516 0.681141,-0.13548 1.393442,-0.321 1.520904,-0.39551 0.369032,-0.21633 1.311607,-0.4567 3.273588,-0.83539 0.66237,-0.12893 1.582591,-0.37214 2.263688,-0.60071 0.631209,-0.21196 1.33866,-0.41715 1.572102,-0.45648 0.849749,-0.14204 1.139918,-0.20978 1.556281,-0.3599 0.233443,-0.083 0.740053,-0.21415 1.12578,-0.29128 0.727227,-0.14423 2.233686,-0.56225 3.152137,-0.87604 0.290803,-0.10052 0.736447,-0.21415 0.990365,-0.25348 0.432599,-0.0677 5.025574,-1.32902 15.175623,-4.1656 2.37334,-0.6632 4.581371,-1.28554 4.906766,-1.383 0.325394,-0.0961 0.66816,-0.177 0.761751,-0.177 0.09353,0 0.511768,-0.10925 0.92929,-0.24342 0.417543,-0.1333 1.464329,-0.43398 2.326227,-0.6667 0.861899,-0.23272 1.665213,-0.47397 1.785179,-0.53602 0.209558,-0.10926 0.32983,-0.34504 0.27944,-0.55001 -0.02666,-0.10926 0.458078,-0.19667 -26.692958,4.83186 -8.831907,1.6356 -17.840661,3.30398 -20.019455,3.70736 -2.178794,0.40339 -4.104698,0.76678 -4.279796,0.80742 -0.57669,0.1333 -0.731618,0.10271 -1.196274,-0.24758 -0.237681,-0.17918 -0.726287,-0.66341 -1.085791,-1.07685 -0.359505,-0.41365 -2.062259,-2.19807 -3.783893,-3.96544 -1.721655,-1.76715 -3.13024,-3.23624 -3.13024,-3.26465 0,-0.0918 0.422809,-0.14203 2.405156,-0.28276 1.069949,-0.0765 2.088612,-0.15515 2.263688,-0.17263 0.465923,-0.0503 5.301823,-0.46304 6.614196,-0.56508 0.19448,-0.0219 0.942618,-0.0809 1.662393,-0.14641 0.719775,-0.0656 1.467869,-0.12893 1.662394,-0.14204 0.19448,-0.0218 0.942618,-0.0765 1.662393,-0.13766 0.719775,-0.0634 1.483777,-0.12893 1.697772,-0.14422 0.213928,-0.0219 0.993883,-0.0809 1.733127,-0.14423 0.739223,-0.0634 1.487317,-0.12455 1.662394,-0.13548 0.344645,-0.024 2.970242,-0.24343 5.517719,-0.45976 1.838453,-0.15514 4.120387,-0.347 4.633488,-0.38787 0.19448,-0.0218 0.926689,-0.0787 1.627015,-0.14203 0.700327,-0.0634 1.448421,-0.12893 1.662394,-0.14641 0.213928,-0.0218 0.93025,-0.0765 1.591659,-0.13111 0.661431,-0.0546 1.823332,-0.15078 2.582024,-0.20978 0.758671,-0.0612 1.681842,-0.14422 2.051464,-0.18574 0.369601,-0.0415 1.292771,-0.12237 2.051464,-0.18137 0.758671,-0.059 2.111578,-0.16825 3.006451,-0.24364 2.62977,-0.22136 4.831202,-0.40732 6.720308,-0.56793 0.972687,-0.083 2.086842,-0.17481 2.475912,-0.20541 0.38907,-0.0306 0.86369,-0.0918 1.054674,-0.13766 0.190985,-0.0459 0.557111,-0.0765 0.813519,-0.0699 0.609336,0.0218 1.491054,-0.0634 2.02251,-0.18355 0.233443,-0.0525 0.719906,-0.118 1.08105,-0.14422 l 0.656601,-0.0481 0.103796,-0.24867 c 0.05703,-0.13548 0.103796,-0.33783 0.103796,-0.44709 0,-0.19666 0.123681,-0.37738 0.299369,-0.44009 0.319953,-0.11363 -0.254617,-0.13111 -1.942009,-0.0568 -7.027128,0.30986 -40.992915,1.89674 -45.576406,2.12902 -3.073645,0.15515 -6.766284,0.3304 -8.205856,0.38765 -1.439549,0.0568 -3.588297,0.15952 -4.774956,0.22879 -1.186659,0.0677 -2.494377,0.12455 -2.90602,0.12455 -0.714661,0 -0.760419,0 -1.01379,-0.20322 -0.14597,-0.11144 -0.572232,-0.5889 -0.947317,-1.06112 -0.375085,-0.47222 -1.449426,-1.78179 -2.387369,-2.91 -0.937964,-1.12842 -1.963445,-2.43341 -2.278875,-2.90038 -0.315386,-0.46697 -0.846449,-1.1317 -1.180059,-1.4774 -0.458406,-0.47483 -0.5882488,-0.65052 -0.531479,-0.71892 0.119311,-0.14422 0.654766,-0.18574 2.635714,-0.20977 1.01945,-0.0219 2.50609,-0.0393 3.303678,-0.0634 1.652604,-0.0481 11.647309,-0.16389 18.993735,-0.22027 2.723493,-0.0218 5.222393,-0.0677 5.553097,-0.10489 0.330727,-0.0371 2.797789,-0.083 5.482363,-0.1027 11.341494,-0.0852 13.883748,-0.11582 14.218779,-0.17919 0.19448,-0.0371 2.836662,-0.083 5.871433,-0.1027 8.006852,-0.0524 12.775056,-0.10489 13.582106,-0.14641 0.389071,-0.0219 2.165902,-0.0524 3.948589,-0.0699 1.782644,-0.0218 3.266137,-0.0481 3.296686,-0.0656 0.03059,-0.0218 2.121345,-0.0503 4.646315,-0.0699 2.524969,-0.0218 5.092221,-0.0568 5.70501,-0.083 l 1.114155,-0.0481 0,1.88318 0,1.88297 -0.194481,0.0437 c -0.478793,0.10489 -0.758233,0.2266 -1.80668,0.77989 -1.448837,0.76437 -2.222366,1.2733 -2.762542,1.81719 -0.464874,0.46784 -3.481529,3.9709 -3.995745,4.63978 -0.168258,0.21895 -0.450167,0.70057 -0.626336,1.07008 -0.176125,0.36973 -0.49256,1.02485 -0.70308,1.45576 -0.539257,1.10417 -0.605687,1.49882 -0.618099,3.67306 -0.0087,1.45336 0.01311,1.87161 0.114941,2.34797 0.2641,1.22305 0.680769,2.2138 1.348099,3.205 0.650243,0.96607 2.424255,2.60145 3.366393,3.1036 0.916244,0.48839 2.419251,0.86446 4.002934,1.00191 0.949633,0.083 1.459391,0.0524 3.254053,-0.18356 0.427973,-0.0568 1.068353,-0.13329 1.423053,-0.17263 0.35472,-0.0371 0.85473,-0.14859 1.11116,-0.24474 0.25643,-0.0961 1.22361,-0.40294 2.14932,-0.6809 0.92568,-0.27795 2.34089,-0.77005 3.14486,-1.09324 0.80399,-0.32319 2.50705,-0.97459 3.78459,-1.44768 1.27756,-0.47309 2.39335,-0.90488 2.47954,-0.95995 0.14772,-0.094 0.19055,-0.0699 0.74278,0.42305 0.88369,0.78907 3.9716,4.04782 4.85354,5.12205 0.27092,0.32996 0.36597,0.50434 0.36597,0.67129 0,0.28363 -8.78895,22.87397 -8.96966,23.05468 -0.0728,0.0721 -1.27182,-0.64724 -4.04651,-2.43035 -0.87542,-0.56268 -1.83041,-1.16185 -2.12222,-1.33164 -0.64296,-0.37432 -1.25654,-0.82797 -1.34626,-0.99557 -0.12893,-0.2408 0.17307,-0.83146 1.10098,-2.15349 1.22684,-1.74814 7.50863,-11.20994 7.72562,-11.63671 0.48712,-0.95798 0.46367,-1.53115 -0.0734,-1.79359 -0.33257,-0.1617 -0.62892,-0.118 -1.03733,0.15733 -0.51553,0.34613 -0.57066,0.48926 -0.56257,1.45992 0.004,0.46697 -0.0175,0.90925 -0.0465,0.98267 -0.11887,0.2974 -2.87855,4.47808 -3.07526,4.65901 -0.2788,0.2561 -0.33566,0.24583 -0.39025,-0.0699 -0.15383,-0.89287 -0.96799,-3.66105 -1.12895,-3.83892 -0.16017,-0.177 -0.44199,-0.177 -0.67098,0 l -0.17678,0.13548 0.0197,1.5069 c 0.0109,0.82884 0.0535,2.04794 0.0951,2.7094 0.0872,1.38868 0.0376,2.14322 -0.16738,2.5466 -0.0791,0.15515 -0.37146,0.52182 -0.64963,0.81354 -0.64292,0.67435 -1.41141,1.527 -3.25193,3.60772 -0.80876,0.91428 -1.535419,1.73503 -1.614807,1.82375 -0.07932,0.0896 -0.156458,0.14859 -0.171536,0.1333 -0.0153,-0.0219 0.13264,-2.47166 0.327886,-5.45944 0.195354,-2.98779 0.355091,-5.58597 0.355091,-5.77389 l 0,-0.34176 -0.229903,0.0415 c -0.553373,0.0983 -0.781287,0.52334 -1.052183,1.96316 -0.156022,0.82949 -0.494571,2.37397 -1.536702,7.012 -0.349716,1.55628 -0.721545,3.25919 -0.826324,3.78451 -0.301183,1.50995 -0.4109,1.80189 -0.835392,2.22341 -0.200818,0.19885 -0.810853,0.66233 -1.355574,1.02856 -0.86983,0.58476 -3.025592,2.12334 -6.306086,4.50059 l -1.000569,0.72504 3.518415,-10.55286 c 1.935125,-5.80383 3.539546,-10.66518 3.565353,-10.80263 0.04654,-0.24824 0.04414,-0.25086 -0.272863,-0.33565 -0.507463,-0.13548 -0.929311,-0.11144 -1.10572,0.0656 -0.190329,0.19011 -0.944848,1.76934 -1.617947,3.38571 -0.283527,0.68068 -2.09071,4.83492 -4.016002,9.23149 -1.925292,4.39657 -3.611198,8.2722 -3.74646,8.61265 l -0.245919,0.61884 -0.57586,0 c -0.316719,0 -0.798681,-0.0525 -1.071019,-0.10708 z m 87.264381,-1.7311 c -0.17153,-0.0328 -0.3861,-0.13111 -0.47683,-0.21633 -0.18574,-0.17481 -0.86109,-1.53771 -1.0503,-2.11984 -0.0682,-0.20978 -1.43774,-3.51704 -3.0434,-7.3494 -1.60567,-3.83236 -3.10094,-7.41364 -3.3228,-7.9584 -0.9709,-2.38359 -1.31213,-3.10011 -1.55076,-3.25635 -0.15427,-0.10052 -0.19382,-0.10052 -0.43616,2.2e-4 -0.47073,0.19666 -0.46957,0.19229 -0.20475,0.90881 0.30184,0.81769 4.50422,13.43555 5.23465,15.71731 0.51088,1.59561 0.71132,2.5112 0.54986,2.5112 -0.038,0 -1.56255,-0.56071 -3.38765,-1.24599 -1.82511,-0.68527 -3.88492,-1.44658 -4.57736,-1.69176 -0.69246,-0.24517 -1.3364,-0.49669 -1.43102,-0.55853 -0.33879,-0.22201 -0.4942,-0.74645 -0.70411,-2.37572 -0.21882,-1.69832 -2.16975,-12.97972 -2.27225,-13.13946 -0.0736,-0.11362 -0.17067,-0.15951 -0.34653,-0.15951 -0.46728,0 -0.51004,0.20759 -0.43052,2.08684 0.0264,0.62255 0.0806,2.5324 0.12084,4.24448 0.0402,1.71187 0.0966,3.59003 0.12543,4.17347 0.0288,0.58366 0.0404,1.08515 0.0256,1.11444 -0.0153,0.0284 -0.79077,-0.67107 -1.72447,-1.55629 -0.93368,-0.88521 -2.05852,-1.93409 -2.49962,-2.33092 -0.4411,-0.39683 -0.8671,-0.81289 -0.94666,-0.92477 -0.26338,-0.36973 -0.32164,-0.78994 -0.23591,-1.70094 0.0428,-0.45451 0.13242,-1.96141 0.19907,-3.34856 0.13854,-2.87766 0.14859,-2.80511 -0.41171,-2.94736 -0.16782,-0.0437 -0.32258,-0.0546 -0.34399,-0.0284 -0.0219,0.0284 -0.0986,0.23381 -0.17176,0.45845 -0.073,0.22485 -0.5214,1.14219 -0.99644,2.03877 l -0.86367,1.63036 -0.422,-0.58869 c -0.6328,-0.88259 -1.21318,-1.76496 -1.78312,-2.71093 -0.41195,-0.68352 -0.50491,-0.89024 -0.47753,-1.06112 0.0197,-0.11581 0.2183,-0.53034 0.44364,-0.91952 0.46607,-0.8048 0.49457,-0.98682 0.23398,-1.49422 -0.19797,-0.38547 -0.33562,-0.44163 -0.74844,-0.30527 -0.35002,0.11581 -1.14044,0.92302 -1.38665,1.41643 -0.35694,0.71564 -0.36066,0.69707 0.48402,2.4345 0.41612,0.85594 1.106,2.38403 1.5331,3.39555 0.71923,1.70356 0.82464,1.907 1.42853,2.75878 0.35859,0.50587 1.53083,2.16114 2.60497,3.67852 1.07415,1.51739 2.00232,2.81385 2.06263,2.88115 0.0603,0.0677 0.0937,0.16389 0.0745,0.21415 -0.0197,0.0503 -1.47504,0.94618 -3.23476,1.99026 -1.75972,1.04429 -3.28576,1.95879 -3.39117,2.03199 -0.10533,0.0743 -0.23345,0.1333 -0.28449,0.1333 -0.0583,0 -1.00837,-2.45985 -2.5612,-6.63179 -1.35763,-3.64749 -3.33672,-8.95375 -4.39804,-11.79186 l -1.92964,-5.15963 0.96867,-1.02332 c 0.53274,-0.56268 2.11669,-2.18648 3.51981,-3.60838 l 2.55119,-2.58528 0.3509,0.21634 c 0.50788,0.31248 2.5943,1.22435 3.74427,1.63647 1.7606,0.63086 4.84323,1.4101 6.18846,1.56393 0.92944,0.10708 5.21925,0.16608 6.2722,0.0896 1.46985,-0.10925 2.95953,-0.63719 4.37319,-1.54928 0.9969,-0.64332 1.8617,-1.70488 2.51533,-3.08788 0.37454,-0.79234 0.50119,-1.28313 0.66805,-2.58855 0.0623,-0.4862 0.17285,-1.25036 0.24575,-1.69767 0.33525,-2.05515 0.27273,-2.39211 -0.88609,-4.77504 -0.88301,-1.81566 -1.82215,-3.16785 -2.97639,-4.28513 -1.14865,-1.11203 -2.14033,-1.72694 -3.75978,-2.33136 -1.35938,-0.5074 -1.60943,-0.64222 -1.67435,-0.90204 -0.0264,-0.10489 -0.0656,-1.11247 -0.0872,-2.2374 l -0.0391,-2.0451 1.58254,0.0481 c 0.87042,0.0262 2.37131,0.0765 3.33532,0.11144 1.06423,0.0393 1.84213,0.0371 1.98025,0 0.32564,-0.094 1.2761,-0.0765 2.42139,0.0415 0.68359,0.0699 1.87786,0.1027 3.85535,0.10707 1.57573,0 3.97912,0.0503 5.34088,0.10708 1.36175,0.0568 4.70422,0.13548 7.42771,0.17263 2.72349,0.0371 6.0978,0.10052 7.49845,0.13985 5.4861,0.15733 8.26691,0.21633 13.36988,0.28495 6.49456,0.0874 11.19865,0.18574 15.52749,0.32318 1.80917,0.0568 5.51771,0.13548 8.24121,0.17045 2.72349,0.0371 7.14829,0.11581 9.83289,0.17481 2.68457,0.059 6.45437,0.13985 8.37728,0.18137 3.35634,0.0699 3.6839,0.0961 3.6839,0.28495 0,0.0306 -0.13657,0.13548 -0.30337,0.23315 -0.16694,0.0983 -0.73188,0.57165 -1.25564,1.05326 -0.52375,0.48139 -2.0346,1.81304 -3.35744,2.95894 -1.32284,1.14591 -2.79433,2.44084 -3.27,2.87766 -0.47565,0.4366 -0.99279,0.87473 -1.14916,0.9735 -0.4796,0.30264 -1.09543,0.34525 -3.17521,0.21939 -0.99773,-0.0612 -4.12194,-0.15952 -6.94272,-0.21852 -2.82075,-0.059 -5.79716,-0.13985 -6.6142,-0.177 -0.81705,-0.0371 -3.3637,-0.11581 -5.6592,-0.17481 -2.29553,-0.059 -6.59298,-0.18574 -9.54992,-0.2808 -2.95696,-0.0962 -5.94925,-0.19229 -6.64957,-0.21415 -0.70033,-0.0218 -3.27882,-0.0874 -5.72997,-0.14422 -4.87362,-0.11363 -7.60281,-0.19448 -11.8136,-0.35487 -1.51736,-0.0568 -4.05606,-0.12455 -5.64153,-0.15078 l -2.88266,-0.0459 0,0.25567 c 0,0.2336 0.0197,0.25894 0.22992,0.29369 0.12652,0.0218 1.71014,0.16826 3.51931,0.32537 2.3417,0.20541 4.2779,0.32668 6.72031,0.42283 1.88701,0.0743 3.55823,0.16389 3.71386,0.20104 0.15558,0.0371 0.58829,0.0874 0.96148,0.11144 0.37316,0.0262 0.84568,0.0896 1.05004,0.14422 0.26676,0.0699 0.61408,0.0874 1.23147,0.059 0.61043,-0.0284 1.08073,0 1.62084,0.0743 1.48524,0.22332 2.79907,0.32952 4.57999,0.37017 1.4314,0.0328 2.01429,0.0765 2.82307,0.21196 0.56056,0.094 1.21708,0.17044 1.45896,0.17044 0.24187,0 0.57039,0.0459 0.73006,0.10271 0.35053,0.12455 0.73086,0.16388 2.34487,0.25217 0.68088,0.0371 1.68361,0.11362 2.22831,0.17044 0.5447,0.0568 1.64295,0.13766 2.44054,0.18355 0.79761,0.0437 2.26192,0.18793 3.25405,0.31926 3.01819,0.4001 4.62147,0.54891 10.2927,0.9547 6.68797,0.47834 12.57666,0.98683 12.68511,1.09521 0.0516,0.0524 0.14357,-0.035 -3.52427,3.36364 -1.69246,1.56852 -3.58653,3.35009 -4.20904,3.95888 -1.56454,1.53006 -2.09906,1.91006 -2.68639,1.91006 -0.13766,0 -3.85526,-0.6195 -8.26118,-1.37688 -7.9324,-1.36333 -14.21752,-2.44193 -32.82177,-5.6325 -5.281,-0.90576 -9.62206,-1.62643 -9.64682,-1.60174 -0.0247,0.024 -0.0236,0.15952 0.002,0.29937 0.0828,0.44163 0.44014,0.58891 2.40981,0.99382 0.66143,0.13548 3.36725,0.72286 6.01293,1.30455 2.64568,0.58147 9.56936,2.09121 15.38597,3.35512 17.97326,3.90534 21.58518,4.69441 22.3539,4.88386 0.40852,0.10052 0.99742,0.20322 1.30868,0.22617 0.76863,0.059 0.83316,0.10052 0.53285,0.35356 -0.13176,0.11144 -0.8785,0.80895 -1.65951,1.55147 -0.78098,0.74274 -2.35904,2.22014 -3.50681,3.28323 -1.14776,1.06309 -2.36339,2.19828 -2.70142,2.52278 -0.84741,0.81332 -0.77078,0.8166 -3.24074,-0.13985 -0.56417,-0.21852 -2.47415,-0.92039 -4.24443,-1.56021 -1.77027,-0.63982 -5.5584,-2.01211 -8.41808,-3.04963 -2.85967,-1.03774 -7.55504,-2.74131 -10.43416,-3.78582 -2.87912,-1.04473 -6.55585,-2.37616 -8.17048,-2.95916 -1.61465,-0.58279 -3.33364,-1.21846 -3.81997,-1.4125 -1.05419,-0.42021 -1.78164,-0.6514 -2.05107,-0.6514 -0.3189,0 -0.51485,0.20978 -0.51485,0.55088 0,0.54324 0.33508,0.83365 1.45935,1.26478 0.35572,0.13548 2.01558,0.84938 3.6886,1.58425 1.67299,0.73488 9.40844,4.12059 17.18985,7.524 8.73078,3.81859 14.15642,6.22818 14.16994,6.29286 0.0332,0.15952 -0.77434,0.93242 -1.68431,1.61288 -0.44744,0.33455 -2.38925,1.86876 -4.31516,3.40953 -3.4364,2.74895 -4.05341,3.20084 -4.15801,3.04548 -0.028,-0.0415 -1.86551,-1.20163 -4.0832,-2.57764 -7.09194,-4.40028 -9.11976,-5.65829 -12.73323,-7.89962 -7.70353,-4.77789 -9.99094,-6.20677 -10.39833,-6.49543 -0.50436,-0.35728 -0.90562,-0.56553 -1.22074,-0.63348 l -0.22991,-0.0503 0,0.31226 c 0,0.29325 0.0291,0.34023 0.47751,0.76962 0.48355,0.46303 2.40684,2.12202 5.81837,5.01869 13.60975,11.55564 15.67745,13.297 17.02678,14.34042 0.93221,0.72089 1.15351,0.94028 1.15335,1.14394 -4e-5,0.0656 -0.2113,0.20322 -0.54823,0.354 -0.30149,0.13548 -0.96198,0.49691 -1.46779,0.80371 -0.79898,0.48445 -6.74799,3.85443 -7.48077,4.23749 -0.14597,0.0765 -0.26526,0.16826 -0.26526,0.20322 0,0.17481 -0.19841,0.024 -0.3694,-0.27926 -0.10598,-0.18793 -0.42517,-0.61032 -0.70948,-0.93723 -0.63742,-0.7329 -3.17336,-3.72681 -8.4731,-10.00307 -2.2341,-2.64559 -4.62119,-5.44699 -5.30467,-6.22513 -1.98814,-2.2634 -3.37417,-3.97177 -3.47991,-4.28884 -0.0197,-0.0568 -0.6259,0.0437 -0.75199,0.12456 -0.0131,0 0.10227,0.18574 0.25667,0.39202 0.15449,0.20759 0.5437,0.83845 0.86514,1.40266 0.32139,0.56399 2.58207,4.35221 5.02369,8.41795 2.44163,4.06574 5.21827,8.70224 6.17032,10.30332 l 1.73099,2.91087 -1.13994,0.0415 c -2.04583,0.0721 -9.40855,0.1027 -9.72842,0.0393 z m -48.15754,-30.35972 c -0.19863,-0.20541 -0.60793,-0.68964 -0.90938,-1.07882 -0.43747,-0.56465 -3.41584,-4.20275 -5.36937,-6.55881 l -0.34903,-0.42086 0.33868,-0.68374 c 1.13849,-2.29859 2.26655,-3.70759 3.57075,-4.46038 l 0.64701,-0.37345 0.29912,0.177 c 0.16455,0.0961 0.53786,0.38088 0.82967,0.63064 0.68429,0.58563 4.58476,3.73228 4.80931,3.87978 l 0.17132,0.11363 -0.1545,0.57711 c -0.085,0.3175 -0.37556,1.1105 -0.64576,1.76212 -0.27024,0.65162 -0.87907,2.18758 -1.35304,3.41324 -0.89596,2.31694 -1.36086,3.39555 -1.46343,3.39555 -0.033,0 -0.22265,-0.16608 -0.42137,-0.37148 z m 10.28075,-0.38722 c -0.0553,-0.10707 -0.23558,-0.5146 -0.40052,-0.90378 -0.48872,-1.15268 -2.02509,-4.58406 -2.58144,-5.76537 -0.28405,-0.60289 -0.53383,-1.19529 -0.5551,-1.31591 -0.0385,-0.21896 -0.0304,-0.22529 2.91094,-2.2704 1.62225,-1.12798 3.23135,-2.23674 3.57575,-2.46422 0.34441,-0.22748 0.7816,-0.55307 0.97153,-0.72395 l 0.34535,-0.31051 0.33715,0.16389 c 0.44953,0.21961 1.40764,1.17322 1.81682,1.80845 0.71872,1.11553 1.17309,2.35474 1.17309,3.19931 0,0.62911 -0.23054,0.99885 -1.33938,2.14781 -0.53229,0.55154 -2.02835,2.16463 -3.32459,3.58478 -1.29625,1.42014 -2.46304,2.68623 -2.59287,2.81363 l -0.23606,0.23185 -0.10074,-0.19667 z m -28.74326,-4.85676 c -0.0712,-0.0918 -0.94144,-1.05064 -1.933576,-2.12902 -0.992135,-1.07817 -1.880802,-2.07045 -1.97483,-2.20462 -0.221467,-0.31642 -0.220746,-0.62081 0.0021,-0.84348 0.09505,-0.0961 0.601819,-0.36012 1.125955,-0.58891 0.524136,-0.22878 1.711861,-0.76896 2.639451,-1.20031 l 1.68647,-0.78448 1.10775,0.57339 c 0.60927,0.31532 1.42828,0.76022 1.82004,0.98857 0.39173,0.22835 0.76577,0.41519 0.83119,0.41519 0.0682,0 0.11888,0.0546 0.11888,0.12892 0,0.10052 -0.4422,0.33717 -1.98032,1.05741 -2.06298,0.96628 -2.87387,1.42757 -3.09084,1.75863 -0.11297,0.17263 -0.12827,0.36295 -0.12827,1.59583 0,0.77027 -0.0219,1.40048 -0.0472,1.40048 -0.026,0 -0.10554,-0.0765 -0.17678,-0.16826 z m 48.09613,-0.76897 c -0.28733,-0.73291 -0.56456,-1.7088 -0.66832,-2.3519 -0.0439,-0.27249 -0.13001,-0.54586 -0.19142,-0.60792 -0.0844,-0.0852 -0.7156,-0.18574 -2.58753,-0.41278 -2.6738,-0.32428 -2.74305,-0.33564 -2.70756,-0.44206 0.0131,-0.0393 0.89249,-0.81048 1.95433,-1.71427 l 1.9306,-1.64325 0.47242,0.0634 c 0.78163,0.10489 4.50117,1.1116 4.83531,1.30914 0.25964,0.15296 0.37694,0.45845 0.37554,0.97655 -9.4e-4,0.37127 -0.05,0.52925 -0.3613,1.16732 -0.431,0.88303 -2.63195,4.23946 -2.78004,4.23946 -0.0238,0 -0.14619,-0.26266 -0.27197,-0.58366 z m -10.1561,-1.66226 c -0.0175,-0.0284 -0.151,-0.83299 -0.29621,-1.78616 -0.22776,-1.49532 -0.29604,-1.80146 -0.4973,-2.22975 -0.67718,-1.44091 -2.44726,-3.31797 -3.75736,-3.98401 -0.16214,-0.083 -0.84315,-0.2773 -1.51323,-0.43289 -0.67009,-0.15515 -1.29341,-0.33193 -1.38517,-0.39202 -0.19251,-0.12674 -0.20431,-0.29784 -0.0728,-1.06112 0.0819,-0.47571 0.0935,-0.49603 0.29631,-0.51548 0.11603,-0.0218 3.1078,0.22179 6.64835,0.51767 3.54055,0.29587 6.89892,0.57557 7.46309,0.62146 l 1.02572,0.083 0.05,1.29908 c 0.0378,0.98399 0.0291,1.32007 -0.0363,1.3854 -0.0474,0.0481 -0.26869,0.10708 -0.49162,0.1333 -1.88067,0.22114 -3.71049,1.88449 -4.79318,4.35724 -0.20191,0.46129 -0.46265,0.95448 -0.57934,1.09608 -0.23739,0.28801 -0.70102,0.54498 -1.4305,0.79322 -0.53838,0.18355 -0.58331,0.19011 -0.63042,0.11363 z m -27.28187,-1.42299 c 0,-0.0328 -2.17977,-1.29886 -4.84394,-2.81188 -2.66419,-1.51301 -4.84475,-2.7861 -4.84571,-2.82936 -9.4e-4,-0.0437 0.38494,-0.86795 0.85757,-1.83227 l 0.8593,-1.7536 1.17446,0.0459 c 0.64596,0.0262 1.52464,0.0765 1.95263,0.11582 0.42797,0.0371 2.6563,0.18137 4.95181,0.31882 2.29552,0.13766 4.79442,0.29783 5.55309,0.3553 0.75869,0.0568 1.46698,0.10489 1.57398,0.10489 l 0.19448,0 0,0.53756 c 0,0.51395 -0.0109,0.54804 -0.23335,0.77093 -0.18334,0.18355 -0.4243,0.29456 -1.12425,0.51832 -1.0781,0.3446 -1.29598,0.45233 -2.02089,0.99841 -1.42522,1.07401 -2.70451,2.81035 -3.56055,4.83229 -0.17001,0.40185 -0.33306,0.68986 -0.39032,0.68986 -0.054,0 -0.0983,-0.0284 -0.0983,-0.0612 z m -3.84169,-4.88299 c 0.53061,-0.38437 0.71873,-0.76044 0.62645,-1.2521 -0.0826,-0.43988 -0.71309,-0.91952 -1.31495,-1.00016 -0.21568,-0.0284 -0.32522,0 -0.5817,0.18137 -0.82724,0.56924 -0.74083,1.63626 0.16914,2.08969 0.48412,0.24124 0.74792,0.23665 1.10098,-0.0219 z"
       id="path4158"
       inkscape:connector-curvature="0" />
  </g>
</svg>
