<?xml version="1.0" encoding="UTF-8" standalone="no"?>
<!-- Creator: CorelDRAW X5 -->

<svg
   xmlns:dc="http://purl.org/dc/elements/1.1/"
   xmlns:cc="http://creativecommons.org/ns#"
   xmlns:rdf="http://www.w3.org/1999/02/22-rdf-syntax-ns#"
   xmlns:svg="http://www.w3.org/2000/svg"
   xmlns="http://www.w3.org/2000/svg"
   xmlns:sodipodi="http://sodipodi.sourceforge.net/DTD/sodipodi-0.dtd"
   xmlns:inkscape="http://www.inkscape.org/namespaces/inkscape"
   xml:space="preserve"
   width="256"
   height="256"
   style="fill-rule:evenodd"
   viewBox="0 0 7224.8888 7224.8894"
   id="svg2"
   version="1.1"
   inkscape:version="0.91 r13725"
   sodipodi:docname="xan_st_cardassian.svg"
   inkscape:export-filename="D:\dev\XansSciFiMashup\raw\flags\map\xan_st_cardassian.png"
   inkscape:export-xdpi="90"
   inkscape:export-ydpi="90"><metadata
     id="metadata21"><rdf:RDF><cc:Work
         rdf:about=""><dc:format>image/svg+xml</dc:format><dc:type
           rdf:resource="http://purl.org/dc/dcmitype/StillImage" /><dc:title></dc:title></cc:Work></rdf:RDF></metadata><sodipodi:namedview
     pagecolor="#008997"
     bordercolor="#666666"
     borderopacity="1"
     objecttolerance="10"
     gridtolerance="10"
     guidetolerance="10"
     inkscape:pageopacity="0"
     inkscape:pageshadow="2"
     inkscape:window-width="1920"
     inkscape:window-height="1017"
     id="namedview19"
     showgrid="false"
     inkscape:zoom="2.058055"
     inkscape:cx="89.804605"
     inkscape:cy="155.61416"
     inkscape:window-x="1272"
     inkscape:window-y="-8"
     inkscape:window-maximized="1"
     inkscape:current-layer="svg2" /><defs
     id="defs4"><style
       type="text/css"
       id="style6">
   
    .fil1 {fill:#DFEAE9}
    .fil0 {fill:url(#id0)}
   
  </style></defs><path
     style="fill:#ffffff;fill-opacity:1"
     inkscape:connector-curvature="0"
     id="path17"
     d="m 3612.4445,4244.4209 -58.6889,0 c 0,0 -77.2972,-115.9457 -230.4603,-349.2693 -95.9058,-498.1381 -234.7545,-1040.6494 -416.5461,-1627.5364 0,0 25.7657,-204.6936 75.8659,-615.5147 0,0 58.6886,-38.6483 174.6345,-117.3768 0,0 134.5543,31.4911 403.6634,95.9052 0,0 2.8628,12.8834 10.0199,38.6491 0,0 -91.6115,45.8056 -276.2659,138.8486 0,0 -51.5317,158.8888 -153.1632,478.0972 0,0 40.08,52.9638 118.8085,158.8891 0,0 98.7689,526.766 297.7376,1580.2989 0,0 18.6087,0 54.3946,0 35.7856,0 54.3942,0 54.3942,0 198.9688,-1053.5329 297.7374,-1580.2989 297.7374,-1580.2989 78.7288,-105.9253 118.8088,-158.8891 118.8088,-158.8891 -101.6315,-319.2084 -153.1632,-478.0972 -153.1632,-478.0972 -184.6542,-93.043 -276.2659,-138.8486 -276.2659,-138.8486 7.1573,-25.7657 10.0201,-38.6491 10.0201,-38.6491 269.1089,-64.4141 403.6632,-95.9052 403.6632,-95.9052 115.9457,77.2976 174.6345,117.3768 174.6345,117.3768 51.5315,410.8211 75.8659,615.5147 75.8659,615.5147 -181.7916,585.4559 -322.0718,1127.9674 -416.5463,1627.5364 -153.1631,233.3236 -230.4601,349.2693 -230.4601,349.2693 l -58.6886,0 z m 0,-1869.4482 -143.1432,0 c 0,0 -27.1973,-48.6687 -81.5913,-146.0058 0,0 15.7457,-107.3575 48.6684,-323.5034 0,0 40.08,-42.9424 121.6715,-127.3969 -1.4312,-34.3542 -1.4312,-52.9628 -1.4312,-52.9628 -140.2804,94.4741 -210.4205,140.2804 -210.4205,140.2804 -75.8657,276.266 -113.0829,413.6833 -113.0829,413.6833 71.5714,88.7478 107.3573,131.6913 107.3573,131.6913 153.1629,794.4437 230.4603,1190.9495 230.4603,1190.9495 l 41.5116,0 41.5113,0 c 0,0 77.2974,-396.5058 230.4603,-1190.9495 0,0 35.7857,-44.3744 107.3573,-131.6913 0,0 -37.2172,-137.4173 -113.0831,-413.6833 0,0 -70.1399,-47.2374 -210.42,-140.2804 0,0 0,17.1767 -1.4316,52.9628 81.5914,84.4545 121.6714,127.3969 121.6714,127.3969 32.9231,216.1459 48.6686,323.5034 48.6686,323.5034 -54.3942,97.3371 -81.5915,146.0058 -81.5915,146.0058 l -143.1427,0 z m -1199.5387,-8.5883 c -108.7886,0 -196.1059,87.3168 -196.1059,196.1064 0,108.7884 87.3173,196.1053 196.1059,196.1053 108.7888,0 196.106,-87.3169 196.106,-196.1053 0,-108.7896 -87.3172,-196.1064 -196.106,-196.1064 z m 1199.5387,3399.6468 c 0,0 -41.5116,91.6119 -123.1031,274.8349 0,0 -21.4714,300.6006 -65.8458,901.801 0,0 -15.7458,0 -47.2373,0 0,0 -85.8859,-385.0554 -257.6574,-1155.1643 307.7576,-21.4716 472.3721,-223.3032 495.2749,-604.0634 21.4714,380.7602 187.5173,581.1596 495.2746,604.0634 -171.7713,770.1089 -257.6572,1155.1643 -257.6572,1155.1643 -31.4915,0 -47.2373,0 -47.2373,0 -44.3744,-601.2004 -65.8456,-901.801 -65.8456,-901.801 -83.0232,-183.223 -123.103,-274.8349 -123.103,-274.8349 z m 0,-730.0298 c -10.0202,0 -15.7458,2.8633 -17.1773,8.5885 -71.5716,352.1323 -178.9289,543.9435 -320.6406,572.5725 0,0 12.8832,-181.7908 38.6487,-543.9438 0,0 83.0231,-163.1831 246.2062,-485.2544 l 52.963,0 52.9627,0 c 163.1831,322.0713 246.2062,485.2544 246.2062,485.2544 25.7657,362.153 38.6485,543.9438 38.6485,543.9438 -141.7115,-28.629 -247.6375,-220.4402 -320.6404,-572.5725 -1.4315,-5.7252 -7.1571,-8.5885 -17.177,-8.5885 z m 0,-521.0408 -93.043,0 c 0,0 -67.2773,113.0838 -203.2634,339.25 0,0 -31.4913,-273.4038 -93.043,-821.6414 0,0 101.6319,98.7682 304.8948,294.8745 0,0 28.6288,0 84.4546,0 57.2571,0 84.4541,0 84.4541,0 203.2631,-196.1063 304.8947,-294.8745 304.8947,-294.8745 -61.5514,548.2376 -93.043,821.6414 -93.043,821.6414 -135.9858,-226.1662 -203.2631,-339.25 -203.2631,-339.25 l -93.0427,0 z M 5496.2066,2327.7362 c 10.0199,37.2172 20.0398,74.4344 30.0602,113.0826 -473.8038,251.9322 -926.1354,665.6155 -1355.5648,1241.05 l 274.8347,-876.0353 472.3719,-68.7092 8.5887,-1.4311 7.1571,-5.725 562.5522,-402.232 z M 3612.4445,1058.0572 c 0,0 -164.6146,-125.96611 -493.8436,-376.46614 0,0 34.3542,138.84842 101.6314,416.54664 0,0 83.0231,27.1968 247.6377,81.5915 0,0 18.6084,120.24 54.3943,362.1519 0,0 -131.6918,-31.4921 -393.6435,-94.4752 0,0 -77.2972,55.8258 -233.3231,166.0463 0,0 -40.08,213.283 -121.6713,641.2806 0,0 1.4313,180.3598 2.8628,539.6494 0,0 93.0428,296.3055 277.6975,887.4866 -429.4291,-574.0034 -881.7612,-987.6869 -1355.5646,-1241.05 183.2232,-744.3438 529.6292,-1183.793 1040.6499,-1318.3476 163.1828,-32.9228 240.48,-100.199 233.3229,-203.26244 35.7859,-426.56673 249.0689,-636.98652 639.8496,-636.98652 390.7803,0 604.0634,211.85174 639.8491,636.98652 -7.1572,103.06344 71.5716,170.33964 233.3231,203.26244 465.2148,123.1031 794.444,498.1384 987.6869,1126.5364 l -576.8664,412.2512 -448.0375,65.8462 2.8626,-472.3722 c -81.5913,-426.5656 -121.6715,-641.2806 -121.6715,-641.2806 -156.0257,-110.2205 -233.323,-166.0463 -233.323,-166.0463 -261.9519,62.9831 -393.6434,94.4752 -393.6434,94.4752 35.7859,-241.9119 54.3945,-362.1519 54.3945,-362.1519 164.6144,-54.3947 247.6372,-81.5915 247.6372,-81.5915 67.2773,-277.69822 101.6317,-416.54664 101.6317,-416.54664 -329.229,250.50003 -493.8433,376.46614 -493.8433,376.46614 z"
     class="fil1" /></svg>