<?xml version="1.0" encoding="UTF-8" standalone="no"?>
<!-- Created with Inkscape (http://www.inkscape.org/) -->

<svg
   xmlns:dc="http://purl.org/dc/elements/1.1/"
   xmlns:cc="http://creativecommons.org/ns#"
   xmlns:rdf="http://www.w3.org/1999/02/22-rdf-syntax-ns#"
   xmlns:svg="http://www.w3.org/2000/svg"
   xmlns="http://www.w3.org/2000/svg"
   xmlns:sodipodi="http://sodipodi.sourceforge.net/DTD/sodipodi-0.dtd"
   xmlns:inkscape="http://www.inkscape.org/namespaces/inkscape"
   width="256"
   height="256"
   viewBox="0 0 256 256"
   id="svg2"
   version="1.1"
   inkscape:version="0.91 r13725"
   sodipodi:docname="xan_w4_darkEldar.svg"
   inkscape:export-filename="D:\dev\XansSciFiMashup\raw\flags\map\xan_w4_darkEldar.png"
   inkscape:export-xdpi="90"
   inkscape:export-ydpi="90">
  <defs
     id="defs4" />
  <sodipodi:namedview
     id="base"
     pagecolor="#3f0181"
     bordercolor="#666666"
     borderopacity="1.0"
     inkscape:pageopacity="0"
     inkscape:pageshadow="2"
     inkscape:zoom="1.2596663"
     inkscape:cx="81.54222"
     inkscape:cy="93.10076"
     inkscape:document-units="px"
     inkscape:current-layer="layer1"
     showgrid="false"
     inkscape:window-width="1920"
     inkscape:window-height="1017"
     inkscape:window-x="1272"
     inkscape:window-y="-8"
     inkscape:window-maximized="1"
     units="px"
     showguides="false" />
  <metadata
     id="metadata7">
    <rdf:RDF>
      <cc:Work
         rdf:about="">
        <dc:format>image/svg+xml</dc:format>
        <dc:type
           rdf:resource="http://purl.org/dc/dcmitype/StillImage" />
        <dc:title></dc:title>
      </cc:Work>
    </rdf:RDF>
  </metadata>
  <g
     inkscape:label="Ebene 1"
     inkscape:groupmode="layer"
     id="layer1"
     transform="translate(0,-796.3622)">
    <path
       style="fill:#000000"
       d=""
       id="path4147"
       inkscape:connector-curvature="0" />
    <path
       style="fill:#000000"
       d=""
       id="path4145"
       inkscape:connector-curvature="0" />
    <path
       style="opacity:0.98999999;fill:#ffffff;fill-opacity:1;stroke:none;stroke-width:35.43307114;stroke-miterlimit:4;stroke-dasharray:none;stroke-dashoffset:0;stroke-opacity:1"
       d="m 152.56223,806.36482 c -0.38935,-0.0568 0.15408,0.77859 1.97678,3.74239 0.77105,1.25366 1.7264,3.45176 2.12307,4.88461 0.39666,1.43284 1.65235,5.09656 2.78962,8.14122 1.13727,3.04487 2.89519,8.61344 3.90648,12.37463 1.01129,3.76118 2.29607,8.44037 2.85579,10.39898 0.55972,1.95882 1.01765,4.49345 1.01765,5.63282 0,1.13937 0.87924,3.7437 1.95386,5.78644 2.17822,4.14097 2.42443,5.53601 0.97697,5.53601 -0.53732,0 -1.00889,0.0721 -1.04818,0.1617 -0.0393,0.0896 -0.31441,3.97294 -0.61186,8.62984 -0.29747,4.65668 -0.73972,9.27272 -0.98204,10.25782 -0.33298,1.35352 -0.20147,1.79099 0.5368,1.79099 0.5373,0 1.1355,-0.60727 1.32931,-1.34827 0.28276,-1.08146 0.77935,-1.30654 2.51738,-1.13981 2.06188,0.19886 2.15906,0.32604 2.02259,2.65088 -0.0789,1.34347 0.14095,2.44241 0.48848,2.44241 0.3475,0 0.63221,0.90555 0.63221,2.01368 0,1.42366 0.35951,2.1096 1.22371,2.33555 1.46801,0.38394 2.68406,2.82788 2.68406,5.39354 0,1.72172 -0.32645,1.97237 -4.20671,3.2258 -2.31372,0.74756 -4.95145,1.35986 -5.86165,1.35986 -0.91017,0 -1.65493,0.29326 -1.65493,0.65119 0,1.31528 -2.41824,0.6029 -3.11021,-0.91582 -0.39255,-0.86141 -1.6117,-2.09649 -2.70947,-2.74506 -2.08949,-1.23443 -2.47355,-2.69568 -1.29113,-4.90492 1.03981,-1.94288 0.27506,-2.20117 -2.63444,-0.88917 -3.3695,1.51938 -12.88967,1.13347 -16.32814,-0.66277 -1.24195,-0.64879 -3.15912,-1.12364 -4.26141,-1.05458 -3.99626,0.25042 -6.45463,-4.99146 -8.65635,-18.46132 -1.298,-7.94128 -4.97808,-19.48859 -6.00793,-18.85203 -0.32552,0.20104 -0.59151,2.81826 -0.59151,5.81462 0,5.39747 -0.17025,6.63299 -2.36476,17.16637 -0.92352,4.43291 -0.98131,5.67258 -0.3142,6.74072 0.51986,0.83256 0.66215,2.23394 0.38926,3.84924 -0.35029,2.07333 -0.69962,2.54031 -1.89665,2.54031 -1.41926,0 -2.97788,2.178 -2.97788,4.16217 0,0.4648 -0.58616,1.37669 -1.30259,2.02526 -0.80803,0.73117 -1.30259,2.00536 -1.30259,3.3567 0,1.7191 -0.26485,2.17909 -1.25806,2.17909 -0.69228,0 -1.44537,-0.58607 -1.67276,-1.3026 -0.51801,-1.63214 -1.11926,-1.64284 -2.56702,-0.0437 -0.62732,0.69315 -2.4081,1.85678 -3.95737,2.58489 -1.54927,0.72833 -3.00386,1.62623 -3.232302,1.99575 -0.228446,0.36974 -1.716542,0.67174 -3.307354,0.67174 -1.590811,0 -2.892657,0.29325 -2.892657,0.65119 0,0.35837 -0.715687,0.65141 -1.590076,0.65141 -1.893677,0 -2.825285,1.1492 -1.381453,1.70315 0.560022,0.21415 1.017646,0.7987 1.017646,1.29758 0,1.61509 -5.338752,1.13828 -8.078842,-0.72112 -1.319632,-0.8955 -2.680115,-1.62842 -3.022416,-1.62842 -0.342306,0 -0.622031,-0.40317 -0.622031,-0.89659 0,-0.49364 -0.454406,-1.27398 -1.01002,-1.73506 -1.307765,-1.08539 -0.982237,-4.49825 0.519003,-5.43833 0.838756,-0.52511 1.477826,-0.49998 2.433449,0.0962 1.369815,0.85573 3.919213,1.10484 3.919213,0.38307 0,-0.23491 -0.752023,-1.41362 -1.671485,-2.6192 -0.941044,-1.23377 -1.581564,-2.82591 -1.465412,-3.64318 0.168546,-1.18592 0.593694,-1.43459 2.322781,-1.35614 2.015604,0.0918 2.615005,-0.35772 1.698197,-1.27442 -0.520143,-0.52008 -3.481309,-7.73521 -3.485439,-8.49238 -0.0013,-0.30397 -0.427524,-1.47633 -0.946415,-2.60521 -1.399429,-3.04422 -2.765708,-9.08436 -3.630455,-16.05584 -0.42211,-3.40303 -1.202432,-7.00797 -1.735086,-8.01142 -1.021959,-1.92517 -0.702219,-7.36525 0.576238,-9.79477 0.347108,-0.65972 0.88847,-3.91175 1.2021,-7.22671 0.597824,-6.31876 2.646227,-14.14465 5.525819,-21.10477 2.799196,-6.76585 2.232473,-6.22086 -4.629019,4.45499 -1.726726,2.6865 -4.210937,7.30341 -5.520732,10.25891 -1.3098,2.9555 -3.156387,6.30958 -4.103662,7.4531 -0.947268,1.14352 -1.722366,2.77413 -1.722366,3.62395 0,1.7674 -1.102998,4.08722 -2.399106,5.04391 -1.114324,0.82229 -2.136734,6.27352 -2.441077,13.0232 -0.129212,2.8659 -0.583729,6.52919 -1.01002,8.14122 -2.28048,8.62328 -2.579899,11.32333 -2.752732,24.74926 -0.173528,13.47969 -0.12554,14.10007 1.280964,16.58379 0.803598,1.41907 1.460324,3.67596 1.460324,5.01549 0,1.33975 0.472124,4.13573 1.048174,6.21277 0.576043,2.07727 1.741971,6.70642 2.591188,10.28863 2.200031,9.27994 2.585856,10.60833 4.350433,14.97962 0.867577,2.14938 2.27413,5.7345 3.126727,7.96582 1.909535,4.99736 3.267666,5.93153 2.477965,1.70446 -0.299784,-1.6046 -0.679098,-3.13556 -0.843375,-3.4015 -0.443642,-0.71762 0.849927,-13.47276 1.554456,-15.32582 0.887299,-2.33381 9.764285,-10.68896 12.223213,-11.50448 1.157972,-0.38394 2.769925,-0.60377 3.582114,-0.48839 2.059522,0.29216 4.346351,5.1407 4.380969,9.28845 0.03029,3.63313 -1.10515,10.51065 -2.028931,12.29181 -0.429868,0.82907 -0.213626,2.24422 0.722525,4.74635 1.807211,4.83019 1.767047,6.7724 -0.139919,6.7724 -0.870389,0 -1.737015,-0.56859 -2.116707,-1.39045 -0.3536,-0.76526 -0.936741,-1.27813 -1.294954,-1.1398 -0.68503,0.26485 -0.6733,1.44814 0.04963,5.02096 0.403372,1.99335 0.161115,2.43017 -3.066935,5.53601 -1.927478,1.85437 -6.286074,5.47286 -9.686721,8.04179 -7.08882,5.35508 -10.541206,8.68054 -9.011263,8.68054 0.548818,0 1.556427,-0.62344 2.238823,-1.38652 1.609515,-1.7993 5.216017,-4.05597 8.021596,-5.01943 1.221854,-0.41978 3.126888,-1.44224 4.233409,-2.27327 1.106523,-0.83082 4.860143,-2.88011 8.342163,-4.55267 4.78507,-2.29819 6.577288,-3.51579 7.338508,-4.98775 1.002395,-1.9385 3.939965,-3.9242 5.806945,-3.9242 0.53882,0 1.71346,0.7327 2.60899,1.6282 2.15107,2.15112 6.24581,2.12162 6.24581,-0.0459 0,-1.91206 4.62938,-2.93932 7.15532,-1.58755 0.66419,0.35553 1.57021,1.74751 2.01368,3.0936 0.44346,1.34609 1.38406,3.23018 2.08998,4.18643 1.70254,2.30627 1.10034,5.2834 -1.00746,4.98009 -0.78435,-0.11363 -1.76633,-0.89003 -2.18158,-1.72631 -1.05342,-2.12097 -1.97803,-2.93168 -2.77817,-2.43717 -0.4762,0.29435 -0.47441,0.958 0.006,2.19046 0.37925,0.97241 0.80632,5.91383 0.94768,10.98177 l 0.25696,9.2146 -5.36809,0.38678 c -13.00628,0.9368 -16.165655,1.37865 -16.779728,2.35085 -0.339383,0.53713 -0.62164,2.93802 -0.627125,5.33498 -0.0052,2.39679 -0.265096,4.51559 -0.576238,4.70809 -0.31115,0.1923 -0.760471,2.334 -0.999841,4.7598 -0.275373,2.7908 -0.965583,5.2673 -1.877557,6.7432 -0.792775,1.2833 -2.027406,3.2957 -2.743829,4.4714 -0.716424,1.1756 -1.976124,3.1644 -2.799804,4.4191 -0.823682,1.2548 -1.409846,2.3692 -1.302585,2.4754 0.107251,0.1071 2.074325,-1.9686 4.370787,-4.6112 2.296469,-2.6424 6.179816,-6.7576 8.62965,-9.1436 2.44984,-2.386 4.45348,-4.7555 4.45348,-5.2661 0,-1.8672 2.02935,-4.7776 4.08203,-5.8554 1.15812,-0.6082 3.67048,-1.3244 5.58307,-1.5915 2.06198,-0.2877 4.49315,-1.18961 5.97231,-2.21447 2.71166,-1.87928 4.99122,-1.94703 6.09824,-0.18138 0.55292,0.88196 0.39591,1.40291 -0.7416,2.46285 -1.21619,1.133 -1.31746,1.5413 -0.65003,2.61 0.65182,1.0439 0.59747,1.4138 -0.30656,2.0978 -1.18089,0.8933 -2.41016,5.3548 -2.43599,8.8409 -0.0244,3.2988 -1.50115,5.526 -9.36998,14.1324 -3.99712,4.3718 -8.12704,9.5265 -9.17664,11.4551 -1.90335,3.497 -1.88903,3.4881 5.04626,-3.4893 3.82443,-3.8477 7.76296,-7.5091 8.75303,-8.1362 l 0,0 c 2.23091,-1.413 6.98707,-5.691 9.22498,-8.2964 6.38968,-7.4387 27.9398,-27.02873 29.73309,-27.02873 0.23607,0 1.30048,-0.7327 2.36476,-1.6282 1.23593,-1.03994 1.57775,-1.6282 0.94639,-1.6282 -0.54365,0 -1.17022,0.29304 -1.39161,0.65119 -0.22139,0.35816 -1.08139,0.65142 -1.91191,0.65142 -0.83053,0 -1.87557,0.43944 -2.32151,0.97678 -0.44592,0.53735 -1.80108,0.97701 -3.01096,0.97701 -1.20988,0 -2.19939,0.29304 -2.19939,0.6512 0,0.37039 -1.91102,0.65141 -4.43185,0.65141 -3.72301,0 -4.79161,-0.26354 -6.67576,-1.65246 -2.54593,-1.87688 -3.45698,-4.27864 -2.45634,-6.47478 0.68245,-1.49774 3.03366,-2.94479 4.78674,-2.94479 0.51181,0 1.89029,-0.58498 3.06312,-1.29998 1.46556,-0.89353 3.28417,-1.30108 5.81586,-1.30261 l 3.68389,0 0.99218,-2.768 c 5.26495,-14.68724 6.16309,-17.42225 5.72428,-17.42225 -0.27785,0 -1.65465,1.62864 -3.06057,3.61783 -8.14476,11.52459 -8.89467,11.91268 -17.5595,9.09398 -3.00793,-0.97854 -5.80521,-2.18456 -6.21655,-2.68038 -0.74871,-0.90206 -0.63488,-2.22782 0.61185,-7.10041 0.62384,-2.43826 3.98936,-6.18742 5.55381,-6.18742 0.34422,0 3.36324,-1.32249 6.71012,-2.93977 6.34152,-3.06432 7.42931,-3.18079 11.231,-1.19684 0.95839,0.49998 3.75569,0.87562 6.55619,0.88021 2.6866,0.0218 5.91049,0.27053 7.16423,0.59153 3.70035,0.94707 7.21898,1.32686 6.85638,0.74013 -0.53863,-0.87124 -5.48457,-3.28437 -6.73171,-3.28437 -1.86311,0 -3.89988,-1.8229 -4.35554,-3.89761 -0.57876,-2.63514 -4.83756,-7.65217 -8.3536,-9.84066 -2.26269,-1.40836 -2.97559,-2.28944 -3.31499,-4.09858 -0.23784,-1.26764 -1.21699,-4.00112 -2.17522,-6.07423 -1.26952,-2.74615 -1.74826,-4.84592 -1.76562,-7.73783 -0.0293,-4.87979 0.84825,-6.12624 4.31482,-6.12624 1.40327,0 3.7621,-0.61798 5.2409,-1.37253 1.74189,-0.88851 4.46283,-1.49359 7.72646,-1.71714 4.32218,-0.29631 5.46358,-0.13767 8.03815,1.1079 8.01116,3.8781 13.14605,16.56652 11.21448,27.70804 -0.72202,4.16436 0.29004,3.20549 1.71854,-1.6282 1.11725,-3.78063 3.28496,-13.9541 4.37079,-20.51585 0.35567,-2.14938 1.12121,-6.25233 1.70075,-9.11801 1.65327,-8.1751 1.86595,-10.5797 0.85228,-9.60663 -1.25084,1.20034 -3.05274,0.98947 -3.82126,-0.44644 -0.84972,-1.58777 -0.88027,-9.18531 -0.0459,-11.37992 0.36884,-0.97023 1.34257,-1.83121 2.35839,-2.08622 1.66338,-0.41759 1.71559,-0.56466 1.33567,-3.79724 -0.40573,-3.45198 -3.63314,-13.52056 -7.84098,-24.46147 -2.413,-6.27418 -4.50542,-9.74757 -8.98073,-14.9086 -2.24682,-2.59101 -2.85378,-3.98167 -4.02226,-9.21853 -0.20322,-0.91123 -1.56732,-2.96293 -3.0313,-4.55901 -1.46398,-1.59629 -3.94968,-4.84352 -5.52456,-7.21534 -3.11382,-4.68947 -10.79125,-12.91853 -13.26502,-14.21895 -0.53034,-0.27884 -0.89919,-0.48905 -1.07616,-0.51528 z m -27.89497,92.9722 c 0.41076,0 3.31393,5.19578 6.4506,11.55409 3.13668,6.3583 7.08362,13.6167 8.77085,16.12969 5.66764,8.44169 7.14334,12.84402 4.57814,13.65801 -1.09596,0.34788 -1.1715,0.6289 -0.53935,2.01629 1.14333,2.50928 -0.26278,3.53239 -2.82906,2.05956 -2.39497,-1.37471 -5.01293,-1.42781 -6.71901,-0.13767 -0.69534,0.52598 -2.32105,0.95538 -3.61266,0.95538 -4.28554,0 -18.89515,3.54987 -18.89515,4.59097 0,0.63306 -0.50545,0.65863 -3.09364,0.15952 -1.99677,-0.38459 -1.93337,-2.9619 0.173,-7.08299 2.17142,-4.24826 4.87453,-12.83614 4.87453,-15.48462 0,-1.21039 0.79651,-3.37243 1.8572,-5.04499 1.69994,-2.6806 3.88619,-8.68272 7.03322,-19.3035 0.66246,-2.23569 1.54057,-4.06755 1.95133,-4.07061 z"
       id="rect4164"
       inkscape:connector-curvature="0"
       sodipodi:nodetypes="csssssssscsssssssscssssscccscscsscssssssscccssscsssscccsssccccssssssssscsssssssssscscsssssccsssscscsssssccccsccsccccsscssccsscsscscsssssccsssssssssssssccccssccsssscccsssscsscssssssccccsssssssccsscccssssssssc" />
  </g>
</svg>
