<?xml version="1.0" encoding="UTF-8" standalone="no"?>
<!-- Created with Inkscape (http://www.inkscape.org/) -->

<svg
   xmlns:dc="http://purl.org/dc/elements/1.1/"
   xmlns:cc="http://creativecommons.org/ns#"
   xmlns:rdf="http://www.w3.org/1999/02/22-rdf-syntax-ns#"
   xmlns:svg="http://www.w3.org/2000/svg"
   xmlns="http://www.w3.org/2000/svg"
   xmlns:sodipodi="http://sodipodi.sourceforge.net/DTD/sodipodi-0.dtd"
   xmlns:inkscape="http://www.inkscape.org/namespaces/inkscape"
   id="svg2860"
   version="1.1"
   inkscape:version="0.91 r13725"
   width="256"
   height="256"
   sodipodi:docname="xan_st_romulan.svg"
   inkscape:export-filename="D:\dev\XansSciFiMashup\raw\flags\map\xan_st_klingon.png"
   inkscape:export-xdpi="90"
   inkscape:export-ydpi="90"
   style="shape-rendering:crispEdges">
  <metadata
     id="metadata2866">
    <rdf:RDF>
      <cc:Work
         rdf:about="">
        <dc:format>image/svg+xml</dc:format>
        <dc:type
           rdf:resource="http://purl.org/dc/dcmitype/StillImage" />
        <dc:title></dc:title>
      </cc:Work>
    </rdf:RDF>
  </metadata>
  <defs
     id="defs2864">
    <inkscape:perspective
       sodipodi:type="inkscape:persp3d"
       inkscape:vp_x="0 : 0.5 : 1"
       inkscape:vp_y="0 : 1000 : 0"
       inkscape:vp_z="1 : 0.5 : 1"
       inkscape:persp3d-origin="0.5 : 0.33333333 : 1"
       id="perspective2868" />
    <inkscape:perspective
       id="perspective3654"
       inkscape:persp3d-origin="0.5 : 0.33333333 : 1"
       inkscape:vp_z="1 : 0.5 : 1"
       inkscape:vp_y="0 : 1000 : 0"
       inkscape:vp_x="0 : 0.5 : 1"
       sodipodi:type="inkscape:persp3d" />
    <inkscape:perspective
       id="perspective3676"
       inkscape:persp3d-origin="0.5 : 0.33333333 : 1"
       inkscape:vp_z="1 : 0.5 : 1"
       inkscape:vp_y="0 : 1000 : 0"
       inkscape:vp_x="0 : 0.5 : 1"
       sodipodi:type="inkscape:persp3d" />
    <inkscape:perspective
       id="perspective3714"
       inkscape:persp3d-origin="0.5 : 0.33333333 : 1"
       inkscape:vp_z="1 : 0.5 : 1"
       inkscape:vp_y="0 : 1000 : 0"
       inkscape:vp_x="0 : 0.5 : 1"
       sodipodi:type="inkscape:persp3d" />
    <inkscape:perspective
       id="perspective3743"
       inkscape:persp3d-origin="0.5 : 0.33333333 : 1"
       inkscape:vp_z="1 : 0.5 : 1"
       inkscape:vp_y="0 : 1000 : 0"
       inkscape:vp_x="0 : 0.5 : 1"
       sodipodi:type="inkscape:persp3d" />
    <inkscape:perspective
       id="perspective3773"
       inkscape:persp3d-origin="0.5 : 0.33333333 : 1"
       inkscape:vp_z="1 : 0.5 : 1"
       inkscape:vp_y="0 : 1000 : 0"
       inkscape:vp_x="0 : 0.5 : 1"
       sodipodi:type="inkscape:persp3d" />
    <inkscape:perspective
       id="perspective3795"
       inkscape:persp3d-origin="0.5 : 0.33333333 : 1"
       inkscape:vp_z="1 : 0.5 : 1"
       inkscape:vp_y="0 : 1000 : 0"
       inkscape:vp_x="0 : 0.5 : 1"
       sodipodi:type="inkscape:persp3d" />
    <inkscape:perspective
       id="perspective3830"
       inkscape:persp3d-origin="0.5 : 0.33333333 : 1"
       inkscape:vp_z="1 : 0.5 : 1"
       inkscape:vp_y="0 : 1000 : 0"
       inkscape:vp_x="0 : 0.5 : 1"
       sodipodi:type="inkscape:persp3d" />
    <inkscape:perspective
       id="perspective3860"
       inkscape:persp3d-origin="0.5 : 0.33333333 : 1"
       inkscape:vp_z="1 : 0.5 : 1"
       inkscape:vp_y="0 : 1000 : 0"
       inkscape:vp_x="0 : 0.5 : 1"
       sodipodi:type="inkscape:persp3d" />
    <inkscape:perspective
       id="perspective3887"
       inkscape:persp3d-origin="0.5 : 0.33333333 : 1"
       inkscape:vp_z="1 : 0.5 : 1"
       inkscape:vp_y="0 : 1000 : 0"
       inkscape:vp_x="0 : 0.5 : 1"
       sodipodi:type="inkscape:persp3d" />
    <inkscape:perspective
       id="perspective3913"
       inkscape:persp3d-origin="0.5 : 0.33333333 : 1"
       inkscape:vp_z="1 : 0.5 : 1"
       inkscape:vp_y="0 : 1000 : 0"
       inkscape:vp_x="0 : 0.5 : 1"
       sodipodi:type="inkscape:persp3d" />
    <inkscape:perspective
       id="perspective3964"
       inkscape:persp3d-origin="0.5 : 0.33333333 : 1"
       inkscape:vp_z="1 : 0.5 : 1"
       inkscape:vp_y="0 : 1000 : 0"
       inkscape:vp_x="0 : 0.5 : 1"
       sodipodi:type="inkscape:persp3d" />
  </defs>
  <sodipodi:namedview
     pagecolor="#086600"
     bordercolor="#666666"
     borderopacity="1"
     objecttolerance="10"
     gridtolerance="10"
     guidetolerance="10"
     inkscape:pageopacity="0"
     inkscape:pageshadow="2"
     inkscape:window-width="1721"
     inkscape:window-height="1057"
     id="namedview2862"
     showgrid="false"
     showguides="false"
     inkscape:zoom="1.9476024"
     inkscape:cx="92.604424"
     inkscape:cy="181.49062"
     inkscape:window-x="1272"
     inkscape:window-y="-8"
     inkscape:window-maximized="1"
     inkscape:current-layer="svg2860"
     units="px" />
  <path
     inkscape:connector-curvature="0"
     d="m 103.68676,105.30688 0.28694,6.27716 -4.411919,-4.69891 2.690199,1.00435 z m -8.465189,7.3891 -2.585289,1.16822 3.153201,-4.45081 3.467403,5.80898 z m 29.067449,68.23179 c -0.93843,-3.04304 -1.89898,-6.07916 -2.89547,-9.10367 l -0.0379,-0.11383 0.012,-0.12637 c 0.78961,-5.25023 1.40656,-10.52554 1.83338,-15.81763 0.3637,-4.50958 0.77185,-9.92883 0.89773,-14.59115 -0.94243,-6.14207 -2.43468,-12.47486 -4.09665,-18.33378 l 0.4046,-0.8345 c 0.0353,-0.0671 0.0674,-0.13474 0.10106,-0.2023 l 0.15169,-0.32876 c 2.52455,-5.49401 0.19334,-12.01028 -5.399,-14.76817 -0.43477,-0.2144 -1.28597,-0.58571 -1.74484,-0.74599 l 0.5816,-1.36555 c 0.13674,0.0476 0.26951,0.10006 0.40462,0.15169 -2.92311,-4.42513 -6.33802,-8.529679 -10.16577,-12.201439 -5.513623,-5.28891 -11.87769,-9.68902 -18.776338,-12.97272 l -1.049453,-0.50576 0.745992,-0.87243 c 1.983951,-2.33441 4.061108,-4.59178 6.208211,-6.77719 1.989631,-2.02514 6.56222,-6.27141 6.56222,-6.27141 0,0 -10.963266,1.28005 -16.323386,2.55408 -3.908122,0.92891 -8.118409,1.76382 -11.9865,2.87018 -8.870003,2.53702 -17.295794,5.54878 -25.793727,9.10367 -12.25625,5.1271 -26.591316,14.83696 -30.042109,17.53722 3.535933,-3.05499 15.28193,-12.68807 29.182315,-18.76368 12.138331,-5.30545 25.047423,-9.22502 38.033101,-12.12558 7.049043,-1.57452 17.835841,-2.88939 21.482134,-2.83226 l -1.22647,1.18853 c -2.996186,2.52698 -5.876224,5.18238 -8.623189,7.97836 -1.82058,1.85307 -3.546578,3.79253 -5.24726,5.75302 -0.04944,0.0558 -0.0291,0.15707 0.03787,0.18976 6.604,3.2954 12.717009,7.56036 18.042989,12.66927 4.69851,4.50705 8.79094,9.639069 12.13822,15.223349 5.26928,3.83469 6.94732,10.76625 4.03343,16.43719 1.82324,6.68081 3.77645,14.87351 4.83001,21.3051 1.03354,6.30961 1.3781,6.34989 1.3782,15.57362 8e-5,-9.22373 0.34465,-9.26401 1.37821,-15.57362 1.05356,-6.43159 3.00677,-14.62429 4.83,-21.3051 -2.91388,-5.67094 -1.23586,-12.6025 4.03344,-16.43719 3.34728,-5.58428 7.43969,-10.716299 12.13822,-15.223349 5.32598,-5.10891 11.43899,-9.37387 18.04298,-12.66927 0.067,-0.0327 0.0873,-0.13375 0.0378,-0.18976 -1.70068,-1.96049 -3.42667,-3.89995 -5.24725,-5.75302 -2.74697,-2.79598 -5.62701,-5.45138 -8.62321,-7.97836 l -1.22646,-1.18853 c 3.64628,-0.0571 14.43308,1.25774 21.48212,2.83226 12.98569,2.90056 25.8948,6.82013 38.0331,12.12558 13.9004,6.07561 25.64639,15.70869 29.18232,18.76368 -3.45078,-2.70026 -17.78584,-12.41012 -30.0421,-17.53722 -8.49793,-3.55489 -16.92372,-6.56665 -25.79371,-9.10367 -3.8681,-1.10636 -8.07839,-1.94127 -11.98651,-2.87018 -5.36012,-1.27403 -16.32339,-2.55408 -16.32339,-2.55408 0,0 4.57259,4.24627 6.56223,6.27141 2.1471,2.18541 4.22426,4.44278 6.2082,6.77719 l 0.746,0.87243 -1.04946,0.50576 c -6.89865,3.2837 -13.26271,7.68381 -18.77631,12.97272 -3.82776,3.67176 -7.24266,7.776309 -10.16577,12.201439 0.13514,-0.0518 0.26776,-0.10405 0.4046,-0.15169 l 0.58162,1.36555 c -0.45887,0.16026 -1.31007,0.53159 -1.74487,0.74599 -5.59236,2.75789 -7.92352,9.27416 -5.39897,14.76817 l 0.15169,0.32876 c 0.0337,0.0676 0.0659,0.13514 0.10126,0.2023 l 0.4046,0.8345 c -1.66197,5.85892 -3.15424,12.19171 -4.09665,18.33378 0.12578,4.66232 0.53403,10.08157 0.89773,14.59115 0.42682,5.29209 1.04377,10.5674 1.83338,15.81763 l 0.012,0.12637 -0.0378,0.11383 c -0.9965,3.02451 -1.95703,6.06063 -2.89546,9.10367 -1.09364,3.54632 -2.63988,9.25116 -3.65412,12.821 -1.01422,-3.56984 -2.56048,-9.27468 -3.65411,-12.821 z m 6.33464,-0.30345 c 0.9301,-3.01607 1.89577,-6.01728 2.88283,-9.01519 -0.78392,-5.23174 -1.39547,-10.48136 -1.82074,-15.7544 -0.25516,-3.16374 -0.44303,-6.33544 -0.56899,-9.50827 -1.67812,15.02158 -3.17363,41.09296 -3.17363,41.09296 0,0 -1.49554,-26.07138 -3.17365,-41.09296 -0.12598,3.17283 -0.31382,6.34453 -0.56896,9.50827 -0.4253,5.27304 -1.03684,10.52266 -1.82074,15.7544 0.98703,2.99791 1.95271,5.99912 2.88282,9.01519 0.89105,2.88938 1.84386,6.50192 2.68053,9.40711 0.83667,-2.90519 1.78949,-6.51773 2.68053,-9.40711 z M 94.449207,66.158321 c 0.194945,0.004 0.387059,0.0136 0.581625,0.0253 -6.577926,4.39887 -12.535857,9.71665 -17.651002,15.75441 -3.733131,4.40647 -7.019655,9.19308 -9.786447,14.26242 -1.335949,0.1999 -2.655703,0.48676 -3.957566,0.84715 -1.806549,0.50008 -3.575556,1.15097 -5.272541,1.94717 1.413534,-1.1547 2.960718,-2.14838 4.602409,-2.94605 1.107511,-0.53813 2.261145,-0.98186 3.439165,-1.34026 3.490975,-6.69306 8.009768,-12.84876 13.352049,-18.18206 3.903318,-3.89676 8.240458,-7.35608 12.909502,-10.2922 0.396427,-0.0399 0.790184,-0.0681 1.188545,-0.0759 0.194944,-0.004 0.399377,-0.004 0.594261,0 z m -6.296711,1.02416 c -4.650966,2.79767 -9.055539,5.99765 -13.162373,9.54622 -5.161295,4.45967 -9.842612,9.47445 -13.933683,14.93254 -1.813942,0.36017 -3.615446,0.80729 -5.386337,1.34025 -2.425045,0.72987 -4.79794,1.62542 -7.105921,2.6679 1.497465,-1.11866 3.09045,-2.11932 4.754141,-2.97133 2.027413,-1.03829 4.163539,-1.86199 6.359922,-2.4656 3.834817,-5.1209 8.229355,-9.83099 13.073881,-14.00952 3.698308,-3.18988 7.649784,-6.072 11.822138,-8.61056 0.35417,-0.095 0.713661,-0.17629 1.074727,-0.24023 0.825924,-0.14627 1.664964,-0.20912 2.503505,-0.18967 z m -10.165766,2.20006 c -2.114512,0.98611 -4.165657,2.10274 -6.144971,3.33801 -4.584327,2.86103 -8.737457,6.35406 -12.770426,9.95081 -1.830079,1.63215 -3.638608,3.28847 -5.424265,4.9691 -2.235142,0.59141 -4.461468,1.24204 -6.663382,1.94717 -2.874658,0.92057 -5.715364,1.93651 -8.522049,3.0472 2.064638,-1.52324 4.28404,-2.84271 6.612803,-3.91965 2.503329,-1.15766 5.132383,-2.04014 7.826628,-2.62993 1.782281,-1.85214 3.648096,-3.62309 5.576003,-5.32313 2.846228,-2.5098 5.837416,-4.84948 8.95194,-7.01741 1.597277,-1.11182 3.2241,-2.17739 4.880583,-3.19893 0.801307,-0.239 1.610307,-0.45563 2.42764,-0.63219 1.07381,-0.23196 2.157725,-0.4089 3.249496,-0.53105 z m -20.369455,5.86681 c -2.504384,1.33418 -4.954526,2.77182 -7.346152,4.29895 -2.216615,1.41538 -4.378909,2.90266 -6.486367,4.47597 -3.828591,1.38198 -7.614636,2.88146 -11.354296,4.48861 -3.80524,1.63535 -7.566452,3.38471 -11.265792,5.24726 4.059421,-2.98883 8.303237,-5.73039 12.694564,-8.20595 7.534201,-4.2473 15.508725,-7.70627 23.758043,-10.30484 z m 26.388002,4.38745 c 0.154481,0.10983 0.310875,0.22246 0.467827,0.32876 0.18458,0.12498 0.368542,0.24655 0.55633,0.36667 -1.721054,2.84571 -3.325381,5.75846 -4.804708,8.737 -1.854008,3.73294 -3.512512,7.56288 -4.969095,11.468079 -1.617543,0.37 -3.216314,0.82027 -4.79206,1.34026 -1.394276,0.46012 -2.770659,0.981 -4.121946,1.55521 1.203978,-1.02597 2.550663,-1.89517 3.982857,-2.56674 1.227409,-0.57551 2.517742,-1.007849 3.843764,-1.289669 1.2315,-3.58646 2.700561,-7.09839 4.387471,-10.4945 1.618598,-3.25856 3.437364,-6.4137 5.44956,-9.44507 z m 5.323105,3.00929 c 0.145511,0.0261 0.283168,0.0444 0.429915,0.0632 0.28544,0.0367 0.572136,0.0676 0.859789,0.0759 -1.549869,3.45317 -2.96559,6.95878 -4.248378,10.51979 -1.284082,3.56456 -2.43015,7.183919 -3.439178,10.835889 -1.152805,0.15448 -2.298533,0.34129 -3.439159,0.56896 -1.452856,0.29003 -2.899692,0.64258 -4.324242,1.04946 0.988038,-0.74668 2.054771,-1.39097 3.173631,-1.92188 1.096732,-0.52042 2.248261,-0.93442 3.426521,-1.22646 0.851178,-3.226379 1.861302,-6.405139 3.021921,-9.533559 1.318926,-3.55513 2.836006,-7.04342 4.53918,-10.4313 z m 5.449561,2.83224 0.480484,0.34139 0.493102,0.34139 c -0.892798,3.40067 -1.765604,6.80201 -2.604643,10.21634 -0.860588,3.50196 -1.687069,7.016999 -2.490867,10.532419 -0.960332,0.0514 -1.920384,0.15268 -2.870191,0.30346 -1.429255,0.22685 -2.833914,0.565 -4.210446,1.01152 0.800927,-0.6778 1.692131,-1.24001 2.655234,-1.65635 0.965016,-0.41718 2.002608,-0.6905 3.047196,-0.80922 0.759866,-3.29873 1.571059,-6.581429 2.452935,-9.849659 0.94299,-3.49469 1.96615,-6.97681 3.047196,-10.43129 z m -49.792005,6.34728 1.605786,0.25289 c -1.116425,7.29326 0.03538,14.922789 3.26215,21.557969 2.114424,4.34785 5.148381,8.23195 8.774927,11.43017 l 0,-1.71959 0,-3.52766 1.618428,0 0,3.52766 0,3.52769 0,1.68164 -1.314976,-1.04945 C 54.504703,123.9706 50.87799,119.44037 48.39981,114.34454 45.026199,107.40744 43.818718,99.450711 44.985938,91.825611 Z m 8.205948,3.00926 1.605786,0.15169 c -0.618176,6.708979 0.873372,13.611659 4.197799,19.471739 2.097975,3.69816 4.940811,6.95001 8.269166,9.59677 l 0,-1.85865 0,-3.52768 1.61843,0 0,3.52768 0,3.54032 0,1.56785 -1.289684,-0.91038 c -4.090027,-2.93328 -7.517897,-6.76159 -10.001393,-11.13933 -3.491051,-6.15381 -5.049263,-13.37482 -4.400104,-20.420049 z m 8.079503,3.95758 1.213824,0.2023 c 0.164786,5.114389 1.531354,9.144169 3.805836,13.073879 1.071763,1.85171 3.190594,4.52002 5.082885,6.42315 2.192954,2.20548 4.128168,3.52799 4.526549,3.56559 l 0,-1.71958 0,-3.19893 1.327617,0.0253 -0.02532,7.5611 c -3.69749,-2.14764 -8.949889,-6.85178 -11.771558,-11.58189 -2.550539,-4.27556 -4.056784,-8.00421 -4.159874,-14.350899 z m 9.381837,4.147199 c 2.032982,3.93103 4.558512,7.60193 7.510529,10.89913 1.849761,2.06607 3.903836,3.94137 6.056459,5.68979 0.0279,-1.85219 0.133551,-3.70032 0.366688,-5.53806 0.244238,-1.92615 0.595837,-3.84298 1.062089,-5.72773 l 1.580507,0.39196 c -0.451183,1.82373 -0.800468,3.67429 -1.036815,5.53807 -0.295845,2.33311 -0.42533,4.69137 -0.379324,7.0427 l 0.03787,1.66901 -1.327617,-1.01152 c -2.732494,-2.07839 -5.271101,-4.42169 -7.561102,-6.97948 -3.043509,-3.3994 -5.654775,-7.18763 -7.750762,-11.24051 l 1.441413,-0.73336 z m 42.812534,0.85982 -3.21157,7.18177 0.35403,-4.85529 -2.27593,-2.32648 z m -9.17952,0.12637 0.42988,9.39448 -6.157626,-6.48638 z m 3.62882,0.3161 0.18956,1.21382 c -0.52703,0.001 -1.06244,0.0422 -1.58051,0.13913 -0.5132,0.0959 -1.01684,0.24374 -1.50461,0.4299 l -0.0885,-1.23912 c 0.40659,-0.13076 0.8207,-0.24294 1.23909,-0.32873 0.5745,-0.1178 1.15928,-0.18399 1.74488,-0.21494 z m -9.040449,3.83112 0.821857,0.97358 c -0.335293,0.28338 -0.653822,0.59746 -0.948313,0.92303 -0.363038,0.40135 -0.694026,0.83415 -0.986224,1.28968 l -0.682764,-1.18852 c 0.209316,-0.34068 0.446738,-0.67097 0.708059,-0.97362 0.325426,-0.37687 0.69329,-0.71977 1.087385,-1.02415 z m -3.059854,11.41752 c 0.984072,3.0625 3.000673,5.78437 5.639223,7.62433 2.19741,1.53233 4.81228,2.45106 7.48524,2.62994 l 0,1.21382 c -2.63365,0.0323 -5.26271,-0.75406 -7.44731,-2.22534 -3.091585,-2.08208 -5.223718,-5.5431 -5.677153,-9.24275 z m 14.414143,5.09553 5.70243,5.56333 -0.18976,0.0631 -7.06798,16.22225 -6.39786,1.71958 2.57938,-1.99774 2.76903,-1.15062 6.39785,-14.21184 -2.98396,1.01152 1.25174,-2.56673 -2.0104,-4.46332 0.22759,2.65524 z m 9.62208,1.06209 0.59426,2.23799 -4.04606,18.86481 -6.9542,2.81962 2.03568,-2.04834 3.71733,-1.77014 z m -16.86708,5.15874 1.59314,0.51842 -8.863443,11.24049 -8.559964,1.92188 3.603526,-2.12418 4.084011,-1.27705 z m 7.11857,1.03681 -8.1048,12.87157 -7.1565,1.87131 2.617301,-1.82074 3.439179,-1.18852 7.39671,-11.73362 z m 11.96121,5.05759 0.88508,4.04606 -0.13913,6.54961 -5.61393,3.48973 1.99774,-2.6173 2.26327,-1.75751 z m 30.13581,-31.59454 -0.28696,6.27716 4.41195,-4.69889 -2.69022,1.00435 z m 9.23754,-39.148539 c -0.19494,0.004 -0.38704,0.0136 -0.5816,0.0253 6.57792,4.39887 12.53586,9.71665 17.651,15.75441 3.73311,4.40647 7.01965,9.19308 9.78643,14.26242 1.33596,0.1999 2.6557,0.48676 3.95757,0.84715 1.80654,0.50008 3.57556,1.15097 5.27255,1.94717 -1.41354,-1.1547 -2.96072,-2.14838 -4.60242,-2.94605 -1.10752,-0.53813 -2.26114,-0.98188 -3.43917,-1.34026 -3.49095,-6.69306 -8.00977,-12.84876 -13.35205,-18.18206 -3.90331,-3.89676 -8.24045,-7.35609 -12.9095,-10.2922 -0.39642,-0.0399 -0.79016,-0.0682 -1.18855,-0.0759 -0.19494,-0.004 -0.39937,-0.004 -0.59426,0 z m 6.29672,1.02416 c 4.65096,2.79767 9.05554,5.99765 13.16239,9.5462 5.16129,4.45969 9.84259,9.47447 13.93366,14.93256 1.81394,0.36017 3.61545,0.80729 5.38633,1.34025 2.42505,0.72987 4.79795,1.62542 7.10594,2.6679 -1.49747,-1.11866 -3.09046,-2.11932 -4.75414,-2.97133 -2.02743,-1.03829 -4.16355,-1.86198 -6.35992,-2.4656 -3.83484,-5.1209 -8.22936,-9.83101 -13.0739,-14.00952 -3.69828,-3.18988 -7.64978,-6.07201 -11.82211,-8.61056 -0.35419,-0.095 -0.71368,-0.17629 -1.07475,-0.24024 -0.82592,-0.14626 -1.66496,-0.20911 -2.5035,-0.18966 z m 10.16576,2.20005 c 2.11451,0.98611 4.16566,2.10275 6.14499,3.33802 4.58433,2.86103 8.73744,6.35406 12.77041,9.95081 1.83008,1.63215 3.6386,3.28847 5.42426,4.9691 2.23514,0.59141 4.46148,1.24204 6.6634,1.94717 2.87465,0.92057 5.71534,1.93651 8.52204,3.0472 -2.06463,-1.52324 -4.28404,-2.84271 -6.61282,-3.91965 -2.50331,-1.15766 -5.13237,-2.04014 -7.8266,-2.62993 -1.7823,-1.85214 -3.6481,-3.6231 -5.576,-5.32313 -2.84623,-2.5098 -5.83742,-4.84948 -8.95195,-7.01741 -1.59727,-1.11182 -3.2241,-2.17739 -4.88057,-3.19893 -0.80131,-0.23901 -1.6103,-0.45564 -2.42767,-0.63219 -1.0738,-0.23197 -2.15772,-0.4089 -3.24949,-0.53106 z m 20.36947,5.86682 c 2.50438,1.33418 4.95452,2.77182 7.34614,4.29895 2.21661,1.41538 4.37892,2.90266 6.48638,4.47597 3.82859,1.38198 7.61462,2.88146 11.35428,4.48861 3.80525,1.63535 7.56645,3.38471 11.2658,5.24727 -4.05942,-2.98886 -8.30323,-5.7304 -12.69457,-8.20596 -7.5342,-4.2473 -15.50872,-7.70629 -23.75803,-10.30484 z m -26.388,4.38745 c -0.15447,0.10983 -0.31089,0.22246 -0.46782,0.32876 -0.18458,0.12498 -0.36854,0.24655 -0.55635,0.36667 1.72108,2.84571 3.32538,5.75846 4.80471,8.737 1.854,3.73294 3.51251,7.56288 4.96909,11.468079 1.61756,0.37 3.21631,0.82027 4.79207,1.34026 1.39427,0.46012 2.77065,0.981 4.12194,1.55521 -1.20398,-1.02597 -2.55065,-1.89517 -3.98286,-2.56674 -1.2274,-0.57551 -2.51774,-1.007869 -3.84376,-1.289669 -1.2315,-3.58646 -2.70054,-7.09839 -4.38747,-10.4945 -1.6186,-3.25856 -3.43737,-6.4137 -5.44957,-9.44507 z m -5.32312,3.00929 c -0.14551,0.0261 -0.28317,0.0444 -0.4299,0.0632 -0.28543,0.0367 -0.57213,0.0676 -0.85978,0.0759 1.54984,3.45315 2.96559,6.95879 4.24837,10.51979 1.28407,3.56456 2.43013,7.183919 3.43917,10.835889 1.15279,0.15448 2.29855,0.34129 3.43917,0.56896 1.45286,0.29001 2.89967,0.64258 4.32424,1.04946 -0.98805,-0.74667 -2.05477,-1.39097 -3.17364,-1.92188 -1.09674,-0.52042 -2.24825,-0.93441 -3.42653,-1.22646 -0.85118,-3.226379 -1.8613,-6.405139 -3.02192,-9.533559 -1.3189,-3.55513 -2.83599,-7.04342 -4.53918,-10.43129 z m -5.44956,2.83224 -0.48046,0.34139 -0.49312,0.34139 c 0.8928,3.40067 1.76562,6.80201 2.60466,10.21634 0.86058,3.50196 1.68706,7.016999 2.49086,10.532419 0.96031,0.0514 1.92039,0.15268 2.87017,0.30346 1.42928,0.22685 2.83392,0.56498 4.21047,1.01152 -0.80094,-0.6778 -1.69213,-1.24001 -2.65525,-1.65635 -0.965,-0.41718 -2.00259,-0.6905 -3.0472,-0.80922 -0.75987,-3.29873 -1.57105,-6.581429 -2.45294,-9.849659 -0.94297,-3.49469 -1.96614,-6.97681 -3.04719,-10.43129 z m 49.79199,6.34728 -1.60577,0.25289 c 1.11642,7.29326 -0.0355,14.922789 -3.26216,21.557969 -2.11441,4.34785 -5.14837,8.23195 -8.77492,11.43017 l 0,-1.71959 0,-3.52766 -1.61842,0 0,3.52766 0,3.52769 0,1.68164 1.31498,-1.04945 c 4.42753,-3.53633 8.05424,-8.06656 10.53243,-13.16239 3.37362,-6.9371 4.5811,-14.893829 3.41386,-22.518929 z m -8.20593,3.00926 -1.6058,0.15169 c 0.61818,6.708979 -0.87337,13.611659 -4.19779,19.471739 -2.09797,3.69816 -4.94081,6.95001 -8.26916,9.59677 l 0,-1.85865 0,-3.52768 -1.61844,0 0,3.52768 0,3.5403 0,1.56787 1.28969,-0.91038 c 4.09002,-2.93328 7.5179,-6.76159 10.0014,-11.13935 3.49103,-6.15379 5.04926,-13.3748 4.4001,-20.420029 z m -8.0795,3.95758 -1.21382,0.2023 c -0.16485,5.114389 -1.53137,9.144169 -3.80585,13.073879 -1.07175,1.85171 -3.19058,4.52002 -5.08289,6.42313 -2.19294,2.20548 -4.12814,3.52801 -4.52654,3.56561 l 0,-1.71958 0,-3.19893 -1.32762,0.0253 0.0253,7.5611 c 3.69749,-2.14764 8.9499,-6.8518 11.77156,-11.58189 2.55054,-4.27558 4.0568,-8.00421 4.15987,-14.350899 z m -9.38184,4.147199 c -2.03296,3.93103 -4.55851,7.60193 -7.51051,10.89913 -1.84978,2.06607 -3.90384,3.94137 -6.05648,5.68979 -0.0279,-1.85219 -0.13356,-3.70032 -0.36667,-5.53806 -0.24426,-1.92615 -0.59584,-3.84298 -1.06211,-5.72773 l -1.58048,0.39196 c 0.45116,1.82373 0.80046,3.67429 1.03679,5.53807 0.29587,2.33311 0.42533,4.69137 0.37932,7.0427 l -0.0378,1.66901 1.32762,-1.01152 c 2.73251,-2.07839 5.27112,-4.42171 7.5611,-6.97948 3.04351,-3.3994 5.65479,-7.18763 7.75076,-11.24051 l -1.44141,-0.73336 z m -42.81254,0.85982 3.21159,7.18177 -0.35403,-4.85529 2.27591,-2.32648 z m 9.17955,0.12637 -0.4299,9.39448 6.15762,-6.48638 z m -3.62883,0.3161 -0.18976,1.21382 c 0.52701,0.001 1.06243,0.0422 1.58049,0.13914 0.51321,0.0959 1.01684,0.24373 1.50464,0.42989 l 0.0885,-1.23912 c -0.40661,-0.13076 -0.82072,-0.24294 -1.23911,-0.32873 -0.57447,-0.1178 -1.15929,-0.18399 -1.74488,-0.21494 z m 9.04045,3.83112 -0.82185,0.97359 c 0.33528,0.28335 0.6538,0.59745 0.94828,0.92302 0.36307,0.40135 0.69403,0.83415 0.98625,1.28968 l 0.68277,-1.18854 c -0.20934,-0.34066 -0.44675,-0.67097 -0.70806,-0.9736 -0.32545,-0.37687 -0.6933,-0.71977 -1.08739,-1.02415 z m 3.08513,1.34025 -3.46742,5.80898 4.03531,-2.52637 2.58531,1.16822 z m -0.0253,10.07727 c -0.98408,3.0625 -3.00068,5.78437 -5.63923,7.62433 -2.19741,1.53233 -4.81228,2.45106 -7.48524,2.62994 l 0,1.21382 c 2.63363,0.0323 5.26271,-0.75408 7.44731,-2.22534 3.09159,-2.08208 5.22372,-5.5431 5.67716,-9.24275 z m -14.41415,5.09553 -5.70243,5.56333 0.18956,0.0631 7.06799,16.22225 6.39785,1.71958 -2.57938,-1.99776 -2.76902,-1.1506 -6.39786,-14.21184 2.98397,1.01152 -1.25175,-2.56673 2.0104,-4.46332 -0.22759,2.65524 z m -9.62207,1.06209 -0.59428,2.23799 4.04608,18.86481 6.95419,2.81962 -2.03567,-2.04834 -3.71735,-1.77014 z m 16.86707,5.15874 -1.59314,0.5184 8.86345,11.24051 8.55996,1.92188 -3.60353,-2.12418 -4.08401,-1.27705 z m -7.11856,1.03681 8.10479,12.87157 7.1565,1.87131 -2.6173,-1.82074 -3.43918,-1.18852 -7.39673,-11.73362 z m -11.96122,5.0576 -0.88508,4.04605 0.13914,6.54961 5.61393,3.48973 -1.99775,-2.6173 -2.26327,-1.75751 z m -16.31072,-50.689729 -0.17701,0 c 2.21635,1.73427 4.20979,3.92066 5.91739,6.15762 1.85997,2.43657 3.38018,5.13801 4.50125,7.990989 l 0.18956,0.48046 0.18977,-0.48046 c 1.12109,-2.852979 2.6413,-5.554419 4.50127,-7.990989 1.7076,-2.23696 3.70101,-4.42335 5.91735,-6.15762 l -0.177,0 c -3.39895,0.89914 -6.91539,1.17589 -10.43127,1.17589 -3.51588,0 -7.03232,-0.27675 -10.43129,-1.17589 z m -2.6426,-0.37932 1.20118,2.17477 c 3.24772,5.87423 5.95764,12.037419 8.1048,18.396979 1.35135,4.0026 2.48424,8.0847 3.37593,12.2141 l 0.39196,1.83338 0.39197,-1.83338 c 0.89168,-4.1294 2.02457,-8.2115 3.37594,-12.2141 2.14715,-6.35956 4.85708,-12.522749 8.1048,-18.396979 l 1.20118,-2.17477 -1.82074,1.68166 c -0.0331,0.0303 -0.0557,0.0708 -0.0885,0.10106 -2.55681,2.36109 -4.86225,4.98851 -6.8404,7.85191 -1.69002,2.44635 -3.12245,5.069089 -4.32425,7.788689 -1.20178,-2.7196 -2.6342,-5.342339 -4.32423,-7.788689 -1.97814,-2.8634 -4.28359,-5.49082 -6.8404,-7.85191 -0.0329,-0.0303 -0.0556,-0.071 -0.0885,-0.10106 z m 3.19893,4.24837 c 1.77017,1.83029 3.44599,3.75929 4.89321,5.85416 1.82293,2.63873 3.36034,5.464009 4.60242,8.420909 l 0.37931,0.88506 0.37933,-0.88506 c 1.24204,-2.9569 2.77947,-5.782179 4.60241,-8.420909 1.44723,-2.09487 3.12303,-4.02387 4.89322,-5.85416 -2.69533,5.17252 -5.01255,10.531629 -6.87833,16.057849 -1.18478,3.50915 -2.16195,7.08836 -2.99663,10.69683 -0.83467,-3.60847 -1.81185,-7.18768 -2.99663,-10.69683 -1.86578,-5.52622 -4.183,-10.885329 -6.87831,-16.057849 z m -11.98623,-8.8764 3.46256,2.51692 2.10564,2.28717 -1.53506,-2.67132 c 5.87601,1.08669 11.85238,1.85893 17.82803,1.85893 5.97565,0 11.95202,-0.77224 17.82803,-1.85893 l -1.53281,2.67132 2.17015,-2.21433 3.34164,-2.61338 -0.53482,0.21388 c -6.99403,2.19084 -14.06071,2.86892 -21.27219,2.86892 -7.21145,0 -14.2787,-0.67808 -21.27271,-2.86892 z m 18.13119,-22.68894 c -9.45819,-0.022 -18.91605,0.6225 -28.284596,1.92188 -9.283711,1.28762 -18.48456,3.21793 -27.500656,5.7783 1.260616,-1.34413 2.622603,-2.59114 4.071359,-3.72997 1.501552,-1.18033 3.099381,-2.24222 4.766775,-3.17364 -7.237009,1.80981 -14.390962,3.97212 -21.418904,6.47372 -7.154285,2.54657 -14.183561,5.44755 -21.052234,8.68643 l 10.59566,0 c -5.814156,2.60791 -11.384527,5.75359 -16.614206,9.39447 C 21.858069,88.682891 15.532299,94.360551 10,100.72088 c 5.590718,-3.288659 11.366743,-6.261189 17.296968,-8.888709 5.615671,-2.48816 11.368913,-4.67192 17.221109,-6.53695 -1.772464,1.43647 -3.471018,2.9626 -5.09552,4.56448 -1.753087,1.72869 -3.419513,3.54665 -4.981734,5.44956 l 7.105921,-2.75638 c -1.589991,7.984429 -0.402452,16.495139 3.325369,23.732749 1.87445,3.63927 4.370986,6.962 7.346155,9.77381 l 0.467829,-3.97022 c 1.272663,1.49056 2.640196,2.91025 4.084004,4.23572 1.432515,1.31511 2.946397,2.53332 4.526549,3.66676 l 0.2023,-8.3703 c 1.232657,1.30319 2.558934,2.53089 3.957564,3.65411 1.326533,1.0653 2.719473,2.03575 4.172522,2.92074 l 0.354029,-8.23123 c 1.255231,1.26224 2.580436,2.45324 3.970204,3.56562 1.436611,1.14983 2.940255,2.21202 4.501268,3.18626 l 0.15169,-8.55996 c 1.306249,1.35347 2.6834,2.62173 4.134581,3.81849 1.380918,1.1388 2.828571,2.20301 4.324243,3.18628 -0.174413,-3.69065 0.03688,-7.39173 0.632194,-11.03821 0.323892,-1.98389 0.755421,-3.94512 1.302323,-5.87946 l 2.098903,-0.41723 -1.656351,5.80359 4.114568,-1.0656 -0.915642,1.29317 2.478209,0.50576 c -0.57718,1.91628 -0.739753,3.9631 -0.442532,5.94268 0.570681,3.80074 2.847108,7.31886 6.081757,9.39449 l -16.500393,16.60154 10.823255,-1.99774 -3.211583,4.85528 10.115191,-2.85754 -2.048329,4.38745 8.888709,-3.16099 -1.22645,4.03344 9.45771,-3.62882 -1.32762,4.75414 6.84039,-3.52768 -1.97245,22.58216 7.40936,25.74317 7.39674,-25.74317 -1.97247,-22.58216 6.85304,3.52768 -1.32761,-4.75414 9.44505,3.62882 -1.22645,-4.03344 8.88871,3.16099 -2.03567,-4.38745 10.11516,2.85754 -3.22419,-4.85528 10.83589,1.99774 -16.50041,-16.60154 c 3.23467,-2.07563 5.49846,-5.59375 6.06912,-9.39449 0.29784,-1.98363 0.15029,-4.03567 -0.4299,-5.95532 l 2.35178,-0.49312 -0.94403,-1.33327 4.26941,1.1057 -1.66901,-5.80359 2.0989,0.41723 c 0.54692,1.93434 0.97844,3.89557 1.30232,5.87946 0.59533,3.64648 0.81917,7.34756 0.64486,11.03821 1.49567,-0.98327 2.93067,-2.04748 4.31159,-3.18628 1.45119,-1.19676 2.84098,-2.46502 4.14723,-3.81849 l 0.13914,8.55996 c 1.56101,-0.97424 3.06465,-2.03643 4.50126,-3.18626 1.38976,-1.11238 2.71498,-2.30338 3.9702,-3.56562 l 0.36668,8.23123 c 1.45304,-0.88499 2.84599,-1.85544 4.17252,-2.92074 1.39863,-1.12322 2.72492,-2.35092 3.95757,-3.65411 l 0.2023,8.3703 c 1.58015,-1.13344 3.09404,-2.35165 4.52654,-3.66676 1.44381,-1.32547 2.7987,-2.74516 4.07136,-4.23572 l 0.46782,3.97022 c 2.97519,-2.81181 5.47171,-6.13454 7.34617,-9.77381 3.72783,-7.23761 4.928,-15.74832 3.33802,-23.732749 l 7.09327,2.75638 c -1.56223,-1.90291 -3.216,-3.72087 -4.96909,-5.44956 -1.6245,-1.60188 -3.33571,-3.12801 -5.10817,-4.56448 5.8522,1.86503 11.60544,4.04879 17.22111,6.53695 5.93023,2.62752 11.70624,5.60005 17.29697,8.888709 -5.5323,-6.360329 -11.84541,-12.037989 -18.76368,-16.854419 -5.22968,-3.64088 -10.80003,-6.78656 -16.61419,-9.39447 l 10.58302,0 c -6.86867,-3.23888 -13.89795,-6.13986 -21.05225,-8.68643 -7.02793,-2.5016 -14.18188,-4.66391 -21.4189,-6.47372 1.6674,0.93142 3.26523,1.99331 4.76679,3.17364 1.44874,1.13883 2.81074,2.38584 4.07135,3.72997 -9.0161,-2.56037 -18.20431,-4.49068 -27.48801,-5.7783 -9.36856,-1.29938 -18.82642,-1.94391 -28.28461,-1.92188 2.75164,0.35456 5.48112,0.81933 8.1933,1.40348 2.83621,0.61086 7.01309,1.3554 9.99915,2.2127 l -5.66227,0 c 2.57041,1.53982 5.01572,3.29035 7.2956,5.23461 3.36437,2.8691 6.3732,6.14769 8.93929,9.7485 -1.72237,1.34685 -3.53406,2.59691 -5.41163,3.71735 -2.07489,1.23817 -4.23479,2.32301 -6.46108,3.26213 0.65,-0.87693 1.28596,-1.76309 1.8966,-2.66787 0.42287,-0.62654 0.8356,-1.25741 1.23912,-1.89661 -7.75015,2.23363 -15.8189,3.3689 -23.88449,3.36332 -8.02584,-0.006 -16.0461,-1.14069 -23.75805,-3.36332 0.4035,0.6392 0.81623,1.27007 1.23911,1.89661 0.61065,0.90478 1.23395,1.79094 1.88395,2.66787 -2.22627,-0.93912 -4.38617,-2.02396 -6.46108,-3.26213 -1.877548,-1.12044 -3.676601,-2.3705 -5.39897,-3.71735 2.566094,-3.60081 5.57492,-6.8794 8.93928,-9.7485 2.27989,-1.94426 4.71256,-3.69479 7.28295,-5.23461 l -5.64964,0 c 2.98607,-0.8573 7.15031,-1.60184 9.98654,-2.2127 2.71216,-0.58415 5.4543,-1.04892 8.20593,-1.40348 z"
     id="path4817"
     style="display:inline;opacity:0.9;fill:#ffffff;fill-opacity:1;fill-rule:evenodd;stroke:none" />
</svg>
