<?xml version="1.0" encoding="UTF-8" standalone="no"?>
<!-- Created with Inkscape (http://www.inkscape.org/) -->

<svg
   xmlns:dc="http://purl.org/dc/elements/1.1/"
   xmlns:cc="http://creativecommons.org/ns#"
   xmlns:rdf="http://www.w3.org/1999/02/22-rdf-syntax-ns#"
   xmlns:svg="http://www.w3.org/2000/svg"
   xmlns="http://www.w3.org/2000/svg"
   xmlns:sodipodi="http://sodipodi.sourceforge.net/DTD/sodipodi-0.dtd"
   xmlns:inkscape="http://www.inkscape.org/namespaces/inkscape"
   width="256"
   height="256"
   viewBox="0 0 256.00002 256"
   id="svg2"
   version="1.1"
   inkscape:version="0.91 r13725"
   sodipodi:docname="xan_sw_empire.svg"
   inkscape:export-filename="D:\dev\XansSciFiMashup\raw\flags\map\xan_sw_empire.png"
   inkscape:export-xdpi="90"
   inkscape:export-ydpi="90">
  <defs
     id="defs4" />
  <sodipodi:namedview
     id="base"
     pagecolor="#00038b"
     bordercolor="#666666"
     borderopacity="1.0"
     inkscape:pageopacity="0"
     inkscape:pageshadow="2"
     inkscape:zoom="2.8644372"
     inkscape:cx="129.78561"
     inkscape:cy="127.16238"
     inkscape:document-units="px"
     inkscape:current-layer="layer1"
     showgrid="false"
     fit-margin-top="20"
     fit-margin-left="20"
     fit-margin-right="20"
     fit-margin-bottom="20"
     inkscape:window-width="1920"
     inkscape:window-height="1017"
     inkscape:window-x="1272"
     inkscape:window-y="-8"
     inkscape:window-maximized="1" />
  <metadata
     id="metadata7">
    <rdf:RDF>
      <cc:Work
         rdf:about="">
        <dc:format>image/svg+xml</dc:format>
        <dc:type
           rdf:resource="http://purl.org/dc/dcmitype/StillImage" />
        <dc:title></dc:title>
      </cc:Work>
    </rdf:RDF>
  </metadata>
  <g
     inkscape:label="Ebene 1"
     inkscape:groupmode="layer"
     id="layer1"
     transform="translate(218.57143,-720.64793)">
    <path
       inkscape:connector-curvature="0"
       d="m -90.571415,730.64785 c -65.136025,0 -118.000025,52.86413 -118.000025,118.00013 0,65.13602 52.864,118.00002 118.000025,118.00002 65.136,0 118.000021,-52.864 118.000021,-118.00002 0,-65.136 -52.864021,-118.00013 -118.000021,-118.00013 z m -5.568966,9.78327 c 0.06446,-0.004 0.13417,0.002 0.2006,0 l 0.502046,8.00213 c -6.806025,0.32395 -13.430235,1.31698 -19.817145,2.93487 l 1.98166,7.80151 c -16.76459,4.2464 -31.69696,13.07494 -43.3971,25.08498 l -5.74444,-5.61905 c -4.67216,4.79316 -8.84914,10.05821 -12.49235,15.70325 l -6.72279,-4.44004 c 18.36113,-28.38969 49.63683,-47.6484 85.489737,-49.46765 z m 10.937114,0 c 35.936353,1.75789 67.29529,21.02535 85.69052882,49.46765 l -6.72276582,4.44004 c -3.6350556,-5.63074 -7.808279,-10.89494 -12.467356,-15.67812 l -5.744458,5.59395 c -11.701951,-12.01647 -26.651699,-20.83708 -43.422186,-25.08499 l 1.981766,-7.8015 c -6.387034,-1.61792 -13.011226,-2.61038 -19.817248,-2.93488 l 0.502025,-8.00213 z m -5.368148,35.36987 c 3.411489,-0.009 6.823088,0.2006 9.632668,0.6018 l -4.389928,36.5239 c 9.227381,1.34554 17.317571,6.17484 22.90262,13.11946 l 29.299312,-21.97451 c 3.558968,4.43359 7.593606,11.38884 9.70797,16.65647 l -33.664133,14.39878 c 1.692011,4.18055 2.633869,8.73598 2.633869,13.52088 0,4.60974 -0.857117,9.01468 -2.43316,13.06926 l 33.3881,14.27338 c -2.060061,5.29895 -6.052635,12.24175 -9.557344,16.70666 l -29.098713,-21.77379 c -5.577532,7.10327 -13.760395,12.06346 -23.103329,13.44555 l 4.314736,35.9218 c -5.619051,0.86568 -13.646285,0.85281 -19.265343,0.0535 l 4.314634,-35.97198 c -9.349584,-1.38306 -17.525474,-6.35923 -23.103334,-13.47068 l -29.02341,21.7738 c -3.55888,-4.43359 -7.59361,-11.38884 -9.70795,-16.65644 l 33.46351,-14.32361 c -1.5709,-4.04858 -2.43327,-8.44268 -2.43327,-13.04416 0,-4.79316 0.93649,-9.35954 2.63387,-13.54596 l -33.58881,-14.34858 c 2.06007,-5.29897 6.05264,-12.24187 9.55735,-16.70666 l 29.37461,21.99959 c 5.58505,-6.94462 13.67524,-11.77393 22.902626,-13.11946 l -4.389826,-36.47369 c 2.809478,-0.43231 6.221077,-0.64471 9.632675,-0.65223 z m -96.426935,23.37923 7.2245,3.56211 c -3.04708,5.90721 -5.53839,12.14401 -7.37502,18.66334 l 7.72623,2.18232 c -2.2462,7.97101 -3.4618,16.37368 -3.4618,25.05999 0,8.69468 1.21143,17.10711 3.4618,25.08499 l -7.72623,2.18245 c 1.83534,6.50866 4.33169,12.74004 7.37502,18.6381 l -7.2245,3.56211 c -7.62999,-14.83314 -11.94053,-31.64932 -11.94053,-49.46765 0,-17.81831 4.31054,-34.63462 11.94053,-49.46776 z m 192.8537596,0 c 7.6299894,14.83314 11.9405284,31.64945 11.9405284,49.46776 0,17.81833 -4.310539,34.63451 -11.9405284,49.46765 l -7.2244844,-3.5621 c 3.0445966,-5.89978 5.5390074,-12.12729 7.375,-18.6381 l -7.7261156,-2.18246 c 2.25025999,-7.97788 3.461683,-16.39031 3.461683,-25.08498 0,-8.68631 -1.21559671,-17.08898 -3.461683,-25.05999 l 7.7261156,-2.18232 c -1.83608,-6.51749 -4.3292234,-12.75755 -7.375,-18.66334 l 7.2244844,-3.56212 z M -174.90733,902.95706 c 3.64461,5.6449 7.81997,10.90985 12.49235,15.70322 l 5.74446,-5.61902 c 11.70012,12.01004 26.63249,20.83866 43.39708,25.08507 l -1.98166,7.80139 c 6.38693,1.61789 13.01112,2.61049 19.817147,2.93499 l -0.502025,8.00213 c -35.936272,-1.75798 -67.295312,-21.02535 -85.690442,-49.46776 l 6.72278,-4.44002 z m 168.6969119,0 6.69767992,4.44002 C -17.907977,935.83949 -49.266914,955.10686 -85.203267,956.86484 l -0.502046,-8.00211 c 6.806021,-0.32502 13.430235,-1.31712 19.817247,-2.93498 l -1.981744,-7.8014 c 16.770466,-4.24789 31.720213,-13.06861 43.422164,-25.08509 l 5.744458,5.59394 c 4.664977,-4.78907 8.852907,-10.03964 12.492464,-15.67811 z"
       style="display:inline;fill:#ffffff;fill-opacity:1;stroke:none"
       id="p1" />
  </g>
</svg>
