<?xml version="1.0" encoding="UTF-8" standalone="no"?>
<!-- Created with Inkscape (http://www.inkscape.org/) -->

<svg
   xmlns:dc="http://purl.org/dc/elements/1.1/"
   xmlns:cc="http://creativecommons.org/ns#"
   xmlns:rdf="http://www.w3.org/1999/02/22-rdf-syntax-ns#"
   xmlns:svg="http://www.w3.org/2000/svg"
   xmlns="http://www.w3.org/2000/svg"
   xmlns:sodipodi="http://sodipodi.sourceforge.net/DTD/sodipodi-0.dtd"
   xmlns:inkscape="http://www.inkscape.org/namespaces/inkscape"
   width="273.06668"
   height="273.06668"
   viewBox="0 0 256 256"
   id="svg2"
   version="1.1"
   inkscape:version="0.92.1 r15371"
   sodipodi:docname="xan_sc_terran.svg"
   inkscape:export-filename="D:\dev\XansSciFiMashup\raw\flags\map\xan_w4_chaos.png"
   inkscape:export-xdpi="90"
   inkscape:export-ydpi="90">
  <defs
     id="defs4" />
  <sodipodi:namedview
     id="base"
     pagecolor="#9a5d00"
     bordercolor="#666666"
     borderopacity="1.0"
     inkscape:pageopacity="0"
     inkscape:pageshadow="2"
     inkscape:zoom="1.1145192"
     inkscape:cx="3.1341447"
     inkscape:cy="33.439833"
     inkscape:document-units="px"
     inkscape:current-layer="layer1"
     showgrid="false"
     inkscape:window-width="1697"
     inkscape:window-height="1057"
     inkscape:window-x="-8"
     inkscape:window-y="837"
     inkscape:window-maximized="1"
     units="px"
     showguides="false" />
  <metadata
     id="metadata7">
    <rdf:RDF>
      <cc:Work
         rdf:about="">
        <dc:format>image/svg+xml</dc:format>
        <dc:type
           rdf:resource="http://purl.org/dc/dcmitype/StillImage" />
        <dc:title></dc:title>
      </cc:Work>
    </rdf:RDF>
  </metadata>
  <g
     inkscape:label="Ebene 1"
     inkscape:groupmode="layer"
     id="layer1"
     transform="translate(0,-796.3622)">
    <path
       style="fill:#000000"
       d=""
       id="path4147"
       inkscape:connector-curvature="0" />
    <path
       style="fill:#000000"
       d=""
       id="path4145"
       inkscape:connector-curvature="0" />
    <path
       style="fill:#ffffff;fill-opacity:1;stroke-width:0.82568365"
       d="m 10.000162,1039.1596 c 0,-0.2093 5.14681,-10.3342 11.43738,-22.4998 6.29053,-12.1657 16.00525,-31.03668 21.58828,-41.93578 5.58302,-10.899 10.43631,-20.1375 10.78514,-20.5299 0.7071,-0.7954 13.98706,8.3768 13.98706,9.6605 0,0.4477 -6.31648,13.0423 -14.03662,27.9879 -7.72015,14.94568 -14.03663,27.51878 -14.03663,27.94048 0,0.4438 6.42642,0.7665 15.27063,0.7665 h 15.2706 l -4.72652,9.4953 -4.72655,9.4954 h -25.40638 c -13.97353,0 -25.40639,-0.1714 -25.40639,-0.3806 z m 180.418768,-8.6882 c -2.50147,-4.9878 -4.54815,-9.2607 -4.54815,-9.4953 0,-0.2348 6.68803,-0.4266 14.8623,-0.4266 9.41101,0 14.86231,-0.3046 14.86231,-0.8302 0,-0.4566 -2.74007,-6.1228 -6.089,-12.5917 -16.98742,-32.81288 -22.04331,-43.03118 -21.71483,-43.88718 0.39783,-1.0367 12.52338,-9.5857 13.54144,-9.5472 0.52906,0.019 43.7641,82.28838 44.66341,84.98628 0.19505,0.5847 -7.93743,0.8607 -25.3712,0.8607 h -25.65813 z m -116.015438,5.4107 c 0,-0.2139 2.17798,-5.1446 4.83996,-10.9571 6.04661,-13.2028 15.55374,-34.83088 19.87733,-45.21938 2.732818,-6.5663 3.020728,-7.7502 1.714718,-7.0513 -0.863258,0.462 -1.801678,1.2157 -2.085398,1.6748 -0.28379,0.4591 -0.83095,0.64 -1.21603,0.402 -0.38508,-0.238 -1.30741,1.3955 -2.04958,3.63 -1.37265,4.1326 -2.40245,5.0326 -5.75869,5.0326 -1.79538,0 -1.84098,-0.1535 -0.99099,-3.338 1.45666,-5.4574 -1.55829,-7.9573 -6.91887,-5.7368 -3.43002,1.4207 -5.17697,3.7361 -5.77922,7.6595 l -0.5341,3.4795 -1.76995,-3.7156 c -2.7062,-5.6809 -2.39166,-8.6942 1.29008,-12.3583 2.9759,-2.9618 4.34524,-3.4959 13.90246,-5.4233 3.94634,-0.7958 8.20895,-6.1632 4.89465,-6.1632 -0.79975,0 0.23015,-1.9954 2.96329,-5.7414 6.123318,-8.39241 6.440008,-13.71602 0.94034,-15.80701 -2.90735,-1.10538 -7.11339,1.03883 -10.15639,5.17762 -2.47192,3.36199 -3.10883,4.59703 -6.11315,11.85339 l -1.20635,2.9137 -7.83447,-5.59719 c -4.30896,-3.07847 -7.85322,-5.88583 -7.87618,-6.2385 -0.0228,-0.35274 1.9741,-3.0851 4.4378,-6.072 6.33926,-7.68535 7.87887,-15.19569 3.9979,-19.50219 -1.70055,-1.88704 -5.76015,-1.84322 -10.92143,0.118 -7.88785,2.99717 -13.99579,9.48851 -17.93355,19.05929 l -1.87664,4.56121 -0.0195,-17.03369 -0.0195,-17.03372 4.80168,-0.3473 c 7.98527,-0.5776 12.54132,-5.37075 12.5346,-13.18689 -0.006,-6.85288 -4.88887,-11.44547 -12.14923,-11.42671 -3.20248,0.01 -11.05945,3.20099 -13.65267,5.54781 -0.799,0.72309 -1.59289,1.16214 -1.76427,0.97571 -0.17132,-0.1866 2.10887,-5.63367 5.06713,-12.10495 l 5.37868,-11.76599 33.95149,0.0582 c 29.152918,0.0501 33.532088,0.21259 30.984008,1.15072 -10.445358,3.84557 -18.913128,12.46984 -18.913128,19.26268 0,3.23662 0.79984,3.77851 2.82864,1.91637 2.34004,-2.14785 7.96531,-5.0486 9.790468,-5.0486 1.29187,0 1.15217,0.50093 -1.01988,3.65793 l -2.516738,3.65795 2.41493,-0.6926 c 3.080018,-0.88336 3.482438,-0.43017 2.052208,2.31117 -1.72441,3.30523 -1.41428,5.61139 1.01117,7.51928 4.314,3.39339 12.68676,1.05024 12.68676,-3.55044 0,-3.846 -3.93689,-5.13937 -6.12683,-2.01282 -1.55925,2.22617 -1.91162,1.9127 -2.58521,-2.2996 -0.44967,-2.81203 -0.20317,-3.70903 1.61285,-5.86712 4.42027,-5.2532 20.82546,-9.464 26.04472,-6.68499 2.90358,1.54601 4.77786,5.24839 5.76247,11.38293 1.03911,6.47427 2.99593,9.41045 6.50505,9.76069 5.45702,0.54469 7.41464,-2.85843 4.683,-8.14089 -1.32065,-2.5538 -1.18756,-2.71962 1.97176,-2.45618 2.09118,0.17424 2.042,-0.0605 -0.90365,-4.31468 -1.53232,-2.21303 -1.53291,-2.27063 -0.0228,-2.27063 0.85233,0 3.70937,1.30045 6.34888,2.88988 2.63953,1.58944 5.12567,2.8899 5.52476,2.8899 0.39913,0 0.7243,-1.20758 0.72259,-2.68348 -0.007,-6.63332 -9.58515,-16.22724 -19.19706,-19.2299 -3.04206,-0.95032 1.04075,-1.10262 30.84423,-1.15053 l 34.35036,-0.0552 5.16179,11.35315 c 6.59981,14.51598 6.49065,14.19403 4.09035,12.06558 -3.14468,-2.7885 -8.77942,-5.30439 -12.99938,-5.8042 -7.72066,-0.91439 -13.33879,3.76044 -13.34519,11.1045 -0.007,7.80412 4.36907,12.58843 12.1001,13.22958 l 4.41048,0.36574 -0.0387,16.20501 -0.0387,16.20502 -1.5228,-3.89529 c -3.26317,-8.34703 -9.90281,-15.21614 -17.49702,-18.10171 -5.83732,-2.21799 -9.29782,-2.02345 -11.39333,0.64056 -3.47017,4.41162 -1.74307,11.50609 4.62995,19.01858 5.3525,6.3095 5.70969,5.38941 -5.06957,13.06015 l -6.57238,4.677 -0.96615,-2.7906 c -5.2243,-15.09007 -14.7062,-22.06179 -19.68034,-14.47034 -1.81539,2.77064 -0.51068,6.66518 4.46101,13.31624 2.76926,3.7045 3.67994,5.472 2.81955,5.472 -2.06642,0 -0.96524,2.6702 1.8965,4.5987 1.44209,0.9718 4.32028,1.9997 6.39596,2.2842 11.15168,1.5285 16.02983,8.3899 11.94592,16.8022 l -1.9298,3.9752 -0.6186,-3.5971 c -0.7059,-4.1045 -1.66951,-5.5162 -4.9084,-7.1912 -5.45498,-2.8209 -9.49127,-0.2249 -8.00725,5.1496 0.97196,3.5202 0.68219,3.8873 -2.51424,3.1852 -2.08975,-0.4589 -2.70742,-1.207 -3.85874,-4.6733 -0.7539,-2.2697 -1.56961,-3.928 -1.81266,-3.6849 -0.24316,0.2432 -1.49208,-0.3059 -2.77564,-1.2198 -2.3211,-1.6528 -2.31129,-1.6073 1.82045,8.4442 2.28473,5.5582 8.42736,19.60018 13.65027,31.20418 5.22291,11.6042 9.67958,21.5196 9.90374,22.0342 0.22431,0.5147 -2.68089,-0.3016 -6.4557,-1.8141 -11.60504,-4.6498 -20.23341,-5.3076 -29.82948,-2.2743 -2.1865,0.6912 -4.11935,1.1129 -4.29515,0.9371 -0.17586,-0.1759 -2.78723,-5.6942 -5.80319,-12.263 -3.01588,-6.5688 -5.57603,-12.0395 -5.68915,-12.1571 -0.11312,-0.1176 -2.74888,5.3629 -5.85719,12.1789 -3.10827,6.8159 -5.90686,12.3925 -6.21905,12.3925 -0.31207,0 -2.19347,-0.6071 -4.18057,-1.3491 -7.96728,-2.9753 -23.111848,-1.1799 -33.121188,3.9264 -1.70845,0.8716 -3.10629,1.4098 -3.10629,1.1958 z M 104.12809,855.71026 c 0,-0.8719 23.49754,-46.5155 23.95183,-46.52607 0.72318,-0.0162 23.22619,45.56402 22.73645,46.05374 -0.2555,0.25551 -4.53056,0.6323 -9.49987,0.83703 l -9.03516,0.37227 -1.8559,-3.81999 c -1.02072,-2.10101 -2.07936,-3.81999 -2.35252,-3.81999 -0.27306,0 -1.30893,1.67201 -2.3018,3.71558 l -1.80516,3.71558 h -9.91894 c -5.45539,0 -9.91893,-0.23763 -9.91893,-0.52815 z"
       id="path21"
       inkscape:connector-curvature="0"
       sodipodi:nodetypes="scscsssscccsscsssccccscccscccccssccccccscccccccccccccccccccccccscsccsccscscccccccssscccccccccccccscccccccsccccccccccccccccscccsccccscscccsccss" />
  </g>
</svg>
