<?xml version="1.0" encoding="UTF-8" standalone="no"?>
<!-- Created with Inkscape (http://www.inkscape.org/) -->

<svg
   xmlns:dc="http://purl.org/dc/elements/1.1/"
   xmlns:cc="http://creativecommons.org/ns#"
   xmlns:rdf="http://www.w3.org/1999/02/22-rdf-syntax-ns#"
   xmlns:svg="http://www.w3.org/2000/svg"
   xmlns="http://www.w3.org/2000/svg"
   xmlns:sodipodi="http://sodipodi.sourceforge.net/DTD/sodipodi-0.dtd"
   xmlns:inkscape="http://www.inkscape.org/namespaces/inkscape"
   width="273.06668"
   height="273.06668"
   viewBox="0 0 256 256"
   id="svg2"
   version="1.1"
   inkscape:version="0.92.1 r15371"
   sodipodi:docname="xan_sc_protoss.svg"
   inkscape:export-filename="D:\dev\XansSciFiMashup\raw\flags\map\xan_w4_eldar.png"
   inkscape:export-xdpi="90"
   inkscape:export-ydpi="90">
  <defs
     id="defs4" />
  <sodipodi:namedview
     id="base"
     pagecolor="#005b64"
     bordercolor="#666666"
     borderopacity="1.0"
     inkscape:pageopacity="0"
     inkscape:pageshadow="2"
     inkscape:zoom="2.2155118"
     inkscape:cx="152.39023"
     inkscape:cy="102.46151"
     inkscape:document-units="px"
     inkscape:current-layer="layer1"
     showgrid="false"
     inkscape:window-width="1697"
     inkscape:window-height="1057"
     inkscape:window-x="-8"
     inkscape:window-y="837"
     inkscape:window-maximized="1"
     units="px"
     showguides="false" />
  <metadata
     id="metadata7">
    <rdf:RDF>
      <cc:Work
         rdf:about="">
        <dc:format>image/svg+xml</dc:format>
        <dc:type
           rdf:resource="http://purl.org/dc/dcmitype/StillImage" />
        <dc:title></dc:title>
      </cc:Work>
    </rdf:RDF>
  </metadata>
  <g
     inkscape:label="Ebene 1"
     inkscape:groupmode="layer"
     id="layer1"
     transform="translate(0,-796.3622)">
    <path
       style="fill:#000000"
       d=""
       id="path4147"
       inkscape:connector-curvature="0" />
    <path
       style="fill:#000000"
       d=""
       id="path4145"
       inkscape:connector-curvature="0" />
    <path
       style="fill:#ffffff;fill-opacity:1;fill-rule:evenodd;stroke-width:0.51019627"
       d="m 79.936383,1039.1124 c -9.67622,-13.0196 -14.16292,-35.1146 -11.07201,-54.52465 1.72059,-10.80459 6.67929,-23.15141 11.72572,-29.19622 l 1.37001,-1.64109 1.95823,1.71931 c 4.15369,3.64701 11.66379,5.84741 15.93656,4.66932 2.918007,-0.80454 5.826267,-3.51899 7.291047,-6.80511 1.03244,-2.31625 1.19308,-3.49385 1.19974,-8.7966 0.007,-6.86942 -1.02066,-11.22902 -3.97428,-16.83367 -3.8799,-7.36209 -12.203917,-13.25136 -19.607007,-13.87202 l -3.68813,-0.30919 0.045,-54.89966 c 0.0406,-49.43004 0.11934,-54.56926 0.79177,-51.58338 3.06876,13.62838 5.89806,22.13547 10.26551,30.86687 4.81856,9.63312 8.722477,15.10829 18.149057,25.45405 6.52098,7.15682 8.24216,9.44246 8.7825,11.66275 0.3849,1.58135 -0.28959,1.85639 -1.36481,0.55654 -1.14385,-1.38281 -5.64593,-3.22473 -7.89502,-3.23011 -3.65335,-0.009 -7.19034,3.28113 -8.41416,7.82615 -0.71403,2.6517 -0.64341,9.3584 0.13123,12.46188 2.84554,11.40049 10.01748,19.50532 17.25586,19.5004 3.24877,-0.002 5.35645,-1.0622 7.26478,-3.65358 2.20142,-2.98944 2.56951,-4.60564 2.33191,-10.23842 -0.20652,-4.89786 -0.90592,-7.79711 -3.2017,-13.27405 -0.57334,-1.36777 1.24839,-1.1421 5.18353,0.64218 5.30626,2.40598 10.58969,8.07184 13.86462,14.86819 2.79953,5.80979 4.15581,10.95523 4.15581,15.76629 v 3.14196 l -1.48022,-1.58455 c -1.2244,-1.31073 -1.86357,-1.58172 -3.69889,-1.56829 -3.73,0.0275 -5.53502,2.24387 -5.53502,6.79714 0,5.94598 3.48867,8.63505 11.22433,8.65167 6.63813,0.014 9.11194,-1.00873 13.83385,-5.72085 6.33355,-6.32038 9.30512,-11.69446 11.00113,-19.89553 1.08466,-5.24483 0.69608,-15.65886 -0.79035,-21.18147 -1.07012,-3.97586 -5.00713,-12.6807 -7.26161,-16.05562 l -1.15289,-1.72584 1.2409,0.66236 c 2.03328,1.08532 10.32397,9.68869 12.64357,13.12047 10.8748,16.08872 12.50495,34.52811 5.18726,58.67516 -1.12713,3.71931 -2.04932,6.87616 -2.04932,7.01522 0,0.13891 -7.32997,0.25285 -16.28885,0.25285 h -16.28882 l -1.56802,2.74062 c -0.86242,1.50735 -1.56804,2.88486 -1.56804,3.06117 0,0.17621 7.44186,0.32056 16.53751,0.32056 h 16.53746 l -1.0749,2.54421 -1.0749,2.54423 -16.86562,0.13425 -16.86563,0.13426 -1.6691,2.4975 c -0.91801,1.37362 -1.59774,2.56889 -1.51052,2.65608 0.0872,0.0872 7.43883,0.19043 16.33692,0.22913 9.59631,0.0417 16.30031,0.268 16.47816,0.55577 0.42032,0.6801 -3.16981,6.56722 -7.79375,12.78036 -10.30875,13.85166 -27.32781,28.187 -44.1628,37.199 -2.45533,1.3143 -4.46421,2.2929 -4.46421,2.1745 0,-0.1184 0.93901,-1.4031 2.08666,-2.855 4.78766,-6.0568 7.68991,-14.00846 7.72389,-21.16201 0.0186,-4.07393 -0.15733,-5.06688 -1.32815,-7.45976 -1.88811,-3.85914 -4.49194,-5.59008 -8.82403,-5.86594 -2.98754,-0.19043 -3.6495,-0.0345 -7.09764,1.66967 -8.996787,4.44646 -17.837797,16.30535 -22.401997,30.04914 -2.71848,8.1858 -3.44035,12.4777 -3.77823,22.4639 l -0.30856,9.1171 z m 9.29976,-91.19683 c -3.90871,-1.27587 -6.398,-3.62533 -7.57924,-7.15327 -1.11149,-3.31987 -0.34734,-6.77244 2.12137,-9.58409 5.06708,-5.77114 14.34904,-4.70018 17.794347,2.05319 2.39121,4.68713 0.64504,10.70136 -3.876267,13.35103 -2.384,1.39712 -6.34978,2.02205 -8.46021,1.33314 z"
       id="path3702"
       inkscape:connector-curvature="0" />
  </g>
</svg>
