<?xml version="1.0" encoding="UTF-8" standalone="no"?>
<!-- Created with Inkscape (http://www.inkscape.org/) -->

<svg
   xmlns:dc="http://purl.org/dc/elements/1.1/"
   xmlns:cc="http://creativecommons.org/ns#"
   xmlns:rdf="http://www.w3.org/1999/02/22-rdf-syntax-ns#"
   xmlns:svg="http://www.w3.org/2000/svg"
   xmlns="http://www.w3.org/2000/svg"
   xmlns:sodipodi="http://sodipodi.sourceforge.net/DTD/sodipodi-0.dtd"
   xmlns:inkscape="http://www.inkscape.org/namespaces/inkscape"
   id="svg2860"
   version="1.1"
   inkscape:version="0.92.1 r15371"
   width="273.06668"
   height="273.06668"
   sodipodi:docname="xan_st_klingon.svg"
   inkscape:export-filename="D:\dev\XansSciFiMashup\raw\flags\map\xan_st_klingon.png"
   inkscape:export-xdpi="90"
   inkscape:export-ydpi="90">
  <metadata
     id="metadata2866">
    <rdf:RDF>
      <cc:Work
         rdf:about="">
        <dc:format>image/svg+xml</dc:format>
        <dc:type
           rdf:resource="http://purl.org/dc/dcmitype/StillImage" />
        <dc:title />
      </cc:Work>
    </rdf:RDF>
  </metadata>
  <defs
     id="defs2864">
    <inkscape:perspective
       sodipodi:type="inkscape:persp3d"
       inkscape:vp_x="0 : 0.53333333 : 1"
       inkscape:vp_y="0 : 1066.6667 : 0"
       inkscape:vp_z="1.0666667 : 0.53333333 : 1"
       inkscape:persp3d-origin="0.53333333 : 0.35555555 : 1"
       id="perspective2868" />
    <inkscape:perspective
       id="perspective3654"
       inkscape:persp3d-origin="0.53333333 : 0.35555555 : 1"
       inkscape:vp_z="1.0666667 : 0.53333333 : 1"
       inkscape:vp_y="0 : 1066.6667 : 0"
       inkscape:vp_x="0 : 0.53333333 : 1"
       sodipodi:type="inkscape:persp3d" />
    <inkscape:perspective
       id="perspective3676"
       inkscape:persp3d-origin="0.53333333 : 0.35555555 : 1"
       inkscape:vp_z="1.0666667 : 0.53333333 : 1"
       inkscape:vp_y="0 : 1066.6667 : 0"
       inkscape:vp_x="0 : 0.53333333 : 1"
       sodipodi:type="inkscape:persp3d" />
    <inkscape:perspective
       id="perspective3714"
       inkscape:persp3d-origin="0.53333333 : 0.35555555 : 1"
       inkscape:vp_z="1.0666667 : 0.53333333 : 1"
       inkscape:vp_y="0 : 1066.6667 : 0"
       inkscape:vp_x="0 : 0.53333333 : 1"
       sodipodi:type="inkscape:persp3d" />
    <inkscape:perspective
       id="perspective3743"
       inkscape:persp3d-origin="0.53333333 : 0.35555555 : 1"
       inkscape:vp_z="1.0666667 : 0.53333333 : 1"
       inkscape:vp_y="0 : 1066.6667 : 0"
       inkscape:vp_x="0 : 0.53333333 : 1"
       sodipodi:type="inkscape:persp3d" />
    <inkscape:perspective
       id="perspective3773"
       inkscape:persp3d-origin="0.53333333 : 0.35555555 : 1"
       inkscape:vp_z="1.0666667 : 0.53333333 : 1"
       inkscape:vp_y="0 : 1066.6667 : 0"
       inkscape:vp_x="0 : 0.53333333 : 1"
       sodipodi:type="inkscape:persp3d" />
    <inkscape:perspective
       id="perspective3795"
       inkscape:persp3d-origin="0.53333333 : 0.35555555 : 1"
       inkscape:vp_z="1.0666667 : 0.53333333 : 1"
       inkscape:vp_y="0 : 1066.6667 : 0"
       inkscape:vp_x="0 : 0.53333333 : 1"
       sodipodi:type="inkscape:persp3d" />
    <inkscape:perspective
       id="perspective3830"
       inkscape:persp3d-origin="0.53333333 : 0.35555555 : 1"
       inkscape:vp_z="1.0666667 : 0.53333333 : 1"
       inkscape:vp_y="0 : 1066.6667 : 0"
       inkscape:vp_x="0 : 0.53333333 : 1"
       sodipodi:type="inkscape:persp3d" />
    <inkscape:perspective
       id="perspective3860"
       inkscape:persp3d-origin="0.53333333 : 0.35555555 : 1"
       inkscape:vp_z="1.0666667 : 0.53333333 : 1"
       inkscape:vp_y="0 : 1066.6667 : 0"
       inkscape:vp_x="0 : 0.53333333 : 1"
       sodipodi:type="inkscape:persp3d" />
    <inkscape:perspective
       id="perspective3887"
       inkscape:persp3d-origin="0.53333333 : 0.35555555 : 1"
       inkscape:vp_z="1.0666667 : 0.53333333 : 1"
       inkscape:vp_y="0 : 1066.6667 : 0"
       inkscape:vp_x="0 : 0.53333333 : 1"
       sodipodi:type="inkscape:persp3d" />
    <inkscape:perspective
       id="perspective3913"
       inkscape:persp3d-origin="0.53333333 : 0.35555555 : 1"
       inkscape:vp_z="1.0666667 : 0.53333333 : 1"
       inkscape:vp_y="0 : 1066.6667 : 0"
       inkscape:vp_x="0 : 0.53333333 : 1"
       sodipodi:type="inkscape:persp3d" />
    <inkscape:perspective
       id="perspective3964"
       inkscape:persp3d-origin="0.53333333 : 0.35555555 : 1"
       inkscape:vp_z="1.0666667 : 0.53333333 : 1"
       inkscape:vp_y="0 : 1066.6667 : 0"
       inkscape:vp_x="0 : 0.53333333 : 1"
       sodipodi:type="inkscape:persp3d" />
  </defs>
  <sodipodi:namedview
     pagecolor="#c00000"
     bordercolor="#666666"
     borderopacity="1"
     objecttolerance="10"
     gridtolerance="10"
     guidetolerance="10"
     inkscape:pageopacity="0"
     inkscape:pageshadow="2"
     inkscape:window-width="1697"
     inkscape:window-height="1057"
     id="namedview2862"
     showgrid="false"
     showguides="false"
     inkscape:zoom="1.9476024"
     inkscape:cx="-32.677821"
     inkscape:cy="126.03782"
     inkscape:window-x="-8"
     inkscape:window-y="837"
     inkscape:window-maximized="1"
     inkscape:current-layer="svg2860" />
  <g
     id="g4153"
     transform="matrix(2.1851853,0,0,2.1851853,-11.298772,-12.641979)">
    <circle
       id="path3933"
       style="fill:none;stroke:#ffffff;stroke-width:1.61850119;stroke-miterlimit:4;stroke-dasharray:none;stroke-opacity:1"
       cx="68.009331"
       cy="93.138054"
       r="31.919359" />
    <path
       sodipodi:nodetypes="ccccccccccccccccccccccccccccccccccccc"
       id="path2872-1-4-4"
       d="m 67.840363,108.53495 -15.108394,-22.522694 1.037192,-2.007957 1.201086,-2.888282 0.699467,-1.958499 1.119139,-3.357417 0.699463,-2.518066 0.839357,-3.217527 0.617513,-2.797853 0.641518,-3.217531 0.699462,-3.357417 0.839357,-4.056885 0.568056,-2.937743 1.390437,-7.694091 0.699462,-5.455814 0.699465,-5.5957 0.839355,-6.29516 0.839353,-6.155274 0.699465,-5.735593 0.815353,-6.09878 0.295303,3.630176 0.428163,4.007422 0.55957,4.616453 0.699461,5.315918 0.69946,5.595696 0.731954,5.414838 0.946759,5.496786 1.061196,5.554731 0.897296,5.216996 1.119141,5.455806 1.011734,4.805808 1.506332,5.965919 1.259032,4.756347 1.259033,3.49731 1.259032,3.07764 1.119139,2.378171 z"
       style="fill:#ffffff;fill-opacity:1;stroke:none;stroke-width:1.06666672"
       inkscape:connector-curvature="0" />
    <path
       sodipodi:nodetypes="cccccccccccccccccccccccccccccccccc"
       id="path3763-8"
       d="m 84.034343,87.32823 -15.612805,23.41314 1.812519,0.87218 1.99451,0.98174 2.49055,0.94764 2.877042,0.78332 2.740711,0.40718 2.67131,0.19842 3.903203,-0.0445 2.87704,-0.27693 2.480205,-0.39683 3.670701,-0.69445 3.174664,-0.89288 3.075457,-1.09129 4.06754,-1.48812 3.28422,-1.46742 2.92877,-1.35484 1.68654,-0.79366 2.20632,-1.20086 1.78879,-1.10467 -2.76749,-0.31832 -2.43881,-0.39683 -3.11685,-0.70481 -3.6707,-0.99208 -3.96833,-1.28971 -3.273873,-1.388911 -2.877036,-1.388918 -1.984164,-1.190499 -2.480207,-1.686541 -2.281788,-1.785746 -1.785752,-1.488122 -1.785748,-1.984164 -1.091288,-1.388918 -0.595251,-0.793663 z"
       style="fill:#ffffff;fill-opacity:1;stroke:none;stroke-width:1.06666672"
       inkscape:connector-curvature="0" />
    <path
       sodipodi:nodetypes="ccccccccccccccccccccccccccccccccccc"
       id="path3763-8-5-1"
       d="m 66.33518,110.51083 -14.678968,-23.18638 -1.285139,1.612301 -1.873296,1.194193 -2.832456,1.54599 -2.662611,1.300764 -2.119535,1.222704 -1.231782,0.727803 -1.1984,0.781773 -1.011314,0.784267 -0.873054,0.782041 -1.754143,1.723678 -2.036861,2.151696 -1.593076,2.23106 -1.43683,2.26287 -1.267756,2.85576 -1.162475,3.64947 -0.312312,2.87025 -0.09013,4.14066 0.06309,5.17568 4.359719,-3.13295 2.335888,-1.84181 3.02725,-2.24604 2.760397,-1.56792 2.353899,-1.36256 2.738364,-1.31018 1.998676,-0.81468 2.519165,-0.96933 1.663944,-0.50861 2.251027,-0.37583 3.351733,-0.36567 4.111356,0.12303 3.033035,0.19959 1.784411,0.28355 1.068188,0.0628 z"
       style="fill:#ffffff;fill-opacity:1;stroke:none;stroke-width:1.06666672"
       inkscape:connector-curvature="0" />
  </g>
</svg>
