<?xml version="1.0" encoding="UTF-8" standalone="no"?>
<!-- Created with Inkscape (http://www.inkscape.org/) -->

<svg
   xmlns:dc="http://purl.org/dc/elements/1.1/"
   xmlns:cc="http://creativecommons.org/ns#"
   xmlns:rdf="http://www.w3.org/1999/02/22-rdf-syntax-ns#"
   xmlns:svg="http://www.w3.org/2000/svg"
   xmlns="http://www.w3.org/2000/svg"
   xmlns:sodipodi="http://sodipodi.sourceforge.net/DTD/sodipodi-0.dtd"
   xmlns:inkscape="http://www.inkscape.org/namespaces/inkscape"
   version="1.1"
   width="256"
   height="256"
   id="svg2"
   inkscape:version="0.91 r13725"
   sodipodi:docname="xan_st_ferengi.svg"
   inkscape:export-filename="D:\dev\XansSciFiMashup\raw\flags\map\xan_st_federation.png"
   inkscape:export-xdpi="90"
   inkscape:export-ydpi="90">
  <sodipodi:namedview
     pagecolor="#0e8e00"
     bordercolor="#666666"
     borderopacity="1"
     objecttolerance="10"
     gridtolerance="10"
     guidetolerance="10"
     inkscape:pageopacity="0"
     inkscape:pageshadow="2"
     inkscape:window-width="1735"
     inkscape:window-height="1057"
     id="namedview93"
     showgrid="false"
     inkscape:zoom="1.7241435"
     inkscape:cx="144.00915"
     inkscape:cy="127.31686"
     inkscape:window-x="2097"
     inkscape:window-y="-8"
     inkscape:window-maximized="1"
     inkscape:current-layer="svg2" />
  <defs
     id="defs4" />
  <metadata
     id="metadata7">
    <rdf:RDF>
      <cc:Work
         rdf:about="">
        <dc:format>image/svg+xml</dc:format>
        <dc:type
           rdf:resource="http://purl.org/dc/dcmitype/StillImage" />
        <dc:title></dc:title>
      </cc:Work>
    </rdf:RDF>
  </metadata>
  <path
     style="fill:#ffffff;fill-opacity:1"
     d="m 100.55029,223.77376 c -15.448238,-0.98369 -29.960798,-5.38775 -42.955428,-13.0355 -18.37029,-10.81149 -33.14319,-28.09064 -40.66274,-47.56123 -3.29162,-8.52308 -5.5877,-18.08647 -6.21645,-25.89207 -0.14701,-1.82501 -0.36818,-4.11811 -0.49148,-5.09579 l -0.22419,-1.7776 52.85957,0 c 29.07276,0 52.863478,0.15998 52.868248,0.35552 0.0549,2.24706 1.68775,11.29382 2.67367,14.81333 7.25035,25.88206 24.95275,42.66101 50.94586,48.28829 2.44203,0.52868 5.90095,1.11058 7.6865,1.29312 l 3.24644,0.33189 28.05847,-28.0555 28.05848,-28.0555 4.79831,0.13618 4.79831,0.13619 -24.48958,42.29631 -24.48958,42.2963 -45.50655,-0.0634 c -25.02861,-0.0349 -47.95964,-0.21962 -50.95786,-0.41053 z m 64.05677,-41.50994 c -17.99027,-5.94423 -31.73074,-19.86422 -36.72484,-37.20464 -0.63076,-2.19011 -1.29601,-4.67527 -1.47833,-5.5226 l -0.33149,-1.54058 3.82391,0 3.82392,0 1.7204,3.43669 c 4.57211,9.1333 11.48713,15.80378 20.47059,19.74664 5.58077,2.44942 4.1909,3.80465 14.90387,-14.53235 l 9.48518,-16.23541 20.14706,0 20.14705,0 -19.93387,20.26464 c -10.96363,11.14555 -22.77507,23.07191 -26.24765,26.50303 l -6.31378,6.23839 -3.49202,-1.15381 z m -11.91384,-39.74228 c -3.30095,-0.69246 -5.27066,-1.73774 -7.52767,-3.99476 -7.04458,-7.04457 -5.12759,-19.2365 3.73558,-23.75816 4.01686,-2.04924 9.7323,-2.05137 13.73161,-0.005 6.78172,3.46991 9.86578,12.55381 6.60013,19.44027 -3.03536,6.40082 -9.70016,9.75253 -16.53965,8.31776 z M 10.237912,124.36773 c 0.11165,-0.71697 0.32066,-3.01589 0.46446,-5.10873 0.70994,-10.33192 4.7018,-24.378467 9.79596,-34.469967 6.20126,-12.28461 16.70068,-24.81572 27.79053,-33.16811 13.04922,-9.828101 26.08252,-15.345207 43.72895,-18.510832 5.22927,-0.93809 7.47943,-0.985658 55.244048,-1.16786 l 49.79273,-0.189933 24.39243,42.065245 c 13.41583,23.135889 24.46353,42.241197 24.55043,42.456247 0.0869,0.21505 -2.06117,0.39101 -4.7735,0.39101 l -4.93151,0 -27.92291,-28.025687 -27.92291,-28.02569 -3.25234,0.30227 c -7.45583,0.69295 -18.30156,3.81552 -25.17599,7.248369 -16.81607,8.39736 -28.8671,23.912911 -33.89771,43.642898 -0.51506,2.02002 -1.16501,5.27261 -1.44435,7.22797 -0.27935,1.95536 -0.61863,4.24846 -0.75397,5.09579 l -0.24608,1.54058 -52.820628,0 -52.82064,0 0.203,-1.30357 z M 171.18025,109.75817 c -5.08393,-8.7506 -9.36405,-16.111287 -9.51136,-16.357077 -0.33041,-0.551251 -4.39206,0.80605 -8.26991,2.763579 -7.78416,3.929428 -14.80803,11.411398 -18.24372,19.433568 l -1.06583,2.48864 -3.97988,0 -3.97988,0 0.29111,-1.30358 c 0.68713,-3.07684 2.20468,-8.32009 2.88236,-9.95879 6.70111,-16.203968 18.38265,-27.142877 35.05765,-32.828908 l 3.84613,-1.3115 20.33179,20.44976 c 11.18248,11.247368 22.99383,23.169488 26.24744,26.493598 l 5.91566,6.04384 -20.13902,-0.001 -20.13902,-10e-4 -9.24352,-15.91019 z"
     id="path4147"
     inkscape:connector-curvature="0" />
</svg>
