<?xml version="1.0" encoding="UTF-8" standalone="no"?>
<!-- Created with Inkscape (http://www.inkscape.org/) -->

<svg
   xmlns:dc="http://purl.org/dc/elements/1.1/"
   xmlns:cc="http://creativecommons.org/ns#"
   xmlns:rdf="http://www.w3.org/1999/02/22-rdf-syntax-ns#"
   xmlns:svg="http://www.w3.org/2000/svg"
   xmlns="http://www.w3.org/2000/svg"
   xmlns:sodipodi="http://sodipodi.sourceforge.net/DTD/sodipodi-0.dtd"
   xmlns:inkscape="http://www.inkscape.org/namespaces/inkscape"
   width="256"
   height="256"
   viewBox="0 0 256 256"
   id="svg2"
   version="1.1"
   inkscape:version="0.91 r13725"
   sodipodi:docname="xan_w4_tau.svg"
   inkscape:export-filename="D:\dev\XansSciFiMashup\raw\flags\map\xan_w4_tau.png"
   inkscape:export-xdpi="90"
   inkscape:export-ydpi="90">
  <defs
     id="defs4" />
  <sodipodi:namedview
     id="base"
     pagecolor="#ff9a00"
     bordercolor="#666666"
     borderopacity="1.0"
     inkscape:pageopacity="0"
     inkscape:pageshadow="2"
     inkscape:zoom="1.8728585"
     inkscape:cx="106.93473"
     inkscape:cy="108.49169"
     inkscape:document-units="px"
     inkscape:current-layer="layer1"
     showgrid="false"
     inkscape:window-width="1920"
     inkscape:window-height="1017"
     inkscape:window-x="1272"
     inkscape:window-y="-8"
     inkscape:window-maximized="1"
     units="px"
     showguides="false" />
  <metadata
     id="metadata7">
    <rdf:RDF>
      <cc:Work
         rdf:about="">
        <dc:format>image/svg+xml</dc:format>
        <dc:type
           rdf:resource="http://purl.org/dc/dcmitype/StillImage" />
        <dc:title></dc:title>
      </cc:Work>
    </rdf:RDF>
  </metadata>
  <g
     inkscape:label="Ebene 1"
     inkscape:groupmode="layer"
     id="layer1"
     transform="translate(0,-796.3622)">
    <path
       style="fill:#000000"
       d=""
       id="path4147"
       inkscape:connector-curvature="0" />
    <path
       style="fill:#000000"
       d=""
       id="path4145"
       inkscape:connector-curvature="0" />
    <path
       style="fill:#ffffff;fill-opacity:1"
       d="m 98.618694,1039.2761 c -40.11495,-10.4982 -72.836565,-42.7503 -85.146721,-83.92509 -4.9314442,-16.49435 -4.5589116,-46.26094 0.794553,-63.4861 6.251042,-20.11306 15.303755,-34.98434 30.549896,-50.18538 15.225382,-15.18044 30.197492,-24.29026 50.225587,-30.55989 17.205411,-5.38591 46.937761,-5.77221 63.486131,-0.82464 51.9348,15.52709 87.432,61.69248 87.47181,113.76009 0.0153,20.82045 -3.5037,35.06471 -13.69779,55.43588 -14.29734,28.57093 -43.6854,51.89273 -75.491,59.90843 -13.46902,3.3945 -45.00598,3.3278 -58.192466,-0.1224 z m 66.600616,-6.5911 c 34.63757,-12.7884 60.83995,-39.77787 71.60614,-73.75728 5.75311,-18.15727 5.68308,-52.16706 -0.14226,-69.07515 -10.89424,-31.62086 -31.33202,-54.32106 -62.03446,-68.90162 -34.45606,-16.3632 -73.54794,-13.68311 -107.304729,7.35666 -26.311498,16.39923 -45.253183,43.55555 -51.192051,73.39325 -2.315888,11.63524 -2.240477,34.94986 0.153269,47.39099 3.880843,20.17027 20.703829,48.6771 36.238552,61.40645 15.973639,13.0893 37.173282,23.451 55.016659,26.8903 2.45897,0.4739 13.72552,0.611 25.03678,0.3048 16.54428,-0.4482 22.92351,-1.4276 32.62212,-5.0084 z m -66.121311,-10.2582 c -32.490434,-9.5921 -59.822604,-37.40469 -69.431891,-70.6525 -4.449022,-15.39323 -3.998102,-41.06348 1.005221,-57.22686 7.201121,-23.26313 26.769267,-47.23492 47.883072,-58.6587 l 9.256987,-5.00851 -4.60209,8.87032 c -9.498941,18.30875 -4.769036,44.77793 10.460238,58.53662 7.414384,6.69846 19.642144,13.14236 25.068004,13.21032 2.91455,0.0371 3.12959,3.97157 3.12959,57.26619 l 0,57.22702 -5.81211,-0.1377 c -3.19665,-0.076 -10.82732,-1.6175 -16.957021,-3.427 z m 35.287531,-53.45094 0,-57.01446 7.69074,-1.93651 c 29.27738,-7.37216 45.17454,-45.36888 29.84898,-71.34377 -1.95868,-3.31973 -3.56123,-6.44245 -3.56123,-6.93934 0,-3.01199 20.59022,11.00488 30.52476,20.77967 48.96589,48.17904 38.12296,126.89413 -22.28234,161.76035 -8.77366,5.0641 -29.79589,11.7089 -37.04427,11.7089 l -5.17664,0 0,-57.01484 z m -22.96775,-71.19631 c -14.399666,-7.09508 -22.14865,-19.48322 -22.300761,-35.65198 -0.08798,-9.34617 0.752764,-12.53885 5.192743,-19.7204 7.796428,-12.61038 18.971888,-18.94626 33.418368,-18.94626 16.56425,0 28.93472,7.8172 36.02922,22.76773 3.92303,8.2673 3.96189,23.90842 0.0797,32.08943 -3.40035,7.16568 -14.90991,18.23122 -21.61392,20.78002 -7.05042,2.68057 -24.17669,1.94744 -30.80537,-1.31854 z"
       id="path4148"
       inkscape:connector-curvature="0" />
  </g>
</svg>
