<?xml version="1.0" encoding="UTF-8" standalone="no"?>
<!-- Created with Inkscape (http://www.inkscape.org/) -->

<svg
   xmlns:dc="http://purl.org/dc/elements/1.1/"
   xmlns:cc="http://creativecommons.org/ns#"
   xmlns:rdf="http://www.w3.org/1999/02/22-rdf-syntax-ns#"
   xmlns:svg="http://www.w3.org/2000/svg"
   xmlns="http://www.w3.org/2000/svg"
   xmlns:sodipodi="http://sodipodi.sourceforge.net/DTD/sodipodi-0.dtd"
   xmlns:inkscape="http://www.inkscape.org/namespaces/inkscape"
   id="svg2860"
   version="1.1"
   inkscape:version="0.92.2 (5c3e80d, 2017-08-06)"
   width="273.06668"
   height="273.06668"
   sodipodi:docname="xan_sg_goauld.svg"
   inkscape:export-filename="D:\dev\XansSciFiMashup\raw\flags\map\xan_st_klingon.png"
   inkscape:export-xdpi="90"
   inkscape:export-ydpi="90">
  <metadata
     id="metadata2866">
    <rdf:RDF>
      <cc:Work
         rdf:about="">
        <dc:format>image/svg+xml</dc:format>
        <dc:type
           rdf:resource="http://purl.org/dc/dcmitype/StillImage" />
        <dc:title></dc:title>
      </cc:Work>
    </rdf:RDF>
  </metadata>
  <defs
     id="defs2864">
    <inkscape:perspective
       sodipodi:type="inkscape:persp3d"
       inkscape:vp_x="0 : 0.53333333 : 1"
       inkscape:vp_y="0 : 1066.6667 : 0"
       inkscape:vp_z="1.0666667 : 0.53333333 : 1"
       inkscape:persp3d-origin="0.53333333 : 0.35555555 : 1"
       id="perspective2868" />
    <inkscape:perspective
       id="perspective3654"
       inkscape:persp3d-origin="0.53333333 : 0.35555555 : 1"
       inkscape:vp_z="1.0666667 : 0.53333333 : 1"
       inkscape:vp_y="0 : 1066.6667 : 0"
       inkscape:vp_x="0 : 0.53333333 : 1"
       sodipodi:type="inkscape:persp3d" />
    <inkscape:perspective
       id="perspective3676"
       inkscape:persp3d-origin="0.53333333 : 0.35555555 : 1"
       inkscape:vp_z="1.0666667 : 0.53333333 : 1"
       inkscape:vp_y="0 : 1066.6667 : 0"
       inkscape:vp_x="0 : 0.53333333 : 1"
       sodipodi:type="inkscape:persp3d" />
    <inkscape:perspective
       id="perspective3714"
       inkscape:persp3d-origin="0.53333333 : 0.35555555 : 1"
       inkscape:vp_z="1.0666667 : 0.53333333 : 1"
       inkscape:vp_y="0 : 1066.6667 : 0"
       inkscape:vp_x="0 : 0.53333333 : 1"
       sodipodi:type="inkscape:persp3d" />
    <inkscape:perspective
       id="perspective3743"
       inkscape:persp3d-origin="0.53333333 : 0.35555555 : 1"
       inkscape:vp_z="1.0666667 : 0.53333333 : 1"
       inkscape:vp_y="0 : 1066.6667 : 0"
       inkscape:vp_x="0 : 0.53333333 : 1"
       sodipodi:type="inkscape:persp3d" />
    <inkscape:perspective
       id="perspective3773"
       inkscape:persp3d-origin="0.53333333 : 0.35555555 : 1"
       inkscape:vp_z="1.0666667 : 0.53333333 : 1"
       inkscape:vp_y="0 : 1066.6667 : 0"
       inkscape:vp_x="0 : 0.53333333 : 1"
       sodipodi:type="inkscape:persp3d" />
    <inkscape:perspective
       id="perspective3795"
       inkscape:persp3d-origin="0.53333333 : 0.35555555 : 1"
       inkscape:vp_z="1.0666667 : 0.53333333 : 1"
       inkscape:vp_y="0 : 1066.6667 : 0"
       inkscape:vp_x="0 : 0.53333333 : 1"
       sodipodi:type="inkscape:persp3d" />
    <inkscape:perspective
       id="perspective3830"
       inkscape:persp3d-origin="0.53333333 : 0.35555555 : 1"
       inkscape:vp_z="1.0666667 : 0.53333333 : 1"
       inkscape:vp_y="0 : 1066.6667 : 0"
       inkscape:vp_x="0 : 0.53333333 : 1"
       sodipodi:type="inkscape:persp3d" />
    <inkscape:perspective
       id="perspective3860"
       inkscape:persp3d-origin="0.53333333 : 0.35555555 : 1"
       inkscape:vp_z="1.0666667 : 0.53333333 : 1"
       inkscape:vp_y="0 : 1066.6667 : 0"
       inkscape:vp_x="0 : 0.53333333 : 1"
       sodipodi:type="inkscape:persp3d" />
    <inkscape:perspective
       id="perspective3887"
       inkscape:persp3d-origin="0.53333333 : 0.35555555 : 1"
       inkscape:vp_z="1.0666667 : 0.53333333 : 1"
       inkscape:vp_y="0 : 1066.6667 : 0"
       inkscape:vp_x="0 : 0.53333333 : 1"
       sodipodi:type="inkscape:persp3d" />
    <inkscape:perspective
       id="perspective3913"
       inkscape:persp3d-origin="0.53333333 : 0.35555555 : 1"
       inkscape:vp_z="1.0666667 : 0.53333333 : 1"
       inkscape:vp_y="0 : 1066.6667 : 0"
       inkscape:vp_x="0 : 0.53333333 : 1"
       sodipodi:type="inkscape:persp3d" />
    <inkscape:perspective
       id="perspective3964"
       inkscape:persp3d-origin="0.53333333 : 0.35555555 : 1"
       inkscape:vp_z="1.0666667 : 0.53333333 : 1"
       inkscape:vp_y="0 : 1066.6667 : 0"
       inkscape:vp_x="0 : 0.53333333 : 1"
       sodipodi:type="inkscape:persp3d" />
  </defs>
  <sodipodi:namedview
     pagecolor="#ff0df0"
     bordercolor="#666666"
     borderopacity="1"
     objecttolerance="10"
     gridtolerance="10"
     guidetolerance="10"
     inkscape:pageopacity="0"
     inkscape:pageshadow="2"
     inkscape:window-width="1708"
     inkscape:window-height="1057"
     id="namedview2862"
     showgrid="false"
     showguides="false"
     inkscape:zoom="0.68858143"
     inkscape:cx="-122.4997"
     inkscape:cy="36.069441"
     inkscape:window-x="-8"
     inkscape:window-y="843"
     inkscape:window-maximized="1"
     inkscape:current-layer="svg2860" />
  <path
     d="m 180.38303,240.20234 c -3.14514,-13.03023 -10.30278,-25.7634 -6.67329,-40.08745 3.40666,-13.84201 6.12297,-27.94565 11.80149,-40.90254 2.90682,-9.49446 8.36331,-19.46881 11.01239,-27.78966 3.08939,-4.75994 2.35345,-7.71257 -0.74154,-6.86933 -3.90093,5.16435 -15.65653,13.88035 -22.82611,20.20243 -10.84481,8.85448 -20.25432,19.80465 -30.51877,29.36958 -6.03361,6.6255 -13.99588,11.20887 -21.01669,16.71938 -15.89878,12.17718 -33.5763,22.493 -52.9014,24.37906 -11.4342,3.08222 -24.45238,0.42474 -34.81573,-5.86129 C 20.69734,201.54683 13.66393,183.86195 13.53334,167.53307 14.49,156.39204 23.72131,148.3636 32.2654,144.69383 c 9.776,-2.00346 22.71822,-1.5232 27.95449,9.96696 6.92762,8.1182 3.47165,24.43423 -7.00448,25.57946 -11.99552,4.3534 -13.32078,-14.50992 -15.56257,-21.37174 -9.972,2.34683 -15.15155,23.07212 -7.94882,30.00382 11.32042,14.52285 29.90946,12.6569 44.95405,9.12479 13.07802,-4.08057 26.33289,-9.27621 37.60533,-18.01767 14.01034,-12.305 29.45984,-22.49762 42.34543,-36.4398 4.3421,-3.89498 17.25955,-9.88956 4.19195,-10.03321 -10.3925,0.72354 -20.68585,4.31523 -31.06878,1.76295 -11.53239,-0.25505 -22.59976,-3.62585 -33.72438,-6.56306 -14.81375,-5.97312 -29.45708,-12.56046 -44.86261,-16.34111 -9.73569,-4.17104 -20.74403,-3.4 -30.23979,-6.8223 -3.05095,-6.604091 -7.2004,-22.573101 4.77664,-18.365341 13.36583,2.44275 25.68238,-5.42824 38.61307,-7.57514 19.22835,-5.8386 38.22886,-13.32711 58.2457,-14.75071 13.46329,-1.80039 26.97823,1.09188 40.40903,2.25593 21.38444,4.7642 41.67843,14.31267 62.46432,21.63171 6.33223,3.11927 13.33914,0.3367 20.00012,0.58028 3.31972,0.74922 8.80337,-2.6909 10.4568,1.28425 3.63298,6.35605 6.12474,16.783631 -3.90524,13.689161 -13.63787,1.01999 -28.42256,5.07245 -38.30497,16.53134 -5.9334,8.00142 -4.42532,22.99187 -4.45269,29.99211 6.87011,7.01154 15.79999,8.6808 23.76412,12.86442 -4.16374,7.82471 -14.66622,12.45626 -19.71556,21.16761 -10.26974,14.19919 -26.05741,25.85909 -28.23781,45.51146 -0.66572,1.91287 0.8053,11.75934 -2.63572,9.84234 z m -27.6593,-119.23877 c 17.34937,-3.50251 35.00211,-7.21155 51.11181,-15.5413 5.18485,-0.13168 16.74945,-6.166821 5.24794,-7.205001 -15.33942,-3.59574 -29.25711,-12.38449 -44.57633,-16.1996 -11.09332,-5.7413 -6.15852,16.34355 -16.01,19.477211 -10.83678,8.22362 -27.76898,-0.46699 -27.89901,-15.953211 0.77431,-6.13414 -5.07062,-2.48494 -8.19466,-2.85728 -16.18976,2.57726 -31.64658,9.17466 -47.57058,13.28869 -2.42236,1.51981 -13.70887,2.25805 -6.16155,4.769271 10.16066,5.53273 20.48494,11.03523 31.40566,13.75679 17.70281,6.49936 36.49102,5.25218 54.68684,8.04758 2.68816,-0.28022 5.28823,-1.16699 7.95988,-1.58315 z M 20.36077,75.171389 c -3.85499,-10.5924 0.36443,-27.03763 12.8258,-21.83583 10.36612,2.89161 19.3881,-3.92004 29.5776,-4.10951 11.48783,-4.25665 23.13555,-9.06947 35.36191,-11.13678 10.24231,-3.08972 21.85055,-2.93334 30.93864,-5.47115 13.79788,2.47412 28.13028,0.59808 41.68041,4.66971 8.36773,1.7255 16.13415,5.19943 24.90714,8.12134 8.5539,3.93031 17.66367,6.55574 26.54504,9.4182 10.24679,5.0604 21.37635,2.00925 31.81039,0.41692 11.79393,6.13038 2.56033,21.29521 -7.69682,20.30029 -13.82901,1.08421 -27.32138,-4.62675 -40.58106,-8.47706 -11.87116,-4.75262 -23.56834,-10.33243 -36.22192,-11.76015 -17.97631,-4.41149 -36.65475,-6.76569 -54.79094,-2.15197 -21.05171,2.14117 -40.81451,11.19114 -60.2287,20.14141 -10.94701,2.724 -23.45973,6.06481 -34.12749,1.87458 z"
     style="fill:#ffffff;fill-opacity:1;stroke-width:0.20442747"
     id="path1875"
     inkscape:connector-curvature="0" />
</svg>
