<?xml version="1.0" encoding="UTF-8" standalone="no"?>
<!-- Created with Inkscape (http://www.inkscape.org/) -->

<svg
   xmlns:dc="http://purl.org/dc/elements/1.1/"
   xmlns:cc="http://creativecommons.org/ns#"
   xmlns:rdf="http://www.w3.org/1999/02/22-rdf-syntax-ns#"
   xmlns:svg="http://www.w3.org/2000/svg"
   xmlns="http://www.w3.org/2000/svg"
   xmlns:sodipodi="http://sodipodi.sourceforge.net/DTD/sodipodi-0.dtd"
   xmlns:inkscape="http://www.inkscape.org/namespaces/inkscape"
   id="svg2860"
   version="1.1"
   inkscape:version="0.92.1 r15371"
   width="273.06668"
   height="273.06668"
   sodipodi:docname="xan_st_romulan.svg"
   inkscape:export-filename="D:\dev\XansSciFiMashup\raw\flags\map\xan_st_klingon.png"
   inkscape:export-xdpi="90"
   inkscape:export-ydpi="90"
   style="shape-rendering:crispEdges">
  <metadata
     id="metadata2866">
    <rdf:RDF>
      <cc:Work
         rdf:about="">
        <dc:format>image/svg+xml</dc:format>
        <dc:type
           rdf:resource="http://purl.org/dc/dcmitype/StillImage" />
        <dc:title />
      </cc:Work>
    </rdf:RDF>
  </metadata>
  <defs
     id="defs2864">
    <inkscape:perspective
       sodipodi:type="inkscape:persp3d"
       inkscape:vp_x="0 : 0.53333333 : 1"
       inkscape:vp_y="0 : 1066.6667 : 0"
       inkscape:vp_z="1.0666667 : 0.53333333 : 1"
       inkscape:persp3d-origin="0.53333333 : 0.35555555 : 1"
       id="perspective2868" />
    <inkscape:perspective
       id="perspective3654"
       inkscape:persp3d-origin="0.53333333 : 0.35555555 : 1"
       inkscape:vp_z="1.0666667 : 0.53333333 : 1"
       inkscape:vp_y="0 : 1066.6667 : 0"
       inkscape:vp_x="0 : 0.53333333 : 1"
       sodipodi:type="inkscape:persp3d" />
    <inkscape:perspective
       id="perspective3676"
       inkscape:persp3d-origin="0.53333333 : 0.35555555 : 1"
       inkscape:vp_z="1.0666667 : 0.53333333 : 1"
       inkscape:vp_y="0 : 1066.6667 : 0"
       inkscape:vp_x="0 : 0.53333333 : 1"
       sodipodi:type="inkscape:persp3d" />
    <inkscape:perspective
       id="perspective3714"
       inkscape:persp3d-origin="0.53333333 : 0.35555555 : 1"
       inkscape:vp_z="1.0666667 : 0.53333333 : 1"
       inkscape:vp_y="0 : 1066.6667 : 0"
       inkscape:vp_x="0 : 0.53333333 : 1"
       sodipodi:type="inkscape:persp3d" />
    <inkscape:perspective
       id="perspective3743"
       inkscape:persp3d-origin="0.53333333 : 0.35555555 : 1"
       inkscape:vp_z="1.0666667 : 0.53333333 : 1"
       inkscape:vp_y="0 : 1066.6667 : 0"
       inkscape:vp_x="0 : 0.53333333 : 1"
       sodipodi:type="inkscape:persp3d" />
    <inkscape:perspective
       id="perspective3773"
       inkscape:persp3d-origin="0.53333333 : 0.35555555 : 1"
       inkscape:vp_z="1.0666667 : 0.53333333 : 1"
       inkscape:vp_y="0 : 1066.6667 : 0"
       inkscape:vp_x="0 : 0.53333333 : 1"
       sodipodi:type="inkscape:persp3d" />
    <inkscape:perspective
       id="perspective3795"
       inkscape:persp3d-origin="0.53333333 : 0.35555555 : 1"
       inkscape:vp_z="1.0666667 : 0.53333333 : 1"
       inkscape:vp_y="0 : 1066.6667 : 0"
       inkscape:vp_x="0 : 0.53333333 : 1"
       sodipodi:type="inkscape:persp3d" />
    <inkscape:perspective
       id="perspective3830"
       inkscape:persp3d-origin="0.53333333 : 0.35555555 : 1"
       inkscape:vp_z="1.0666667 : 0.53333333 : 1"
       inkscape:vp_y="0 : 1066.6667 : 0"
       inkscape:vp_x="0 : 0.53333333 : 1"
       sodipodi:type="inkscape:persp3d" />
    <inkscape:perspective
       id="perspective3860"
       inkscape:persp3d-origin="0.53333333 : 0.35555555 : 1"
       inkscape:vp_z="1.0666667 : 0.53333333 : 1"
       inkscape:vp_y="0 : 1066.6667 : 0"
       inkscape:vp_x="0 : 0.53333333 : 1"
       sodipodi:type="inkscape:persp3d" />
    <inkscape:perspective
       id="perspective3887"
       inkscape:persp3d-origin="0.53333333 : 0.35555555 : 1"
       inkscape:vp_z="1.0666667 : 0.53333333 : 1"
       inkscape:vp_y="0 : 1066.6667 : 0"
       inkscape:vp_x="0 : 0.53333333 : 1"
       sodipodi:type="inkscape:persp3d" />
    <inkscape:perspective
       id="perspective3913"
       inkscape:persp3d-origin="0.53333333 : 0.35555555 : 1"
       inkscape:vp_z="1.0666667 : 0.53333333 : 1"
       inkscape:vp_y="0 : 1066.6667 : 0"
       inkscape:vp_x="0 : 0.53333333 : 1"
       sodipodi:type="inkscape:persp3d" />
    <inkscape:perspective
       id="perspective3964"
       inkscape:persp3d-origin="0.53333333 : 0.35555555 : 1"
       inkscape:vp_z="1.0666667 : 0.53333333 : 1"
       inkscape:vp_y="0 : 1066.6667 : 0"
       inkscape:vp_x="0 : 0.53333333 : 1"
       sodipodi:type="inkscape:persp3d" />
  </defs>
  <sodipodi:namedview
     pagecolor="#086600"
     bordercolor="#666666"
     borderopacity="1"
     objecttolerance="10"
     gridtolerance="10"
     guidetolerance="10"
     inkscape:pageopacity="0"
     inkscape:pageshadow="2"
     inkscape:window-width="1697"
     inkscape:window-height="1057"
     id="namedview2862"
     showgrid="false"
     showguides="false"
     inkscape:zoom="1.9476024"
     inkscape:cx="-19.584799"
     inkscape:cy="181.49062"
     inkscape:window-x="-8"
     inkscape:window-y="837"
     inkscape:window-maximized="1"
     inkscape:current-layer="svg2860"
     units="px" />
  <path
     inkscape:connector-curvature="0"
     d="m 110.59921,112.32734 0.30607,6.69564 -4.70605,-5.01217 2.86955,1.0713 z m -9.02953,7.88171 -2.757646,1.2461 3.363416,-4.74753 3.69856,6.19624 z m 31.00527,72.78057 c -1.00099,-3.24591 -2.02557,-6.48444 -3.0885,-9.71058 l -0.0404,-0.12142 0.0128,-0.13479 c 0.84225,-5.60025 1.50033,-11.22725 1.9556,-16.87214 0.38795,-4.81022 0.82331,-10.59075 0.95758,-15.5639 -1.00526,-6.55154 -2.59699,-13.30651 -4.36976,-19.55603 l 0.43157,-0.89013 c 0.0377,-0.0716 0.0719,-0.14372 0.1078,-0.21579 l 0.1618,-0.35067 c 2.69286,-5.86028 0.20623,-12.81097 -5.75893,-15.75272 -0.46375,-0.22869 -1.3717,-0.62476 -1.86116,-0.79572 l 0.62037,-1.45659 c 0.14586,0.0508 0.28748,0.10673 0.4316,0.1618 -3.11799,-4.72013 -6.76056,-9.09832 -10.84349,-13.014864 -5.8812,-5.641504 -12.669538,-10.334955 -20.028096,-13.837568 l -1.119416,-0.539478 0.795724,-0.930592 c 2.116215,-2.490037 4.331849,-4.897898 6.622092,-7.229002 2.122273,-2.16015 6.999706,-6.689504 6.999706,-6.689504 0,0 -11.694155,1.365386 -17.411616,2.724352 -4.168664,0.990837 -8.659637,1.881408 -12.7856,3.061525 -9.461337,2.706155 -18.448847,5.918699 -27.513309,9.710581 -13.073333,5.468907 -28.36407,15.82609 -32.044916,18.70637 3.771662,-3.25866 16.300725,-13.533943 31.127802,-20.014594 12.947553,-5.659146 26.717252,-9.840021 40.568641,-12.933952 7.51898,-1.679488 19.024898,-3.082016 22.914278,-3.021077 l -1.30824,1.267765 c -3.19593,2.695446 -6.26797,5.527872 -9.198064,8.510251 -1.941952,1.976608 -3.783017,4.045365 -5.597078,6.136555 -0.05274,0.05952 -0.03104,0.167541 0.0404,0.20241 7.044262,3.515094 13.564802,8.064384 19.245852,13.513888 5.01174,4.807524 9.377,10.281674 12.94743,16.238244 5.62057,4.09033 7.41048,11.484 4.30233,17.533 1.94479,7.1262 4.02821,15.86508 5.15201,22.72544 1.10244,6.73025 1.46997,6.77321 1.47008,16.61186 8e-5,-9.83865 0.36763,-9.88161 1.47009,-16.61186 1.1238,-6.86036 3.20722,-15.59924 5.152,-22.72544 -3.10814,-6.049 -1.31825,-13.44267 4.30234,-17.533 3.57043,-5.95657 7.93566,-11.43072 12.94743,-16.238244 5.68105,-5.449504 12.20159,-9.998794 19.24585,-13.513888 0.0715,-0.03488 0.0931,-0.142666 0.0403,-0.20241 -1.81406,-2.09119 -3.65512,-4.159947 -5.59707,-6.136555 -2.9301,-2.982379 -6.00215,-5.814805 -9.19809,-8.510251 l -1.30823,-1.267765 c 3.88937,-0.06091 15.39529,1.341589 22.91427,3.021077 13.8514,3.093931 27.62112,7.274806 40.56864,12.933952 14.82709,6.480651 27.35614,16.755934 31.1278,20.014594 -3.68083,-2.88028 -18.97156,-13.237463 -32.0449,-18.70637 -9.06446,-3.791882 -18.05197,-7.004426 -27.51329,-9.710581 -4.12598,-1.180117 -8.61695,-2.070688 -12.78561,-3.061525 -5.71747,-1.358966 -17.41162,-2.724352 -17.41162,-2.724352 0,0 4.87743,4.529354 6.99971,6.689504 2.29024,2.331104 4.50588,4.738965 6.62208,7.229002 l 0.79573,0.930592 -1.11942,0.539478 c -7.35856,3.502613 -14.14689,8.196064 -20.02806,13.837568 -4.08295,3.916544 -7.72551,8.294734 -10.84349,13.014864 0.14415,-0.0553 0.28561,-0.11098 0.43157,-0.1618 l 0.6204,1.45659 c -0.48946,0.17094 -1.39741,0.56703 -1.8612,0.79572 -5.96518,2.94175 -8.45175,9.89244 -5.7589,15.75272 l 0.1618,0.35067 c 0.0359,0.0721 0.0703,0.14415 0.10801,0.21579 l 0.43158,0.89013 c -1.77277,6.24952 -3.36453,13.00449 -4.36976,19.55603 0.13416,4.97315 0.56963,10.75368 0.95758,15.5639 0.45527,5.64489 1.11335,11.27189 1.9556,16.87214 l 0.0128,0.13479 -0.0403,0.12142 c -1.06293,3.22614 -2.0875,6.46467 -3.08849,9.71058 -1.16655,3.78274 -2.81587,9.86791 -3.89773,13.67573 -1.08183,-3.80782 -2.73118,-9.89299 -3.89771,-13.67573 z m 6.75695,-0.32368 c 0.99211,-3.21714 2.02216,-6.41843 3.07502,-9.6162 -0.83618,-5.58052 -1.4885,-11.18012 -1.94212,-16.80469 -0.27217,-3.37466 -0.47257,-6.75781 -0.60692,-10.14216 -1.79,16.02302 -3.38521,43.83249 -3.38521,43.83249 0,0 -1.59524,-27.80947 -3.38522,-43.83249 -0.13438,3.38435 -0.33475,6.7675 -0.6069,10.14216 -0.45365,5.62457 -1.10596,11.22417 -1.94212,16.80469 1.05283,3.19777 2.08289,6.39906 3.07501,9.6162 0.95045,3.08201 1.96678,6.93538 2.85923,10.03425 0.89245,-3.09887 1.90879,-6.95224 2.85923,-10.03425 z M 100.74582,70.568876 c 0.20794,0.0043 0.41286,0.01451 0.6204,0.02699 -7.016454,4.692128 -13.37158,10.364427 -18.827735,16.804704 -3.982006,4.700235 -7.487632,9.805952 -10.438876,15.21324 -1.425013,0.21323 -2.83275,0.51922 -4.221404,0.90363 -1.926986,0.53342 -3.813927,1.2277 -5.624044,2.07698 1.50777,-1.23168 3.158099,-2.2916 4.909236,-3.14245 1.181345,-0.57401 2.411888,-1.04732 3.668443,-1.42961 3.723707,-7.139262 8.543753,-13.705342 14.242186,-19.394195 4.163539,-4.156544 8.789821,-7.846485 13.770135,-10.978347 0.422856,-0.04256 0.842863,-0.07264 1.267779,-0.08096 0.20794,-0.0043 0.426,-0.0043 0.63388,0 z m -6.716491,1.092437 c -4.96103,2.984181 -9.659242,6.397493 -14.039864,10.182635 -5.505382,4.756981 -10.498787,10.10608 -14.862596,15.928042 -1.934871,0.384182 -3.856475,0.86111 -5.745426,1.4296 -2.586714,0.778528 -5.117802,1.73378 -7.579649,2.84576 1.597296,-1.19324 3.29648,-2.260608 5.071084,-3.169418 2.162574,-1.10751 4.441108,-1.986123 6.783917,-2.629974 4.090471,-5.462293 8.777978,-10.486389 13.945473,-14.943488 3.944862,-3.402538 8.159769,-6.4768 12.61028,-9.184597 0.377782,-0.101333 0.761239,-0.188043 1.146376,-0.256245 0.880985,-0.156022 1.775961,-0.223062 2.670405,-0.202315 z m -10.843484,2.346731 c -2.255479,1.05185 -4.443367,2.242922 -6.554635,3.560544 -4.889949,3.051765 -9.319955,6.777664 -13.621788,10.614197 -1.952084,1.74096 -3.881182,3.507701 -5.785883,5.300373 -2.384151,0.630838 -4.758899,1.324843 -7.107607,2.076982 -3.066302,0.981941 -6.096389,2.06561 -9.090186,3.250346 2.202281,-1.624789 4.569643,-3.032224 7.053657,-4.18096 2.670217,-1.234837 5.474542,-2.176149 8.348403,-2.805258 1.9011,-1.975616 3.891302,-3.86463 5.947736,-5.678006 3.035977,-2.67712 6.226577,-5.172778 9.548736,-7.485237 1.703763,-1.185941 3.43904,-2.322549 5.205956,-3.412192 0.854727,-0.254933 1.71766,-0.486005 2.589482,-0.674336 1.145398,-0.247424 2.301574,-0.43616 3.466129,-0.566453 z m -21.727418,6.25793 c -2.671343,1.423126 -5.284828,2.956608 -7.835896,4.585547 -2.364389,1.509739 -4.670836,3.096171 -6.918791,4.774368 -4.083831,1.474112 -8.122279,3.073557 -12.111249,4.787851 -4.058923,1.744373 -8.070882,3.610357 -12.016845,5.59708 4.330049,-3.188088 8.856786,-6.112419 13.540868,-8.753016 8.036481,-4.530454 16.54264,-8.220022 25.341913,-10.99183 z m 28.147202,4.679947 c 0.16478,0.117152 0.3316,0.237291 0.499015,0.350677 0.196886,0.133312 0.393112,0.262987 0.593419,0.391115 -1.835791,3.035424 -3.547073,6.142357 -5.125022,9.319467 -1.977608,3.981802 -3.746679,8.06707 -5.300368,12.23262 -1.725379,0.39466 -3.430735,0.87495 -5.111531,1.42961 -1.487227,0.49079 -2.955369,1.0464 -4.396742,1.65889 1.284243,-1.09437 2.720707,-2.02152 4.248381,-2.73786 1.309236,-0.61387 2.685591,-1.07504 4.100015,-1.37564 1.3136,-3.82556 2.880598,-7.57162 4.679969,-11.194138 1.726504,-3.475797 3.666521,-6.84128 5.812864,-10.074741 z m 5.677978,3.209909 c 0.155212,0.02784 0.302046,0.04736 0.458576,0.06741 0.30447,0.03915 0.610279,0.07211 0.917109,0.08096 -1.653194,3.683381 -3.163296,7.422698 -4.531603,11.221109 -1.369688,3.802201 -2.59216,7.662851 -3.668457,11.558281 -1.229659,0.16478 -2.451769,0.36405 -3.668436,0.6069 -1.549713,0.30936 -3.093005,0.68541 -4.612525,1.11942 1.053907,-0.79646 2.191756,-1.4837 3.385206,-2.05001 1.169848,-0.55511 2.398145,-0.99671 3.654956,-1.30822 0.907923,-3.44147 1.985389,-6.83215 3.223382,-10.169134 1.406855,-3.792138 3.025074,-7.512981 4.841792,-11.12672 z m 5.812863,3.021056 0.51252,0.36415 0.52597,0.364149 c -0.95231,3.627381 -1.88331,7.255477 -2.778282,10.897425 -0.91796,3.73543 -1.79954,7.4848 -2.656924,11.23458 -1.024355,0.0548 -2.04841,0.16286 -3.061537,0.3237 -1.524539,0.24197 -3.022842,0.60266 -4.491143,1.07895 0.854322,-0.72299 1.80494,-1.32268 2.83225,-1.76677 1.02935,-0.445 2.136115,-0.73654 3.250342,-0.86317 0.810524,-3.51865 1.675796,-7.02019 2.616464,-10.5063 1.005856,-3.727674 2.097227,-7.441935 3.25034,-11.126714 z m -53.111469,6.770432 1.712838,0.26975 c -1.190853,7.779482 0.03774,15.917642 3.479627,22.995162 2.255385,4.63771 5.491606,8.78075 9.359922,12.19219 v -1.83423 -3.76284 h 1.726323 v 3.76284 3.76287 1.79375 l -1.402641,-1.11942 c -4.72272,-3.77208 -8.591214,-8.60433 -11.234606,-14.03988 -3.598518,-7.39957 -4.886498,-15.88675 -3.641463,-24.020192 z m 8.753011,3.209882 1.712838,0.1618 c -0.659388,7.15624 0.931597,14.5191 4.477652,20.76985 2.23784,3.94471 5.270199,7.41335 8.820444,10.23656 v -1.98256 -3.76286 h 1.726325 v 3.76286 3.77634 1.67237 l -1.375662,-0.97107 c -4.362696,-3.12883 -8.019091,-7.21236 -10.668153,-11.88195 -3.723788,-6.56407 -5.385881,-14.26648 -4.693444,-21.78139 z m 8.618136,4.22141 1.294746,0.21579 c 0.175772,5.45535 1.633444,9.75378 4.059558,13.94547 1.143214,1.97516 3.403301,4.82136 5.421744,6.85136 2.339151,2.35251 4.403379,3.76319 4.828319,3.8033 v -1.83422 -3.41219 l 1.416125,0.027 -0.02701,8.06518 c -3.943989,-2.29082 -9.546548,-7.30857 -12.556329,-12.35402 -2.720574,-4.5606 -4.327236,-8.53782 -4.437198,-15.30762 z m 10.007293,4.42368 c 2.168514,4.1931 4.862413,8.10873 8.011231,11.62574 1.973078,2.20381 4.164092,4.20413 6.460223,6.06911 0.02976,-1.97567 0.142454,-3.94701 0.391134,-5.90726 0.26052,-2.05456 0.635559,-4.09918 1.132895,-6.10958 l 1.685874,0.41809 c -0.481262,1.94531 -0.853833,3.91924 -1.105936,5.90727 -0.315568,2.48865 -0.453685,5.00413 -0.404612,7.51222 l 0.04039,1.78027 -1.416125,-1.07895 c -2.91466,-2.21695 -5.622507,-4.71647 -8.065175,-7.44478 -3.24641,-3.62603 -6.03176,-7.6668 -8.267479,-11.98988 l 1.537507,-0.78225 z m 45.666699,0.91714 -3.42567,7.66056 0.37763,-5.17898 -2.42766,-2.48158 z m -9.79148,0.1348 0.45853,10.02078 -6.56813,-6.91881 z m 3.87074,0.33717 0.20219,1.29474 c -0.56216,10e-4 -1.13326,0.045 -1.68587,0.14841 -0.54742,0.10229 -1.08463,0.25999 -1.60492,0.45856 l -0.0944,-1.32173 c 0.4337,-0.13948 0.87541,-0.25913 1.3217,-0.35064 0.6128,-0.12566 1.23656,-0.19626 1.8612,-0.22927 z m -9.64315,4.08653 0.87665,1.03849 c -0.35765,0.30227 -0.69741,0.63729 -1.01153,0.98456 -0.38725,0.42811 -0.7403,0.88976 -1.05198,1.37566 l -0.72828,-1.26775 c 0.22327,-0.3634 0.47652,-0.71571 0.75526,-1.03853 0.34713,-0.402 0.73951,-0.76776 1.15988,-1.09243 z m -3.26384,12.17869 c 1.04967,3.26667 3.20072,6.16999 6.01517,8.13262 2.3439,1.63448 5.1331,2.61446 7.98425,2.80527 v 1.29474 c -2.80922,0.0345 -5.61355,-0.80433 -7.94379,-2.3737 -3.29769,-2.22088 -5.57197,-5.91264 -6.05563,-9.85893 z m 15.37508,5.43523 6.0826,5.93422 -0.20242,0.0673 -7.53917,17.30373 -6.82439,1.83422 2.75134,-2.13092 2.95363,-1.22733 6.82438,-15.1593 -3.18289,1.07896 1.33518,-2.73785 -2.14442,-4.76087 0.24276,2.83225 z m 10.26356,1.1329 0.63387,2.38719 -4.31579,20.12246 -7.41782,3.00759 2.17139,-2.18489 3.96516,-1.88815 z m -17.99156,5.50265 1.69935,0.55298 -9.45434,11.98986 -9.130625,2.05001 3.843761,-2.2658 4.356274,-1.36218 z m 7.59314,1.10593 -8.64512,13.72968 -7.6336,1.99606 2.79179,-1.94212 3.66846,-1.26776 7.88982,-12.51586 z m 12.75863,5.39477 0.94408,4.31579 -0.1484,6.98625 -5.98819,3.72238 2.13092,-2.79178 2.41415,-1.87468 z m 32.14486,-33.70085 -0.30609,6.69564 4.70608,-5.01215 -2.86957,1.07131 z m 9.85338,-41.758438 c -0.20794,0.0043 -0.41284,0.01451 -0.62037,0.02699 7.01644,4.692128 13.37158,10.364427 18.82773,16.804704 3.98198,4.700235 7.48763,9.805952 10.43886,15.213244 1.42502,0.21323 2.83274,0.51921 4.22141,0.90363 1.92697,0.53342 3.81393,1.2277 5.62405,2.07698 -1.50778,-1.23168 -3.1581,-2.29161 -4.90925,-3.14245 -1.18135,-0.57401 -2.41188,-1.04734 -3.66845,-1.42962 -3.72368,-7.139256 -8.54375,-13.705336 -14.24218,-19.394189 -4.16353,-4.156544 -8.78982,-7.846496 -13.77014,-10.978347 -0.42285,-0.04256 -0.84283,-0.07275 -1.26778,-0.08096 -0.20794,-0.0043 -0.426,-0.0043 -0.63388,0 z m 6.7165,1.092437 c 4.96102,2.984181 9.65924,6.397493 14.03988,10.182613 5.50538,4.757003 10.49877,10.106102 14.86257,15.928064 1.93487,0.384182 3.85648,0.86111 5.74542,1.4296 2.58672,0.778528 5.11782,1.733784 7.57967,2.845764 -1.5973,-1.19324 -3.29649,-2.260612 -5.07108,-3.169422 -2.16259,-1.10751 -4.44112,-1.986112 -6.78392,-2.629974 -4.09049,-5.462293 -8.77798,-10.48641 -13.94549,-14.943488 -3.94483,-3.402538 -8.15976,-6.47681 -12.61025,-9.184597 -0.3778,-0.101333 -0.76126,-0.188043 -1.1464,-0.256256 -0.88098,-0.156011 -1.77596,-0.223051 -2.6704,-0.202304 z m 10.84348,2.34672 c 2.25547,1.051851 4.44337,2.242933 6.55465,3.560555 4.88996,3.051765 9.31994,6.777664 13.62177,10.614197 1.95209,1.74096 3.88118,3.507701 5.78588,5.300373 2.38415,0.630838 4.75891,1.324843 7.10763,2.076982 3.06629,0.981941 6.09636,2.06561 9.09017,3.250346 -2.20227,-1.624789 -4.56964,-3.032224 -7.05367,-4.18096 -2.6702,-1.234837 -5.47453,-2.176149 -8.34837,-2.805258 -1.90112,-1.975616 -3.89131,-3.86464 -5.94774,-5.678006 -3.03598,-2.67712 -6.22658,-5.172778 -9.54874,-7.485237 -1.70376,-1.185941 -3.43904,-2.322549 -5.20595,-3.412192 -0.85473,-0.254944 -1.71765,-0.486016 -2.58951,-0.674336 -1.14539,-0.247435 -2.30157,-0.43616 -3.46612,-0.566464 z m 21.72743,6.257941 c 2.67134,1.423126 5.28482,2.956608 7.83588,4.585547 2.36439,1.509739 4.67085,3.096171 6.91881,4.774368 4.08383,1.474112 8.12226,3.073557 12.11123,4.787851 4.05894,1.744373 8.07088,3.610357 12.01686,5.597084 -4.33005,-3.188114 -8.85678,-6.112423 -13.54088,-8.75302 -8.03648,-4.530454 -16.54263,-8.220043 -25.3419,-10.99183 z m -28.1472,4.679947 c -0.16477,0.117152 -0.33161,0.237291 -0.49901,0.350677 -0.19688,0.133312 -0.39311,0.262987 -0.59344,0.391115 1.83582,3.035424 3.54708,6.142357 5.12503,9.319467 1.9776,3.981802 3.74668,8.067074 5.30036,12.232614 1.7254,0.39467 3.43073,0.87496 5.11154,1.42961 1.48722,0.4908 2.95536,1.0464 4.39674,1.65889 -1.28425,-1.09436 -2.7207,-2.02151 -4.24839,-2.73785 -1.30922,-0.61388 -2.68559,-1.07506 -4.10001,-1.37565 -1.3136,-3.82556 -2.88057,-7.571614 -4.67996,-11.194132 -1.72651,-3.475797 -3.66653,-6.84128 -5.81288,-10.074741 z m -5.67799,3.209909 c -0.15521,0.02784 -0.30205,0.04736 -0.45856,0.06741 -0.30446,0.03915 -0.61027,0.07211 -0.9171,0.08096 1.65316,3.68336 3.16329,7.422709 4.53159,11.221109 1.36968,3.802205 2.59214,7.662855 3.66845,11.558285 1.22964,0.16478 2.45179,0.36404 3.66845,0.60689 1.54972,0.30935 3.09298,0.68542 4.61252,1.11943 -1.05392,-0.79645 -2.19175,-1.48371 -3.38521,-2.05001 -1.16986,-0.55511 -2.39814,-0.9967 -3.65497,-1.30822 -0.90792,-3.44147 -1.98539,-6.83215 -3.22338,-10.169138 -1.40683,-3.792138 -3.02506,-7.512981 -4.84179,-11.126709 z m -5.81287,3.021056 -0.51249,0.36415 -0.52599,0.364149 c 0.95232,3.627381 1.88333,7.255477 2.7783,10.897429 0.91795,3.73542 1.79953,7.4848 2.65692,11.23458 1.02433,0.0548 2.04842,0.16286 3.06151,0.32369 1.52457,0.24197 3.02285,0.60265 4.49117,1.07896 -0.85433,-0.72299 -1.80494,-1.32268 -2.83226,-1.76678 -1.02934,-0.44499 -2.1361,-0.73653 -3.25035,-0.86317 -0.81053,-3.51864 -1.67579,-7.02019 -2.61647,-10.5063 -1.00584,-3.727668 -2.09722,-7.441929 -3.25034,-11.126708 z m 53.11146,6.770432 -1.71282,0.26975 c 1.19085,7.779476 -0.0379,15.917646 -3.47964,22.995166 -2.25537,4.63771 -5.49159,8.78075 -9.35991,12.19218 v -1.83423 -3.76283 h -1.72632 v 3.76283 3.76287 1.79375 l 1.40265,-1.11941 c 4.7227,-3.77209 8.59119,-8.60433 11.23459,-14.03988 3.59853,-7.39958 4.88651,-15.88676 3.64145,-24.020196 z m -8.75299,3.209876 -1.71286,0.1618 c 0.6594,7.15625 -0.93159,14.51911 -4.47764,20.76986 -2.23783,3.9447 -5.2702,7.41334 -8.82044,10.23655 v -1.98256 -3.76285 h -1.72633 v 3.76285 3.77632 1.6724 l 1.37567,-0.97107 c 4.36269,-3.12884 8.01909,-7.21237 10.66816,-11.88198 3.72376,-6.56404 5.38587,-14.26645 4.69344,-21.78136 z m -8.61814,4.22142 -1.29474,0.21579 c -0.17584,5.45535 -1.63346,9.75378 -4.05957,13.94547 -1.1432,1.97516 -3.40329,4.82135 -5.42175,6.85134 -2.33914,2.35251 -4.40335,3.76321 -4.82831,3.80331 v -1.83421 -3.4122 l -1.41613,0.027 0.027,8.06517 c 3.94399,-2.29081 9.54656,-7.30858 12.55633,-12.35401 2.72058,-4.56062 4.32725,-8.53783 4.43719,-15.30763 z m -10.00729,4.42368 c -2.16849,4.1931 -4.86241,8.10872 -8.01121,11.62574 -1.9731,2.20381 -4.1641,4.20413 -6.46025,6.06911 -0.0298,-1.97567 -0.14246,-3.94701 -0.39111,-5.90727 -0.26055,-2.05456 -0.63557,-4.09918 -1.13292,-6.10958 l -1.68585,0.4181 c 0.48124,1.94531 0.85383,3.91924 1.10591,5.90727 0.3156,2.48865 0.45369,5.00413 0.40461,7.51221 l -0.0403,1.78028 1.41613,-1.07895 c 2.91468,-2.21695 5.62253,-4.71649 8.06517,-7.44478 3.24641,-3.62603 6.03178,-7.66681 8.26748,-11.98988 l -1.5375,-0.78225 z m -45.66671,0.91714 3.42569,7.66056 -0.37763,-5.17898 2.42764,-2.48158 z m 9.79152,0.1348 -0.45856,10.02077 6.56813,-6.9188 z m -3.87075,0.33717 -0.20241,1.29474 c 0.56214,0.001 1.13325,0.045 1.68585,0.14842 0.54743,0.10229 1.08463,0.25997 1.60495,0.45855 l 0.0944,-1.32173 c -0.43372,-0.13948 -0.87543,-0.25914 -1.32172,-0.35065 -0.61276,-0.12565 -1.23657,-0.19625 -1.8612,-0.22927 z m 9.64314,4.08653 -0.87664,1.03849 c 0.35764,0.30224 0.69739,0.63728 1.0115,0.98456 0.38728,0.4281 0.7403,0.88976 1.052,1.37566 l 0.72829,-1.26778 c -0.2233,-0.36337 -0.47653,-0.7157 -0.75526,-1.03851 -0.34715,-0.40199 -0.73952,-0.76775 -1.15989,-1.09242 z m 3.29081,1.4296 -3.69858,6.19624 4.30433,-2.69479 2.75766,1.2461 z m -0.027,10.74908 c -1.04968,3.26667 -3.20072,6.17 -6.01518,8.13262 -2.3439,1.63449 -5.1331,2.61447 -7.98425,2.80527 v 1.29474 c 2.8092,0.0345 5.61355,-0.80435 7.94379,-2.37369 3.2977,-2.22089 5.57197,-5.91264 6.05564,-9.85894 z m -15.37509,5.43524 -6.08259,5.93422 0.20219,0.0673 7.53919,17.30374 6.82438,1.83421 -2.75134,-2.13094 -2.95362,-1.22731 -6.82439,-15.15929 3.1829,1.07895 -1.3352,-2.73784 2.14443,-4.76088 -0.24276,2.83226 z m -10.26354,1.13289 -0.6339,2.38719 4.31582,20.12247 7.4178,3.00759 -2.17138,-2.1849 -3.96517,-1.88814 z m 17.99154,5.50266 -1.69935,0.55296 9.45435,11.98988 9.13062,2.05 -3.84377,-2.26579 -4.35627,-1.36219 z m -7.59313,1.10593 8.64511,13.72967 7.6336,1.99607 -2.79179,-1.94212 -3.66846,-1.26776 -7.88984,-12.51586 z m -12.75864,5.39477 -0.94408,4.31579 0.14841,6.98625 5.9882,3.72238 -2.13094,-2.79179 -2.41415,-1.87468 z m -17.3981,-54.069042 h -0.18881 c 2.36411,1.849888 4.49044,4.182038 6.31188,6.568128 1.98397,2.599004 3.60553,5.480544 4.80134,8.523724 l 0.20219,0.51249 0.20243,-0.51249 c 1.19583,-3.04318 2.81738,-5.92472 4.80135,-8.523724 1.82144,-2.38609 3.94774,-4.71824 6.31184,-6.568128 h -0.1888 c -3.62555,0.959083 -7.37642,1.254283 -11.12669,1.254283 -3.75027,0 -7.50114,-0.2952 -11.12671,-1.254283 z m -2.81877,-0.404608 1.28126,2.319755 c 3.46423,6.265845 6.35481,12.839915 8.64512,19.623445 1.44144,4.26944 2.64985,8.62368 3.60099,13.02837 l 0.41809,1.95561 0.4181,-1.95561 c 0.95113,-4.40469 2.15954,-8.75893 3.601,-13.02837 2.2903,-6.78353 5.18089,-13.3576 8.64512,-19.623445 l 1.28126,-2.319755 -1.94212,1.793771 c -0.0353,0.03232 -0.0594,0.07552 -0.0944,0.107797 -2.72726,2.518496 -5.1864,5.321078 -7.29643,8.375372 -1.80268,2.60944 -3.33061,5.40703 -4.61253,8.30793 -1.2819,-2.9009 -2.80981,-5.69849 -4.61251,-8.30793 -2.11002,-3.054294 -4.56916,-5.856876 -7.29643,-8.375372 -0.0351,-0.03232 -0.0593,-0.07573 -0.0944,-0.107797 z m 3.41219,4.531595 c 1.88818,1.952309 3.67572,4.009905 5.21942,6.244435 1.94446,2.81465 3.58437,5.82828 4.90925,8.98231 l 0.4046,0.94406 0.40462,-0.94406 c 1.32484,-3.15403 2.96477,-6.16766 4.90924,-8.98231 1.54371,-2.23453 3.33123,-4.292126 5.21943,-6.244435 -2.87502,5.517355 -5.34672,11.233735 -7.33688,17.128375 -1.26377,3.74309 -2.30608,7.56091 -3.19641,11.40995 -0.89031,-3.84904 -1.93264,-7.66686 -3.19641,-11.40995 -1.99016,-5.89464 -4.46186,-11.61102 -7.33686,-17.128375 z m -12.78531,-9.46816 3.6934,2.684715 2.24601,2.439648 -1.6374,-2.849408 c 6.26775,1.159136 12.64254,1.982858 19.01657,1.982858 6.37403,0 12.74882,-0.823722 19.01657,-1.982858 l -1.635,2.849408 2.31482,-2.361952 3.56442,-2.787606 -0.57047,0.228139 c -7.4603,2.336896 -14.99809,3.060181 -22.69034,3.060181 -7.69221,0 -15.23061,-0.723285 -22.69089,-3.060181 z m 19.33993,-24.201536 c -10.08873,-0.02347 -20.17712,0.664 -30.17023,2.050005 -9.902626,1.373462 -19.716865,3.432459 -29.334034,6.16352 1.344657,-1.433738 2.797443,-2.763882 4.342783,-3.978634 1.601655,-1.259019 3.306006,-2.391702 5.08456,-3.385216 -7.719476,1.930464 -15.35036,4.236928 -22.846831,6.905301 -7.631237,2.716341 -15.129132,5.81072 -22.455716,9.265525 h 11.302037 c -6.201766,2.781771 -12.143496,6.137163 -17.72182,10.020768 -7.379465,5.137526 -14.126953,11.193692 -20.028072,17.978052 5.963432,-3.50791 12.124526,-6.67861 18.450099,-9.481294 5.990049,-2.654038 12.12684,-4.983382 18.369183,-6.972747 -1.890628,1.532235 -3.702419,3.160107 -5.435222,4.868779 -1.869959,1.843936 -3.64748,3.783093 -5.313849,5.812862 l 7.579649,-2.940137 c -1.69599,8.516727 -0.429282,17.594817 3.54706,25.314937 1.999414,3.88188 4.662385,7.42613 7.835899,10.42539 l 0.499017,-4.2349 c 1.357508,1.58993 2.81621,3.10427 4.356271,4.5181 1.528016,1.40279 3.142824,2.70221 4.828319,3.91121 l 0.215787,-8.92832 c 1.314834,1.39007 2.72953,2.69962 4.221402,3.89772 1.414968,1.13632 2.900771,2.17147 4.45069,3.11546 l 0.377631,-8.77998 c 1.338913,1.34639 2.752465,2.61679 4.234884,3.80333 1.532385,1.22648 3.136272,2.35948 4.801352,3.39867 l 0.161803,-9.13062 c 1.393332,1.4437 2.862293,2.79651 4.41022,4.07306 1.472979,1.21472 3.017142,2.34987 4.612526,3.39869 -0.186041,-3.93669 0.03934,-7.88451 0.67434,-11.77409 0.345485,-2.11615 0.805782,-4.20812 1.389145,-6.27142 l 2.238829,-0.44505 -1.766774,6.1905 4.388873,-1.13664 -0.976685,1.37938 2.643424,0.53948 c -0.61566,2.04403 -0.78907,4.22731 -0.47204,6.33886 0.60873,4.05412 3.03692,7.80678 6.48721,10.02079 l -17.600417,17.70831 11.544807,-2.13093 -3.42569,5.17897 10.78954,-3.04804 -2.18489,4.67994 9.48129,-3.37172 -1.30821,4.30234 10.08822,-3.87075 -1.41613,5.07109 7.29642,-3.76286 -2.10395,24.08764 7.90332,27.45938 7.88986,-27.45938 -2.10397,-24.08764 7.30991,3.76286 -1.41612,-5.07109 10.07472,3.87075 -1.30821,-4.30234 9.48129,3.37172 -2.17138,-4.67994 10.7895,3.04804 -3.43913,-5.17897 11.55828,2.13093 -17.60044,-17.70831 c 3.45032,-2.21401 5.86502,-5.96667 6.47373,-10.02079 0.31769,-2.11587 0.16031,-4.30472 -0.45856,-6.35234 l 2.50856,-0.526 -1.00696,-1.42215 4.55404,1.17941 -1.78028,-6.1905 2.23883,0.44505 c 0.58338,2.0633 1.04366,4.15527 1.38914,6.27142 0.63502,3.88958 0.87378,7.8374 0.68785,11.77409 1.59538,-1.04882 3.12605,-2.18397 4.59903,-3.39869 1.54793,-1.27655 3.03038,-2.62936 4.42371,-4.07306 l 0.14841,9.13062 c 1.66508,-1.03919 3.26896,-2.17219 4.80135,-3.39867 1.48241,-1.18654 2.89598,-2.45694 4.23488,-3.80333 l 0.39112,8.77998 c 1.54991,-0.94399 3.03573,-1.97914 4.45069,-3.11546 1.49187,-1.1981 2.90658,-2.50765 4.22141,-3.89772 l 0.21579,8.92832 c 1.68549,-1.209 3.30031,-2.50842 4.82831,-3.91121 1.54006,-1.41383 2.98528,-2.92817 4.34278,-4.5181 l 0.49901,4.2349 c 3.17353,-2.99926 5.83649,-6.54351 7.83591,-10.42539 3.97635,-7.72012 5.25654,-16.79821 3.56056,-25.314937 l 7.56615,2.940137 c -1.66638,-2.029769 -3.4304,-3.968926 -5.30036,-5.812862 -1.7328,-1.708672 -3.55809,-3.336544 -5.44872,-4.868779 6.24235,1.989365 12.37914,4.318709 18.36919,6.972747 6.32558,2.802684 12.48665,5.973384 18.4501,9.481294 -5.90112,-6.78436 -12.6351,-12.840526 -20.01459,-17.978052 -5.57833,-3.883605 -11.52003,-7.238997 -17.7218,-10.020768 h 11.28855 c -7.32658,-3.454805 -14.82448,-6.549184 -22.45573,-9.265525 -7.49646,-2.668373 -15.12734,-4.974837 -22.84683,-6.905301 1.77856,0.993514 3.48291,2.126197 5.08458,3.385216 1.54532,1.214752 2.99812,2.544896 4.34277,3.978634 -9.61717,-2.731061 -19.41793,-4.790058 -29.32054,-6.16352 -9.99314,-1.386005 -20.08152,-2.073504 -30.17026,-2.050005 2.93509,0.378197 5.84653,0.873952 8.73952,1.497045 3.0253,0.651584 7.48063,1.44576 10.66576,2.360214 h -6.03975 c 2.74177,1.642474 5.3501,3.509706 7.78197,5.583584 3.58866,3.060373 6.79808,6.557536 9.53525,10.3984 -1.8372,1.43664 -3.76967,2.770037 -5.77241,3.965173 -2.21322,1.320715 -4.51711,2.477877 -6.89182,3.479605 0.69334,-0.935392 1.37169,-1.880629 2.02304,-2.845728 0.45106,-0.668309 0.89131,-1.341237 1.32173,-2.02305 -8.26683,2.382538 -16.87349,3.593493 -25.47679,3.587541 -8.5609,-0.0064 -17.11584,-1.216736 -25.34192,-3.587541 0.4304,0.681813 0.87065,1.354741 1.32172,2.02305 0.65136,0.965099 1.31621,1.910336 2.00954,2.845728 -2.37468,-1.001728 -4.67858,-2.15889 -6.89181,-3.479605 -2.00272,-1.195136 -3.92171,-2.528533 -5.75891,-3.965173 2.73717,-3.840864 5.94659,-7.338027 9.53524,-10.3984 2.43188,-2.073878 5.02673,-3.94111 7.76848,-5.583584 h -6.02629 c 3.18515,-0.914454 7.627,-1.70863 10.65231,-2.360214 2.89297,-0.623093 5.81792,-1.118848 8.753,-1.497045 z"
     id="path4817"
     style="display:inline;opacity:0.9;fill:#ffffff;fill-opacity:1;fill-rule:evenodd;stroke:none;stroke-width:1.06666672" />
</svg>
