<?xml version="1.0" encoding="UTF-8" standalone="no"?>
<!-- Created with Inkscape (http://www.inkscape.org/) -->

<svg
   xmlns:dc="http://purl.org/dc/elements/1.1/"
   xmlns:cc="http://creativecommons.org/ns#"
   xmlns:rdf="http://www.w3.org/1999/02/22-rdf-syntax-ns#"
   xmlns:svg="http://www.w3.org/2000/svg"
   xmlns="http://www.w3.org/2000/svg"
   xmlns:sodipodi="http://sodipodi.sourceforge.net/DTD/sodipodi-0.dtd"
   xmlns:inkscape="http://www.inkscape.org/namespaces/inkscape"
   id="svg2860"
   version="1.1"
   inkscape:version="0.92.2 (5c3e80d, 2017-08-06)"
   width="273.06668"
   height="273.06668"
   sodipodi:docname="xan_st_dominion.svg"
   inkscape:export-filename="D:\dev\XansSciFiMashup\raw\flags\map\xan_st_klingon.png"
   inkscape:export-xdpi="90"
   inkscape:export-ydpi="90">
  <metadata
     id="metadata2866">
    <rdf:RDF>
      <cc:Work
         rdf:about="">
        <dc:format>image/svg+xml</dc:format>
        <dc:type
           rdf:resource="http://purl.org/dc/dcmitype/StillImage" />
        <dc:title></dc:title>
      </cc:Work>
    </rdf:RDF>
  </metadata>
  <defs
     id="defs2864">
    <inkscape:perspective
       sodipodi:type="inkscape:persp3d"
       inkscape:vp_x="0 : 0.53333333 : 1"
       inkscape:vp_y="0 : 1066.6667 : 0"
       inkscape:vp_z="1.0666667 : 0.53333333 : 1"
       inkscape:persp3d-origin="0.53333333 : 0.35555555 : 1"
       id="perspective2868" />
    <inkscape:perspective
       id="perspective3654"
       inkscape:persp3d-origin="0.53333333 : 0.35555555 : 1"
       inkscape:vp_z="1.0666667 : 0.53333333 : 1"
       inkscape:vp_y="0 : 1066.6667 : 0"
       inkscape:vp_x="0 : 0.53333333 : 1"
       sodipodi:type="inkscape:persp3d" />
    <inkscape:perspective
       id="perspective3676"
       inkscape:persp3d-origin="0.53333333 : 0.35555555 : 1"
       inkscape:vp_z="1.0666667 : 0.53333333 : 1"
       inkscape:vp_y="0 : 1066.6667 : 0"
       inkscape:vp_x="0 : 0.53333333 : 1"
       sodipodi:type="inkscape:persp3d" />
    <inkscape:perspective
       id="perspective3714"
       inkscape:persp3d-origin="0.53333333 : 0.35555555 : 1"
       inkscape:vp_z="1.0666667 : 0.53333333 : 1"
       inkscape:vp_y="0 : 1066.6667 : 0"
       inkscape:vp_x="0 : 0.53333333 : 1"
       sodipodi:type="inkscape:persp3d" />
    <inkscape:perspective
       id="perspective3743"
       inkscape:persp3d-origin="0.53333333 : 0.35555555 : 1"
       inkscape:vp_z="1.0666667 : 0.53333333 : 1"
       inkscape:vp_y="0 : 1066.6667 : 0"
       inkscape:vp_x="0 : 0.53333333 : 1"
       sodipodi:type="inkscape:persp3d" />
    <inkscape:perspective
       id="perspective3773"
       inkscape:persp3d-origin="0.53333333 : 0.35555555 : 1"
       inkscape:vp_z="1.0666667 : 0.53333333 : 1"
       inkscape:vp_y="0 : 1066.6667 : 0"
       inkscape:vp_x="0 : 0.53333333 : 1"
       sodipodi:type="inkscape:persp3d" />
    <inkscape:perspective
       id="perspective3795"
       inkscape:persp3d-origin="0.53333333 : 0.35555555 : 1"
       inkscape:vp_z="1.0666667 : 0.53333333 : 1"
       inkscape:vp_y="0 : 1066.6667 : 0"
       inkscape:vp_x="0 : 0.53333333 : 1"
       sodipodi:type="inkscape:persp3d" />
    <inkscape:perspective
       id="perspective3830"
       inkscape:persp3d-origin="0.53333333 : 0.35555555 : 1"
       inkscape:vp_z="1.0666667 : 0.53333333 : 1"
       inkscape:vp_y="0 : 1066.6667 : 0"
       inkscape:vp_x="0 : 0.53333333 : 1"
       sodipodi:type="inkscape:persp3d" />
    <inkscape:perspective
       id="perspective3860"
       inkscape:persp3d-origin="0.53333333 : 0.35555555 : 1"
       inkscape:vp_z="1.0666667 : 0.53333333 : 1"
       inkscape:vp_y="0 : 1066.6667 : 0"
       inkscape:vp_x="0 : 0.53333333 : 1"
       sodipodi:type="inkscape:persp3d" />
    <inkscape:perspective
       id="perspective3887"
       inkscape:persp3d-origin="0.53333333 : 0.35555555 : 1"
       inkscape:vp_z="1.0666667 : 0.53333333 : 1"
       inkscape:vp_y="0 : 1066.6667 : 0"
       inkscape:vp_x="0 : 0.53333333 : 1"
       sodipodi:type="inkscape:persp3d" />
    <inkscape:perspective
       id="perspective3913"
       inkscape:persp3d-origin="0.53333333 : 0.35555555 : 1"
       inkscape:vp_z="1.0666667 : 0.53333333 : 1"
       inkscape:vp_y="0 : 1066.6667 : 0"
       inkscape:vp_x="0 : 0.53333333 : 1"
       sodipodi:type="inkscape:persp3d" />
    <inkscape:perspective
       id="perspective3964"
       inkscape:persp3d-origin="0.53333333 : 0.35555555 : 1"
       inkscape:vp_z="1.0666667 : 0.53333333 : 1"
       inkscape:vp_y="0 : 1066.6667 : 0"
       inkscape:vp_x="0 : 0.53333333 : 1"
       sodipodi:type="inkscape:persp3d" />
  </defs>
  <sodipodi:namedview
     pagecolor="#000000"
     bordercolor="#666666"
     borderopacity="1"
     objecttolerance="10"
     gridtolerance="10"
     guidetolerance="10"
     inkscape:pageopacity="0"
     inkscape:pageshadow="2"
     inkscape:window-width="1708"
     inkscape:window-height="1057"
     id="namedview2862"
     showgrid="false"
     showguides="false"
     inkscape:zoom="1.3771629"
     inkscape:cx="119.50183"
     inkscape:cy="148.48994"
     inkscape:window-x="-8"
     inkscape:window-y="843"
     inkscape:window-maximized="1"
     inkscape:current-layer="svg2860" />
  <path
     style="fill:#ffffff;fill-opacity:1;stroke-width:0.12499405"
     d="m 74.880009,198.04547 -61.34667,-61.40209 61.59114,-61.519685 61.591131,-61.5197 11.6302,11.62972 11.63022,11.62972 h 13.15538 13.15538 v 13.1557 13.15571 l 36.62327,36.62311 36.62328,36.623115 -61.5283,61.52838 c -33.84056,33.8406 -61.58456,61.52156 -61.65332,61.51323 -0.0688,-0.009 -27.73104,-27.64607 -61.471711,-61.41721 z m 146.115721,-97.97303 -36.27137,-36.365145 -0.0625,-12.61184 -0.0625,-12.61184 -12.62441,0.009 -12.6244,0.009 -11.34359,-11.41205 -11.34361,-11.41205 -60.369351,60.43463 -60.36935,60.434625 60.32046,60.29635 60.320471,60.29638 60.35075,-60.35068 60.35076,-60.35064 z m -143.913841,95.87716 -59.39467,-59.40341 59.48654,-59.559665 59.486531,-59.55967 11.03266,11.09947 11.03265,11.09947 12.34316,-0.006 12.34316,-0.006 v 12.26508 12.26508 l 35.09208,35.1719 c 19.30064,19.344585 35.51037,35.624705 36.02159,36.178015 l 0.92949,1.00601 -42.98993,42.99007 C 188.8207,203.13447 169.44706,222.48 169.41265,222.48 c -0.0344,0 -0.0484,-40.83556 -0.0311,-90.74567 l 0.0314,-90.745685 h -5.17569 -5.17569 l -0.0536,28.3424 c -0.0294,15.58832 -0.0899,29.35486 -0.13434,30.5923 -0.0444,1.237435 -0.11028,3.487325 -0.14645,4.999755 -0.0934,3.91529 -0.1858,7.14758 -0.25164,8.81209 -0.0313,0.79058 -0.088,2.28113 -0.12593,3.31233 -0.11308,3.07255 -0.30723,7.67045 -0.37473,8.87459 -0.0347,0.61872 -0.11988,2.19364 -0.18926,3.49982 -0.17406,3.27509 -0.23881,4.37706 -0.30842,5.24977 -0.0329,0.41248 -0.0905,1.28431 -0.12814,1.9374 -0.0375,0.65309 -0.0942,1.55305 -0.12593,1.99991 -0.0318,0.44685 -0.0871,1.26243 -0.12312,1.8124 -0.036,0.54999 -0.0917,1.25308 -0.12372,1.56244 -0.032,0.30936 -0.0892,0.98433 -0.12696,1.49993 -0.42355,5.77652 -1.54348,16.66842 -2.19132,21.31146 -0.0672,0.48123 -0.17689,1.26869 -0.24388,1.74991 -0.38319,2.75224 -1.19568,7.77015 -1.68996,10.43702 -0.10836,0.58435 -0.27437,1.48431 -0.36903,1.99991 -0.0946,0.5156 -0.43469,2.14676 -0.75558,3.62483 -3.78749,17.44509 -9.03655,27.65178 -16.03068,31.17132 -2.59716,1.30694 -4.72018,1.70211 -9.14438,1.70211 -3.42732,0 -4.45346,-0.15329 -5.9985,-0.89609 -1.64863,-0.79259 -3.28834,-2.52883 -4.46576,-4.72865 -1.49926,-2.80116 -2.703,-7.32492 -3.1098,-11.68694 -0.0449,-0.48123 -0.11574,-1.01558 -0.15748,-1.18745 -0.0418,-0.17186 -0.10717,-6.78092 -0.14556,-14.68679 l -0.0697,-14.37433 -3.96883,-0.0331 -3.96885,-0.0331 0.0316,27.4692 0.0314,27.4692 h 32.21722 c 17.71947,0 32.21722,0.0282 32.21722,0.0627 0,0.0818 -32.41694,32.49828 -32.49868,32.49828 -0.0343,0 -26.78997,-26.73154 -59.457041,-59.40343 z m 35.492861,-31.49851 c 0.22336,-4.53065 2.79565,-8.50831 6.8494,-10.59155 1.66251,-0.85438 3.09257,-1.25283 4.86559,-1.3557 l 1.43743,-0.0834 0.0335,-2.96862 0.0335,-2.96861 h -0.86085 c -2.00462,0 -4.38456,-0.69029 -6.29518,-1.82589 -1.40905,-0.8375 -3.44384,-2.87067 -4.27196,-4.26859 -1.1367,-1.91878 -1.8259,-4.29537 -1.8259,-6.2963 v -0.85859 h -4.10603 -4.10601 l -0.0807,1.23167 c -0.20875,3.18516 -1.50332,6.08351 -3.69719,8.27737 -2.220211,2.22022 -5.164201,3.54722 -8.227861,3.7087 l -1.28119,0.0675 v 3.0444 3.04441 h 0.85859 c 2.00232,0 4.38313,0.69081 6.29291,1.8259 1.409052,0.8375 3.443841,2.87066 4.271961,4.26858 1.13672,1.91877 1.82592,4.29535 1.82592,6.29629 v 0.85858 h 4.10736 4.10738 z m -24.812131,-15.12425 -0.0337,-2.78113 -11.96818,-0.0319 -11.96817,-0.0319 v 2.813 2.81298 h 12.00182 12.0018 z"
     id="path3710"
     inkscape:connector-curvature="0"
     sodipodi:nodetypes="scccccccccccscsccccccccccccccccccccccccccccsssccccscccccccccscccccccsccccccccccsssccccccccsccscccccccccsccsccccccccccccc" />
</svg>
