<?xml version="1.0" encoding="UTF-8" standalone="no"?>
<!-- Created with Inkscape (http://www.inkscape.org/) -->

<svg
   xmlns:dc="http://purl.org/dc/elements/1.1/"
   xmlns:cc="http://creativecommons.org/ns#"
   xmlns:rdf="http://www.w3.org/1999/02/22-rdf-syntax-ns#"
   xmlns:svg="http://www.w3.org/2000/svg"
   xmlns="http://www.w3.org/2000/svg"
   xmlns:sodipodi="http://sodipodi.sourceforge.net/DTD/sodipodi-0.dtd"
   xmlns:inkscape="http://www.inkscape.org/namespaces/inkscape"
   id="svg2860"
   version="1.1"
   inkscape:version="0.91 r13725"
   width="256"
   height="256"
   sodipodi:docname="xan_st_romulan.svg"
   inkscape:export-filename="D:\dev\XansSciFiMashup\raw\flags\map\xan_st_klingon.png"
   inkscape:export-xdpi="90"
   inkscape:export-ydpi="90">
  <metadata
     id="metadata2866">
    <rdf:RDF>
      <cc:Work
         rdf:about="">
        <dc:format>image/svg+xml</dc:format>
        <dc:type
           rdf:resource="http://purl.org/dc/dcmitype/StillImage" />
        <dc:title />
      </cc:Work>
    </rdf:RDF>
  </metadata>
  <defs
     id="defs2864">
    <inkscape:perspective
       sodipodi:type="inkscape:persp3d"
       inkscape:vp_x="0 : 0.5 : 1"
       inkscape:vp_y="0 : 1000 : 0"
       inkscape:vp_z="1 : 0.5 : 1"
       inkscape:persp3d-origin="0.5 : 0.33333333 : 1"
       id="perspective2868" />
    <inkscape:perspective
       id="perspective3654"
       inkscape:persp3d-origin="0.5 : 0.33333333 : 1"
       inkscape:vp_z="1 : 0.5 : 1"
       inkscape:vp_y="0 : 1000 : 0"
       inkscape:vp_x="0 : 0.5 : 1"
       sodipodi:type="inkscape:persp3d" />
    <inkscape:perspective
       id="perspective3676"
       inkscape:persp3d-origin="0.5 : 0.33333333 : 1"
       inkscape:vp_z="1 : 0.5 : 1"
       inkscape:vp_y="0 : 1000 : 0"
       inkscape:vp_x="0 : 0.5 : 1"
       sodipodi:type="inkscape:persp3d" />
    <inkscape:perspective
       id="perspective3714"
       inkscape:persp3d-origin="0.5 : 0.33333333 : 1"
       inkscape:vp_z="1 : 0.5 : 1"
       inkscape:vp_y="0 : 1000 : 0"
       inkscape:vp_x="0 : 0.5 : 1"
       sodipodi:type="inkscape:persp3d" />
    <inkscape:perspective
       id="perspective3743"
       inkscape:persp3d-origin="0.5 : 0.33333333 : 1"
       inkscape:vp_z="1 : 0.5 : 1"
       inkscape:vp_y="0 : 1000 : 0"
       inkscape:vp_x="0 : 0.5 : 1"
       sodipodi:type="inkscape:persp3d" />
    <inkscape:perspective
       id="perspective3773"
       inkscape:persp3d-origin="0.5 : 0.33333333 : 1"
       inkscape:vp_z="1 : 0.5 : 1"
       inkscape:vp_y="0 : 1000 : 0"
       inkscape:vp_x="0 : 0.5 : 1"
       sodipodi:type="inkscape:persp3d" />
    <inkscape:perspective
       id="perspective3795"
       inkscape:persp3d-origin="0.5 : 0.33333333 : 1"
       inkscape:vp_z="1 : 0.5 : 1"
       inkscape:vp_y="0 : 1000 : 0"
       inkscape:vp_x="0 : 0.5 : 1"
       sodipodi:type="inkscape:persp3d" />
    <inkscape:perspective
       id="perspective3830"
       inkscape:persp3d-origin="0.5 : 0.33333333 : 1"
       inkscape:vp_z="1 : 0.5 : 1"
       inkscape:vp_y="0 : 1000 : 0"
       inkscape:vp_x="0 : 0.5 : 1"
       sodipodi:type="inkscape:persp3d" />
    <inkscape:perspective
       id="perspective3860"
       inkscape:persp3d-origin="0.5 : 0.33333333 : 1"
       inkscape:vp_z="1 : 0.5 : 1"
       inkscape:vp_y="0 : 1000 : 0"
       inkscape:vp_x="0 : 0.5 : 1"
       sodipodi:type="inkscape:persp3d" />
    <inkscape:perspective
       id="perspective3887"
       inkscape:persp3d-origin="0.5 : 0.33333333 : 1"
       inkscape:vp_z="1 : 0.5 : 1"
       inkscape:vp_y="0 : 1000 : 0"
       inkscape:vp_x="0 : 0.5 : 1"
       sodipodi:type="inkscape:persp3d" />
    <inkscape:perspective
       id="perspective3913"
       inkscape:persp3d-origin="0.5 : 0.33333333 : 1"
       inkscape:vp_z="1 : 0.5 : 1"
       inkscape:vp_y="0 : 1000 : 0"
       inkscape:vp_x="0 : 0.5 : 1"
       sodipodi:type="inkscape:persp3d" />
    <inkscape:perspective
       id="perspective3964"
       inkscape:persp3d-origin="0.5 : 0.33333333 : 1"
       inkscape:vp_z="1 : 0.5 : 1"
       inkscape:vp_y="0 : 1000 : 0"
       inkscape:vp_x="0 : 0.5 : 1"
       sodipodi:type="inkscape:persp3d" />
  </defs>
  <sodipodi:namedview
     pagecolor="#c00000"
     bordercolor="#666666"
     borderopacity="1"
     objecttolerance="10"
     gridtolerance="10"
     guidetolerance="10"
     inkscape:pageopacity="0"
     inkscape:pageshadow="2"
     inkscape:window-width="1735"
     inkscape:window-height="1057"
     id="namedview2862"
     showgrid="false"
     showguides="false"
     inkscape:zoom="1.9476024"
     inkscape:cx="54.352263"
     inkscape:cy="150.17006"
     inkscape:window-x="2097"
     inkscape:window-y="-8"
     inkscape:window-maximized="1"
     inkscape:current-layer="svg2860" />
  <path
     inkscape:connector-curvature="0"
     d="m 103.68676,105.30687 0.28694,6.27716 -4.411919,-4.69891 2.690199,1.00435 z m -8.465189,7.3891 -2.585289,1.16822 3.153201,-4.45081 3.467403,5.80898 z m 29.067449,68.23178 c -0.93843,-3.04304 -1.89898,-6.07916 -2.89547,-9.10367 l -0.0379,-0.11382 0.012,-0.12637 c 0.78961,-5.25023 1.40656,-10.52554 1.83338,-15.81763 0.3637,-4.50958 0.77185,-9.92883 0.89773,-14.59115 -0.94243,-6.14207 -2.43468,-12.47486 -4.09665,-18.33378 l 0.4046,-0.8345 c 0.0353,-0.0671 0.0674,-0.13474 0.10106,-0.2023 l 0.15169,-0.32876 c 2.52455,-5.49401 0.19334,-12.01028 -5.399,-14.76817 -0.43477,-0.2144 -1.28597,-0.58571 -1.74484,-0.74599 l 0.5816,-1.36555 c 0.13674,0.0476 0.26951,0.10006 0.40462,0.15169 -2.92311,-4.42513 -6.33802,-8.529682 -10.16577,-12.20144 C 98.822447,87.257391 92.45838,82.857283 85.559732,79.573581 l -1.049453,-0.50576 0.745992,-0.872427 c 1.983951,-2.334412 4.061108,-4.591783 6.208211,-6.777185 1.989631,-2.025144 6.56222,-6.271417 6.56222,-6.271417 0,0 -10.963266,1.280057 -16.323386,2.554084 -3.908122,0.928907 -8.118409,1.763824 -11.9865,2.870181 -8.870003,2.537019 -17.295794,5.548775 -25.793727,9.103664 C 31.666839,84.801826 17.331773,94.511684 13.88098,97.211946 17.416913,94.156957 29.16291,84.52388 43.063295,78.448264 55.201626,73.142819 68.110718,69.223242 81.096396,66.322681 88.145439,64.748165 98.932237,63.433298 102.57853,63.490428 l -1.22647,1.188532 c -2.996186,2.526974 -5.876224,5.182378 -8.623189,7.978352 -1.82058,1.85307 -3.546578,3.79253 -5.24726,5.75302 -0.04944,0.05581 -0.0291,0.157072 0.03787,0.189762 6.604,3.295402 12.717009,7.560364 18.042989,12.669269 4.69851,4.507049 8.79094,9.639077 12.13822,15.223357 5.26928,3.83469 6.94732,10.76625 4.03343,16.43719 1.82324,6.68081 3.77645,14.87351 4.83001,21.3051 1.03354,6.30961 1.3781,6.34989 1.3782,15.57362 8e-5,-9.22373 0.34465,-9.26401 1.37821,-15.57362 1.05356,-6.43159 3.00677,-14.62429 4.83,-21.3051 -2.91388,-5.67094 -1.23586,-12.6025 4.03344,-16.43719 3.34728,-5.58428 7.43969,-10.716308 12.13822,-15.223357 5.32598,-5.108905 11.43899,-9.373867 18.04298,-12.669269 0.067,-0.03269 0.0873,-0.133751 0.0378,-0.189762 -1.70068,-1.96049 -3.42667,-3.89995 -5.24725,-5.75302 -2.74697,-2.795974 -5.62701,-5.451378 -8.62321,-7.978352 l -1.22646,-1.188532 c 3.64628,-0.05713 14.43308,1.257737 21.48212,2.832253 12.98569,2.900561 25.8948,6.820138 38.0331,12.125583 13.9004,6.075616 25.64639,15.708693 29.18232,18.763682 -3.45078,-2.700262 -17.78584,-12.41012 -30.0421,-17.537225 -8.49793,-3.554889 -16.92372,-6.566645 -25.79371,-9.103664 -3.8681,-1.106357 -8.07839,-1.941274 -11.98651,-2.870181 -5.36012,-1.274027 -16.32339,-2.554084 -16.32339,-2.554084 0,0 4.57259,4.246273 6.56223,6.271417 2.1471,2.185402 4.22426,4.442773 6.2082,6.777185 l 0.746,0.872427 -1.04946,0.50576 c -6.89865,3.283702 -13.26271,7.68381 -18.77631,12.972729 -3.82776,3.671758 -7.24266,7.77631 -10.16577,12.20144 0.13514,-0.0518 0.26776,-0.10405 0.4046,-0.15169 l 0.58162,1.36555 c -0.45887,0.16026 -1.31007,0.53159 -1.74487,0.74599 -5.59236,2.75789 -7.92352,9.27416 -5.39897,14.76817 l 0.15169,0.32876 c 0.0337,0.0676 0.0659,0.13514 0.10126,0.2023 l 0.4046,0.8345 c -1.66197,5.85892 -3.15424,12.19171 -4.09665,18.33378 0.12578,4.66232 0.53403,10.08157 0.89773,14.59115 0.42682,5.29209 1.04377,10.5674 1.83338,15.81763 l 0.012,0.12637 -0.0378,0.11382 c -0.9965,3.02451 -1.95703,6.06063 -2.89546,9.10367 -1.09364,3.54632 -2.63988,9.25116 -3.65412,12.821 -1.01422,-3.56984 -2.56048,-9.27468 -3.65411,-12.821 z m 6.33464,-0.30345 c 0.9301,-3.01607 1.89577,-6.01728 2.88283,-9.01518 -0.78392,-5.23174 -1.39547,-10.48136 -1.82074,-15.7544 -0.25516,-3.16374 -0.44303,-6.33544 -0.56899,-9.50827 -1.67812,15.02158 -3.17363,41.09295 -3.17363,41.09295 0,0 -1.49554,-26.07137 -3.17365,-41.09295 -0.12598,3.17283 -0.31382,6.34453 -0.56896,9.50827 -0.4253,5.27304 -1.03684,10.52266 -1.82074,15.7544 0.98703,2.9979 1.95271,5.99911 2.88282,9.01518 0.89105,2.88938 1.84386,6.50192 2.68053,9.40711 0.83667,-2.90519 1.78949,-6.51773 2.68053,-9.40711 z M 94.449207,66.158307 c 0.194945,0.0044 0.387059,0.01355 0.581625,0.02529 -6.577926,4.398872 -12.535857,9.716648 -17.651002,15.75441 -3.733131,4.406467 -7.019655,9.193076 -9.786447,14.262415 -1.335949,0.199908 -2.655703,0.486764 -3.957566,0.847152 -1.806549,0.500078 -3.575556,1.15097 -5.272541,1.947174 1.413534,-1.154698 2.960718,-2.148378 4.602409,-2.946056 1.107511,-0.538131 2.261145,-0.981859 3.439165,-1.340254 3.490975,-6.69306 8.009768,-12.848767 13.352049,-18.182058 3.903318,-3.89676 8.240458,-7.356089 12.909502,-10.292206 0.396427,-0.03994 0.790184,-0.06815 1.188545,-0.07587 0.194944,-0.0036 0.399377,-0.0044 0.594261,0 z m -6.296711,1.024159 c -4.650966,2.797668 -9.055539,5.997648 -13.162373,9.546219 -5.161295,4.459668 -9.842612,9.47445 -13.933683,14.932541 -1.813942,0.36017 -3.615446,0.807286 -5.386337,1.340254 -2.425045,0.729867 -4.79794,1.625417 -7.105921,2.667892 1.497465,-1.118659 3.09045,-2.119315 4.754141,-2.971331 2.027413,-1.03829 4.163539,-1.861981 6.359922,-2.465592 3.834817,-5.120905 8.229355,-9.830991 13.073881,-14.009524 3.698308,-3.189876 7.649784,-6.072003 11.822138,-8.610562 0.35417,-0.09499 0.713661,-0.176287 1.074727,-0.240232 0.825924,-0.146268 1.664964,-0.209113 2.503505,-0.189663 z M 77.98673,69.382522 c -2.114512,0.986109 -4.165657,2.102745 -6.144971,3.338017 -4.584327,2.861022 -8.737457,6.354059 -12.770426,9.950809 -1.830079,1.632152 -3.638608,3.288464 -5.424265,4.969095 -2.235142,0.591412 -4.461468,1.242044 -6.663382,1.947174 -2.874658,0.920566 -5.715364,1.93651 -8.522049,3.047197 2.064638,-1.52324 4.28404,-2.842705 6.612803,-3.919644 2.503329,-1.157669 5.132383,-2.040142 7.826628,-2.629939 1.782281,-1.852134 3.648096,-3.623081 5.576003,-5.323125 2.846228,-2.509803 5.837416,-4.849478 8.95194,-7.01741 1.597277,-1.111823 3.2241,-2.17739 4.880583,-3.198926 0.801307,-0.239008 1.610307,-0.455639 2.42764,-0.632197 1.07381,-0.231962 2.157725,-0.408897 3.249496,-0.531051 z m -20.369455,5.866816 c -2.504384,1.334174 -4.954526,2.771822 -7.346152,4.298948 -2.216615,1.415382 -4.378909,2.902663 -6.486367,4.475973 -3.828591,1.381975 -7.614636,2.881454 -11.354296,4.488611 -3.80524,1.635342 -7.566452,3.384701 -11.265792,5.24726 4.059421,-2.988832 8.303237,-5.730396 12.694564,-8.205954 7.534201,-4.247302 15.508725,-7.706274 23.758043,-10.304838 z m 26.388002,4.387451 c 0.154481,0.10983 0.310875,0.222452 0.467827,0.328754 0.18458,0.124981 0.368542,0.246551 0.55633,0.366668 -1.721054,2.845714 -3.325381,5.758461 -4.804708,8.737009 -1.854008,3.732931 -3.512512,7.562876 -4.969095,11.46808 -1.617543,0.37 -3.216314,0.82027 -4.79206,1.34026 -1.394276,0.46012 -2.770659,0.981 -4.121946,1.55521 1.203978,-1.02597 2.550663,-1.89517 3.982857,-2.56674 1.227409,-0.57551 2.517742,-1.007856 3.843764,-1.289672 1.2315,-3.586464 2.700561,-7.098397 4.387471,-10.494501 1.618598,-3.258565 3.437364,-6.413699 5.44956,-9.445068 z m 5.323105,3.009284 c 0.145511,0.02611 0.283168,0.04445 0.429915,0.06319 0.28544,0.03668 0.572136,0.06757 0.859789,0.07594 -1.549869,3.453171 -2.96559,6.958787 -4.248378,10.519795 -1.284082,3.564557 -2.43015,7.183922 -3.439178,10.835892 -1.152805,0.15448 -2.298533,0.34129 -3.439159,0.56896 -1.452856,0.29003 -2.899692,0.64258 -4.324242,1.04946 0.988038,-0.74668 2.054771,-1.39097 3.173631,-1.92188 1.096732,-0.52042 2.248261,-0.93442 3.426521,-1.22646 0.851178,-3.226389 1.861302,-6.405143 3.021921,-9.533566 1.318926,-3.55513 2.836006,-7.043423 4.53918,-10.431294 z m 5.449561,2.832238 0.480484,0.341393 0.493102,0.341392 c -0.892798,3.400668 -1.765604,6.802014 -2.604643,10.216335 -0.860588,3.501963 -1.687069,7.017009 -2.490867,10.532429 -0.960332,0.0514 -1.920384,0.15268 -2.870191,0.30346 -1.429255,0.22685 -2.833914,0.565 -4.210446,1.01152 0.800927,-0.6778 1.692131,-1.24001 2.655234,-1.65635 0.965016,-0.41718 2.002608,-0.6905 3.047196,-0.80922 0.759866,-3.29873 1.571059,-6.581433 2.452935,-9.849666 0.94299,-3.494691 1.96615,-6.976806 3.047196,-10.431293 z m -49.792005,6.347283 1.605786,0.252889 c -1.116425,7.293263 0.03538,14.922797 3.26215,21.557977 2.114424,4.34785 5.148381,8.23195 8.774927,11.43017 l 0,-1.71959 0,-3.52766 1.618428,0 0,3.52766 0,3.52769 0,1.68164 -1.314976,-1.04945 C 54.504703,123.97059 50.87799,119.44036 48.39981,114.34453 45.026199,107.40743 43.818718,99.4507 44.985938,91.825594 Z m 8.205948,3.009263 1.605786,0.151691 c -0.618176,6.708982 0.873372,13.611662 4.197799,19.471742 2.097975,3.69816 4.940811,6.95001 8.269166,9.59677 l 0,-1.85865 0,-3.52768 1.61843,0 0,3.52768 0,3.54032 0,1.56785 -1.289684,-0.91038 c -4.090027,-2.93328 -7.517897,-6.76159 -10.001393,-11.13933 -3.491051,-6.15381 -5.049263,-13.37482 -4.400104,-20.420053 z m 8.079503,3.957577 1.213824,0.2023 c 0.164786,5.114396 1.531354,9.144176 3.805836,13.073886 1.071763,1.85171 3.190594,4.52002 5.082885,6.42315 2.192954,2.20548 4.128168,3.52799 4.526549,3.56559 l 0,-1.71958 0,-3.19893 1.327617,0.0253 -0.02532,7.5611 c -3.69749,-2.14764 -8.949889,-6.85178 -11.771558,-11.58189 -2.550539,-4.27556 -4.056784,-8.00421 -4.159874,-14.350907 z m 9.381837,4.147206 c 2.032982,3.93103 4.558512,7.60193 7.510529,10.89913 1.849761,2.06607 3.903836,3.94137 6.056459,5.68979 0.0279,-1.85219 0.133551,-3.70032 0.366688,-5.53806 0.244238,-1.92615 0.595837,-3.84298 1.062089,-5.72773 l 1.580507,0.39196 c -0.451183,1.82373 -0.800468,3.67429 -1.036815,5.53807 -0.295845,2.33311 -0.42533,4.69137 -0.379324,7.0427 l 0.03787,1.66901 -1.327617,-1.01152 c -2.732494,-2.07839 -5.271101,-4.42169 -7.561102,-6.97948 -3.043509,-3.3994 -5.654775,-7.18763 -7.750762,-11.24051 l 1.441413,-0.73336 z m 42.812534,0.85982 -3.21157,7.18177 0.35403,-4.85529 -2.27593,-2.32648 z m -9.17952,0.12637 0.42988,9.39448 -6.157626,-6.48638 z m 3.62882,0.3161 0.18956,1.21382 c -0.52703,0.001 -1.06244,0.0422 -1.58051,0.13913 -0.5132,0.0959 -1.01684,0.24374 -1.50461,0.4299 l -0.0885,-1.23912 c 0.40659,-0.13076 0.8207,-0.24294 1.23909,-0.32873 0.5745,-0.1178 1.15928,-0.18399 1.74488,-0.21494 z m -9.040449,3.83112 0.821857,0.97358 c -0.335293,0.28338 -0.653822,0.59746 -0.948313,0.92303 -0.363038,0.40135 -0.694026,0.83415 -0.986224,1.28968 l -0.682764,-1.18852 c 0.209316,-0.34068 0.446738,-0.67097 0.708059,-0.97362 0.325426,-0.37687 0.69329,-0.71977 1.087385,-1.02415 z m -3.059854,11.41752 c 0.984072,3.0625 3.000673,5.78437 5.639223,7.62433 2.19741,1.53233 4.81228,2.45106 7.48524,2.62994 l 0,1.21382 c -2.63365,0.0323 -5.26271,-0.75406 -7.44731,-2.22534 -3.091585,-2.08208 -5.223718,-5.5431 -5.677153,-9.24275 z m 14.414143,5.09553 5.70243,5.56333 -0.18976,0.0631 -7.06798,16.22225 -6.39786,1.71958 2.57938,-1.99774 2.76903,-1.15062 6.39785,-14.21184 -2.98396,1.01152 1.25174,-2.56673 -2.0104,-4.46332 0.22759,2.65524 z m 9.62208,1.06209 0.59426,2.23799 -4.04606,18.86481 -6.9542,2.81962 2.03568,-2.04834 3.71733,-1.77014 z m -16.86708,5.15874 1.59314,0.51842 -8.863443,11.24049 -8.559964,1.92188 3.603526,-2.12418 4.084011,-1.27705 z m 7.11857,1.03681 -8.1048,12.87157 -7.1565,1.87131 2.617301,-1.82074 3.439179,-1.18852 7.39671,-11.73362 z m 11.96121,5.05759 0.88508,4.04606 -0.13913,6.54961 -5.61393,3.48973 1.99774,-2.6173 2.26327,-1.75751 z m 30.13581,-31.59454 -0.28696,6.27716 4.41195,-4.69889 -2.69022,1.00435 z m 9.23754,-39.148545 c -0.19494,0.0044 -0.38704,0.01355 -0.5816,0.02529 6.57792,4.398873 12.53586,9.71665 17.651,15.754412 3.73311,4.406467 7.01965,9.193076 9.78643,14.262414 1.33596,0.199909 2.6557,0.486765 3.95757,0.847153 1.80654,0.500079 3.57556,1.150971 5.27255,1.947175 -1.41354,-1.154699 -2.96072,-2.148379 -4.60242,-2.946057 -1.10752,-0.538131 -2.26114,-0.981879 -3.43917,-1.340255 -3.49095,-6.693059 -8.00977,-12.848766 -13.35205,-18.182057 -3.90331,-3.89676 -8.24045,-7.35609 -12.9095,-10.292208 -0.39642,-0.03994 -0.79016,-0.06815 -1.18855,-0.07587 -0.19494,-0.0036 -0.39937,-0.0044 -0.59426,0 z m 6.29672,1.024159 c 4.65096,2.797668 9.05554,5.997651 13.16239,9.546201 5.16129,4.459688 9.84259,9.47447 13.93366,14.932561 1.81394,0.36017 3.61545,0.807286 5.38633,1.340254 2.42505,0.729867 4.79795,1.625417 7.10594,2.667892 -1.49747,-1.118659 -3.09046,-2.119315 -4.75414,-2.971331 -2.02743,-1.03829 -4.16355,-1.86198 -6.35992,-2.465592 -3.83484,-5.120905 -8.22936,-9.831011 -13.0739,-14.009523 -3.69828,-3.189877 -7.64978,-6.072006 -11.82211,-8.610565 -0.35419,-0.09501 -0.71368,-0.176287 -1.07475,-0.240232 -0.82592,-0.146268 -1.66496,-0.209113 -2.5035,-0.189663 z m 10.16576,2.200056 c 2.11451,0.98611 4.16566,2.102746 6.14499,3.338019 4.58433,2.861022 8.73744,6.354059 12.77041,9.950809 1.83008,1.632152 3.6386,3.288465 5.42426,4.969095 2.23514,0.591412 4.46148,1.242044 6.6634,1.947174 2.87465,0.920566 5.71534,1.93651 8.52204,3.047197 -2.06463,-1.52324 -4.28404,-2.842704 -6.61282,-3.919644 -2.50331,-1.157668 -5.13237,-2.040142 -7.8266,-2.629939 -1.7823,-1.852134 -3.6481,-3.6231 -5.576,-5.323125 -2.84623,-2.509803 -5.83742,-4.849477 -8.95195,-7.01741 -1.59727,-1.111822 -3.2241,-2.177392 -4.88057,-3.198928 -0.80131,-0.239008 -1.6103,-0.455639 -2.42767,-0.632197 -1.0738,-0.231962 -2.15772,-0.408897 -3.24949,-0.531051 z m 20.36947,5.866818 c 2.50438,1.334175 4.95452,2.771822 7.34614,4.298948 2.21661,1.415382 4.37892,2.902663 6.48638,4.475973 3.82859,1.381975 7.61462,2.881454 11.35428,4.488611 3.80525,1.635342 7.56645,3.384702 11.2658,5.247261 -4.05942,-2.988853 -8.30323,-5.730397 -12.69457,-8.205955 -7.5342,-4.247302 -15.50872,-7.706294 -23.75803,-10.304838 z m -26.388,4.387451 c -0.15447,0.109831 -0.31089,0.222452 -0.46782,0.328755 -0.18458,0.12498 -0.36854,0.246551 -0.55635,0.366667 1.72108,2.845714 3.32538,5.758462 4.80471,8.737009 1.854,3.732931 3.51251,7.562876 4.96909,11.46808 1.61756,0.37 3.21631,0.82027 4.79207,1.34026 1.39427,0.46012 2.77065,0.981 4.12194,1.55521 -1.20398,-1.02597 -2.55065,-1.89517 -3.98286,-2.56674 -1.2274,-0.57551 -2.51774,-1.007876 -3.84376,-1.289672 -1.2315,-3.586463 -2.70054,-7.098397 -4.38747,-10.494501 -1.6186,-3.258565 -3.43737,-6.413699 -5.44957,-9.445068 z m -5.32312,3.009284 c -0.14551,0.02611 -0.28317,0.04444 -0.4299,0.06319 -0.28543,0.03668 -0.57213,0.06757 -0.85978,0.07594 1.54984,3.453153 2.96559,6.958788 4.24837,10.519797 1.28407,3.564557 2.43013,7.18392 3.43917,10.83589 1.15279,0.15448 2.29855,0.34129 3.43917,0.56896 1.45286,0.29001 2.89967,0.64258 4.32424,1.04946 -0.98805,-0.74667 -2.05477,-1.39097 -3.17364,-1.92188 -1.09674,-0.52042 -2.24825,-0.93441 -3.42653,-1.22646 -0.85118,-3.226388 -1.8613,-6.405142 -3.02192,-9.533565 -1.3189,-3.55513 -2.83599,-7.043423 -4.53918,-10.431293 z m -5.44956,2.832238 -0.48046,0.341393 -0.49312,0.341392 c 0.8928,3.400668 1.76562,6.802014 2.60466,10.216336 0.86058,3.501962 1.68706,7.017008 2.49086,10.532428 0.96031,0.0514 1.92039,0.15268 2.87017,0.30346 1.42928,0.22685 2.83392,0.56498 4.21047,1.01152 -0.80094,-0.6778 -1.69213,-1.24001 -2.65525,-1.65635 -0.965,-0.41718 -2.00259,-0.6905 -3.0472,-0.80922 -0.75987,-3.29873 -1.57105,-6.581432 -2.45294,-9.849665 -0.94297,-3.494692 -1.96614,-6.976807 -3.04719,-10.431294 z m 49.79199,6.347283 -1.60577,0.25289 c 1.11642,7.293262 -0.0355,14.922796 -3.26216,21.557976 -2.11441,4.34785 -5.14837,8.23195 -8.77492,11.43017 l 0,-1.71959 0,-3.52766 -1.61842,0 0,3.52766 0,3.52769 0,1.68164 1.31498,-1.04945 c 4.42753,-3.53633 8.05424,-8.06656 10.53243,-13.16239 3.37362,-6.9371 4.5811,-14.89383 3.41386,-22.518936 z m -8.20593,3.009264 -1.6058,0.15169 c 0.61818,6.708982 -0.87337,13.611662 -4.19779,19.471742 -2.09797,3.69816 -4.94081,6.95001 -8.26916,9.59677 l 0,-1.85865 0,-3.52768 -1.61844,0 0,3.52768 0,3.5403 0,1.56787 1.28969,-0.91038 c 4.09002,-2.93328 7.5179,-6.76159 10.0014,-11.13935 3.49103,-6.15379 5.04926,-13.3748 4.4001,-20.420032 z m -8.0795,3.957576 -1.21382,0.2023 c -0.16485,5.114396 -1.53137,9.144176 -3.80585,13.073886 -1.07175,1.85171 -3.19058,4.52002 -5.08289,6.42313 -2.19294,2.20548 -4.12814,3.52801 -4.52654,3.56561 l 0,-1.71958 0,-3.19893 -1.32762,0.0253 0.0253,7.5611 c 3.69749,-2.14764 8.9499,-6.8518 11.77156,-11.58189 2.55054,-4.27558 4.0568,-8.00421 4.15987,-14.350906 z m -9.38184,4.147206 c -2.03296,3.93103 -4.55851,7.60193 -7.51051,10.89913 -1.84978,2.06607 -3.90384,3.94137 -6.05648,5.68979 -0.0279,-1.85219 -0.13356,-3.70032 -0.36667,-5.53806 -0.24426,-1.92615 -0.59584,-3.84298 -1.06211,-5.72773 l -1.58048,0.39196 c 0.45116,1.82373 0.80046,3.67429 1.03679,5.53807 0.29587,2.33311 0.42533,4.69137 0.37932,7.0427 l -0.0378,1.66901 1.32762,-1.01152 c 2.73251,-2.07839 5.27112,-4.42171 7.5611,-6.97948 3.04351,-3.3994 5.65479,-7.18763 7.75076,-11.24051 l -1.44141,-0.73336 z m -42.81254,0.85982 3.21159,7.18177 -0.35403,-4.85529 2.27591,-2.32648 z m 9.17955,0.12637 -0.4299,9.39448 6.15762,-6.48638 z m -3.62883,0.3161 -0.18976,1.21382 c 0.52701,10e-4 1.06243,0.0422 1.58049,0.13914 0.51321,0.0959 1.01684,0.24373 1.50464,0.42989 l 0.0885,-1.23912 c -0.40661,-0.13076 -0.82072,-0.24294 -1.23911,-0.32873 -0.57447,-0.1178 -1.15929,-0.18399 -1.74488,-0.21494 z m 9.04045,3.83112 -0.82185,0.97359 c 0.33528,0.28335 0.6538,0.59745 0.94828,0.92302 0.36307,0.40135 0.69403,0.83415 0.98625,1.28968 l 0.68277,-1.18854 c -0.20934,-0.34066 -0.44675,-0.67097 -0.70806,-0.9736 -0.32545,-0.37687 -0.6933,-0.71977 -1.08739,-1.02415 z m 3.08513,1.34025 -3.46742,5.80898 4.03531,-2.52637 2.58531,1.16822 z m -0.0253,10.07727 c -0.98408,3.0625 -3.00068,5.78437 -5.63923,7.62433 -2.19741,1.53233 -4.81228,2.45106 -7.48524,2.62994 l 0,1.21382 c 2.63363,0.0323 5.26271,-0.75408 7.44731,-2.22534 3.09159,-2.08208 5.22372,-5.5431 5.67716,-9.24275 z m -14.41415,5.09553 -5.70243,5.56333 0.18956,0.0631 7.06799,16.22225 6.39785,1.71958 -2.57938,-1.99776 -2.76902,-1.1506 -6.39786,-14.21184 2.98397,1.01152 -1.25175,-2.56673 2.0104,-4.46332 -0.22759,2.65524 z m -9.62207,1.06209 -0.59428,2.23799 4.04608,18.86481 6.95419,2.81962 -2.03567,-2.04834 -3.71735,-1.77014 z m 16.86707,5.15874 -1.59314,0.5184 8.86345,11.24051 8.55996,1.92188 -3.60353,-2.12418 -4.08401,-1.27705 z m -7.11856,1.03681 8.10479,12.87157 7.1565,1.87131 -2.6173,-1.82074 -3.43918,-1.18852 -7.39673,-11.73362 z m -11.96122,5.0576 -0.88508,4.04605 0.13914,6.54961 5.61393,3.48973 -1.99775,-2.6173 -2.26327,-1.75751 z m -16.31072,-50.689734 -0.17701,0 c 2.21635,1.73427 4.20979,3.920661 5.91739,6.15762 1.85997,2.436569 3.38018,5.138008 4.50125,7.990994 l 0.18956,0.48046 0.18977,-0.48046 c 1.12109,-2.852986 2.6413,-5.554425 4.50127,-7.990994 1.7076,-2.236959 3.70101,-4.42335 5.91735,-6.15762 l -0.177,0 c -3.39895,0.899138 -6.91539,1.175887 -10.43127,1.175887 -3.51588,0 -7.03232,-0.276749 -10.43129,-1.175887 z m -2.6426,-0.379324 1.20118,2.174769 c 3.24772,5.874232 5.95764,12.037429 8.1048,18.396989 1.35135,4.0026 2.48424,8.0847 3.37593,12.2141 l 0.39196,1.83338 0.39197,-1.83338 c 0.89168,-4.1294 2.02457,-8.2115 3.37594,-12.2141 2.14715,-6.35956 4.85708,-12.522757 8.1048,-18.396989 l 1.20118,-2.174769 -1.82074,1.681667 c -0.0331,0.03029 -0.0557,0.07076 -0.0885,0.10106 -2.55681,2.361082 -4.86225,4.98851 -6.8404,7.851904 -1.69002,2.446356 -3.12245,5.069097 -4.32425,7.788697 -1.20178,-2.7196 -2.6342,-5.342341 -4.32423,-7.788697 -1.97814,-2.863394 -4.28359,-5.490822 -6.8404,-7.851904 -0.0329,-0.0303 -0.0556,-0.07097 -0.0885,-0.10106 z m 3.19893,4.248378 c 1.77017,1.830287 3.44599,3.759283 4.89321,5.85416 1.82293,2.63873 3.36034,5.46401 4.60242,8.42091 l 0.37931,0.88506 0.37933,-0.88506 c 1.24204,-2.9569 2.77947,-5.78218 4.60241,-8.42091 1.44723,-2.094877 3.12303,-4.023873 4.89322,-5.85416 -2.69533,5.172512 -5.01255,10.53163 -6.87833,16.05785 -1.18478,3.50915 -2.16195,7.08836 -2.99663,10.69683 -0.83467,-3.60847 -1.81185,-7.18768 -2.99663,-10.69683 -1.86578,-5.52622 -4.183,-10.885338 -6.87831,-16.05785 z m -11.98623,-8.8764 3.46256,2.516918 2.10564,2.287172 -1.53506,-2.671321 c 5.87601,1.086688 11.85238,1.858931 17.82803,1.858931 5.97565,0 11.95202,-0.772243 17.82803,-1.858931 l -1.53281,2.671321 2.17015,-2.214336 3.34164,-2.613375 -0.53482,0.213881 c -6.99403,2.190835 -14.06071,2.868916 -21.27219,2.868916 -7.21145,0 -14.2787,-0.678081 -21.27271,-2.868916 z m 18.13119,-22.688947 c -9.45819,-0.02203 -18.91605,0.622505 -28.284596,1.921882 -9.283711,1.287619 -18.48456,3.217932 -27.500656,5.7783 1.260616,-1.344126 2.622603,-2.591141 4.071359,-3.729973 1.501552,-1.180326 3.099381,-2.242218 4.766775,-3.173639 -7.237009,1.80981 -14.390962,3.972121 -21.418904,6.473724 -7.154285,2.546567 -14.183561,5.447549 -21.052234,8.686425 l 10.59566,0 C 39.576368,77.079884 34.005997,80.225569 28.776318,83.86645 21.858069,88.682879 15.532299,94.360532 10,100.72087 c 5.590718,-3.288664 11.366743,-6.261191 17.296968,-8.888719 5.615671,-2.488155 11.368913,-4.671914 17.221109,-6.536945 -1.772464,1.436472 -3.471018,2.962601 -5.09552,4.564477 -1.753087,1.728688 -3.419513,3.546657 -4.981734,5.44956 l 7.105921,-2.756374 c -1.589991,7.984431 -0.402452,16.495141 3.325369,23.732751 1.87445,3.63927 4.370986,6.962 7.346155,9.77381 l 0.467829,-3.97022 c 1.272663,1.49056 2.640196,2.91025 4.084004,4.23572 1.432515,1.31511 2.946397,2.53332 4.526549,3.66676 l 0.2023,-8.3703 c 1.232657,1.30319 2.558934,2.53089 3.957564,3.65411 1.326533,1.0653 2.719473,2.03575 4.172522,2.92074 l 0.354029,-8.23123 c 1.255231,1.26224 2.580436,2.45324 3.970204,3.56562 1.436611,1.14983 2.940255,2.21202 4.501268,3.18626 l 0.15169,-8.55996 c 1.306249,1.35347 2.6834,2.62173 4.134581,3.81849 1.380918,1.1388 2.828571,2.20301 4.324243,3.18628 -0.174413,-3.69065 0.03688,-7.39173 0.632194,-11.03821 0.323892,-1.98389 0.755421,-3.94512 1.302323,-5.87946 l 2.098903,-0.41723 -1.656351,5.80359 4.114568,-1.0656 -0.915642,1.29317 2.478209,0.50576 c -0.57718,1.91628 -0.739753,3.9631 -0.442532,5.94268 0.570681,3.80074 2.847108,7.31886 6.081757,9.39449 l -16.500393,16.60154 10.823255,-1.99774 -3.211583,4.85528 10.115191,-2.85754 -2.048329,4.38745 8.888709,-3.16099 -1.22645,4.03344 9.45771,-3.62882 -1.32762,4.75414 6.84039,-3.52768 -1.97245,22.58216 7.40936,25.74316 7.39674,-25.74316 -1.97247,-22.58216 6.85304,3.52768 -1.32761,-4.75414 9.44505,3.62882 -1.22645,-4.03344 8.88871,3.16099 -2.03567,-4.38745 10.11516,2.85754 -3.22419,-4.85528 10.83589,1.99774 -16.50041,-16.60154 c 3.23467,-2.07563 5.49846,-5.59375 6.06912,-9.39449 0.29784,-1.98363 0.15029,-4.03567 -0.4299,-5.95532 l 2.35178,-0.49312 -0.94403,-1.33327 4.26941,1.1057 -1.66901,-5.80359 2.0989,0.41723 c 0.54692,1.93434 0.97844,3.89557 1.30232,5.87946 0.59533,3.64648 0.81917,7.34756 0.64486,11.03821 1.49567,-0.98327 2.93067,-2.04748 4.31159,-3.18628 1.45119,-1.19676 2.84098,-2.46502 4.14723,-3.81849 l 0.13914,8.55996 c 1.56101,-0.97424 3.06465,-2.03643 4.50126,-3.18626 1.38976,-1.11238 2.71498,-2.30338 3.9702,-3.56562 l 0.36668,8.23123 c 1.45304,-0.88499 2.84599,-1.85544 4.17252,-2.92074 1.39863,-1.12322 2.72492,-2.35092 3.95757,-3.65411 l 0.2023,8.3703 c 1.58015,-1.13344 3.09404,-2.35165 4.52654,-3.66676 1.44381,-1.32547 2.7987,-2.74516 4.07136,-4.23572 l 0.46782,3.97022 c 2.97519,-2.81181 5.47171,-6.13454 7.34617,-9.77381 3.72783,-7.23761 4.928,-15.74832 3.33802,-23.732751 l 7.09327,2.756374 c -1.56223,-1.902903 -3.216,-3.720872 -4.96909,-5.44956 -1.6245,-1.601876 -3.33571,-3.128005 -5.10817,-4.564477 5.8522,1.865031 11.60544,4.04879 17.22111,6.536945 5.93023,2.627528 11.70624,5.600055 17.29697,8.888719 -5.5323,-6.360338 -11.84541,-12.037991 -18.76368,-16.85442 -5.22968,-3.640881 -10.80003,-6.786566 -16.61419,-9.394478 l 10.58302,0 c -6.86867,-3.238876 -13.89795,-6.139858 -21.05225,-8.686425 -7.02793,-2.501603 -14.18188,-4.663914 -21.4189,-6.473724 1.6674,0.931421 3.26523,1.993313 4.76679,3.173639 1.44874,1.138832 2.81074,2.385847 4.07135,3.729973 -9.0161,-2.560368 -18.20431,-4.490681 -27.48801,-5.7783 -9.36856,-1.299377 -18.82642,-1.943912 -28.28461,-1.921882 2.75164,0.354558 5.48112,0.819331 8.1933,1.403482 2.83621,0.610862 7.01309,1.355397 9.99915,2.212698 l -5.66227,0 c 2.57041,1.539827 5.01572,3.290356 7.2956,5.234608 3.36437,2.869107 6.3732,6.147691 8.93929,9.748507 -1.72237,1.346852 -3.53406,2.59691 -5.41163,3.717343 -2.07489,1.238178 -4.23479,2.323011 -6.46108,3.262134 0.65,-0.876932 1.28596,-1.763093 1.8966,-2.667872 0.42287,-0.626533 0.8356,-1.257412 1.23912,-1.896604 -7.75015,2.233631 -15.8189,3.368895 -23.88449,3.363314 -8.02584,-0.006 -16.0461,-1.140685 -23.75805,-3.363314 0.4035,0.639192 0.81623,1.270071 1.23911,1.896604 0.61065,0.904779 1.23395,1.79094 1.88395,2.667872 -2.22627,-0.939123 -4.38617,-2.023956 -6.46108,-3.262134 -1.877548,-1.120433 -3.676601,-2.370491 -5.39897,-3.717343 2.566094,-3.600816 5.57492,-6.8794 8.93928,-9.748507 2.27989,-1.944252 4.71256,-3.694781 7.28295,-5.234608 l -5.64964,0 c 2.98607,-0.857301 7.15031,-1.601836 9.98654,-2.212698 2.71216,-0.584151 5.4543,-1.048924 8.20593,-1.403482 z"
     id="path4817"
     style="display:inline;opacity:0.9;fill:#ffffff;fill-opacity:1;fill-rule:evenodd;stroke:none" />
</svg>
