<?xml version="1.0" encoding="UTF-8" standalone="no"?>
<!-- Created with Inkscape (http://www.inkscape.org/) -->

<svg
   xmlns:dc="http://purl.org/dc/elements/1.1/"
   xmlns:cc="http://creativecommons.org/ns#"
   xmlns:rdf="http://www.w3.org/1999/02/22-rdf-syntax-ns#"
   xmlns:svg="http://www.w3.org/2000/svg"
   xmlns="http://www.w3.org/2000/svg"
   xmlns:sodipodi="http://sodipodi.sourceforge.net/DTD/sodipodi-0.dtd"
   xmlns:inkscape="http://www.inkscape.org/namespaces/inkscape"
   width="273.06668"
   height="273.06668"
   viewBox="0 0 256 256"
   id="svg2"
   version="1.1"
   inkscape:version="0.92.1 r15371"
   sodipodi:docname="xan_sc_zerg.svg"
   inkscape:export-filename="D:\dev\XansSciFiMashup\raw\flags\map\xan_w4_tau.png"
   inkscape:export-xdpi="90"
   inkscape:export-ydpi="90">
  <defs
     id="defs4" />
  <sodipodi:namedview
     id="base"
     pagecolor="#ff4b00"
     bordercolor="#666666"
     borderopacity="1.0"
     inkscape:pageopacity="0"
     inkscape:pageshadow="2"
     inkscape:zoom="0.93642925"
     inkscape:cx="79.566342"
     inkscape:cy="88.186079"
     inkscape:document-units="px"
     inkscape:current-layer="layer1"
     showgrid="false"
     inkscape:window-width="1697"
     inkscape:window-height="1057"
     inkscape:window-x="-8"
     inkscape:window-y="837"
     inkscape:window-maximized="1"
     units="px"
     showguides="false"
     inkscape:pagecheckerboard="false" />
  <metadata
     id="metadata7">
    <rdf:RDF>
      <cc:Work
         rdf:about="">
        <dc:format>image/svg+xml</dc:format>
        <dc:type
           rdf:resource="http://purl.org/dc/dcmitype/StillImage" />
        <dc:title></dc:title>
      </cc:Work>
    </rdf:RDF>
  </metadata>
  <g
     inkscape:label="Ebene 1"
     inkscape:groupmode="layer"
     id="layer1"
     transform="translate(0,-796.3622)">
    <path
       style="fill:#000000"
       d=""
       id="path4147"
       inkscape:connector-curvature="0" />
    <path
       style="fill:#000000"
       d=""
       id="path4145"
       inkscape:connector-curvature="0" />
    <path
       inkscape:connector-curvature="0"
       id="path23"
       d="m 79.220305,1041.8545 c -6.46176,-0.88 -9.72765,-1.9353 -16.56347,-5.3522 -9.45802,-4.7278 -19.2012,-15.2236 -22.3092,-24.0325 l -1.15055,-3.2611 6.70035,5.7757 c 16.56221,14.2764 32.56627,17.0286 43.21203,7.4309 6.00681,-5.4154 7.74958,-12.6309 4.68245,-19.3865 -4.26661,-9.39741 -17.76032,-10.80671 -23.95088,-2.5015 -2.41688,3.2426 -2.1965,8.883 0.55729,14.2624 1.20441,2.3528 1.90377,4.2778 1.55414,4.2778 -1.6516,0 -9.4833,-6.1461 -11.72583,-9.2022 -4.5013,-6.1342 -6.49688,-11.99781 -7.56804,-22.23721 l -0.51866,-4.958 4.34064,0.3599 c 3.80729,0.3157 4.66067,0.091 6.94535,-1.8318 4.59542,-3.8666 4.93157,-9.3936 0.82136,-13.5038 -3.26256,-3.2625 -7.63791,-3.3275 -11.02213,-0.1639 -4.04494,3.7815 -7.14557,13.9415 -8.26814,27.0925 l -0.52165,6.11101 -2.16394,-3.66671 c -3.16535,-5.3634 -4.79642,-11.623 -5.30785,-20.3703 -0.44848,-7.6701 0.81945,-17.5949 2.95446,-23.1259 0.88664,-2.29702 0.94232,-2.31575 2.55303,-0.85808 5.32679,4.82068 19.36506,-4.23647 16.16976,-10.43229 -5.28044,-10.23888 -16.8383,-10.79981 -23.48458,-1.13977 -3.26191,4.74103 -8.22505,17.16444 -8.22505,20.58824 0,0.6139 -0.33538,1.116 -0.74529,1.116 -1.02134,0 -1.46314,-9.6825 -0.78104,-17.11736 0.69135,-7.53541 3.1822,-15.13539 6.82894,-20.8362 2.8811,-4.50386 8.34076,-10.9351 9.28315,-10.9351 0.2993,0 1.19521,1.10187 1.99075,2.44861 1.99567,3.37839 5.73509,5.16678 9.69335,4.63585 3.72145,-0.49914 6.10773,-2.37867 7.65199,-6.02697 3.08121,-7.27939 -7.56778,-14.63742 -18.03828,-12.46376 -7.61661,1.5812 -16.15605,8.67368 -21.09114,17.51736 l -1.36411,2.44443 0.51378,-2.85184 c 0.91576,-5.08328 4.48699,-14.96696 6.99211,-19.35116 3.24347,-5.67641 9.54766,-12.47754 14.52844,-15.67372 2.21941,-1.42418 7.1999,-3.83179 11.06772,-5.35026 5.72791,-2.24867 6.91674,-2.50084 6.4087,-1.35945 -1.16604,2.61977 -1.3344,8.38683 -0.31662,10.84418 1.13833,2.74817 4.48625,4.81641 7.79641,4.81641 2.83305,0 8.02776,-5.32669 8.75866,-8.98113 0.29128,-1.45581 0.15238,-4.04724 -0.3086,-5.75876 -3.00968,-11.17715 -18.4643,-15.76984 -36.99629,-10.99433 -4.44962,1.1466 -8.22037,1.95456 -8.37948,1.79544 -0.5389,-0.53886 5.98416,-8.23297 8.79121,-10.36949 9.99122,-7.60444 26.35619,-11.60674 39.9685,-9.7748 3.55829,0.47888 7.15806,1.23913 7.99947,1.68943 1.42262,0.76134 1.33498,1.01361 -1.25026,3.59884 -2.28102,2.281 -2.78011,3.39444 -2.78011,6.20229 0,7.17026 8.98411,11.89493 16.04564,8.43829 4.165985,-2.03928 5.297605,-4.47669 4.880075,-10.51118 -0.47357,-6.84385 -3.72136,-13.09304 -9.876315,-19.00336 -7.04148,-6.76156 -15.00855,-10.42087 -25.71603,-11.81141 -3.91845,-0.50887 -3.92467,-0.51452 -1.62962,-1.47882 10.05155,-4.22337 27.15517,-5.23812 38.776965,-2.3007 8.45006,2.13578 17.08348,6.43465 22.24825,11.07822 2.28787,2.05702 4.1598,4.04801 4.1598,4.42443 0,0.37642 -0.7867,0.93412 -1.74822,1.23928 -2.85531,0.90625 -8.69162,6.80851 -9.67311,9.78237 -1.10681,3.35364 0.0605,6.27439 3.53667,8.8474 1.77908,1.31695 3.50151,1.70289 7.59962,1.70289 5.04118,0 5.42976,-0.14242 7.98188,-2.92736 8.39956,-9.16552 8.67124,-28.31044 0.56889,-40.08682 -2.37659,-3.45426 -6.68714,-7.70919 -10.71748,-10.57919 l -2.02972,-1.44536 2.85185,0.48382 c 20.74747,3.51996 38.15832,18.09676 44.85147,37.5508 0.87606,2.5463 1.59283,4.93889 1.59283,5.31691 0,0.37799 -1.33242,0.68722 -2.96098,0.68722 -7.29873,0 -13.33526,4.07276 -13.33526,8.99712 0,3.33322 4.21848,7.87063 8.35232,8.98375 4.64263,1.25014 8.33364,0.32488 12.03179,-3.01618 6.44883,-5.82614 8.8307,-19.12507 6.16697,-34.43235 -0.73246,-4.20909 -1.18869,-7.79593 -1.01386,-7.97076 0.17484,-0.17483 3.1259,2.667 6.55791,6.31521 6.96763,7.40668 11.75722,16.09154 13.89594,25.19728 1.25225,5.33145 1.68398,19.78407 0.75821,25.3821 l -0.49196,2.97473 -4.18424,-1.94827 c -6.78906,-3.16108 -10.46868,-2.38046 -11.81823,2.50715 -0.99711,3.61124 -0.40698,5.96688 2.19817,8.77454 2.60795,2.81069 6.58283,3.9796 10.16726,2.98985 7.01852,-1.93788 11.42577,-11.7611 14.23006,-31.71716 l 0.62975,-4.48147 2.35045,9.37035 c 3.24581,12.93996 3.75535,24.62842 1.4102,32.34929 -1.66917,5.49538 -7.51594,15.72466 -8.98777,15.72466 -0.40996,0 -0.95666,-0.55054 -1.2149,-1.22343 -0.25825,-0.67288 -1.80109,-1.85843 -3.42862,-2.63456 l -2.95919,-1.41113 -1.9185,2.23037 c -2.88105,3.34942 -3.34301,7.27365 -1.25414,10.65355 3.62339,5.86274 9.38684,5.66417 15.77301,-0.54348 4.49196,-4.36641 8.00001,-9.49778 13.45271,-19.67777 l 4.37678,-8.17128 -0.46195,7.74072 c -1.63397,27.38069 -21.13799,59.26643 -55.6617,90.99763 l -7.52496,6.91631 -8.38194,-1.2359 c -16.93415,-2.49701 -32.20462,-9.77641 -44.19125,-21.06601 -14.68192,-13.8281 -22.217775,-30.29702 -21.395095,-46.75717 0.44503,-8.90405 2.764685,-14.71224 7.944355,-19.89192 8.24842,-8.2484 22.60575,-10.79854 32.46841,-5.76701 4.15701,2.12076 9.36466,8.09424 10.57324,12.12813 2.80009,9.3459 -0.29033,16.75752 -9.96028,23.88813 -3.69499,2.72465 -4.96375,2.98507 -3.78161,0.77622 0.46127,-0.8619 1.22925,-3.38828 1.70662,-5.61422 1.58782,-7.40377 -2.36786,-12.41848 -9.87764,-12.52213 -6.64042,-0.0918 -10.20835,5.00882 -9.51821,13.6065 0.42826,5.33526 3.25858,11.84375 6.4384,14.80557 5.37146,5.0031 13.78587,6.3481 22.5838,3.6099 12.09059,-3.7629 19.03595,-15.13867 20.21662,-33.11248 0.95444,-14.5305 -4.74353,-25.8514 -17.02966,-33.83496 -6.66764,-4.33265 -13.62344,-6.03718 -22.02371,-5.39701 -13.83155,1.05413 -25.13948,5.72633 -33.930725,14.01956 -11.354,10.7108 -15.2488,23.72929 -13.19502,44.10465 1.20877,11.99194 3.38933,20.33914 7.52104,28.79044 2.90324,5.9385 4.67616,8.2037 12.435855,15.8889 11.77199,11.6588 21.51682,17.50441 47.74314,28.63901 1.95535,0.8302 1.70841,1.0803 -6.15979,6.2388 -23.06516,15.1221 -44.741955,21.76 -62.958215,19.2794 z"
       style="fill:#ffffff;fill-opacity:1;stroke-width:0.81481266"
       sodipodi:nodetypes="ccccsssccscscccsccccsccccssccscccsccccccccscccccsccscccscssscccscssccsssssccsccccccccccccsccccccscsscsscsssccccccccscsccscccc" />
  </g>
</svg>
