<?xml version="1.0" encoding="UTF-8" standalone="no"?>
<!-- Created with Inkscape (http://www.inkscape.org/) -->

<svg
   xmlns:dc="http://purl.org/dc/elements/1.1/"
   xmlns:cc="http://creativecommons.org/ns#"
   xmlns:rdf="http://www.w3.org/1999/02/22-rdf-syntax-ns#"
   xmlns:svg="http://www.w3.org/2000/svg"
   xmlns="http://www.w3.org/2000/svg"
   xmlns:sodipodi="http://sodipodi.sourceforge.net/DTD/sodipodi-0.dtd"
   xmlns:inkscape="http://www.inkscape.org/namespaces/inkscape"
   version="1.1"
   width="273.06668"
   height="273.06668"
   id="svg2"
   inkscape:version="0.92.1 r15371"
   sodipodi:docname="xan_st_ferengi.svg"
   inkscape:export-filename="D:\dev\XansSciFiMashup\raw\flags\map\xan_st_federation.png"
   inkscape:export-xdpi="90"
   inkscape:export-ydpi="90">
  <sodipodi:namedview
     pagecolor="#0e8e00"
     bordercolor="#666666"
     borderopacity="1"
     objecttolerance="10"
     gridtolerance="10"
     guidetolerance="10"
     inkscape:pageopacity="0"
     inkscape:pageshadow="2"
     inkscape:window-width="1697"
     inkscape:window-height="1057"
     id="namedview93"
     showgrid="false"
     inkscape:zoom="1.7241435"
     inkscape:cx="17.279559"
     inkscape:cy="127.31686"
     inkscape:window-x="-8"
     inkscape:window-y="837"
     inkscape:window-maximized="1"
     inkscape:current-layer="svg2" />
  <defs
     id="defs4" />
  <metadata
     id="metadata7">
    <rdf:RDF>
      <cc:Work
         rdf:about="">
        <dc:format>image/svg+xml</dc:format>
        <dc:type
           rdf:resource="http://purl.org/dc/dcmitype/StillImage" />
        <dc:title />
      </cc:Work>
    </rdf:RDF>
  </metadata>
  <path
     style="fill:#ffffff;fill-opacity:1;stroke-width:1.06666672"
     d="M 107.25364,238.69201 C 90.775522,237.64274 75.295458,232.94508 61.434519,224.78748 41.839543,213.25522 26.081783,194.82413 18.06093,174.0555 c -3.511061,-9.09129 -5.960213,-19.29224 -6.63088,-27.61821 -0.156811,-1.94668 -0.392725,-4.39265 -0.524245,-5.43551 l -0.239136,-1.89611 H 67.05021 c 31.010944,0 56.38771,0.17065 56.3928,0.37923 0.0586,2.39686 1.80026,12.04674 2.85191,15.80088 7.73371,27.60753 26.61627,45.50508 54.34225,51.50751 2.60484,0.56393 6.29435,1.18462 8.19894,1.37933 l 3.46287,0.35401 29.92903,-29.92586 29.92905,-29.92587 5.11819,0.14526 5.1182,0.14527 -26.12222,45.11606 -26.12222,45.11606 -48.54032,-0.0676 c -26.69718,-0.0372 -51.15695,-0.23426 -54.35505,-0.4379 z m 68.32722,-44.27727 c -19.18962,-6.34051 -33.84612,-21.1885 -39.17316,-39.68495 -0.67281,-2.33612 -1.38241,-4.98695 -1.57688,-5.89077 l -0.35359,-1.64329 h 4.07883 4.07885 l 1.8351,3.66581 c 4.87691,9.74218 12.25293,16.85736 21.83529,21.06308 5.95282,2.61271 4.47029,4.05829 15.89746,-15.50117 l 10.11753,-17.31778 h 21.4902 21.49018 l -21.26279,21.61562 c -11.69454,11.88859 -24.29341,24.61004 -27.9975,28.2699 l -6.73469,6.65428 z m -12.70809,-42.39176 c -3.52102,-0.73863 -5.62204,-1.85359 -8.02952,-4.26108 -7.51422,-7.51421 -5.46943,-20.51893 3.98462,-25.34204 4.28465,-2.18585 10.38112,-2.18813 14.64705,-0.005 7.23384,3.70124 10.5235,13.39073 7.04014,20.73629 -3.23772,6.82754 -10.34684,10.40269 -17.64229,8.87227 z M 10.920439,132.65891 c 0.119094,-0.76477 0.342038,-3.21695 0.495424,-5.44931 0.75727,-11.02071 5.015254,-26.0037 10.449024,-36.767965 C 28.479565,77.338051 39.678946,63.971534 51.508119,55.062318 65.427287,44.57901 79.329474,38.694097 98.152333,35.31743 c 5.577887,-1.000629 7.978057,-1.051368 58.926987,-1.245717 l 53.11224,-0.202595 26.01859,44.869595 c 14.31022,24.678277 26.09444,45.057277 26.18713,45.286667 0.0927,0.22938 -2.19858,0.41707 -5.09173,0.41707 h -5.26028 l -29.78444,-29.894063 -29.78444,-29.894069 -3.46916,0.322421 c -7.95288,0.739147 -19.52166,4.069888 -26.85439,7.731594 -17.93714,8.957184 -30.79157,25.507105 -36.15755,46.552427 -0.5494,2.15469 -1.24268,5.62411 -1.54064,7.70983 -0.29798,2.08572 -0.65988,4.53169 -0.80424,5.43551 l -0.26248,1.64329 H 67.045922 10.703906 Z M 182.59227,117.07538 c -5.42286,-9.33397 -9.98832,-17.185371 -10.14545,-17.447547 -0.35244,-0.588002 -4.68487,0.859787 -8.82124,2.947817 -8.30311,4.19139 -15.79523,12.17216 -19.45997,20.72914 l -1.13688,2.65455 h -4.24521 -4.24521 l 0.31052,-1.39049 c 0.73294,-3.28196 2.35166,-8.87476 3.07452,-10.62271 7.14785,-17.284229 19.60816,-28.952398 37.39483,-35.017498 l 4.10253,-1.398933 21.68725,21.813077 c 11.92798,11.997194 24.52675,24.714124 27.99727,28.259834 l 6.31003,6.44677 -21.48162,-10e-4 -21.48162,-0.001 -9.85975,-16.97087 z"
     id="path4147"
     inkscape:connector-curvature="0" />
</svg>
