<?xml version="1.0" encoding="UTF-8" standalone="no"?>
<!-- Creator: CorelDRAW X5 -->

<svg
   xmlns:dc="http://purl.org/dc/elements/1.1/"
   xmlns:cc="http://creativecommons.org/ns#"
   xmlns:rdf="http://www.w3.org/1999/02/22-rdf-syntax-ns#"
   xmlns:svg="http://www.w3.org/2000/svg"
   xmlns="http://www.w3.org/2000/svg"
   xmlns:sodipodi="http://sodipodi.sourceforge.net/DTD/sodipodi-0.dtd"
   xmlns:inkscape="http://www.inkscape.org/namespaces/inkscape"
   xml:space="preserve"
   width="128"
   height="128"
   style="fill-rule:evenodd"
   viewBox="0 0 3612.4444 3612.4447"
   id="svg2"
   version="1.1"
   inkscape:version="0.91 r13725"
   sodipodi:docname="xan_st_borg.svg"
   inkscape:export-filename="D:\dev\XansSciFiMashup\raw\flags\xan_st_borg.png"
   inkscape:export-xdpi="90"
   inkscape:export-ydpi="90"><metadata
     id="metadata21"><rdf:RDF><cc:Work
         rdf:about=""><dc:format>image/svg+xml</dc:format><dc:type
           rdf:resource="http://purl.org/dc/dcmitype/StillImage" /><dc:title></dc:title></cc:Work></rdf:RDF></metadata><sodipodi:namedview
     pagecolor="#008703"
     bordercolor="#666666"
     borderopacity="1"
     objecttolerance="10"
     gridtolerance="10"
     guidetolerance="10"
     inkscape:pageopacity="0"
     inkscape:pageshadow="2"
     inkscape:window-width="1920"
     inkscape:window-height="1017"
     id="namedview19"
     showgrid="false"
     inkscape:zoom="4.4402965"
     inkscape:cx="63.807842"
     inkscape:cy="61.79604"
     inkscape:window-x="1272"
     inkscape:window-y="-8"
     inkscape:window-maximized="1"
     inkscape:current-layer="svg2" /><defs
     id="defs4"><style
       type="text/css"
       id="style6">
   
    .fil1 {fill:#CFD3CD;fill-rule:nonzero}
    .fil0 {fill:url(#id0)}
   
  </style></defs><path
     style="fill:#000000;fill-opacity:1;fill-rule:nonzero"
     inkscape:connector-curvature="0"
     id="path17"
     d="m 1432.1501,2731.7404 c 0,-285.8853 85.9097,-534.2303 212.9699,-663.4563 -83.7441,-5.0534 -205.7506,-39.7062 -283.7196,-182.6491 -221.6331,-402.8386 52.7011,-1078.56762 52.7011,-1078.56762 l -23.8238,-23.82382 c 0,0 -342.1961,424.49644 -300.3238,1355.78994 25.9896,586.9314 303.2116,924.074 446.1544,1060.5192 -63.53,-128.5038 -103.9582,-291.6609 -103.9582,-467.8123 z m 612.9208,309.7091 c 0,159.547 -68.5835,288.7729 -153.0499,288.7729 -84.4659,0 -153.0498,-129.2259 -153.0498,-288.7729 0,-159.5474 68.5839,-288.7733 153.0498,-288.7733 84.4664,0 153.0499,129.2259 153.0499,288.7733 z m -377.5708,194.2002 c 0,0 -264.9494,-990.492 176.8734,-990.492 506.7969,0 282.9977,996.2671 282.9977,996.2671 0,0 9.3851,-601.37 -264.9493,-601.37 -212.2482,0 -194.2,595.5949 -194.2,595.5949 z m 114.7872,-1253.2756 c 20.2141,-5.7756 40.4282,-8.6631 61.3642,-8.6631 17.3264,0 35.3749,2.1659 51.9793,5.7755 32.4869,-130.6701 83.7441,-436.0476 -19.4921,-807.843 C 1737.5274,675.67556 1543.3276,558.72236 1543.3276,558.72236 l -41.1502,41.15046 c 0,0 318.3723,412.94538 318.3723,784.01918 0,284.4415 -25.9896,508.9623 -38.2624,597.7604 z m 207.9167,40.4283 c 58.4764,41.15 110.4556,105.4021 153.0496,186.9804 55.5889,-135.0015 145.8305,-462.7584 1.444,-961.6144 C 1950.4975,577.49276 1667.5001,411.44816 1667.5001,411.44816 l -49.8133,49.81353 c 0,0 386.2339,386.23405 427.3841,851.88091 29.5991,332.0887 -22.38,589.0969 -54.1449,708.9377 z m -199.2534,-1740.58016 -52.7012,59.19872 c 0,0 589.0972,495.24582 589.0972,1373.11594 0,312.5973 -67.1398,568.8832 -109.0119,698.8313 24.5456,96.7385 38.2624,204.3065 38.2624,318.3722 0,225.965 -41.8722,429.5499 -116.231,568.161 170.3761,-226.6871 338.5863,-655.5148 381.9023,-1325.4683 64.974,-996.26767 -730.596,-1691.48873 -730.596,-1691.48873 z"
     class="fil1" /></svg>