<?xml version="1.0" encoding="UTF-8" standalone="no"?>
<!-- Created with Inkscape (http://www.inkscape.org/) -->

<svg
   xmlns:dc="http://purl.org/dc/elements/1.1/"
   xmlns:cc="http://creativecommons.org/ns#"
   xmlns:rdf="http://www.w3.org/1999/02/22-rdf-syntax-ns#"
   xmlns:svg="http://www.w3.org/2000/svg"
   xmlns="http://www.w3.org/2000/svg"
   xmlns:sodipodi="http://sodipodi.sourceforge.net/DTD/sodipodi-0.dtd"
   xmlns:inkscape="http://www.inkscape.org/namespaces/inkscape"
   width="128"
   height="128"
   viewBox="0 0 128 128"
   id="svg2"
   version="1.1"
   inkscape:version="0.91 r13725"
   sodipodi:docname="xan_w4_tyranid.svg"
   inkscape:export-filename="D:\dev\XansSciFiMashup\raw\flags\xan_w4_tyranid.png"
   inkscape:export-xdpi="90"
   inkscape:export-ydpi="90">
  <defs
     id="defs4" />
  <sodipodi:namedview
     id="base"
     pagecolor="#9003a9"
     bordercolor="#666666"
     borderopacity="1.0"
     inkscape:pageopacity="0"
     inkscape:pageshadow="2"
     inkscape:zoom="2.8"
     inkscape:cx="-45.618448"
     inkscape:cy="92.749555"
     inkscape:document-units="px"
     inkscape:current-layer="layer1"
     showgrid="false"
     inkscape:window-width="1920"
     inkscape:window-height="1017"
     inkscape:window-x="1272"
     inkscape:window-y="-8"
     inkscape:window-maximized="1"
     units="px"
     showguides="false" />
  <metadata
     id="metadata7">
    <rdf:RDF>
      <cc:Work
         rdf:about="">
        <dc:format>image/svg+xml</dc:format>
        <dc:type
           rdf:resource="http://purl.org/dc/dcmitype/StillImage" />
        <dc:title />
      </cc:Work>
    </rdf:RDF>
  </metadata>
  <g
     inkscape:label="Ebene 1"
     inkscape:groupmode="layer"
     id="layer1"
     transform="translate(0,-924.3622)">
    <path
       style="fill:#000000"
       d="m 59.062471,1038.8774 c -1.84637,-0.9411 -2.00605,-1.155 -1.89507,-2.5389 0.15571,-1.9419 -0.53742,-2.7453 -2.3684,-2.7453 -1.7138,0 -2.21853,0.8461 -1.293,2.1675 0.58576,0.8363 0.55885,0.9743 -0.27724,1.4218 -1.22947,0.6579 -5.09083,-0.461 -6.93592,-2.0099 -1.22119,-1.0252 -1.27243,-1.1716 -0.56007,-1.6002 1.20351,-0.7241 0.97103,-2.1706 -0.43474,-2.7051 -0.99614,-0.3787 -1.32399,-0.3196 -1.79433,0.3237 -0.31652,0.4328 -0.46015,1.1504 -0.31917,1.5946 0.81993,2.5834 -6.15176,-1.3964 -12.58992,-7.1869 -3.19399,-2.8727 -6.20541,-6.5607 -9.38711,-11.496 -1.63484,-2.5359 -4.27003,-9.3665 -4.2475,-11.0099 l 0.0149,-1.0876 0.88689,1.0648 c 0.48779,0.5856 1.00712,1.5438 1.15408,2.1293 0.39429,1.571 6.36367,7.1544 11.0693,10.3536 2.26056,1.5368 5.82394,3.5159 7.9186,4.3979 7.20789,3.0351 17.68127,5.1636 20.94595,4.257 0.92452,-0.2568 2.31367,-0.468 3.08701,-0.4694 0.77333,-10e-4 3.19284,-0.5176 5.37668,-1.1473 4.81363,-1.3879 9.82094,-4.4895 14.06552,-8.7124 3.58911,-3.5708 5.24322,-5.9432 7.18526,-10.3053 1.34828,-3.0285 1.51416,-3.86358 1.6792,-8.45378 0.16963,-4.71752 0.0945,-5.31259 -1.01853,-8.06503 -2.53126,-6.2598 -7.80934,-11.66811 -13.63247,-13.96883 -2.79039,-1.10248 -9.90907,-1.79381 -9.90907,-0.96231 0,0.26098 1.23177,1.44225 2.73727,2.62503 l 2.73726,2.15053 -2.17719,0.87551 c -3.53258,1.42056 -9.48637,4.62343 -11.27224,6.06398 -0.91208,0.73571 -2.9689,2.36819 -4.5707,3.62773 l -2.91237,2.29007 -6.2728,-0.16796 c -5.02554,-0.13456 -6.60689,-0.33647 -7.95302,-1.01545 -0.92412,-0.46612 -1.68021,-0.9643 -1.68021,-1.10706 0,-0.14277 1.25824,-0.32193 2.79609,-0.39814 1.53785,-0.0762 2.8845,-0.22698 2.99256,-0.33504 0.10805,-0.10806 -0.24287,-0.7907 -0.77984,-1.51699 -0.53696,-0.72628 -0.9763,-1.37909 -0.9763,-1.45068 0,-0.0716 1.30049,-0.13015 2.88997,-0.13015 3.4647,0 4.23753,-0.53106 3.1619,-2.17268 -0.97752,-1.49189 -0.50552,-2.32967 0.7981,-1.41658 0.97983,0.68629 4.80199,0.9579 4.79657,0.34085 -10e-4,-0.18483 -0.40355,-0.94092 -0.89317,-1.68022 -0.48961,-0.73929 -0.892,-1.44499 -0.8942,-1.5682 -0.002,-0.12322 1.47183,-0.15898 3.27561,-0.0795 3.68355,0.16235 4.50282,-0.31512 4.43824,-2.58661 -0.12309,-4.3293 -6.20738,-8.9834 -11.74396,-8.9834 -1.97984,0 -3.39795,0.92367 -3.00206,1.95534 0.26344,0.68651 0.90152,1.05694 3.22177,1.87037 0.81397,0.28536 0.7729,0.36795 -0.44805,0.901 -0.73929,0.32276 -2.90677,0.72789 -4.81662,0.90029 -1.90984,0.1724 -3.47244,0.50527 -3.47244,0.7397 0,0.23444 0.8065,0.74305 1.79223,1.13026 0.98572,0.3872 1.79223,0.86778 1.79223,1.06794 0,0.8096 -3.49511,2.66201 -5.92444,3.13995 -2.76369,0.54372 -3.28652,1.09658 -1.46851,1.55288 0.61608,0.15462 1.12015,0.47018 1.12015,0.70123 0,0.75442 -4.55808,2.58126 -5.8138,2.33011 -0.73948,-0.14789 -1.38617,0.0106 -1.7291,0.42382 -0.44985,0.54204 -0.29899,0.86944 0.84357,1.83085 0.76527,0.64393 1.67836,1.17078 2.0291,1.17078 0.35074,0 0.63771,0.19249 0.63771,0.42775 0,0.6674 -2.27816,0.87786 -10.9774,1.01412 l -8.06503,0.12633 0.11577,-2.19939 c 0.38077,-7.23357 7.80311,-21.70579 14.76365,-28.78641 3.26381,-3.32012 12.0142,-9.70757 16.03653,-11.70606 10.75155,-5.34189 15.58264,-6.68847 25.55876,-7.12403 5.17818,-0.22609 8.51528,0.49541 16.22257,3.50739 4.57184,1.78666 5.73189,2.85694 3.67853,3.39391 -1.31018,0.34262 -2.25705,2.39392 -1.83444,3.97412 0.4762,1.7806 2.86798,3.16541 4.3225,2.50268 0.58682,-0.26737 1.39317,-0.98401 1.79189,-1.59253 0.66625,-1.01683 0.66669,-1.21905 0.005,-2.49787 -0.76489,-1.47915 -0.6001,-2.26127 0.47644,-2.26127 1.96108,0 10.642939,5.61797 12.086459,7.82106 0.97344,1.48566 0.54891,2.48425 -1.05612,2.48425 -1.42254,0 -3.228559,1.60193 -3.228559,2.8637 0,1.15946 2.444629,3.4091 3.704569,3.4091 1.45695,0 2.56823,-1.32392 2.56823,-3.05966 0,-1.98478 0.86857,-1.81305 3.10579,0.61404 2.44216,2.64943 4.95924,7.88298 4.95924,10.31132 0,2.27981 -0.17682,2.46416 -1.78227,1.85817 -1.63055,-0.61546 -2.56293,0.0763 -2.96071,2.19665 -0.19935,1.0626 -0.0591,1.87169 0.46256,2.66779 0.63685,0.97195 1.02921,1.12226 2.62657,1.00615 1.6755,-0.12177 1.89316,-0.26927 2.01965,-1.36864 0.078,-0.67769 0.29486,-1.23216 0.48197,-1.23216 1.85058,0 4.31529,7.92926 3.80754,12.24936 -0.37484,3.18929 -1.01663,3.80102 -2.42028,2.3069 -0.57589,-0.613 -1.40374,-1.11454 -1.83967,-1.11454 -2.04719,0 -2.99365,4.50832 -1.27331,6.06521 0.84389,0.76371 1.00772,0.77362 2.12826,0.12883 1.9018,-1.09435 2.33415,-0.63163 2.33415,2.49812 0,4.26205 -0.80504,7.8197 -2.15124,9.5068 -1.18319,1.4829 -1.18552,1.4835 -2.12183,0.6039 -1.28968,-1.2116 -2.73291,-1.1026 -4.03739,0.305 -1.1905,1.2846 -1.37115,2.3969 -0.61785,3.8044 0.37735,0.7051 0.85857,0.8713 2.23512,0.7719 0.96484,-0.07 1.94255,0.067 2.17271,0.3041 0.61309,0.6312 -0.50751,3.5013 -2.49225,6.383 -2.34998,3.4121 -4.06527,5.0253 -5.34331,5.0253 -0.98803,0 -1.08568,-0.1814 -1.08568,-2.0163 0,-2.0017 -0.0112,-2.0163 -1.55261,-2.0163 -1.79755,0 -4.720189,2.2447 -4.720189,3.6253 0,0.4993 0.74169,1.3123 1.81589,1.9904 1.877139,1.185 2.043589,2.0716 0.7056,3.7584 -0.7219,0.9101 -6.01346,4.2799 -8.06491,5.1359 -3.31495,1.3833 -3.92653,1.08 -4.41208,-2.1884 -0.19404,-1.3061 -2.52553,-1.4283 -4.07015,-0.2133 -1.49821,1.1785 -1.51531,1.7849 -0.0881,3.1257 1.7146,1.6108 1.44939,2.5931 -0.99159,3.6728 -1.47782,0.6537 -3.12543,0.9488 -5.4887,0.983 l -3.37697,0.049 0,-1.7437 c 0,-1.3273 -0.214,-1.828 -0.89612,-2.0968 -1.4568,-0.574 -2.30213,-0.467 -3.41226,0.4319 -0.94342,0.7639 -0.98836,0.958 -0.4535,1.9574 0.32655,0.6101 0.52076,1.4887 0.43157,1.9523 -0.14107,0.7334 -0.65651,0.8601 -3.96469,0.9746 -3.24227,0.1121 -4.09963,-0.02 -5.8188,-0.8962 z m -31.99352,-74.79538 c 0.46945,-0.52714 2.76899,-2.57287 5.11009,-4.54608 2.3411,-1.97321 4.50527,-3.9404 4.80928,-4.37152 0.47747,-0.67712 0.39474,-0.82353 -0.60751,-1.07508 -1.50162,-0.37688 -2.21651,0.11544 -7.24834,4.99163 -2.7295,2.64506 -4.12235,4.32674 -4.12235,4.97716 0,1.24931 0.95762,1.26043 2.05883,0.0239 z"
       id="path4151"
       inkscape:connector-curvature="0" />
  </g>
</svg>
