<?xml version="1.0" encoding="UTF-8" standalone="no"?>
<!-- Created with Inkscape (http://www.inkscape.org/) -->

<svg
   xmlns:dc="http://purl.org/dc/elements/1.1/"
   xmlns:cc="http://creativecommons.org/ns#"
   xmlns:rdf="http://www.w3.org/1999/02/22-rdf-syntax-ns#"
   xmlns:svg="http://www.w3.org/2000/svg"
   xmlns="http://www.w3.org/2000/svg"
   xmlns:sodipodi="http://sodipodi.sourceforge.net/DTD/sodipodi-0.dtd"
   xmlns:inkscape="http://www.inkscape.org/namespaces/inkscape"
   width="128"
   height="128"
   viewBox="0 0 128 128"
   id="svg2"
   version="1.1"
   inkscape:version="0.91 r13725"
   sodipodi:docname="xan_w4_tau.svg"
   inkscape:export-filename="D:\dev\XansSciFiMashup\raw\flags\xan_w4_tau.png"
   inkscape:export-xdpi="90"
   inkscape:export-ydpi="90">
  <defs
     id="defs4" />
  <sodipodi:namedview
     id="base"
     pagecolor="#ff9a00"
     bordercolor="#666666"
     borderopacity="1.0"
     inkscape:pageopacity="0"
     inkscape:pageshadow="2"
     inkscape:zoom="1.8728585"
     inkscape:cx="31.915716"
     inkscape:cy="76.455098"
     inkscape:document-units="px"
     inkscape:current-layer="layer1"
     showgrid="false"
     inkscape:window-width="1920"
     inkscape:window-height="1017"
     inkscape:window-x="1272"
     inkscape:window-y="-8"
     inkscape:window-maximized="1"
     units="px"
     showguides="false" />
  <metadata
     id="metadata7">
    <rdf:RDF>
      <cc:Work
         rdf:about="">
        <dc:format>image/svg+xml</dc:format>
        <dc:type
           rdf:resource="http://purl.org/dc/dcmitype/StillImage" />
        <dc:title></dc:title>
      </cc:Work>
    </rdf:RDF>
  </metadata>
  <g
     inkscape:label="Ebene 1"
     inkscape:groupmode="layer"
     id="layer1"
     transform="translate(0,-924.3622)">
    <path
       style="fill:#000000"
       d=""
       id="path4147"
       inkscape:connector-curvature="0" />
    <path
       style="fill:#000000"
       d=""
       id="path4145"
       inkscape:connector-curvature="0" />
    <path
       style="fill:#000000"
       d="m 50.554315,1040.9499 c -18.357688,-4.8043 -33.331985,-19.5637 -38.965446,-38.4064 -2.2567625,-7.54826 -2.0862815,-21.17026 0.363609,-29.05296 2.860646,-9.20428 7.003413,-16.00978 13.98046,-22.96619 6.967547,-6.94698 13.81919,-11.11588 22.984589,-13.98503 7.873661,-2.46474 21.47999,-2.64152 29.052972,-0.37738 23.766771,7.10562 40.011251,28.23215 40.029471,52.0597 0.007,9.528 -1.60339,16.04656 -6.26848,25.36896 -6.54285,13.0748 -19.991624,23.7475 -34.546727,27.4157 -6.163787,1.5534 -20.595954,1.5229 -26.630448,-0.056 z m 30.478246,-3.0163 c 15.851092,-5.8523 27.842009,-18.2034 32.768909,-33.7533 2.63278,-8.30926 2.60073,-23.87306 -0.0651,-31.61066 -4.9855,-14.47056 -14.338384,-24.85879 -28.388651,-31.53125 -15.768027,-7.48824 -33.657528,-6.26176 -49.105551,3.36661 -12.040854,7.50473 -20.709082,19.9322 -23.426869,33.58674 -1.059813,5.3246 -1.025303,15.994 0.07014,21.6874 1.775979,9.23046 9.474633,22.27596 16.583743,28.10126 7.30997,5.99 17.011501,10.7318 25.177112,12.3057 1.125291,0.2169 6.281171,0.2796 11.45751,0.1395 7.571109,-0.2051 10.490417,-0.6533 14.928768,-2.292 z m -30.258903,-4.6944 c -14.868503,-4.3896 -27.376444,-17.1174 -31.773914,-32.3325 -2.035993,-7.04436 -1.82964,-18.79176 0.460016,-26.18856 3.295428,-10.64584 12.250342,-21.61598 21.912591,-26.84381 l 4.236248,-2.29203 -2.106041,4.0593 c -4.346973,8.37858 -2.18244,20.49159 4.786888,26.78794 3.393021,3.0654 8.988777,6.0143 11.471797,6.0454 1.333778,0.017 1.432188,1.8175 1.432188,26.20656 l 0,26.1886 -2.659779,-0.063 c -1.462875,-0.035 -4.954875,-0.7402 -7.759994,-1.5683 z m 16.148528,-24.4606 0,-26.09136 3.519492,-0.8862 c 13.398124,-3.3737 20.673092,-20.76203 13.659702,-32.64884 -0.896344,-1.5192 -1.629716,-2.94824 -1.629716,-3.17563 0,-1.37837 9.422643,5.03613 13.968957,9.50934 22.408119,22.04803 17.446099,58.07019 -10.197001,74.02589 -4.015065,2.3175 -13.635406,5.3583 -16.95246,5.3583 l -2.368974,0 0,-26.0915 z M 56.411525,976.19724 c -6.589679,-3.2469 -10.135824,-8.91605 -10.205434,-16.31531 -0.04026,-4.27706 0.344485,-5.73812 2.37634,-9.02459 3.567856,-5.77085 8.68205,-8.67032 15.293151,-8.67032 7.580249,0 13.241313,3.57736 16.487946,10.41913 1.795287,3.78334 1.813069,10.94114 0.03647,14.68499 -1.556093,3.27921 -6.823182,8.3431 -9.891117,9.5095 -3.226461,1.2267 -11.063909,0.8912 -14.097373,-0.6034 z"
       id="path4148"
       inkscape:connector-curvature="0" />
  </g>
</svg>
