<?xml version="1.0" encoding="UTF-8" standalone="no"?>
<svg
   xmlns:dc="http://purl.org/dc/elements/1.1/"
   xmlns:cc="http://creativecommons.org/ns#"
   xmlns:rdf="http://www.w3.org/1999/02/22-rdf-syntax-ns#"
   xmlns:svg="http://www.w3.org/2000/svg"
   xmlns="http://www.w3.org/2000/svg"
   xmlns:xlink="http://www.w3.org/1999/xlink"
   xmlns:sodipodi="http://sodipodi.sourceforge.net/DTD/sodipodi-0.dtd"
   xmlns:inkscape="http://www.inkscape.org/namespaces/inkscape"
   version="1.0"
   width="128"
   height="128"
   id="svg8378"
   inkscape:version="0.91 r13725"
   sodipodi:docname="xan_sw_newRepublic.svg"
   inkscape:export-filename="D:\dev\XansSciFiMashup\raw\flags\xan_sw_newRepublic.png"
   inkscape:export-xdpi="90"
   inkscape:export-ydpi="90">
  <metadata
     id="metadata21">
    <rdf:RDF>
      <cc:Work
         rdf:about="">
        <dc:format>image/svg+xml</dc:format>
        <dc:type
           rdf:resource="http://purl.org/dc/dcmitype/StillImage" />
        <dc:title></dc:title>
      </cc:Work>
    </rdf:RDF>
  </metadata>
  <sodipodi:namedview
     pagecolor="#ff0000"
     bordercolor="#666666"
     borderopacity="1"
     objecttolerance="10"
     gridtolerance="10"
     guidetolerance="10"
     inkscape:pageopacity="0"
     inkscape:pageshadow="2"
     inkscape:window-width="1920"
     inkscape:window-height="1017"
     id="namedview19"
     showgrid="false"
     fit-margin-top="20"
     fit-margin-left="20"
     fit-margin-right="20"
     fit-margin-bottom="20"
     inkscape:zoom="4.1760383"
     inkscape:cx="87.038773"
     inkscape:cy="40.908769"
     inkscape:window-x="1272"
     inkscape:window-y="-8"
     inkscape:window-maximized="1"
     inkscape:current-layer="svg8378" />
  <defs
     id="defs8380">
    <linearGradient
       id="linearGradient10756">
      <stop
         style="stop-color:#bc573d;stop-opacity:1"
         offset="0"
         id="stop10758" />
      <stop
         style="stop-color:#edb845;stop-opacity:1"
         offset="0.5"
         id="stop10772" />
      <stop
         style="stop-color:#bc573d;stop-opacity:1"
         offset="1"
         id="stop10760" />
    </linearGradient>
    <linearGradient
       id="linearGradient3232">
      <stop
         style="stop-color:#bc573d;stop-opacity:1"
         offset="0"
         id="stop3234" />
      <stop
         style="stop-color:#edb845;stop-opacity:1"
         offset="0.5"
         id="stop3236" />
      <stop
         style="stop-color:#bc573d;stop-opacity:1"
         offset="1"
         id="stop3238" />
    </linearGradient>
  </defs>
  <g
     transform="translate(1690.1241,-1993.3688)"
     style="display:none"
     id="layer1">
    <image
       xlink:href="D:\Active Documents\My Pictures\SWLogos\nr2.png"
       x="101.46429"
       y="217.97646"
       width="553.07141"
       height="545.45715"
       id="image8558" />
  </g>
  <g
     id="g4145"
     transform="matrix(0.23478261,0,0,0.23478261,5.3043429,117.06086)">
    <path
       inkscape:connector-curvature="0"
       id="path2383"
       style="fill:none;stroke:#ffffff;stroke-width:18.01597786;stroke-miterlimit:4;stroke-dasharray:none;stroke-dashoffset:1.79999995;stroke-opacity:1"
       d="m 250.00002,-446.99198 c 121.99655,9e-5 220.99201,98.99538 220.99201,220.99202 0,121.99664 -98.99537,220.99201 -220.99201,220.99201 -121.99655,0 -220.992011,-98.99537 -220.992011,-220.99201 0,-121.99664 98.995551,-220.99202 220.992011,-220.99202 z" />
    <path
       inkscape:connector-curvature="0"
       id="path2371"
       style="fill:#ffffff;fill-opacity:1;stroke:none"
       d="m 250.00002,-377.2251 -27.32204,29.75789 c 9.58513,13.47397 13.18463,29.66773 13.18463,37.80617 -8.1416,-14.07651 -17.08635,-18.11182 -25.89266,-23.93341 l -17.63223,19.16801 c 23.95143,8.14718 38.60032,35.89675 38.60032,64.65205 0,13.89816 -4.87288,46.97477 -38.60032,45.53683 l 0,-0.10585 c -24.87772,-2.88652 -48.25103,-31.22529 -50.35538,-62.16323 -2.09814,-30.84597 11.25629,-60.85797 33.25245,-85.77912 l -0.10593,0 c -40.2223,23.46185 -68.09482,65.25441 -71.80016,113.94845 -0.0906,1.19338 -0.20322,2.39955 -0.26502,3.60058 0,0.0252 0,0.0811 0,0.10585 -0.0613,1.21662 -0.12737,2.42946 -0.15872,3.65355 -0.0324,1.24671 0,2.50521 0,3.75966 0,79.62865 65.87912,144.23575 147.09506,144.23575 81.2163,0 147.14839,-64.6071 147.14839,-144.23575 0,-3.73273 -0.13918,-7.45807 -0.42365,-11.11964 -3.70534,-48.69404 -31.63065,-90.4866 -71.85321,-113.94845 l -0.0531,0 c 21.99625,24.92115 35.29799,54.93315 33.19985,85.77912 -2.10445,30.93794 -25.42487,59.27671 -50.30277,62.16323 l 0,0.10585 c -33.72736,1.43794 -38.65329,-31.6384 -38.65329,-45.53683 0,-28.7553 14.70203,-56.50487 38.65329,-64.65205 l -17.63216,-19.16801 c -8.80621,5.82159 -17.75114,9.8569 -25.89256,23.93341 0,-8.13844 3.59914,-24.3322 13.18454,-37.80617 l -27.3754,-29.75789 z" />
    <path
       inkscape:connector-curvature="0"
       id="path2386"
       style="fill:#ffffff;fill-opacity:1;stroke:none"
       d="m 246.84722,-430.11533 -4.6447,4.89809 -6.44638,-1.91419 -1.5764,6.53079 -6.5308,1.5764 1.9142,6.4463 -4.8699,4.64479 4.8699,4.61659 -1.9142,6.4463 6.5308,1.5764 1.5764,6.53079 6.44638,-1.886 4.6447,4.86989 4.6448,-4.86989 6.44629,1.886 1.5764,-6.53079 6.5308,-1.5764 -1.9142,-6.4463 4.86999,-4.61659 -4.86999,-4.64479 1.9142,-6.4463 -6.5308,-1.5764 -1.5764,-6.53079 -6.44629,1.91419 -4.6448,-4.89809 z m 66.96882,12.83639 -3.941,5.4329 -6.64339,-1.04151 -0.7319,6.69969 -6.24929,2.4209 2.7305,6.13669 -4.2506,5.2359 5.4329,3.94099 -1.0415,6.64339 6.69969,0.70371 2.4209,6.27748 6.13669,-2.73059 5.2359,4.2225 3.94099,-5.4329 6.64339,1.04151 0.7037,-6.6715 6.27749,-2.4209 -2.73059,-6.13669 4.2225,-5.2359 -5.4329,-3.96919 1.0415,-6.61519 -6.6715,-0.7319 -2.42089,-6.2493 -6.13669,2.7024 -5.2359,-4.22249 z m -133.45904,2.42089 -5.23589,4.2225 -6.1367,-2.73059 -2.42089,6.27748 -6.6715,0.70371 1.0415,6.64339 -5.4329,3.96919 4.22251,5.23589 -2.7306,6.1367 6.27749,2.4209 0.70371,6.67149 6.64338,-1.0415 3.941,5.4329 5.23589,-4.2225 6.1367,2.73059 2.42089,-6.27748 6.6997,-0.70371 -1.04151,-6.64339 5.4329,-3.96919 -4.2225,-5.2077 2.70241,-6.16489 -6.2493,-2.4209 -0.7319,-6.67149 -6.64339,1.0415 -3.941,-5.4329 z m 190.32197,36.56676 -3.20909,5.9115 -6.72789,-0.1689 0.1689,6.72788 -5.8833,3.2091 3.4906,5.74259 -3.4906,5.7144 5.8833,3.2091 -0.1689,6.72788 6.72789,-0.16889 3.20909,5.91149 5.7426,-3.51879 5.74259,3.51879 3.20919,-5.91149 6.7277,0.16889 -0.1689,-6.72788 5.88348,-3.2091 -3.4906,-5.7144 3.4906,-5.74259 -5.88348,-3.2091 0.1689,-6.72788 -6.7277,0.1689 -3.20919,-5.9115 -5.74259,3.5188 -5.7426,-3.5188 z m -257.29069,4.4759 -3.2091,5.88329 -6.72789,-0.1689 0.1689,6.72789 -5.911491,3.20909 3.518791,5.7426 -3.518791,5.74259 5.911491,3.2091 -0.1689,6.72779 6.72789,-0.16889 3.2091,5.88338 5.74259,-3.49059 5.7144,3.49059 3.20909,-5.88338 6.72789,0.16889 -0.1689,-6.72779 5.91149,-3.2091 -3.51878,-5.74259 3.51878,-5.7426 -5.91149,-3.20909 0.1689,-6.72789 -6.72789,0.1689 -3.20909,-5.88329 -5.7144,3.49059 -5.74259,-3.49059 z m 306.38432,53.31603 -5.23589,4.22249 -6.13669,-2.73059 -2.4209,6.27749 -6.67167,0.7037 1.04168,6.6434 -5.43308,3.941 4.22249,5.23589 -2.7304,6.13669 6.2773,2.4209 0.70389,6.69969 6.64339,-1.04151 3.96901,5.4329 5.20788,-4.22249 6.1647,2.7024 2.4209,-6.2493 6.67168,-0.7319 -1.04169,-6.64339 5.43308,-3.94099 -4.22249,-5.2359 2.73041,-6.13669 -6.27731,-2.4209 -0.70388,-6.67149 -6.6434,1.0415 -3.96901,-5.4329 z m -341.965881,5.827 -3.969191,5.43299 -6.615197,-1.0416 -0.731899,6.67159 -6.249293,2.4209 2.702398,6.13669 -4.222495,5.2359 5.432898,3.94099 -1.041504,6.64339 6.699692,0.7319 2.420897,6.24929 6.136693,-2.73059 5.235894,4.25069 3.940996,-5.43299 6.643392,1.0416 0.703704,-6.69969 6.277486,-2.4209 -2.730592,-6.1367 4.222492,-5.23589 -5.43289,-3.94099 1.041501,-6.6434 -6.671498,-0.70379 -2.420897,-6.2774 -6.136694,2.73051 -5.235893,-4.2225 z m 354.126671,63.36562 -4.61659,4.8699 -6.44648,-1.9142 -1.5764,6.5308 -6.53079,1.57639 1.88618,6.44639 -4.87008,4.6447 4.87008,4.64479 -1.88618,6.4463 6.53079,1.57639 1.5764,6.53079 6.44648,-1.91419 4.61659,4.86998 4.64461,-4.86998 6.44648,1.91419 1.57639,-6.53079 6.5308,-1.57639 -1.9142,-6.4463 4.8981,-4.64479 -4.8981,-4.6447 1.9142,-6.44639 -6.5308,-1.57639 -1.57639,-6.5308 -6.44648,1.9142 -4.64461,-4.8699 z m -363.866559,6.3056 -4.64479,4.86989 -6.446298,-1.9142 -1.576397,6.53079 -6.530793,1.57641 1.914198,6.44638 -4.898095,4.6447 4.898095,4.64479 -1.914198,6.4463 6.530793,1.5764 1.576397,6.53079 6.446298,-1.9142 4.64479,4.86999 4.616594,-4.86999 6.446297,1.9142 1.576399,-6.53079 6.530792,-1.5764 -1.886003,-6.4463 4.869899,-4.64479 -4.869899,-4.6447 1.886003,-6.44638 -6.530792,-1.57641 -1.576399,-6.53079 -6.446297,1.9142 -4.616594,-4.86989 z m 348.327779,63.73152 -3.941,5.4329 -6.64339,-1.0415 -0.70388,6.69968 -6.27731,2.4209 2.73041,6.1367 -4.22249,5.23588 5.43308,3.941 -1.04169,6.6434 6.67168,0.7037 2.4209,6.27749 6.13669,-2.73059 5.23589,4.22249 3.96901,-5.4329 6.61538,1.0415 0.7319,-6.67149 6.24929,-2.4209 -2.7024,-6.13669 4.2225,-5.2359 -5.43308,-3.94099 1.04169,-6.64339 -6.6997,-0.7319 -2.42089,-6.24929 -6.1367,2.7305 -5.23589,-4.2506 z m -330.396296,5.82699 -5.207699,4.2225 -6.164887,-2.7024 -2.420898,6.2493 -6.671497,0.7319 1.041504,6.64338 -5.432899,3.941 4.222495,5.2359 -2.730591,6.13669 6.277487,2.42089 0.703704,6.67159 6.643393,-1.04159 3.96919,5.43299 5.235894,-4.22249 6.136693,2.73049 2.420897,-6.27739 6.6715,-0.7038 -1.041505,-6.64338 5.432895,-3.941 -4.2225,-5.2359 2.7306,-6.13669 -6.277488,-2.42089 -0.703706,-6.6997 -6.643391,1.0416 -3.969191,-5.433 z m 289.156456,54.47024 -3.2091,5.88329 -6.72779,-0.16889 0.1689,6.72788 -5.91149,3.2091 3.5187,5.74259 -3.5187,5.7426 5.91149,3.20909 -0.1689,6.72779 6.72779,-0.16889 3.2091,5.88338 5.71449,-3.49059 5.74269,3.49059 3.20909,-5.88338 6.72771,0.16889 -0.1689,-6.72779 5.91149,-3.20909 -3.51861,-5.7426 3.51861,-5.74259 -5.91149,-3.2091 0.1689,-6.72788 -6.72771,0.16889 -3.20909,-5.88329 -5.74269,3.49059 -5.71449,-3.49059 z m -257.3188,4.44769 -3.20909,5.91149 -6.72789,-0.16889 0.16889,6.72779 -5.88329,3.2091 3.4906,5.71448 -3.4906,5.7426 5.88329,3.2091 -0.16889,6.72779 6.72789,-0.1689 3.20909,5.91149 5.74259,-3.5187 5.7426,3.5187 3.2091,-5.91149 6.72779,0.1689 -0.1689,-6.72779 5.88339,-3.2091 -3.4906,-5.7426 3.4906,-5.71448 -5.88339,-3.2091 0.1689,-6.72779 -6.72779,0.16889 -3.2091,-5.91149 -5.7426,3.5187 -5.74259,-3.5187 z m 207.60596,35.44077 -5.23589,4.22249 -6.13669,-2.7305 -2.4209,6.2774 -6.69969,0.70379 1.04159,6.64339 -5.43299,3.9691 4.22249,5.20779 -2.70239,6.1648 6.24929,2.4209 0.7319,6.67158 6.6434,-1.04159 3.94099,5.43299 5.23589,-4.2225 6.13669,2.73051 2.4209,-6.2774 6.67159,-0.70379 -1.0416,-6.6434 5.43299,-3.9691 -4.22249,-5.23589 2.7305,-6.13669 -6.2774,-2.42091 -0.70379,-6.67158 -6.64339,1.0416 -3.941,-5.43299 z m -145.05673,2.42089 -3.941,5.43299 -6.64339,-1.04159 -0.7038,6.67159 -6.27739,2.42089 2.7305,6.13669 -4.22249,5.2359 5.43298,3.96909 -1.04159,6.6153 6.67159,0.73189 2.42089,6.2493 6.13669,-2.7024 5.2359,4.2225 3.941,-5.43299 6.64339,1.04159 0.73189,-6.69969 6.2493,-2.4209 -2.73059,-6.13669 4.25069,-5.2359 -5.43299,-3.94099 1.0416,-6.64339 -6.6997,-0.7038 -2.42089,-6.27739 -6.1367,2.73049 -5.23589,-4.22249 z m 72.76762,12.44229 -4.6447,4.86999 -6.44639,-1.88609 -1.5764,6.53078 -6.53079,1.5764 1.9142,6.44639 -4.8699,4.6166 4.8699,4.64469 -1.9142,6.44639 6.53079,1.5764 1.5764,6.53079 6.44639,-1.91419 4.6447,4.89809 4.64479,-4.89809 6.4463,1.91419 1.57639,-6.53079 6.53079,-1.5764 -1.91419,-6.44639 4.86998,-4.64469 -4.86998,-4.6166 1.91419,-6.44639 -6.53079,-1.5764 -1.57639,-6.53078 -6.4463,1.88609 -4.64479,-4.86999 z" />
  </g>
</svg>
