<?xml version="1.0" encoding="UTF-8" standalone="no"?>
<!-- Created with Inkscape (http://www.inkscape.org/) -->

<svg
   xmlns:dc="http://purl.org/dc/elements/1.1/"
   xmlns:cc="http://creativecommons.org/ns#"
   xmlns:rdf="http://www.w3.org/1999/02/22-rdf-syntax-ns#"
   xmlns:svg="http://www.w3.org/2000/svg"
   xmlns="http://www.w3.org/2000/svg"
   xmlns:sodipodi="http://sodipodi.sourceforge.net/DTD/sodipodi-0.dtd"
   xmlns:inkscape="http://www.inkscape.org/namespaces/inkscape"
   width="128"
   height="128"
   viewBox="0 0 128.00001 128"
   id="svg2"
   version="1.1"
   inkscape:version="0.91 r13725"
   sodipodi:docname="xan_sw_empire.svg"
   inkscape:export-filename="D:\dev\XansSciFiMashup\raw\flags\xan_sw_empire.png"
   inkscape:export-xdpi="90"
   inkscape:export-ydpi="90">
  <defs
     id="defs4" />
  <sodipodi:namedview
     id="base"
     pagecolor="#00038b"
     bordercolor="#666666"
     borderopacity="1.0"
     inkscape:pageopacity="0"
     inkscape:pageshadow="2"
     inkscape:zoom="5.7288743"
     inkscape:cx="71.831348"
     inkscape:cy="62.651576"
     inkscape:document-units="px"
     inkscape:current-layer="layer1"
     showgrid="false"
     fit-margin-top="20"
     fit-margin-left="20"
     fit-margin-right="20"
     fit-margin-bottom="20"
     inkscape:window-width="1920"
     inkscape:window-height="1017"
     inkscape:window-x="1272"
     inkscape:window-y="-8"
     inkscape:window-maximized="1" />
  <metadata
     id="metadata7">
    <rdf:RDF>
      <cc:Work
         rdf:about="">
        <dc:format>image/svg+xml</dc:format>
        <dc:type
           rdf:resource="http://purl.org/dc/dcmitype/StillImage" />
        <dc:title></dc:title>
      </cc:Work>
    </rdf:RDF>
  </metadata>
  <g
     inkscape:label="Ebene 1"
     inkscape:groupmode="layer"
     id="layer1"
     transform="translate(218.57143,-848.64795)">
    <path
       inkscape:connector-curvature="0"
       d="m -154.57142,858.64791 c -29.80801,0 -54.00001,24.19206 -54.00001,54.00006 0,29.80801 24.192,54.00001 54.00001,54.00001 29.808,0 54.00001,-24.192 54.00001,-54.00001 0,-29.808 -24.19201,-54.00006 -54.00001,-54.00006 z m -2.54851,4.47709 c 0.0295,-0.002 0.0614,10e-4 0.0918,0 l 0.22975,3.66199 c -3.11462,0.14825 -6.14604,0.60269 -9.06886,1.34308 l 0.90686,3.57018 c -7.67193,1.94327 -14.50539,5.98345 -19.85969,11.47957 l -2.62881,-2.57143 c -2.13811,2.19348 -4.04961,4.60291 -5.71684,7.18623 l -3.07653,-2.03188 c 8.40255,-12.9919 22.71516,-21.8052 39.12242,-22.63774 z m 5.00512,0 c 16.44545,0.80446 30.79615,9.62177 39.21431,22.63774 l -3.07652,2.03188 c -1.6635,-2.57678 -3.57328,-4.98582 -5.7054,-7.17473 l -2.62882,2.55994 c -5.35513,-5.49906 -12.19654,-9.53561 -19.87117,-11.47957 l 0.90691,-3.57018 c -2.92288,-0.7404 -5.95429,-1.19458 -9.06891,-1.34308 l 0.22974,-3.66199 z m -2.45661,16.18621 c 1.56119,-0.004 3.12243,0.0918 4.40817,0.2754 l -2.00895,16.71433 c 4.2227,0.61575 7.92499,2.82577 10.48086,6.00382 l 13.40816,-10.05613 c 1.62868,2.02893 3.47504,5.21184 4.44263,7.62245 l -15.40562,6.58927 c 0.77431,1.91313 1.20533,3.99782 1.20533,6.18752 0,2.10954 -0.39224,4.12536 -1.11348,5.98085 l 15.2793,6.53189 c -0.94274,2.42494 -2.76985,5.60215 -4.3737,7.64542 l -13.31636,-9.96428 c -2.55243,3.25065 -6.29713,5.52057 -10.57271,6.15305 l 1.97454,16.43879 c -2.57143,0.39616 -6.24491,0.39027 -8.81634,0.0245 l 1.97449,-16.46175 c -4.27862,-0.63293 -8.02013,-2.91016 -10.57271,-6.16455 l -13.2819,9.96428 c -1.62864,-2.02893 -3.47504,-5.21184 -4.44262,-7.62244 l 15.31381,-6.55487 c -0.71889,-1.85274 -1.11353,-3.8636 -1.11353,-5.96936 0,-2.19348 0.42856,-4.28318 1.20533,-6.199 l -15.37115,-6.5663 c 0.94274,-2.42495 2.76985,-5.60221 4.3737,-7.64542 l 13.44262,10.06761 c 2.55587,-3.17805 6.25816,-5.38807 10.48086,-6.00382 l -2.0089,-16.69135 c 1.28569,-0.19784 2.84693,-0.29504 4.40817,-0.29848 z m -44.12758,10.69897 3.30613,1.63012 c -1.39443,2.7033 -2.53452,5.55743 -3.37501,8.54085 l 3.53573,0.99869 c -1.02792,3.64775 -1.58421,7.49304 -1.58421,11.46813 0,3.97892 0.55438,7.82868 1.58421,11.47957 l -3.53573,0.99875 c 0.8399,2.97854 1.9823,5.83019 3.37501,8.5293 l -3.30613,1.63012 c -3.49169,-6.78805 -5.46431,-14.48359 -5.46431,-22.63774 0,-8.15414 1.97262,-15.84974 5.46431,-22.63779 z m 88.25511,0 c 3.49169,6.78805 5.46431,14.48365 5.46431,22.63779 0,8.15415 -1.97262,15.84969 -5.46431,22.63774 l -3.30612,-1.63012 c 1.39329,-2.6999 2.5348,-5.54977 3.375,-8.5293 l -3.53568,-0.99875 c 1.02978,-3.65089 1.58416,-7.50065 1.58416,-11.47957 0,-3.97509 -0.55629,-7.82038 -1.58416,-11.46813 l 3.53568,-0.99869 c -0.84024,-2.98258 -1.98117,-5.8382 -3.375,-8.54085 l 3.30612,-1.63012 z m -82.72193,47.4911 c 1.66787,2.58326 3.57863,4.99264 5.71684,7.18622 l 2.62882,-2.57142 c 5.35429,5.49612 12.18775,9.53634 19.85968,11.47961 l -0.90686,3.57013 c 2.92283,0.74039 5.95424,1.19463 9.06886,1.34313 l -0.22974,3.66199 c -16.44541,-0.8045 -30.79616,-9.62177 -39.21427,-22.63779 l 3.07653,-2.03187 z m 77.20028,0 3.06504,2.03187 c -8.41816,13.01602 -22.76886,21.83329 -39.21431,22.63779 l -0.22975,-3.66198 c 3.11462,-0.14874 6.14604,-0.60275 9.06891,-1.34313 l -0.9069,-3.57013 c 7.67462,-1.94395 14.51603,-5.98055 19.87116,-11.47962 l 2.62882,2.55994 c 2.13482,-2.19161 4.05133,-4.59441 5.71689,-7.17473 z"
       style="display:inline;fill:#ffffff;fill-opacity:1;stroke:none"
       id="p1" />
  </g>
</svg>
