<?xml version="1.0" encoding="UTF-8" standalone="no"?>
<!-- Created with Inkscape (http://www.inkscape.org/) -->

<svg
   xmlns:dc="http://purl.org/dc/elements/1.1/"
   xmlns:cc="http://creativecommons.org/ns#"
   xmlns:rdf="http://www.w3.org/1999/02/22-rdf-syntax-ns#"
   xmlns:svg="http://www.w3.org/2000/svg"
   xmlns="http://www.w3.org/2000/svg"
   xmlns:sodipodi="http://sodipodi.sourceforge.net/DTD/sodipodi-0.dtd"
   xmlns:inkscape="http://www.inkscape.org/namespaces/inkscape"
   width="1000"
   height="1000"
   viewBox="0 0 1000 1000"
   id="svg2"
   version="1.1"
   inkscape:version="0.91 r13725"
   sodipodi:docname="picture.svg"
   inkscape:export-filename="D:\dev\XansSciFiMashup\src\picture.png"
   inkscape:export-xdpi="90"
   inkscape:export-ydpi="90">
  <defs
     id="defs4" />
  <sodipodi:namedview
     id="base"
     pagecolor="#000000"
     bordercolor="#666666"
     borderopacity="1.0"
     inkscape:pageopacity="1"
     inkscape:pageshadow="2"
     inkscape:zoom="0.49497475"
     inkscape:cx="59.370371"
     inkscape:cy="620.01144"
     inkscape:document-units="px"
     inkscape:current-layer="layer1"
     showgrid="false"
     units="px"
     inkscape:window-width="1920"
     inkscape:window-height="1017"
     inkscape:window-x="1272"
     inkscape:window-y="-8"
     inkscape:window-maximized="1" />
  <metadata
     id="metadata7">
    <rdf:RDF>
      <cc:Work
         rdf:about="">
        <dc:format>image/svg+xml</dc:format>
        <dc:type
           rdf:resource="http://purl.org/dc/dcmitype/StillImage" />
        <dc:title></dc:title>
      </cc:Work>
    </rdf:RDF>
  </metadata>
  <g
     inkscape:label="Ebene 1"
     inkscape:groupmode="layer"
     id="layer1"
     transform="translate(0,-52.362161)">
    <g
       id="g4099"
       transform="matrix(0.51666903,0,0,0.51666903,559.69543,146.54491)">
      <path
         id="path2997"
         d="m 358.25,20.71875 c -125.3175,0 -226.90625,101.62125 -226.90625,226.9375 0,125.3225 101.58875,226.90625 226.90625,226.90625 125.3175,0 226.90625,-101.58375 226.90625,-226.90625 C 585.15625,122.34 483.5675,20.71875 358.25,20.71875 Z m 0,4.46875 c 122.86125,0 222.46875,99.6075 222.46875,222.46875 0,122.8625 -99.6075,222.4375 -222.46875,222.4375 -122.86125,0 -222.4375,-99.575 -222.4375,-222.4375 C 135.8125,124.795 235.38875,25.1875 358.25,25.1875 Z"
         style="fill:#ffffff;fill-opacity:1;fill-rule:nonzero;stroke:none"
         inkscape:connector-curvature="0" />
      <path
         d="M 151.80125,56.035 C 173.57875,38.17875 198.40875,0 198.40875,0 c 0,0 -7.955,0.44 -18.56,6.275 C 166.645,13.535 150.215,26.50875 150.215,26.50875 L 151.82125,10.445 c 0,0 -13.08625,10.36625 -21.435,24.08125 -8.51625,13.995 -12.305,31.3475 -12.305,31.3475 0,0 15.68375,4.95125 33.72,-9.83875 z M 110.5075,108.06625 C 122.86625,96.885 131.73875,81.1325 131.73875,81.1325 c 0,0 -7.54875,3.755 -14.57625,4.89375 -5.11125,0.82 -10.32625,-0.875 -10.32625,-0.875 0,0 -2.71,-5.65375 -2.16375,-15.2975 0.65,-11.48 4.575,-27.275 4.575,-27.275 0,0 -14.6375,15.78625 -20.96625,34.78 -1.7775,5.3325 -3.11,10.87375 -4.11625,16.245 -3.8775,18.06125 -3.0325,33.315 -3.0325,33.315 0,0 16.445,-7.1525 29.375,-18.8525 z m -23.13,58.8525 C 97.4075,155.87 103.6225,138.97 103.6225,138.97 c 0,0 -8.495,4.74125 -17.22625,6.7525 -6.645,1.53375 -14.10125,0.47875 -14.10125,0.47875 0,0 -2.33375,-6.875 -3.26125,-16.71375 -1.66125,-17.53375 -0.7525,-45.14125 -0.7525,-45.14125 0,0 -15.1125,27.465 -15.7375,52.28 -0.58125,22.9 11.71875,45.7175 11.71875,45.7175 0,0 13.4725,-4.795 23.115,-15.425 z m -28.74,69.24875 c 0,0 14.6975,-11.08375 22.6275,-24.01875 7.30375,-11.92375 7.9,-25.78625 7.9,-25.78625 0,0 -7.09,3.8725 -14.62375,6.80125 -6.895,2.68125 -14.2975,4.44375 -14.2975,4.44375 0,0 -8.1975,-8.955 -13.2375,-20.7175 C 39.355,159.03375 33.74,135.7575 33.74,135.7575 c 0,0 -8.125,31.17125 -1.845,56.49375 6.17125,24.8775 26.7425,43.91625 26.7425,43.91625 z m 4.01875,61.045 c 0,0 10.13125,-10.67875 15.59125,-24.14125 5.77625,-14.22875 6.89875,-31.28375 6.89875,-31.28375 L 61.85,262.67125 c 0,0 -12.51375,-8.29125 -23.26125,-22.515 -14.72125,-19.4775 -28.95,-46.5675 -28.95,-46.5675 0,0 -1.7925,42.3975 11.5675,68.50625 13.14875,25.69875 41.45,35.1175 41.45,35.1175 z m 15.26375,56.23 c 0,0 8.945,-10.36125 11.7475,-23.69625 3.535,-16.7875 1.10375,-37.35375 1.10375,-37.35375 0,0 -4.0775,8.52125 -9.2725,16.31375 -4.375,6.5625 -10.01,12.6025 -10.01,12.6025 0,0 -14.60375,-5.87875 -28.86625,-19.33125 C 22.55375,283.0475 0,252.22625 0,252.22625 c 0,0 2.08,45.9675 21.19125,70.455 C 40.635,347.5925 77.92,353.4425 77.92,353.4425 Z m 31.3275,53.81875 c 0,0 5.44,-14.4925 5.25,-30.5175 -0.21,-17.6375 -6.055,-36.95875 -6.055,-36.95875 l -18.47625,35.3475 c 0,0 -17.34875,0.55625 -34.6875,-8.56 C 34.0525,355.41 12.05125,334.165 12.05125,334.165 c 0,0 14.39875,40.17125 39.345,58.93125 23.61375,17.76375 57.85125,14.165 57.85125,14.165 z m 37.755,46.59125 c 0,0 2.55375,-16.3375 0.13625,-31.22 C 144.36,405.5425 136.5575,389.59 136.5575,389.59 c 0,0 -1.48,11.67 -4.98,22.1675 -2.86125,8.59 -7.87125,16.3875 -7.87125,16.3875 0,0 -9.9075,1.465 -22.525,0.34625 -18.1,-1.60125 -40.9375,-5.96625 -40.9375,-5.96625 0,0 12.33375,17.06 34.54625,25.0825 21.1375,7.6325 52.2125,6.245 52.2125,6.245 z m 17.67,-28.115 -3.2125,40.96625 c 0,0 -9.30625,3.6625 -21.71375,4.17 -16.3575,0.67375 -36.92375,-1.7625 -36.92375,-1.7625 0,0 17.9875,15.3525 39.43375,20.3125 C 164.18,494.5025 189.575,489.195 189.575,489.195 c 0,0 2.71,-14.4875 -3.0175,-28.335 -6.655,-16.10375 -21.885,-35.1225 -21.885,-35.1225 z m 150.625,84.395 c -13.72,-7.57875 -34.15,-12.1 -34.15,-12.1 0,0 -20.58125,-3.36 -40.1025,-9.0525 -19.02875,-5.5525 -37.01125,-13.4425 -37.01125,-13.4425 0,0 4.0375,10.05375 1.865,17.00125 -1.81125,5.79625 -9.8975,8.70625 -9.8975,8.70625 l 17.67125,5.62 c 0,0 44.61375,1.29875 70.7025,5.5425 23.135,3.765 28.1,10.5225 28.1,10.5225 0,0 -2.82625,2.96875 -12.7625,4.57 -14.195,2.29 -35.435,1.85625 -35.435,1.85625 l 15.26375,14.4575 c 0,0 16.72375,2.04625 31.17125,-2.14375 13.21375,-3.8275 24.25375,-13.92125 24.25375,-13.92125 0,0 -6.49,-10.34125 -19.66875,-17.61625 z M 564.71625,56.035 c 18.0375,14.79 33.72125,9.835 33.72125,9.835 0,0 -3.78375,-17.35375 -12.305,-31.34875 -8.345,-13.715 -21.43,-24.07625 -21.43,-24.07625 l 1.60625,16.06375 c 0,0 -16.43625,-12.97375 -29.63875,-20.23375 C 526.065,0.44 518.11,0 518.11,0 c 0,0 24.83375,38.17875 46.60625,56.035 z m 41.295,52.03125 c 12.93375,11.7 29.37875,18.8525 29.37875,18.8525 0,0 0.845,-15.22875 -3.02625,-33.28125 -1.00625,-5.38 -2.33875,-10.9375 -4.12125,-16.27875 -6.33375,-18.99375 -20.9675,-34.78 -20.9675,-34.78 0,0 3.92625,15.795 4.575,27.28 0.5475,9.63875 -2.1675,15.2925 -2.1675,15.2925 0,0 -5.215,1.695 -10.3225,0.875 -7.02625,-1.13875 -14.575,-4.89375 -14.575,-4.89375 0,0 8.8675,15.7525 21.22625,26.93375 z M 612.9,138.97 c 0,0 6.21625,16.895 16.24,27.94875 9.64875,10.625 23.11625,15.425 23.11625,15.425 0,0 12.3,-22.8175 11.72375,-45.7175 -0.625,-24.81875 -15.7375,-52.28 -15.7375,-52.28 0,0 0.9075,27.6075 -0.7525,45.14125 -0.9325,9.83875 -3.26625,16.71375 -3.26625,16.71375 0,0 -7.45625,1.06 -14.10125,-0.47875 C 621.39125,143.71125 612.9,138.97 612.9,138.97 Z m 29.0825,54.19375 c -7.53875,-2.92875 -14.62375,-6.80125 -14.62375,-6.80125 0,0 0.59,13.8625 7.9,25.78625 7.93,12.935 22.6225,24.01875 22.6225,24.01875 0,0 20.57625,-19.03875 26.7425,-43.91625 6.28,-25.3225 -1.84,-56.49375 -1.84,-56.49375 0,0 -5.62125,23.27625 -13.2725,41.1325 -5.04375,11.7625 -13.23625,20.7175 -13.23625,20.7175 0,0 -7.3975,-1.7625 -14.2925,-4.44375 z m 12.685,69.5075 -23.295,-20.88375 c 0,0 1.1225,17.055 6.89875,31.28875 5.45875,13.4575 15.59125,24.13625 15.59125,24.13625 0,0 28.305,-9.41875 41.45,-35.1125 13.36,-26.11375 11.5675,-68.50625 11.5675,-68.50625 0,0 -14.22875,27.09 -28.95,46.5675 -10.7475,14.21875 -23.2625,22.51 -23.2625,22.51 z m 19.22875,39.30625 c -14.2625,13.4525 -28.8675,19.33625 -28.8675,19.33625 0,0 -5.63875,-6.045 -10.01375,-12.6075 -5.19125,-7.7875 -9.2675,-16.31375 -9.2675,-16.31375 0,0 -2.4375,20.56625 1.1025,37.35375 2.80875,13.34 11.74875,23.69625 11.74875,23.69625 0,0 37.285,-5.85 56.73375,-30.76125 19.11125,-24.4825 21.18625,-70.45 21.18625,-70.45 0,0 -22.55375,30.81625 -42.6225,49.74625 z m -47.34375,73.155 -18.47625,-35.3475 c 0,0 -5.84,19.32125 -6.05,36.95875 -0.195,16.02 5.24875,30.5175 5.24875,30.5175 0,0 34.23375,3.59875 57.8525,-14.165 24.94625,-18.76 39.345,-58.93125 39.345,-58.93125 0,0 -22.00625,21.245 -43.2275,32.4075 -17.33875,9.11625 -34.6925,8.56 -34.6925,8.56 z m -33.735,53.0125 c 0,0 -5.01,-7.7975 -7.87125,-16.3875 -3.50125,-10.4975 -4.98,-22.1675 -4.98,-22.1675 0,0 -7.80375,15.9525 -10.58125,33.0425 -2.4225,14.8825 0.13625,31.22 0.13625,31.22 0,0 31.075,1.3875 52.2125,-6.245 22.21125,-8.0225 34.545,-25.0825 34.545,-25.0825 0,0 -22.83625,4.36 -40.94125,5.96625 -12.6175,1.11875 -22.52,-0.34625 -22.52,-0.34625 z m -16.04,42.72875 c -12.4125,-0.5075 -21.71375,-4.17 -21.71375,-4.17 L 551.85,425.7375 c 0,0 -15.22875,19.01875 -21.88875,35.1225 -5.7225,13.8475 -3.0125,28.335 -3.0125,28.335 0,0 25.39,5.3125 47.31375,0.22875 21.445,-4.96 39.43875,-20.3125 39.43875,-20.3125 0,0 -20.56625,2.43625 -36.92375,1.7625 z m -66.1525,21.665 c -2.1725,-6.9475 1.865,-17.00125 1.865,-17.00125 0,0 -17.9875,7.89 -37.01625,13.4425 -19.52125,5.6925 -40.0975,9.0525 -40.0975,9.0525 0,0 -20.435,4.52125 -34.155,12.1 -13.17875,7.275 -19.66875,17.62125 -19.66875,17.62125 0,0 11.045,10.09375 24.25375,13.92125 14.4475,4.19 31.17625,2.14375 31.17625,2.14375 L 452.24625,529.36 c 0,0 -21.245,0.435 -35.44,-1.855 -9.93625,-1.60125 -12.75875,-4.57 -12.75875,-4.57 0,0 4.96125,-6.7625 28.10125,-10.5225 26.08375,-4.24375 70.6975,-5.5425 70.6975,-5.5425 l 17.67625,-5.625 c 0,0 -8.08625,-2.91 -9.8975,-8.70625 z"
         id="path2999"
         style="fill:#ffffff;fill-opacity:1;fill-rule:nonzero;stroke:none"
         inkscape:connector-curvature="0" />
      <path
         d="m 358.26125,2.64625 c -135.3075,0 -245,109.6875 -245,245 0,135.3075 109.6925,244.995 245,244.995 135.3125,0 245,-109.6875 245,-245 -0.005,-135.3075 -109.6875,-244.995 -245,-244.995 z m 0,477.14375 c -128.2125,0 -232.1475,-103.94 -232.1475,-232.14875 0,-128.2125 103.935,-232.1425 232.1475,-232.1425 128.20875,0 232.14875,103.935 232.14875,232.1425 C 590.41,375.855 486.47,479.79 358.26125,479.79 Z"
         id="path3001"
         style="fill:#ffffff;fill-opacity:1;fill-rule:nonzero;stroke:none"
         inkscape:connector-curvature="0" />
      <path
         d="m 349.34625,254.0975 0.004,0 -0.0138,0 c -0.97625,-0.015 -45.235,-0.71875 -52.54375,-8.0275 -7.31,-7.31 -8.01375,-51.5675 -8.0275,-52.54 l 0,-0.0188 0,0.01 0,-0.01 0,0.0188 c -0.015,0.9725 -0.7175,45.23 -8.0275,52.54 -7.275,7.27 -51.10375,8.0075 -52.525,8.0275 l -0.0337,0 0.02,0 -0.02,0 0.0337,0 c 1.42125,0.0238 45.25375,0.76125 52.525,8.03125 7.31,7.31 8.0125,51.5675 8.0275,52.54 l 0,0.0188 0,-0.01 0,0.01 0,-0.0188 c 0.0138,-0.9725 0.7225,-45.23 8.0325,-52.54 7.30375,-7.30875 51.56625,-8.0175 52.53875,-8.03125 l 0.0138,0 -0.004,0 z"
         id="path3005"
         style="fill:#ffffff;fill-opacity:1;fill-rule:nonzero;stroke:none"
         inkscape:connector-curvature="0" />
      <path
         d="m 450.9325,182.8475 0.01,0 -0.015,0 c -0.75125,-0.01 -34.8925,-0.5575 -40.5275,-6.1925 -5.63875,-5.63875 -6.18625,-39.78 -6.19625,-40.53125 l 0,-0.01 0,0.005 0,-0.005 0,0.01 c -0.01,0.75125 -0.55125,34.8925 -6.19125,40.53125 -5.61,5.60625 -39.41875,6.1775 -40.5125,6.1925 l -0.0288,0 0.0138,0 c -0.01,0 -0.0138,0 -0.0138,0 l 0.0288,0 c 1.09375,0.0188 34.9075,0.585 40.5125,6.19125 5.64,5.63875 6.18125,39.78 6.19125,40.53125 l 0,0.015 0,-0.01 0,0.01 0,-0.015 c 0.015,-0.75125 0.5575,-34.8925 6.19625,-40.53125 5.64,-5.635 39.77625,-6.1825 40.5275,-6.19125 l 0.015,0 -0.01,0 z"
         id="path3007"
         style="fill:#ffffff;fill-opacity:1;fill-rule:nonzero;stroke:none"
         inkscape:connector-curvature="0" />
      <path
         d="m 472.32875,304.8875 0.005,0 -0.015,0 c -0.6975,-0.009 -32.5675,-0.5175 -37.82625,-5.78125 -5.26875,-5.26375 -5.77125,-37.12875 -5.78125,-37.82625 l 0,-0.015 0,0.005 0,-0.005 0,0.015 c -0.015,0.6975 -0.5225,32.5625 -5.78625,37.83125 -5.235,5.23 -36.7925,5.7625 -37.8125,5.77625 l -0.03,0 0.015,0 c -0.01,0 -0.015,0 -0.015,0 l 0.03,0 c 1.02,0.02 32.5775,0.5525 37.8125,5.78125 5.26875,5.26375 5.77125,37.13375 5.78625,37.8325 l 0,0.015 0,-0.005 0,0.005 0,-0.015 c 0.01,-0.69875 0.5175,-32.56875 5.78125,-37.8325 5.25875,-5.26375 37.12875,-5.77125 37.82625,-5.78125 l 0.015,0 -0.005,0 z"
         id="path3009"
         style="fill:#ffffff;fill-opacity:1;fill-rule:nonzero;stroke:none"
         inkscape:connector-curvature="0" />
      <path
         d="m 445.615,246.31875 c 0,5.595 -4.53625,10.13125 -10.13125,10.13125 -5.59625,0 -10.1375,-4.53625 -10.1375,-10.13125 0,-5.60125 4.54125,-10.13625 10.1375,-10.13625 5.595,0 10.13125,4.535 10.13125,10.13625 z"
         id="path3011"
         style="fill:#ffffff;fill-opacity:1;fill-rule:nonzero;stroke:none"
         inkscape:connector-curvature="0" />
      <path
         d="m 385.2925,285.225 c 0,5.595 -4.53625,10.13125 -10.13125,10.13125 -5.59625,0 -10.1325,-4.53625 -10.1325,-10.13125 0,-5.59625 4.53625,-10.1325 10.1325,-10.1325 5.595,0 10.13125,4.53625 10.13125,10.1325 z"
         id="path3013"
         style="fill:#ffffff;fill-opacity:1;fill-rule:nonzero;stroke:none"
         inkscape:connector-curvature="0" />
      <path
         d="m 318.59375,358.10625 c 0,5.595 -4.54125,10.13125 -10.13625,10.13125 -5.59625,0 -10.1325,-4.53625 -10.1325,-10.13125 0,-5.60125 4.53625,-10.1375 10.1325,-10.1375 5.595,0 10.13625,4.53625 10.13625,10.1375 z"
         id="path3015"
         style="fill:#ffffff;fill-opacity:1;fill-rule:nonzero;stroke:none"
         inkscape:connector-curvature="0" />
      <path
         d="m 367.695,222.09 c 0,5.2 -4.21875,9.41375 -9.41875,9.41375 -5.2,0 -9.41375,-4.21375 -9.41375,-9.41375 0,-5.2 4.21375,-9.41375 9.41375,-9.41375 5.2,0 9.41875,4.21375 9.41875,9.41375 z"
         id="path3017"
         style="fill:#ffffff;fill-opacity:1;fill-rule:nonzero;stroke:none"
         inkscape:connector-curvature="0" />
      <path
         d="m 368.8375,337.94 c 0,5.5225 -4.4775,10 -10,10 -5.5225,0 -10,-4.4775 -10,-10 0,-5.5225 4.4775,-10 10,-10 5.5225,0 10,4.4775 10,10 z"
         id="path3019"
         style="fill:#ffffff;fill-opacity:1;fill-rule:nonzero;stroke:none"
         inkscape:connector-curvature="0" />
      <path
         d="m 235.83,344.9275 c 0,5.595 -4.53625,10.13625 -10.13125,10.13625 -5.59625,0 -10.1375,-4.54125 -10.1375,-10.13625 0,-5.59625 4.54125,-10.1325 10.1375,-10.1325 5.595,0 10.13125,4.53625 10.13125,10.1325 z"
         id="path3021"
         style="fill:#ffffff;fill-opacity:1;fill-rule:nonzero;stroke:none"
         inkscape:connector-curvature="0" />
      <path
         d="m 558.36375,167.05625 c 0,5.595 -4.53625,10.13125 -10.13625,10.13125 -5.59625,0 -10.13125,-4.53625 -10.13125,-10.13125 0,-5.60125 4.535,-10.1375 10.13125,-10.1375 5.6,0 10.13625,4.53625 10.13625,10.1375 z"
         id="path3023"
         style="fill:#ffffff;fill-opacity:1;fill-rule:nonzero;stroke:none"
         inkscape:connector-curvature="0" />
      <path
         d="m 501.08375,146.74375 c 0,5.64375 -4.575,10.22375 -10.22375,10.22375 -5.645,0 -10.225,-4.58 -10.225,-10.22375 0,-5.65 4.58,-10.23 10.225,-10.23 5.64875,0 10.22375,4.58 10.22375,10.23 z"
         id="path3025"
         style="fill:#ffffff;fill-opacity:1;fill-rule:nonzero;stroke:none"
         inkscape:connector-curvature="0" />
      <path
         d="m 364.4775,250.225 c 0,4.10625 -3.325,7.43625 -7.43125,7.43625 -4.10625,0 -7.43625,-3.33 -7.43625,-7.43625 0,-4.10125 3.33,-7.43125 7.43625,-7.43125 4.10625,0 7.43125,3.33 7.43125,7.43125 z"
         id="path3027"
         style="fill:#ffffff;fill-opacity:1;fill-rule:nonzero;stroke:none"
         inkscape:connector-curvature="0" />
      <path
         d="m 262.915,340.5375 c 0,4.10625 -3.33,7.43625 -7.43625,7.43625 -4.10625,0 -7.43125,-3.33 -7.43125,-7.43625 0,-4.10625 3.325,-7.43625 7.43125,-7.43625 4.10625,0 7.43625,3.33 7.43625,7.43625 z"
         id="path3029"
         style="fill:#ffffff;fill-opacity:1;fill-rule:nonzero;stroke:none"
         inkscape:connector-curvature="0" />
      <path
         d="m 176.9975,304.58 c 0,4.10625 -3.33,7.4325 -7.4325,7.4325 -4.10625,0 -7.43625,-3.32625 -7.43625,-7.4325 0,-4.10625 3.33,-7.43625 7.43625,-7.43625 4.1025,0 7.4325,3.33 7.4325,7.43625 z"
         id="path3031"
         style="fill:#ffffff;fill-opacity:1;fill-rule:nonzero;stroke:none"
         inkscape:connector-curvature="0" />
      <path
         d="m 397.00625,58.765 c 0,4.10625 -3.33,7.43625 -7.43625,7.43625 -4.10625,0 -7.43625,-3.33 -7.43625,-7.43625 0,-4.10625 3.33,-7.43625 7.43625,-7.43625 4.10625,0 7.43625,3.33 7.43625,7.43625 z"
         id="path3033"
         style="fill:#ffffff;fill-opacity:1;fill-rule:nonzero;stroke:none"
         inkscape:connector-curvature="0" />
      <path
         d="m 437.63125,49.7075 c 0,4.10625 -3.33,7.43625 -7.43625,7.43625 -4.10625,0 -7.43125,-3.33 -7.43125,-7.43625 0,-4.10625 3.325,-7.43625 7.43125,-7.43625 4.10625,0 7.43625,3.33 7.43625,7.43625 z"
         id="path3035"
         style="fill:#ffffff;fill-opacity:1;fill-rule:nonzero;stroke:none"
         inkscape:connector-curvature="0" />
      <path
         d="m 190.87375,222.28 c 0,4.53625 -3.67625,8.21375 -8.2125,8.21375 -4.53125,0 -8.20875,-3.6775 -8.20875,-8.21375 0,-4.53125 3.6775,-8.2075 8.20875,-8.2075 4.53625,0 8.2125,3.67625 8.2125,8.2075 z"
         id="path3037"
         style="fill:#ffffff;fill-opacity:1;fill-rule:nonzero;stroke:none"
         inkscape:connector-curvature="0" />
      <path
         d="m 174.385,280.61 c 0,4.53125 -3.6775,8.20875 -8.20875,8.20875 -4.53625,0 -8.2125,-3.6775 -8.2125,-8.20875 0,-4.535 3.67625,-8.2125 8.2125,-8.2125 4.53125,0 8.20875,3.6775 8.20875,8.2125 z"
         id="path3039"
         style="fill:#ffffff;fill-opacity:1;fill-rule:nonzero;stroke:none"
         inkscape:connector-curvature="0" />
      <path
         d="m 322.94,132.05625 c 0,4.53625 -3.6775,8.2125 -8.21375,8.2125 -4.53625,0 -8.2125,-3.67625 -8.2125,-8.2125 0,-4.53125 3.67625,-8.20875 8.2125,-8.20875 4.53625,0 8.21375,3.6775 8.21375,8.20875 z"
         id="path3041"
         style="fill:#ffffff;fill-opacity:1;fill-rule:nonzero;stroke:none"
         inkscape:connector-curvature="0" />
      <path
         d="m 284.78,134.4775 c 0,3.07125 -2.49,5.56125 -5.56125,5.56125 -3.07625,0 -5.56625,-2.49 -5.56625,-5.56125 0,-3.07125 2.49,-5.56625 5.56625,-5.56625 3.07125,0 5.56125,2.495 5.56125,5.56625 z"
         id="path3043"
         style="fill:#ffffff;fill-opacity:1;fill-rule:nonzero;stroke:none"
         inkscape:connector-curvature="0" />
      <path
         d="m 350.615,102.33875 c 0,3.07125 -2.49,5.56625 -5.56125,5.56625 -3.07625,0 -5.56625,-2.495 -5.56625,-5.56625 0,-3.07125 2.49,-5.56125 5.56625,-5.56125 3.07125,0 5.56125,2.49 5.56125,5.56125 z"
         id="path3045"
         style="fill:#ffffff;fill-opacity:1;fill-rule:nonzero;stroke:none"
         inkscape:connector-curvature="0" />
      <path
         d="m 364.8875,195.1175 c 0,3.07125 -2.49,5.56625 -5.56125,5.56625 -3.07125,0 -5.56625,-2.495 -5.56625,-5.56625 0,-3.07125 2.495,-5.56125 5.56625,-5.56125 3.07125,0 5.56125,2.49 5.56125,5.56125 z"
         id="path3047"
         style="fill:#ffffff;fill-opacity:1;fill-rule:nonzero;stroke:none"
         inkscape:connector-curvature="0" />
      <path
         d="m 310.04375,225.9325 c 0,3.07625 -2.495,5.56625 -5.56625,5.56625 -3.07125,0 -5.56125,-2.49 -5.56125,-5.56625 0,-3.07125 2.49,-5.56125 5.56125,-5.56125 3.07125,0 5.56625,2.49 5.56625,5.56125 z"
         id="path3049"
         style="fill:#ffffff;fill-opacity:1;fill-rule:nonzero;stroke:none"
         inkscape:connector-curvature="0" />
      <path
         d="m 333.78375,272.5975 c 0,3.07625 -2.49,5.56625 -5.56125,5.56625 -3.07125,0 -5.56625,-2.49 -5.56625,-5.56625 0,-3.07125 2.495,-5.56125 5.56625,-5.56125 3.07125,0 5.56125,2.49 5.56125,5.56125 z"
         id="path3051"
         style="fill:#ffffff;fill-opacity:1;fill-rule:nonzero;stroke:none"
         inkscape:connector-curvature="0" />
      <path
         d="m 343.25625,319.2625 c 0,3.07125 -2.49,5.56625 -5.56625,5.56625 -3.07125,0 -5.56125,-2.495 -5.56125,-5.56625 0,-3.07125 2.49,-5.56125 5.56125,-5.56125 3.07625,0 5.56625,2.49 5.56625,5.56125 z"
         id="path3053"
         style="fill:#ffffff;fill-opacity:1;fill-rule:nonzero;stroke:none"
         inkscape:connector-curvature="0" />
      <path
         d="m 344.0775,289.0675 c 0,3.07625 -2.49,5.56625 -5.5625,5.56625 -3.07125,0 -5.56625,-2.49 -5.56625,-5.56625 0,-3.07125 2.495,-5.56125 5.56625,-5.56125 3.0725,0 5.5625,2.49 5.5625,5.56125 z"
         id="path3055"
         style="fill:#ffffff;fill-opacity:1;fill-rule:nonzero;stroke:none"
         inkscape:connector-curvature="0" />
      <path
         d="m 364.39,295.655 c 0,3.07625 -2.49,5.56625 -5.5625,5.56625 -3.07125,0 -5.56625,-2.49 -5.56625,-5.56625 0,-3.07125 2.495,-5.5625 5.56625,-5.5625 3.0725,0 5.5625,2.49125 5.5625,5.5625 z"
         id="path3057"
         style="fill:#ffffff;fill-opacity:1;fill-rule:nonzero;stroke:none"
         inkscape:connector-curvature="0" />
      <path
         d="m 444.13625,273.69625 c 0,3.07125 -2.49625,5.56125 -5.5675,5.56125 -3.07125,0 -5.56125,-2.49 -5.56125,-5.56125 0,-3.07125 2.49,-5.56625 5.56125,-5.56625 3.07125,0 5.5675,2.495 5.5675,5.56625 z"
         id="path3059"
         style="fill:#ffffff;fill-opacity:1;fill-rule:nonzero;stroke:none"
         inkscape:connector-curvature="0" />
      <path
         d="m 411.675,286.8075 c 0,3.07125 -2.495,5.56125 -5.56625,5.56125 -3.07125,0 -5.56625,-2.49 -5.56625,-5.56125 0,-3.07625 2.495,-5.5675 5.56625,-5.5675 3.07125,0 5.56625,2.49125 5.56625,5.5675 z"
         id="path3061"
         style="fill:#ffffff;fill-opacity:1;fill-rule:nonzero;stroke:none"
         inkscape:connector-curvature="0" />
      <path
         d="m 480.77625,214.405 c 0,3.07625 -2.49,5.56625 -5.56125,5.56625 -3.07625,0 -5.56625,-2.49 -5.56625,-5.56625 0,-3.07125 2.49,-5.5625 5.56625,-5.5625 3.07125,0 5.56125,2.49125 5.56125,5.5625 z"
         id="path3063"
         style="fill:#ffffff;fill-opacity:1;fill-rule:nonzero;stroke:none"
         inkscape:connector-curvature="0" />
      <path
         d="m 366.5875,269.58 c 0,3.07125 -2.49125,5.56125 -5.5625,5.56125 -3.07625,0 -5.56625,-2.49 -5.56625,-5.56125 0,-3.07625 2.49,-5.56625 5.56625,-5.56625 3.07125,0 5.5625,2.49 5.5625,5.56625 z"
         id="path3065"
         style="fill:#ffffff;fill-opacity:1;fill-rule:nonzero;stroke:none"
         inkscape:connector-curvature="0" />
      <path
         d="m 393.48625,314.87375 c 0,3.07125 -2.49,5.56125 -5.56125,5.56125 -3.07125,0 -5.56125,-2.49 -5.56125,-5.56125 0,-3.07125 2.49,-5.5625 5.56125,-5.5625 3.07125,0 5.56125,2.49125 5.56125,5.5625 z"
         id="path3067"
         style="fill:#ffffff;fill-opacity:1;fill-rule:nonzero;stroke:none"
         inkscape:connector-curvature="0" />
      <path
         d="m 495.605,217.7 c 0,3.07125 -2.495,5.5625 -5.56625,5.5625 -3.07125,0 -5.56625,-2.49125 -5.56625,-5.5625 0,-3.07625 2.495,-5.56625 5.56625,-5.56625 3.07125,0 5.56625,2.49 5.56625,5.56625 z"
         id="path3069"
         style="fill:#ffffff;fill-opacity:1;fill-rule:nonzero;stroke:none"
         inkscape:connector-curvature="0" />
      <path
         d="m 539.52125,188.4675 c 0,3.07125 -2.49,5.56125 -5.56625,5.56125 -3.07125,0 -5.56125,-2.49 -5.56125,-5.56125 0,-3.07625 2.49,-5.56625 5.56125,-5.56625 3.07625,0 5.56625,2.49 5.56625,5.56625 z"
         id="path3071"
         style="fill:#ffffff;fill-opacity:1;fill-rule:nonzero;stroke:none"
         inkscape:connector-curvature="0" />
      <path
         d="m 539.52125,263.8525 c 0,3.50625 -2.84625,6.3525 -6.3525,6.3525 -3.50625,0 -6.3475,-2.84625 -6.3475,-6.3525 0,-3.505 2.84125,-6.3525 6.3475,-6.3525 3.50625,0 6.3525,2.8475 6.3525,6.3525 z"
         id="path3073"
         style="fill:#ffffff;fill-opacity:1;fill-rule:nonzero;stroke:none"
         inkscape:connector-curvature="0" />
      <path
         d="m 471.9925,171.035 c 0,3.07625 -2.49,5.56625 -5.56125,5.56625 -3.07625,0 -5.5675,-2.49 -5.5675,-5.56625 0,-3.07125 2.49125,-5.56125 5.5675,-5.56125 3.07125,0 5.56125,2.49 5.56125,5.56125 z"
         id="path3075"
         style="fill:#ffffff;fill-opacity:1;fill-rule:nonzero;stroke:none"
         inkscape:connector-curvature="0" />
      <path
         d="m 507.12875,160.87875 c 0,3.07125 -2.49,5.56625 -5.56125,5.56625 -3.07625,0 -5.56625,-2.495 -5.56625,-5.56625 0,-3.07125 2.49,-5.56125 5.56625,-5.56125 3.07125,0 5.56125,2.49 5.56125,5.56125 z"
         id="path3077"
         style="fill:#ffffff;fill-opacity:1;fill-rule:nonzero;stroke:none"
         inkscape:connector-curvature="0" />
      <path
         d="m 511.66,178.17375 c 0,3.07125 -2.49,5.56125 -5.56625,5.56125 -3.07125,0 -5.56125,-2.49 -5.56125,-5.56125 0,-3.07625 2.49,-5.56625 5.56125,-5.56625 3.07625,0 5.56625,2.49 5.56625,5.56625 z"
         id="path3079"
         style="fill:#ffffff;fill-opacity:1;fill-rule:nonzero;stroke:none"
         inkscape:connector-curvature="0" />
      <path
         d="m 481.3275,120.5275 c 0,3.07125 -2.49,5.56625 -5.56625,5.56625 -3.07125,0 -5.56125,-2.495 -5.56125,-5.56625 0,-3.07625 2.49,-5.56625 5.56125,-5.56625 3.07625,0 5.56625,2.49 5.56625,5.56625 z"
         id="path3081"
         style="fill:#ffffff;fill-opacity:1;fill-rule:nonzero;stroke:none"
         inkscape:connector-curvature="0" />
      <path
         d="m 518.6575,133.70625 c 0,3.07125 -2.49,5.56125 -5.56125,5.56125 -3.07125,0 -5.5675,-2.49 -5.5675,-5.56125 0,-3.07625 2.49625,-5.56625 5.5675,-5.56625 3.07125,0 5.56125,2.49 5.56125,5.56625 z"
         id="path3083"
         style="fill:#ffffff;fill-opacity:1;fill-rule:nonzero;stroke:none"
         inkscape:connector-curvature="0" />
      <path
         d="m 496.42625,91.43125 c 0,3.07125 -2.49125,5.56625 -5.56625,5.56625 -3.0725,0 -5.5625,-2.495 -5.5625,-5.56625 0,-3.07125 2.49,-5.56125 5.5625,-5.56125 3.075,0 5.56625,2.49 5.56625,5.56125 z"
         id="path3085"
         style="fill:#ffffff;fill-opacity:1;fill-rule:nonzero;stroke:none"
         inkscape:connector-curvature="0" />
      <path
         d="m 307.84625,298.40375 c 0,3.07125 -2.49,5.56125 -5.56625,5.56125 -3.07125,0 -5.56125,-2.49 -5.56125,-5.56125 0,-3.07625 2.49,-5.56625 5.56125,-5.56625 3.07625,0 5.56625,2.49 5.56625,5.56625 z"
         id="path3087"
         style="fill:#ffffff;fill-opacity:1;fill-rule:nonzero;stroke:none"
         inkscape:connector-curvature="0" />
      <path
         d="m 303.17875,339.02875 c 0,3.07125 -2.49,5.56125 -5.56125,5.56125 -3.07625,0 -5.56625,-2.49 -5.56625,-5.56125 0,-3.07625 2.49,-5.56625 5.56625,-5.56625 3.07125,0 5.56125,2.49 5.56125,5.56625 z"
         id="path3089"
         style="fill:#ffffff;fill-opacity:1;fill-rule:nonzero;stroke:none"
         inkscape:connector-curvature="0" />
      <path
         d="m 277.1,346.9875 c 0,3.07125 -2.49,5.56125 -5.5625,5.56125 -3.07125,0 -5.56625,-2.49 -5.56625,-5.56125 0,-3.07125 2.495,-5.56625 5.56625,-5.56625 3.0725,0 5.5625,2.495 5.5625,5.56625 z"
         id="path3091"
         style="fill:#ffffff;fill-opacity:1;fill-rule:nonzero;stroke:none"
         inkscape:connector-curvature="0" />
      <path
         d="m 265.025,314.0475 c 0,3.0725 -2.49125,5.5675 -5.5675,5.5675 -3.07125,0 -5.56125,-2.495 -5.56125,-5.5675 0,-3.07125 2.49,-5.56125 5.56125,-5.56125 3.07625,0 5.5675,2.49 5.5675,5.56125 z"
         id="path3093"
         style="fill:#ffffff;fill-opacity:1;fill-rule:nonzero;stroke:none"
         inkscape:connector-curvature="0" />
      <path
         d="m 285.06375,314.0475 c 0,3.07625 -2.49,5.5675 -5.56625,5.5675 -3.07125,0 -5.5625,-2.49125 -5.5625,-5.5675 0,-3.07125 2.49125,-5.56125 5.5625,-5.56125 3.07625,0 5.56625,2.49 5.56625,5.56125 z"
         id="path3095"
         style="fill:#ffffff;fill-opacity:1;fill-rule:nonzero;stroke:none"
         inkscape:connector-curvature="0" />
      <path
         d="m 236.475,294.55625 c 0,3.07625 -2.49,5.56625 -5.5625,5.56625 -3.07125,0 -5.56625,-2.49 -5.56625,-5.56625 0,-3.07125 2.495,-5.56125 5.56625,-5.56125 3.0725,0 5.5625,2.49 5.5625,5.56125 z"
         id="path3097"
         style="fill:#ffffff;fill-opacity:1;fill-rule:nonzero;stroke:none"
         inkscape:connector-curvature="0" />
      <path
         d="m 254.73125,264.22875 c 0,3.07125 -2.49,5.56125 -5.56625,5.56125 -3.07125,0 -5.56125,-2.49 -5.56125,-5.56125 0,-3.07625 2.49,-5.56625 5.56125,-5.56625 3.07625,0 5.56625,2.49 5.56625,5.56625 z"
         id="path3099"
         style="fill:#ffffff;fill-opacity:1;fill-rule:nonzero;stroke:none"
         inkscape:connector-curvature="0" />
      <path
         d="m 218.91125,246.52375 c 0,3.07125 -2.495,5.56125 -5.56625,5.56125 -3.07125,0 -5.56125,-2.49 -5.56125,-5.56125 0,-3.07625 2.49,-5.56625 5.56125,-5.56625 3.07125,0 5.56625,2.49 5.56625,5.56625 z"
         id="path3101"
         style="fill:#ffffff;fill-opacity:1;fill-rule:nonzero;stroke:none"
         inkscape:connector-curvature="0" />
      <path
         d="m 171.1475,186.82125 c 0,3.07125 -2.49,5.56125 -5.56625,5.56125 -3.07125,0 -5.56125,-2.49 -5.56125,-5.56125 0,-3.07625 2.49,-5.56625 5.56125,-5.56625 3.07625,0 5.56625,2.49 5.56625,5.56625 z"
         id="path3103"
         style="fill:#ffffff;fill-opacity:1;fill-rule:nonzero;stroke:none"
         inkscape:connector-curvature="0" />
      <path
         d="m 183.2225,352.33875 c 0,3.07625 -2.49,5.56625 -5.56125,5.56625 -3.07625,0 -5.56625,-2.49 -5.56625,-5.56625 0,-3.07125 2.49,-5.56125 5.56625,-5.56125 3.07125,0 5.56125,2.49 5.56125,5.56125 z"
         id="path3105"
         style="fill:#ffffff;fill-opacity:1;fill-rule:nonzero;stroke:none"
         inkscape:connector-curvature="0" />
      <path
         d="m 221.10375,383.6325 c 0,3.07125 -2.49,5.5675 -5.56125,5.5675 -3.07625,0 -5.5675,-2.49625 -5.5675,-5.5675 0,-3.07125 2.49125,-5.56125 5.5675,-5.56125 3.07125,0 5.56125,2.49 5.56125,5.56125 z"
         id="path3107"
         style="fill:#ffffff;fill-opacity:1;fill-rule:nonzero;stroke:none"
         inkscape:connector-curvature="0" />
      <path
         d="m 253.49625,357.28 c 0,3.07125 -2.49,5.5675 -5.56125,5.5675 -3.07625,0 -5.56625,-2.49125 -5.56625,-5.5675 0,-3.07125 2.49,-5.56625 5.56625,-5.56625 3.07125,0 5.56125,2.495 5.56125,5.56625 z"
         id="path3109"
         style="fill:#ffffff;fill-opacity:1;fill-rule:nonzero;stroke:none"
         inkscape:connector-curvature="0" />
      <path
         d="m 395.13125,451.43125 c 0,3.07625 -2.49,5.56625 -5.56125,5.56625 -3.07125,0 -5.56125,-2.49 -5.56125,-5.56625 0,-3.07125 2.49,-5.56125 5.56125,-5.56125 3.07125,0 5.56125,2.49 5.56125,5.56125 z"
         id="path3111"
         style="fill:#ffffff;fill-opacity:1;fill-rule:nonzero;stroke:none"
         inkscape:connector-curvature="0" />
      <path
         d="m 238.6725,386.7875 c 0,3.07625 -2.49125,5.56625 -5.5625,5.56625 -3.07625,0 -5.56625,-2.49 -5.56625,-5.56625 0,-3.07125 2.49,-5.56125 5.56625,-5.56125 3.07125,0 5.5625,2.49 5.5625,5.56125 z"
         id="path3113"
         style="fill:#ffffff;fill-opacity:1;fill-rule:nonzero;stroke:none"
         inkscape:connector-curvature="0" />
      <path
         d="m 244.7125,417.3975 c 0,3.07125 -2.49125,5.56125 -5.5625,5.56125 -3.07625,0 -5.56625,-2.49 -5.56625,-5.56125 0,-3.07125 2.49,-5.56625 5.56625,-5.56625 3.07125,0 5.5625,2.495 5.5625,5.56625 z"
         id="path3115"
         style="fill:#ffffff;fill-opacity:1;fill-rule:nonzero;stroke:none"
         inkscape:connector-curvature="0" />
      <path
         d="m 276.00625,393.37375 c 0,3.07625 -2.495,5.5675 -5.56625,5.5675 -3.07125,0 -5.5625,-2.49125 -5.5625,-5.5675 0,-3.07125 2.49125,-5.56125 5.5625,-5.56125 3.07125,0 5.56625,2.49 5.56625,5.56125 z"
         id="path3117"
         style="fill:#ffffff;fill-opacity:1;fill-rule:nonzero;stroke:none"
         inkscape:connector-curvature="0" />
      <path
         d="m 385.80125,404.0825 c 0,3.07625 -2.49125,5.56625 -5.5625,5.56625 -3.07625,0 -5.56625,-2.49 -5.56625,-5.56625 0,-3.07125 2.49,-5.56125 5.56625,-5.56125 3.07125,0 5.5625,2.49 5.5625,5.56125 z"
         id="path3119"
         style="fill:#ffffff;fill-opacity:1;fill-rule:nonzero;stroke:none"
         inkscape:connector-curvature="0" />
      <path
         d="m 394.31625,367.85125 c 0,3.07125 -2.495,5.5625 -5.56625,5.5625 -3.07125,0 -5.56625,-2.49125 -5.56625,-5.5625 0,-3.075 2.495,-5.56625 5.56625,-5.56625 3.07125,0 5.56625,2.49125 5.56625,5.56625 z"
         id="path3121"
         style="fill:#ffffff;fill-opacity:1;fill-rule:nonzero;stroke:none"
         inkscape:connector-curvature="0" />
      <path
         d="m 517.4225,372.78875 c 0,3.07625 -2.49125,5.56625 -5.5625,5.56625 -3.07125,0 -5.56125,-2.49 -5.56125,-5.56625 0,-3.07125 2.49,-5.5625 5.56125,-5.5625 3.07125,0 5.5625,2.49125 5.5625,5.5625 z"
         id="path3123"
         style="fill:#ffffff;fill-opacity:1;fill-rule:nonzero;stroke:none"
         inkscape:connector-curvature="0" />
      <path
         d="m 489.42875,286.05 c 0,3.07125 -2.495,5.56125 -5.56625,5.56125 -3.07125,0 -5.56125,-2.49 -5.56125,-5.56125 0,-3.07125 2.49,-5.56625 5.56125,-5.56625 3.07125,0 5.56625,2.495 5.56625,5.56625 z"
         id="path3125"
         style="fill:#ffffff;fill-opacity:1;fill-rule:nonzero;stroke:none"
         inkscape:connector-curvature="0" />
      <path
         d="m 467.305,256.81125 c 0,3.355 -2.725,6.08 -6.08375,6.08 -3.36,0 -6.08,-2.725 -6.08,-6.08 0,-3.35875 2.72,-6.08375 6.08,-6.08375 3.35875,0 6.08375,2.725 6.08375,6.08375 z"
         id="path3127"
         style="fill:#ffffff;fill-opacity:1;fill-rule:nonzero;stroke:none"
         inkscape:connector-curvature="0" />
      <path
         d="m 455.66375,236.265 c 0,3.28125 -2.66125,5.9425 -5.9425,5.9425 -3.28125,0 -5.9425,-2.66125 -5.9425,-5.9425 0,-3.28125 2.66125,-5.9425 5.9425,-5.9425 3.28125,0 5.9425,2.66125 5.9425,5.9425 z"
         id="path3129"
         style="fill:#ffffff;fill-opacity:1;fill-rule:nonzero;stroke:none"
         inkscape:connector-curvature="0" />
      <path
         d="m 399.86375,242.3 c 0,3.46625 -2.8125,6.27875 -6.28,6.27875 -3.47125,0 -6.28375,-2.8125 -6.28375,-6.27875 0,-3.47125 2.8125,-6.28375 6.28375,-6.28375 3.4675,0 6.28,2.8125 6.28,6.28375 z"
         id="path3131"
         style="fill:#ffffff;fill-opacity:1;fill-rule:nonzero;stroke:none"
         inkscape:connector-curvature="0" />
      <path
         d="m 448.4525,169.82875 c 0,3.4725 -2.8125,6.285 -6.285,6.285 -3.46625,0 -6.27875,-2.8125 -6.27875,-6.285 0,-3.46625 2.8125,-6.27875 6.27875,-6.27875 3.4725,0 6.285,2.8125 6.285,6.27875 z"
         id="path3133"
         style="fill:#ffffff;fill-opacity:1;fill-rule:nonzero;stroke:none"
         inkscape:connector-curvature="0" />
      <path
         d="m 435.58625,200.405 c 0,3.585 -2.905,6.485 -6.49,6.485 -3.57875,0 -6.48375,-2.9 -6.48375,-6.485 0,-3.57875 2.905,-6.48375 6.48375,-6.48375 3.585,0 6.49,2.905 6.49,6.48375 z"
         id="path3135"
         style="fill:#ffffff;fill-opacity:1;fill-rule:nonzero;stroke:none"
         inkscape:connector-curvature="0" />
      <path
         d="m 373.725,394.75125 c 0,3.07125 -2.49,5.56125 -5.56125,5.56125 -3.07625,0 -5.56625,-2.49 -5.56625,-5.56125 0,-3.07625 2.49,-5.56625 5.56625,-5.56625 3.07125,0 5.56125,2.49 5.56125,5.56625 z"
         id="path3137"
         style="fill:#ffffff;fill-opacity:1;fill-rule:nonzero;stroke:none"
         inkscape:connector-curvature="0" />
      <path
         d="m 406.665,359.615 c 0,3.07125 -2.49,5.56125 -5.56625,5.56125 -3.07125,0 -5.56125,-2.49 -5.56125,-5.56125 0,-3.07125 2.49,-5.5675 5.56125,-5.5675 3.07625,0 5.56625,2.49625 5.56625,5.5675 z"
         id="path3139"
         style="fill:#ffffff;fill-opacity:1;fill-rule:nonzero;stroke:none"
         inkscape:connector-curvature="0" />
      <path
         d="m 493.955,183.93625 c 0,3.07625 -2.49,5.56625 -5.56625,5.56625 -3.07125,0 -5.56125,-2.49 -5.56125,-5.56625 0,-3.07125 2.49,-5.5625 5.56125,-5.5625 3.07625,0 5.56625,2.49125 5.56625,5.5625 z"
         id="path3141"
         style="fill:#ffffff;fill-opacity:1;fill-rule:nonzero;stroke:none"
         inkscape:connector-curvature="0" />
      <path
         d="m 454.975,195.81625 c 0,3.335 -2.7,6.04 -6.035,6.04 -3.335,0 -6.04,-2.705 -6.04,-6.04 0,-3.335 2.705,-6.04 6.04,-6.04 3.335,0 6.035,2.705 6.035,6.04 z"
         id="path3143"
         style="fill:#ffffff;fill-opacity:1;fill-rule:nonzero;stroke:none"
         inkscape:connector-curvature="0" />
      <path
         d="m 249.8775,128.35 c 0,4.10625 -3.33,7.43625 -7.43625,7.43625 -4.10625,0 -7.43625,-3.33 -7.43625,-7.43625 0,-4.10625 3.33,-7.43625 7.43625,-7.43625 4.10625,0 7.43625,3.33 7.43625,7.43625 z"
         id="path3145"
         style="fill:#ffffff;fill-opacity:1;fill-rule:nonzero;stroke:none"
         inkscape:connector-curvature="0" />
      <path
         d="m 389.32125,353.985 c 0,4.10625 -3.33,7.43625 -7.43625,7.43625 -4.10625,0 -7.43625,-3.33 -7.43625,-7.43625 0,-4.10625 3.33,-7.4325 7.43625,-7.4325 4.10625,0 7.43625,3.32625 7.43625,7.4325 z"
         id="path3147"
         style="fill:#ffffff;fill-opacity:1;fill-rule:nonzero;stroke:none"
         inkscape:connector-curvature="0" />
      <path
         d="m 410.59625,390.63 c 0,4.10625 -3.33125,7.43625 -7.4375,7.43625 -4.10625,0 -7.43625,-3.33 -7.43625,-7.43625 0,-4.10625 3.33,-7.43125 7.43625,-7.43125 4.10625,0 7.4375,3.325 7.4375,7.43125 z"
         id="path3149"
         style="fill:#ffffff;fill-opacity:1;fill-rule:nonzero;stroke:none"
         inkscape:connector-curvature="0" />
      <path
         d="m 291.18625,398.8675 c 0,4.10625 -3.325,7.43125 -7.43125,7.43125 -4.10625,0 -7.43625,-3.325 -7.43625,-7.43125 0,-4.10625 3.33,-7.43625 7.43625,-7.43625 4.10625,0 7.43125,3.33 7.43125,7.43625 z"
         id="path3151"
         style="fill:#ffffff;fill-opacity:1;fill-rule:nonzero;stroke:none"
         inkscape:connector-curvature="0" />
      <path
         d="m 288.29125,377.44625 c 0,4.41 -3.57,7.97875 -7.97875,7.97875 -4.40375,0 -7.97375,-3.56875 -7.97375,-7.97875 0,-4.40375 3.57,-7.97375 7.97375,-7.97375 4.40875,0 7.97875,3.57 7.97875,7.97375 z"
         id="path3153"
         style="fill:#ffffff;fill-opacity:1;fill-rule:nonzero;stroke:none"
         inkscape:connector-curvature="0" />
      <path
         d="m 288.2025,59.0925 c 0,4.53125 -3.67125,8.2075 -8.2075,8.2075 -4.53125,0 -8.2075,-3.67625 -8.2075,-8.2075 0,-4.53625 3.67625,-8.20875 8.2075,-8.20875 4.53625,0 8.2075,3.6725 8.2075,8.20875 z"
         id="path3155"
         style="fill:#ffffff;fill-opacity:1;fill-rule:nonzero;stroke:none"
         inkscape:connector-curvature="0" />
      <path
         d="m 464.8925,211.66 c 0,4.53125 -3.67125,8.20875 -8.2075,8.20875 -4.53125,0 -8.20375,-3.6775 -8.20375,-8.20875 0,-4.53125 3.6725,-8.2075 8.20375,-8.2075 4.53625,0 8.2075,3.67625 8.2075,8.2075 z"
         id="path3157"
         style="fill:#ffffff;fill-opacity:1;fill-rule:nonzero;stroke:none"
         inkscape:connector-curvature="0" />
      <path
         d="m 531.18125,204.11125 c 0,4.53625 -3.67125,8.20875 -8.2075,8.20875 -4.53125,0 -8.20875,-3.6725 -8.20875,-8.20875 0,-4.53125 3.6775,-8.2075 8.20875,-8.2075 4.53625,0 8.2075,3.67625 8.2075,8.2075 z"
         id="path3159"
         style="fill:#ffffff;fill-opacity:1;fill-rule:nonzero;stroke:none"
         inkscape:connector-curvature="0" />
      <path
         d="m 554.24375,316.92875 c 0,4.53625 -3.6775,8.20875 -8.20875,8.20875 -4.53125,0 -8.2075,-3.6725 -8.2075,-8.20875 0,-4.53125 3.67625,-8.2075 8.2075,-8.2075 4.53125,0 8.20875,3.67625 8.20875,8.2075 z"
         id="path3161"
         style="fill:#ffffff;fill-opacity:1;fill-rule:nonzero;stroke:none"
         inkscape:connector-curvature="0" />
      <path
         d="m 559.185,219.34625 c 0,4.53625 -3.6775,8.2075 -8.20875,8.2075 -4.53625,0 -8.2075,-3.67125 -8.2075,-8.2075 0,-4.53125 3.67125,-8.20875 8.2075,-8.20875 4.53125,0 8.20875,3.6775 8.20875,8.20875 z"
         id="path3163"
         style="fill:#ffffff;fill-opacity:1;fill-rule:nonzero;stroke:none"
         inkscape:connector-curvature="0" />
      <path
         d="m 414.9175,254.55125 c 0,4.10625 -3.33,7.43625 -7.4375,7.43625 -4.10625,0 -7.43125,-3.33 -7.43125,-7.43625 0,-4.10625 3.325,-7.43625 7.43125,-7.43625 4.1075,0 7.4375,3.33 7.4375,7.43625 z"
         id="path3165"
         style="fill:#ffffff;fill-opacity:1;fill-rule:nonzero;stroke:none"
         inkscape:connector-curvature="0" />
    </g>
    <g
       id="g4145"
       transform="matrix(0.76086957,0,0,0.76086957,40.945034,449.42019)">
      <path
         inkscape:connector-curvature="0"
         id="path2383"
         style="fill:none;stroke:#ffffff;stroke-width:18.01597786;stroke-miterlimit:4;stroke-dasharray:none;stroke-dashoffset:1.79999995;stroke-opacity:1"
         d="m 250.00002,-446.99198 c 121.99655,9e-5 220.99201,98.99538 220.99201,220.99202 0,121.99664 -98.99537,220.99201 -220.99201,220.99201 -121.99655,0 -220.992011,-98.99537 -220.992011,-220.99201 0,-121.99664 98.995551,-220.99202 220.992011,-220.99202 z" />
      <path
         inkscape:connector-curvature="0"
         id="path2371"
         style="fill:#ffffff;fill-opacity:1;stroke:none"
         d="m 250.00002,-377.2251 -27.32204,29.75789 c 9.58513,13.47397 13.18463,29.66773 13.18463,37.80617 -8.1416,-14.07651 -17.08635,-18.11182 -25.89266,-23.93341 l -17.63223,19.16801 c 23.95143,8.14718 38.60032,35.89675 38.60032,64.65205 0,13.89816 -4.87288,46.97477 -38.60032,45.53683 l 0,-0.10585 c -24.87772,-2.88652 -48.25103,-31.22529 -50.35538,-62.16323 -2.09814,-30.84597 11.25629,-60.85797 33.25245,-85.77912 l -0.10593,0 c -40.2223,23.46185 -68.09482,65.25441 -71.80016,113.94845 -0.0906,1.19338 -0.20322,2.39955 -0.26502,3.60058 0,0.0252 0,0.0811 0,0.10585 -0.0613,1.21662 -0.12737,2.42946 -0.15872,3.65355 -0.0324,1.24671 0,2.50521 0,3.75966 0,79.62865 65.87912,144.23575 147.09506,144.23575 81.2163,0 147.14839,-64.6071 147.14839,-144.23575 0,-3.73273 -0.13918,-7.45807 -0.42365,-11.11964 -3.70534,-48.69404 -31.63065,-90.4866 -71.85321,-113.94845 l -0.0531,0 c 21.99625,24.92115 35.29799,54.93315 33.19985,85.77912 -2.10445,30.93794 -25.42487,59.27671 -50.30277,62.16323 l 0,0.10585 c -33.72736,1.43794 -38.65329,-31.6384 -38.65329,-45.53683 0,-28.7553 14.70203,-56.50487 38.65329,-64.65205 l -17.63216,-19.16801 c -8.80621,5.82159 -17.75114,9.8569 -25.89256,23.93341 0,-8.13844 3.59914,-24.3322 13.18454,-37.80617 l -27.3754,-29.75789 z" />
      <path
         inkscape:connector-curvature="0"
         id="path2386"
         style="fill:#ffffff;fill-opacity:1;stroke:none"
         d="m 246.84722,-430.11533 -4.6447,4.89809 -6.44638,-1.91419 -1.5764,6.53079 -6.5308,1.5764 1.9142,6.4463 -4.8699,4.64479 4.8699,4.61659 -1.9142,6.4463 6.5308,1.5764 1.5764,6.53079 6.44638,-1.886 4.6447,4.86989 4.6448,-4.86989 6.44629,1.886 1.5764,-6.53079 6.5308,-1.5764 -1.9142,-6.4463 4.86999,-4.61659 -4.86999,-4.64479 1.9142,-6.4463 -6.5308,-1.5764 -1.5764,-6.53079 -6.44629,1.91419 -4.6448,-4.89809 z m 66.96882,12.83639 -3.941,5.4329 -6.64339,-1.04151 -0.7319,6.69969 -6.24929,2.4209 2.7305,6.13669 -4.2506,5.2359 5.4329,3.94099 -1.0415,6.64339 6.69969,0.70371 2.4209,6.27748 6.13669,-2.73059 5.2359,4.2225 3.94099,-5.4329 6.64339,1.04151 0.7037,-6.6715 6.27749,-2.4209 -2.73059,-6.13669 4.2225,-5.2359 -5.4329,-3.96919 1.0415,-6.61519 -6.6715,-0.7319 -2.42089,-6.2493 -6.13669,2.7024 -5.2359,-4.22249 z m -133.45904,2.42089 -5.23589,4.2225 -6.1367,-2.73059 -2.42089,6.27748 -6.6715,0.70371 1.0415,6.64339 -5.4329,3.96919 4.22251,5.23589 -2.7306,6.1367 6.27749,2.4209 0.70371,6.67149 6.64338,-1.0415 3.941,5.4329 5.23589,-4.2225 6.1367,2.73059 2.42089,-6.27748 6.6997,-0.70371 -1.04151,-6.64339 5.4329,-3.96919 -4.2225,-5.2077 2.70241,-6.16489 -6.2493,-2.4209 -0.7319,-6.67149 -6.64339,1.0415 -3.941,-5.4329 z m 190.32197,36.56676 -3.20909,5.9115 -6.72789,-0.1689 0.1689,6.72788 -5.8833,3.2091 3.4906,5.74259 -3.4906,5.7144 5.8833,3.2091 -0.1689,6.72788 6.72789,-0.16889 3.20909,5.91149 5.7426,-3.51879 5.74259,3.51879 3.20919,-5.91149 6.7277,0.16889 -0.1689,-6.72788 5.88348,-3.2091 -3.4906,-5.7144 3.4906,-5.74259 -5.88348,-3.2091 0.1689,-6.72788 -6.7277,0.1689 -3.20919,-5.9115 -5.74259,3.5188 -5.7426,-3.5188 z m -257.29069,4.4759 -3.2091,5.88329 -6.72789,-0.1689 0.1689,6.72789 -5.911491,3.20909 3.518791,5.7426 -3.518791,5.74259 5.911491,3.2091 -0.1689,6.72779 6.72789,-0.16889 3.2091,5.88338 5.74259,-3.49059 5.7144,3.49059 3.20909,-5.88338 6.72789,0.16889 -0.1689,-6.72779 5.91149,-3.2091 -3.51878,-5.74259 3.51878,-5.7426 -5.91149,-3.20909 0.1689,-6.72789 -6.72789,0.1689 -3.20909,-5.88329 -5.7144,3.49059 -5.74259,-3.49059 z m 306.38432,53.31603 -5.23589,4.22249 -6.13669,-2.73059 -2.4209,6.27749 -6.67167,0.7037 1.04168,6.6434 -5.43308,3.941 4.22249,5.23589 -2.7304,6.13669 6.2773,2.4209 0.70389,6.69969 6.64339,-1.04151 3.96901,5.4329 5.20788,-4.22249 6.1647,2.7024 2.4209,-6.2493 6.67168,-0.7319 -1.04169,-6.64339 5.43308,-3.94099 -4.22249,-5.2359 2.73041,-6.13669 -6.27731,-2.4209 -0.70388,-6.67149 -6.6434,1.0415 -3.96901,-5.4329 z m -341.965881,5.827 -3.969191,5.43299 -6.615197,-1.0416 -0.731899,6.67159 -6.249293,2.4209 2.702398,6.13669 -4.222495,5.2359 5.432898,3.94099 -1.041504,6.64339 6.699692,0.7319 2.420897,6.24929 6.136693,-2.73059 5.235894,4.25069 3.940996,-5.43299 6.643392,1.0416 0.703704,-6.69969 6.277486,-2.4209 -2.730592,-6.1367 4.222492,-5.23589 -5.43289,-3.94099 1.041501,-6.6434 -6.671498,-0.70379 -2.420897,-6.2774 -6.136694,2.73051 -5.235893,-4.2225 z m 354.126671,63.36562 -4.61659,4.8699 -6.44648,-1.9142 -1.5764,6.5308 -6.53079,1.57639 1.88618,6.44639 -4.87008,4.6447 4.87008,4.64479 -1.88618,6.4463 6.53079,1.57639 1.5764,6.53079 6.44648,-1.91419 4.61659,4.86998 4.64461,-4.86998 6.44648,1.91419 1.57639,-6.53079 6.5308,-1.57639 -1.9142,-6.4463 4.8981,-4.64479 -4.8981,-4.6447 1.9142,-6.44639 -6.5308,-1.57639 -1.57639,-6.5308 -6.44648,1.9142 -4.64461,-4.8699 z m -363.866559,6.3056 -4.64479,4.86989 -6.446298,-1.9142 -1.576397,6.53079 -6.530793,1.57641 1.914198,6.44638 -4.898095,4.6447 4.898095,4.64479 -1.914198,6.4463 6.530793,1.5764 1.576397,6.53079 6.446298,-1.9142 4.64479,4.86999 4.616594,-4.86999 6.446297,1.9142 1.576399,-6.53079 6.530792,-1.5764 -1.886003,-6.4463 4.869899,-4.64479 -4.869899,-4.6447 1.886003,-6.44638 -6.530792,-1.57641 -1.576399,-6.53079 -6.446297,1.9142 -4.616594,-4.86989 z m 348.327779,63.73152 -3.941,5.4329 -6.64339,-1.0415 -0.70388,6.69968 -6.27731,2.4209 2.73041,6.1367 -4.22249,5.23588 5.43308,3.941 -1.04169,6.6434 6.67168,0.7037 2.4209,6.27749 6.13669,-2.73059 5.23589,4.22249 3.96901,-5.4329 6.61538,1.0415 0.7319,-6.67149 6.24929,-2.4209 -2.7024,-6.13669 4.2225,-5.2359 -5.43308,-3.94099 1.04169,-6.64339 -6.6997,-0.7319 -2.42089,-6.24929 -6.1367,2.7305 -5.23589,-4.2506 z m -330.396296,5.82699 -5.207699,4.2225 -6.164887,-2.7024 -2.420898,6.2493 -6.671497,0.7319 1.041504,6.64338 -5.432899,3.941 4.222495,5.2359 -2.730591,6.13669 6.277487,2.42089 0.703704,6.67159 6.643393,-1.04159 3.96919,5.43299 5.235894,-4.22249 6.136693,2.73049 2.420897,-6.27739 6.6715,-0.7038 -1.041505,-6.64338 5.432895,-3.941 -4.2225,-5.2359 2.7306,-6.13669 -6.277488,-2.42089 -0.703706,-6.6997 -6.643391,1.0416 -3.969191,-5.433 z m 289.156456,54.47024 -3.2091,5.88329 -6.72779,-0.16889 0.1689,6.72788 -5.91149,3.2091 3.5187,5.74259 -3.5187,5.7426 5.91149,3.20909 -0.1689,6.72779 6.72779,-0.16889 3.2091,5.88338 5.71449,-3.49059 5.74269,3.49059 3.20909,-5.88338 6.72771,0.16889 -0.1689,-6.72779 5.91149,-3.20909 -3.51861,-5.7426 3.51861,-5.74259 -5.91149,-3.2091 0.1689,-6.72788 -6.72771,0.16889 -3.20909,-5.88329 -5.74269,3.49059 -5.71449,-3.49059 z m -257.3188,4.44769 -3.20909,5.91149 -6.72789,-0.16889 0.16889,6.72779 -5.88329,3.2091 3.4906,5.71448 -3.4906,5.7426 5.88329,3.2091 -0.16889,6.72779 6.72789,-0.1689 3.20909,5.91149 5.74259,-3.5187 5.7426,3.5187 3.2091,-5.91149 6.72779,0.1689 -0.1689,-6.72779 5.88339,-3.2091 -3.4906,-5.7426 3.4906,-5.71448 -5.88339,-3.2091 0.1689,-6.72779 -6.72779,0.16889 -3.2091,-5.91149 -5.7426,3.5187 -5.74259,-3.5187 z m 207.60596,35.44077 -5.23589,4.22249 -6.13669,-2.7305 -2.4209,6.2774 -6.69969,0.70379 1.04159,6.64339 -5.43299,3.9691 4.22249,5.20779 -2.70239,6.1648 6.24929,2.4209 0.7319,6.67158 6.6434,-1.04159 3.94099,5.43299 5.23589,-4.2225 6.13669,2.73051 2.4209,-6.2774 6.67159,-0.70379 -1.0416,-6.6434 5.43299,-3.9691 -4.22249,-5.23589 2.7305,-6.13669 -6.2774,-2.42091 -0.70379,-6.67158 -6.64339,1.0416 -3.941,-5.43299 z m -145.05673,2.42089 -3.941,5.43299 -6.64339,-1.04159 -0.7038,6.67159 -6.27739,2.42089 2.7305,6.13669 -4.22249,5.2359 5.43298,3.96909 -1.04159,6.6153 6.67159,0.73189 2.42089,6.2493 6.13669,-2.7024 5.2359,4.2225 3.941,-5.43299 6.64339,1.04159 0.73189,-6.69969 6.2493,-2.4209 -2.73059,-6.13669 4.25069,-5.2359 -5.43299,-3.94099 1.0416,-6.64339 -6.6997,-0.7038 -2.42089,-6.27739 -6.1367,2.73049 -5.23589,-4.22249 z m 72.76762,12.44229 -4.6447,4.86999 -6.44639,-1.88609 -1.5764,6.53078 -6.53079,1.5764 1.9142,6.44639 -4.8699,4.6166 4.8699,4.64469 -1.9142,6.44639 6.53079,1.5764 1.5764,6.53079 6.44639,-1.91419 4.6447,4.89809 4.64479,-4.89809 6.4463,1.91419 1.57639,-6.53079 6.53079,-1.5764 -1.91419,-6.44639 4.86998,-4.64469 -4.86998,-4.6166 1.91419,-6.44639 -6.53079,-1.5764 -1.57639,-6.53078 -6.4463,1.88609 -4.64479,-4.86999 z" />
    </g>
    <path
       style="fill:#ffffff;fill-opacity:1"
       d="m 773.07537,988.68089 c -1.45341,-1.6064 -1.42461,-1.8663 0.61349,-5.5167 4.16237,-7.4559 5.04581,-13.4975 6.47299,-44.2637 0.74089,-15.96767 1.55137,-35.60029 1.80153,-43.62854 l 0.45472,-14.59653 -3.77839,-2.7786 c -2.07797,-1.52832 -4.1951,-2.77276 -4.70456,-2.76531 -0.50973,0 -9.32386,8.44176 -19.58753,18.74304 -18.06483,18.1312 -22.16854,23.31733 -22.22849,28.09059 -0.0421,3.46206 -3.8642,1.44277 -11.65263,-6.15835 -4.33836,-4.23368 -9.05299,-9.15892 -10.4766,-10.94456 l -2.58836,-3.24688 7.04469,-3.48929 c 6.92735,-3.43128 11.69479,-7.22163 27.27872,-21.68821 4.16987,-3.87105 10.67302,-9.76981 14.45141,-13.10807 6.08087,-5.3728 6.80418,-6.3327 6.2993,-8.35783 -0.31439,-1.25805 -0.79591,-3.4201 -1.07143,-4.80388 l -0.50031,-2.5161 -21.66008,0.51981 c -25.5848,0.61379 -38.37403,2.13369 -43.17354,5.1312 -1.34259,0.83837 -2.20044,0.87953 -3.34282,0.15879 -1.35073,-0.8515 -1.56523,-2.82931 -1.77623,-16.36516 -0.28195,-18.15096 0,-18.8542 6.20084,-15.87338 9.1343,4.38534 23.62094,6.27306 48.68957,6.34404 l 15.06162,0.0421 1.1566,-4.13062 c 1.96936,-7.03464 7.44946,-16.48786 11.94887,-20.61252 1.38539,-1.27007 4.2016,-3.40111 6.25778,-4.73563 7.74799,-5.02798 7.67211,-5.03777 -35.63012,-4.57827 -23.05611,0.24467 -40.007,0.0836 -40.90894,-0.38873 -0.84642,-0.44359 -1.53929,-1.34094 -1.53929,-1.99411 0,-0.65317 2.55627,-5.29097 5.6803,-10.30621 3.12439,-5.01525 7.57815,-12.19604 9.89748,-15.95735 2.31906,-3.76132 5.28303,-8.51199 6.58618,-10.55711 1.30336,-2.04509 3.67886,-5.83942 5.27881,-8.43184 3.43385,-5.56435 3.25594,-5.28098 13.74711,-21.893 4.50978,-7.14044 8.66637,-13.74202 9.2377,-14.67016 3.10752,-5.05061 14.00091,-22.49882 18.19343,-29.14097 5.90167,-9.34955 8.21422,-13.10548 10.54106,-17.11837 0.98196,-1.69354 4.13715,-6.64219 7.01103,-10.99697 2.87416,-4.35482 5.24701,-8.3458 5.27359,-8.86886 0.0322,-0.52308 1.04935,-1.487 2.2734,-2.14202 1.89419,-1.01372 2.41594,-1.00057 3.50451,0.0882 1.59796,1.598 9.22598,13.91035 9.22598,14.89168 0,0.39766 0.29817,0.85502 0.65979,1.01632 0.36297,0.16139 2.21601,2.86655 4.11771,6.01167 1.90163,3.14515 5.10447,8.29175 7.11757,11.43686 4.78301,7.47259 17.32943,27.67124 18.45659,29.71348 0.4838,0.87664 3.49444,5.73364 6.69014,10.79338 9.79023,15.50113 17.11101,27.19871 23.8323,38.08193 3.53524,5.72409 7.02132,11.31417 7.7472,12.4224 0.72567,1.1082 2.83694,4.54061 4.69162,7.62756 1.85468,3.08695 4.89869,7.988 6.76438,10.8912 3.71744,5.78527 4.22754,7.89025 2.10841,8.70347 -0.76547,0.29361 -19.17441,0.53398 -40.90894,0.53398 -32.99447,0 -39.51705,0.20027 -39.51705,1.21291 0,0.66709 1.22112,1.71874 2.71347,2.33697 3.59947,1.4909 12.8929,11.18851 15.76285,16.44846 1.25905,2.30739 2.91081,6.17454 3.67078,8.59374 l 1.38153,4.39896 10.00959,-0.0972 c 19.90779,-0.19445 47.00766,-1.34198 49.15887,-2.08184 7.0952,-2.44026 8.68223,-1.85143 9.73772,3.61211 1.20302,6.22802 1.00362,24.15667 -0.27874,25.19143 -0.75732,0.61039 -3.61626,0.26282 -9.17896,-1.1174 -6.10394,-1.51374 -12.98721,-2.26202 -28.15222,-3.06054 -11.04015,-0.58138 -22.64648,-0.92069 -25.79159,-0.75444 -5.33776,0.28194 -5.73804,0.44884 -6.01284,2.50184 -0.16205,1.20976 -0.65686,2.57557 -1.09958,3.03542 -2.36442,2.45388 -0.36583,4.74248 18.09462,20.71827 4.7525,4.1128 11.25307,9.87124 14.4452,12.79631 7.42609,6.80422 10.77084,9.18097 17.0209,12.09503 2.78249,1.29726 5.05617,2.85831 5.05324,3.46952 0,1.48749 -20.41852,22.66496 -21.84507,22.66496 -0.61606,0 -2.11584,-2.27628 -3.33338,-5.05844 -1.21726,-2.78217 -3.24686,-6.64219 -4.51013,-8.57755 -2.96948,-4.54997 -35.4655,-37.38983 -36.99772,-37.38983 -0.642,0 -2.46453,0.98971 -4.05055,2.19947 -1.58603,1.20944 -3.34118,2.19916 -3.90022,2.19916 -1.19711,0 -1.1984,0.2787 -0.1199,29.91187 1.22598,33.65584 2.44774,54.27234 3.54082,59.75154 1.77237,8.885 2.84565,12.7829 4.47769,16.2618 2.63437,5.6152 2.11162,5.7439 -23.51598,5.7763 -20.65768,0.032 -22.17561,-0.081 -23.60315,-1.6576 z m 32.32232,-117.60255 c 14.40925,-4.90969 23.22338,-25.27682 18.60793,-42.99677 -5.85822,-22.49107 -27.18805,-31.35091 -42.44731,-17.63148 -15.37207,13.82104 -15.36393,41.62255 0.0322,55.45087 6.95422,6.25265 15.32699,8.07199 23.82286,5.17738 z m -16.11347,-6.58871 c -20.97492,-9.49435 -20.97492,-44.0283 0,-53.52297 12.11993,-5.48625 25.78966,2.4367 30.27743,17.54884 5.35527,18.033 -6.32788,37.76624 -22.35974,37.76624 -2.17743,0 -5.74025,-0.80628 -7.91769,-1.79211 z m 64.22235,-94.15534 c 0,-0.53466 -1.18775,-2.7319 -2.63923,-4.88276 -1.45155,-2.15087 -2.63922,-4.23825 -2.63922,-4.63861 0,-0.40036 -0.56812,-1.19926 -1.26228,-1.77534 -0.69387,-0.57607 -2.07961,-2.61626 -3.07902,-4.53377 -0.99947,-1.9175 -4.78658,-8.00183 -8.41549,-13.52078 -3.62898,-5.51892 -6.59811,-10.24493 -6.59811,-10.50224 0,-0.25732 -1.51571,-2.75662 -3.36811,-5.55404 -6.68656,-10.09722 -9.82817,-15.19041 -9.82817,-15.93331 0,-0.41634 -0.79169,-1.47349 -1.75965,-2.3493 -0.96768,-0.87577 -1.75944,-1.9093 -1.75944,-2.29667 0,-0.38739 -0.89087,-2.03031 -1.97944,-3.6509 -1.0885,-1.62062 -4.15687,-6.38665 -6.81811,-10.59119 -2.66131,-4.20456 -5.29118,-7.64688 -5.84436,-7.6496 -0.9038,-0.004 -13.51025,18.63555 -13.51025,19.97646 0,0.30495 -0.65786,1.28102 -1.46155,2.16924 -0.80369,0.88818 -1.89255,2.38394 -2.41923,3.32385 -1.32636,2.36625 -10.48432,16.96242 -14.65191,23.35206 -1.89355,2.9032 -3.81826,6.13083 -4.27741,7.17253 -0.45922,1.0417 -1.27978,2.16889 -1.82324,2.50482 -0.54347,0.33593 -1.3676,1.46309 -1.83132,2.50479 -0.4638,1.04169 -1.92407,3.58255 -3.245,5.64631 -7.62409,11.91176 -13.39871,21.26429 -13.39871,21.70062 0,0.27481 25.33722,0.49995 56.30459,0.49995 40.51588,0 56.30466,-0.27255 56.30466,-0.97212 z"
       id="path4148"
       inkscape:connector-curvature="0" />
    <path
       style="fill:#ffffff;fill-opacity:1"
       d="m 231.53341,984.90035 c -5.98405,-3.05 -6.50165,-3.74327 -6.14187,-8.22837 0.50458,-6.2935 -1.74163,-8.8972 -7.67574,-8.8972 -5.55423,0 -7.18997,2.7421 -4.19049,7.0246 1.89855,2.7104 1.81138,3.1577 -0.89838,4.608 -3.98473,2.1321 -16.49915,-1.4941 -22.4786,-6.5139 -3.95781,-3.3226 -4.12404,-3.7971 -1.81518,-5.1861 3.90037,-2.3468 3.14689,-7.0347 -1.40917,-8.767 -3.22826,-1.2273 -4.29067,-1.0358 -5.81513,1.0491 -1.02578,1.4026 -1.49113,3.7283 -1.03448,5.1679 2.65752,8.3726 -19.93707,-4.5256 -40.80274,-23.292 -10.35137,-9.31017 -20.1111,-21.26262 -30.42264,-37.25745 -5.29823,-8.21861 -13.838628,-30.35593 -13.765768,-35.68202 l 0.049,-3.52481 2.87439,3.45091 c 1.5809,1.89788 3.263878,5.00331 3.740348,6.90086 1.27787,5.09145 20.62408,23.18672 35.87448,33.55502 7.32608,4.98061 18.87466,11.39469 25.66343,14.25317 23.36007,9.83646 57.30338,16.73472 67.88363,13.79652 2.99658,-0.8323 7.49851,-1.5167 10.00471,-1.5213 2.50651,0 10.34787,-1.67747 17.42536,-3.71826 15.60066,-4.49805 31.82891,-14.55004 45.58487,-28.23605 11.63225,-11.57262 16.99303,-19.26134 23.28692,-33.39849 4.36972,-9.81507 4.90733,-12.52149 5.44214,-27.39789 0.54961,-15.28902 0.30463,-17.21758 -3.30091,-26.13798 -8.20365,-20.28741 -25.30946,-37.81521 -44.18161,-45.27163 -9.04338,-3.57303 -32.11443,-5.81357 -32.11443,-3.11876 0,0.84581 3.99214,4.6742 8.87135,8.50747 l 8.87135,6.96966 -7.05617,2.83745 c -11.44881,4.60389 -30.74449,14.98409 -36.53239,19.65277 -2.95575,2.38437 -9.62192,7.67508 -14.81327,11.75713 l -9.43848,7.42189 -20.32946,-0.54434 c -16.28749,-0.4361 -21.41239,-1.09046 -25.77531,-3.29098 -2.99488,-1.51065 -5.44534,-3.12519 -5.44534,-3.58787 0,-0.46271 4.078,-1.04334 9.06189,-1.29034 4.98419,-0.24695 9.34841,-0.73562 9.69878,-1.08582 0.34997,-0.35022 -0.7872,-2.56259 -2.52762,-4.91642 -1.74003,-2.3538 -3.16411,-4.4695 -3.16411,-4.70152 0,-0.23205 4.21481,-0.4218 9.36622,-0.4218 11.22875,0 13.73335,-1.72112 10.2474,-7.04145 -3.16791,-4.83506 -1.63825,-7.55023 2.58657,-4.591 3.17541,2.2242 15.56284,3.10446 15.54532,1.10466 0,-0.59901 -1.30799,-3.04943 -2.8948,-5.44543 -1.58671,-2.39596 -2.8908,-4.68307 -2.898,-5.08238 0,-0.39934 4.77002,-0.51524 10.61597,-0.25765 11.93818,0.52616 14.5931,-1.02128 14.38404,-8.38296 -0.3989,-14.03084 -20.1176,-29.11433 -38.06115,-29.11433 -6.41638,0 -11.01228,2.99352 -9.7295,6.33706 0.85395,2.22492 2.92202,3.42545 10.44154,6.0617 2.63811,0.92482 2.50491,1.19249 -1.4519,2.92005 -2.39602,1.04603 -9.42067,2.35902 -15.61048,2.91776 -6.1895,0.55873 -11.25376,1.63752 -11.25376,2.39729 0,0.7598 2.61379,2.40815 5.80842,3.66307 3.19483,1.25487 5.80862,2.81239 5.80862,3.46109 0,2.62383 -11.32732,8.62731 -19.20071,10.17627 -8.95691,1.76214 -10.6512,3.55391 -4.75932,5.03274 1.99672,0.5011 3.63047,1.52381 3.63047,2.27262 0,2.445 -14.77234,8.36561 -18.84194,7.55165 -2.39662,-0.47929 -4.49251,0.0343 -5.60386,1.37357 -1.45811,1.75669 -0.96904,2.81777 2.73368,5.9336 2.48029,2.08692 5.43954,3.79439 6.5762,3.79439 1.13687,0 2.06667,0.62384 2.06667,1.3863 0,2.16298 -7.38311,2.84505 -35.576658,3.28666 l -26.13788,0.40942 0.375285,-7.12801 c 1.234139,-23.4433 25.289035,-70.34637 47.847393,-93.29398 10.57765,-10.76018 38.93682,-31.4613 51.97304,-37.9382 34.8446,-17.31256 50.50171,-21.67669 82.8333,-23.08831 16.78207,-0.73272 27.5973,1.60558 52.5759,11.36712 14.81677,5.79039 18.57653,9.25906 11.92167,10.99934 -4.24623,1.11039 -7.31477,7.75846 -5.94513,12.87973 1.54328,5.77075 9.29487,10.2588 14.00876,8.11095 1.90185,-0.86652 4.51523,-3.18908 5.80742,-5.16123 2.15914,-3.29546 2.16074,-3.95083 0,-8.09536 -2.47899,-4.79379 -1.94488,-7.32857 1.54397,-7.32857 6.35574,0 34.49294,18.2073 39.1712,25.34732 3.1547,4.81487 1.77895,8.05121 -3.42271,8.05121 -4.6105,0 -10.46366,5.1917 -10.46366,9.28097 0,3.7577 7.92273,11.04856 12.00634,11.04856 4.72159,0 8.32323,-4.29069 8.32323,-9.91606 0,-6.43248 2.81504,-5.87592 10.06566,1.99005 7.91462,8.58655 16.07222,25.54798 16.07222,33.418 0,7.38864 -0.57293,7.9861 -5.77589,6.02215 -5.28462,-1.99465 -8.30642,0.24727 -9.5957,7.11912 -0.64589,3.44379 -0.19125,6.06597 1.49924,8.64605 2.06417,3.14999 3.33554,3.63713 8.51257,3.26084 5.43013,-0.39465 6.13537,-0.87269 6.54528,-4.43564 0.25279,-2.19632 0.95583,-3.9933 1.56219,-3.9933 5.99756,0 13.98544,25.69796 12.33969,39.69899 -1.21463,10.33618 -3.29471,12.31873 -7.84357,7.47644 -1.86652,-1.98667 -4.54966,-3.61212 -5.96233,-3.61212 -6.63475,0 -9.70228,14.61104 -4.12664,19.65677 2.73498,2.47511 3.26588,2.50722 6.89724,0.41752 6.16359,-3.54668 7.56496,-2.04705 7.56496,8.09616 0,13.8129 -2.60929,25.3429 -6.97211,30.81063 -3.83431,4.80593 -3.84212,4.80788 -6.87663,1.95718 -4.17978,-3.92668 -8.85703,-3.57342 -13.08475,0.98848 -3.85833,4.16326 -4.44368,7.76812 -2.00222,12.32969 1.22273,2.28516 2.78231,2.8238 7.24371,2.50165 3.12678,-0.22686 6.29549,0.21715 7.04145,0.98556 1.98701,2.04566 -1.64475,11.34737 -8.07694,20.68669 -7.61609,11.05829 -13.17522,16.28652 -17.31747,16.28652 -3.20194,0 -3.51828,-0.58791 -3.51828,-6.53465 0,-6.48731 -0.036,-6.53463 -5.03183,-6.53463 -5.82583,0 -15.29773,7.27486 -15.29773,11.74925 0,1.61818 2.40382,4.25304 5.88517,6.4507 6.08353,3.8405 6.62274,6.7139 2.28674,12.1806 -2.33958,2.9496 -19.48912,13.8708 -26.13788,16.645 -10.74327,4.4831 -12.72538,3.5001 -14.29888,-7.0924 -0.62897,-4.233 -8.18522,-4.629 -13.19103,-0.6913 -4.85559,3.8194 -4.91104,5.7847 -0.28522,10.1301 5.55683,5.2204 4.69738,8.404 -3.21374,11.9032 -4.78935,2.1186 -10.12911,3.07487 -17.78833,3.18577 l -10.94423,0.1588 0,-5.65117 c 0,-4.3016 -0.69353,-5.9244 -2.90451,-6.7955 -4.72129,-1.8603 -7.46087,-1.5135 -11.05861,1.3997 -3.05742,2.4758 -3.20324,3.1048 -1.46972,6.3438 1.05821,1.9773 1.68759,4.82467 1.39847,6.32717 -0.45695,2.3769 -2.12762,2.7875 -12.84888,3.1586 -10.50799,0.3633 -13.2867,-0.065 -18.85814,-2.9045 z M 127.84554,742.49573 c 1.52126,-1.70841 8.97402,-8.33843 16.5613,-14.73341 7.58737,-6.39498 14.601,-12.77045 15.58615,-14.16768 1.54758,-2.19448 1.27958,-2.66898 -1.9688,-3.48423 -4.8665,-1.22143 -7.18346,0.37414 -23.49106,16.1774 -8.84603,8.57238 -13.36027,14.02254 -13.36027,16.13049 0,4.0489 3.10376,4.08494 6.67268,0.0775 z"
       id="path4151"
       inkscape:connector-curvature="0" />
    <flowRoot
       xml:space="preserve"
       id="flowRoot4334"
       style="font-style:normal;font-weight:normal;font-size:12px;line-height:125%;font-family:Sans;letter-spacing:0px;word-spacing:0px;fill:#ffffff;fill-opacity:1;stroke:none;stroke-width:1px;stroke-linecap:butt;stroke-linejoin:miter;stroke-opacity:1;"
       transform="matrix(1.8876515,0,0,1.8876515,63.888992,359.08228)"><flowRegion
         id="flowRegion4336"><rect
           id="rect4338"
           width="917.21851"
           height="571.74634"
           x="46.467018"
           y="68.639351"
           style="fill:#ffffff;fill-opacity:1;" /></flowRegion><flowPara
         id="flowPara4342"
         style="font-style:normal;font-variant:normal;font-weight:normal;font-stretch:normal;font-size:50px;font-family:'standard 07_53';-inkscape-font-specification:'standard 07_53';fill:#ffffff;fill-opacity:1;">SciFi Mashup</flowPara></flowRoot>  </g>
</svg>
